<?xml version="1.0" encoding="UTF-8"?>
<!DOCTYPE svg PUBLIC "-//W3C//DTD SVG 1.1//EN" "http://www.w3.org/Graphics/SVG/1.1/DTD/svg11.dtd">
<svg version="1.1" xmlns="http://www.w3.org/2000/svg" xmlns:xlink="http://www.w3.org/1999/xlink" x="0" y="0" width="283.5" height="283.5" viewBox="0, 0, 283.5, 283.5">
  <g id="Background">
    <rect x="0" y="0" width="283.5" height="283.5" fill="#FFFFFF"/>
  </g>
  <g id="Layer_1">
    <path d="M56.5,49.4 C61.6,49.5 66.5,53 68.2,57.8 L86.7,110.1 C88.6,115.2 86.4,121.2 81.6,124 L80.7,124.5 L71.8,126.5 L58.5,129.5 L54,130.5 C53,137.4 53.6,155.5 54.6,161.3 L122.5,229.2 C125.7,229.8 134.4,230.6 143,230.6 C148.4,230.6 151.5,230.3 153.2,230 L154,226.3 L159.3,202.9 L159.8,202 C161.8,198.5 165.8,196.3 170,196.3 C171.3,196.3 172.6,196.6 173.8,197 L226.1,215.4 C230.8,217.1 234.4,221.9 234.7,226.6 L234.7,227.5 L230.4,246.2 C229.2,250.4 223.7,256.1 223.1,256.7 C222.1,257.8 221.2,258.5 220.4,259.1 L220,259.3 C219.5,259.6 208.3,266.3 198.6,270.7 C183.7,277.5 167.5,281.6 150.7,282.8 L149.6,282.9 C149.5,282.9 149.5,282.9 149.5,282.9 C148.8,282.9 148.2,283 147.6,283 L144.6,283.1 L143.7,283.1 L141.7,283.2 L139.9,283.2 C102.5,283.1 67.4,268.5 41,242.2 C14.5,215.6 -0.1,180.3 -0.1,142.7 L-0.1,141.6 C-0.1,140.7 -0,139.9 -0,139.1 L0.1,138.1 L0.1,137.9 C0.1,137.1 0.2,136.3 0.2,135.5 L0.4,132.7 C0.4,132.5 0.4,132.4 0.4,132.2 C1.7,114.8 6.1,98.2 13.4,82.7 C17.3,74.6 22.2,65.9 22.4,65.5 L22.7,65 C23.2,64.3 24.2,63 27,60.5 C32.2,56 34.5,55.3 35.4,55 L55.5,49.4 L56.5,49.4 z M37.3,69.8 L36.3,70.7 C35,71.8 34.4,72.4 34.2,72.7 C33.1,74.6 29.1,81.9 25.9,88.6 C19.3,102.6 15.3,117.6 14.1,133.3 C14,133.5 14,133.8 14,134.1 C13.9,135.6 13.8,137 13.8,138.5 L13.8,139 C13.7,140.4 13.7,141.7 13.7,143 C13.8,155.9 15.9,168.5 19.7,180.3 C30.4,213.8 54.7,241.5 85.9,256.9 C101.8,264.7 119.4,269.2 138,269.8 L140.4,269.9 L144.3,269.9 C145.4,269.8 146.4,269.8 147.5,269.7 L149.7,269.6 C164.9,268.5 179.4,264.9 193,258.7 C201.2,255 210.9,249.3 212.7,248.2 L213.4,247.5 L214.5,246.7 L167.1,230.8 L165.5,237.4 C163.4,242.4 157.4,244.3 143.3,244.3 C134,244.3 118,243.7 114.4,240.1 L44.1,169.8 C39.2,164.9 40.1,132.4 41.3,126.6 C41.6,124.8 42.6,120.2 46.9,118.5 L47.9,118.2 L54.1,116.8 L37.3,69.8 z M171.4,210.4 L169.8,217.4 L219.3,234 L220.7,227.8 L171.4,210.4 z M55.8,63.3 L49.7,65.1 L67.1,113.7 L73.1,112.3 L55.8,63.3 z M142.5,0 L141.7,0 C114.2,-0 87.6,7.9 64.6,22.8 C61.5,24.9 60.6,29 62.6,32.2 C64.6,35.3 68.8,36.2 72,34.2 C91,21.8 112.8,14.8 135.5,13.7 L135.5,26.8 C135.5,30.5 138.5,33.6 142.2,33.6 C145.9,33.6 149,30.6 149,26.8 L149,13.7 C214,17.4 266.2,69.7 269.7,134.8 L256.6,134.8 C252.9,134.8 249.9,137.8 249.9,141.5 C249.9,145.2 252.9,148.3 256.6,148.3 L269.7,148.3 C268.5,171.4 261.2,193.6 248.4,212.8 C246.3,215.9 247.1,220.1 250.2,222.2 C251.4,223 252.7,223.3 254,223.3 C256.2,223.3 258.3,222.2 259.6,220.3 C275.2,197 283.4,169.9 283.4,141.7 C283.5,141.7 283.5,141.7 283.5,141.6 C283.3,63.7 220.2,0.4 142.5,0 z M121,100.8 C114.2,100.8 107.8,102.9 102.5,106.1 C101,106.9 101,107.9 101.5,109.2 L103.6,113.7 C104.3,115.2 105.4,115.2 106.6,114.6 C111.6,111.8 115.5,110.6 119.5,110.6 C124.8,110.6 128.8,113.3 128.8,118.9 C128.8,124.1 124.5,130 117.7,137 C112.5,142.2 106.3,147.6 100.8,153.2 C99.5,154.5 99.2,155.2 99.2,157 L99.2,161.3 C99.2,163.4 99.8,164.1 102,164.1 L137.2,164.1 C139.1,164.1 139.8,163.2 139.8,161.5 L139.8,156.7 C139.8,155 139,154.5 137.2,154.5 L113.4,154.5 C116,152 119.1,149.1 122.3,146.1 C131.6,137.3 140.5,128.3 140.5,118.1 C140.5,106.9 132.1,100.8 121,100.8 z M175.2,101.9 L168.7,101.9 C166.9,101.9 166.3,102.6 165.6,104.2 L148.6,139.9 C147.6,141.9 147.4,142.8 147.4,144.4 L147.4,147.7 C147.4,149.3 147.8,150.5 149.9,150.5 L178.2,150.5 L178.2,161.6 C178.2,163.4 179.1,163.9 180.6,163.9 L187.2,163.9 C188.6,163.9 189.7,163.4 189.7,161.7 L189.7,127 C189.7,125.2 188.8,124.8 187.2,124.8 L180.7,124.8 C179.2,124.8 178.2,125.3 178.2,127 L178.2,141 L160,141 L176.7,104.8 C177.4,103.3 177.1,101.9 175.2,101.9 z" fill="#000000"/>
  </g>
</svg>
