<?xml version="1.0" encoding="UTF-8"?>
<!DOCTYPE svg PUBLIC "-//W3C//DTD SVG 1.1//EN" "http://www.w3.org/Graphics/SVG/1.1/DTD/svg11.dtd">
<svg version="1.1" xmlns="http://www.w3.org/2000/svg" xmlns:xlink="http://www.w3.org/1999/xlink" x="0" y="0" width="283.5" height="283.5" viewBox="0, 0, 283.5, 283.5">
  <g id="Background">
    <rect x="0" y="0" width="283.5" height="283.5" fill="#FFFFFF"/>
  </g>
  <g id="Layer_1">
    <path d="M190.271,11.144 C192.667,11.635 194.13,12.957 195.3,15 L208.2,43.2 L216.8,39.3 C221.2,37.3 225.9,36.3 230.7,36.3 C244,36.3 256,44 261.5,56 L278.3,92.8 C282.1,101 282.4,110.1 279.2,118.6 C276.3,126.5 270.6,132.9 263.3,136.7 L263.3,136.9 L267.8,190 C268.6,200.2 262,211.6 252.7,215.8 L152.5,261.5 L276.7,261.5 C280.4,261.5 283.5,264.5 283.4,268.2 C283.4,271.9 280.4,274.9 276.7,274.9 L6.7,274.9 C3,274.9 0,271.9 0,268.2 C0,264.5 3,261.5 6.7,261.5 L96,261.5 L63.5,227.9 C63.5,227.9 63.4,227.8 63.4,227.8 C59.5,229.3 55.4,230.1 51.2,230.1 C37.9,230.1 25.9,222.4 20.4,210.4 L3.6,173.6 C-0.2,165.4 -0.5,156.3 2.7,147.8 C5.9,139.3 12.1,132.6 20.3,128.9 L24,127.2 L11.2,99 C9.6,95.6 11.1,91.6 14.5,90.1 C17.8,88.5 21.9,90 23.4,93.4 L36.3,121.6 L196,48.8 L183.1,20.6 C181.5,17.2 183,13.2 186.4,11.7 C188.485,10.949 187.219,11.26 190.271,11.144 z M250.3,142.7 L76.5,222 L110.4,256.9 C113.5,260.1 120.2,261.4 124.4,259.5 L247.2,203.5 C251.3,201.6 254.8,195.7 254.4,191.1 L250.3,142.7 z M230.6,49.8 C227.7,49.8 224.9,50.4 222.3,51.6 L207.6,58.3 L35.7,136.7 L25.9,141.2 C21,143.4 17.3,147.4 15.4,152.5 C13.5,157.6 13.7,163.1 15.9,168 L32.7,204.9 C36,212.1 43.2,216.7 51.2,216.7 C54.1,216.7 56.9,216.1 59.5,214.9 L255.9,125.2 C260.8,123 264.5,119 266.4,113.9 C268.3,108.8 268.1,103.3 265.9,98.4 L249.1,61.6 C245.8,54.4 238.6,49.8 230.6,49.8 z M52.1,152.2 C60,152.2 67.2,156.9 70.6,164.1 C72.8,169 73,174.5 71.1,179.6 C69.2,184.6 65.4,188.7 60.5,190.9 C57.8,192.1 55,192.7 52.1,192.7 C44.2,192.7 37,188 33.7,180.8 C29.1,170.7 33.5,158.6 43.7,154 C46.4,152.8 49.2,152.2 52.1,152.2 z M52.1,165.8 C51.1,165.8 50.2,166 49.3,166.4 C46,167.9 44.5,171.9 46,175.3 C47.5,178.5 51.6,180.1 54.9,178.6 C56.5,177.8 57.8,176.5 58.4,174.8 C59,173.1 59,171.3 58.3,169.8 C57.2,167.4 54.7,165.8 52.1,165.8 z M224,73.8 C231.9,73.8 239.1,78.5 242.4,85.7 C247.1,95.8 242.6,107.9 232.4,112.5 C229.7,113.7 226.9,114.3 224,114.3 C216.1,114.3 208.9,109.6 205.6,102.4 C201,92.3 205.4,80.2 215.6,75.6 C218.3,74.4 221.1,73.8 224,73.8 z M224,87.4 C223,87.4 222.1,87.6 221.2,88 C217.9,89.5 216.4,93.5 217.9,96.9 C219.4,100.1 223.5,101.7 226.8,100.2 C230.2,98.7 231.7,94.7 230.2,91.4 C229.1,89 226.6,87.4 224,87.4 z" fill="#010202"/>
  </g>
</svg>
