<?xml version="1.0" encoding="UTF-8"?>
<!DOCTYPE svg PUBLIC "-//W3C//DTD SVG 1.1//EN" "http://www.w3.org/Graphics/SVG/1.1/DTD/svg11.dtd">
<svg version="1.1" xmlns="http://www.w3.org/2000/svg" xmlns:xlink="http://www.w3.org/1999/xlink" x="0" y="0" width="283.5" height="283.5" viewBox="0, 0, 283.5, 283.5">
  <g id="Background">
    <rect x="0" y="0" width="283.5" height="283.5" fill="#FFFFFF"/>
  </g>
  <g id="Layer_1">
    <path d="M124.1,252.5 C120,252.5 115.8,251 112.7,248.1 L32.8,182.2 C32.7,182.1 32.5,182 32.4,181.9 C29.2,178.9 27.5,174.8 27.5,170.4 C27.5,166.1 29.2,162 32.4,158.9 C32.5,158.8 32.6,158.7 32.7,158.6 L47.6,144.5 L2,99.2 C0.7,97.9 -0,96.2 -0,94.4 C-0,92.6 0.8,90.8 2.1,89.6 L56.2,37.2 C57.6,35.8 59.6,35.1 61.6,35.3 C63.6,35.5 65.4,36.6 66.5,38.3 L84.5,65.1 L103.7,62.1 C104.1,62 104.5,62 104.8,62 L114.2,41.8 C115.9,37.5 119.2,34.1 123.5,32.3 C127.8,30.5 132.8,30.6 137.3,32.5 C137.5,32.6 137.6,32.6 137.7,32.7 L190.4,57.9 L215.7,32.9 C217,31.6 218.7,30.9 220.5,30.9 C222.3,30.9 224,31.7 225.3,33 L281.6,91.2 C284.2,93.9 284.1,98.1 281.5,100.7 L225.5,156.7 L229.3,160 C229.5,160.2 229.8,160.4 230,160.6 C238.4,169.3 239.5,181.5 232.4,188.6 C231.2,189.8 229.7,190.5 228.1,190.6 L218.7,191.2 L219.1,201.3 C219.2,204.9 216.5,208 213,208.3 L198.7,209.6 L199.2,220.4 C199.3,222.2 198.6,223.9 197.4,225.3 C196.2,226.6 194.5,227.4 192.7,227.5 L177.1,228.2 L174.2,236.3 C173.6,237.9 172.5,239.1 171.1,239.9 C163,244.4 153.3,243.2 145.6,239.3 L136,248 C135.9,248.1 135.9,248.1 135.8,248.2 C132.4,251 128.2,252.5 124.1,252.5 z M41.6,172 L121.4,237.9 C121.5,238 121.7,238.1 121.8,238.2 C123,239.4 125.3,239.3 126.7,238 C126.8,237.9 126.9,237.8 127.1,237.7 L134.7,230.8 L57.2,154 L42.3,168.2 C42.2,168.3 42.1,168.4 42,168.5 C41.4,169.1 41,169.8 41,170.6 C41,170.8 41.1,171.4 41.6,172 z M16.4,94.5 L147,223.9 C150.7,227.6 157.3,230.1 162.3,228.8 L164.3,223.3 L131.2,191.7 C128.5,189.1 128.4,184.8 131,182.1 C133.6,179.4 137.9,179.3 140.6,181.9 L174.8,214.5 L185.3,214.1 L185,206.6 L148.4,175.4 C145.6,173 145.2,168.7 147.6,165.9 C150,163.1 154.3,162.7 157.1,165.1 L193.8,196.4 L205.3,195.3 L205,188 L168.4,156.8 C165.6,154.4 165.2,150.1 167.6,147.3 C170,144.5 174.3,144.1 177.1,146.5 L214,177.9 L223.4,177.3 C223.6,175.4 222.7,172.5 220.2,170 L129.3,92.5 L118.7,116.3 C114.5,125.4 104.1,129.8 95,126.4 C90.5,124.7 87.1,121.4 85.3,117 C83.5,112.7 83.6,107.8 85.4,103.4 C85.5,103.2 85.5,103 85.6,102.9 L97.8,76.7 L82.2,79.1 C79.6,79.5 77,78.4 75.5,76.2 L59.8,52.5 L16.4,94.5 z M126.9,74.7 C128.5,74.7 130.1,75.3 131.3,76.3 L215.2,147.8 L267.2,95.8 L220.3,47.3 L196.5,70.8 C194.5,72.8 191.4,73.3 188.8,72.1 L132.1,44.9 C132.1,44.9 132.1,44.9 132,44.9 C130.9,44.4 129.7,44.3 128.6,44.8 C128,45.1 127.1,45.6 126.7,46.8 C126.6,47 126.6,47.1 126.5,47.3 L98.1,108.3 C98.1,108.4 98,108.5 98,108.6 C97.5,109.7 97.4,110.9 97.9,112 C98.2,112.6 98.7,113.5 99.9,113.9 C102.3,114.8 105.3,113.4 106.5,110.9 L120.8,78.9 C121.7,77 123.4,75.5 125.5,75.1 C125.9,74.8 126.4,74.7 126.9,74.7 z" fill="#000000"/>
  </g>
</svg>
