<?xml version="1.0" encoding="UTF-8"?>
<!DOCTYPE svg PUBLIC "-//W3C//DTD SVG 1.1//EN" "http://www.w3.org/Graphics/SVG/1.1/DTD/svg11.dtd">
<svg version="1.1" xmlns="http://www.w3.org/2000/svg" xmlns:xlink="http://www.w3.org/1999/xlink" x="0" y="0" width="283.5" height="283.5" viewBox="0, 0, 283.5, 283.5">
  <g id="Background">
    <rect x="0" y="0" width="283.5" height="283.5" fill="#FFFFFF"/>
  </g>
  <g id="Layer_1">
    <path d="M141.5,0.1 C146.5,0.1 151.2,2.1 154.7,5.6 C158.3,9.1 160.2,13.8 160.2,18.8 C160.2,26.9 155,33.8 147.8,36.4 L147.8,45.7 C169.1,47.1 189,55.3 205,69.4 L211.6,62.8 C208.3,55.9 209.5,47.3 215.2,41.6 C218.7,38 223.4,36.1 228.4,36.1 C233.4,36.1 238.1,38.1 241.6,41.6 C248.9,48.9 248.9,60.7 241.6,68 C238.1,71.6 233.4,73.5 228.4,73.5 C225.6,73.5 222.9,72.9 220.4,71.7 L213.8,78.3 C227.9,94.3 236.2,114.2 237.5,135.5 L246.9,135.5 C249.5,128.3 256.4,123.1 264.5,123.1 C274.8,123.1 283.2,131.4 283.6,141.6 C283.6,151.9 275.2,160.3 264.9,160.3 C256.8,160.3 249.9,155.1 247.3,147.9 L237.9,147.9 C236.5,169.2 228.3,189.1 214.2,205.1 L220.8,211.7 C223.2,210.5 226,209.9 228.8,209.9 C233.8,209.9 238.5,211.9 242,215.4 C245.6,218.9 247.5,223.6 247.5,228.6 C247.5,233.6 245.5,238.3 242,241.8 C238.5,245.4 233.8,247.3 228.8,247.3 C223.8,247.3 219.1,245.3 215.6,241.8 C209.9,236.1 208.7,227.5 212,220.6 L205.4,214 C189.4,228.1 169.5,236.3 148.2,237.7 L148.2,247 C150.8,247.9 153.2,249.4 155.2,251.4 C158.8,254.9 160.7,259.6 160.7,264.6 C160.7,274.9 152.3,283.3 142,283.3 C131.7,283.3 123.3,274.9 123.3,264.6 C123.3,256.5 128.5,249.6 135.7,247 L135.7,237.7 C114.4,236.3 94.5,228.1 78.5,214 L71.9,220.6 C73.1,223 73.7,225.8 73.7,228.6 C73.7,233.6 71.7,238.3 68.2,241.8 C64.7,245.4 60,247.3 55,247.3 C50,247.3 45.3,245.3 41.8,241.8 C34.5,234.5 34.5,222.7 41.8,215.4 C45.3,211.8 50,209.9 55,209.9 C57.8,209.9 60.5,210.5 63,211.7 L69.6,205.1 C55.5,189.1 47.2,169.2 45.9,147.9 L36.6,147.9 C35.7,150.5 34.2,152.9 32.2,154.9 C28.7,158.5 24,160.4 19,160.4 C8.7,160.4 0.3,152 0.3,141.7 C0.3,131.4 8.7,123 19,123 C24,123 28.7,125 32.2,128.5 C34.2,130.5 35.7,132.9 36.6,135.5 L45.9,135.5 C47.3,113.7 56,93.9 69.5,78.5 L62.9,71.9 C60.5,73.1 57.7,73.7 54.9,73.7 C49.9,73.7 45.2,71.7 41.7,68.2 C38.1,64.7 36.2,60 36.2,55 C36.2,50 38.2,45.3 41.7,41.8 C45.2,38.2 49.9,36.3 54.9,36.3 C59.9,36.3 64.6,38.3 68.1,41.8 C71.7,45.3 73.6,50 73.6,55 C73.6,57.8 73,60.5 71.8,63 L78.4,69.6 C93.8,56 113.7,47.3 135.2,45.7 L135.2,36.4 C128,33.8 122.8,26.9 122.8,18.8 C122.8,8.5 131.2,0.1 141.5,0.1 z M141.7,258.3 C138.3,258.3 135.5,261.1 135.5,264.5 C135.5,267.9 138.3,270.7 141.7,270.7 C145.2,270.7 147.9,267.9 147.9,264.5 C147.9,262.8 147.3,261.3 146.1,260.1 C144.9,258.9 143.4,258.3 141.7,258.3 z M228.5,222.4 C226.8,222.4 225.3,223 224.1,224.2 C221.7,226.6 221.7,230.6 224.1,233 C226.5,235.3 230.5,235.4 232.9,233 C234.1,231.8 234.7,230.3 234.7,228.6 C234.7,226.9 234.1,225.4 232.9,224.2 C231.8,223 230.2,222.3 228.5,222.4 z M54.9,222.4 C53.2,222.4 51.7,223 50.5,224.2 C48.1,226.6 48.1,230.6 50.5,233 C52.8,235.3 57,235.4 59.3,233 C60.5,231.8 61.1,230.2 61.1,228.6 C61.1,226.9 60.5,225.4 59.3,224.2 C58.1,223 56.6,222.4 54.9,222.4 z M141.8,58.2 C95.7,58.2 58.2,95.7 58.2,141.8 C58.2,164.1 66.9,185.1 82.7,200.9 C98.5,216.7 119.5,225.4 141.8,225.4 C164.1,225.4 185.1,216.7 200.9,200.9 C216.7,185.1 225.4,164.1 225.4,141.8 C225.4,119.5 216.7,98.5 200.9,82.7 C185.1,66.9 164.1,58.2 141.8,58.2 z M148.8,114.3 C154.2,114.3 158.8,115.3 163.1,117.3 C164.2,117.8 164.7,118.5 164.3,119.8 L162.1,126.1 C161.7,127.2 161,127.3 160,126.9 C156.1,125.1 153,124.4 149.5,124.4 C141.7,124.4 136.7,130.4 136.6,141.3 C136.6,153.1 142.3,158.2 149.6,158.2 C153.1,158.2 156.1,157.4 159.7,156.1 C160.8,155.7 161.8,155.7 162.2,157 L164.1,162.5 C164.5,163.5 164.6,164.6 163,165.3 C159,167.1 153.7,168.2 147.9,168.2 C132.1,168.2 124,157.7 124,141.6 C124,125.5 133.8,114.3 148.8,114.3 z M201.4,115.5 C202.9,115.5 203.4,116.2 203.3,117.2 L202.6,123.2 C202.5,124.8 201.5,125.1 199.7,125.1 L181.6,125.1 L181.6,136.2 L198.5,136.2 C200.1,136.2 200.7,137 200.7,138.2 L200.7,143.7 C200.7,145.2 199.9,145.9 198.5,145.9 L181.5,145.9 L181.5,157.7 L201,157.7 C202.4,157.7 203.2,158.3 203.2,159.7 L203.2,165.2 C203.2,166.6 202.5,167.3 201.1,167.3 L172.1,167.3 C170.3,167.3 169.6,166.9 169.6,165 L169.6,117.6 C169.6,116.3 170.2,115.5 171.7,115.5 L201.4,115.5 z M103.1,115.4 C104.5,115.4 105.2,116.2 105.6,117.3 L123.6,164.7 C124.2,166 123.9,167.3 122.3,167.3 L113.9,167.3 C112.1,167.3 111.4,166.5 111,165.2 L108,156.5 L89.5,156.5 L86.5,165.5 C86.2,166.5 85.6,167.3 84.3,167.3 L76.3,167.3 C74.8,167.3 74.5,166 75,164.7 L92.7,117.3 C93.1,116.1 93.8,115.4 95.2,115.4 L103.1,115.4 z M98.7,128.6 L98.6,128.6 C98.3,129.9 97.8,131.4 97.3,133 L92.6,147.6 L104.7,147.6 L100,132.9 C99.5,131.3 99.1,129.9 98.7,128.6 z M264.5,135.5 C261.1,135.5 258.3,138.3 258.3,141.7 C258.3,145.1 261.1,147.9 264.5,147.9 C267.9,147.9 270.7,145.2 270.7,141.7 C270.7,138.3 267.9,135.5 264.5,135.5 z M19,135.5 C15.6,135.5 12.8,138.3 12.8,141.7 C12.8,145.1 15.6,147.9 19,147.9 C20.7,147.9 22.2,147.3 23.4,146.1 C24.5,145 25.2,143.4 25.2,141.7 C25.2,140 24.6,138.5 23.4,137.3 C22.2,136.1 20.7,135.5 19,135.5 z M54.9,48.7 C53.2,48.7 51.7,49.3 50.5,50.5 C49.3,51.7 48.7,53.2 48.7,54.9 C48.7,56.6 49.3,58.1 50.5,59.3 C52.9,61.7 57,61.7 59.3,59.3 C60.5,58.1 61.1,56.6 61.1,54.9 C61.1,53.2 60.5,51.7 59.3,50.5 C58.1,49.3 56.6,48.7 54.9,48.7 z M228.5,48.7 C226.8,48.7 225.3,49.3 224.1,50.5 C221.7,52.9 221.7,56.9 224.1,59.3 C226.5,61.7 230.6,61.7 232.9,59.3 C235.3,56.9 235.3,52.9 232.9,50.5 C231.7,49.3 230.2,48.7 228.5,48.7 z M141.7,12.7 C138.3,12.7 135.5,15.5 135.5,18.9 C135.5,22.3 138.3,25.1 141.7,25.1 C145.1,25.1 147.9,22.3 147.9,18.9 C147.9,15.5 145.1,12.7 141.7,12.7 z" fill="#000000"/>
  </g>
</svg>
