<?xml version="1.0" encoding="UTF-8"?>
<!DOCTYPE svg PUBLIC "-//W3C//DTD SVG 1.1//EN" "http://www.w3.org/Graphics/SVG/1.1/DTD/svg11.dtd">
<svg version="1.1" xmlns="http://www.w3.org/2000/svg" xmlns:xlink="http://www.w3.org/1999/xlink" x="0" y="0" width="283.5" height="283.5" viewBox="0, 0, 283.5, 283.5">
  <g id="Background">
    <rect x="0" y="0" width="283.5" height="283.5" fill="#FFFFFF"/>
  </g>
  <g id="Layer_1">
    <path d="M63.3,212.3 C49.3,212.3 36.1,205.4 28.2,193.9 L1.2,155.7 C0,154 -0.3,151.9 0.2,150 C0.8,148 2.2,146.5 4,145.7 L23,137.6 C24.9,136.8 27,136.9 28.8,137.9 L60.6,155.3 L94.6,140.9 L62.9,95.6 C61.7,93.9 61.4,91.8 61.9,89.9 C62.5,88 63.9,86.4 65.7,85.6 L98.5,71.7 C100.3,71 102.2,71 104,71.8 L176.9,106.1 L243.9,77.7 C247.4,76.2 251.2,75.4 255,75.4 C266.4,75.4 276.7,82.2 281.2,92.7 C287.3,107.1 280.5,123.8 266.1,130 L80,208.9 C74.6,211.2 69,212.3 63.3,212.3 z M17,154.7 L39.2,186.2 C44.7,194.2 53.7,198.9 63.3,198.9 C67.2,198.9 71.1,198.1 74.7,196.6 L260.9,117.8 C268.5,114.6 272.1,105.7 268.9,98.1 C266.5,92.5 261.1,88.9 255.1,88.9 C253.1,88.9 251.1,89.3 249.2,90.1 L179.4,119.6 C177.6,120.3 175.7,120.3 173.9,119.5 L101,85.2 L78.6,94.7 L110.4,140 C111.6,141.7 111.9,143.8 111.4,145.7 C110.8,147.6 109.4,149.2 107.6,150 L63,168.9 C61.1,169.7 59,169.6 57.2,168.6 L25.4,151.2 L17,154.7 z" fill="#000000"/>
  </g>
</svg>
