<?xml version="1.0" encoding="UTF-8"?>
<!DOCTYPE svg PUBLIC "-//W3C//DTD SVG 1.1//EN" "http://www.w3.org/Graphics/SVG/1.1/DTD/svg11.dtd">
<svg version="1.1" xmlns="http://www.w3.org/2000/svg" xmlns:xlink="http://www.w3.org/1999/xlink" x="0" y="0" width="283.5" height="283.5" viewBox="0, 0, 283.5, 283.5">
  <g id="Background">
    <rect x="0" y="0" width="283.5" height="283.5" fill="#FFFFFF"/>
  </g>
  <g id="Layer_1">
    <path d="M234.6,26.1 C238.5,26.1 241.6,29.3 241.6,33.1 L241.6,176.1 L282.1,246.2 C282.9,247.4 283.5,248.8 283.5,250.4 C283.5,254.3 280.3,257.4 276.5,257.4 L6.9,257.4 C4.4,257.4 2.1,256.1 0.9,253.9 C-0.3,251.7 -0.3,249.1 0.9,246.9 L41.8,176.1 L41.8,33.1 C41.8,29.2 45,26.1 48.8,26.1 L234.6,26.1 z M230.6,185 L52.8,185 L19,243.4 L19,243.5 L264.4,243.5 L230.6,185 z M169.1,215.5 C173,215.5 176.1,218.6 176.1,222.5 C176.1,226.4 172.9,229.5 169.1,229.5 L114.3,229.5 C110.4,229.5 107.3,226.4 107.3,222.5 C107.3,218.6 110.5,215.5 114.3,215.5 L169.1,215.5 z M173.3,158.1 L110.1,158.1 L110.1,171 L173.3,171 L173.3,158.1 z M227.7,40 L55.8,40 L55.8,171 L96.4,171 L96.4,158.1 L96.2,158.1 C84.4,158.1 74.9,148.5 74.9,136.8 L74.9,115.3 C74.9,104.7 82.6,96 92.7,94.3 L101.5,69.6 C103.8,63.1 110.7,58.2 117.6,58.2 L166.1,58.2 C173,58.2 179.9,63.1 182.2,69.6 L191,94.3 C201.1,96 208.8,104.8 208.8,115.3 L208.8,136.8 C208.8,148.6 199.2,158.1 187.5,158.1 L187.3,158.1 L187.3,171 L227.7,171 L227.7,40 z M187.5,108 L96,108 C91.9,108 88.6,111.3 88.7,115.3 L88.7,136.8 C88.7,140.8 92,144.1 96,144.1 L187.5,144.1 C191.5,144.1 194.8,140.8 194.8,136.8 L194.8,115.3 C194.8,111.3 191.5,108 187.5,108 z M174.9,117.9 C179.5,117.9 183.3,121.7 183.3,126.3 C183.3,131 179.5,134.7 174.9,134.7 C170.3,134.7 166.6,131 166.5,126.3 C166.5,121.7 170.3,117.9 174.9,117.9 z M108.5,117.9 C113.2,117.9 116.9,121.7 116.9,126.3 C116.9,131 113.1,134.7 108.5,134.7 C103.9,134.7 100.1,131 100.1,126.3 C100.1,121.6 103.8,117.9 108.5,117.9 z M166,72.3 L117.4,72.3 C116.4,72.3 114.7,73.5 114.4,74.4 L107.4,94.1 L176,94.1 L169,74.4 C168.7,73.5 167,72.3 166,72.3 z" fill="#000000"/>
  </g>
</svg>
