<?xml version="1.0" encoding="UTF-8"?>
<!DOCTYPE svg PUBLIC "-//W3C//DTD SVG 1.1//EN" "http://www.w3.org/Graphics/SVG/1.1/DTD/svg11.dtd">
<svg version="1.1" xmlns="http://www.w3.org/2000/svg" xmlns:xlink="http://www.w3.org/1999/xlink" x="0" y="0" width="283.5" height="283.5" viewBox="0, 0, 283.5, 283.5">
  <g id="Background">
    <rect x="0" y="0" width="283.5" height="283.5" fill="#FFFFFF"/>
  </g>
  <g id="Layer_1">
    <path d="M141.9,150.6 C174.8,150.6 201.6,177.4 201.6,210.3 C201.6,243.2 174.8,270 141.9,270 C109,270 82.2,243.2 82.2,210.3 C82.2,177.4 109,150.6 141.9,150.6 z M141.9,162.3 C115.4,162.3 93.9,183.8 93.9,210.3 C93.9,236.8 115.4,258.3 141.9,258.3 C168.4,258.3 189.9,236.8 189.9,210.3 C189.9,183.8 168.4,162.3 141.9,162.3 z M141.847,183.386 L144.434,183.448 C150.853,184.076 156.189,186.943 160.9,191.2 C163.2,193.5 163.2,197.2 160.9,199.5 C158.6,201.8 154.9,201.8 152.6,199.5 C146.7,193.6 137,193.6 131.1,199.5 C129.7,200.9 128.6,202.6 127.8,204.4 L142.7,204.4 C146,204.4 148.6,207 148.6,210.3 C148.6,213.6 145.9,216.2 142.7,216.2 L127.8,216.2 C128.6,218 129.7,219.7 131.1,221.1 C137,227 146.7,227 152.6,221.1 C154.9,218.8 158.6,218.8 160.8,221.1 C163.1,223.4 163.1,227.1 160.8,229.4 C155.6,234.7 148.7,237.3 141.8,237.3 C134.9,237.3 128,234.6 122.8,229.4 C119.2,225.7 116.7,221.2 115.6,216.2 L113.8,216.2 C110.5,216.2 107.9,213.6 107.9,210.3 C107.9,207 110.6,204.4 113.8,204.4 L115.6,204.4 C116.7,199.4 119.1,194.9 122.8,191.2 C127.274,186.836 133.016,184.048 139.266,183.448 L141.847,183.386 z M259.7,154 C266.5,154.9 271.8,160.8 271.8,167.9 C271.8,175.5 265.5,181.8 257.7,181.8 C250,181.8 243.7,175.5 243.7,167.8 C243.7,163.6 245.5,159.9 248.5,157.3 L252.2,169.5 C253,172 255.3,173.7 257.8,173.7 C258.4,173.7 258.9,173.6 259.5,173.5 C262.6,172.6 264.3,169.3 263.4,166.2 L259.7,154 z M236.142,89.175 L235.1,89.2 L219.7,89.2 C216.5,89.2 213.8,91.8 213.8,95.1 C213.8,98.3 216.4,101 219.7,101 L231.4,101 L236.9,119.3 L207.7,119.3 C204.5,119.3 201.8,121.9 201.8,125.2 C201.8,128.5 204.4,131.1 207.7,131.1 L236,131.1 L197.2,155.7 C194.5,157.4 193.7,161 195.4,163.8 C196.5,165.6 198.4,166.5 200.3,166.5 C201.4,166.5 202.5,166.2 203.4,165.6 L243.2,140.4 L244.8,145.7 C237.1,150.2 231.9,158.5 231.9,168 C231.9,182.2 243.4,193.7 257.6,193.7 C271.8,193.7 283.3,182.2 283.3,168 C283.5,153.6 271.9,142 257.7,142 C257.2,142 256.6,142 256.1,142.1 L250.7,124.2 C250.6,123.6 250.4,123 250.2,122.5 L241.4,93.3 C240.46,90.88 238.763,89.48 236.142,89.175 z M39.2,156.3 C42.8,156.3 45.7,159.2 45.7,162.8 C45.7,166.4 42.8,169.3 39.2,169.3 C35.6,169.3 32.7,166.4 32.7,162.8 C32.7,159.2 35.6,156.3 39.2,156.3 z M72,89 L67.9,89 C63,89 57,92.1 53.8,96.3 L36.3,119.1 L22.7,119.1 C14.3,119.1 6.3,125.5 4.4,133.7 L0.4,151.3 C-0.6,155.7 0.3,160.1 2.9,163.3 C5.5,166.6 9.6,168.4 14.1,168.4 L22,168.4 C24.4,175.6 31.3,180.8 39.3,180.8 C47.3,180.8 54.1,175.6 56.6,168.4 L81.5,168.4 C84.6,168.6 87.3,166 87.3,162.7 C87.3,159.5 84.7,156.8 81.4,156.8 L56.5,156.8 C54.1,149.6 47.2,144.4 39.2,144.4 C31.2,144.4 24.4,149.6 21.9,156.8 L14,156.8 C13.1,156.8 12.4,156.5 12,156.1 C11.6,155.6 11.5,154.9 11.7,154 L15.7,136.4 C16.3,133.5 19.6,130.9 22.5,130.9 L74.2,130.9 C77.4,130.9 80.1,128.3 80.1,125 C80.1,121.7 77.5,119.1 74.2,119.1 L51,119.1 L63,103.5 C64.1,102 66.8,100.8 67.9,100.8 L72,100.8 C75.2,100.8 77.9,98.2 77.9,94.9 C77.9,91.7 75.3,89 72,89 z M172.4,25.4 C178.3,25.4 183.1,30.2 183.1,36.1 L183.1,63.3 L100.6,63.3 L100.6,36.2 C100.6,30.2 105.5,25.4 111.4,25.4 L172.4,25.4 z M162.7,89.6 C158.8,89.6 155.7,92.7 155.7,96.6 C155.7,100.5 158.8,103.6 162.7,103.6 C166.6,103.6 169.7,100.5 169.7,96.6 C169.7,92.8 166.6,89.6 162.7,89.6 z M121.1,89.6 C117.2,89.6 114.1,92.7 114.1,96.6 C114.1,100.5 117.2,103.6 121.1,103.6 C125,103.6 128.1,100.5 128.1,96.6 C128.1,92.8 125,89.6 121.1,89.6 z M183.2,75.1 L183.2,108.4 C183.1,114.3 178.3,119.1 172.4,119.1 L111.4,119.1 C105.5,119.1 100.7,114.3 100.7,108.4 L100.7,75.1 L183.2,75.1 z M172.6,13.8 L111.6,13.8 C99.2,13.8 89.2,23.9 89.2,36.2 L89.2,108.4 C88.9,118.1 95.2,126.4 103.9,129.5 L103.9,136.7 C103.9,139.9 106.5,142.6 109.8,142.6 C113,142.6 115.7,140 115.7,136.7 L115.7,130.8 L168.2,130.8 L168.2,136.7 C168.2,139.9 170.8,142.6 174.1,142.6 C177.4,142.6 180,140 180,136.7 L180,129.5 C188.7,126.4 195,118.1 195,108.4 L195,36.2 C195,23.8 184.9,13.8 172.6,13.8 z" fill="#010202"/>
  </g>
</svg>
