<?xml version="1.0" encoding="UTF-8"?>
<!DOCTYPE svg PUBLIC "-//W3C//DTD SVG 1.1//EN" "http://www.w3.org/Graphics/SVG/1.1/DTD/svg11.dtd">
<svg version="1.1" xmlns="http://www.w3.org/2000/svg" xmlns:xlink="http://www.w3.org/1999/xlink" x="0" y="0" width="283.5" height="283.5" viewBox="0, 0, 283.5, 283.5">
  <g id="Background">
    <rect x="0" y="0" width="283.5" height="283.5" fill="#FFFFFF"/>
  </g>
  <g id="Layer_1">
    <path d="M275.7,258.7 L6.7,258.7 C3,258.7 0,255.7 0,252 L0,31.5 C0,27.8 3,24.8 6.7,24.8 L87.4,24.8 C89.2,24.8 90.9,25.5 92.2,26.8 L109,43.5 L275.7,43.5 C279.4,43.5 282.4,46.5 282.4,50.2 L282.4,252 C282.4,255.7 279.4,258.7 275.7,258.7 z M13.4,245.3 L269,245.3 L269,57 L106.3,57 C104.5,57 102.8,56.3 101.5,55 L84.6,38.2 L13.4,38.2 L13.4,245.3 z M89.1,197.2 L142.1,105.4 L195.1,197.2 L89.1,197.2 z M206.7,210.6 C210.4,210.6 213.5,207.6 213.3,203.9 C213.3,202.4 212.8,201 212,199.9 L147.8,88.6 C146.6,86.5 144.4,85.2 142,85.2 C139.6,85.2 137.4,86.5 136.2,88.6 L71.6,200.5 C70.4,202.6 70.4,205.1 71.6,207.2 C72.8,209.3 75,210.6 77.4,210.6 L206.7,210.6 C206.7,210.6 206.7,210.6 206.7,210.6 z M142.1,184.4 C145.8,184.4 148.8,181.4 148.8,177.7 L148.8,150.8 C148.8,147.1 145.8,144.1 142.1,144.1 C138.4,144.1 135.4,147.1 135.4,150.8 L135.4,177.7 C135.4,181.4 138.4,184.4 142.1,184.4 z" fill="#000000"/>
  </g>
</svg>
