<?xml version="1.0" encoding="UTF-8"?>
<!DOCTYPE svg PUBLIC "-//W3C//DTD SVG 1.1//EN" "http://www.w3.org/Graphics/SVG/1.1/DTD/svg11.dtd">
<svg version="1.1" xmlns="http://www.w3.org/2000/svg" xmlns:xlink="http://www.w3.org/1999/xlink" x="0" y="0" width="283.5" height="283.5" viewBox="0, 0, 283.5, 283.5">
  <g id="Background">
    <rect x="0" y="0" width="283.5" height="283.5" fill="#FFFFFF"/>
  </g>
  <g id="Layer_1">
    <path d="M209.2,38 C219.4,38 230.2,45.6 233.6,55.2 L251.5,105.4 C251.6,105.4 251.6,105.5 251.6,105.6 C269.3,106.6 283.5,121.3 283.1,139.3 L283.1,179.8 C283.1,198.4 268,213.5 249.4,213.5 L242.7,213.5 L242.7,244.5 C242.7,248.2 239.7,251.2 236,251.2 C232.3,251.2 229.3,248.2 229.3,244.5 L229.3,213.5 L53.8,213.5 L53.8,244.5 C53.8,248.2 50.8,251.2 47.1,251.2 C43.4,251.2 40.4,248.2 40.4,244.5 L40.4,213.5 L33.7,213.5 C15.1,213.5 0,198.4 0,179.8 L0,139.3 C0,121.3 14.1,106.6 31.8,105.6 C31.9,105.6 31.9,105.5 31.9,105.4 L49.8,55.2 C53.2,45.6 64,38 74.2,38 L209.2,38 z M209.2,51.7 L74.2,51.7 C69.6,51.7 64,55.6 62.5,59.9 L46.2,105.7 L87.8,105.7 C91.5,105.7 94.5,108.7 94.5,112.4 C94.5,116.1 91.5,119.1 87.8,119.1 L33.8,119.1 C22.7,119.1 13.6,128.1 13.6,139.3 L13.6,179.8 C13.6,190.9 22.6,200 33.8,200 L249.8,200 C260.9,200 270,191 270,179.8 L269.9,179.8 L269.9,139.3 C269.9,128.2 260.9,119.1 249.7,119.1 L195.7,119.1 C192,119.1 189,116.1 189,112.4 C189,108.7 192,105.7 195.7,105.7 L237.2,105.7 L220.9,59.9 C219.3,55.6 213.8,51.7 209.2,51.7 z M47.2,140.4 C58.4,140.4 67.5,149.5 67.4,160.6 C67.4,171.7 58.3,180.8 47.2,180.8 C36.1,180.8 27,171.8 27,160.6 C27,149.5 36,140.4 47.2,140.4 z M47.2,154 C43.5,154 40.5,157 40.5,160.7 C40.5,164.4 43.5,167.4 47.2,167.4 C51,167.4 54,164.4 53.9,160.7 C53.9,157 50.9,154 47.2,154 z M236.2,140.4 C247.4,140.4 256.5,149.5 256.4,160.6 C256.4,171.7 247.4,180.8 236.2,180.8 C225.1,180.8 216,171.8 216,160.6 C216,149.5 225,140.4 236.2,140.4 z M236.2,154 C232.5,154 229.5,157 229.5,160.7 C229.5,164.4 232.5,167.4 236.2,167.4 C239.9,167.4 243,164.4 242.9,160.7 C242.9,157 239.9,154 236.2,154 z M144.919,78.632 C147.984,78.835 146.718,78.488 148.8,79.3 C152.1,81 153.5,85.1 151.8,88.4 L136.4,119.1 L158.1,119.1 C158.3,119.1 158.6,119.2 158.8,119.2 L159.4,119.3 C159.6,119.4 159.8,119.4 160,119.5 L160.7,119.8 C160.8,119.9 160.8,119.9 160.9,119.9 C161,119.9 161.1,120 161.2,120.1 L161.8,120.5 C162,120.6 162.1,120.8 162.3,120.9 C162.5,121 162.7,121.1 162.8,121.3 L163.2,121.8 C163.4,121.9 163.5,122.1 163.6,122.3 L164.2,123.5 C164.3,123.7 164.3,123.9 164.4,124.1 L164.5,124.7 C164.6,124.9 164.6,125.2 164.6,125.4 C164.6,125.5 164.7,125.7 164.6,125.8 L164.6,126 C164.6,126.2 164.5,126.5 164.5,126.7 L164.4,127.3 C164.3,127.5 164.3,127.7 164.2,127.9 L163.9,128.6 C163.8,128.7 163.8,128.7 163.8,128.8 L143.6,169.3 C142.5,171.6 140.1,173 137.6,173 C136.6,173 135.6,172.8 134.6,172.3 C131.3,170.6 129.9,166.5 131.6,163.2 L147,132.5 L125.3,132.5 C124.9,132.4 124.4,132.4 124,132.3 L123.6,132.2 C123.3,132.1 122.9,132 122.6,131.8 C122.5,131.7 122.5,131.7 122.4,131.7 C122.3,131.7 122.2,131.6 122.1,131.5 L121.5,131.1 C121.3,131 121.2,130.8 121,130.7 C120.8,130.6 120.6,130.5 120.5,130.3 L120.1,129.8 C119.9,129.7 119.8,129.5 119.7,129.3 L119.1,128.1 C119,127.9 119,127.7 118.9,127.5 L118.8,126.9 C118.7,126.7 118.7,126.4 118.7,126.2 L118.7,125.6 C118.7,125.4 118.8,125.1 118.8,124.9 L118.9,124.3 C119,124.1 119,123.9 119.1,123.7 L119.4,123 C119.5,122.9 119.5,122.9 119.5,122.8 L139.7,82.3 C141.037,79.835 142.439,79.458 144.919,78.632 z" fill="#000000"/>
  </g>
</svg>
