<?xml version="1.0" encoding="UTF-8"?>
<!DOCTYPE svg PUBLIC "-//W3C//DTD SVG 1.1//EN" "http://www.w3.org/Graphics/SVG/1.1/DTD/svg11.dtd">
<svg version="1.1" xmlns="http://www.w3.org/2000/svg" xmlns:xlink="http://www.w3.org/1999/xlink" x="0" y="0" width="283.5" height="283.5" viewBox="0, 0, 283.5, 283.5">
  <g id="Background">
    <rect x="0" y="0" width="283.5" height="283.5" fill="#FFFFFF"/>
  </g>
  <g id="Layer_1">
    <path d="M143.165,0.091 C144.694,0.441 145.76,1.099 146.8,2.2 L163.4,22 L187.5,13 C189.4,12.3 191.4,12.5 193.1,13.5 C194.8,14.5 196,16.2 196.3,18.1 L200.8,43.5 L226.2,48 C228.2,48.3 229.8,49.5 230.8,51.2 C231.8,52.9 232,55 231.3,56.8 L222.5,81 L242.2,97.6 C243.7,98.9 244.5,100.7 244.8,102.6 C244.8,104.6 243.9,106.4 242.4,107.7 L222.7,124.3 L231.5,148.5 C232.2,150.4 232,152.4 231,154.1 C230,155.8 228.3,157 226.4,157.3 L201,161.8 L196.7,186.1 L215.7,257.1 C216.3,259.2 215.7,261.4 214.3,263.1 C212.8,264.7 210.7,265.6 208.5,265.3 L173.8,261.1 L146.5,281.6 C145.8,282.2 145,282.7 144.1,283 C143.4,283.3 142.6,283.4 141.9,283.4 C141.1,283.4 140.4,283.2 139.7,283 C138.8,282.7 138,282.2 137.3,281.6 L109.9,261.1 L75.2,265.3 C73,265.6 70.8,264.8 69.4,263.1 C68,261.5 67.4,259.2 68,257.1 L87,186.1 L82.7,161.8 L57.3,157.3 C55.3,157 53.7,155.8 52.7,154.1 C51.7,152.4 51.5,150.3 52.2,148.5 L61,124.3 L41.3,107.8 C39.8,106.5 38.9,104.6 38.9,102.7 C38.9,100.7 39.8,98.9 41.3,97.6 L61,81.1 L52.1,57 C51.4,55.1 51.6,53.1 52.6,51.4 C53.6,49.7 55.3,48.5 57.2,48.2 L82.6,43.7 L87.1,18.3 C87.4,16.3 88.6,14.7 90.3,13.7 C92,12.7 94.1,12.5 95.9,13.2 L120.1,22 L136.7,2.2 C138.84,-0.118 140.172,0.091 143.165,0.091 z M163.4,183.5 L146.8,203.2 C145.5,204.7 143.6,205.6 141.7,205.6 C139.7,205.6 137.9,204.7 136.6,203.2 L125,189.4 L141.7,251.6 L145.5,265.8 L153.1,260.1 L167.8,249.1 C169.2,248.1 170.9,247.6 172.6,247.8 L200.3,251.1 L184.2,191.1 L163.4,183.5 z M110.7,186.8 L99.3,191 L83.2,251 L110.9,247.7 C112.5,247.5 114.2,248 115.6,249 L130.3,260 L110.7,186.8 z M141.7,16.7 L127.2,34 C125.4,36.2 122.5,36.9 119.9,36 L98.7,28.3 L94.8,50.5 C94.4,53.2 92.2,55.3 89.5,55.8 L67.3,59.7 L75,80.9 C75.9,83.5 75.1,86.4 73,88.2 L55.7,102.8 L73,117.3 C75.2,119.1 75.9,122 75,124.6 L67.3,145.8 L89.5,149.7 C92.2,150.1 94.3,152.3 94.8,155 L95,156 L98.6,177.1 L103.3,175.4 L107.1,174 L119.6,169.5 L119.8,169.4 C120.6,169.1 121.3,169 122.1,169 C124.1,169 125.9,169.9 127.2,171.4 L141.7,188.7 L156.2,171.4 C158,169.2 160.9,168.5 163.5,169.4 L180,175.4 L184.7,177.1 L188.4,155.9 L188.6,154.9 C189,152.2 191.2,150.1 193.9,149.6 L216.1,145.7 L208.4,124.5 C207.5,121.9 208.3,119 210.4,117.2 L227.8,102.7 L210.5,88.2 C208.3,86.4 207.6,83.5 208.5,80.9 L216.2,59.7 L194,55.8 C191.2,55.4 189.1,53.2 188.6,50.5 L184.7,28.3 L163.5,36 C160.9,36.9 158,36.1 156.2,34 L141.7,16.7 z M141.7,49.9 C170.8,49.9 194.5,73.6 194.5,102.7 C194.5,131.8 170.8,155.5 141.7,155.5 C112.6,155.5 88.9,131.8 88.9,102.7 C88.9,73.6 112.6,49.9 141.7,49.9 z M141.7,63.1 C119.9,63.1 102.1,80.9 102.1,102.7 C102.1,124.5 119.9,142.3 141.7,142.3 C163.5,142.3 181.3,124.5 181.3,102.7 C181.3,80.9 163.6,63.1 141.7,63.1 z" fill="#000000"/>
  </g>
</svg>
