<?xml version="1.0" encoding="UTF-8"?>
<!DOCTYPE svg PUBLIC "-//W3C//DTD SVG 1.1//EN" "http://www.w3.org/Graphics/SVG/1.1/DTD/svg11.dtd">
<svg version="1.1" xmlns="http://www.w3.org/2000/svg" xmlns:xlink="http://www.w3.org/1999/xlink" x="0" y="0" width="283.5" height="283.5" viewBox="0, 0, 283.5, 283.5">
  <g id="Background">
    <rect x="0" y="0" width="283.5" height="283.5" fill="#FFFFFF"/>
  </g>
  <g id="Layer_1">
    <path d="M118.9,120.6 C126.9,120.6 135,126.3 137.7,133.8 L149.7,167.3 C162.4,168.7 172.3,179.4 172.2,192.5 L172.2,220.5 C172.2,234.5 160.8,245.9 146.8,245.9 L144.2,245.9 L144.2,265.3 C144.2,269 141.2,272 137.5,272 C133.8,272 130.8,269 130.8,265.3 L130.8,245.9 L41.4,245.9 L41.4,265.3 C41.4,269 38.4,272 34.7,272 C31,272 28,269 28,265.3 L28,245.9 L25.4,245.9 C11.4,245.9 -0,234.5 -0,220.5 L-0,192.5 C-0,179.4 9.9,168.7 22.5,167.3 L34.5,133.8 C37.2,126.3 45.3,120.6 53.3,120.6 L118.9,120.6 z M146.9,180.5 L25.4,180.5 C18.8,180.5 13.5,185.8 13.5,192.4 L13.5,220.4 C13.5,227 18.8,232.3 25.4,232.3 L146.9,232.3 C153.5,232.3 158.8,227 158.8,220.4 L158.8,192.4 C158.8,185.8 153.5,180.5 146.9,180.5 z M37.7,196.6 C43.6,196.6 48.4,201.4 48.4,207.3 C48.4,213.2 43.6,218 37.7,218 C31.8,218 27,213.2 27,207.3 C27,201.4 31.8,196.6 37.7,196.6 z M134.6,196.6 C140.5,196.6 145.3,201.4 145.3,207.3 C145.3,213.2 140.5,218 134.6,218 C128.7,218 123.9,213.2 123.9,207.3 C123.9,201.4 128.7,196.6 134.6,196.6 z M118.9,134 L53.3,134 C51,134 48,136.2 47.2,138.3 L37,167.1 L135.3,167.1 L125,138.3 C124.2,136.2 121.2,134 118.9,134 z M229.1,86.9 C220.4,86.9 211.8,89 204.2,92.9 C196.7,89.1 188.3,86.9 179.4,86.9 C170.7,86.9 162.1,89 154.5,92.9 C147,89.1 138.6,86.9 129.7,86.9 C116.5,86.9 103.8,91.7 93.9,100.3 C91.1,102.8 90.8,107 93.3,109.8 C94.6,111.3 96.5,112.1 98.4,112.1 C100,112.1 101.6,111.6 102.8,110.4 C110.2,103.9 119.8,100.3 129.7,100.3 C152.3,100.3 170.6,118.7 170.6,141.2 C170.6,145 170.1,148.8 169,152.5 C168,156.1 170.1,159.8 173.6,160.8 C174.2,161 174.8,161.1 175.4,161.1 C178.3,161.1 181,159.2 181.9,156.2 C183.3,151.3 184,146.3 184,141.2 C184,125.8 177.6,112 167.3,102.1 C171.2,100.9 175.2,100.3 179.3,100.3 C201.9,100.3 220.2,118.7 220.2,141.2 C220.2,143.3 220,145.5 219.7,147.6 L203,147.6 C199.3,147.6 196.3,150.6 196.3,154.3 L196.3,186.3 C196.3,190 199.3,193 203,193 C206.7,193 209.7,190 209.7,186.3 L209.7,161.1 L225.1,161.1 C228.1,161.1 230.8,159.1 231.6,156.2 C233,151.3 233.7,146.2 233.7,141.2 C233.7,125.8 227.3,112 217,102.1 C220.9,100.9 224.9,100.3 229,100.3 C251.6,100.3 269.9,118.7 269.9,141.2 C269.9,143.4 269.7,145.5 269.4,147.6 L252.7,147.6 C249,147.6 246,150.6 246,154.3 L246,186.3 C246,190 249,193 252.7,193 C256.4,193 259.4,190 259.4,186.3 L259.4,161.1 L274.8,161.1 C277.8,161.1 280.4,159.1 281.3,156.2 C282.7,151.3 283.4,146.3 283.4,141.2 C283.5,111.3 259.1,86.9 229.1,86.9 z M229.1,25 C239.1,25 247.2,33.1 247.2,43.1 C247.2,53.1 239.1,61.2 229.1,61.2 C219.1,61.2 211,53.1 211,43.1 C211,33.1 219.1,25 229.1,25 z M179.3,25 C189.3,25 197.4,33.1 197.4,43.1 C197.4,53.1 189.3,61.2 179.3,61.2 C169.3,61.2 161.2,53.1 161.2,43.1 C161.2,33.1 169.3,25 179.3,25 z M129.6,25 C139.6,25 147.7,33.1 147.7,43.1 C147.7,53.1 139.6,61.2 129.6,61.2 C119.6,61.2 111.5,53.1 111.5,43.1 C111.5,33.1 119.6,25 129.6,25 z M229.1,11.6 C219,11.6 210,16.4 204.2,23.8 C198.4,16.4 189.4,11.6 179.3,11.6 C169.2,11.6 160.2,16.4 154.4,23.8 C148.6,16.4 139.6,11.6 129.5,11.6 C112.1,11.6 97.9,25.8 97.9,43.2 C97.9,60.6 112.1,74.8 129.6,74.8 C139.7,74.8 148.7,70 154.5,62.6 C160.3,70 169.3,74.8 179.4,74.8 C189.5,74.8 198.5,70 204.3,62.6 C210,70 219,74.8 229.1,74.8 C246.5,74.8 260.7,60.6 260.7,43.2 C260.7,25.8 246.5,11.6 229.1,11.6 z" fill="#000000"/>
  </g>
</svg>
