<?xml version="1.0" encoding="UTF-8"?>
<!DOCTYPE svg PUBLIC "-//W3C//DTD SVG 1.1//EN" "http://www.w3.org/Graphics/SVG/1.1/DTD/svg11.dtd">
<svg version="1.1" xmlns="http://www.w3.org/2000/svg" xmlns:xlink="http://www.w3.org/1999/xlink" x="0" y="0" width="283.5" height="283.5" viewBox="0, 0, 283.5, 283.5">
  <g id="Background">
    <rect x="0" y="0" width="283.5" height="283.5" fill="#FFFFFF"/>
  </g>
  <g id="Layer_1">
    <path d="M247.5,8.7 L247.5,20.6 L268.7,20.6 C272.3,20.6 275.2,23.5 275.2,27.1 C275.2,30.7 272.3,33.6 268.7,33.6 L247.5,33.6 L247.5,47.6 L268.7,47.6 C272.2,47.6 275.1,50.5 275.1,54.1 C275.1,57.7 272.2,60.6 268.6,60.6 L247.4,60.6 L247.4,72.4 L224.8,72.4 C209.1,72.4 196.1,60.8 193.8,45.7 L44.8,45.7 C40.2,45.7 36.4,49.5 36.4,54.1 C36.4,58.7 40.2,62.5 44.8,62.5 L140,62.5 C152.8,62.5 163.4,73.7 164.7,87.9 L195.9,87.9 C206.7,87.9 216.3,94.7 219.9,104.9 L234.1,145.2 L244,145.2 C256.9,145.2 267.3,155.7 267.3,168.5 L267.3,211.8 C267.3,224.7 256.8,235.1 244,235.1 L232.2,235.1 L232.2,260.1 C232.2,263.7 229.3,266.6 225.7,266.6 C222.1,266.6 219.2,263.7 219.2,260.1 L219.2,235.1 L63.7,235.1 L63.7,260.1 C63.7,263.7 60.8,266.6 57.2,266.6 C53.6,266.6 50.7,263.7 50.7,260.1 L50.7,235.1 L39.1,235.1 C26.2,235.1 15.8,224.6 15.8,211.8 L15.8,168.5 C15.8,155.6 26.3,145.2 39.1,145.2 L49,145.2 L63.2,104.9 C66.8,94.7 76.4,87.9 87.2,87.9 L151.6,87.9 C150.6,80.8 145.8,75.5 140,75.5 L44.8,75.5 C33,75.5 23.4,65.9 23.4,54.1 C23.4,42.3 33,32.7 44.8,32.7 L194.4,32.7 C197.8,18.9 210.2,8.7 224.9,8.7 L247.5,8.7 z M196,100.8 L87.2,100.8 C82,100.8 77.2,104.1 75.5,109.1 L62.8,145.1 L98.3,145.1 C101.9,145.1 104.8,148 104.8,151.6 C104.8,155.2 101.9,158.1 98.3,158.1 L39.1,158.1 C33.4,158.1 28.8,162.7 28.8,168.4 L28.8,211.7 C28.8,217.4 33.4,222 39.1,222 L244,222 C249.7,222 254.3,217.4 254.3,211.7 L254.3,168.4 C254.3,162.7 249.7,158.1 244,158.1 L184.8,158.1 C181.2,158.1 178.3,155.2 178.3,151.6 C178.3,148 181.2,145.1 184.8,145.1 L220.4,145.1 L207.7,109.1 C205.9,104.1 201.2,100.8 196,100.8 z M225.8,182.2 C230.7,182.2 234.7,186.2 234.7,191.1 C234.7,196 230.7,200 225.8,200 C220.9,200 216.9,196 216.9,191.1 C216.9,186.2 220.9,182.2 225.8,182.2 z M57.3,182.1 C62.2,182.1 66.2,186.1 66.2,191 C66.2,195.9 62.2,199.9 57.3,199.9 C52.4,199.9 48.4,195.9 48.4,191 C48.4,186.1 52.4,182.1 57.3,182.1 z M141.463,122.771 C144.41,122.962 143.189,122.636 145.2,123.4 C148.4,125 149.7,128.9 148.1,132.1 L137.8,152.7 L152.6,152.7 C154.8,152.7 156.9,153.9 158.1,155.8 C159.2,157.7 159.3,160.1 158.3,162.1 L142.5,193 C141.3,195.2 139.1,196.5 136.7,196.5 C135.8,196.5 134.7,196.3 133.8,195.8 C130.6,194.2 129.4,190.3 131,187.1 L142,165.6 L127.3,165.6 C125.1,165.6 123,164.5 121.8,162.6 C120.6,160.7 120.5,158.3 121.5,156.3 L136.5,126.3 C137.759,123.918 139.083,123.564 141.463,122.771 z M234.5,21.7 L224.9,21.7 C214.7,21.7 206.5,30 206.5,40.1 L206.5,41 C206.5,51.2 214.8,59.4 224.9,59.4 L234.5,59.4 L234.5,21.7 z" fill="#000000"/>
  </g>
</svg>
