<?xml version="1.0" encoding="UTF-8"?>
<!DOCTYPE svg PUBLIC "-//W3C//DTD SVG 1.1//EN" "http://www.w3.org/Graphics/SVG/1.1/DTD/svg11.dtd">
<svg version="1.1" xmlns="http://www.w3.org/2000/svg" xmlns:xlink="http://www.w3.org/1999/xlink" x="0" y="0" width="283.5" height="283.5" viewBox="0, 0, 283.5, 283.5">
  <g id="Background">
    <rect x="0" y="0" width="283.5" height="283.5" fill="#FFFFFF"/>
  </g>
  <g id="Layer_1">
    <path d="M214.9,68.8 C218.6,68.8 221.6,71.8 221.6,75.5 C221.6,79.2 218.6,82.2 214.9,82.2 L13.5,82.2 L13.5,230.9 L28.3,230.9 C28.1,228.9 28,227 28,225 C28,196 51.6,172.5 80.5,172.4 C109.5,172.4 133,196 133,224.9 C133,226.9 132.9,228.8 132.7,230.8 L247.5,230.8 L247.5,120.9 C247.5,117.2 250.5,114.2 254.2,114.2 C257.9,114.2 261,117.3 260.8,121 L260.8,237.6 C260.8,241.3 257.8,244.3 254.1,244.3 L6.7,244.3 C3,244.3 0,241.3 0,237.6 L0,75.5 C0,71.8 3,68.8 6.7,68.8 L214.9,68.8 z M80.6,186 C59.1,186 41.6,203.5 41.6,225 C41.6,227 41.7,229 42,230.9 L119.2,230.9 C119.4,228.9 119.6,227 119.6,225 C119.6,203.5 102.1,186 80.6,186 z M277.226,39.173 C274.534,39.485 273.295,39.483 271.4,41.7 L181.7,154.6 L154.2,118.9 C151.9,115.9 147.7,115.4 144.7,117.7 C141.7,120 141.2,124.2 143.5,127.2 L176.2,169.7 C177.5,171.3 179.4,172.3 181.5,172.3 L181.6,172.3 C183.7,172.3 185.6,171.4 186.9,169.7 L281.9,50 C284.3,47.1 283.8,42.9 280.9,40.6 C279.017,39.398 280.191,39.988 277.226,39.173 z M80.5,110.6 C89.9,110.6 97.6,118.2 97.6,127.7 C97.6,137.1 89.9,144.8 80.5,144.8 C71.1,144.8 63.4,137.1 63.4,127.7 C63.4,118.3 71.1,110.6 80.5,110.6 z M80.5,97.1 C63.6,97.1 49.9,110.8 49.9,127.7 C49.9,144.6 63.6,158.3 80.5,158.3 C97.4,158.3 111.1,144.6 111.1,127.7 C111.1,110.8 97.4,97.1 80.5,97.1 z" fill="#000000"/>
  </g>
</svg>
