<?xml version="1.0" encoding="UTF-8"?>
<!DOCTYPE svg PUBLIC "-//W3C//DTD SVG 1.1//EN" "http://www.w3.org/Graphics/SVG/1.1/DTD/svg11.dtd">
<svg version="1.1" xmlns="http://www.w3.org/2000/svg" xmlns:xlink="http://www.w3.org/1999/xlink" x="0" y="0" width="283.5" height="283.5" viewBox="0, 0, 283.5, 283.5">
  <g id="Background">
    <rect x="0" y="0" width="283.5" height="283.5" fill="#FFFFFF"/>
  </g>
  <g id="Layer_1">
    <path d="M206.913,8.561 C209.988,8.912 208.723,8.515 210.8,9.4 C255.6,34.5 283.5,81.9 283.4,133.2 C283.4,211.3 219.9,274.9 141.7,274.9 C63.6,274.9 0,211.3 0,133.2 C0,81.9 27.9,34.5 72.8,9.4 C76.1,7.6 80.2,8.7 82,12 C83.8,15.3 82.7,19.4 79.4,21.2 C38.8,43.9 13.6,86.8 13.6,133.2 C13.6,203.9 71.1,261.4 141.8,261.4 C212.5,261.4 270,203.9 270,133.2 C270,86.8 244.8,43.9 204.2,21.2 C200.9,19.4 199.8,15.3 201.6,12 C203.01,9.556 204.385,9.265 206.913,8.561 z M141.8,103.7 C105.3,103.7 75.6,133.4 75.6,169.9 C75.6,176.1 76.4,182.2 78.1,188.2 C78.9,191.1 81.6,193.1 84.6,193.1 L105.4,193.1 L105.4,226.2 C105.4,229.9 108.4,232.9 112.1,232.9 C115.8,232.9 118.8,229.9 118.8,226.2 L118.8,186.3 C118.8,182.6 115.8,179.6 112.1,179.6 L90,179.6 C89.4,176.4 89.1,173.2 89.1,170 C89.1,141 112.7,117.3 141.8,117.3 C170.8,117.3 194.5,140.9 194.5,170 C194.5,173.2 194.2,176.5 193.6,179.6 L171.4,179.6 C167.7,179.6 164.7,182.6 164.7,186.3 L164.7,226.2 C164.7,229.9 167.7,232.9 171.4,232.9 C175.1,232.9 178.1,229.9 178.1,226.2 L178.1,193.1 L198.9,193.1 C201.9,193.1 204.6,191.1 205.4,188.2 C207.1,182.3 208,176.1 208,169.9 C208,133.4 178.3,103.7 141.8,103.7 z M141.7,30.9 C155.1,30.9 166,41.8 166,55.2 C166,68.6 155.1,79.4 141.7,79.4 C128.3,79.4 117.5,68.5 117.5,55.2 C117.5,41.7 128.4,30.9 141.7,30.9 z M141.7,17.4 C120.9,17.4 104,34.3 104,55.2 C104,75.9 120.9,92.9 141.7,92.9 C162.5,92.9 179.5,76 179.5,55.2 C179.5,34.4 162.6,17.4 141.7,17.4 z" fill="#000000"/>
  </g>
</svg>
