<?xml version="1.0" encoding="UTF-8"?>
<!DOCTYPE svg PUBLIC "-//W3C//DTD SVG 1.1//EN" "http://www.w3.org/Graphics/SVG/1.1/DTD/svg11.dtd">
<svg version="1.1" xmlns="http://www.w3.org/2000/svg" xmlns:xlink="http://www.w3.org/1999/xlink" x="0" y="0" width="283.5" height="283.5" viewBox="0, 0, 283.5, 283.5">
  <g id="Background">
    <rect x="0" y="0" width="283.5" height="283.5" fill="#FFFFFF"/>
  </g>
  <g id="Layer_1">
    <path d="M115.2,0 C178.8,0 230.4,51.6 230.4,115.2 C230.4,144.5 219.4,171.3 201.4,191.6 L281.4,271.6 C284.1,274.3 284.1,278.7 281.4,281.4 C280,282.7 278.3,283.4 276.5,283.4 C274.7,283.4 273,282.8 271.6,281.4 L191.6,201.4 C171.3,219.4 144.5,230.4 115.2,230.4 C51.6,230.4 -0,178.8 -0,115.2 C-0,51.6 51.6,0 115.2,0 z M115.2,13.9 C59.4,13.9 13.9,59.3 13.9,115.2 C13.9,171.1 59.3,216.6 115.2,216.6 C142.3,216.6 167.8,206 186.9,186.9 C206.1,167.7 216.6,142.3 216.6,115.2 C216.6,59.4 171.1,13.9 115.2,13.9 z M151.3,55.2 C158.1,55.2 165.1,60.1 167.4,66.6 L176.3,91.5 C186.4,93.1 194.2,101.9 194.2,112.5 L194.2,134.1 C194.2,145.9 184.6,155.5 172.8,155.4 L172.5,155.4 L172.5,168.6 C172.5,172.4 169.4,175.5 165.6,175.5 C161.8,175.5 158.7,172.4 158.7,168.6 L158.7,155.4 L71.7,155.4 L71.7,168.6 C71.7,172.4 68.6,175.5 64.8,175.5 C61,175.5 57.9,172.4 57.9,168.6 L57.9,155.4 L57.6,155.4 C45.9,155.4 36.3,145.9 36.3,134.1 L36.3,112.5 C36.3,101.9 44.1,93.2 54.2,91.5 L63.1,66.6 C65.3,60.1 72.3,55.2 79.2,55.2 L151.3,55.2 z M172.9,105 L57.6,105 C53.5,105 50.1,108.4 50.1,112.5 L50.1,134.1 C50.1,138.3 53.4,141.6 57.6,141.6 L172.9,141.6 C177,141.6 180.4,138.2 180.4,134.1 L180.4,112.5 C180.4,108.4 177,105 172.9,105 z M64.8,115.4 C69.5,115.4 73.4,119.2 73.4,124 C73.4,128.7 69.5,132.6 64.8,132.6 C60.1,132.6 56.2,128.7 56.2,124 C56.2,119.3 60.1,115.4 64.8,115.4 z M165.7,115.4 C170.4,115.4 174.3,119.2 174.3,124 C174.3,128.7 170.4,132.6 165.7,132.6 C161,132.6 157.1,128.7 157.1,124 C157.1,119.3 161,115.4 165.7,115.4 z M151.3,69 L79.2,69 C78.1,69 76.4,70.2 76,71.2 L68.9,91.2 L161.5,91.2 L154.4,71.2 C154,70.2 152.3,69 151.3,69 z" fill="#000000"/>
  </g>
</svg>
