<?xml version="1.0" encoding="UTF-8"?>
<!DOCTYPE svg PUBLIC "-//W3C//DTD SVG 1.1//EN" "http://www.w3.org/Graphics/SVG/1.1/DTD/svg11.dtd">
<svg version="1.1" xmlns="http://www.w3.org/2000/svg" xmlns:xlink="http://www.w3.org/1999/xlink" x="0" y="0" width="283.5" height="283.5" viewBox="0, 0, 283.5, 283.5">
  <g id="Background">
    <rect x="0" y="0" width="283.5" height="283.5" fill="#FFFFFF"/>
  </g>
  <g id="Layer_1">
    <path d="M141.8,31.3 C168.6,31.3 190.5,53.1 190.5,80 C190.5,99.4 179,116.2 162.5,124 L170.2,141.4 C202.6,135.6 232.5,120.3 256.3,96.5 L257.3,95.9 C257.9,95.5 258.6,95.2 259.3,95 C259.5,94.9 259.8,94.8 260.1,94.8 C260.5,94.7 261,94.7 261.4,94.7 C262,94.7 262.6,94.8 263.1,95 C263.2,95 263.4,95 263.5,95.1 C264.6,95.5 265.6,96.2 266.4,97.2 C289.3,128.5 282.4,172.6 251,195.6 C238.8,204.5 224.4,209.2 209.6,209.2 C206.3,209.2 202.9,209 199.6,208.5 L215.9,245.4 C219.6,253.8 219.4,262.3 215.2,268.7 C211,275.1 203.4,278.8 194.2,278.8 L88.9,278.8 C79.7,278.8 72.1,275.1 67.9,268.7 C63.8,262.3 63.5,253.8 67.2,245.4 L83.5,208.5 C80.2,208.9 76.9,209.2 73.7,209.2 C58.9,209.2 44.5,204.5 32.3,195.6 C1,172.6 -5.8,128.5 17.1,97.1 L17.5,96.8 C17.6,96.7 17.7,96.5 17.8,96.4 L18.5,96 C18.9,95.8 19.2,95.5 19.6,95.3 C20,95.1 20.4,95 20.8,94.9 C21.2,94.8 21.6,94.7 22,94.7 C22.4,94.6 22.8,94.7 23.2,94.7 C23.6,94.7 24,94.8 24.4,94.9 C24.8,95 25.2,95.2 25.6,95.4 C26,95.6 26.4,95.8 26.7,96.1 L27.1,96.4 C50.9,120.2 80.8,135.6 113.2,141.3 L120.9,123.9 C104.4,116.1 92.9,99.3 92.9,79.9 C92.9,53 115,31.3 141.8,31.3 z M149.7,127.8 C147.1,128.2 144.4,128.5 141.6,128.5 C138.8,128.5 136.1,128.2 133.5,127.8 L79.3,250.6 C77.4,254.9 77.3,258.8 79,261.4 C80.8,264 84.3,265.5 89,265.5 L194.2,265.5 C198.9,265.5 202.5,264 204.2,261.4 C205.9,258.7 205.8,254.9 203.9,250.6 L149.7,127.8 z M23.7,111.3 C10.2,136.1 16.7,167.8 40.1,184.9 C52.5,194 67.6,197.6 82.7,195.3 C85.2,194.9 87.7,194.3 90.1,193.5 L107.7,153.7 C76.4,147.6 47.6,133.1 23.7,111.3 z M259.5,111.3 C235.6,133.1 206.7,147.7 175.4,153.8 L193,193.5 C195.5,194.3 198.1,194.9 200.7,195.3 C215.9,197.6 231,193.9 243.3,184.9 C266.8,167.8 273.3,136.1 259.5,111.3 z M141.6,44.4 C122,44.4 106.1,60.3 106.1,79.9 C106.1,99.5 122,115.4 141.6,115.4 C161.2,115.4 177.1,99.5 177.1,79.9 C177.1,60.3 161.2,44.4 141.6,44.4 z M170.6,4.8 L112.7,4.8 C109.1,4.8 106.1,7.7 106.1,11.4 C106.1,15.1 109,18 112.7,18 L170.6,18 C174.2,18 177.2,15.1 177.2,11.4 C177.2,7.7 174.3,4.8 170.6,4.8 z" fill="#010202"/>
  </g>
</svg>
