<?xml version="1.0" encoding="UTF-8"?>
<!DOCTYPE svg PUBLIC "-//W3C//DTD SVG 1.1//EN" "http://www.w3.org/Graphics/SVG/1.1/DTD/svg11.dtd">
<svg version="1.1" xmlns="http://www.w3.org/2000/svg" xmlns:xlink="http://www.w3.org/1999/xlink" x="0" y="0" width="283.5" height="283.5" viewBox="0, 0, 283.5, 283.5">
  <g id="Background">
    <rect x="0" y="0" width="283.5" height="283.5" fill="#FFFFFF"/>
  </g>
  <g id="Layer_1">
    <path d="M232.4,142.3 C229.9,139.7 225.8,139.7 223.2,142.3 C220.6,144.8 220.6,148.9 223.2,151.5 L230.1,158.5 L191.7,158.5 C185.9,158.5 181.2,153.8 181.2,148 L181.2,109 L183.4,111.2 C185.9,113.8 190,113.8 192.6,111.2 C195.2,108.7 195.2,104.6 192.6,102 L184.1,93.4 C180.2,89.5 174.8,87.2 169.3,87.2 L25.5,87.2 C13.5,87.3 3.8,97 3.8,109 L3.8,197 C3.8,208.9 13.5,218.7 25.5,218.7 L30.1,218.7 C32.8,226.3 40,231.7 48.5,231.7 C57,231.7 64.2,226.3 66.9,218.7 L193.2,218.7 C195.9,226.3 203.1,231.7 211.6,231.7 C220.1,231.7 227.3,226.3 230,218.7 L231.9,218.7 C243.8,218.7 253.6,209 253.6,197 L253.6,172.7 C253.6,166.8 251.3,161.2 247.1,156.9 L232.4,142.3 z M48.4,218.7 C44.8,218.7 41.9,215.8 41.9,212.2 C41.9,208.6 44.8,205.7 48.4,205.7 C52,205.7 54.9,208.6 54.9,212.2 C54.9,215.8 52,218.7 48.4,218.7 z M211.5,218.7 C207.9,218.7 205,215.8 205,212.2 C205,208.6 207.9,205.7 211.5,205.7 C215.1,205.7 218,208.6 218,212.2 C218,215.8 215.1,218.7 211.5,218.7 z M240.5,197 C240.5,201.8 236.6,205.7 231.8,205.7 L229.9,205.7 C227.2,198.1 220,192.7 211.5,192.7 C203,192.7 195.8,198.1 193.1,205.7 L66.8,205.7 C64.1,198.1 56.9,192.7 48.4,192.7 C39.9,192.7 32.7,198.1 30,205.7 L25.4,205.7 C20.6,205.7 16.7,201.8 16.7,197 L16.7,109 C16.7,104.2 20.6,100.3 25.4,100.3 L168.1,100.3 L168.1,147.9 C168.1,160.8 178.6,171.4 191.6,171.4 L240.3,171.4 C240.4,171.8 240.4,172.3 240.4,172.7 L240.4,197 z M267.2,123.4 L267.2,67.5 L211.3,67.5 L211.3,123.4 L267.2,123.4 z M273.7,54.5 C277.3,54.5 280.2,57.4 280.2,61 L280.2,129.9 C280.2,133.5 277.3,136.4 273.7,136.4 L204.8,136.4 C201.2,136.4 198.3,133.5 198.3,129.9 L198.3,61 C198.3,57.4 201.2,54.5 204.8,54.5 L273.7,54.5 z M231.2,115.4 L218,102.2 C215.5,99.7 215.5,95.5 218,93 C220.5,90.5 224.7,90.5 227.2,93 L235,100.8 L251,78.6 C253.1,75.7 257.2,75 260.1,77.1 C263,79.2 263.7,83.3 261.6,86.2 L241.1,114.6 C239.9,116.2 238.2,117.1 236.3,117.3 C236.1,117.3 236,117.3 235.8,117.3 C234.1,117.3 232.4,116.6 231.2,115.4 z" fill="#000000"/>
  </g>
</svg>
