<?xml version="1.0" encoding="UTF-8"?>
<!DOCTYPE svg PUBLIC "-//W3C//DTD SVG 1.1//EN" "http://www.w3.org/Graphics/SVG/1.1/DTD/svg11.dtd">
<svg version="1.1" xmlns="http://www.w3.org/2000/svg" xmlns:xlink="http://www.w3.org/1999/xlink" x="0" y="0" width="283.5" height="283.5" viewBox="0, 0, 283.5, 283.5">
  <g id="Background">
    <rect x="0" y="0" width="283.5" height="283.5" fill="#FFFFFF"/>
  </g>
  <g id="Layer_1">
    <path d="M141.7,10.5 C149.5,10.5 156.9,15.5 161.9,24.1 L279.1,227.2 C284.1,235.9 284.7,244.7 280.8,251.5 C277,258.3 269,262.3 259,262.3 L24.5,262.3 C14.5,262.3 6.5,258.4 2.6,251.6 C-1.3,244.8 -0.7,235.9 4.3,227.3 L121.5,24.1 C126.5,15.4 133.9,10.5 141.7,10.5 z M141.7,24.6 C139,24.6 136.1,27 133.7,31.2 L16.5,234.3 C14.1,238.5 13.5,242.2 14.8,244.5 C16.1,246.8 19.7,248.2 24.5,248.2 L259,248.2 C263.8,248.2 267.3,246.9 268.7,244.5 C270,242.2 269.4,238.5 267,234.3 L149.7,31.2 C147.3,27 144.4,24.6 141.7,24.6 z M141.7,196.3 C147.2,196.3 151.6,200.7 151.6,206.2 C151.6,211.7 147.2,216.1 141.7,216.1 C136.2,216.1 131.8,211.7 131.8,206.2 C131.8,200.7 136.2,196.3 141.7,196.3 z M141.7,96.1 C145.6,96.1 148.8,99.3 148.8,103.2 L148.8,168 C148.8,172 145.6,175.1 141.7,175.1 C137.8,175.1 134.6,171.9 134.6,168 L134.6,103.2 C134.6,99.3 137.8,96.1 141.7,96.1 z" fill="#010202"/>
  </g>
</svg>
