<?xml version="1.0" encoding="UTF-8"?>
<!DOCTYPE svg PUBLIC "-//W3C//DTD SVG 1.1//EN" "http://www.w3.org/Graphics/SVG/1.1/DTD/svg11.dtd">
<svg version="1.1" xmlns="http://www.w3.org/2000/svg" xmlns:xlink="http://www.w3.org/1999/xlink" x="0" y="0" width="283.5" height="283.5" viewBox="0, 0, 283.5, 283.5">
  <g id="Background">
    <rect x="0" y="0" width="283.5" height="283.5" fill="#FFFFFF"/>
  </g>
  <g id="Layer_1">
    <path d="M107.7,214.8 C126.6,214.8 142,230.3 142,249.2 C142,268.1 126.6,283.5 107.7,283.5 L92.7,283.5 C88.5,283.5 85.2,280.1 85.2,276 L85.2,222.3 C85.2,218.1 88.6,214.8 92.7,214.8 L107.7,214.8 z M107.7,229.7 L100.1,229.7 L100.1,268.5 L107.7,268.5 C118.4,268.5 127.1,259.8 127.1,249.1 C127.1,238.4 118.4,229.7 107.7,229.7 z M190.8,-0 C186.7,-0 183.3,3.3 183.3,7.5 L183.3,276 C183.3,280.1 186.6,283.5 190.8,283.5 C194.9,283.5 198.3,280.2 198.3,276 L198.3,7.5 C198.2,3.3 194.9,-0 190.8,-0 z M110.6,159 C105.464,159 101.3,163.164 101.3,168.3 C101.3,173.436 105.464,177.6 110.6,177.6 C115.736,177.6 119.9,173.436 119.9,168.3 C119.9,163.164 115.736,159 110.6,159 z M110.6,101.8 C105.5,101.8 101.3,106 101.3,111.1 C101.4,116.3 105.5,120.4 110.6,120.4 C115.7,120.4 119.9,116.2 119.9,111.1 C119.9,106 115.8,101.8 110.6,101.8 z M119.7,14.9 C123.8,14.9 127.2,18.2 127.2,22.4 C127.1,26.5 123.8,29.8 119.7,29.8 L100.2,29.8 L100.2,14.9 L119.7,14.9 z M119.7,-0 L92.7,-0 C88.6,-0 85.2,3.3 85.2,7.5 L85.2,61.2 C85.2,65.3 88.5,68.7 92.7,68.7 C96.9,68.7 100.2,65.4 100.2,61.2 L100.2,44.8 L119.7,44.8 C132,44.8 142.1,34.8 142.1,22.4 C142,10 132,-0 119.7,-0 z" fill="#010202"/>
  </g>
</svg>
