<?xml version="1.0" encoding="UTF-8"?>
<!DOCTYPE svg PUBLIC "-//W3C//DTD SVG 1.1//EN" "http://www.w3.org/Graphics/SVG/1.1/DTD/svg11.dtd">
<svg version="1.1" xmlns="http://www.w3.org/2000/svg" xmlns:xlink="http://www.w3.org/1999/xlink" x="0" y="0" width="283.5" height="283.5" viewBox="0, 0, 283.5, 283.5">
  <g id="Background">
    <rect x="0" y="0" width="283.5" height="283.5" fill="#FFFFFF"/>
  </g>
  <g id="Layer_1">
    <path d="M7.3,128.7 C11.2,128.9 14.1,132.2 13.9,136 L13.8,141.7 C13.8,203.8 64.4,254.4 126.5,254.4 C177.2,254.4 221.9,219.9 235.2,171.5 L211.1,181.7 C207.6,183.2 203.5,181.5 202,178 C200.5,174.5 202.2,170.4 205.7,168.9 L245.3,152.1 C248.8,150.6 252.9,152.3 254.4,155.8 L271.1,195.3 C272.6,198.8 270.9,202.9 267.4,204.4 C266.5,204.8 265.6,205 264.7,205 C262,205 259.4,203.4 258.3,200.8 L248,176.6 C232.7,230.2 182.9,268.3 126.4,268.3 C56.6,268.3 -0.2,211.5 -0.2,141.7 C-0.2,139.5 -0.1,137.4 0,135.3 C0.2,131.4 3.5,128.5 7.3,128.7 z M160.7,127.3 L160.7,137 C156.2,135.6 152.7,131.9 151.4,127.3 L160.7,127.3 z M81.9,127.3 C80.6,131.9 77.1,135.5 72.6,137 L72.6,127.3 L81.9,127.3 z M142.7,127.3 C144.3,136.6 151.5,144 160.7,145.7 L160.7,158.8 C151.6,160.5 144.5,167.7 142.8,176.7 L90.6,176.7 C88.9,167.6 81.7,160.5 72.7,158.8 L72.7,145.7 C81.8,144 89.1,136.6 90.6,127.3 L142.7,127.3 z M72.6,167.6 C77,169 80.4,172.4 81.8,176.8 L72.6,176.8 L72.6,167.6 z M160.8,167.6 L160.8,176.8 L151.6,176.8 C153,172.4 156.4,169 160.8,167.6 z M165,118.7 L68.3,118.7 C65.9,118.7 64,120.6 64,123 L64,181 C64.1,183.4 66,185.3 68.3,185.3 L165,185.3 C167.4,185.3 169.3,183.4 169.3,181 L169.3,123 C169.3,120.6 167.4,118.7 165,118.7 z M176.6,107.2 L79.9,107.2 C77.5,107.2 75.6,109.1 75.6,111.5 C75.6,113.9 77.5,115.8 79.9,115.8 L172.3,115.8 L172.3,169.5 C172.3,171.9 174.2,173.8 176.6,173.8 C179,173.8 180.9,171.9 180.9,169.5 L180.9,111.5 C180.9,109.1 179,107.2 176.6,107.2 z M231.5,76.3 C237.8,76.3 242.9,81.4 242.9,87.7 C242.9,94 237.7,99.1 231.5,99.1 C225.2,99.1 220.1,94 220.1,87.7 C220.1,81.4 225.2,76.3 231.5,76.3 z M231.5,66.1 C219.6,66.1 209.9,75.8 209.9,87.7 C209.9,99.6 219.6,109.3 231.5,109.3 C243.4,109.3 253.1,99.6 253.1,87.7 C253,75.8 243.4,66.1 231.5,66.1 z M234.5,45.8 L234.5,51.9 C234.5,54.3 236.2,56.3 238.5,56.9 C242,57.7 245.3,59 248.3,61 C250.3,62.3 252.9,62 254.6,60.3 L258.9,56 L263.1,60.2 L258.8,64.5 C257.1,66.2 256.8,68.8 258.1,70.8 C260,73.8 261.4,77.2 262.2,80.7 C262.7,83 264.8,84.7 267.2,84.7 L273.3,84.7 L273.3,90.7 L267.2,90.7 C264.8,90.7 262.8,92.3 262.2,94.7 C261.4,98.2 260,101.6 258.1,104.6 C256.8,106.6 257.1,109.2 258.8,110.9 L263.1,115.2 L258.9,119.4 L254.6,115.1 C252.9,113.4 250.3,113.1 248.3,114.4 C245.2,116.3 241.9,117.7 238.4,118.5 C236.1,119 234.4,121.1 234.4,123.5 L234.4,129.6 L228.4,129.6 L228.4,123.5 C228.4,121.1 226.8,119.1 224.4,118.5 C220.9,117.7 217.6,116.3 214.5,114.4 C212.5,113.1 209.9,113.4 208.2,115.1 L203.9,119.4 L199.7,115.2 L204,110.9 C205.7,109.2 206,106.6 204.7,104.6 C202.8,101.5 201.4,98.2 200.6,94.7 C200.1,92.4 198,90.7 195.6,90.7 L189.5,90.7 L189.5,84.7 L195.6,84.7 C198,84.7 200,83.1 200.6,80.7 C201.4,77.2 202.8,73.9 204.7,70.8 C206,68.8 205.7,66.2 204,64.5 L199.7,60.2 L204,56 L208.3,60.3 C210,62 212.6,62.3 214.6,61 C217.7,59.1 221,57.7 224.5,56.9 C226.8,56.4 228.5,54.3 228.5,51.9 L228.5,45.8 L234.5,45.8 z M239.6,35.7 L223.4,35.7 C220.6,35.7 218.3,38 218.3,40.8 L218.3,48 C216.4,48.6 214.6,49.4 212.8,50.3 L207.6,45.1 C206.6,44.1 205.4,43.6 204,43.6 C202.7,43.6 201.4,44.1 200.4,45.1 L189,56.6 C187,58.6 187,61.8 189,63.8 L194.2,69 C193.3,70.8 192.5,72.6 191.9,74.5 L184.6,74.5 C181.8,74.5 179.5,76.8 179.5,79.6 L179.5,95.8 C179.5,98.6 181.8,100.9 184.6,100.9 L191.9,100.9 C192.5,102.8 193.3,104.7 194.2,106.4 L189,111.6 C188,112.6 187.5,113.8 187.5,115.2 C187.5,116.5 188,117.8 189,118.8 L200.4,130.2 C202.3,132.1 205.7,132.1 207.6,130.2 L212.8,125 C214.6,125.9 216.4,126.7 218.3,127.3 L218.3,134.6 C218.3,137.4 220.6,139.7 223.4,139.7 L239.6,139.7 C242.4,139.7 244.7,137.4 244.7,134.6 L244.7,127.3 C246.6,126.7 248.4,125.9 250.2,125 L255.4,130.2 C257.4,132.2 260.6,132.2 262.6,130.2 L274,118.8 C275,117.8 275.5,116.6 275.5,115.2 C275.5,113.9 275,112.6 274,111.6 L268.8,106.4 C269.7,104.6 270.5,102.8 271.1,100.9 L278.4,100.9 C281.2,100.9 283.5,98.6 283.5,95.8 L283.5,79.6 C283.5,76.8 281.2,74.5 278.4,74.5 L271.1,74.5 C270.5,72.6 269.7,70.8 268.8,69 L274,63.8 C276,61.8 276,58.6 274,56.6 L262.6,45.2 C260.6,43.2 257.4,43.2 255.4,45.2 L250.2,50.4 C248.4,49.5 246.6,48.7 244.7,48.1 L244.7,40.8 C244.7,38 242.4,35.7 239.6,35.7 z M126.6,15.1 C81.6,15.2 40,39.4 17.4,77.7 L13.8,50.6 C13.3,46.8 9.8,44.1 6,44.7 C2.2,45.2 -0.5,48.7 0.1,52.5 L5.8,95.1 C6.3,98.6 9.2,101.1 12.7,101.1 C13,101.1 13.3,101.1 13.6,101 L56.2,95.3 C60,94.8 62.7,91.3 62.1,87.5 C61.6,83.7 58.1,81 54.3,81.6 L29.3,85 C49.3,50.7 86.5,29 126.6,29 C145,29 162.7,33.3 178.9,41.9 C182.3,43.7 186.5,42.4 188.3,39 C190.1,35.6 188.8,31.4 185.4,29.6 C167.4,20.1 147,15.1 126.6,15.1 z" fill="#000000"/>
  </g>
</svg>
