<?xml version="1.0" encoding="UTF-8"?>
<!DOCTYPE svg PUBLIC "-//W3C//DTD SVG 1.1//EN" "http://www.w3.org/Graphics/SVG/1.1/DTD/svg11.dtd">
<svg version="1.1" xmlns="http://www.w3.org/2000/svg" xmlns:xlink="http://www.w3.org/1999/xlink" x="0" y="0" width="283.5" height="283.5" viewBox="0, 0, 283.5, 283.5">
  <g id="Background">
    <rect x="0" y="0" width="283.5" height="283.5" fill="#FFFFFF"/>
  </g>
  <g id="Layer_1">
    <path d="M72.327,16.75 L72.327,28.481 L211.173,28.481 L211.173,16.75 L226.173,16.75 L226.173,28.481 L237.904,28.481 C257.977,28.481 274.25,44.753 274.25,64.827 L274.25,237.904 C274.25,257.977 257.977,274.25 237.904,274.25 L45.596,274.25 C25.523,274.25 9.25,257.977 9.25,237.904 L9.25,64.827 C9.25,44.753 25.523,28.481 45.596,28.481 L57.327,28.481 L57.327,16.75 L72.327,16.75 z M259.25,91.557 L24.25,91.557 L24.25,237.904 C24.25,249.693 33.807,259.25 45.596,259.25 L237.904,259.25 C249.693,259.25 259.25,249.693 259.25,237.904 L259.25,91.557 z M105.091,115.019 C113.548,115.019 120.404,121.875 120.404,130.332 L120.404,172.399 C120.404,180.856 113.548,187.712 105.091,187.712 L63.024,187.712 C54.567,187.712 47.712,180.856 47.711,172.399 L47.711,130.332 C47.712,121.875 54.567,115.019 63.024,115.019 L105.091,115.019 z M105.091,130.019 L63.024,130.019 C62.851,130.019 62.712,130.159 62.711,130.332 L62.711,172.399 C62.712,172.572 62.851,172.712 63.024,172.712 L105.091,172.712 C105.264,172.712 105.404,172.572 105.404,172.399 L105.404,130.332 C105.404,130.159 105.264,130.019 105.091,130.019 z M237.904,43.481 L45.596,43.481 C33.807,43.481 24.25,53.038 24.25,64.827 L24.25,76.557 L259.25,76.557 L259.25,64.827 C259.25,53.038 249.693,43.481 237.904,43.481 z" fill="#000000"/>
  </g>
</svg>
