<?xml version="1.0" encoding="UTF-8"?>
<!DOCTYPE svg PUBLIC "-//W3C//DTD SVG 1.1//EN" "http://www.w3.org/Graphics/SVG/1.1/DTD/svg11.dtd">
<svg version="1.1" xmlns="http://www.w3.org/2000/svg" xmlns:xlink="http://www.w3.org/1999/xlink" x="0" y="0" width="283.5" height="283.5" viewBox="0, 0, 283.5, 283.5">
  <g id="Background">
    <rect x="0" y="0" width="283.5" height="283.5" fill="#FFFFFF"/>
  </g>
  <g id="Layer_1">
    <path d="M140.895,9.213 C142.552,9.274 141.744,9.255 143.32,9.273 L144.837,9.771 C193.495,31.746 215.154,38.512 267.533,47.908 C270.933,48.518 273.477,51.371 273.694,54.818 C276.05,92.16 270.877,125.719 259.155,155.618 C249.135,181.177 234.594,203.427 216.563,222.557 C202.308,237.681 186.594,250.119 170.411,260.097 C164.471,263.759 158.786,266.888 153.479,269.509 C149.838,271.306 146.818,272.651 144.552,273.563 C142.754,274.287 140.746,274.287 138.948,273.563 C136.682,272.651 133.662,271.306 130.021,269.509 C124.714,266.888 119.029,263.759 113.089,260.097 C96.906,250.119 81.192,237.681 66.937,222.557 C48.906,203.427 34.365,181.177 24.345,155.618 C12.623,125.719 7.45,92.16 9.806,54.818 C10.023,51.371 12.567,48.518 15.967,47.908 C68.346,38.512 90.005,31.746 138.663,9.771 C139.503,9.476 140.002,9.267 140.895,9.213 z M141.75,24.829 C120.389,34.468 98.69,43.49 76.138,49.983 C59.15,54.875 41.837,58.347 24.478,61.604 C22.836,91.766 27.715,121.92 38.31,150.143 C47.602,173.846 61.091,194.485 77.852,212.268 C91.152,226.38 105.844,238.008 120.961,247.329 C126.49,250.738 131.766,253.641 136.663,256.059 C139.915,257.633 138.221,256.837 141.75,258.437 C145.279,256.837 143.585,257.633 146.837,256.059 C151.734,253.641 157.01,250.738 162.539,247.329 C177.656,238.008 192.348,226.38 205.648,212.268 C222.409,194.485 235.898,173.846 245.19,150.143 C256.029,122.067 260.554,91.649 259.021,61.604 C217.104,55.023 180.24,42.131 141.75,24.829 z" fill="#000000"/>
  </g>
</svg>
