<?xml version="1.0" encoding="UTF-8"?>
<!DOCTYPE svg PUBLIC "-//W3C//DTD SVG 1.1//EN" "http://www.w3.org/Graphics/SVG/1.1/DTD/svg11.dtd">
<svg version="1.1" xmlns="http://www.w3.org/2000/svg" xmlns:xlink="http://www.w3.org/1999/xlink" x="0" y="0" width="283.5" height="283.5" viewBox="0, 0, 283.5, 283.5">
  <g id="Background">
    <rect x="0" y="0" width="283.5" height="283.5" fill="#FFFFFF"/>
  </g>
  <g id="Layer_1">
    <path d="M198.918,39.961 L199.901,39.965 C202.783,41.14 201.672,40.406 203.428,41.841 L269.749,108.162 C272.417,110.83 272.417,115.156 269.749,117.825 C267.081,120.493 262.754,120.493 260.086,117.825 L205.429,63.167 L205.429,236.161 C205.429,239.934 202.37,242.993 198.596,242.993 C194.823,242.993 191.764,239.934 191.764,236.161 L191.764,63.167 L137.107,117.825 C134.439,120.493 130.113,120.493 127.444,117.825 C124.776,115.156 124.776,110.83 127.444,108.162 L193.765,41.841 C195.448,40.212 196.69,40.037 198.918,39.961 z M84.903,39.84 C81.13,39.84 78.071,42.899 78.071,46.672 L78.071,219.665 L23.414,165.008 C21.658,163.574 22.769,164.307 19.887,163.132 L18.904,163.128 C16.676,163.205 15.434,163.379 13.751,165.008 C11.083,167.677 11.083,172.003 13.751,174.671 L80.072,240.992 C82.74,243.66 87.067,243.66 89.735,240.992 L156.056,174.671 C158.724,172.003 158.724,167.677 156.056,165.008 C153.387,162.34 149.061,162.34 146.393,165.008 L91.736,219.665 L91.736,46.672 C91.736,42.899 88.677,39.84 84.903,39.84 z" fill="#000000"/>
  </g>
</svg>
