<?xml version="1.0" encoding="UTF-8"?>
<!DOCTYPE svg PUBLIC "-//W3C//DTD SVG 1.1//EN" "http://www.w3.org/Graphics/SVG/1.1/DTD/svg11.dtd">
<svg version="1.1" xmlns="http://www.w3.org/2000/svg" xmlns:xlink="http://www.w3.org/1999/xlink" x="0" y="0" width="283.5" height="283.5" viewBox="0, 0, 283.5, 283.5">
  <g id="Background">
    <rect x="0" y="0" width="283.5" height="283.5" fill="#FFFFFF"/>
  </g>
  <g id="Layer_1">
    <path d="M141.711,8.528 L144.713,8.562 C151.38,8.79 157.845,10.237 163.991,12.785 L261.231,57.121 L261.22,57.116 C278.526,64.972 278.558,81.82 261.284,89.708 L222.458,107.415 L261.275,124.819 C278.618,132.703 278.578,149.571 261.219,157.417 L223.794,174.483 L261.424,192.591 L261.275,192.522 C278.596,200.395 278.596,217.25 261.284,225.119 L164.925,269.066 C151.954,274.972 131.588,274.972 118.613,269.064 L22.267,225.123 C4.947,217.25 4.947,200.395 22.3,192.507 L61.031,175.127 L22.202,157.42 C4.882,149.548 4.882,132.692 22.235,124.805 L61.034,107.392 L22.267,89.711 C4.947,81.839 4.947,64.99 22.258,57.122 L119.428,12.787 C125.493,10.099 132.106,8.86 138.711,8.562 L141.711,8.528 z M206.033,182.582 L164.863,201.356 C151.891,207.27 131.522,207.27 118.549,201.356 L79.203,183.414 L28.474,206.177 C26.56,207.048 25.24,207.959 24.534,208.754 L24.479,208.822 L24.534,208.89 C25.24,209.685 26.56,210.597 28.483,211.471 L124.833,255.415 C133.855,259.522 149.687,259.522 158.705,255.417 L255.068,211.467 C256.983,210.597 258.303,209.685 259.008,208.891 L259.064,208.822 L259.008,208.754 C258.303,207.959 256.983,207.048 255.068,206.177 L254.919,206.108 L206.033,182.582 z M79.203,115.679 L28.409,138.475 C26.495,139.345 25.175,140.257 24.469,141.051 L24.414,141.12 L24.469,141.188 C25.175,141.983 26.495,142.895 28.418,143.769 L124.772,187.707 C133.792,191.82 149.621,191.82 158.64,187.708 L255.018,143.758 C256.95,142.885 258.283,141.97 258.997,141.171 L259.05,141.105 L259.006,141.05 C258.302,140.256 256.983,139.345 255.103,138.491 L204.282,115.705 L164.928,133.654 C151.956,139.568 131.587,139.568 118.613,133.653 L79.203,115.679 z M141.578,23.496 C136.091,23.419 130.776,24.526 125.659,26.432 L28.474,70.773 C26.559,71.643 25.239,72.555 24.533,73.349 L24.481,73.414 L24.533,73.479 C25.239,74.274 26.559,75.186 28.483,76.06 L124.837,120.005 C133.857,124.117 149.686,124.117 158.705,120.006 L255.056,76.061 C256.958,75.193 258.267,74.285 258.966,73.494 L259.021,73.424 L258.96,73.349 C258.254,72.554 256.934,71.643 255.019,70.774 L255.008,70.769 L157.762,26.43 C153.406,24.393 148.635,23.941 143.916,23.541 L141.578,23.496 z" fill="#000000"/>
  </g>
</svg>
