<?xml version="1.0" encoding="UTF-8"?>
<!DOCTYPE svg PUBLIC "-//W3C//DTD SVG 1.1//EN" "http://www.w3.org/Graphics/SVG/1.1/DTD/svg11.dtd">
<svg version="1.1" xmlns="http://www.w3.org/2000/svg" xmlns:xlink="http://www.w3.org/1999/xlink" x="0" y="0" width="283.5" height="283.5" viewBox="0, 0, 283.5, 283.5">
  <g id="Background">
    <rect x="0" y="0" width="283.5" height="283.5" fill="#FFFFFF"/>
  </g>
  <g id="Layer_1">
    <path d="M188.571,-0.95 C212.776,-0.881 232.381,18.724 232.45,42.929 L232.448,43.106 L232.283,51.05 L239.9,51.05 C264.504,51.05 284.45,70.996 284.45,95.6 L284.45,239.9 C284.45,264.504 264.504,284.45 239.9,284.45 L95.6,284.45 C70.996,284.45 51.05,264.504 51.05,239.9 L51.05,232.45 L42.929,232.45 C18.724,232.381 -0.881,212.776 -0.95,188.55 L-0.95,48.128 C-0.87,21.056 21.056,-0.87 48.15,-0.95 L188.571,-0.95 z M239.9,66.05 L95.6,66.05 C79.28,66.05 66.05,79.28 66.05,95.6 L66.05,224.949 L66.05,224.95 L66.05,224.951 L66.05,239.9 C66.05,256.22 79.28,269.45 95.6,269.45 L239.9,269.45 C256.22,269.45 269.45,256.22 269.45,239.9 L269.45,95.6 C269.45,79.28 256.22,66.05 239.9,66.05 z M167.75,108.25 C171.892,108.25 175.25,111.608 175.25,115.75 L175.25,160.25 L219.75,160.25 C223.892,160.25 227.25,163.608 227.25,167.75 C227.25,171.892 223.892,175.25 219.75,175.25 L175.25,175.25 L175.25,219.75 C175.25,223.892 171.892,227.25 167.75,227.25 C163.608,227.25 160.25,223.892 160.25,219.75 L160.25,175.25 L115.75,175.25 C111.608,175.25 108.25,171.892 108.25,167.75 C108.25,163.608 111.608,160.25 115.75,160.25 L160.25,160.25 L160.25,115.75 C160.25,111.608 163.608,108.25 167.75,108.25 z M188.55,14.05 L48.172,14.05 C29.35,14.106 14.106,29.35 14.05,48.15 L14.05,188.529 C14.095,204.483 27.017,217.405 42.95,217.45 L51.05,217.45 L51.05,95.6 C51.05,70.996 70.996,51.05 95.6,51.05 L217.28,51.05 L217.449,42.943 C216.888,26.32 204.918,14.921 188.55,14.05 z" fill="#000000"/>
  </g>
</svg>
