<?xml version="1.0" encoding="UTF-8"?>
<!DOCTYPE svg PUBLIC "-//W3C//DTD SVG 1.1//EN" "http://www.w3.org/Graphics/SVG/1.1/DTD/svg11.dtd">
<svg version="1.1" xmlns="http://www.w3.org/2000/svg" xmlns:xlink="http://www.w3.org/1999/xlink" x="0" y="0" width="283.5" height="283.5" viewBox="0, 0, 283.5, 283.5">
  <g id="Background">
    <rect x="0" y="0" width="283.5" height="283.5" fill="#FFFFFF"/>
  </g>
  <g id="Layer_1">
    <path d="M81.421,36.036 C87.309,36.036 93.065,37.779 97.964,41.045 L113.5,51.403 C115.935,53.026 118.796,53.893 121.722,53.893 L244.428,53.893 C260.898,53.893 274.25,67.244 274.25,83.714 L274.25,217.643 C274.25,234.113 260.898,247.464 244.428,247.464 L39.071,247.464 C22.602,247.464 9.25,234.113 9.25,217.643 L9.25,65.857 C9.25,49.387 22.602,36.036 39.071,36.036 L81.421,36.036 z M259.25,113.536 L24.25,113.536 L24.25,217.643 C24.25,225.829 30.886,232.464 39.071,232.464 L244.428,232.464 C252.614,232.464 259.25,225.829 259.25,217.643 L259.25,113.536 z M81.421,51.036 L39.071,51.036 C30.886,51.036 24.25,57.672 24.25,65.857 L24.25,98.536 L259.25,98.536 L259.25,83.714 C259.25,75.529 252.614,68.893 244.428,68.893 L121.722,68.893 C115.834,68.893 110.077,67.15 105.179,63.883 L89.643,53.526 C87.208,51.902 84.347,51.036 81.421,51.036 z" fill="#000000"/>
  </g>
</svg>
