<?xml version="1.0" encoding="UTF-8"?>
<!DOCTYPE svg PUBLIC "-//W3C//DTD SVG 1.1//EN" "http://www.w3.org/Graphics/SVG/1.1/DTD/svg11.dtd">
<svg version="1.1" xmlns="http://www.w3.org/2000/svg" xmlns:xlink="http://www.w3.org/1999/xlink" x="0" y="0" width="283.5" height="283.5" viewBox="0, 0, 283.5, 283.5">
  <g id="Background">
    <rect x="0" y="0" width="283.5" height="283.5" fill="#FFFFFF"/>
  </g>
  <g id="Layer_1">
    <path d="M123.831,18.365 L127.201,18.42 C135.29,18.869 142.778,21.529 149.844,25.336 C165.92,34.704 175.716,51.993 175.49,70.512 L175.406,193.069 L175.405,193.183 C175.116,211.504 160.181,226.205 141.857,226.205 C123.534,226.205 108.599,211.504 108.309,193.183 L108.309,193.064 L108.309,99.562 C108.309,95.42 111.666,92.062 115.809,92.062 C119.951,92.062 123.309,95.42 123.309,99.562 L123.309,192.961 C123.639,203.325 131.759,210.7 141.857,211.205 C152.223,211.041 159.741,203.052 160.406,192.958 L160.491,70.416 C160.651,57.213 153.699,44.944 142.291,38.296 C130.884,31.648 116.782,31.648 105.374,38.296 C93.966,44.944 87.014,57.213 87.175,70.507 L87.175,193.89 L87.174,193.998 C86.889,213.684 97.229,231.999 114.231,241.925 C131.234,251.851 152.266,251.851 169.268,241.925 C186.271,231.999 196.611,213.684 196.326,193.998 L196.325,193.89 L196.325,78.593 C196.325,74.451 199.683,71.093 203.825,71.093 C207.967,71.093 211.325,74.451 211.325,78.593 L211.325,193.89 L211.324,193.781 C211.687,218.878 198.507,242.225 176.831,254.879 C155.155,267.533 128.345,267.533 106.669,254.879 C84.993,242.225 71.813,218.878 72.176,193.781 L72.175,193.89 L72.175,70.598 C71.95,51.993 81.746,34.704 97.822,25.336 C104.741,21.35 112.484,18.942 120.465,18.42 L123.831,18.365 z" fill="#000000"/>
  </g>
</svg>
