<?xml version="1.0" encoding="UTF-8"?>
<!DOCTYPE svg PUBLIC "-//W3C//DTD SVG 1.1//EN" "http://www.w3.org/Graphics/SVG/1.1/DTD/svg11.dtd">
<svg version="1.1" xmlns="http://www.w3.org/2000/svg" xmlns:xlink="http://www.w3.org/1999/xlink" x="0" y="0" width="283.5" height="283.5" viewBox="0, 0, 283.5, 283.5">
  <g id="Background">
    <rect x="0" y="0" width="283.5" height="283.5" fill="#FFFFFF"/>
  </g>
  <g id="Layer_1">
    <path d="M149.79,52.533 C153.932,52.533 157.29,55.891 157.29,60.033 C157.29,64.175 153.932,67.533 149.79,67.533 L40.928,67.533 C30.711,67.533 22.428,75.816 22.428,86.033 L22.428,242.033 C22.428,252.25 30.711,260.533 40.928,260.533 L196.928,260.533 C207.145,260.533 215.428,252.25 215.428,242.033 L215.428,122.433 C215.428,118.291 218.786,114.933 222.928,114.933 C227.07,114.933 230.428,118.291 230.428,122.433 L230.428,242.033 C230.428,260.534 215.43,275.533 196.928,275.533 L40.928,275.533 C22.426,275.533 7.428,260.534 7.428,242.033 L7.428,86.033 C7.428,67.531 22.426,52.533 40.928,52.533 L149.79,52.533 z M237.322,33.73 C235.514,33.802 234.243,33.98 232.899,35.333 L115.561,152.463 C114.85,153.171 114.333,154.051 114.059,155.017 L108.632,171.183 C108.367,172.076 108.613,173.043 109.272,173.702 C109.931,174.361 110.897,174.607 111.791,174.342 L127.943,168.914 C128.91,168.641 129.789,168.124 130.498,167.413 L247.628,50.062 C249.883,47.783 249.883,44.112 247.628,41.833 L241.16,35.333 C239.658,34.109 240.609,34.734 238.145,33.732 L237.322,33.73 z M264.82,8.036 C261.97,7.967 259.215,9.067 257.196,11.081 L249.155,19.083 C247.126,21.113 247.126,24.404 249.155,26.434 L256.526,33.792 C257.502,34.773 258.829,35.324 260.212,35.324 C261.595,35.324 262.922,34.773 263.897,33.792 L271.736,25.992 C275.702,22.034 276.072,15.586 272.289,11.445 C270.37,9.337 267.671,8.105 264.82,8.036 z" fill="#000000"/>
  </g>
</svg>
