<?xml version="1.0" encoding="UTF-8"?>
<!DOCTYPE svg PUBLIC "-//W3C//DTD SVG 1.1//EN" "http://www.w3.org/Graphics/SVG/1.1/DTD/svg11.dtd">
<svg version="1.1" xmlns="http://www.w3.org/2000/svg" xmlns:xlink="http://www.w3.org/1999/xlink" x="0" y="0" width="283.5" height="283.5" viewBox="0, 0, 283.5, 283.5">
  <g id="Background">
    <rect x="0" y="0" width="283.5" height="283.5" fill="#FFFFFF"/>
  </g>
  <g id="Layer_1">
    <path d="M133.47,4.25 C140.761,4.251 147.753,7.147 152.91,12.303 L241.198,100.591 C246.353,105.747 249.249,112.739 249.25,120.03 L249.25,120.031 L249.25,241.75 C249.25,262.461 232.461,279.25 211.75,279.25 L71.75,279.25 C51.039,279.25 34.25,262.461 34.25,241.75 L34.25,41.75 C34.25,21.039 51.039,4.25 71.75,4.25 L133.47,4.25 z M133.469,19.25 L71.75,19.25 C59.324,19.25 49.25,29.324 49.25,41.75 L49.25,241.75 C49.25,254.176 59.324,264.25 71.75,264.25 L211.75,264.25 C224.176,264.25 234.25,254.176 234.25,241.75 L234.25,120.032 L234.211,119.25 L161.75,119.25 C146.562,119.25 134.25,106.938 134.25,91.75 L134.25,19.289 L133.469,19.25 z M223.643,104.25 L149.25,29.857 L149.25,91.75 C149.25,98.654 154.846,104.25 161.75,104.25 L223.643,104.25 z" fill="#000000"/>
  </g>
</svg>
