<?xml version="1.0" encoding="UTF-8"?>
<!DOCTYPE svg PUBLIC "-//W3C//DTD SVG 1.1//EN" "http://www.w3.org/Graphics/SVG/1.1/DTD/svg11.dtd">
<svg version="1.1" xmlns="http://www.w3.org/2000/svg" xmlns:xlink="http://www.w3.org/1999/xlink" x="0" y="0" width="283.5" height="283.5" viewBox="0, 0, 283.5, 283.5">
  <g id="Background">
    <rect x="0" y="0" width="283.5" height="283.5" fill="#FFFFFF"/>
  </g>
  <g id="Layer_1">
    <path d="M218.673,28.481 C237.804,28.481 251.316,39.331 254.894,58.653 L254.858,58.474 L274.089,149.82 L274.092,149.841 C274.106,149.873 274.097,149.849 274.104,149.915 C274.25,150.845 274.198,150.361 274.25,151.365 L274.25,218.695 C274.192,238.732 257.963,254.961 237.904,255.019 L45.574,255.019 C25.537,254.961 9.308,238.732 9.25,218.673 L9.25,151.365 C9.302,150.36 9.25,150.845 9.397,149.91 C9.403,149.85 9.395,149.871 9.408,149.842 L9.411,149.82 L28.642,58.474 L28.616,58.603 C32.29,39.499 45.553,28.481 64.827,28.481 L218.673,28.481 z M24.25,158.865 L24.25,218.651 C24.284,230.438 33.831,239.985 45.596,240.019 L237.882,240.019 C249.669,239.985 259.216,230.438 259.25,218.673 L259.25,158.865 L187.08,158.865 C183.186,181.189 164.176,196.76 141.75,197.327 C118.513,197.039 100.995,181.239 96.42,158.865 L24.25,158.865 z M218.673,43.481 L64.827,43.481 C52.763,43.481 45.665,49.377 43.346,61.436 L43.32,61.564 L25.993,143.865 L103.289,143.865 C107.431,143.865 110.789,147.223 110.789,151.365 C110.789,168.465 124.651,182.327 141.75,182.327 C159.596,181.778 171.824,168.94 172.712,151.366 L172.712,151.365 C172.712,147.223 176.07,143.865 180.212,143.865 L257.507,143.865 L240.18,61.564 L240.145,61.385 C237.904,49.282 230.679,43.481 218.673,43.481 z M218.673,105.404 C222.815,105.404 226.173,108.762 226.173,112.904 C226.173,117.046 222.815,120.404 218.673,120.404 L64.827,120.404 C60.685,120.404 57.327,117.046 57.327,112.904 C57.327,108.762 60.685,105.404 64.827,105.404 L218.673,105.404 z M209.058,66.942 C213.2,66.942 216.558,70.3 216.558,74.442 C216.558,78.584 213.2,81.942 209.058,81.942 L74.443,81.942 C70.3,81.942 66.943,78.584 66.943,74.442 C66.943,70.3 70.3,66.942 74.443,66.942 L209.058,66.942 z" fill="#000000"/>
  </g>
</svg>
