<?xml version="1.0" encoding="UTF-8"?>
<!DOCTYPE svg PUBLIC "-//W3C//DTD SVG 1.1//EN" "http://www.w3.org/Graphics/SVG/1.1/DTD/svg11.dtd">
<svg version="1.1" xmlns="http://www.w3.org/2000/svg" xmlns:xlink="http://www.w3.org/1999/xlink" x="0" y="0" width="283.5" height="283.5" viewBox="0, 0, 283.5, 283.5">
  <g id="Background">
    <rect x="0" y="0" width="283.5" height="283.5" fill="#FFFFFF"/>
  </g>
  <g id="Layer_1">
    <path d="M141.75,9.25 C170.603,9.25 193.993,32.64 193.993,61.493 L193.993,107.125 L204.39,107.125 C223.358,107.125 238.736,122.502 238.735,141.47 L238.735,239.904 C238.736,258.873 223.358,274.25 204.39,274.25 L79.11,274.25 C60.142,274.25 44.765,258.873 44.764,239.904 L44.764,141.47 C44.765,122.502 60.142,107.125 79.11,107.125 L89.507,107.125 L89.507,61.493 C89.507,32.64 112.897,9.25 141.75,9.25 z M204.39,122.125 L79.11,122.125 C68.426,122.125 59.765,130.786 59.764,141.47 L59.764,239.904 C59.765,250.589 68.426,259.25 79.11,259.25 L204.39,259.25 C215.074,259.25 223.736,250.589 223.735,239.904 L223.735,141.47 C223.736,130.786 215.074,122.125 204.39,122.125 z M141.75,24.25 C121.181,24.25 104.507,40.924 104.507,61.493 L104.507,107.125 L178.993,107.125 L178.993,61.493 C178.993,40.924 162.319,24.25 141.75,24.25 z" fill="#000000"/>
  </g>
</svg>
