<?xml version="1.0" encoding="UTF-8"?>
<!DOCTYPE svg PUBLIC "-//W3C//DTD SVG 1.1//EN" "http://www.w3.org/Graphics/SVG/1.1/DTD/svg11.dtd">
<svg version="1.1" xmlns="http://www.w3.org/2000/svg" xmlns:xlink="http://www.w3.org/1999/xlink" x="0" y="0" width="283.5" height="283.5" viewBox="0, 0, 283.5, 283.5">
  <g id="Background">
    <rect x="0" y="0" width="283.5" height="283.5" fill="#FFFFFF"/>
  </g>
  <g id="Layer_1">
    <path d="M141.75,116.551 C145.892,116.551 149.25,119.909 149.25,124.051 L149.25,235.964 L171.117,214.131 C173.046,212.558 171.826,213.362 174.99,212.075 L176.063,212.008 C178.316,211.858 180.011,212.809 181.724,214.139 C184.651,217.071 184.647,221.82 181.716,224.746 L147.049,259.358 C144.121,262.282 139.379,262.282 136.451,259.359 L101.784,224.746 C98.853,221.82 98.849,217.071 101.776,214.139 C104.703,211.208 109.451,211.205 112.382,214.131 L134.25,235.965 L134.25,124.051 C134.25,119.909 137.608,116.551 141.75,116.551 z M141.75,21.218 C108.504,21.866 79.357,39.779 66.966,71.219 C33.046,76.512 4.751,93.735 4.25,131.418 C4.25,168.343 35.187,192.218 76.75,192.218 L107.083,192.218 C111.225,192.218 114.583,188.86 114.583,184.718 C114.583,180.576 111.225,177.218 107.083,177.218 L76.75,177.218 C42.747,177.218 19.25,159.085 19.25,131.418 C19.25,104.931 39.9,88.741 73.126,85.584 C76.112,85.301 78.643,83.265 79.558,80.408 C87.707,54.993 111.341,36.218 141.75,36.218 C178.929,36.218 208.031,62.839 212.291,103.598 C212.675,107.276 215.684,110.126 219.379,110.309 C231.193,110.894 242.395,113.882 250.462,119.008 C259.469,124.731 264.25,132.758 264.25,143.768 C264.25,165.904 247.305,177.218 217.583,177.218 L176.417,177.218 C172.275,177.218 168.917,180.576 168.917,184.718 C168.917,188.86 172.275,192.218 176.416,192.218 L217.583,192.218 C254.612,192.218 279.25,175.768 279.25,143.768 C279.25,127.417 271.69,114.725 258.507,106.347 C248.688,100.395 237.747,97.082 226.329,95.873 C218.033,52.077 187.505,21.874 141.75,21.218 z" fill="#000000"/>
  </g>
</svg>
