<?xml version="1.0" encoding="UTF-8"?>
<!DOCTYPE svg PUBLIC "-//W3C//DTD SVG 1.1//EN" "http://www.w3.org/Graphics/SVG/1.1/DTD/svg11.dtd">
<svg version="1.1" xmlns="http://www.w3.org/2000/svg" xmlns:xlink="http://www.w3.org/1999/xlink" x="0" y="0" width="283.5" height="283.5" viewBox="0, 0, 283.5, 283.5">
  <g id="Background">
    <rect x="0" y="0" width="283.5" height="283.5" fill="#FFFFFF"/>
  </g>
  <g id="Layer_1">
    <path d="M221.936,37.928 C225.211,38.901 223.917,38.22 225.99,39.598 C256.58,64.696 274.311,102.183 274.306,141.75 C274.306,214.902 214.959,274.25 141.806,274.25 C68.654,274.25 9.307,214.902 9.307,141.772 C9.189,102.338 26.643,64.9 56.924,39.637 C60.104,36.984 64.834,37.411 67.487,40.591 C70.141,43.772 69.714,48.501 66.533,51.155 C39.681,73.558 24.203,106.757 24.307,141.75 C24.307,206.618 76.938,259.25 141.806,259.25 C206.674,259.25 259.306,206.618 259.306,141.749 C259.31,106.673 243.593,73.443 216.476,51.194 C213.274,48.567 212.808,43.841 215.435,40.639 C217.579,38.205 218.936,38.224 221.936,37.928 z M141.806,9.25 C137.664,9.25 134.306,12.608 134.306,16.75 L134.306,141.75 C134.306,145.892 137.664,149.25 141.806,149.25 C145.949,149.25 149.306,145.892 149.306,141.75 L149.306,16.75 C149.306,12.608 145.949,9.25 141.806,9.25 z" fill="#000000"/>
  </g>
</svg>
