<?xml version="1.0" encoding="UTF-8"?>
<!DOCTYPE svg PUBLIC "-//W3C//DTD SVG 1.1//EN" "http://www.w3.org/Graphics/SVG/1.1/DTD/svg11.dtd">
<svg version="1.1" xmlns="http://www.w3.org/2000/svg" xmlns:xlink="http://www.w3.org/1999/xlink" x="0" y="0" width="283.5" height="283.5" viewBox="0, 0, 283.5, 283.5">
  <g id="Background">
    <rect x="0" y="0" width="283.5" height="283.5" fill="#FFFFFF"/>
  </g>
  <g id="Layer_1">
    <path d="M141.75,9.25 C214.903,9.25 274.25,68.597 274.25,141.75 C274.25,214.903 214.903,274.25 141.75,274.25 C68.597,274.25 9.25,214.903 9.25,141.75 C9.25,68.597 68.597,9.25 141.75,9.25 z M141.75,24.25 C76.882,24.25 24.25,76.882 24.25,141.75 C24.25,206.618 76.882,259.25 141.75,259.25 C206.618,259.25 259.25,206.618 259.25,141.75 C259.25,76.882 206.618,24.25 141.75,24.25 z M193.833,134.25 C197.975,134.25 201.333,137.608 201.333,141.75 C201.333,145.892 197.975,149.25 193.833,149.25 L89.666,149.25 C85.525,149.25 82.167,145.892 82.167,141.75 C82.167,137.608 85.525,134.25 89.667,134.25 L193.833,134.25 z" fill="#000000"/>
  </g>
</svg>
