<?xml version="1.0" encoding="UTF-8"?>
<!DOCTYPE svg PUBLIC "-//W3C//DTD SVG 1.1//EN" "http://www.w3.org/Graphics/SVG/1.1/DTD/svg11.dtd">
<svg version="1.1" xmlns="http://www.w3.org/2000/svg" xmlns:xlink="http://www.w3.org/1999/xlink" x="0" y="0" width="283.5" height="283.5" viewBox="0, 0, 283.5, 283.5">
  <g id="Background">
    <rect x="0" y="0" width="283.5" height="283.5" fill="#FFFFFF"/>
  </g>
  <g id="Layer_1">
    <path d="M190.727,86.083 C193.974,87.142 192.7,86.427 194.735,87.859 C197.867,90.57 198.208,95.306 195.497,98.438 L128.911,175.361 C126.081,178.63 121.08,178.836 117.992,175.81 L88.424,146.844 C85.466,143.945 85.417,139.197 88.316,136.238 C91.214,133.279 95.963,133.23 98.922,136.129 L122.791,159.513 L184.156,88.621 C186.458,86.191 187.631,86.306 190.727,86.083 z M141.75,24.829 C180.24,42.131 217.104,55.023 259.021,61.604 C260.554,91.649 256.029,122.067 245.19,150.143 C235.898,173.846 222.409,194.485 205.648,212.268 C192.348,226.38 177.656,238.008 162.539,247.329 C157.01,250.738 151.734,253.641 146.837,256.059 C143.585,257.633 145.279,256.837 141.75,258.437 C138.221,256.837 139.915,257.633 136.663,256.059 C131.766,253.641 126.49,250.738 120.961,247.329 C105.844,238.008 91.152,226.38 77.852,212.268 C61.091,194.485 47.602,173.846 38.31,150.143 C27.715,121.92 22.836,91.766 24.478,61.604 C41.837,58.347 59.15,54.875 76.138,49.983 C98.69,43.49 120.389,34.468 141.75,24.829 z M140.895,9.213 C140.002,9.267 139.503,9.476 138.663,9.771 C90.005,31.746 68.346,38.512 15.967,47.908 C12.567,48.518 10.023,51.371 9.806,54.818 C7.45,92.16 12.623,125.719 24.345,155.618 C34.365,181.177 48.906,203.427 66.937,222.557 C81.192,237.681 96.906,250.119 113.089,260.097 C119.029,263.759 124.714,266.888 130.021,269.509 C133.662,271.306 136.682,272.651 138.948,273.563 C140.746,274.287 142.754,274.287 144.552,273.563 C146.818,272.651 149.838,271.306 153.479,269.509 C158.786,266.888 164.471,263.759 170.411,260.097 C186.594,250.119 202.308,237.681 216.563,222.557 C234.594,203.427 249.135,181.177 259.155,155.618 C270.877,125.719 276.05,92.16 273.694,54.818 C273.477,51.371 270.933,48.518 267.533,47.908 C215.154,38.512 193.495,31.746 144.837,9.771 L143.32,9.273 C141.744,9.255 142.552,9.274 140.895,9.213 z" fill="#000000"/>
  </g>
</svg>
