<?xml version="1.0" encoding="UTF-8"?>
<!DOCTYPE svg PUBLIC "-//W3C//DTD SVG 1.1//EN" "http://www.w3.org/Graphics/SVG/1.1/DTD/svg11.dtd">
<svg version="1.1" xmlns="http://www.w3.org/2000/svg" xmlns:xlink="http://www.w3.org/1999/xlink" x="0" y="0" width="283.5" height="283.5" viewBox="0, 0, 283.5, 283.5">
  <g id="Background">
    <rect x="0" y="0" width="283.5" height="283.5" fill="#FFFFFF"/>
  </g>
  <g id="Layer_1">
    <path d="M145.259,9.23 C217.114,10.882 274.653,69.699 274.653,141.724 C274.653,215.038 215.382,274.358 142.143,274.22 C68.68,274.082 8.847,213.687 9.661,140.345 C9.992,108.225 21.988,77.321 43.414,53.39 C46.177,50.305 50.919,50.043 54.005,52.806 C57.091,55.569 57.353,60.31 54.59,63.396 C35.59,84.616 24.953,112.019 24.66,140.505 C23.939,205.503 77.034,259.098 142.171,259.22 C207.105,259.343 259.653,206.752 259.653,141.724 C259.435,81.258 210.913,27.394 149.657,24.455 L149.657,74.018 C149.657,78.16 146.299,81.518 142.157,81.518 C138.015,81.518 134.657,78.16 134.657,74.018 L134.657,19.594 C134.649,16.79 135.781,14.102 137.793,12.148 C139.805,10.194 142.524,9.142 145.259,9.23 z M127.431,156.457 C128.873,158.468 130.65,160.216 132.684,161.626 C142.257,168.126 155.276,165.73 161.908,156.248 C168.54,146.766 166.324,133.715 156.935,126.952 L83.369,75.522 C81.266,74.053 78.411,74.305 76.597,76.119 C74.783,77.933 74.531,80.788 76,82.891 L127.431,156.457 z" fill="#000000"/>
  </g>
</svg>
