<?xml version="1.0" encoding="UTF-8"?>
<!DOCTYPE svg PUBLIC "-//W3C//DTD SVG 1.1//EN" "http://www.w3.org/Graphics/SVG/1.1/DTD/svg11.dtd">
<svg version="1.1" xmlns="http://www.w3.org/2000/svg" xmlns:xlink="http://www.w3.org/1999/xlink" x="0" y="0" width="283.5" height="283.5" viewBox="0, 0, 283.5, 283.5">
  <g id="Background">
    <rect x="0" y="0" width="283.5" height="283.5" fill="#FFFFFF"/>
  </g>
  <g id="Layer_1">
    <path d="M141.619,58.42 C166.305,58.42 190.426,66.14 212.406,80.332 C232.629,93.389 250.488,111.617 264.138,132.699 C267.689,138.216 267.689,145.3 264.154,150.792 C235.359,195.883 190.011,225.08 141.619,225.08 C92.918,225.08 48.372,196.257 19.468,151.012 C15.811,145.352 15.922,138.048 19.773,132.467 C53.128,84.655 96.86,58.42 141.619,58.42 z M141.619,75.086 C102.717,75.086 63.865,98.394 33.466,141.967 C33.466,141.967 33.466,141.967 33.489,142.003 C59.564,182.819 99.122,208.414 141.619,208.414 C183.825,208.414 224.171,182.437 250.123,141.797 C250.139,141.773 250.139,141.742 250.136,141.737 C223.978,101.337 183.32,75.086 141.619,75.086 z M141.75,108.418 C160.159,108.418 175.082,123.341 175.082,141.75 C175.082,160.159 160.159,175.082 141.75,175.082 C123.341,175.082 108.418,160.159 108.418,141.75 C108.418,123.341 123.341,108.418 141.75,108.418 z M141.75,91.752 C114.137,91.752 91.752,114.137 91.752,141.75 C91.752,169.363 114.137,191.748 141.75,191.748 C169.363,191.748 191.748,169.363 191.748,141.75 C191.748,114.137 169.363,91.752 141.75,91.752 z" fill="#000000"/>
  </g>
</svg>
