<?xml version="1.0" encoding="UTF-8"?>
<!DOCTYPE svg PUBLIC "-//W3C//DTD SVG 1.1//EN" "http://www.w3.org/Graphics/SVG/1.1/DTD/svg11.dtd">
<svg version="1.1" xmlns="http://www.w3.org/2000/svg" xmlns:xlink="http://www.w3.org/1999/xlink" x="0" y="0" width="283.5" height="283.5" viewBox="0, 0, 283.5, 283.5">
  <g id="Background">
    <rect x="0" y="0" width="283.5" height="283.5" fill="#FFFFFF"/>
  </g>
  <g id="Layer_1">
    <path d="M141.75,-0.15 C220.092,-0.15 283.65,63.408 283.65,141.75 C283.65,220.092 220.092,283.65 141.75,283.65 C63.408,283.65 -0.15,220.092 -0.15,141.75 C-0.15,63.408 63.408,-0.15 141.75,-0.15 L141.75,-0.15 z M141.75,14.85 C71.692,14.85 14.85,71.692 14.85,141.75 C14.85,211.808 71.692,268.65 141.75,268.65 C211.808,268.65 268.65,211.808 268.65,141.75 C268.65,71.692 211.808,14.85 141.75,14.85 L141.75,14.85 z M141.75,192.087 C149.482,192.087 155.75,198.355 155.75,206.087 C155.75,213.819 149.482,220.087 141.75,220.087 C134.018,220.087 127.75,213.819 127.75,206.087 C127.75,198.355 134.018,192.087 141.75,192.087 z M141.635,67.085 C144.8,67.055 147.838,68.327 150.035,70.605 C152.233,72.882 153.397,75.964 153.253,79.137 L149.242,164.502 C148.794,174.032 134.707,174.033 134.258,164.503 L130.24,79.138 L130.24,79.125 C130.098,76.002 131.232,72.955 133.381,70.685 C135.531,68.414 138.511,67.115 141.635,67.085 z" fill="#000000"/>
  </g>
</svg>
