<?xml version="1.0" encoding="UTF-8"?>
<!DOCTYPE svg PUBLIC "-//W3C//DTD SVG 1.1//EN" "http://www.w3.org/Graphics/SVG/1.1/DTD/svg11.dtd">
<svg version="1.1" xmlns="http://www.w3.org/2000/svg" xmlns:xlink="http://www.w3.org/1999/xlink" x="0" y="0" width="283.5" height="283.5" viewBox="0, 0, 283.5, 283.5">
  <g id="Background">
    <rect x="0" y="0" width="283.5" height="283.5" fill="#FFFFFF"/>
  </g>
  <g id="Layer_1">
    <path d="M221.75,4.25 C225.892,4.25 229.25,7.608 229.25,11.75 L229.25,24.25 L241.75,24.25 C262.461,24.25 279.25,41.039 279.25,61.75 L279.25,241.75 C279.25,262.461 262.461,279.25 241.75,279.25 L41.75,279.25 C21.039,279.25 4.25,262.461 4.25,241.75 L4.25,61.75 C4.25,41.039 21.039,24.25 41.75,24.25 L54.25,24.25 L54.25,11.75 C54.25,7.608 57.608,4.25 61.75,4.25 C65.892,4.25 69.25,7.608 69.25,11.75 L69.25,24.25 L214.25,24.25 L214.25,11.75 C214.25,7.608 217.608,4.25 221.75,4.25 z M264.25,89.25 L19.25,89.25 L19.25,241.75 C19.25,254.176 29.324,264.25 41.75,264.25 L241.75,264.25 C254.176,264.25 264.25,254.176 264.25,241.75 L264.25,89.25 z M241.75,39.25 L41.75,39.25 C29.324,39.25 19.25,49.324 19.25,61.75 L19.25,74.25 L264.25,74.25 L264.25,61.75 C264.25,49.324 254.176,39.25 241.75,39.25 z" fill="#000000"/>
  </g>
</svg>
