<?xml version="1.0" encoding="UTF-8"?>
<!DOCTYPE svg PUBLIC "-//W3C//DTD SVG 1.1//EN" "http://www.w3.org/Graphics/SVG/1.1/DTD/svg11.dtd">
<svg version="1.1" xmlns="http://www.w3.org/2000/svg" xmlns:xlink="http://www.w3.org/1999/xlink" x="0" y="0" width="283.5" height="283.5" viewBox="0, 0, 283.5, 283.5">
  <g id="Background">
    <rect x="0" y="0" width="283.5" height="283.5" fill="#FFFFFF"/>
  </g>
  <g id="Layer_1">
    <path d="M214.565,43.899 C213.552,43.902 212.557,43.632 211.683,43.119 C187.644,30.249 166.861,24.789 141.944,24.789 C117.152,24.789 93.611,30.899 72.199,43.119 C69.171,44.831 65.439,43.639 63.684,40.497 C62.058,37.35 63.156,33.482 66.192,31.657 C89.285,18.56 115.395,11.712 141.944,11.789 C168.61,11.789 191.902,17.899 217.447,31.549 C220.547,33.254 221.714,37.125 220.074,40.259 C219.106,42.444 216.954,43.865 214.565,43.899 z M35.388,112.149 C34.087,112.14 32.82,111.731 31.758,110.979 C28.888,108.846 28.223,104.823 30.253,101.879 C42.651,83.679 58.419,69.379 77.21,59.369 C116.524,38.331 166.861,38.179 206.299,59.239 C225.084,69.249 240.857,83.419 253.256,101.489 C255.277,104.435 254.613,108.451 251.75,110.589 C250.399,111.598 248.691,112.004 247.03,111.708 C245.37,111.413 243.906,110.443 242.986,109.029 C231.72,92.649 217.447,79.779 200.541,70.809 C164.607,51.699 118.652,51.699 82.843,70.939 C65.813,80.039 51.54,93.039 40.273,109.397 C39.283,111.152 37.401,112.212 35.388,112.149 z M113.642,269.08 C111.968,269.096 110.369,268.385 109.26,267.13 C98.367,255.798 92.463,248.497 84.094,232.788 C75.428,216.799 70.948,197.299 70.948,176.369 C70.948,137.759 102.749,106.299 141.819,106.299 C180.89,106.299 212.713,137.759 212.713,176.369 C212.78,178.649 211.602,180.785 209.637,181.945 C207.673,183.104 205.234,183.104 203.27,181.945 C201.306,180.785 200.128,178.649 200.195,176.369 C200.195,144.909 174.021,119.299 141.847,119.299 C109.672,119.299 83.471,144.909 83.471,176.369 C83.471,195.089 87.474,212.379 95.112,226.419 C103.128,241.368 108.653,247.738 118.279,257.878 C120.643,260.492 120.643,264.473 118.279,267.087 C117.05,268.327 115.387,269.041 113.642,269.08 z M203.423,245.03 C188.522,245.03 175.376,241.13 164.607,233.46 C145.99,220.411 134.879,199.125 134.816,176.39 C134.72,174.091 135.892,171.924 137.869,170.746 C139.846,169.568 142.309,169.568 144.286,170.746 C146.263,171.924 147.435,174.091 147.339,176.39 C147.382,194.86 156.452,212.142 171.627,222.67 C180.516,228.91 190.911,231.878 203.434,231.878 C207.795,231.801 212.143,231.366 216.434,230.579 C219.814,229.928 223.069,232.268 223.692,235.908 C224.353,239.406 222.058,242.779 218.563,243.448 C213.575,244.434 208.507,244.956 203.423,245.008 z M178.252,271.788 C177.702,271.766 177.156,271.678 176.627,271.528 C156.715,265.808 143.694,258.138 130.044,244.228 C112.51,226.159 102.874,202.109 102.874,176.369 C102.874,155.309 120.153,138.149 141.435,138.149 C162.717,138.149 180.001,155.309 180.001,176.369 C180.001,190.279 191.647,201.589 206.045,201.589 C220.442,201.589 232.088,190.279 232.088,176.369 C232.088,127.359 191.393,87.579 141.31,87.579 C105.75,87.579 73.196,108.119 58.549,139.969 C53.674,150.499 51.161,162.849 51.161,176.369 C51.161,186.509 52.033,202.499 59.546,223.299 C60.803,226.679 59.172,230.449 55.917,231.618 C54.353,232.214 52.615,232.146 51.103,231.43 C49.591,230.715 48.436,229.413 47.905,227.827 C41.864,211.343 38.769,193.925 38.762,176.369 C38.762,160.769 41.644,146.577 47.277,134.249 C63.933,97.957 100.87,74.449 141.31,74.449 C198.283,74.449 244.611,120.079 244.611,176.239 C244.611,197.299 227.332,214.459 206.045,214.459 C184.757,214.459 167.478,197.299 167.478,176.239 C167.484,162.329 155.838,150.997 141.44,150.997 C127.043,150.997 115.397,162.307 115.397,176.217 C115.397,198.425 123.663,219.247 138.813,234.847 C150.73,247.067 162.105,253.805 179.758,258.897 C183.138,259.807 185.017,263.447 184.14,266.827 C183.577,269.653 181.132,271.712 178.252,271.788 z" fill="#000000"/>
  </g>
</svg>
