<?xml version="1.0" encoding="UTF-8"?>
<!DOCTYPE svg PUBLIC "-//W3C//DTD SVG 1.1//EN" "http://www.w3.org/Graphics/SVG/1.1/DTD/svg11.dtd">
<svg version="1.1" xmlns="http://www.w3.org/2000/svg" xmlns:xlink="http://www.w3.org/1999/xlink" x="0" y="0" width="283.5" height="283.5" viewBox="0, 0, 283.5, 283.5">
  <g id="Background">
    <rect x="0" y="0" width="283.5" height="283.5" fill="#FFFFFF"/>
  </g>
  <g id="Layer_1">
    <path d="M258.75,9.45 C272.944,9.45 284.45,20.956 284.45,35.15 L284.45,50.75 C284.248,63.127 275.732,73.39 263.65,75.854 L263.65,240.572 C263.595,259.039 248.639,273.995 230.15,274.05 L53.328,274.05 C34.861,273.995 19.905,259.039 19.85,240.55 L19.85,75.854 C7.238,73.493 -0.321,63.201 -0.95,50.75 L-0.95,35.15 C-0.95,20.956 10.556,9.45 24.75,9.45 L258.75,9.45 z M248.65,76.45 L34.85,76.45 L34.85,240.528 C34.881,250.745 43.155,259.02 53.35,259.05 L230.127,259.05 C240.345,259.02 248.62,250.745 248.65,240.55 L248.65,76.45 z M141.75,113.45 C145.892,113.45 149.25,116.808 149.25,120.95 L149.25,196.443 L178.047,167.647 C180.976,164.718 185.724,164.718 188.653,167.647 C191.582,170.576 191.582,175.325 188.653,178.253 L147.053,219.854 C144.124,222.782 139.376,222.782 136.447,219.854 L94.847,178.253 C91.918,175.325 91.918,170.576 94.847,167.647 C96.694,165.858 98.057,165.667 100.503,165.583 L101.582,165.587 C104.746,166.877 103.526,166.072 105.453,167.647 L134.25,196.444 L134.25,120.95 C134.25,116.808 137.608,113.45 141.75,113.45 z M258.75,24.45 L24.75,24.45 C18.841,24.45 14.05,29.241 14.05,35.15 L14.05,50.75 C14.05,56.66 18.841,61.45 24.75,61.45 L258.75,61.45 C264.66,61.45 269.45,56.66 269.45,50.75 L269.45,35.15 C269.45,29.241 264.66,24.45 258.75,24.45 z" fill="#000000"/>
  </g>
</svg>
