<?xml version="1.0" encoding="UTF-8"?>
<!DOCTYPE svg PUBLIC "-//W3C//DTD SVG 1.1//EN" "http://www.w3.org/Graphics/SVG/1.1/DTD/svg11.dtd">
<svg version="1.1" xmlns="http://www.w3.org/2000/svg" xmlns:xlink="http://www.w3.org/1999/xlink" x="0" y="0" width="283.5" height="283.5" viewBox="0, 0, 283.5, 283.5">
  <g id="Background">
    <rect x="0" y="0" width="283.5" height="283.5" fill="#FFFFFF"/>
  </g>
  <g id="Layer_1">
    <path d="M141.75,4.25 C217.663,4.25 279.25,65.837 279.25,141.75 C279.25,217.663 217.663,279.25 141.75,279.25 C65.837,279.25 4.25,217.663 4.25,141.75 C4.25,65.837 65.837,4.25 141.75,4.25 z M141.75,19.25 C74.121,19.25 19.25,74.121 19.25,141.75 C19.25,209.379 74.121,264.25 141.75,264.25 C209.379,264.25 264.25,209.379 264.25,141.75 C264.25,74.121 209.379,19.25 141.75,19.25 z M185.436,91.05 L186.516,91.054 C189.679,92.344 188.459,91.539 190.387,93.113 C193.316,96.042 193.316,100.791 190.387,103.72 L152.357,141.75 L190.387,179.78 C193.316,182.709 193.316,187.458 190.387,190.387 C187.458,193.316 182.709,193.316 179.78,190.387 L141.75,152.357 L103.72,190.387 C100.791,193.316 96.042,193.316 93.113,190.387 C90.184,187.458 90.184,182.709 93.113,179.78 L131.143,141.75 L93.113,103.72 C90.184,100.791 90.184,96.042 93.113,93.113 C94.961,91.325 96.324,91.133 98.77,91.05 L99.849,91.054 C103.012,92.343 101.792,91.539 103.72,93.113 L141.75,131.143 L179.78,93.113 C181.627,91.325 182.991,91.133 185.437,91.05 z" fill="#000000"/>
  </g>
</svg>
