<?xml version="1.0" encoding="UTF-8"?>
<!DOCTYPE svg PUBLIC "-//W3C//DTD SVG 1.1//EN" "http://www.w3.org/Graphics/SVG/1.1/DTD/svg11.dtd">
<svg version="1.1" xmlns="http://www.w3.org/2000/svg" xmlns:xlink="http://www.w3.org/1999/xlink" x="0" y="0" width="283.5" height="283.5" viewBox="0, 0, 283.5, 283.5">
  <g id="Background">
    <rect x="0" y="0" width="283.5" height="283.5" fill="#FFFFFF"/>
  </g>
  <g id="Layer_1">
    <path d="M242.712,38.096 C260.13,38.096 274.25,52.216 274.25,69.635 L274.25,213.865 C274.25,231.284 260.13,245.404 242.712,245.404 L40.788,245.404 C23.37,245.404 9.25,231.284 9.25,213.865 L9.25,69.635 C9.25,52.216 23.37,38.096 40.789,38.096 L242.712,38.096 z M242.712,53.096 L40.788,53.096 C31.655,53.096 24.25,60.501 24.25,69.635 L24.25,213.865 C24.25,222.999 31.655,230.404 40.789,230.404 L242.712,230.404 C251.846,230.404 259.25,222.999 259.25,213.865 L259.25,69.635 C259.25,60.501 251.846,53.096 242.712,53.096 z M55.72,76.574 C59.018,77.461 57.708,76.814 59.816,78.137 L141.75,141.864 L223.684,78.137 C225.792,76.814 224.482,77.461 227.78,76.574 C230.641,76.575 232.299,77.45 234.209,79.453 C236.752,82.723 236.163,87.435 232.893,89.978 L146.355,157.285 C143.646,159.392 139.854,159.392 137.146,157.285 L50.607,89.978 C47.338,87.435 46.749,82.723 49.291,79.453 C51.371,76.964 52.728,76.948 55.72,76.574 z" fill="#000000"/>
  </g>
</svg>
