<?xml version="1.0" encoding="UTF-8"?>
<!DOCTYPE svg PUBLIC "-//W3C//DTD SVG 1.1//EN" "http://www.w3.org/Graphics/SVG/1.1/DTD/svg11.dtd">
<svg version="1.1" xmlns="http://www.w3.org/2000/svg" xmlns:xlink="http://www.w3.org/1999/xlink" x="0" y="0" width="283.5" height="283.5" viewBox="0, 0, 283.5, 283.5">
  <g id="Background">
    <rect x="0" y="0" width="283.5" height="283.5" fill="#FFFFFF"/>
  </g>
  <g id="Layer_1">
    <path d="M218.63,-0.365 C237.949,-0.204 250.57,10.628 254.731,29.27 L273.953,101.356 L274.021,101.698 C274.078,101.833 274.051,101.748 274.073,101.959 C274.206,102.633 274.135,102.194 274.207,103.289 L274.206,161.003 C274.294,168.824 271.502,175.991 267.182,182.375 C271.376,182.616 273.813,185.925 274.207,189.827 L274.207,189.827 L274.207,189.827 L274.207,247.541 C274.148,267.578 257.92,283.807 237.86,283.865 L45.531,283.865 C25.494,283.807 9.265,267.578 9.207,247.519 L9.206,189.827 L9.206,189.827 C9.375,185.786 12.217,182.78 16.232,182.375 C11.594,176.121 9.423,168.7 9.206,160.981 L9.206,103.289 C9.278,102.193 9.207,102.633 9.341,101.957 C9.362,101.749 9.336,101.833 9.392,101.699 L9.46,101.356 L28.691,29.241 L28.572,29.757 C32.246,10.653 45.509,-0.365 64.784,-0.365 L218.63,-0.365 z M24.207,197.327 L24.207,247.497 C24.241,259.285 33.788,268.831 45.553,268.865 L237.839,268.866 C249.626,268.831 259.172,259.285 259.207,247.519 L259.207,197.327 L237.864,197.327 L237.86,197.327 L187.036,197.327 C182.768,220.296 164.544,234.251 141.707,235.788 C118.47,235.501 100.951,219.7 96.377,197.327 L24.207,197.327 z M111.789,197.327 C114.893,211.78 127.574,220.075 141.707,220.788 C155.673,220.26 168.297,211.33 171.42,197.327 L111.789,197.327 z M96.377,110.788 L24.206,110.788 L24.206,160.959 C24.436,173.016 33.802,181.7 45.551,182.327 L103.245,182.327 L103.246,182.327 L180.167,182.327 L180.168,182.327 L237.84,182.327 C249.898,182.097 258.58,172.729 259.207,160.981 L259.207,110.788 L187.036,110.788 C183.143,133.111 164.133,148.684 141.707,149.25 C118.47,148.963 100.951,133.161 96.377,110.788 z M218.63,14.635 L64.783,14.635 C52.719,14.635 45.621,20.531 43.302,32.59 C43.269,32.763 43.23,32.935 43.184,33.106 L26.469,95.788 L103.245,95.788 C105.042,95.97 104.29,95.744 105.551,96.275 C108.834,97.334 109.348,98.819 110.593,101.777 L110.745,103.288 C110.745,120.388 124.607,134.25 141.707,134.25 C159.552,133.701 171.78,120.863 172.668,103.289 L172.668,103.288 C172.668,99.146 176.026,95.789 180.168,95.789 L256.944,95.788 L240.229,33.106 C240.179,32.918 240.137,32.729 240.101,32.539 C237.86,20.436 230.636,14.635 218.63,14.635 L218.63,14.635 z" fill="#000000"/>
  </g>
</svg>
