<?xml version="1.0" encoding="UTF-8"?>
<!DOCTYPE svg PUBLIC "-//W3C//DTD SVG 1.1//EN" "http://www.w3.org/Graphics/SVG/1.1/DTD/svg11.dtd">
<svg version="1.1" xmlns="http://www.w3.org/2000/svg" xmlns:xlink="http://www.w3.org/1999/xlink" x="0" y="0" width="283.5" height="283.5" viewBox="0, 0, 283.5, 283.5">
  <g id="Background">
    <rect x="0" y="0" width="283.5" height="283.5" fill="#FFFFFF"/>
  </g>
  <g id="Layer_1">
    <path d="M50.345,213.155 C61.39,213.155 70.345,222.11 70.345,233.155 L70.345,263.5 C70.345,274.546 61.39,283.5 50.345,283.5 L20,283.5 C8.954,283.5 -0,274.546 -0,263.5 L-0,233.155 C-0,222.11 8.954,213.155 20,213.155 L50.345,213.155 z M50.345,228.155 L20,228.155 C17.239,228.155 15,230.394 15,233.155 L15,263.5 C15,266.261 17.239,268.5 20,268.5 L50.345,268.5 C53.106,268.5 55.345,266.261 55.345,263.5 L55.345,233.155 C55.345,230.394 53.106,228.155 50.345,228.155 z M263.5,228.155 C266.261,228.155 268.5,230.394 268.5,233.155 L268.5,263.5 C268.5,266.261 266.261,268.5 263.5,268.5 L233.155,268.5 C230.394,268.5 228.155,266.261 228.155,263.5 L228.155,233.155 C228.155,230.394 230.394,228.155 233.155,228.155 L263.5,228.155 z M263.5,213.155 L233.155,213.155 C222.11,213.155 213.155,222.11 213.155,233.155 L213.155,263.5 C213.155,274.546 222.11,283.5 233.155,283.5 L263.5,283.5 C274.546,283.5 283.5,274.546 283.5,263.5 L283.5,233.155 C283.5,222.11 274.546,213.155 263.5,213.155 z M156.922,228.155 C159.684,228.155 161.922,230.394 161.922,233.155 L161.922,263.5 C161.922,266.261 159.684,268.5 156.922,268.5 L126.578,268.5 C123.816,268.5 121.578,266.261 121.578,263.5 L121.578,233.155 C121.578,230.394 123.816,228.155 126.578,228.155 L156.922,228.155 z M156.922,213.155 L126.578,213.155 C115.532,213.155 106.578,222.11 106.578,233.155 L106.578,263.5 C106.578,274.546 115.532,283.5 126.578,283.5 L156.922,283.5 C167.968,283.5 176.922,274.546 176.922,263.5 L176.922,233.155 C176.922,222.11 167.968,213.155 156.922,213.155 z M156.922,121.578 C159.684,121.578 161.922,123.816 161.922,126.578 L161.922,156.922 C161.922,159.684 159.684,161.922 156.922,161.922 L126.578,161.922 C123.816,161.922 121.578,159.684 121.578,156.922 L121.578,126.578 C121.578,123.816 123.816,121.578 126.578,121.578 L156.922,121.578 z M156.922,106.578 L126.578,106.578 C115.532,106.578 106.578,115.532 106.578,126.578 L106.578,156.922 C106.578,167.968 115.532,176.922 126.578,176.922 L156.922,176.922 C167.968,176.922 176.922,167.968 176.922,156.922 L176.922,126.578 C176.922,115.532 167.968,106.578 156.922,106.578 z M263.5,121.578 C266.261,121.578 268.5,123.816 268.5,126.578 L268.5,156.922 C268.5,159.684 266.261,161.922 263.5,161.922 L233.155,161.922 C230.394,161.922 228.155,159.684 228.155,156.922 L228.155,126.578 C228.155,123.816 230.394,121.578 233.155,121.578 L263.5,121.578 z M263.5,106.578 L233.155,106.578 C222.11,106.578 213.155,115.532 213.155,126.578 L213.155,156.922 C213.155,167.968 222.11,176.922 233.155,176.922 L263.5,176.922 C274.546,176.922 283.5,167.968 283.5,156.922 L283.5,126.578 C283.5,115.532 274.546,106.578 263.5,106.578 z M50.345,121.578 C53.106,121.578 55.345,123.816 55.345,126.578 L55.345,156.922 C55.345,159.684 53.106,161.922 50.345,161.922 L20,161.922 C17.239,161.922 15,159.684 15,156.922 L15,126.578 C15,123.816 17.239,121.578 20,121.578 L50.345,121.578 z M50.345,106.578 L20,106.578 C8.954,106.578 -0,115.532 -0,126.578 L-0,156.922 C-0,167.968 8.954,176.922 20,176.922 L50.345,176.922 C61.39,176.922 70.345,167.968 70.345,156.922 L70.345,126.578 C70.345,115.532 61.39,106.578 50.345,106.578 z M263.5,15 C266.261,15 268.5,17.239 268.5,20 L268.5,50.345 C268.5,53.106 266.261,55.345 263.5,55.345 L233.155,55.345 C230.394,55.345 228.155,53.106 228.155,50.345 L228.155,20 C228.155,17.239 230.394,15 233.155,15 L263.5,15 z M263.5,-0 L233.155,-0 C222.11,-0 213.155,8.954 213.155,20 L213.155,50.345 C213.155,61.39 222.11,70.345 233.155,70.345 L263.5,70.345 C274.546,70.345 283.5,61.39 283.5,50.345 L283.5,20 C283.5,8.954 274.546,-0 263.5,-0 z M156.922,15 C159.684,15 161.922,17.239 161.922,20 L161.922,50.345 C161.922,53.106 159.684,55.345 156.922,55.345 L126.578,55.345 C123.816,55.345 121.578,53.106 121.578,50.345 L121.578,20 C121.578,17.239 123.816,15 126.578,15 L156.922,15 z M156.922,-0 L126.578,-0 C115.532,-0 106.578,8.954 106.578,20 L106.578,50.345 C106.578,61.39 115.532,70.345 126.578,70.345 L156.922,70.345 C167.968,70.345 176.922,61.39 176.922,50.345 L176.922,20 C176.922,8.954 167.968,-0 156.922,-0 z M50.345,15 C53.106,15 55.345,17.239 55.345,20 L55.345,50.345 C55.345,53.106 53.106,55.345 50.345,55.345 L20,55.345 C17.239,55.345 15,53.106 15,50.345 L15,20 C15,17.239 17.239,15 20,15 L50.345,15 z M50.345,-0 L20,-0 C8.954,-0 -0,8.954 -0,20 L-0,50.345 C-0,61.39 8.954,70.345 20,70.345 L50.345,70.345 C61.39,70.345 70.345,61.39 70.345,50.345 L70.345,20 C70.345,8.954 61.39,-0 50.345,-0 z" fill="#000000"/>
  </g>
</svg>
