<?xml version="1.0" encoding="UTF-8"?>
<!DOCTYPE svg PUBLIC "-//W3C//DTD SVG 1.1//EN" "http://www.w3.org/Graphics/SVG/1.1/DTD/svg11.dtd">
<svg version="1.1" xmlns="http://www.w3.org/2000/svg" xmlns:xlink="http://www.w3.org/1999/xlink" x="0" y="0" width="283.5" height="283.5" viewBox="0, 0, 283.5, 283.5">
  <g id="Background">
    <rect x="0" y="0" width="283.5" height="283.5" fill="#FFFFFF"/>
  </g>
  <g id="Layer_1">
    <path d="M141.75,4.25 C217.663,4.25 279.25,65.837 279.25,141.75 C279.25,217.663 217.663,279.25 141.75,279.25 C65.837,279.25 4.25,217.663 4.25,141.75 C4.25,65.837 65.837,4.25 141.75,4.25 z M141.75,19.25 C74.121,19.25 19.25,74.121 19.25,141.75 C19.25,209.379 74.121,264.25 141.75,264.25 C209.379,264.25 264.25,209.379 264.25,141.75 C264.25,74.121 209.379,19.25 141.75,19.25 z M181.667,178.807 C200.393,178.807 217.737,183.362 231.835,191.973 C236.499,194.828 238.825,197.839 239.78,200.663 L239.786,200.663 C210.916,248.396 152.054,268.671 99.912,248.842 C98.338,244.654 99.81,237.172 100.82,233.151 C105.093,216.066 115.694,201.895 131.469,192.178 C145.471,183.554 163.296,178.807 181.667,178.807 z M85.603,174.035 C95.814,174.035 104.047,175.267 111.258,177.568 C112.922,178.116 114.156,179.525 114.48,181.247 C114.804,182.968 114.166,184.729 112.815,185.844 C98.782,197.274 89.738,211.409 85.489,228.362 C84.461,232.3 83.825,236.33 83.59,240.393 L82.514,240.477 C61.941,228.352 45.616,210.167 35.772,188.41 C38.224,187.725 41.409,186.956 44.654,184.954 C56.09,177.911 71.288,174.035 85.603,174.035 z M85.597,89.888 C95.772,89.888 104.9,93.758 111.481,100.79 C118.061,107.821 121.397,117.508 120.645,127.833 C119.179,148.127 103.458,164.654 85.603,164.654 C67.719,164.654 51.992,148.121 50.549,127.797 C49.81,117.388 53.043,107.767 59.666,100.706 C66.288,93.644 75.423,89.888 85.597,89.888 z M181.667,73.692 C193.77,73.692 204.726,78.272 212.514,86.589 C220.303,94.906 224.215,106.421 223.332,118.746 C222.568,130.229 217.903,141.107 210.111,149.576 C202.214,157.995 192.118,162.635 181.667,162.635 C171.21,162.635 161.108,157.995 153.218,149.576 C145.413,141.11 140.746,130.224 139.996,118.734 C139.113,106.294 142.929,94.846 150.742,86.511 C158.554,78.175 169.474,73.692 181.667,73.692 z" fill="#000000"/>
  </g>
</svg>
