<?xml version="1.0" encoding="UTF-8"?>
<!DOCTYPE svg PUBLIC "-//W3C//DTD SVG 1.1//EN" "http://www.w3.org/Graphics/SVG/1.1/DTD/svg11.dtd">
<svg version="1.1" xmlns="http://www.w3.org/2000/svg" xmlns:xlink="http://www.w3.org/1999/xlink" x="0" y="0" width="283.5" height="283.5" viewBox="0, 0, 283.5, 283.5">
  <g id="Background">
    <rect x="0" y="0" width="283.5" height="283.5" fill="#FFFFFF"/>
  </g>
  <g id="Layer_1">
    <path d="M142.015,16.782 C152.233,17.12 160.413,22.566 165.755,31.09 L270.992,226.534 C275.54,234.981 275.313,245.198 270.394,253.434 C265.475,261.671 256.588,266.716 246.993,266.718 L36.506,266.718 C26.912,266.716 18.025,261.671 13.106,253.434 C8.187,245.198 7.96,234.981 12.508,226.534 L117.746,31.089 C122.732,22.129 130.066,18.076 139.983,16.809 L142.015,16.782 z M141.753,31.803 L140.163,31.854 C136.033,32.482 133.135,34.746 130.952,38.202 L25.715,233.645 C23.67,237.444 23.772,242.039 25.984,245.744 C28.197,249.448 32.193,251.717 36.508,251.718 L246.992,251.718 C251.307,251.717 255.303,249.448 257.516,245.744 C259.728,242.039 259.83,237.444 257.785,233.645 L152.549,38.203 C150.596,34.757 147.311,32.366 143.337,31.854 L141.753,31.803 z M141.75,204.259 C148.571,204.259 154.1,209.788 154.1,216.609 C154.1,223.43 148.571,228.96 141.75,228.96 C134.929,228.96 129.4,223.43 129.4,216.609 C129.4,209.788 134.929,204.259 141.75,204.259 z M141.64,93.134 C144.675,93.105 147.588,94.325 149.695,96.509 C151.802,98.693 152.918,101.647 152.78,104.691 L149.242,179.997 C148.794,189.527 134.707,189.528 134.258,179.997 L130.714,104.66 L130.71,104.583 C130.601,101.604 131.701,98.708 133.759,96.552 C135.817,94.396 138.659,93.163 141.64,93.134 z" fill="#000000"/>
  </g>
</svg>
