<?xml version="1.0" encoding="UTF-8"?>
<!DOCTYPE svg PUBLIC "-//W3C//DTD SVG 1.1//EN" "http://www.w3.org/Graphics/SVG/1.1/DTD/svg11.dtd">
<svg version="1.1" xmlns="http://www.w3.org/2000/svg" xmlns:xlink="http://www.w3.org/1999/xlink" x="0" y="0" width="283.5" height="283.5" viewBox="0, 0, 283.5, 283.5">
  <g id="Background">
    <rect x="0" y="0" width="283.5" height="283.5" fill="#FFFFFF"/>
  </g>
  <g id="Layer_1">
    <path d="M142.103,99.602 L143.182,99.607 C146.346,100.896 145.126,100.092 147.053,101.666 L181.72,136.333 C184.649,139.262 184.649,144.011 181.72,146.94 C178.791,149.868 174.042,149.868 171.113,146.94 L149.25,125.076 L149.25,245.864 C149.25,250.006 145.892,253.364 141.75,253.364 C137.608,253.364 134.25,250.006 134.25,245.864 L134.25,125.076 L112.386,146.939 C109.458,149.868 104.709,149.868 101.78,146.94 C98.851,144.011 98.851,139.262 101.78,136.333 L136.447,101.666 C138.294,99.878 139.657,99.686 142.103,99.603 L142.103,99.602 z M141.75,30.136 C108.48,30.785 79.344,48.714 66.951,80.174 C32.903,85.951 4.583,107.729 4.25,144.67 C4.25,182.194 36.217,209.803 76.75,209.803 L107.083,209.803 C111.225,209.803 114.583,206.445 114.583,202.303 C114.583,198.161 111.225,194.803 107.083,194.803 L76.75,194.803 C44.053,194.803 19.25,173.381 19.25,144.67 C19.25,117.148 41.533,97.504 73.126,94.503 C76.112,94.219 78.643,92.183 79.558,89.326 C87.707,63.912 111.341,45.136 141.75,45.136 C178.929,45.136 208.031,71.757 212.291,112.516 C212.675,116.195 215.684,119.044 219.379,119.227 C230.289,119.768 241.649,123.571 250.012,129.783 C259.197,136.606 264.25,145.762 264.25,157.02 C264.25,180.298 245.606,194.803 217.583,194.803 L176.417,194.803 C172.275,194.803 168.917,198.161 168.917,202.303 C168.917,206.445 172.275,209.803 176.416,209.803 L217.583,209.803 C253.183,209.803 279.25,189.522 279.25,157.02 C279.25,140.788 271.794,127.278 258.957,117.742 C249.229,110.833 238.217,106.48 226.348,104.895 C218.042,61.047 187.59,30.797 141.75,30.136 z" fill="#000000"/>
  </g>
</svg>
