<?xml version="1.0" encoding="UTF-8"?>
<!DOCTYPE svg PUBLIC "-//W3C//DTD SVG 1.1//EN" "http://www.w3.org/Graphics/SVG/1.1/DTD/svg11.dtd">
<svg version="1.1" xmlns="http://www.w3.org/2000/svg" xmlns:xlink="http://www.w3.org/1999/xlink" x="0" y="0" width="283.5" height="283.5" viewBox="0, 0, 283.5, 283.5">
  <g id="Background">
    <rect x="0" y="0" width="283.5" height="283.5" fill="#FFFFFF"/>
  </g>
  <g id="Layer_1">
    <path d="M141.75,9.25 C214.903,9.25 274.25,68.597 274.25,141.75 C274.25,214.903 214.903,274.25 141.75,274.25 C68.597,274.25 9.25,214.903 9.25,141.75 C9.25,68.597 68.597,9.25 141.75,9.25 z M141.75,24.25 C76.882,24.25 24.25,76.882 24.25,141.75 C24.25,206.618 76.882,259.25 141.75,259.25 C206.618,259.25 259.25,206.618 259.25,141.75 C259.25,76.882 206.618,24.25 141.75,24.25 z M143.182,64.726 C146.346,66.015 145.126,65.211 147.053,66.785 L173.095,92.827 C176.024,95.756 176.024,100.505 173.095,103.433 L147.053,129.475 C144.124,132.404 139.376,132.404 136.447,129.475 C133.518,126.546 133.518,121.798 136.447,118.868 L150.807,104.508 C147.79,104.353 144.769,104.34 141.75,104.328 C117.127,104.328 97.167,124.289 97.167,148.911 C97.167,173.534 117.127,193.495 141.75,193.495 C166.373,193.495 186.333,173.534 186.333,148.911 C186.333,144.769 189.691,141.411 193.833,141.411 C197.975,141.411 201.333,144.769 201.333,148.911 C201.333,181.818 174.657,208.495 141.75,208.495 C108.843,208.495 82.167,181.818 82.167,148.911 C82.167,116.004 108.843,89.328 141.75,89.328 C145.7,89.343 143.462,89.323 148.463,89.408 L136.447,77.392 C133.518,74.463 133.518,69.714 136.447,66.785 C138.294,64.997 139.657,64.805 142.103,64.722 L143.182,64.726 z" fill="#000000"/>
  </g>
</svg>
