<?xml version="1.0" encoding="UTF-8"?>
<!DOCTYPE svg PUBLIC "-//W3C//DTD SVG 1.1//EN" "http://www.w3.org/Graphics/SVG/1.1/DTD/svg11.dtd">
<svg version="1.1" xmlns="http://www.w3.org/2000/svg" xmlns:xlink="http://www.w3.org/1999/xlink" x="0" y="0" width="283.5" height="283.5" viewBox="0, 0, 283.5, 283.5">
  <g id="Background">
    <rect x="0" y="0" width="283.5" height="283.5" fill="#FFFFFF"/>
  </g>
  <g id="Layer_1">
    <path d="M267.805,42.223 C271.947,42.223 275.305,45.581 275.305,49.723 L275.305,116.389 L275.299,116.389 C275.38,120.424 273.663,123.958 271.025,126.901 L134.567,263.358 C131.638,266.287 126.89,266.287 123.961,263.358 C121.032,260.429 121.032,255.681 123.961,252.752 L260.305,116.407 L260.305,116.389 L260.305,49.723 C260.305,45.581 263.663,42.223 267.805,42.223 z M155.483,32.215 C155.471,32.226 155.479,32.223 155.487,32.223 L219.532,32.223 C221.51,32.22 223.408,33.006 224.805,34.407 C226.201,35.808 226.981,37.708 226.972,39.686 L226.972,103.785 C226.972,103.799 226.968,103.807 226.962,103.813 L99.019,231.709 C96.094,234.62 91.346,234.62 88.408,231.697 L27.484,170.773 C24.576,167.85 24.576,163.105 27.497,160.169 L155.483,32.215 L155.483,32.215 z M219.505,17.223 L155.493,17.223 C151.526,17.22 147.714,18.79 144.895,21.589 L16.878,149.575 C8.12,158.376 8.12,172.579 16.865,181.367 L77.815,242.317 C86.618,251.075 100.822,251.075 109.611,242.33 L237.586,114.402 C240.405,111.564 241.975,107.752 241.971,103.78 L241.972,39.723 C242.001,33.786 239.645,28.047 235.428,23.817 C231.21,19.586 225.479,17.213 219.505,17.223 z M192.805,83.056 C202.01,83.056 209.472,75.594 209.472,66.39 C209.472,57.185 202.01,49.723 192.805,49.723 C183.601,49.723 176.139,57.185 176.139,66.39 C176.139,75.594 183.601,83.056 192.805,83.056 z" fill="#000000"/>
  </g>
</svg>
