<?xml version="1.0" encoding="UTF-8"?>
<!DOCTYPE svg PUBLIC "-//W3C//DTD SVG 1.1//EN" "http://www.w3.org/Graphics/SVG/1.1/DTD/svg11.dtd">
<svg version="1.1" xmlns="http://www.w3.org/2000/svg" xmlns:xlink="http://www.w3.org/1999/xlink" x="0" y="0" width="283.5" height="283.5" viewBox="0, 0, 283.5, 283.5">
  <g id="Background">
    <rect x="0" y="0" width="283.5" height="283.5" fill="#FFFFFF"/>
  </g>
  <g id="Layer_1">
    <path d="M141.75,4.25 C217.663,4.25 279.25,65.837 279.25,141.75 C279.127,171.324 269.659,200.289 251.926,224.007 C246.571,231.169 246.484,231.228 243.083,234.629 C240.782,231.274 241.716,232.477 240.454,230.891 C241.672,232.511 240.764,231.287 243.083,234.629 C215.436,263.822 181.831,278.236 141.75,279.25 C107.652,279.106 74.595,266.449 49.308,243.521 C46.203,240.705 43.381,237.593 40.417,234.629 L40.417,234.629 C21.603,214.799 10.415,189.421 5.835,162.684 C4.355,152.957 4.463,150.174 4.25,141.75 C4.25,65.837 65.837,4.25 141.75,4.25 z M200.7,249.126 C182.506,258.888 162.17,262.879 141.75,264.25 C162.578,264.025 182.23,258.473 200.7,249.126 z M141.739,264.249 L141.75,264.25 L141.75,264.25 L141.739,264.249 z M46.178,226.897 C44.081,229.437 45.129,228.109 43.046,230.891 C44.105,229.572 45.135,228.23 46.178,226.897 z M49.987,222.781 C47.749,224.915 48.617,223.941 47.258,225.587 C48.157,224.641 49.076,223.715 49.987,222.781 z M141.75,19.25 C74.121,19.25 19.25,74.121 19.25,141.75 C19.317,168.15 27.868,193.834 43.594,215.033 C45.589,217.722 47.857,220.198 49.988,222.78 L49.988,222.78 L49.994,222.787 L49.988,222.78 C74.311,198.214 107.784,187.672 141.75,187 L141.75,187 C169.073,187.173 196.627,194.416 219.073,210.38 C226.204,215.452 227.315,216.903 233.512,222.78 L233.511,222.781 L233.512,222.78 L233.513,222.781 L233.512,222.78 C253.799,199.799 263.48,172.183 264.25,141.75 C264.25,74.121 209.379,19.25 141.75,19.25 z M141.753,73.692 C153.856,73.692 164.812,78.272 172.6,86.589 C180.389,94.906 184.301,106.421 183.418,118.746 C182.654,130.229 177.989,141.107 170.197,149.576 C162.3,157.995 152.204,162.635 141.753,162.635 C131.296,162.635 121.194,157.995 113.303,149.576 C105.499,141.11 100.832,130.224 100.082,118.734 C99.199,106.294 103.015,94.846 110.828,86.511 C118.64,78.175 129.559,73.692 141.753,73.692 z" fill="#000000"/>
  </g>
</svg>
