<?xml version="1.0" encoding="UTF-8"?>
<!DOCTYPE svg PUBLIC "-//W3C//DTD SVG 1.1//EN" "http://www.w3.org/Graphics/SVG/1.1/DTD/svg11.dtd">
<svg version="1.1" xmlns="http://www.w3.org/2000/svg" xmlns:xlink="http://www.w3.org/1999/xlink" x="0" y="0" width="283.5" height="283.5" viewBox="0, 0, 283.5, 283.5">
  <g id="Background">
    <rect x="0" y="0" width="283.5" height="283.5" fill="#FFFFFF"/>
  </g>
  <g id="Layer_1">
    <path d="M51.759,41.965 C53.47,42.293 54.756,43.028 56.037,44.129 L239.366,227.458 C241.748,229.842 242.46,233.424 241.171,236.537 C239.882,239.65 236.845,241.68 233.476,241.682 C231.265,241.686 229.145,240.806 227.585,239.239 L44.256,55.91 C41.143,52.633 41.209,47.473 44.404,44.278 C47.098,41.814 48.242,42.01 51.759,41.965 z M56.108,92.149 L55.766,92.341 C42.787,103.279 30.74,116.695 19.787,132.403 C15.933,137.935 15.802,145.246 19.454,150.913 C33.209,172.439 50.912,190.568 70.64,203.334 C92.853,217.724 116.759,225.016 141.634,225.016 C155.06,224.974 168.392,222.761 181.112,218.464 C181.453,218.348 181.71,218.064 181.792,217.713 C181.874,217.362 181.768,216.994 181.513,216.74 L170.274,205.5 C169.747,204.987 168.989,204.789 168.279,204.98 C159.575,207.221 150.622,208.353 141.634,208.349 C120.025,208.349 99.187,201.954 79.697,189.339 C61.953,177.881 45.979,161.47 33.501,141.944 L33.501,141.903 C43.886,127.023 55.261,114.44 67.479,104.294 C67.702,104.107 67.838,103.836 67.851,103.545 C67.865,103.254 67.757,102.97 67.552,102.763 L57.177,92.404 C56.648,92.041 56.984,92.188 56.108,92.149 z M141.634,58.352 C128.35,58.376 115.164,60.635 102.629,65.035 C102.29,65.153 102.035,65.438 101.956,65.788 C101.876,66.139 101.983,66.506 102.239,66.758 L113.462,77.982 C113.994,78.505 114.765,78.704 115.483,78.503 C124.009,76.197 132.802,75.025 141.634,75.019 C162.826,75.019 183.602,81.493 203.377,94.289 C221.455,105.956 237.616,122.351 250.126,141.684 C250.145,141.709 250.145,141.743 250.126,141.767 C241.045,156.064 229.776,168.846 216.731,179.647 C216.505,179.833 216.368,180.106 216.353,180.398 C216.338,180.69 216.447,180.975 216.653,181.183 L227.017,191.542 C227.398,191.926 228.008,191.956 228.424,191.61 C242.351,179.884 254.406,166.1 264.173,150.736 C267.698,145.207 267.678,138.13 264.121,132.622 C250.34,111.31 232.46,93.206 212.419,80.263 C190.247,65.93 165.769,58.352 141.634,58.352 z M94.065,129.74 L93.786,129.783 C93.418,129.892 93.14,130.194 93.062,130.57 C89.222,147.343 94.278,164.913 106.446,177.08 C118.613,189.248 136.183,194.304 152.956,190.464 C153.332,190.386 153.635,190.108 153.743,189.74 C153.852,189.372 153.75,188.974 153.477,188.704 L94.822,130.049 C94.453,129.765 94.689,129.9 94.065,129.74 z M141.811,91.685 C138.066,91.683 134.332,92.102 130.681,92.935 C130.305,93.013 130.003,93.291 129.894,93.659 C129.785,94.027 129.887,94.426 130.16,94.695 L188.799,153.319 C189.069,153.592 189.467,153.694 189.835,153.585 C190.203,153.477 190.482,153.174 190.56,152.798 C193.942,137.965 190.386,122.399 180.899,110.505 C171.411,98.612 157.025,91.685 141.811,91.685 z" fill="#000000"/>
  </g>
</svg>
