<?xml version="1.0" encoding="UTF-8"?>
<!DOCTYPE svg PUBLIC "-//W3C//DTD SVG 1.1//EN" "http://www.w3.org/Graphics/SVG/1.1/DTD/svg11.dtd">
<svg version="1.1" xmlns="http://www.w3.org/2000/svg" xmlns:xlink="http://www.w3.org/1999/xlink" x="0" y="0" width="283.5" height="283.5" viewBox="0, 0, 283.5, 283.5">
  <g id="Background">
    <rect x="0" y="0" width="283.5" height="283.5" fill="#FFFFFF"/>
  </g>
  <g id="Layer_1">
    <path d="M186.771,4.25 C210.204,4.317 229.183,23.296 229.25,46.729 L229.248,46.906 L229.095,54.25 L236.125,54.25 C259.942,54.25 279.25,73.558 279.25,97.375 L279.25,236.125 C279.25,259.942 259.942,279.25 236.125,279.25 L97.375,279.25 C73.558,279.25 54.25,259.942 54.25,236.125 L54.25,229.25 L46.729,229.25 C23.296,229.183 4.317,210.204 4.25,186.75 L4.25,51.728 C4.327,25.539 25.539,4.327 51.75,4.25 L186.771,4.25 z M236.125,69.25 L97.375,69.25 C81.842,69.25 69.25,81.842 69.25,97.375 L69.25,236.125 C69.25,251.658 81.842,264.25 97.375,264.25 L236.125,264.25 C251.658,264.25 264.25,251.658 264.25,236.125 L264.25,97.375 C264.25,81.842 251.658,69.25 236.125,69.25 z M186.75,19.25 L51.772,19.25 C33.833,19.303 19.303,33.833 19.25,51.75 L19.25,186.729 C19.293,201.91 31.59,214.207 46.75,214.25 L54.25,214.25 L54.25,97.375 C54.25,73.558 73.558,54.25 97.375,54.25 L214.092,54.25 L214.249,46.743 C213.715,30.927 202.324,20.078 186.75,19.25 z" fill="#000000"/>
  </g>
</svg>
