<?xml version="1.0" encoding="UTF-8"?>
<!DOCTYPE svg PUBLIC "-//W3C//DTD SVG 1.1//EN" "http://www.w3.org/Graphics/SVG/1.1/DTD/svg11.dtd">
<svg version="1.1" xmlns="http://www.w3.org/2000/svg" xmlns:xlink="http://www.w3.org/1999/xlink" x="0" y="0" width="283.5" height="283.5" viewBox="0, 0, 283.5, 283.5">
  <g id="Background">
    <rect x="0" y="0" width="283.5" height="283.5" fill="#FFFFFF"/>
  </g>
  <g id="Layer_1">
    <path d="M203.229,9.25 C210.319,9.249 217.118,12.064 222.132,17.077 L222.133,17.078 L266.424,61.369 C271.437,66.383 274.253,73.183 274.252,80.272 L274.251,238.996 C274.193,258.442 258.444,274.191 238.975,274.25 L44.53,274.25 C25.044,274.254 9.247,258.457 9.251,238.973 L9.251,44.528 C9.247,25.043 25.044,9.246 44.528,9.25 L203.229,9.25 z M203.23,24.25 L44.526,24.25 C33.328,24.248 24.249,33.326 24.251,44.526 L24.251,238.975 C24.249,250.174 33.328,259.252 44.528,259.25 L238.952,259.25 C250.149,259.216 259.218,250.148 259.252,238.973 L259.252,80.27 C259.252,77.159 258.016,74.175 255.817,71.975 L211.527,27.685 C209.327,25.485 206.342,24.249 203.23,24.25 z M141.752,153.481 C167.135,153.481 187.713,174.058 187.713,199.433 C187.728,211.63 182.89,223.332 174.265,231.956 C165.581,240.688 153.942,245.116 141.747,245.404 L141.752,245.404 L141.742,245.404 L141.747,245.404 C116.225,245.331 96.424,224.527 95.79,199.442 C95.79,174.058 116.368,153.481 141.752,153.481 z M141.752,168.481 C124.652,168.481 110.79,182.343 110.79,199.442 C110.79,216.542 124.652,230.404 141.752,230.404 L141.761,230.404 C149.973,230.414 157.852,227.156 163.659,221.35 C169.466,215.543 172.723,207.664 172.713,199.442 C172.713,182.343 158.851,168.481 141.752,168.481 z M170.598,38.096 C180.05,38.096 187.713,45.759 187.713,55.211 L187.713,93.673 C187.713,103.126 180.05,110.788 170.598,110.788 L55.213,110.788 C45.76,110.788 38.098,103.126 38.098,93.673 L38.098,55.211 C38.098,45.759 45.76,38.096 55.213,38.096 L170.598,38.096 z M170.598,53.096 L55.213,53.096 C54.045,53.096 53.098,54.043 53.098,55.211 L53.098,93.673 C53.098,94.841 54.045,95.788 55.213,95.788 L170.598,95.788 C171.766,95.788 172.713,94.841 172.713,93.673 L172.713,55.211 C172.713,54.043 171.766,53.096 170.598,53.096 z" fill="#000000"/>
  </g>
</svg>
