<?xml version="1.0" encoding="UTF-8"?>
<!DOCTYPE svg PUBLIC "-//W3C//DTD SVG 1.1//EN" "http://www.w3.org/Graphics/SVG/1.1/DTD/svg11.dtd">
<svg version="1.1" xmlns="http://www.w3.org/2000/svg" xmlns:xlink="http://www.w3.org/1999/xlink" x="0" y="0" width="283.5" height="283.5" viewBox="0, 0, 283.5, 283.5">
  <g id="Background">
    <rect x="0" y="0" width="283.5" height="283.5" fill="#FFFFFF"/>
  </g>
  <g id="Layer_1">
    <path d="M174.249,4.25 L174.25,4.25 L175.42,4.25 C181.258,4.258 186.852,6.596 190.977,10.763 L254.312,75.17 C258.392,79.301 260.68,84.875 260.678,90.679 L260.678,190.5 C260.678,208.737 246.274,223.536 228.251,223.536 L195.678,223.536 L195.678,246.214 C195.678,264.451 181.274,279.25 163.251,279.25 L55.276,279.25 C37.23,279.25 22.82,264.457 22.82,246.214 L22.821,92.956 C22.927,74.78 37.636,60.071 55.856,59.964 L87.82,59.964 L87.821,37.242 C87.927,19.065 102.636,4.357 120.856,4.25 L174.248,4.25 L174.249,4.25 z M55.9,74.964 C45.939,75.023 37.879,83.083 37.82,93 L37.82,246.214 C37.82,256.26 45.604,264.25 55.276,264.25 L163.251,264.25 C172.898,264.25 180.678,256.257 180.678,246.214 L180.678,153.893 L125.409,153.892 C112.407,153.737 101.905,143.235 101.749,130.143 L101.749,74.964 L55.9,74.964 z M120.9,19.25 C110.939,19.308 102.879,27.369 102.82,37.286 L102.82,59.964 L110.491,59.964 C116.32,59.973 121.903,62.322 125.977,66.477 L189.338,130.912 C193.468,135.109 195.39,140.53 195.67,146.322 L195.677,146.393 L195.675,146.418 L195.678,146.472 L195.678,208.536 L228.251,208.536 C237.898,208.536 245.678,200.542 245.678,190.5 L245.678,98.178 L190.41,98.178 C177.407,98.023 166.905,87.52 166.749,74.429 L166.749,19.25 L120.9,19.25 z M176.149,138.893 L116.749,78.486 L116.748,130.053 C116.806,134.911 120.731,138.836 125.499,138.893 L176.149,138.893 z M181.749,22.772 L181.748,74.339 C181.806,79.197 185.731,83.121 190.499,83.179 L241.149,83.179 L181.749,22.772 z" fill="#000000"/>
  </g>
</svg>
