<?xml version="1.0" encoding="UTF-8"?>
<!DOCTYPE svg PUBLIC "-//W3C//DTD SVG 1.1//EN" "http://www.w3.org/Graphics/SVG/1.1/DTD/svg11.dtd">
<svg version="1.1" xmlns="http://www.w3.org/2000/svg" xmlns:xlink="http://www.w3.org/1999/xlink" x="0" y="0" width="283.5" height="283.5" viewBox="0, 0, 283.5, 283.5">
  <g id="Background">
    <rect x="0" y="0" width="283.5" height="283.5" fill="#FFFFFF"/>
  </g>
  <g id="Layer_1">
    <path d="M245.75,113.45 C261.38,113.45 274.05,126.12 274.05,141.75 C274.05,157.38 261.38,170.05 245.75,170.05 C230.12,170.05 217.45,157.38 217.45,141.75 C217.45,126.12 230.12,113.45 245.75,113.45 z M245.75,128.45 C238.405,128.45 232.45,134.405 232.45,141.75 C232.45,149.095 238.405,155.05 245.75,155.05 C253.095,155.05 259.05,149.095 259.05,141.75 C259.05,134.405 253.095,128.45 245.75,128.45 z M37.75,128.45 C45.095,128.45 51.05,134.405 51.05,141.75 C51.05,149.095 45.095,155.05 37.75,155.05 C30.405,155.05 24.45,149.095 24.45,141.75 C24.45,134.405 30.405,128.45 37.75,128.45 z M37.75,113.45 C22.12,113.45 9.45,126.12 9.45,141.75 C9.45,157.38 22.12,170.05 37.75,170.05 C53.38,170.05 66.05,157.38 66.05,141.75 C66.05,126.12 53.38,113.45 37.75,113.45 z M141.75,128.45 C149.095,128.45 155.05,134.405 155.05,141.75 C155.05,149.095 149.095,155.05 141.75,155.05 C134.405,155.05 128.45,149.095 128.45,141.75 C128.45,134.405 134.405,128.45 141.75,128.45 z M141.75,113.45 C126.12,113.45 113.45,126.12 113.45,141.75 C113.45,157.38 126.12,170.05 141.75,170.05 C157.38,170.05 170.05,157.38 170.05,141.75 C170.05,126.12 157.38,113.45 141.75,113.45 z" fill="#000000"/>
  </g>
</svg>
