<?xml version="1.0" encoding="UTF-8"?>
<!DOCTYPE svg PUBLIC "-//W3C//DTD SVG 1.1//EN" "http://www.w3.org/Graphics/SVG/1.1/DTD/svg11.dtd">
<svg version="1.1" xmlns="http://www.w3.org/2000/svg" xmlns:xlink="http://www.w3.org/1999/xlink" x="0" y="0" width="283.5" height="283.5" viewBox="0, 0, 283.5, 283.5">
  <g id="Background">
    <rect x="0" y="0" width="283.5" height="283.5" fill="#FFFFFF"/>
  </g>
  <g id="Layer_1">
    <path d="M141.75,9.25 C214.903,9.25 274.25,68.597 274.25,141.75 C274.25,214.903 214.903,274.25 141.75,274.25 C68.597,274.25 9.25,214.903 9.25,141.75 C9.25,68.597 68.597,9.25 141.75,9.25 z M141.75,24.25 C76.882,24.25 24.25,76.882 24.25,141.75 C24.25,206.618 76.882,259.25 141.75,259.25 C206.618,259.25 259.25,206.618 259.25,141.75 C259.25,76.882 206.618,24.25 141.75,24.25 z M141.75,50.917 C145.892,50.917 149.25,54.275 149.25,58.417 L149.25,144.666 L204.25,144.666 C208.392,144.667 211.75,148.025 211.75,152.167 C211.75,156.309 208.392,159.667 204.25,159.667 L141.75,159.666 C137.608,159.667 134.25,156.309 134.25,152.167 L134.25,58.417 C134.25,54.275 137.608,50.917 141.75,50.917 z" fill="#000000"/>
  </g>
</svg>
