<?xml version="1.0" encoding="UTF-8"?>
<!DOCTYPE svg PUBLIC "-//W3C//DTD SVG 1.1//EN" "http://www.w3.org/Graphics/SVG/1.1/DTD/svg11.dtd">
<svg version="1.1" xmlns="http://www.w3.org/2000/svg" xmlns:xlink="http://www.w3.org/1999/xlink" x="0" y="0" width="283.5" height="283.5" viewBox="0, 0, 283.5, 283.5">
  <g id="Background">
    <rect x="0" y="0" width="283.5" height="283.5" fill="#FFFFFF"/>
  </g>
  <g id="Layer_1">
    <path d="M173.014,4.25 C184.095,4.423 193.008,12.078 195.199,22.821 L206.75,22.821 C226.277,22.821 242.107,38.651 242.107,58.179 L242.107,243.893 C242.107,263.42 226.277,279.25 206.75,279.25 L76.75,279.25 C57.223,279.25 41.393,263.42 41.393,243.893 L41.393,58.179 C41.393,38.651 57.223,22.821 76.75,22.821 L88.301,22.821 C90.19,11.767 99.647,4.797 110.486,4.25 L173.014,4.25 z M88.301,37.821 L76.75,37.821 C65.507,37.821 56.393,46.936 56.393,58.179 L56.393,243.893 C56.393,255.136 65.507,264.25 76.75,264.25 L206.75,264.25 C217.993,264.25 227.107,255.136 227.107,243.893 L227.107,58.179 C227.107,46.936 217.993,37.821 206.75,37.821 L195.199,37.821 C193.31,48.876 183.853,55.845 173.014,56.393 L110.486,56.393 C99.405,56.22 90.492,48.565 88.301,37.821 z M173.014,19.25 L110.486,19.25 C106.253,19.25 102.821,22.682 102.821,26.915 L102.821,33.728 C102.821,37.961 106.253,41.393 110.486,41.393 L173.014,41.393 C177.247,41.393 180.679,37.961 180.679,33.728 L180.679,26.915 C180.679,22.682 177.247,19.25 173.014,19.25 z" fill="#000000"/>
  </g>
</svg>
