<?xml version="1.0" encoding="UTF-8"?>
<!DOCTYPE svg PUBLIC "-//W3C//DTD SVG 1.1//EN" "http://www.w3.org/Graphics/SVG/1.1/DTD/svg11.dtd">
<svg version="1.1" xmlns="http://www.w3.org/2000/svg" xmlns:xlink="http://www.w3.org/1999/xlink" x="0" y="0" width="283.5" height="283.5" viewBox="0, 0, 283.5, 283.5">
  <g id="Background">
    <rect x="0" y="0" width="283.5" height="283.5" fill="#FFFFFF"/>
  </g>
  <g id="Layer_1">
    <path d="M221.75,4.25 C225.892,4.25 229.25,7.608 229.25,11.75 L229.25,24.25 L241.75,24.25 C262.461,24.25 279.25,41.039 279.25,61.75 L279.25,241.75 C279.25,262.461 262.461,279.25 241.75,279.25 L41.75,279.25 C21.039,279.25 4.25,262.461 4.25,241.75 L4.25,61.75 C4.25,41.039 21.039,24.25 41.75,24.25 L54.25,24.25 L54.25,11.75 C54.25,7.608 57.608,4.25 61.75,4.25 C65.892,4.25 69.25,7.608 69.25,11.75 L69.25,24.25 L214.25,24.25 L214.25,11.75 C214.25,7.608 217.608,4.25 221.75,4.25 z M264.25,89.25 L19.25,89.25 L19.25,241.75 C19.25,254.176 29.324,264.25 41.75,264.25 L241.75,264.25 C254.176,264.25 264.25,254.176 264.25,241.75 L264.25,89.25 z M101.644,114.25 C122.627,114.25 139.075,126.777 139.075,146.603 C139.17,155.009 135.867,163.097 129.984,168.966 C128.502,170.42 126.986,171.866 125.232,173 C128.119,174.618 130.618,176.785 132.99,179.065 C139.262,185.455 142.375,194.332 142.375,204.363 C142.375,225.542 125.022,239.25 102.3,239.25 C93.764,239.25 86.12,236.459 79.607,231.644 C74.807,228.095 70.898,223.619 68.416,219.411 C66.311,215.844 67.496,211.246 71.063,209.141 C74.631,207.036 79.229,208.221 81.334,211.788 C85.322,218.547 93.036,224.25 102.3,224.25 C117.41,224.25 127.375,216.378 127.375,204.363 C127.375,198.027 125.591,192.941 122.275,189.562 C116.809,184.303 109.252,181.136 101.67,180.894 L101.669,180.894 C97.527,180.894 94.169,177.536 94.169,173.394 C94.269,170.909 95.352,168.598 97.475,167.175 C98.281,166.635 99.263,166.422 100.157,166.046 L101.669,165.894 L101.67,165.894 C108.315,165.686 114.433,162.806 119.322,158.415 C122.411,155.334 124.125,151.135 124.075,146.688 C124.075,136.089 115.096,129.25 101.644,129.25 C93.16,129.25 87.057,132.98 84.443,137.4 C82.334,140.965 77.734,142.145 74.169,140.036 C70.604,137.928 69.423,133.328 71.532,129.763 C76.764,120.919 87.676,114.25 101.644,114.25 z M201.75,116.75 C205.892,116.75 209.25,120.108 209.25,124.25 L209.25,229.25 C209.25,233.392 205.892,236.75 201.75,236.75 C197.608,236.75 194.25,233.392 194.25,229.25 L194.25,136.984 L176.199,150.287 C172.865,152.745 168.17,152.034 165.713,148.699 C163.255,145.365 163.966,140.67 167.3,138.212 L194.438,118.213 C195.727,117.262 197.286,116.75 198.888,116.75 L201.75,116.75 z M241.75,39.25 L41.75,39.25 C29.324,39.25 19.25,49.324 19.25,61.75 L19.25,74.25 L264.25,74.25 L264.25,61.75 C264.25,49.324 254.176,39.25 241.75,39.25 z" fill="#000000"/>
  </g>
</svg>
