<?xml version="1.0" encoding="UTF-8"?>
<!DOCTYPE svg PUBLIC "-//W3C//DTD SVG 1.1//EN" "http://www.w3.org/Graphics/SVG/1.1/DTD/svg11.dtd">
<svg version="1.1" xmlns="http://www.w3.org/2000/svg" xmlns:xlink="http://www.w3.org/1999/xlink" x="0" y="0" width="283.5" height="283.5" viewBox="0, 0, 283.5, 283.5">
  <g id="Background">
    <rect x="0" y="0" width="283.5" height="283.5" fill="#FFFFFF"/>
  </g>
  <g id="Layer_1">
    <path d="M141.75,9.25 C170.548,9.25 193.893,32.595 193.893,61.393 C193.893,65.535 190.535,68.893 186.393,68.893 C182.251,68.893 178.893,65.535 178.893,61.393 C178.893,40.879 162.263,24.25 141.75,24.25 C121.237,24.25 104.607,40.879 104.607,61.393 L104.607,107.464 L204.25,107.464 C223.186,107.464 238.536,122.815 238.536,141.75 L238.536,239.964 C238.536,258.9 223.186,274.25 204.25,274.25 L79.25,274.25 C60.315,274.25 44.964,258.9 44.964,239.964 L44.964,141.75 C44.964,122.815 60.315,107.464 79.25,107.464 L89.607,107.464 L89.607,61.393 C89.607,32.595 112.952,9.25 141.75,9.25 z M204.25,122.464 L79.25,122.464 C68.599,122.464 59.964,131.099 59.964,141.75 L59.964,239.964 C59.964,250.616 68.599,259.25 79.25,259.25 L204.25,259.25 C214.901,259.25 223.536,250.616 223.536,239.964 L223.536,141.75 C223.536,131.099 214.901,122.464 204.25,122.464 z" fill="#000000"/>
  </g>
</svg>
