<?xml version="1.0" encoding="UTF-8"?>
<!DOCTYPE svg PUBLIC "-//W3C//DTD SVG 1.1//EN" "http://www.w3.org/Graphics/SVG/1.1/DTD/svg11.dtd">
<svg version="1.1" xmlns="http://www.w3.org/2000/svg" xmlns:xlink="http://www.w3.org/1999/xlink" x="0" y="0" width="283.5" height="283.5" viewBox="0, 0, 283.5, 283.5">
  <g id="Background">
    <rect x="0" y="0" width="283.5" height="283.5" fill="#FFFFFF"/>
  </g>
  <g id="Layer_1">
    <path d="M141.75,-0.15 C220.092,-0.15 283.65,63.408 283.65,141.75 C283.65,220.092 220.092,283.65 141.75,283.65 C63.408,283.65 -0.15,220.092 -0.15,141.75 C-0.15,63.408 63.408,-0.15 141.75,-0.15 z M141.75,14.85 C71.692,14.85 14.85,71.692 14.85,141.75 C14.85,211.808 71.692,268.65 141.75,268.65 C211.808,268.65 268.65,211.808 268.65,141.75 C268.65,71.692 211.808,14.85 141.75,14.85 z M141.75,78.25 C145.892,78.25 149.25,81.608 149.25,85.75 L149.25,134.25 L197.75,134.25 C201.892,134.25 205.25,137.608 205.25,141.75 C205.25,145.892 201.892,149.25 197.75,149.25 L149.25,149.25 L149.25,197.75 C149.25,201.892 145.892,205.25 141.75,205.25 C137.608,205.25 134.25,201.892 134.25,197.75 L134.25,149.25 L85.75,149.25 C81.608,149.25 78.25,145.892 78.25,141.75 C78.25,137.608 81.608,134.25 85.75,134.25 L134.25,134.25 L134.25,85.75 C134.25,81.608 137.608,78.25 141.75,78.25 z" fill="#000000"/>
  </g>
</svg>
