<?xml version="1.0" encoding="UTF-8"?>
<!DOCTYPE svg PUBLIC "-//W3C//DTD SVG 1.1//EN" "http://www.w3.org/Graphics/SVG/1.1/DTD/svg11.dtd">
<svg version="1.1" xmlns="http://www.w3.org/2000/svg" xmlns:xlink="http://www.w3.org/1999/xlink" x="0" y="0" width="283.5" height="283.5" viewBox="0, 0, 283.5, 283.5">
  <g id="Background">
    <rect x="0" y="0" width="283.5" height="283.5" fill="#FFFFFF"/>
  </g>
  <g id="Layer_1">
    <path d="M214.903,61.15 L215.982,61.155 C219.146,62.444 217.926,61.639 219.853,63.214 C222.782,66.143 222.782,70.892 219.853,73.821 L152.357,141.317 L219.853,208.814 C222.782,211.743 222.782,216.492 219.853,219.421 C216.924,222.35 212.176,222.35 209.247,219.421 L141.75,151.924 L74.253,219.421 C71.324,222.35 66.576,222.35 63.647,219.421 C60.718,216.492 60.718,211.743 63.647,208.814 L131.143,141.317 L63.647,73.821 C60.718,70.892 60.718,66.143 63.647,63.214 C65.494,61.426 66.857,61.234 69.303,61.15 L70.382,61.155 C73.546,62.444 72.326,61.639 74.253,63.214 L141.75,130.711 L209.247,63.214 C211.094,61.426 212.457,61.234 214.903,61.15 z" fill="#000000"/>
  </g>
</svg>
