<?xml version="1.0" encoding="UTF-8"?>
<!DOCTYPE svg PUBLIC "-//W3C//DTD SVG 1.1//EN" "http://www.w3.org/Graphics/SVG/1.1/DTD/svg11.dtd">
<svg version="1.1" xmlns="http://www.w3.org/2000/svg" xmlns:xlink="http://www.w3.org/1999/xlink" x="0" y="0" width="283.5" height="283.5" viewBox="0, 0, 283.5, 283.5">
  <g id="Background">
    <rect x="0" y="0" width="283.5" height="283.5" fill="#FFFFFF"/>
  </g>
  <g id="Layer_1">
    <path d="M245.784,186.327 C248.814,186.338 251.445,187.695 253.461,189.898 L253.467,189.893 C254.276,190.84 258.54,195.606 259.222,196.379 C262.239,199.799 264.798,202.843 267.273,206.02 C275.408,216.462 280.98,226.277 283.309,236 C284.059,239.135 284.451,242.219 284.451,245.246 C284.451,266.856 267.13,284.524 245.751,284.524 C224.351,284.524 207.051,266.906 207.051,245.246 C207.051,242.215 207.446,239.129 208.201,235.991 C210.535,226.301 216.1,216.527 224.237,206.099 C226.721,202.916 229.278,199.878 232.335,196.412 C232.557,196.16 237.229,190.923 238.078,189.92 L238.082,189.924 C240.031,187.563 242.798,186.494 245.784,186.327 z M245.791,203.852 C245.058,204.681 244.321,205.506 243.585,206.333 C240.711,209.593 238.335,212.414 236.063,215.327 C229.126,224.216 224.516,232.313 222.784,239.503 C222.296,241.531 222.051,243.446 222.051,245.246 C222.051,258.682 232.697,269.524 245.751,269.524 C258.778,269.524 269.451,258.638 269.451,245.246 C269.451,243.443 269.207,241.524 268.721,239.494 C266.992,232.273 262.375,224.14 255.44,215.239 C253.177,212.334 250.804,209.511 247.972,206.301 C247.247,205.483 246.518,204.669 245.792,203.852 z M59.923,13.976 C64.149,13.976 68.202,15.659 71.185,18.652 L100.382,47.616 L74.356,73.605 L45.303,44.552 C42.301,41.56 40.618,37.507 40.618,33.281 C40.618,29.054 42.301,25.002 45.294,22.018 L48.651,18.662 C51.644,15.659 55.696,13.976 59.923,13.976 z M111.035,58.184 L216.408,162.715 C210.38,163.231 204.224,164.799 199.777,169.151 C196.841,172.088 180.324,188.122 152.687,214.89 C152.646,214.93 152.646,214.93 152.604,214.97 C146.884,220.51 140.98,226.227 133.617,233.356 C133.407,233.559 120.536,246.019 117.509,248.951 C113.366,252.958 106.793,252.975 102.627,248.987 L17.356,167.095 C15.3,165.111 14.122,162.365 14.1,159.489 C14.079,156.613 15.216,153.85 17.254,151.822 L74.348,94.81 L74.379,94.841 L111.035,58.184 z M59.923,-1.024 C51.709,-1.024 43.833,2.246 38.035,8.064 L34.697,11.402 C28.888,17.191 25.618,25.067 25.618,33.281 C25.618,41.495 28.888,49.37 34.706,55.168 L63.742,84.204 L6.666,141.197 C1.779,146.057 -0.951,152.694 -0.899,159.601 C-0.848,166.509 1.982,173.104 6.952,177.901 L92.246,259.814 C102.242,269.384 118.002,269.344 127.94,259.73 C130.97,256.796 143.84,244.336 144.051,244.132 C151.414,237.003 157.319,231.286 163.04,225.745 C163.081,225.704 163.081,225.704 163.123,225.664 C190.94,198.722 207.355,182.786 210.384,179.758 C211.758,178.383 216.867,177.339 223.736,177.339 L223.931,177.339 C228.701,177.343 233.004,174.454 234.809,170.032 C236.613,165.609 235.559,160.534 232.143,157.195 L232.183,157.235 L81.78,8.034 C76.012,2.246 68.137,-1.024 59.923,-1.024 z" fill="#000000"/>
  </g>
</svg>
