<?xml version="1.0" encoding="UTF-8"?>
<!DOCTYPE svg PUBLIC "-//W3C//DTD SVG 1.1//EN" "http://www.w3.org/Graphics/SVG/1.1/DTD/svg11.dtd">
<svg version="1.1" xmlns="http://www.w3.org/2000/svg" xmlns:xlink="http://www.w3.org/1999/xlink" x="0" y="0" width="283.5" height="283.5" viewBox="0, 0, 283.5, 283.5">
  <g id="Background">
    <rect x="0" y="0" width="283.5" height="283.5" fill="#FFFFFF"/>
  </g>
  <g id="Layer_1">
    <path d="M141.75,4.25 C217.663,4.25 279.25,65.837 279.25,141.75 C279.25,217.663 217.663,279.25 141.75,279.25 C65.837,279.25 4.25,217.663 4.25,141.75 C4.25,65.837 65.837,4.25 141.75,4.25 z M141.75,19.25 C74.121,19.25 19.25,74.121 19.25,141.75 C19.25,209.379 74.121,264.25 141.75,264.25 C209.379,264.25 264.25,209.379 264.25,141.75 C264.25,74.121 209.379,19.25 141.75,19.25 z M207.539,80.124 C210.802,81.135 209.517,80.439 211.574,81.841 C214.746,84.505 215.157,89.236 212.493,92.407 L121.493,200.741 C118.562,204.229 113.223,204.321 110.175,200.934 L71.175,157.601 C68.404,154.522 68.654,149.78 71.733,147.009 C74.812,144.238 79.554,144.487 82.325,147.566 L115.555,184.488 L201.007,82.759 C203.179,80.351 204.536,80.385 207.539,80.124 z" fill="#000000"/>
  </g>
</svg>
