<?xml version="1.0" encoding="UTF-8"?>
<!DOCTYPE svg PUBLIC "-//W3C//DTD SVG 1.1//EN" "http://www.w3.org/Graphics/SVG/1.1/DTD/svg11.dtd">
<svg version="1.1" xmlns="http://www.w3.org/2000/svg" xmlns:xlink="http://www.w3.org/1999/xlink" x="0" y="0" width="283.5" height="283.5" viewBox="0, 0, 283.5, 283.5">
  <g id="Background">
    <rect x="0" y="0" width="283.5" height="283.5" fill="#FFFFFF"/>
  </g>
  <g id="Layer_1">
    <path d="M237.904,28.481 C257.977,28.481 274.25,44.754 274.25,64.827 L274.25,218.673 C274.25,238.747 257.977,255.019 237.904,255.019 L45.596,255.019 C25.523,255.019 9.25,238.747 9.25,218.673 L9.25,64.827 C9.25,44.754 25.523,28.481 45.596,28.481 L237.904,28.481 z M101.78,137.211 C99.092,137.38 96.799,138.481 94.732,140.143 L24.25,202.81 L24.25,218.673 C24.25,230.462 33.807,240.019 45.596,240.019 L119.413,240.019 L164.86,194.572 L110.81,140.624 C107.997,137.931 105.545,137.323 101.78,137.211 z M211.833,175.357 C207.984,175.005 204.775,176.122 201.945,178.7 L140.626,240.019 L237.904,240.019 C249.693,240.019 259.25,230.462 259.25,218.673 L259.25,212.569 L217.754,177.961 C216.034,176.402 214.017,175.966 211.833,175.357 z M237.904,43.481 L45.596,43.481 C33.807,43.481 24.25,53.038 24.25,64.827 L24.25,182.738 L84.77,128.93 C87.985,126.116 91.788,124.062 95.941,123.006 C97.542,122.599 99.205,122.496 100.836,122.241 C108.998,121.954 115.417,124.574 121.411,130.011 L175.467,183.965 L191.333,168.099 C195.499,164.014 200.8,161.3 206.603,160.501 C208.202,160.281 209.827,160.352 211.439,160.277 C217.438,160.54 222.629,162.872 227.353,166.435 L259.25,193.037 L259.25,64.827 C259.25,53.038 249.693,43.481 237.904,43.481 z M189.827,66.942 C204.59,66.942 216.558,78.91 216.558,93.673 C216.558,108.436 204.59,120.404 189.827,120.404 C175.064,120.404 163.096,108.436 163.096,93.673 C163.096,78.91 175.064,66.942 189.827,66.942 z M189.827,81.942 C183.348,81.942 178.096,87.194 178.096,93.673 C178.096,100.152 183.348,105.404 189.827,105.404 C196.306,105.404 201.558,100.152 201.558,93.673 C201.558,87.194 196.306,81.942 189.827,81.942 z" fill="#000000"/>
  </g>
</svg>
