<?xml version="1.0" encoding="UTF-8"?>
<!DOCTYPE svg PUBLIC "-//W3C//DTD SVG 1.1//EN" "http://www.w3.org/Graphics/SVG/1.1/DTD/svg11.dtd">
<svg version="1.1" xmlns="http://www.w3.org/2000/svg" xmlns:xlink="http://www.w3.org/1999/xlink" x="0" y="0" width="283.5" height="283.5" viewBox="0, 0, 283.5, 283.5">
  <g id="Background">
    <rect x="0" y="0" width="283.5" height="283.5" fill="#FFFFFF"/>
  </g>
  <g id="Layer_1">
    <path d="M141.75,9.45 C214.792,9.45 274.05,68.708 274.05,141.75 C274.05,214.792 214.792,274.05 141.75,274.05 C68.708,274.05 9.45,214.792 9.45,141.75 C9.45,68.708 68.708,9.45 141.75,9.45 z M141.75,24.45 C76.992,24.45 24.45,76.992 24.45,141.75 C24.45,206.508 76.992,259.05 141.75,259.05 C206.508,259.05 259.05,206.508 259.05,141.75 C259.05,76.992 206.508,24.45 141.75,24.45 z M162.55,186.25 C166.692,186.25 170.05,189.608 170.05,193.75 C170.05,197.892 166.692,201.25 162.55,201.25 L120.95,201.25 C116.808,201.25 113.45,197.892 113.45,193.75 C113.45,189.608 116.808,186.25 120.95,186.25 L162.55,186.25 z M193.75,144.65 C197.892,144.65 201.25,148.008 201.25,152.15 C201.25,156.292 197.892,159.65 193.75,159.65 L89.75,159.65 C85.608,159.65 82.25,156.292 82.25,152.15 C82.25,148.008 85.608,144.65 89.75,144.65 L193.75,144.65 z M214.55,103.05 C218.692,103.05 222.05,106.408 222.05,110.55 C222.05,114.692 218.692,118.05 214.55,118.05 L68.95,118.05 C64.808,118.05 61.45,114.692 61.45,110.55 C61.45,106.408 64.808,103.05 68.95,103.05 L214.55,103.05 z" fill="#000000"/>
  </g>
</svg>
