<?xml version="1.0" encoding="UTF-8"?>
<!DOCTYPE svg PUBLIC "-//W3C//DTD SVG 1.1//EN" "http://www.w3.org/Graphics/SVG/1.1/DTD/svg11.dtd">
<svg version="1.1" xmlns="http://www.w3.org/2000/svg" xmlns:xlink="http://www.w3.org/1999/xlink" x="0" y="0" width="283.5" height="283.5" viewBox="0, 0, 283.5, 283.5">
  <g id="Background">
    <rect x="0" y="0" width="283.5" height="283.5" fill="#FFFFFF"/>
  </g>
  <g id="Layer_1">
    <path d="M27.167,196.75 C37.062,196.75 45.083,204.772 45.083,214.667 C45.083,224.562 37.062,232.583 27.167,232.583 C17.272,232.583 9.25,224.562 9.25,214.667 C9.25,204.772 17.272,196.75 27.167,196.75 L27.167,196.75 z M27.167,211.75 C25.556,211.75 24.25,213.056 24.25,214.667 C24.25,216.278 25.556,217.583 27.167,217.583 C28.777,217.583 30.083,216.278 30.083,214.667 C30.083,213.056 28.777,211.75 27.167,211.75 L27.167,211.75 z M266.75,207.167 L79.25,207.167 C75.108,207.167 71.75,210.525 71.75,214.667 C71.75,218.809 75.108,222.167 79.25,222.167 L266.75,222.167 C270.892,222.167 274.25,218.809 274.25,214.667 C274.25,210.525 270.892,207.167 266.75,207.167 z M27.167,138.833 L27.167,138.833 C28.777,138.833 30.083,140.139 30.083,141.75 C30.083,143.361 28.777,144.667 27.167,144.667 C25.556,144.667 24.25,143.361 24.25,141.75 C24.25,140.139 25.556,138.833 27.167,138.833 z M27.167,123.833 L27.167,123.833 C17.272,123.833 9.25,131.855 9.25,141.75 C9.25,151.645 17.272,159.667 27.167,159.667 C37.062,159.667 45.083,151.645 45.083,141.75 C45.083,131.855 37.062,123.833 27.167,123.833 z M266.75,134.25 L79.25,134.25 C75.108,134.25 71.75,137.608 71.75,141.75 C71.75,145.892 75.108,149.25 79.25,149.25 L266.75,149.25 C270.892,149.25 274.25,145.892 274.25,141.75 C274.25,137.608 270.892,134.25 266.75,134.25 z M27.167,65.917 C28.777,65.917 30.083,67.223 30.083,68.833 C30.083,70.444 28.777,71.75 27.167,71.75 C25.556,71.75 24.25,70.444 24.25,68.833 C24.25,67.223 25.556,65.917 27.167,65.917 z M27.167,50.917 C17.272,50.917 9.25,58.938 9.25,68.833 C9.25,78.728 17.272,86.75 27.167,86.75 C37.062,86.75 45.083,78.728 45.083,68.833 C45.083,58.938 37.062,50.917 27.167,50.917 z M266.75,61.333 L79.25,61.333 C75.108,61.333 71.75,64.691 71.75,68.833 C71.75,72.975 75.108,76.333 79.25,76.333 L266.75,76.333 C270.892,76.333 274.25,72.975 274.25,68.833 C274.25,64.691 270.892,61.333 266.75,61.333 z" fill="#000000"/>
  </g>
</svg>
