<?xml version="1.0" encoding="UTF-8"?>
<!DOCTYPE svg PUBLIC "-//W3C//DTD SVG 1.1//EN" "http://www.w3.org/Graphics/SVG/1.1/DTD/svg11.dtd">
<svg version="1.1" xmlns="http://www.w3.org/2000/svg" xmlns:xlink="http://www.w3.org/1999/xlink" x="0" y="0" width="283.5" height="283.5" viewBox="0, 0, 283.5, 283.5">
  <g id="Background">
    <rect x="0" y="0" width="283.5" height="283.5" fill="#FFFFFF"/>
  </g>
  <g id="Layer_1">
    <path d="M211.75,4.25 C226.938,4.25 239.25,16.562 239.25,31.75 L239.25,251.75 C239.25,266.938 226.938,279.25 211.75,279.25 L71.75,279.25 C56.562,279.25 44.25,266.938 44.25,251.75 L44.25,31.75 C44.25,16.562 56.562,4.25 71.75,4.25 L211.75,4.25 z M211.75,19.25 L71.75,19.25 C64.846,19.25 59.25,24.846 59.25,31.75 L59.25,251.75 C59.25,258.654 64.846,264.25 71.75,264.25 L211.75,264.25 C218.654,264.25 224.25,258.654 224.25,251.75 L224.25,31.75 C224.25,24.846 218.654,19.25 211.75,19.25 z M143.365,205.25 L145.512,205.358 C156.47,206.951 163.81,215.261 164.365,226.25 C164.365,237.848 154.963,247.25 143.365,247.25 C131.767,247.25 122.365,237.848 122.365,226.25 C122.365,214.652 131.767,205.25 143.365,205.25 z M143.365,220.25 L143.365,220.25 C140.052,220.25 137.365,222.936 137.365,226.25 C137.365,229.564 140.052,232.25 143.365,232.25 C146.679,232.25 149.365,229.564 149.365,226.25 C149.365,222.936 146.679,220.25 143.365,220.25 z M96.012,205.358 C106.97,206.951 114.31,215.261 114.865,226.25 C114.865,237.848 105.463,247.25 93.865,247.25 C82.267,247.25 72.865,237.848 72.865,226.25 C72.865,214.652 82.267,205.25 93.865,205.25 L96.012,205.358 z M93.865,220.25 L93.865,220.25 C90.552,220.25 87.865,222.936 87.865,226.25 C87.865,229.564 90.552,232.25 93.865,232.25 C97.179,232.25 99.865,229.564 99.865,226.25 C99.865,222.936 97.179,220.25 93.865,220.25 z M192.865,160.25 C204.463,160.25 213.865,169.652 213.865,181.25 L213.865,226.25 C213.865,237.848 204.463,247.25 192.865,247.25 C181.267,247.25 171.865,237.848 171.865,226.25 L171.865,181.25 C171.865,169.652 181.267,160.25 192.865,160.25 z M192.865,175.25 C189.552,175.25 186.865,177.936 186.865,181.25 L186.865,226.25 C186.865,229.564 189.552,232.25 192.865,232.25 C196.179,232.25 198.865,229.564 198.865,226.25 L198.865,181.25 C198.865,177.936 196.179,175.25 192.865,175.25 z M143.365,160.25 L145.512,160.358 C156.47,161.951 163.81,170.26 164.365,181.25 C164.365,192.848 154.963,202.25 143.365,202.25 C131.767,202.25 122.365,192.848 122.365,181.25 C122.365,169.652 131.767,160.25 143.365,160.25 z M143.365,175.25 L143.365,175.25 C140.052,175.25 137.365,177.936 137.365,181.25 C137.365,184.564 140.052,187.25 143.365,187.25 C146.679,187.25 149.365,184.564 149.365,181.25 C149.365,177.936 146.679,175.25 143.365,175.25 z M96.012,160.358 C106.97,161.951 114.31,170.26 114.865,181.25 C114.865,192.848 105.463,202.25 93.865,202.25 C82.267,202.25 72.865,192.848 72.865,181.25 C72.865,169.652 82.267,160.25 93.865,160.25 L96.012,160.358 z M93.865,175.25 L93.865,175.25 C90.552,175.25 87.865,177.936 87.865,181.25 C87.865,184.564 90.552,187.25 93.865,187.25 C97.179,187.25 99.865,184.564 99.865,181.25 C99.865,177.936 97.179,175.25 93.865,175.25 z M192.865,115.25 C204.463,115.25 213.865,124.652 213.865,136.25 C213.865,147.848 204.463,157.25 192.865,157.25 C181.267,157.25 171.865,147.848 171.865,136.25 C171.865,124.652 181.267,115.25 192.865,115.25 z M192.865,130.25 C189.552,130.25 186.865,132.936 186.865,136.25 C186.865,139.564 189.552,142.25 192.865,142.25 C196.179,142.25 198.865,139.564 198.865,136.25 C198.865,132.936 196.179,130.25 192.865,130.25 z M93.865,115.25 L96.012,115.358 C106.97,116.951 114.31,125.261 114.865,136.25 C114.865,147.848 105.463,157.25 93.865,157.25 C82.267,157.25 72.865,147.848 72.865,136.25 C72.865,124.652 82.267,115.25 93.865,115.25 z M93.865,130.25 L93.865,130.25 C90.552,130.25 87.865,132.936 87.865,136.25 C87.865,139.564 90.552,142.25 93.865,142.25 C97.179,142.25 99.865,139.564 99.865,136.25 C99.865,132.936 97.179,130.25 93.865,130.25 z M145.512,115.358 C156.47,116.951 163.81,125.261 164.365,136.25 C164.365,147.848 154.963,157.25 143.365,157.25 C131.767,157.25 122.365,147.848 122.365,136.25 C122.365,124.652 131.767,115.25 143.365,115.25 L145.512,115.358 z M143.365,130.25 L143.365,130.25 C140.052,130.25 137.365,132.936 137.365,136.25 C137.365,139.564 140.052,142.25 143.365,142.25 C146.679,142.25 149.365,139.564 149.365,136.25 C149.365,132.936 146.679,130.25 143.365,130.25 z M201.75,44.25 C205.892,44.25 209.25,47.608 209.25,51.75 L209.25,91.75 C209.25,95.892 205.892,99.25 201.75,99.25 L81.756,99.25 C77.614,99.25 74.256,95.892 74.256,91.75 L74.256,51.75 C74.256,47.608 77.614,44.25 81.756,44.25 L201.75,44.25 z M194.25,59.25 L89.256,59.25 L89.256,84.25 L194.25,84.25 L194.25,59.25 z" fill="#000000"/>
  </g>
</svg>
