<?xml version="1.0" encoding="UTF-8"?>
<!DOCTYPE svg PUBLIC "-//W3C//DTD SVG 1.1//EN" "http://www.w3.org/Graphics/SVG/1.1/DTD/svg11.dtd">
<svg version="1.1" xmlns="http://www.w3.org/2000/svg" xmlns:xlink="http://www.w3.org/1999/xlink" x="0" y="0" width="283.5" height="283.5" viewBox="0, 0, 283.5, 283.5">
  <g id="Background">
    <rect x="0" y="0" width="283.5" height="283.5" fill="#FFFFFF"/>
  </g>
  <g id="Layer_1">
    <path d="M142.388,29.353 C145.605,29.395 148.622,30.513 151.589,31.63 L256.585,83.452 L256.558,83.439 C267.344,88.708 274.202,99.644 274.25,111.678 L274.25,222.611 C274.25,240.049 259.97,254.147 242.401,254.147 L41.099,254.147 C23.53,254.147 9.25,240.049 9.25,222.611 L9.25,111.651 C9.292,99.655 16.137,88.721 26.891,83.452 L131.888,31.629 C135.823,29.964 133.425,30.819 139.213,29.476 L141,29.378 L142.388,29.353 z M259.018,109.179 L184.32,165.752 L231.268,202.269 C234.538,204.812 235.127,209.524 232.584,212.794 C230.041,216.063 225.329,216.652 222.059,214.109 L144.386,153.694 C141.887,151.75 138.387,151.75 135.887,153.694 L58.208,214.109 C54.938,216.652 50.226,216.063 47.683,212.793 C45.14,209.524 45.729,204.812 48.999,202.269 L96.046,165.678 L24.266,111.456 L24.25,111.678 L24.25,222.611 C24.25,231.721 31.772,239.147 41.099,239.147 L242.401,239.147 C251.728,239.147 259.25,231.721 259.25,222.611 L259.25,111.708 C259.071,109.309 259.294,110.126 259.018,109.179 z M142.633,44.452 C140.901,44.521 141.746,44.5 140.099,44.519 L138.525,45.081 L33.51,96.912 C32.13,97.65 32.799,97.246 31.504,98.125 L108.307,156.142 L126.678,141.854 C130.064,139.266 134.097,137.655 138.357,137.308 L140.135,137.272 L141.916,137.308 C146.264,137.641 150.089,139.357 153.596,141.854 L172.063,156.218 L250.203,97.039 L249.973,96.916 L249.946,96.903 L144.952,45.082 C144.035,44.743 143.615,44.517 142.634,44.452 z" fill="#000000"/>
  </g>
</svg>
