<?xml version="1.0" encoding="UTF-8"?>
<!DOCTYPE svg PUBLIC "-//W3C//DTD SVG 1.1//EN" "http://www.w3.org/Graphics/SVG/1.1/DTD/svg11.dtd">
<svg version="1.1" xmlns="http://www.w3.org/2000/svg" xmlns:xlink="http://www.w3.org/1999/xlink" x="0" y="0" width="283.5" height="283.5" viewBox="0, 0, 283.5, 283.5">
  <g id="Background">
    <rect x="0" y="0" width="283.5" height="283.5" fill="#FFFFFF"/>
  </g>
  <g id="Layer_1">
    <path d="M115,0 C126.046,-0 135,8.954 135,20 L135,40 C135,51.046 126.046,60 115,60 L20,60 C8.954,60 0,51.046 0,40 L0,20 C0,8.954 8.954,-0 20,-0 L115,0 z M115,15 L20,15 C17.239,15 15,17.239 15,20 L15,40 C15,42.761 17.239,45 20,45 L115,45 C117.761,45 120,42.761 120,40 L120,20 C120,17.239 117.761,15 115,15 z" fill="#000000"/>
    <path d="M263.5,-0 C274.546,0 283.5,8.954 283.5,20 L283.5,115 C283.5,126.046 274.546,135 263.5,135 L168.5,135 C157.454,135 148.5,126.046 148.5,115 L148.5,20 C148.5,8.954 157.454,0 168.5,0 L263.5,-0 z M263.5,15 L168.5,15 C165.739,15 163.5,17.239 163.5,20 L163.5,115 C163.5,117.761 165.739,120 168.5,120 L263.5,120 C266.261,120 268.5,117.761 268.5,115 L268.5,20 C268.5,17.239 266.261,15 263.5,15 z" fill="#000000"/>
    <path d="M115,75 C126.046,75 135,83.954 135,95 L135,115 C135,126.046 126.046,135 115,135 L20,135 C8.954,135 0,126.046 0,115 L0,95 C0,83.954 8.954,75 20,75 L115,75 z M115,90 L20,90 C17.239,90 15,92.239 15,95 L15,115 C15,117.761 17.239,120 20,120 L115,120 C117.761,120 120,117.761 120,115 L120,95 C120,92.239 117.761,90 115,90 z" fill="#000000"/>
    <path d="M263.5,150 C274.546,150 283.5,158.954 283.5,170 L283.5,190 C283.5,201.046 274.546,210 263.5,210 L168.5,210 C157.454,210 148.5,201.046 148.5,190 L148.5,170 C148.5,158.954 157.454,150 168.5,150 L263.5,150 z M263.5,165 L168.5,165 C165.739,165 163.5,167.239 163.5,170 L163.5,190 C163.5,192.761 165.739,195 168.5,195 L263.5,195 C266.261,195 268.5,192.761 268.5,190 L268.5,170 C268.5,167.239 266.261,165 263.5,165 z" fill="#000000"/>
    <path d="M113.381,148.5 C124.427,148.5 133.381,157.454 133.381,168.5 L133.381,263.5 C133.381,274.546 124.427,283.5 113.381,283.5 L18.381,283.5 C7.335,283.5 -1.619,274.546 -1.619,263.5 L-1.619,168.5 C-1.619,157.454 7.335,148.5 18.381,148.5 L113.381,148.5 z M113.381,163.5 L18.381,163.5 C15.62,163.5 13.381,165.739 13.381,168.5 L13.381,263.5 C13.381,266.261 15.62,268.5 18.381,268.5 L113.381,268.5 C116.143,268.5 118.381,266.261 118.381,263.5 L118.381,168.5 C118.381,165.739 116.143,163.5 113.381,163.5 z" fill="#000000"/>
    <path d="M263.5,223.5 C274.546,223.5 283.5,232.454 283.5,243.5 L283.5,263.5 C283.5,274.546 274.546,283.5 263.5,283.5 L168.5,283.5 C157.454,283.5 148.5,274.546 148.5,263.5 L148.5,243.5 C148.5,232.454 157.454,223.5 168.5,223.5 L263.5,223.5 z M263.5,238.5 L168.5,238.5 C165.739,238.5 163.5,240.739 163.5,243.5 L163.5,263.5 C163.5,266.261 165.739,268.5 168.5,268.5 L263.5,268.5 C266.261,268.5 268.5,266.261 268.5,263.5 L268.5,243.5 C268.5,240.739 266.261,238.5 263.5,238.5 z" fill="#000000"/>
  </g>
</svg>
