<?xml version="1.0" encoding="UTF-8"?>
<!DOCTYPE svg PUBLIC "-//W3C//DTD SVG 1.1//EN" "http://www.w3.org/Graphics/SVG/1.1/DTD/svg11.dtd">
<svg version="1.1" xmlns="http://www.w3.org/2000/svg" xmlns:xlink="http://www.w3.org/1999/xlink" x="0" y="0" width="283.5" height="283.5" viewBox="0, 0, 283.5, 283.5">
  <g id="Background">
    <rect x="0" y="0" width="283.5" height="283.5" fill="#FFFFFF"/>
  </g>
  <g id="Layer_1">
    <path d="M141.75,9.25 C214.928,9.25 274.25,68.572 274.25,141.75 C274.25,214.928 214.928,274.25 141.75,274.25 C68.572,274.25 9.25,214.928 9.25,141.75 C9.25,68.572 68.572,9.25 141.75,9.25 z M141.75,24.25 C76.857,24.25 24.25,76.857 24.25,141.75 C24.25,206.644 76.857,259.25 141.75,259.25 C206.643,259.25 259.25,206.644 259.25,141.75 C259.25,76.857 206.643,24.25 141.75,24.25 z M141.654,64.648 C150.234,64.538 158.363,65.941 163.816,68.536 C169.654,71.315 174.812,74.739 179.217,79.483 C185.45,86.196 189.023,94.56 189.023,104.491 C189.023,114.944 185.761,123.486 179.474,130.862 C174.88,136.251 170.196,139.875 159.869,146.8 C149.458,153.782 145.699,160.795 145.699,170.159 C145.699,174.301 142.341,177.659 138.199,177.659 C134.057,177.659 130.699,174.301 130.699,170.159 C130.699,155.782 136.96,144.103 151.514,134.342 C160.697,128.184 164.659,125.119 168.058,121.131 C172.071,116.423 174.023,111.313 174.023,104.491 C174.023,93.828 167.667,86.982 157.369,82.08 C154.23,80.586 148.307,79.564 141.862,79.647 C133.262,79.776 126.159,81.819 120.578,86.315 C119.264,87.372 118.07,88.471 116.989,89.608 C113.763,92.999 111.657,96.567 110.428,100.087 C110.015,101.268 109.741,102.339 109.577,103.264 C109.525,103.554 109.491,103.795 109.471,103.98 C109.465,104.04 109.465,104.036 109.469,103.963 C109.27,108.101 105.755,111.294 101.618,111.095 C97.48,110.897 94.287,107.382 94.486,103.244 C94.515,102.636 94.61,101.758 94.806,100.649 C95.107,98.954 95.581,97.105 96.266,95.142 C98.174,89.678 101.37,84.262 106.122,79.268 C107.66,77.651 109.343,76.102 111.171,74.631 C119.673,67.782 129.959,64.824 141.654,64.648 z M151.693,207.091 C151.693,199.246 145.334,192.886 137.489,192.886 C129.644,192.886 123.284,199.246 123.284,207.091 C123.284,214.936 129.644,221.296 137.489,221.296 C145.334,221.296 151.693,214.936 151.693,207.091 z" fill="#000000"/>
  </g>
</svg>
