<?xml version="1.0" encoding="UTF-8"?>
<!DOCTYPE svg PUBLIC "-//W3C//DTD SVG 1.1//EN" "http://www.w3.org/Graphics/SVG/1.1/DTD/svg11.dtd">
<svg version="1.1" xmlns="http://www.w3.org/2000/svg" xmlns:xlink="http://www.w3.org/1999/xlink" x="0" y="0" width="283.5" height="283.5" viewBox="0, 0, 283.5, 283.5">
  <g id="Background">
    <rect x="0" y="0" width="283.5" height="283.5" fill="#FFFFFF"/>
  </g>
  <g id="Layer_1">
    <path d="M250.651,8.049 C257.235,8.04 263.551,10.657 268.198,15.321 C272.846,19.985 275.441,26.31 275.409,32.857 L275.409,106.77 C275.412,111.048 273.722,115.154 270.688,118.208 L123.079,265.817 C113.39,275.46 97.729,275.46 88.027,265.804 L17.701,195.479 C8.059,185.789 8.059,170.129 17.714,160.426 L165.389,12.752 C168.425,9.737 172.53,8.046 176.803,8.049 L250.651,8.049 z M250.672,23.049 L176.798,23.049 C176.484,23.049 176.182,23.173 175.977,23.377 L28.334,171.02 C24.515,174.858 24.515,181.06 28.321,184.885 L98.62,255.185 C102.458,259.004 108.661,259.004 112.486,255.198 L260.064,107.62 C260.285,107.397 260.409,107.095 260.409,106.775 L260.409,32.82 C260.422,30.231 259.401,27.743 257.573,25.909 C255.746,24.075 253.262,23.046 250.672,23.049 z M219.862,44.395 C230.483,44.395 239.093,53.005 239.093,63.626 C239.093,74.247 230.483,82.857 219.862,82.857 C209.242,82.857 200.632,74.247 200.632,63.626 C200.632,53.005 209.242,44.395 219.862,44.395 z" fill="#000000"/>
  </g>
</svg>
