<?xml version="1.0" encoding="UTF-8"?>
<!DOCTYPE svg PUBLIC "-//W3C//DTD SVG 1.1//EN" "http://www.w3.org/Graphics/SVG/1.1/DTD/svg11.dtd">
<svg version="1.1" xmlns="http://www.w3.org/2000/svg" xmlns:xlink="http://www.w3.org/1999/xlink" x="0" y="0" width="283.5" height="283.5" viewBox="0, 0, 283.5, 283.5">
  <g id="Background">
    <rect x="0" y="0" width="283.5" height="283.5" fill="#FFFFFF"/>
  </g>
  <g id="Layer_1">
    <path d="M141.75,9.25 C214.921,9.25 274.25,68.579 274.25,141.75 C274.25,214.921 214.921,274.25 141.75,274.25 C68.579,274.25 9.25,214.921 9.25,141.75 C9.25,68.579 68.579,9.25 141.75,9.25 z M141.75,24.25 C76.864,24.25 24.25,76.864 24.25,141.75 C24.25,206.636 76.864,259.25 141.75,259.25 C206.636,259.25 259.25,206.636 259.25,141.75 C259.25,76.864 206.636,24.25 141.75,24.25 z M144.467,115.228 C148.61,115.228 151.967,118.586 151.967,122.728 L151.967,196.75 L174.359,196.75 C178.501,196.75 181.859,200.108 181.859,204.25 C181.859,208.392 178.501,211.75 174.359,211.75 L114.576,211.75 C110.434,211.75 107.076,208.392 107.076,204.25 C107.076,200.108 110.434,196.75 114.576,196.75 L136.967,196.75 L136.967,130.228 L122.728,130.228 C118.586,130.228 115.228,126.87 115.228,122.728 C115.228,118.586 118.586,115.228 122.728,115.228 L144.467,115.228 z M141.75,61.587 C151.505,61.587 159.413,69.495 159.413,79.25 C159.413,89.005 151.505,96.913 141.75,96.913 C131.995,96.913 124.087,89.005 124.087,79.25 C124.087,69.495 131.995,61.587 141.75,61.587 z" fill="#000000"/>
  </g>
</svg>
