<?xml version="1.0" encoding="UTF-8"?>
<!DOCTYPE svg PUBLIC "-//W3C//DTD SVG 1.1//EN" "http://www.w3.org/Graphics/SVG/1.1/DTD/svg11.dtd">
<svg version="1.1" xmlns="http://www.w3.org/2000/svg" xmlns:xlink="http://www.w3.org/1999/xlink" x="0" y="0" width="283.5" height="283.5" viewBox="0, 0, 283.5, 283.5">
  <g id="Background">
    <rect x="0" y="0" width="283.5" height="283.5" fill="#FFFFFF"/>
  </g>
  <g id="Layer_1">
    <path d="M170.05,245.75 C170.05,261.38 157.38,274.05 141.75,274.05 C126.12,274.05 113.45,261.38 113.45,245.75 C113.45,230.12 126.12,217.45 141.75,217.45 C157.38,217.45 170.05,230.12 170.05,245.75 z M155.05,245.75 C155.05,238.405 149.095,232.45 141.75,232.45 C134.405,232.45 128.45,238.405 128.45,245.75 C128.45,253.095 134.405,259.05 141.75,259.05 C149.095,259.05 155.05,253.095 155.05,245.75 z M155.05,37.75 C155.05,45.095 149.095,51.05 141.75,51.05 C134.405,51.05 128.45,45.095 128.45,37.75 C128.45,30.405 134.405,24.45 141.75,24.45 C149.095,24.45 155.05,30.405 155.05,37.75 z M170.05,37.75 C170.05,22.12 157.38,9.45 141.75,9.45 C126.12,9.45 113.45,22.12 113.45,37.75 C113.45,53.38 126.12,66.05 141.75,66.05 C157.38,66.05 170.05,53.38 170.05,37.75 z M155.05,141.75 C155.05,149.095 149.095,155.05 141.75,155.05 C134.405,155.05 128.45,149.095 128.45,141.75 C128.45,134.405 134.405,128.45 141.75,128.45 C149.095,128.45 155.05,134.405 155.05,141.75 z M170.05,141.75 C170.05,126.12 157.38,113.45 141.75,113.45 C126.12,113.45 113.45,126.12 113.45,141.75 C113.45,157.38 126.12,170.05 141.75,170.05 C157.38,170.05 170.05,157.38 170.05,141.75 z" fill="#000000"/>
  </g>
</svg>
