<?xml version="1.0" encoding="UTF-8"?>
<!DOCTYPE svg PUBLIC "-//W3C//DTD SVG 1.1//EN" "http://www.w3.org/Graphics/SVG/1.1/DTD/svg11.dtd">
<svg version="1.1" xmlns="http://www.w3.org/2000/svg" xmlns:xlink="http://www.w3.org/1999/xlink" x="0" y="0" width="283.5" height="283.5" viewBox="0, 0, 283.5, 283.5">
  <g id="Background">
    <rect x="0" y="0" width="283.5" height="283.5" fill="#FFFFFF"/>
  </g>
  <g id="Layer_1">
    <path d="M141.75,33.45 C145.892,33.45 149.25,36.808 149.25,40.95 L149.25,134.25 L242.55,134.25 C246.692,134.25 250.05,137.608 250.05,141.75 C250.05,145.892 246.692,149.25 242.55,149.25 L149.25,149.25 L149.25,242.55 C149.25,246.692 145.892,250.05 141.75,250.05 C137.608,250.05 134.25,246.692 134.25,242.55 L134.25,149.25 L40.95,149.25 C36.808,149.25 33.45,145.892 33.45,141.75 C33.45,137.608 36.808,134.25 40.95,134.25 L134.25,134.25 L134.25,40.95 C134.25,36.808 137.608,33.45 141.75,33.45 z" fill="#000000"/>
  </g>
</svg>
