<?xml version="1.0" encoding="UTF-8"?>
<!DOCTYPE svg PUBLIC "-//W3C//DTD SVG 1.1//EN" "http://www.w3.org/Graphics/SVG/1.1/DTD/svg11.dtd">
<svg version="1.1" xmlns="http://www.w3.org/2000/svg" xmlns:xlink="http://www.w3.org/1999/xlink" x="0" y="0" width="283.5" height="283.5" viewBox="0, 0, 283.5, 283.5">
  <g id="Background">
    <rect x="0" y="0" width="283.5" height="283.5" fill="#FFFFFF"/>
  </g>
  <g id="Layer_1">
    <path d="M221.75,4.25 C225.892,4.25 229.25,7.608 229.25,11.75 L229.25,24.25 L241.75,24.25 C262.461,24.25 279.25,41.039 279.25,61.75 L279.25,241.75 C279.25,262.461 262.461,279.25 241.75,279.25 L41.75,279.25 C21.039,279.25 4.25,262.461 4.25,241.75 L4.25,61.75 C4.25,41.039 21.039,24.25 41.75,24.25 L54.25,24.25 L54.25,11.75 C54.25,7.608 57.608,4.25 61.75,4.25 C65.892,4.25 69.25,7.608 69.25,11.75 L69.25,24.25 L214.25,24.25 L214.25,11.75 C214.25,7.608 217.608,4.25 221.75,4.25 z M264.25,89.25 L19.25,89.25 L19.25,241.75 C19.25,254.176 29.324,264.25 41.75,264.25 L241.75,264.25 C254.176,264.25 264.25,254.176 264.25,241.75 L264.25,89.25 z M166.75,204.25 C179.176,204.25 189.25,214.324 189.25,226.75 C189.25,239.176 179.176,249.25 166.75,249.25 C154.324,249.25 144.25,239.176 144.25,226.75 C144.25,214.324 154.324,204.25 166.75,204.25 z M166.75,219.25 C162.608,219.25 159.25,222.608 159.25,226.75 C159.25,230.892 162.608,234.25 166.75,234.25 C170.892,234.25 174.25,230.892 174.25,226.75 C174.25,222.608 170.892,219.25 166.75,219.25 z M66.75,204.25 C79.176,204.25 89.25,214.324 89.25,226.75 C89.25,239.176 79.176,249.25 66.75,249.25 C54.324,249.25 44.25,239.176 44.25,226.75 C44.25,214.324 54.324,204.25 66.75,204.25 z M66.75,219.25 C62.608,219.25 59.25,222.608 59.25,226.75 C59.25,230.892 62.608,234.25 66.75,234.25 C70.892,234.25 74.25,230.892 74.25,226.75 C74.25,222.608 70.892,219.25 66.75,219.25 z M116.75,204.25 C129.176,204.25 139.25,214.324 139.25,226.75 C139.25,239.176 129.176,249.25 116.75,249.25 C104.324,249.25 94.25,239.176 94.25,226.75 C94.25,214.324 104.324,204.25 116.75,204.25 z M116.75,219.25 C112.608,219.25 109.25,222.608 109.25,226.75 C109.25,230.892 112.608,234.25 116.75,234.25 C120.892,234.25 124.25,230.892 124.25,226.75 C124.25,222.608 120.892,219.25 116.75,219.25 z M66.75,154.25 C79.176,154.25 89.25,164.324 89.25,176.75 C89.25,189.176 79.176,199.25 66.75,199.25 C54.324,199.25 44.25,189.176 44.25,176.75 C44.25,164.324 54.324,154.25 66.75,154.25 z M66.75,169.25 C62.608,169.25 59.25,172.608 59.25,176.75 C59.25,180.892 62.608,184.25 66.75,184.25 C70.892,184.25 74.25,180.892 74.25,176.75 C74.25,172.608 70.892,169.25 66.75,169.25 z M166.75,154.25 C179.176,154.25 189.25,164.324 189.25,176.75 C189.25,189.176 179.176,199.25 166.75,199.25 C154.324,199.25 144.25,189.176 144.25,176.75 C144.25,164.324 154.324,154.25 166.75,154.25 z M166.75,169.25 C162.608,169.25 159.25,172.608 159.25,176.75 C159.25,180.892 162.608,184.25 166.75,184.25 C170.892,184.25 174.25,180.892 174.25,176.75 C174.25,172.608 170.892,169.25 166.75,169.25 z M216.75,154.25 C229.176,154.25 239.25,164.324 239.25,176.75 C239.25,189.176 229.176,199.25 216.75,199.25 C204.324,199.25 194.25,189.176 194.25,176.75 C194.25,164.324 204.324,154.25 216.75,154.25 z M216.75,169.25 C212.608,169.25 209.25,172.608 209.25,176.75 C209.25,180.892 212.608,184.25 216.75,184.25 C220.892,184.25 224.25,180.892 224.25,176.75 C224.25,172.608 220.892,169.25 216.75,169.25 z M116.75,154.25 C129.176,154.25 139.25,164.324 139.25,176.75 C139.25,189.176 129.176,199.25 116.75,199.25 C104.324,199.25 94.25,189.176 94.25,176.75 C94.25,164.324 104.324,154.25 116.75,154.25 z M116.75,169.25 C112.608,169.25 109.25,172.608 109.25,176.75 C109.25,180.892 112.608,184.25 116.75,184.25 C120.892,184.25 124.25,180.892 124.25,176.75 C124.25,172.608 120.892,169.25 116.75,169.25 z M166.75,104.25 C179.176,104.25 189.25,114.324 189.25,126.75 C189.25,139.176 179.176,149.25 166.75,149.25 C154.324,149.25 144.25,139.176 144.25,126.75 C144.25,114.324 154.324,104.25 166.75,104.25 z M166.75,119.25 C162.608,119.25 159.25,122.608 159.25,126.75 C159.25,130.892 162.608,134.25 166.75,134.25 C170.892,134.25 174.25,130.892 174.25,126.75 C174.25,122.608 170.892,119.25 166.75,119.25 z M216.75,104.25 C229.176,104.25 239.25,114.324 239.25,126.75 C239.25,139.176 229.176,149.25 216.75,149.25 C204.324,149.25 194.25,139.176 194.25,126.75 C194.25,114.324 204.324,104.25 216.75,104.25 z M216.75,119.25 C212.608,119.25 209.25,122.608 209.25,126.75 C209.25,130.892 212.608,134.25 216.75,134.25 C220.892,134.25 224.25,130.892 224.25,126.75 C224.25,122.608 220.892,119.25 216.75,119.25 z M241.75,39.25 L41.75,39.25 C29.324,39.25 19.25,49.324 19.25,61.75 L19.25,74.25 L264.25,74.25 L264.25,61.75 C264.25,49.324 254.176,39.25 241.75,39.25 z" fill="#000000"/>
  </g>
</svg>
