<?xml version="1.0" encoding="UTF-8"?>
<!DOCTYPE svg PUBLIC "-//W3C//DTD SVG 1.1//EN" "http://www.w3.org/Graphics/SVG/1.1/DTD/svg11.dtd">
<svg version="1.1" xmlns="http://www.w3.org/2000/svg" xmlns:xlink="http://www.w3.org/1999/xlink" x="0" y="0" width="283.5" height="283.5" viewBox="0, 0, 283.5, 283.5">
  <g id="Background">
    <rect x="0" y="0" width="283.5" height="283.5" fill="#FFFFFF"/>
  </g>
  <g id="Layer_1">
    <path d="M244,227.5 C248.142,227.5 251.5,230.858 251.5,235 C251.5,239.142 248.142,242.5 244,242.5 L36,242.5 C31.858,242.5 28.5,239.142 28.5,235 C28.5,230.858 31.858,227.5 36,227.5 L244,227.5 z M244,165.1 L36,165.1 C31.858,165.1 28.5,168.458 28.5,172.6 C28.5,176.742 31.858,180.1 36,180.1 L244,180.1 C248.142,180.1 251.5,176.742 251.5,172.6 C251.5,168.458 248.142,165.1 244,165.1 z M244,102.7 L36,102.7 C31.858,102.7 28.5,106.058 28.5,110.2 C28.5,114.342 31.858,117.7 36,117.7 L244,117.7 C248.142,117.7 251.5,114.342 251.5,110.2 C251.5,106.058 248.142,102.7 244,102.7 z M244,40.3 L36,40.3 C31.858,40.3 28.5,43.658 28.5,47.8 C28.5,51.942 31.858,55.3 36,55.3 L244,55.3 C248.142,55.3 251.5,51.942 251.5,47.8 C251.5,43.658 248.142,40.3 244,40.3 z" fill="#000000"/>
  </g>
</svg>
