<?xml version="1.0" encoding="UTF-8"?>
<!DOCTYPE svg PUBLIC "-//W3C//DTD SVG 1.1//EN" "http://www.w3.org/Graphics/SVG/1.1/DTD/svg11.dtd">
<svg version="1.1" xmlns="http://www.w3.org/2000/svg" xmlns:xlink="http://www.w3.org/1999/xlink" x="0" y="0" width="283.5" height="283.5" viewBox="0, 0, 283.5, 283.5">
  <g id="Background">
    <rect x="0" y="0" width="283.5" height="283.5" fill="#FFFFFF"/>
  </g>
  <g id="Layer_1">
    <path d="M265.87,233.463 C268.427,233.463 270.5,235.536 270.5,238.093 L270.5,265.87 C270.5,268.427 268.427,270.5 265.87,270.5 L238.092,270.5 C235.536,270.5 233.463,268.427 233.463,265.871 L233.463,238.093 C233.463,235.536 235.536,233.463 238.093,233.463 L265.87,233.463 z M173.278,242.722 L154.759,242.722 C152.202,242.722 150.13,244.795 150.13,247.352 L150.13,265.871 C150.13,268.427 152.202,270.5 154.759,270.5 L173.278,270.5 C175.835,270.5 177.907,268.427 177.907,265.87 L177.907,247.352 C177.907,244.795 175.835,242.722 173.278,242.722 z M89.944,187.167 L52.907,187.167 C50.351,187.167 48.278,189.24 48.278,191.796 L48.278,228.833 C48.278,231.39 50.351,233.463 52.907,233.463 L89.944,233.463 C92.501,233.463 94.574,231.39 94.574,228.833 L94.574,191.796 C94.574,189.24 92.501,187.167 89.944,187.167 z M113.093,166.889 C114.064,166.889 114.852,167.677 114.852,168.648 L114.852,251.982 C114.852,252.953 114.064,253.741 113.092,253.741 L29.759,253.741 C28.788,253.741 28,252.953 28,251.981 L28,168.648 C28,167.677 28.788,166.889 29.759,166.889 L113.092,166.889 z M113.092,151.889 L29.759,151.889 C20.503,151.889 13,159.392 13,168.648 L13,251.982 C13,261.237 20.503,268.741 29.759,268.741 L113.093,268.741 C122.349,268.741 129.852,261.237 129.852,251.981 L129.852,168.648 C129.852,159.392 122.349,151.889 113.092,151.889 z M228.833,187.167 L191.796,187.167 C189.239,187.167 187.167,189.24 187.167,191.796 L187.167,228.833 C187.167,231.39 189.239,233.463 191.796,233.463 L228.833,233.463 C231.39,233.463 233.463,231.39 233.463,228.833 L233.463,191.796 C233.463,189.24 231.39,187.167 228.833,187.167 z M182.537,150.13 L154.759,150.13 C152.202,150.13 150.13,152.203 150.13,154.759 L150.13,182.537 C150.13,185.094 152.202,187.167 154.759,187.167 L182.537,187.167 C185.094,187.167 187.167,185.094 187.167,182.537 L187.167,154.759 C187.167,152.203 185.094,150.13 182.537,150.13 z M265.87,150.13 L247.352,150.13 C244.795,150.13 242.722,152.203 242.722,154.759 L242.722,173.278 C242.722,175.835 244.795,177.908 247.352,177.908 L265.87,177.908 C268.427,177.908 270.5,175.835 270.5,173.278 L270.5,154.759 C270.5,152.203 268.427,150.13 265.87,150.13 z M228.833,48.278 L191.796,48.278 C189.239,48.278 187.167,50.351 187.167,52.908 L187.167,89.945 C187.167,92.501 189.239,94.574 191.796,94.574 L228.833,94.574 C231.39,94.574 233.463,92.501 233.463,89.945 L233.463,52.908 C233.463,50.351 231.39,48.278 228.833,48.278 z M251.981,28 C252.953,28 253.741,28.788 253.741,29.759 L253.741,113.093 C253.741,114.064 252.953,114.852 251.981,114.852 L168.648,114.852 C167.677,114.852 166.889,114.064 166.889,113.093 L166.889,29.759 C166.889,28.788 167.677,28 168.648,28 L251.981,28 z M251.981,13 L168.648,13 C159.392,13 151.889,20.504 151.889,29.759 L151.889,113.093 C151.889,122.349 159.392,129.852 168.648,129.852 L251.981,129.852 C261.237,129.852 268.741,122.349 268.741,113.093 L268.741,29.759 C268.741,20.504 261.237,13 251.981,13 z M89.944,48.278 L52.907,48.278 C50.351,48.278 48.278,50.351 48.278,52.908 L48.278,89.945 C48.278,92.501 50.351,94.574 52.907,94.574 L89.944,94.574 C92.501,94.574 94.574,92.501 94.574,89.945 L94.574,52.908 C94.574,50.351 92.501,48.278 89.944,48.278 z M113.093,28 C114.064,28 114.852,28.788 114.852,29.759 L114.852,113.093 C114.852,114.064 114.064,114.852 113.092,114.852 L29.759,114.852 C28.788,114.852 28,114.064 28,113.093 L28,29.759 C28,28.788 28.788,28 29.759,28 L113.092,28 z M113.092,13 L29.759,13 C20.503,13 13,20.504 13,29.759 L13,113.093 C13,122.349 20.503,129.852 29.759,129.852 L113.093,129.852 C122.349,129.852 129.852,122.349 129.852,113.093 L129.852,29.759 C129.852,20.504 122.349,13 113.092,13 z" fill="#000000"/>
  </g>
</svg>
