<?xml version="1.0" encoding="UTF-8"?>
<!DOCTYPE svg PUBLIC "-//W3C//DTD SVG 1.1//EN" "http://www.w3.org/Graphics/SVG/1.1/DTD/svg11.dtd">
<svg version="1.1" xmlns="http://www.w3.org/2000/svg" xmlns:xlink="http://www.w3.org/1999/xlink" x="0" y="0" width="283.5" height="283.5" viewBox="0, 0, 283.5, 283.5">
  <g id="Background">
    <rect x="0" y="0" width="283.5" height="283.5" fill="#FFFFFF"/>
  </g>
  <g id="Layer_1">
    <path d="M266.522,19.037 C271.07,19.019 275.436,20.818 278.652,24.034 C281.868,27.25 283.667,31.617 283.65,36.136 L283.65,208.936 C283.65,218.381 275.994,226.037 266.55,226.036 C230.447,226.037 204.012,229.486 184.694,236.225 C168.167,241.991 156.872,250.04 147.607,261.622 C146.756,262.568 147.246,262.099 146.105,262.994 C145.919,263.18 146.013,263.126 145.848,263.196 C145.14,263.771 144.237,264.261 143.317,264.261 C142.795,264.48 143.281,264.282 141.75,264.436 C140.218,264.282 140.705,264.481 140.181,264.26 C139.252,264.282 138.368,263.758 137.651,263.195 C137.487,263.126 137.581,263.18 137.396,262.995 C136.252,262.096 136.743,262.566 135.891,261.619 C126.68,250.094 115.378,242.043 98.843,236.267 C79.489,229.506 53.021,226.037 16.95,226.036 C6.809,226.037 -0.15,217.864 -0.15,207.778 L-0.15,36.165 C-0.167,31.617 1.632,27.25 4.848,24.034 C8.064,20.818 12.43,19.019 16.984,19.037 C54.601,19.902 104.552,21.88 132.409,51.339 C136.877,56.063 138.216,58.538 141.75,63.979 C145.7,57.099 150.771,51.023 156.849,45.916 C185.676,21.695 230.747,19.475 266.522,19.037 z M266.584,34.036 C225.56,34.75 162.923,36.564 149.25,85.162 L149.25,238.819 C181.499,212.335 226.945,211.39 266.55,211.036 C267.71,211.037 268.65,210.096 268.65,208.936 L268.65,36.108 C268.652,35.558 268.435,35.03 268.046,34.641 C267.657,34.252 267.128,34.034 266.584,34.036 z M16.922,34.036 C16.372,34.034 15.843,34.252 15.454,34.641 C15.065,35.03 14.848,35.558 14.85,36.136 L14.85,207.778 C14.85,210.067 15.676,211.037 16.95,211.036 C54.387,212.094 104.013,212.17 134.25,238.652 L134.25,85.162 C120.269,36.757 58.208,34.516 16.922,34.036 z" fill="#000000"/>
  </g>
</svg>
