<?xml version="1.0" encoding="UTF-8"?>
<!DOCTYPE svg PUBLIC "-//W3C//DTD SVG 1.1//EN" "http://www.w3.org/Graphics/SVG/1.1/DTD/svg11.dtd">
<svg version="1.1" xmlns="http://www.w3.org/2000/svg" xmlns:xlink="http://www.w3.org/1999/xlink" x="0" y="0" width="283.5" height="283.5" viewBox="0, 0, 283.5, 283.5">
  <g id="Background">
    <rect x="0" y="0" width="283.5" height="283.5" fill="#FFFFFF"/>
  </g>
  <g id="Layer_1">
    <path d="M175.5,-0 C187.854,0 197.868,10.014 197.868,22.368 L197.868,175.5 C197.868,187.854 187.854,197.868 175.5,197.868 L22.368,197.868 C10.014,197.868 0,187.854 0,175.5 L0,22.368 C0,10.014 10.014,0 22.368,-0 L175.5,-0 z M175.5,15 L22.368,15 C18.299,15 15,18.299 15,22.368 L15,175.5 C15,179.569 18.299,182.868 22.368,182.868 L175.5,182.868 C179.569,182.868 182.868,179.569 182.868,175.5 L182.868,22.368 C182.868,18.299 179.569,15 175.5,15 z" fill="#000000"/>
    <path d="M177.868,213.155 C188.914,213.155 197.868,222.109 197.868,233.155 L197.868,263.5 C197.868,274.546 188.914,283.5 177.868,283.5 L20,283.5 C8.954,283.5 -0,274.546 -0,263.5 L0,233.155 C-0,222.109 8.954,213.155 20,213.155 L177.868,213.155 z M177.868,228.155 L20,228.155 C17.239,228.155 15,230.394 15,233.155 L15,263.5 C15,266.261 17.239,268.5 20,268.5 L177.868,268.5 C180.63,268.5 182.868,266.261 182.868,263.5 L182.868,233.155 C182.868,230.394 180.63,228.155 177.868,228.155 z M263.5,228.155 C266.261,228.155 268.5,230.394 268.5,233.155 L268.5,263.5 C268.5,266.261 266.261,268.5 263.5,268.5 L233.155,268.5 C230.394,268.5 228.155,266.261 228.155,263.5 L228.155,233.155 C228.155,230.394 230.394,228.155 233.155,228.155 L263.5,228.155 z M263.5,213.155 L233.155,213.155 C222.11,213.155 213.155,222.109 213.155,233.155 L213.155,263.5 C213.155,274.546 222.11,283.5 233.155,283.5 L263.5,283.5 C274.546,283.5 283.5,274.546 283.5,263.5 L283.5,233.155 C283.5,222.109 274.546,213.155 263.5,213.155 z" fill="#000000"/>
    <path d="M263.5,0 C274.546,0 283.5,8.954 283.5,20 L283.5,70 C283.5,81.046 274.546,90 263.5,90 L233.155,90 C222.11,90 213.155,81.046 213.155,70 L213.155,20 C213.155,8.954 222.11,0 233.155,0 L263.5,0 z M263.5,15 L233.155,15 C230.394,15 228.155,17.239 228.155,20 L228.155,70 C228.155,72.761 230.394,75 233.155,75 L263.5,75 C266.261,75 268.5,72.761 268.5,70 L268.5,20 C268.5,17.239 266.261,15 263.5,15 z" fill="#000000"/>
    <path d="M263.5,109.31 C274.546,109.31 283.5,118.264 283.5,129.31 L283.5,177.868 C283.5,188.914 274.546,197.868 263.5,197.868 L233.155,197.868 C222.11,197.868 213.155,188.914 213.155,177.868 L213.155,129.31 C213.155,118.264 222.11,109.31 233.155,109.31 L263.5,109.31 z M263.5,124.31 L233.155,124.31 C230.394,124.31 228.155,126.549 228.155,129.31 L228.155,177.868 C228.155,180.629 230.394,182.868 233.155,182.868 L263.5,182.868 C266.261,182.868 268.5,180.629 268.5,177.868 L268.5,129.31 C268.5,126.549 266.261,124.31 263.5,124.31 z" fill="#000000"/>
  </g>
</svg>
