<?xml version="1.0" encoding="UTF-8"?>
<!DOCTYPE svg PUBLIC "-//W3C//DTD SVG 1.1//EN" "http://www.w3.org/Graphics/SVG/1.1/DTD/svg11.dtd">
<svg version="1.1" xmlns="http://www.w3.org/2000/svg" xmlns:xlink="http://www.w3.org/1999/xlink" x="0" y="0" width="283.5" height="283.5" viewBox="0, 0, 283.5, 283.5">
  <g id="Background">
    <rect x="0" y="0" width="283.5" height="283.5" fill="#FFFFFF"/>
  </g>
  <g id="Layer_1">
    <path d="M35.35,-0.15 C54.956,-0.15 70.85,15.744 70.85,35.35 C70.85,54.956 54.956,70.85 35.35,70.85 C15.744,70.85 -0.15,54.956 -0.15,35.35 C-0.15,15.744 15.744,-0.15 35.35,-0.15 z M35.35,14.85 C24.028,14.85 14.85,24.028 14.85,35.35 C14.85,46.672 24.028,55.85 35.35,55.85 C46.672,55.85 55.85,46.672 55.85,35.35 C55.85,24.028 46.672,14.85 35.35,14.85 z M141.75,14.85 C153.072,14.85 162.25,24.028 162.25,35.35 C162.25,46.672 153.072,55.85 141.75,55.85 C130.428,55.85 121.25,46.672 121.25,35.35 C121.25,24.028 130.428,14.85 141.75,14.85 z M141.75,-0.15 C122.144,-0.15 106.25,15.744 106.25,35.35 C106.25,54.956 122.144,70.85 141.75,70.85 C161.356,70.85 177.25,54.956 177.25,35.35 C177.25,15.744 161.356,-0.15 141.75,-0.15 z M248.15,14.85 C259.472,14.85 268.65,24.028 268.65,35.35 C268.65,46.672 259.472,55.85 248.15,55.85 C236.828,55.85 227.65,46.672 227.65,35.35 C227.65,24.028 236.828,14.85 248.15,14.85 z M248.15,-0.15 C228.544,-0.15 212.65,15.744 212.65,35.35 C212.65,54.956 228.544,70.85 248.15,70.85 C267.756,70.85 283.65,54.956 283.65,35.35 C283.65,15.744 267.756,-0.15 248.15,-0.15 z M35.35,121.25 C46.672,121.25 55.85,130.428 55.85,141.75 C55.85,153.072 46.672,162.25 35.35,162.25 C24.028,162.25 14.85,153.072 14.85,141.75 C14.85,130.428 24.028,121.25 35.35,121.25 z M35.35,106.25 C15.744,106.25 -0.15,122.144 -0.15,141.75 C-0.15,161.356 15.744,177.25 35.35,177.25 C54.956,177.25 70.85,161.356 70.85,141.75 C70.85,122.144 54.956,106.25 35.35,106.25 z M141.75,121.25 C153.072,121.25 162.25,130.428 162.25,141.75 C162.25,153.072 153.072,162.25 141.75,162.25 C130.428,162.25 121.25,153.072 121.25,141.75 C121.25,130.428 130.428,121.25 141.75,121.25 z M141.75,106.25 C122.144,106.25 106.25,122.144 106.25,141.75 C106.25,161.356 122.144,177.25 141.75,177.25 C161.356,177.25 177.25,161.356 177.25,141.75 C177.25,122.144 161.356,106.25 141.75,106.25 z M248.15,121.25 C259.472,121.25 268.65,130.428 268.65,141.75 C268.65,153.072 259.472,162.25 248.15,162.25 C236.828,162.25 227.65,153.072 227.65,141.75 C227.65,130.428 236.828,121.25 248.15,121.25 z M248.15,106.25 C228.544,106.25 212.65,122.144 212.65,141.75 C212.65,161.356 228.544,177.25 248.15,177.25 C267.756,177.25 283.65,161.356 283.65,141.75 C283.65,122.144 267.756,106.25 248.15,106.25 z M35.35,227.65 C46.672,227.65 55.85,236.828 55.85,248.15 C55.85,259.472 46.672,268.65 35.35,268.65 C24.028,268.65 14.85,259.472 14.85,248.15 C14.85,236.828 24.028,227.65 35.35,227.65 z M35.35,212.65 C15.744,212.65 -0.15,228.544 -0.15,248.15 C-0.15,267.756 15.744,283.65 35.35,283.65 C54.956,283.65 70.85,267.756 70.85,248.15 C70.85,228.544 54.956,212.65 35.35,212.65 z M141.75,227.65 L143.846,227.756 C145.179,228.028 146.546,228.17 147.846,228.572 C156.443,231.224 162.085,239.274 162.25,248.15 C162.25,259.472 153.072,268.65 141.75,268.65 C130.428,268.65 121.25,259.472 121.25,248.15 C121.25,236.828 130.428,227.65 141.75,227.65 z M141.75,212.65 C122.144,212.65 106.25,228.544 106.25,248.15 C106.25,267.756 122.144,283.65 141.75,283.65 C161.356,283.65 177.25,267.756 177.25,248.15 C177.25,228.544 161.356,212.65 141.75,212.65 z M248.15,227.65 C259.472,227.65 268.65,236.828 268.65,248.15 C268.65,259.472 259.472,268.65 248.15,268.65 C236.828,268.65 227.65,259.472 227.65,248.15 C227.65,236.828 236.828,227.65 248.15,227.65 z M248.15,212.65 C228.544,212.65 212.65,228.544 212.65,248.15 C212.65,267.756 228.544,283.65 248.15,283.65 C267.756,283.65 283.65,267.756 283.65,248.15 C283.65,228.544 267.756,212.65 248.15,212.65 z" fill="#000000"/>
  </g>
</svg>
