<?xml version="1.0" encoding="UTF-8"?>
<!DOCTYPE svg PUBLIC "-//W3C//DTD SVG 1.1//EN" "http://www.w3.org/Graphics/SVG/1.1/DTD/svg11.dtd">
<svg version="1.1" xmlns="http://www.w3.org/2000/svg" xmlns:xlink="http://www.w3.org/1999/xlink" x="0" y="0" width="283.5" height="283.5" viewBox="0, 0, 283.5, 283.5">
  <g id="Background">
    <rect x="0" y="0" width="283.5" height="283.5" fill="#FFFFFF"/>
  </g>
  <g id="Layer_1">
    <path d="M204.25,9.25 C223.186,9.25 238.536,24.6 238.536,43.536 L238.536,239.964 C238.536,258.9 223.186,274.25 204.25,274.25 L79.25,274.25 C60.315,274.25 44.964,258.9 44.964,239.964 L44.964,43.536 C44.964,24.6 60.315,9.25 79.25,9.25 L204.25,9.25 z M204.25,24.25 L79.25,24.25 C68.599,24.25 59.964,32.885 59.964,43.536 L59.964,239.964 C59.964,250.616 68.599,259.25 79.25,259.25 L204.25,259.25 C214.901,259.25 223.536,250.616 223.536,239.964 L223.536,43.536 C223.536,32.885 214.901,24.25 204.25,24.25 z M168.536,208.714 C178.804,208.714 188.804,211.538 196.694,216.666 C205.578,222.442 211.231,230.673 213.045,240.472 C213.484,242.632 212.917,244.874 211.505,246.566 C210.203,248.072 208.3,248.925 206.309,248.893 L130.762,248.893 C128.771,248.925 126.869,248.072 125.567,246.566 C124.155,244.874 123.588,242.632 124.027,240.472 C125.84,230.673 131.493,222.442 140.377,216.666 C148.268,211.538 158.268,208.714 168.536,208.714 z M168.536,150.679 C174.757,150.589 180.729,153.123 184.987,157.66 C189.211,162.219 191.276,168.352 190.785,174.925 C189.819,188.017 179.853,198.67 168.536,198.67 C157.219,198.67 147.236,188.017 146.281,174.914 C145.801,168.285 147.894,162.09 152.051,157.615 C156.209,153.14 162.063,150.679 168.536,150.679 z M168.536,36.036 C172.678,36.036 176.036,39.394 176.036,43.536 C176.036,47.678 172.678,51.036 168.536,51.036 L114.964,51.036 C110.822,51.036 107.464,47.678 107.464,43.536 C107.464,39.394 110.822,36.036 114.964,36.036 L168.536,36.036 z" fill="#000000"/>
  </g>
</svg>
