<?xml version="1.0" encoding="UTF-8"?>
<!DOCTYPE svg PUBLIC "-//W3C//DTD SVG 1.1//EN" "http://www.w3.org/Graphics/SVG/1.1/DTD/svg11.dtd">
<svg version="1.1" xmlns="http://www.w3.org/2000/svg" xmlns:xlink="http://www.w3.org/1999/xlink" x="0" y="0" width="283.5" height="283.5" viewBox="0, 0, 283.5, 283.5">
  <g id="Background">
    <rect x="0" y="0" width="283.5" height="283.5" fill="#FFFFFF"/>
  </g>
  <g id="Layer_1">
    <path d="M141.7,4.3 C156.5,4.3 168.6,16.4 168.6,31.2 C168.6,36.3 167.1,41 164.6,45.1 L175.7,45.1 C179.3,45.1 182.2,48 182.2,51.6 L182.2,84.3 C218.2,100 243.4,135.8 243.4,177.5 C243.4,233.6 197.8,279.2 141.7,279.2 C85.6,279.2 40,233.6 40,177.5 C40,135.8 65.3,100 101.2,84.3 L101.2,51.6 C101.2,48 104.1,45.1 107.7,45.1 L118.8,45.1 C116.3,41 114.8,36.3 114.8,31.2 C114.8,16.4 126.9,4.3 141.7,4.3 z M141.7,88.8 C92.8,88.8 53,128.6 53,177.5 C53,226.4 92.8,266.2 141.7,266.2 C190.6,266.2 230.4,226.4 230.4,177.5 C230.4,128.6 190.6,88.8 141.7,88.8 z M141.7,103 C145.3,103 148.2,105.9 148.2,109.5 C148.2,113.1 145.3,116 141.7,116 C107.8,116 80.2,143.6 80.2,177.5 C80.2,181.1 77.3,184 73.7,184 C70.1,184 67.2,181.1 67.2,177.5 C67.2,136.4 100.6,103 141.7,103 z M169.2,58.1 L114.2,58.1 L114.2,79.7 C123,77.2 132.2,75.8 141.7,75.8 C151.2,75.8 160.4,77.2 169.2,79.7 L169.2,58.1 z M141.7,17.3 C134,17.3 127.8,23.5 127.8,31.2 C127.8,38.8 134.1,45 141.7,45.1 C149.4,45.1 155.6,38.9 155.6,31.2 C155.6,23.5 149.4,17.3 141.7,17.3 z" fill="#010202"/>
  </g>
</svg>
