<?xml version="1.0" encoding="UTF-8"?>
<!DOCTYPE svg PUBLIC "-//W3C//DTD SVG 1.1//EN" "http://www.w3.org/Graphics/SVG/1.1/DTD/svg11.dtd">
<svg version="1.1" xmlns="http://www.w3.org/2000/svg" xmlns:xlink="http://www.w3.org/1999/xlink" x="0" y="0" width="283.5" height="283.5" viewBox="0, 0, 283.5, 283.5">
  <g id="Background">
    <rect x="0" y="0" width="283.5" height="283.5" fill="#FFFFFF"/>
  </g>
  <g id="Layer_1">
    <path d="M90.7,82.6 C107.6,82.6 123.5,89.2 135.4,101.1 C151.7,117.4 157.8,141.2 151.5,163.3 C150.4,167 146.6,169.2 142.9,168.1 C139.2,167 137,163.2 138.1,159.5 C143.1,142.3 138.3,123.7 125.6,111 C116.3,101.7 103.9,96.6 90.7,96.6 C77.5,96.6 65.1,101.7 55.8,111 C36.6,130.3 36.6,161.6 55.8,180.8 L141.7,266.7 L227.6,180.8 C246.8,161.5 246.8,130.2 227.6,111 C210.6,94.1 184,91.7 164.4,105.5 C161.2,107.7 156.9,106.9 154.7,103.8 C152.5,100.6 153.3,96.3 156.4,94.1 C181.6,76.4 215.6,79.4 237.4,101.2 C262.1,125.9 262.1,166 237.4,190.5 L146.6,281.3 C145.3,282.6 143.5,283.3 141.7,283.3 C139.9,283.3 138.1,282.6 136.8,281.3 L46,190.5 C21.3,165.9 21.3,125.8 46,101.1 C57.9,89.2 73.8,82.6 90.7,82.6 z M192.7,13.9 C205.1,13.9 215.1,24 215.1,36.3 C215.1,48.7 205,58.7 192.7,58.7 C180.3,58.7 170.3,48.6 170.3,36.3 C170.3,24 180.4,13.9 192.7,13.9 z M192.7,0 C172.7,0 156.4,16.3 156.4,36.3 C156.4,56.3 172.7,72.6 192.7,72.6 C212.7,72.6 229,56.3 229,36.3 C229,16.3 212.7,0 192.7,0 z M90.7,13.9 C103.1,13.9 113.1,24 113.1,36.3 C113.1,48.7 103,58.7 90.7,58.7 C78.3,58.7 68.3,48.6 68.3,36.3 C68.3,24 78.4,13.9 90.7,13.9 z M90.7,0 C70.7,0 54.4,16.3 54.4,36.3 C54.4,56.3 70.7,72.6 90.7,72.6 C110.7,72.6 127,56.3 127,36.3 C127,16.3 110.8,0 90.7,0 z" fill="#010202"/>
  </g>
</svg>
