<?xml version="1.0" encoding="UTF-8"?>
<!DOCTYPE svg PUBLIC "-//W3C//DTD SVG 1.1//EN" "http://www.w3.org/Graphics/SVG/1.1/DTD/svg11.dtd">
<svg version="1.1" xmlns="http://www.w3.org/2000/svg" xmlns:xlink="http://www.w3.org/1999/xlink" x="0" y="0" width="283.5" height="283.5" viewBox="0, 0, 283.5, 283.5">
  <g id="Background">
    <rect x="0" y="0" width="283.5" height="283.5" fill="#FFFFFF"/>
  </g>
  <g id="Layer_1">
    <path d="M141.5,3.6 C157.9,3.6 171.2,16.9 171.2,33.3 C171.2,40.9 168.3,47.8 163.5,53.1 C198.9,62.8 225.1,95.1 225.1,133.6 C225.1,170.5 239.4,205.2 265.5,231.3 C265.7,231.4 265.7,231.6 265.8,231.7 C266.3,232.3 266.7,232.8 267,233.5 C267.3,234.2 267.5,234.9 267.5,235.7 L267.6,236 C267.6,236.9 267.5,237.8 267.1,238.6 C266.8,239.5 266.3,240.2 265.7,240.8 C265.6,240.8 265.5,240.9 265.5,240.9 C264.9,241.4 264.3,241.9 263.5,242.2 C262.7,242.5 261.9,242.7 261,242.7 L180.7,242.7 C179.6,263.5 162.5,280 141.5,280 C120.5,280 103.4,263.4 102.3,242.7 L22.2,242.7 C21.4,242.7 20.5,242.5 19.7,242.2 C18.9,241.9 18.3,241.5 17.7,240.9 C17.6,240.9 17.5,240.8 17.5,240.8 C16.9,240.1 16.4,239.4 16.1,238.6 C15.8,237.8 15.6,237 15.6,236.1 L15.7,235.8 C15.8,235 15.9,234.2 16.2,233.5 C16.5,232.8 16.9,232.2 17.4,231.7 L17.7,231.3 C43.8,205.2 58.1,170.5 58.1,133.6 C58.1,95.2 84.3,62.8 119.7,53.1 C115,47.8 112,40.9 112,33.3 C112,16.9 125.1,3.6 141.5,3.6 z M167.5,242.6 L115.9,242.6 C117,256 128.1,266.6 141.7,266.6 C155.4,266.6 166.5,256 167.5,242.6 z M141.7,63.3 C102.9,63.3 71.4,94.8 71.4,133.6 C71.4,168.9 59.4,202.4 37.4,229.4 L246,229.4 C224,202.4 212,168.9 212,133.6 C212,94.9 180.5,63.3 141.7,63.3 z M141.7,81.3 C145.3,81.3 148.3,84.3 148.3,87.9 C148.3,91.5 145.4,94.5 141.7,94.5 C121.2,94.5 104.6,111.2 104.6,131.6 C104.6,132.1 104.4,132.6 104.3,133.1 C104.4,133.6 104.6,134.1 104.6,134.6 C104.6,159.6 99.9,183.2 91,202.7 C89.9,205.2 87.5,206.6 85,206.6 C84.1,206.6 83.2,206.4 82.3,206 C78.9,204.5 77.5,200.6 78.9,197.3 C86.9,179.8 91.3,157.5 91.3,134.7 C91.3,134.2 91.5,133.7 91.6,133.2 C91.5,132.7 91.3,132.2 91.3,131.7 C91.3,103.9 113.9,81.3 141.7,81.3 z M141.7,16.8 C132.7,16.8 125.3,24.2 125.3,33.2 C125.3,42.2 132.6,49.6 141.7,49.6 C150.7,49.6 158.1,42.2 158.1,33.2 C158.1,24.2 150.8,16.8 141.7,16.8 z" fill="#010202"/>
  </g>
</svg>
