<?xml version="1.0" encoding="UTF-8"?>
<!DOCTYPE svg PUBLIC "-//W3C//DTD SVG 1.1//EN" "http://www.w3.org/Graphics/SVG/1.1/DTD/svg11.dtd">
<svg version="1.1" xmlns="http://www.w3.org/2000/svg" xmlns:xlink="http://www.w3.org/1999/xlink" x="0" y="0" width="283.5" height="283.5" viewBox="0, 0, 283.5, 283.5">
  <g id="Background">
    <rect x="0" y="0" width="283.5" height="283.5" fill="#FFFFFF"/>
  </g>
  <g id="Layer_1">
    <path d="M194.3,-0 C194.8,-0 195.2,-0 195.6,0.1 L196.2,0.3 C196.4,0.4 196.7,0.4 196.9,0.5 C197.2,0.6 197.4,0.7 197.6,0.8 C197.7,0.9 197.9,1 198.1,1.1 L199.1,2 L259.2,62.2 C259.6,62.5 259.8,62.8 260.1,63.2 C260.2,63.3 260.3,63.5 260.4,63.7 L260.7,64.3 C260.8,64.5 260.8,64.8 260.9,65 C261,65.2 261.1,65.4 261.1,65.6 C261.2,66 261.2,66.5 261.2,66.9 L261.2,276.7 C261.2,280.5 258.1,283.6 254.3,283.6 L29.1,283.6 C25.3,283.6 22.2,280.5 22.2,276.7 L22.2,6.9 C22.2,3.1 25.3,-0 29.1,-0 L194.3,-0 z M187.5,13.7 L36,13.7 L36,269.8 L247.6,269.8 L247.6,73.8 L194.4,73.8 C190.6,73.8 187.5,70.7 187.5,66.9 L187.5,13.7 z M172.9,94.5 C180.9,94.5 189.1,100.2 191.8,107.8 L203.9,141.3 C216.6,142.7 226.5,153.5 226.5,166.6 L226.5,194.6 C226.5,208.7 215.1,220.1 201,220.1 L198.5,220.1 L198.5,239.4 C198.5,243.2 195.4,246.3 191.6,246.3 C187.8,246.3 184.7,243.2 184.7,239.4 L184.7,220.1 L97.8,220.1 L97.8,239.4 C97.8,243.2 94.7,246.3 90.9,246.3 C87.1,246.3 84,243.2 84,239.4 L84,220.1 L81.5,220.1 C67.4,220.1 56,208.7 56,194.6 L56,166.6 C56,153.5 65.9,142.7 78.7,141.3 L90.7,107.8 C93.4,100.2 101.5,94.5 109.6,94.5 L172.9,94.5 z M200.8,154.8 L81.5,154.8 C75,154.8 69.7,160.1 69.7,166.6 L69.7,194.6 C69.7,201.1 75,206.4 81.5,206.4 L200.9,206.4 C207.4,206.4 212.7,201.1 212.7,194.6 L212.7,166.6 C212.7,160.1 207.4,154.8 200.8,154.8 z M189.3,171.4 C194.4,171.4 198.5,175.5 198.6,180.7 C198.6,185.9 194.5,190 189.3,190 C184.1,190 180,185.8 180,180.7 C180,175.5 184.2,171.4 189.3,171.4 z M93.1,171.4 C98.2,171.4 102.4,175.5 102.3,180.7 C102.3,185.9 98.2,190 93.1,190 C87.9,190 83.8,185.8 83.8,180.7 C83.8,175.5 88,171.4 93.1,171.4 z M172.8,108.2 L109.5,108.2 C107.3,108.2 104.2,110.3 103.5,112.4 L93.3,141.1 L189.1,141.1 L178.8,112.4 C178.1,110.3 175,108.2 172.8,108.2 z M201.1,23.4 L201.1,60.1 L237.8,60.1 L201.1,23.4 z" fill="#000000"/>
  </g>
</svg>
