<?xml version="1.0" encoding="UTF-8"?>
<!DOCTYPE svg PUBLIC "-//W3C//DTD SVG 1.1//EN" "http://www.w3.org/Graphics/SVG/1.1/DTD/svg11.dtd">
<svg version="1.1" xmlns="http://www.w3.org/2000/svg" xmlns:xlink="http://www.w3.org/1999/xlink" x="0" y="0" width="283.5" height="283.5" viewBox="0, 0, 283.5, 283.5">
  <g id="Background">
    <rect x="0" y="0" width="283.5" height="283.5" fill="#FFFFFF"/>
  </g>
  <g id="Layer_1">
    <path d="M234.8,142.5 C232.2,142.5 229.7,142.7 227.3,143.1 L220,118.8 C220,118.8 220,118.8 220,118.7 L199,48.2 C198,44.9 194.7,43 191.5,43.6 C191.1,43.5 190.7,43.5 190.3,43.5 L164,43.5 C160.4,43.5 157.4,46.4 157.4,50.1 C157.4,53.7 160.3,56.7 164,56.7 L187.8,56.7 L205.8,116.9 L148.9,141.2 L146.8,134.9 C145.7,131.5 141.9,129.6 138.5,130.7 C135.1,131.8 133.2,135.6 134.3,139 L136.7,146.4 L111.3,157.3 L90.1,86.5 L94.4,86.5 C98,86.5 101,83.6 101,79.9 C101,76.2 98.1,73.3 94.4,73.3 L81.4,73.3 C81.4,73.3 81.3,73.3 81.3,73.3 L68.2,73.3 C64.6,73.3 61.6,76.2 61.6,79.9 C61.6,83.6 64.5,86.5 68.2,86.5 L76.4,86.5 L99.1,162.5 L90.4,166.2 C81.9,152 66.3,142.5 48.6,142.5 C21.8,142.5 -0,164.4 -0,191.2 C-0,218.1 21.8,239.9 48.7,239.9 C75.6,239.9 97.4,218.1 97.4,191.2 C97.4,186.7 96.8,182.4 95.6,178.3 L140.8,159 L142.5,164 C143.4,166.8 146,168.5 148.7,168.5 C149.4,168.5 150.1,168.4 150.8,168.2 C154.2,167.1 156.1,163.3 155,159.9 L153,153.8 L209.6,129.6 L214.8,146.9 C197.9,154.6 186.2,171.6 186.2,191.2 C186.2,218.1 208,239.9 234.9,239.9 C261.8,239.9 283.6,218.1 283.6,191.2 C283.5,164.4 261.6,142.5 234.8,142.5 z M84.3,191.2 C84.3,210.8 68.3,226.8 48.7,226.8 C29.1,226.8 13.1,210.8 13.1,191.2 C13.1,171.6 29.1,155.6 48.7,155.6 C61,155.6 71.9,161.9 78.2,171.4 L46.1,185.1 C42.8,186.5 41.2,190.4 42.6,193.7 C43.7,196.2 46.1,197.7 48.6,197.7 C49.5,197.7 50.3,197.5 51.2,197.2 L83.3,183.5 C84,186 84.3,188.6 84.3,191.2 z M234.8,226.8 C215.2,226.8 199.2,210.8 199.2,191.2 C199.2,177.5 207,165.5 218.5,159.6 L228.5,193.1 C229.4,195.9 232,197.8 234.8,197.8 C235.4,197.8 236.1,197.7 236.7,197.5 C240.2,196.5 242.2,192.8 241.1,189.3 L231.1,155.8 C232.3,155.7 233.6,155.6 234.8,155.6 C254.4,155.6 270.4,171.6 270.4,191.2 C270.3,210.8 254.4,226.8 234.8,226.8 z" fill="#000000"/>
  </g>
</svg>
