<?xml version="1.0" encoding="UTF-8"?>
<!DOCTYPE svg PUBLIC "-//W3C//DTD SVG 1.1//EN" "http://www.w3.org/Graphics/SVG/1.1/DTD/svg11.dtd">
<svg version="1.1" xmlns="http://www.w3.org/2000/svg" xmlns:xlink="http://www.w3.org/1999/xlink" x="0" y="0" width="283.5" height="283.5" viewBox="0, 0, 283.5, 283.5">
  <g id="Background">
    <rect x="0" y="0" width="283.5" height="283.5" fill="#FFFFFF"/>
  </g>
  <g id="Layer_1">
    <path d="M7.2,126.3 C10.9,126.5 13.8,129.7 13.6,133.4 L13.5,139 C13.5,199.9 63.1,249.4 123.9,249.4 C173.5,249.4 217.3,215.6 230.3,168.2 L206.8,178.2 C203.4,179.7 199.4,178.1 197.9,174.6 C196.4,171.1 198,167.2 201.5,165.7 L240.3,149.3 C243.8,147.8 247.7,149.4 249.2,152.9 L265.6,191.6 C267.1,195 265.5,199 262,200.5 C261.2,200.8 260.3,201 259.4,201 C256.7,201 254.2,199.5 253.1,196.9 L243,173.2 C228,225.7 179.2,263 123.9,263 C55.6,263 -0,207.4 -0,139.1 C-0,137 0.1,134.9 0.1,132.7 C0.3,129 3.4,126.1 7.2,126.3 z M122.3,81.5 C101.4,81.5 84.4,98.5 84.4,119.4 L84.4,137.1 L70.4,137.1 C66.7,137.1 63.6,140.1 63.6,143.9 C63.6,147.7 66.6,150.7 70.4,150.7 L84.4,150.7 L84.4,192.7 L70.4,192.7 C66.7,192.7 63.6,195.7 63.6,199.5 C63.6,203.2 66.6,206.3 70.4,206.3 L153.4,206.3 C157.1,206.3 160.2,203.3 160.2,199.5 C160.2,195.8 157.2,192.7 153.4,192.7 L97.9,192.7 L97.9,150.7 L114.9,150.7 C118.6,150.7 121.7,147.7 121.7,143.9 C121.7,140.1 118.7,137.1 114.9,137.1 L97.9,137.1 L97.9,119.4 C97.9,106 108.8,95.1 122.3,95.1 C135.7,95.1 146.6,106 146.6,119.4 C146.6,123.1 149.6,126.2 153.4,126.2 C157.2,126.2 160.2,123.2 160.2,119.4 C160.2,98.5 143.2,81.5 122.3,81.5 z M227.9,70.8 C234.6,70.8 240.1,76.3 240.1,83 C240.1,89.8 234.7,95.2 227.9,95.2 C221.2,95.2 215.7,89.7 215.7,83 C215.7,76.3 221.2,70.8 227.9,70.8 z M227.9,60 C215.2,60 204.9,70.3 204.9,83 C204.9,95.7 215.2,106 227.9,106 C240.6,106 250.9,95.7 250.9,83 C251,70.4 240.6,60 227.9,60 z M231.3,38.6 L231.3,45.1 C231.3,47.6 233.1,49.8 235.6,50.4 C239.3,51.2 242.8,52.7 246.1,54.8 C248.2,56.2 251.1,55.9 252.9,54.1 L257.5,49.5 L262,54 L257.4,58.6 C255.6,60.4 255.3,63.2 256.7,65.3 C258.8,68.5 260.2,72.1 261.1,75.8 C261.7,78.3 263.9,80 266.4,80 L272.9,80 L272.9,86.2 L266.1,86.2 C263.6,86.2 261.4,88 260.8,90.4 C260,94.2 258.5,97.7 256.4,101 C255,103.1 255.3,106 257.1,107.8 L261.7,112.4 L257.2,116.9 L252.6,112.3 C250.8,110.5 248,110.2 245.9,111.6 C242.6,113.7 239.1,115.1 235.4,116 C232.9,116.6 231.2,118.8 231.2,121.3 L231.2,127.8 L224.8,127.8 L224.8,121.3 C224.8,118.8 223,116.6 220.6,116 C216.9,115.2 213.3,113.7 210.1,111.6 C208,110.2 205.2,110.6 203.4,112.3 L198.8,116.9 L194.3,112.4 L198.9,107.8 C200.7,106 201,103.2 199.7,101.1 C197.6,97.8 196.2,94.3 195.3,90.5 C194.7,88 192.5,86.3 190,86.3 L183.5,86.3 L183.5,79.9 L190,79.9 C192.5,79.9 194.7,78.1 195.3,75.7 C196.1,72 197.6,68.4 199.7,65.2 C201.1,63.1 200.7,60.3 198.9,58.5 L194.3,53.9 L198.8,49.4 L203.4,54 C205.2,55.8 208,56.1 210.1,54.8 C213.4,52.7 216.9,51.2 220.6,50.4 C223.1,49.8 224.9,47.6 224.9,45.1 L224.9,38.6 L231.3,38.6 z M236.6,27.5 L219.3,27.5 C216.3,27.5 213.9,29.9 213.9,32.9 L213.9,40.7 C211.9,41.4 209.9,42.2 208,43.2 L202.5,37.7 C201.5,36.7 200.1,36.1 198.7,36.1 C197.3,36.1 195.9,36.7 194.9,37.7 L182.7,49.9 C180.6,52 180.6,55.5 182.7,57.6 L188.2,63.1 C187.2,65 186.4,67 185.8,69 L178,69 C175,69 172.6,71.4 172.6,74.4 L172.6,91.7 C172.6,94.7 175,97.1 178,97.1 L185.8,97.1 C186.5,99.1 187.3,101.1 188.3,103 L182.8,108.5 C181.8,109.5 181.2,110.9 181.2,112.3 C181.2,113.7 181.8,115.1 182.8,116.1 L195,128.3 C197,130.3 200.6,130.3 202.7,128.3 L208.2,122.8 C210.1,123.8 212.1,124.6 214.1,125.3 L214.1,133.1 C214.1,136.1 216.5,138.5 219.5,138.5 L236.8,138.5 C239.8,138.5 242.2,136.1 242.2,133.1 L242.2,125.3 C244.2,124.6 246.2,123.8 248.1,122.8 L253.6,128.3 C255.7,130.4 259.2,130.4 261.3,128.3 L273.5,116.1 C274.5,115.1 275.1,113.7 275.1,112.3 C275.1,110.9 274.5,109.5 273.5,108.5 L268,103 C269,101.1 269.8,99.1 270.5,97.1 L278.3,97.1 C281.3,97.1 283.7,94.7 283.7,91.7 L283.7,74.4 C283.5,71.4 281,69 278,69 L270.2,69 C269.5,67 268.7,65 267.8,63.1 L273.3,57.6 C275.4,55.5 275.4,52 273.3,49.9 L261.1,37.7 C259,35.6 255.5,35.6 253.4,37.7 L247.9,43.2 C246,42.2 244,41.4 242,40.7 L242,32.9 C242,29.9 239.6,27.5 236.6,27.5 z M123.9,15 C79.9,15 39.1,38.7 17,76.2 L13.5,49.7 C13,46.1 9.6,43.5 5.9,44 C2.2,44.5 -0.4,47.9 0.1,51.6 L5.6,93.4 C6.1,96.8 9,99.3 12.3,99.3 C12.6,99.3 12.9,99.3 13.2,99.2 L55,93.6 C58.7,93.1 61.3,89.7 60.8,86 C60.3,82.3 56.9,79.7 53.2,80.2 L28.7,83.5 C48.3,50 84.7,28.7 124,28.7 C142.1,28.7 159.3,32.9 175.2,41.3 C178.5,43 182.6,41.8 184.4,38.4 C186.1,35.1 184.9,31 181.5,29.2 C163.8,19.9 143.9,15 123.9,15 z" fill="#000000"/>
  </g>
</svg>
