<?xml version="1.0" encoding="UTF-8"?>
<!DOCTYPE svg PUBLIC "-//W3C//DTD SVG 1.1//EN" "http://www.w3.org/Graphics/SVG/1.1/DTD/svg11.dtd">
<svg version="1.1" xmlns="http://www.w3.org/2000/svg" xmlns:xlink="http://www.w3.org/1999/xlink" x="0" y="0" width="283.5" height="283.5" viewBox="0, 0, 283.5, 283.5">
  <g id="Background">
    <rect x="0" y="0" width="283.5" height="283.5" fill="#FFFFFF"/>
  </g>
  <g id="Layer_1">
    <path d="M7.2,128.9 C10.9,129.1 13.8,132.3 13.6,136 L13.5,141.6 C13.5,202.5 63.1,252 123.9,252 C173.5,252 217.3,218.2 230.3,170.8 L206.8,180.8 C203.3,182.3 199.4,180.7 197.9,177.2 C196.4,173.7 198,169.8 201.5,168.3 L240.3,151.9 C243.8,150.4 247.7,152 249.2,155.5 L265.5,194 C267,197.4 265.4,201.4 261.9,202.9 C261.1,203.2 260.2,203.4 259.3,203.4 C256.6,203.4 254.1,201.9 253,199.3 L242.9,175.6 C227.9,228.1 179.1,265.4 123.8,265.4 C55.5,265.4 -0.1,209.8 -0.1,141.5 C-0.1,139.5 0,137.4 0.1,135.3 C0.3,131.6 3.4,128.7 7.2,128.9 z M129.037,85.245 C110.48,85.245 96.154,90.015 82.6,103.1 C72.4,113.3 66.5,126.3 65.1,139.7 L53.3,139.7 C49.6,139.7 46.5,142.7 46.5,146.5 C46.5,150.3 49.5,153.3 53.3,153.3 L65.2,153.3 C66.7,166.7 72.5,179.7 82.7,189.9 C94.7,201.9 110.4,207.9 126.1,207.9 C141.8,207.9 157.6,201.9 169.5,189.9 C172.2,187.2 172.2,183 169.5,180.3 C166.8,177.6 162.6,177.6 159.9,180.3 C141.2,198.9 110.9,198.9 92.2,180.3 C84.6,172.7 80.2,163.2 78.8,153.3 L128.3,153.3 C132,153.3 135.1,150.3 135.1,146.5 C135.1,142.7 132.1,139.7 128.3,139.7 L78.8,139.7 C80.2,129.8 84.7,120.3 92.2,112.7 C110.9,94.1 141.3,94.1 159.9,112.7 C162.6,115.3 166.9,115.3 169.5,112.7 C172.1,110 172.1,105.8 169.5,103.1 C158.363,92.516 144.487,86.025 129.037,85.245 z M227.9,73.5 C234.6,73.5 240.1,79 240.1,85.7 C240.1,92.4 234.7,97.9 227.9,97.9 C221.2,97.9 215.7,92.4 215.7,85.7 C215.7,79 221.2,73.5 227.9,73.5 z M227.9,62.7 C215.2,62.7 204.9,73 204.9,85.7 C204.9,98.4 215.2,108.7 227.9,108.7 C240.6,108.7 250.9,98.4 250.9,85.7 C251,73 240.6,62.7 227.9,62.7 z M231.3,41.3 L231.3,47.8 C231.3,50.3 233.1,52.5 235.6,53.1 C239.3,53.9 242.8,55.4 246.1,57.5 C248.2,58.9 251.1,58.6 252.9,56.8 L257.5,52.2 L262,56.7 L257.4,61.3 C255.6,63.1 255.3,65.9 256.7,68 C258.8,71.2 260.2,74.8 261.1,78.5 C261.7,81 263.9,82.7 266.4,82.7 L272.9,82.7 L272.9,88.9 L266.1,88.9 C263.6,88.9 261.4,90.7 260.8,93.1 C260,96.9 258.5,100.4 256.4,103.7 C255,105.8 255.3,108.7 257.1,110.5 L261.7,115.1 L257.2,119.6 L252.6,115 C250.8,113.2 248,112.9 245.9,114.3 C242.6,116.4 239.1,117.8 235.4,118.7 C232.9,119.3 231.2,121.5 231.2,124 L231.2,130.5 L224.8,130.5 L224.8,124 C224.8,121.5 223,119.3 220.6,118.7 C216.9,117.9 213.3,116.4 210.1,114.3 C208,112.9 205.2,113.3 203.4,115 L198.8,119.6 L194.3,115.1 L198.9,110.5 C200.7,108.7 201,105.9 199.7,103.8 C197.6,100.5 196.2,97 195.3,93.2 C194.7,90.7 192.5,89 190,89 L183.5,89 L183.5,82.6 L190,82.6 C192.5,82.6 194.7,80.8 195.3,78.4 C196.1,74.7 197.6,71.1 199.7,67.9 C201.1,65.8 200.7,63 198.9,61.2 L194.3,56.6 L198.8,52.1 L203.4,56.7 C205.2,58.5 208,58.8 210.1,57.5 C213.4,55.4 216.9,53.9 220.6,53.1 C223.1,52.5 224.9,50.3 224.9,47.8 L224.9,41.3 L231.3,41.3 z M236.6,30.2 L219.3,30.2 C216.3,30.2 213.9,32.6 213.9,35.6 L213.9,43.4 C211.9,44.1 209.9,44.9 208,45.9 L202.5,40.4 C201.5,39.4 200.1,38.8 198.7,38.8 C197.3,38.8 195.9,39.4 194.9,40.4 L182.7,52.6 C180.6,54.7 180.6,58.2 182.7,60.3 L188.2,65.8 C187.2,67.7 186.4,69.7 185.8,71.7 L178,71.7 C175,71.7 172.6,74.1 172.6,77.1 L172.6,94.4 C172.6,97.4 175,99.8 178,99.8 L185.8,99.8 C186.5,101.8 187.3,103.8 188.3,105.7 L182.8,111.2 C181.8,112.2 181.2,113.6 181.2,115 C181.2,116.4 181.8,117.8 182.8,118.8 L195,131 C197,133 200.6,133 202.7,131 L208.2,125.5 C210.1,126.5 212.1,127.3 214.1,128 L214.1,135.8 C214.1,138.8 216.5,141.2 219.5,141.2 L236.8,141.2 C239.8,141.2 242.2,138.8 242.2,135.8 L242.2,128 C244.2,127.3 246.2,126.5 248.1,125.6 L253.6,131.1 C255.7,133.2 259.2,133.2 261.3,131.1 L273.5,118.9 C274.5,117.9 275.1,116.5 275.1,115.1 C275.1,113.7 274.5,112.3 273.5,111.3 L268,105.8 C269,103.9 269.8,101.9 270.5,99.9 L278.3,99.9 C281.3,99.9 283.7,97.5 283.7,94.5 L283.7,77.1 C283.5,74.1 281,71.7 278,71.7 L270.2,71.7 C269.5,69.7 268.7,67.7 267.8,65.8 L273.3,60.3 C275.4,58.2 275.4,54.7 273.3,52.6 L261.1,40.4 C259,38.3 255.5,38.3 253.4,40.4 L247.9,45.9 C246,44.9 244,44.1 242,43.4 L242,35.6 C242,32.6 239.6,30.2 236.6,30.2 z M123.9,17.7 C79.9,17.7 39.1,41.4 17,78.9 L13.5,52.4 C13,48.7 9.6,46.1 5.9,46.6 C2.2,47.1 -0.4,50.5 0.1,54.2 L5.6,96.1 C6.1,99.5 9,102 12.3,102 C12.6,102 12.9,102 13.2,101.9 L55,96.3 C58.7,95.8 61.3,92.4 60.8,88.7 C60.3,85 56.9,82.4 53.2,82.9 L28.7,86.2 C48.3,52.7 84.7,31.4 124,31.4 C142.1,31.4 159.3,35.6 175.2,44 C178.5,45.7 182.6,44.5 184.4,41.1 C186.1,37.8 184.9,33.7 181.5,31.9 C163.8,22.6 143.9,17.7 123.9,17.7 z" fill="#000000"/>
  </g>
</svg>
