<?xml version="1.0" encoding="UTF-8"?>
<!DOCTYPE svg PUBLIC "-//W3C//DTD SVG 1.1//EN" "http://www.w3.org/Graphics/SVG/1.1/DTD/svg11.dtd">
<svg version="1.1" xmlns="http://www.w3.org/2000/svg" xmlns:xlink="http://www.w3.org/1999/xlink" x="0" y="0" width="283.5" height="283.5" viewBox="0, 0, 283.5, 283.5">
  <g id="Background">
    <rect x="0" y="0" width="283.5" height="283.5" fill="#FFFFFF"/>
  </g>
  <g id="Layer_1">
    <path d="M142.4,-0 L143,0.1 C143.3,0.2 143.5,0.2 143.7,0.3 C143.9,0.3 144.1,0.4 144.3,0.5 L145,0.8 C145.1,0.9 145.1,0.9 145.2,0.9 L255.6,64 C255.6,64.1 255.7,64.1 255.7,64.1 C256.1,64.3 256.5,64.7 256.9,65 L257.2,65.3 C257.4,65.6 257.7,66 257.9,66.3 C257.9,66.4 258,66.6 258.1,66.7 C258.3,67.2 258.6,67.7 258.7,68.2 C258.8,68.7 258.9,69.3 258.9,69.8 C258.9,69.9 259,69.9 259.2,70 L259.2,213.3 C259.2,215.8 257.8,218.1 255.7,219.3 L145.4,282.4 C145.1,282.6 144.7,282.7 144.4,282.8 L143.8,283.1 C143.2,283.2 142.6,283.3 142,283.3 C141.4,283.3 140.8,283.3 140.2,283.1 C140,283.1 139.8,283 139.6,282.9 C139.2,282.8 138.8,282.7 138.5,282.5 L28.2,219.4 C26,218.2 24.7,215.9 24.7,213.4 L24.7,69.8 C24.7,69.2 24.8,68.7 24.9,68.2 C25,67.7 25.2,67.2 25.5,66.7 C25.5,66.5 25.6,66.4 25.7,66.3 C25.9,65.9 26.1,65.6 26.4,65.3 L26.7,65 C27,64.7 27.4,64.4 27.9,64.1 C27.9,64 28,64 28,64 L138.2,0.8 C138.3,0.7 138.3,0.7 138.4,0.7 L139.1,0.4 C139.3,0.3 139.5,0.3 139.7,0.2 C140,0.2 140.2,0.1 140.4,0.1 C140.7,0.1 140.9,-0 141.1,-0 L142.4,-0 z M141.8,14.8 L45.3,70 L90.5,95.743 L138.3,68.4 C140.4,67.2 143,67.2 145.1,68.4 L193,95.8 L141.7,125.1 L90.501,95.857 L86.8,98 C84.6,99.2 83.3,101.5 83.3,104 L83.3,107.6 L38.4,81.9 L38.4,209.4 L134.9,264.6 L134.9,211.1 L138.4,213.1 C139.4,213.7 140.6,214 141.8,214 C143,214 144.1,213.7 145.2,213.1 L148.6,211.157 L148.6,137.2 L200.3,107.6 L200.3,177.6 C200.3,180.1 198.9,182.4 196.8,183.6 L148.7,211.143 L148.7,264.6 L245.2,209.4 L245.2,81.9 L200.3,107.6 L200.3,104 C200.3,101.5 198.9,99.2 196.8,98 L193,95.8 L238.2,70 L141.8,14.8 z M83.2,107.6 L134.9,137.2 L134.9,211.2 L86.7,183.6 C84.5,182.4 83.2,180.1 83.2,177.6 L83.2,107.6 z" fill="#000000"/>
  </g>
</svg>
