<?xml version="1.0" encoding="UTF-8"?>
<!DOCTYPE svg PUBLIC "-//W3C//DTD SVG 1.1//EN" "http://www.w3.org/Graphics/SVG/1.1/DTD/svg11.dtd">
<svg version="1.1" xmlns="http://www.w3.org/2000/svg" xmlns:xlink="http://www.w3.org/1999/xlink" x="0" y="0" width="283.5" height="283.5" viewBox="0, 0, 283.5, 283.5">
  <g id="Background">
    <rect x="0" y="0" width="283.5" height="283.5" fill="#FFFFFF"/>
  </g>
  <g id="Layer_1">
    <path d="M234.7,28.9 C238.5,28.9 241.5,32 241.5,35.7 L241.5,173.4 L282.1,243.7 C283,244.9 283.5,246.3 283.5,247.9 C283.5,251.7 280.4,254.7 276.7,254.7 L6.7,254.7 C4.3,254.7 2.1,253.4 0.9,251.3 C-0.3,249.2 -0.3,246.6 0.9,244.5 L41.9,173.5 L41.9,35.7 C41.9,31.9 45,28.9 48.7,28.9 L234.7,28.9 z M230.9,182 L52.6,182 L18.5,241 L265,241 L230.9,182 z M169.2,213.1 C172.9,213.1 175.9,216.1 176,219.9 C176,223.7 172.9,226.7 169.2,226.7 L114.3,226.7 C110.5,226.7 107.5,223.6 107.5,219.9 C107.5,216.1 110.6,213.1 114.3,213.1 L169.2,213.1 z M228,42.4 L55.4,42.4 L55.4,168.5 L228,168.5 L228,42.4 z M123.3,59.4 C131.1,59.4 138.5,62.5 144,68 C149.2,73.2 152.1,80.1 152.5,87.3 L162.1,77.7 L162.5,70.1 C162.6,68.8 163.3,67.6 164.4,66.9 L175,60.1 C176.6,59.1 178.7,59.4 180,60.7 L184.8,65.5 C186.2,66.8 186.4,68.9 185.4,70.5 L178.6,81.1 C177.9,82.2 176.7,82.9 175.4,83 L167.8,83.4 L157.4,93.8 C156.6,94.6 155.5,95 154.5,95 C154.1,95 153.6,94.8 153.2,94.7 L181.1,122.6 C184.3,125.8 186.1,130.1 186.1,134.6 C186.1,139.1 184.3,143.4 181.1,146.6 C177.9,149.8 173.6,151.6 169.1,151.6 C164.6,151.6 160.3,149.8 157.1,146.6 L135.9,125.4 C135.8,125.9 135.5,126.4 135.2,126.9 L120.7,146.4 C118.5,149.4 115.1,151.2 111.1,151.5 L110,151.5 C105.8,151.5 101.6,149.8 98.6,146.8 C95.3,143.5 93.6,138.9 93.9,134.3 C94.2,130.4 96,126.9 99,124.7 L111.2,115.5 C108,114.1 105,112.1 102.4,109.5 C93.5,100.6 91.3,87.1 96.9,75.8 C97.5,74.6 98.6,73.8 99.9,73.6 C101.2,73.4 102.5,73.8 103.4,74.7 L119.7,91 C120,91.1 120.2,91.3 120.4,91.5 C121.9,93 124.5,93 126,91.5 C127.5,89.9 127.5,87.4 126,85.9 C125.8,85.6 125.7,85.4 125.5,85.2 L109.2,68.9 C108.3,68 107.9,66.7 108.1,65.4 C108.3,64.1 109.1,63 110.3,62.4 C114.3,60.5 118.8,59.4 123.3,59.4 z M128.1,117.6 C126.5,117.9 124.8,118 123.2,118 C121.5,118 119.8,117.9 118.2,117.6 C118.5,119.1 118,120.6 116.7,121.6 L103.9,131.2 C102.5,132.3 102.1,133.8 102,134.9 C101.8,137.1 102.7,139.5 104.3,141.1 C105.9,142.7 108.3,143.6 110.5,143.4 C111.6,143.3 113.2,142.9 114.2,141.5 L128.7,122 C129.3,121.2 130.1,120.7 131,120.5 L128.1,117.6 z M122.055,67.508 L119.5,67.8 L131.8,80.1 C132,80.3 132.2,80.6 132.4,80.9 C136.4,85.6 136.1,92.7 131.7,97.2 C129.4,99.4 126.4,100.7 123.2,100.7 C120.3,100.7 117.6,99.7 115.4,97.9 C115.1,97.7 114.8,97.5 114.6,97.3 L102.3,85 C101.1,91.7 103.2,98.7 108.2,103.7 C112.2,107.7 117.5,109.9 123.2,109.9 C124.9,109.9 126.7,109.6 128.4,109.2 C128.7,109.1 129.1,109.1 129.4,109.1 C130.5,109.1 131.5,109.5 132.3,110.3 L162.8,140.8 C166.1,144.1 172,144.1 175.3,140.8 C177,139.2 177.9,136.9 178,134.6 C178,132.2 177.1,130 175.4,128.3 L144.9,97.8 C143.9,96.7 143.4,95.3 143.8,93.9 C145.6,86.7 143.5,79 138.2,73.7 C135.136,70.727 131.338,68.642 127.113,67.847 C125.452,67.535 123.741,67.621 122.055,67.508 z M169.408,130.178 C171.733,130.929 170.812,130.404 172.3,131.5 C174,133.2 174,136 172.3,137.8 C171.4,138.6 170.3,139.1 169.1,139.1 C167.9,139.1 166.7,138.6 165.9,137.8 C165.1,136.9 164.6,135.8 164.6,134.6 C164.6,133.4 165.1,132.2 165.9,131.4 C167.048,130.477 166.317,130.95 168.224,130.21 L169.408,130.178 z M176.5,68.6 L170.4,72.5 L170.2,75 L172.8,74.9 L176.7,68.8 L176.5,68.6 z" fill="#000000"/>
  </g>
</svg>
