<?xml version="1.0" encoding="UTF-8"?>
<!DOCTYPE svg PUBLIC "-//W3C//DTD SVG 1.1//EN" "http://www.w3.org/Graphics/SVG/1.1/DTD/svg11.dtd">
<svg version="1.1" xmlns="http://www.w3.org/2000/svg" xmlns:xlink="http://www.w3.org/1999/xlink" x="0" y="0" width="283.5" height="283.5" viewBox="0, 0, 283.5, 283.5">
  <g id="Background">
    <rect x="0" y="0" width="283.5" height="283.5" fill="#FFFFFF"/>
  </g>
  <g id="Layer_1">
    <path d="M209.2,0 C220.4,0 229.5,9.1 229.4,20.2 L229.4,263.2 C229.4,274.3 220.4,283.4 209.2,283.4 L74.2,283.4 C63.1,283.4 54,274.4 54,263.2 L54,20.2 C54,9.1 63.1,0 74.2,0 L209.2,0 z M209.3,13.5 L74.3,13.5 C70.6,13.5 67.6,16.5 67.6,20.2 L67.6,263.2 C67.6,266.9 70.6,269.9 74.3,269.9 L209.3,269.9 C213,269.9 216,266.9 216,263.2 L216,20.2 C216,16.5 213,13.5 209.3,13.5 z M141.7,216.8 C147.9,216.8 153.6,219.2 157.9,223.6 C162.2,227.9 164.6,233.7 164.6,239.8 C164.6,245.9 162.2,251.7 157.9,256 C153.6,260.3 147.8,262.7 141.7,262.7 C135.6,262.7 129.8,260.3 125.5,256 C116.6,247 116.6,232.5 125.5,223.5 C129.8,219.2 135.6,216.8 141.7,216.8 z M141.7,230.2 C139.3,230.2 136.8,231.2 135,233 C131.3,236.7 131.3,242.7 135,246.4 C136.9,248.3 139.3,249.2 141.7,249.2 C144.1,249.2 146.6,248.2 148.4,246.4 C152.1,242.7 152.1,236.7 148.4,233 C146.5,231.1 144.1,230.2 141.7,230.2 z M163,81.6 C169.3,81.6 175.6,86.1 177.7,92 L185.3,113.3 C194.2,114.9 201,122.8 200.9,132.1 L200.9,150.9 C200.9,161 193.2,169.2 183.4,170.1 L183.4,181 C183.4,184.7 180.4,187.7 176.7,187.7 C173,187.7 170,184.7 170,181 L170,170.2 L116,170.2 L116,181 C116,184.7 113,187.7 109.3,187.7 C105.6,187.7 102.6,184.7 102.6,181 L102.6,170.3 L101.8,170.3 C91.1,170.3 82.5,161.6 82.5,151 L82.5,132.2 C82.5,122.8 89.3,115 98.2,113.3 L105.8,92 C107.9,86.1 114.2,81.6 120.5,81.6 L163,81.6 z M181.7,126.4 L101.7,126.4 C98.5,126.4 95.9,129 95.9,132.2 L95.9,151 C95.9,154.2 98.5,156.8 101.7,156.8 L181.7,156.8 C184.9,156.8 187.5,154.2 187.5,151 L187.5,132.2 C187.5,129 184.9,126.4 181.7,126.4 z M114.6,136.7 C117.582,136.7 120,139.118 120,142.1 C120,145.082 117.582,147.5 114.6,147.5 C111.618,147.5 109.2,145.082 109.2,142.1 C109.2,139.118 111.618,136.7 114.6,136.7 z M171.3,136.7 C174.282,136.7 176.7,139.118 176.7,142.1 C176.7,145.082 174.282,147.5 171.3,147.5 C168.318,147.5 165.9,145.082 165.9,142.1 C165.9,139.118 168.318,136.7 171.3,136.7 z M163,95.1 L120.5,95.1 C119.9,95.1 118.7,96 118.6,96.5 L112.7,112.9 L170.9,112.9 L165,96.5 C164.8,96 163.6,95.1 163,95.1 z M155.2,27.2 C158.9,27.2 161.9,30.2 161.9,33.9 C161.9,37.6 158.9,40.6 155.2,40.6 L128.2,40.6 C124.5,40.6 121.5,37.6 121.5,33.9 C121.5,30.2 124.5,27.2 128.2,27.2 L155.2,27.2 z" fill="#000000"/>
  </g>
</svg>
