<?xml version="1.0" encoding="UTF-8"?>
<!DOCTYPE svg PUBLIC "-//W3C//DTD SVG 1.1//EN" "http://www.w3.org/Graphics/SVG/1.1/DTD/svg11.dtd">
<svg version="1.1" xmlns="http://www.w3.org/2000/svg" xmlns:xlink="http://www.w3.org/1999/xlink" x="0" y="0" width="283.5" height="283.5" viewBox="0, 0, 283.5, 283.5">
  <g id="Background">
    <rect x="0" y="0" width="283.5" height="283.5" fill="#FFFFFF"/>
  </g>
  <g id="Layer_1">
    <path d="M72.5,144.6 L72.9,144.7 C73.1,144.8 73.4,144.8 73.6,144.9 L74.6,145.4 C74.8,145.5 74.9,145.6 75,145.7 C75.1,145.8 75.3,145.9 75.5,146.1 L75.9,146.5 C76,146.6 76.2,146.7 76.3,146.9 L76.7,147.6 C76.8,147.7 76.8,147.8 76.9,147.9 L76.9,148 L91.7,178.3 L106.5,148 L106.5,147.9 C106.6,147.8 106.6,147.7 106.7,147.6 C106.8,147.3 106.9,147.1 107.1,146.9 L107.9,146.1 C108,146 108.2,145.8 108.4,145.7 L108.8,145.4 C109,145.3 109.2,145.2 109.4,145.1 L109.9,144.9 C110.1,144.8 110.3,144.7 110.5,144.7 C110.6,144.7 110.8,144.6 111,144.6 L112.2,144.6 C112.4,144.6 112.7,144.7 112.9,144.7 C113,144.7 113.2,144.7 113.4,144.8 C154.6,154.8 183.3,191.4 183.4,233.8 C183.4,242.3 182.2,250.9 179.8,259.1 C179,261.8 176.6,263.5 174,263.5 C173.4,263.5 172.9,263.5 172.3,263.3 C169.1,262.3 167.3,259 168.2,255.8 C170.3,248.6 171.3,241.2 171.3,233.8 C171.3,198.5 148.4,167.9 115.1,157.7 L98.4,192 L119.7,235.6 C119.7,235.7 119.7,235.9 119.8,236 L120,236.6 L120.2,237.8 L120.2,239 C120.2,239.2 120.1,239.4 120.1,239.6 C120.1,239.8 120.1,240 120,240.2 L119.8,240.7 C119.8,240.8 119.7,241 119.6,241.2 L119.3,241.7 C119.2,241.9 119.1,242.1 119,242.2 L118.2,243 L95.6,262.1 C94.5,263 93.1,263.5 91.7,263.5 C90.3,263.5 88.9,263.1 87.8,262.1 L65.2,243 C65.1,242.9 65,242.8 64.9,242.7 C64.7,242.5 64.5,242.4 64.4,242.2 L63.8,241.2 C63.8,241.1 63.7,240.9 63.6,240.7 L63.4,240.2 L63.2,239 L63.2,237.8 C63.2,237.6 63.3,237.4 63.3,237.2 C63.3,237.1 63.3,236.9 63.4,236.7 C63.4,236.5 63.5,236.3 63.6,236.1 C63.6,236 63.6,235.8 63.7,235.7 L85,192 L68.3,157.7 C35,167.9 12.1,198.5 12.1,233.8 C12.1,241.2 13.1,248.6 15.2,255.8 C16.1,259 14.3,262.4 11.1,263.3 C10.5,263.4 9.9,263.5 9.4,263.5 C6.8,263.5 4.4,261.7 3.6,259.1 C1.2,250.9 -0,242.3 -0,233.8 C-0,191.4 28.7,154.8 70,144.7 L70.5,144.7 C70.8,144.7 71,144.6 71.3,144.6 L72.5,144.6 z M91.6,205.8 L76.4,236.8 L91.6,249.6 L106.8,236.8 L91.6,205.8 z M236.4,109.3 C237.7,109.3 239.7,110.7 240.2,112 L247.6,132.6 L154.5,132.6 L161.9,112 C162.4,110.7 164.3,109.3 165.7,109.3 L236.4,109.3 z M236.4,97.2 L165.7,97.2 C159.2,97.2 152.7,101.8 150.6,107.9 L141.2,134.2 C140.8,135.3 140.8,136.4 141,137.4 C140.9,137.8 140.9,138.2 140.9,138.7 C140.9,142 143.6,144.7 146.9,144.7 L257.6,144.7 C262.1,144.7 265.7,148.3 265.7,152.8 L265.7,174 C265.7,178.5 262.1,182.1 257.6,182.1 L193.3,182.1 C190,182.1 187.3,184.8 187.3,188.1 C187.3,191.4 190,194.1 193.3,194.1 L244.5,194.1 L244.5,207.9 C244.5,211.2 247.2,213.9 250.5,213.9 C253.8,213.9 256.5,211.2 256.5,207.9 L256.5,194.1 L257.5,194.1 C268.6,194.1 277.7,185.1 277.7,173.9 L277.7,152.7 C277.7,142.6 270.2,134.2 260.4,132.8 L251.5,107.9 C249.3,101.8 242.8,97.2 236.4,97.2 z M91.7,34.6 C113,34.6 130.4,51.9 130.4,73.3 C130.4,94.6 113.1,112 91.7,112 C70.3,112 53,94.6 53,73.3 C53,52 70.3,34.6 91.7,34.6 z M91.7,22.6 L91.7,22.6 C63.7,22.6 41,45.3 41,73.3 C41,101.2 63.7,124 91.7,124 C119.7,124 142.4,101.3 142.4,73.3 C142.4,45.3 119.7,22.6 91.7,22.6 z M226.3,38.7 C230.1,38.7 232.9,42 232.9,55.5 C232.9,68.4 230.8,72.3 226.1,72.3 C221.4,72.3 219,68.5 219,55.5 C219,42.8 221.8,38.7 226.3,38.7 z M226.2,28.5 C213.3,28.5 206.7,40.1 206.7,56 C206.6,72 212.7,82.7 226,82.7 C239.3,82.7 245.2,71.6 245.2,55.6 C245.2,39.7 239.5,28.5 226.2,28.5 z M186.1,28.4 C179.9,28.4 174.2,30.4 169.5,33.3 C168.2,34.1 167.8,35 168.4,36.3 L170.7,41.1 C171.5,42.7 172.7,42.5 173.8,41.9 C178.5,39.6 181.4,38.5 184.6,38.5 C188.4,38.5 191.4,40.1 191.4,44.1 C191.4,47.3 188.2,51.3 183.7,55.8 C179.9,59.6 174,65.1 168.2,70.3 C166.8,71.6 166.5,72.3 166.5,74.3 L166.5,78.8 C166.4,81 167,81.7 169.3,81.7 L199.7,81.7 C201.6,81.7 202.3,80.8 202.3,79.1 L202.3,74 C202.3,72.3 201.6,71.5 199.7,71.5 L192.2,71.5 C186.9,71.5 181.3,71.7 180.8,71.8 C182.5,70.4 184.7,68.6 187,66.7 C193.6,61.2 203.3,52.8 203.3,43.6 C203.3,33.8 196.2,28.4 186.1,28.4 z M269.2,19.9 L262.7,19.9 C261.2,19.9 260.5,20.6 260.5,22.1 L260.5,32.7 L250.5,32.7 C248.9,32.7 248.5,33.5 248.5,34.9 L248.5,40.2 C248.5,41.6 249,42.5 250.5,42.5 L260.5,42.5 L260.5,53.3 C260.5,54.9 261.3,55.3 262.7,55.3 L269.2,55.3 C270.6,55.3 271.5,54.9 271.5,53.3 L271.5,42.6 L281.3,42.6 C283,42.6 283.5,41.8 283.5,40.3 L283.5,35 C283.5,33.4 282.8,32.7 281.3,32.7 L271.5,32.7 L271.5,22.1 C271.5,20.4 270.7,19.9 269.2,19.9 z" fill="#010202"/>
  </g>
</svg>
