<?xml version="1.0" encoding="UTF-8"?>
<!DOCTYPE svg PUBLIC "-//W3C//DTD SVG 1.1//EN" "http://www.w3.org/Graphics/SVG/1.1/DTD/svg11.dtd">
<svg version="1.1" xmlns="http://www.w3.org/2000/svg" xmlns:xlink="http://www.w3.org/1999/xlink" x="0" y="0" width="283.5" height="283.5" viewBox="0, 0, 283.5, 283.5">
  <g id="Background">
    <rect x="0" y="0" width="283.5" height="283.5" fill="#FFFFFF"/>
  </g>
  <g id="Layer_1">
    <path d="M270,132.3 L211.9,74.2 C204.4,66.7 190.1,60.8 179.5,60.8 L22.9,60.8 C10.3,60.7 -0,71 -0,83.7 L-0,186.3 C-0,199 10.3,209.2 22.9,209.2 L28.2,209.2 C31,217.1 38.5,222.7 47.3,222.7 C56.1,222.7 63.6,217.1 66.4,209.2 L217.2,209.2 C220,217.1 227.5,222.7 236.3,222.7 C245.1,222.7 252.6,217.1 255.4,209.2 L260.7,209.2 C273.4,209.2 283.6,198.9 283.6,186.3 L283.6,164.7 C283.5,154 277.6,139.8 270,132.3 z M260.4,141.7 L212.1,141.7 C206.9,141.7 202.7,137.5 202.7,132.3 L202.7,84 L260.4,141.7 z M189.1,76.1 L189.1,126.2 L108,126.2 L108,74.2 L179.4,74.2 C182.3,74.2 185.7,75 189.1,76.1 z M22.9,74.2 L94.5,74.2 L94.5,126.1 L13.5,126.1 L13.5,83.7 C13.5,78.5 17.7,74.2 22.9,74.2 z M47.3,209.2 C43.6,209.2 40.6,206.2 40.6,202.5 C40.6,198.8 43.6,195.8 47.3,195.8 C51,195.8 54,198.8 54,202.5 C54,206.2 51,209.2 47.3,209.2 z M236.2,209.2 C232.5,209.2 229.5,206.2 229.5,202.5 C229.5,198.8 232.5,195.8 236.2,195.8 C239.9,195.8 242.9,198.8 242.9,202.5 C242.9,206.2 239.9,209.2 236.2,209.2 z M270,186.3 C270,191.5 265.8,195.7 260.6,195.7 L255.3,195.7 C252.5,187.8 245,182.2 236.2,182.2 C227.4,182.2 219.9,187.8 217.1,195.7 L66.3,195.7 C63.5,187.8 56,182.2 47.2,182.2 C38.4,182.2 30.9,187.8 28.1,195.7 L22.8,195.7 C17.6,195.7 13.4,191.5 13.4,186.3 L13.4,139.7 L190.3,139.7 C193.4,148.7 202,155.2 212,155.2 L268.1,155.2 C269.2,158.5 269.9,161.9 269.9,164.7 L269.9,186.3 z" fill="#010202"/>
  </g>
</svg>
