<?xml version="1.0" encoding="UTF-8"?>
<!DOCTYPE svg PUBLIC "-//W3C//DTD SVG 1.1//EN" "http://www.w3.org/Graphics/SVG/1.1/DTD/svg11.dtd">
<svg version="1.1" xmlns="http://www.w3.org/2000/svg" xmlns:xlink="http://www.w3.org/1999/xlink" x="0" y="0" width="283.5" height="283.5" viewBox="0, 0, 283.5, 283.5">
  <g id="Background">
    <rect x="0" y="0" width="283.5" height="283.5" fill="#FFFFFF"/>
  </g>
  <g id="Layer_1">
    <path d="M143.9,167.5 C147.6,167.5 150.7,170.5 150.7,174.3 L150.7,276.7 C150.7,280.5 147.6,283.5 143.9,283.5 L6.9,283.5 C3.1,283.5 0.1,280.4 0.1,276.7 L0.1,174.3 C0.1,170.5 3.2,167.5 6.9,167.5 L143.9,167.5 z M137.1,181 L13.6,181 L13.6,269.9 L137.1,269.9 L137.1,181 z M49.6,229.7 C53.4,229.7 56.4,232.8 56.4,236.5 L56.4,254 C56.4,257.8 53.3,260.8 49.6,260.8 C45.8,260.8 42.8,257.7 42.8,254 L42.8,236.5 C42.8,232.7 45.9,229.7 49.6,229.7 z M75.4,229.7 C79.2,229.7 82.2,232.8 82.2,236.5 L82.2,254 C82.2,257.8 79.1,260.8 75.4,260.8 C71.6,260.8 68.6,257.7 68.6,254 L68.6,236.5 C68.6,232.7 71.7,229.7 75.4,229.7 z M101.2,229.7 C105,229.7 108,232.8 108,236.5 L108,254 C108,257.8 104.9,260.8 101.2,260.8 C97.4,260.8 94.4,257.7 94.4,254 L94.4,236.5 C94.4,232.7 97.4,229.7 101.2,229.7 z M101.2,190.2 C105,190.2 108,193.3 108,197 L108,214.5 C108,218.3 104.9,221.3 101.2,221.3 C97.4,221.3 94.4,218.3 94.4,214.5 L94.4,197 C94.4,193.2 97.4,190.2 101.2,190.2 z M75.4,190.2 C79.2,190.2 82.2,193.3 82.2,197 L82.2,214.5 C82.2,218.3 79.1,221.3 75.4,221.3 C71.6,221.3 68.6,218.3 68.6,214.5 L68.6,197 C68.6,193.2 71.7,190.2 75.4,190.2 z M49.6,190.2 C53.4,190.2 56.4,193.3 56.4,197 L56.4,214.5 C56.4,218.3 53.3,221.3 49.6,221.3 C45.8,221.3 42.8,218.3 42.8,214.5 L42.8,197 C42.8,193.2 45.9,190.2 49.6,190.2 z M276.6,0 L139.6,0 C135.9,-0 132.8,3 132.8,6.8 L132.8,148.6 C132.8,152.3 135.8,155.4 139.6,155.4 C143.3,155.4 146.4,152.4 146.4,148.6 L146.4,13.6 L269.9,13.6 L269.9,237 L169.9,237 C166.2,237 163.1,240 163.1,243.8 C163.1,247.5 166.1,250.6 169.9,250.6 L276.6,250.6 C280.3,250.6 283.4,247.6 283.4,243.8 L283.4,6.8 C283.4,3 280.4,-0 276.6,0 z M233.9,189 C230.1,189 227.1,192 227.1,195.8 L227.1,213.3 C227.1,217 230.1,220.1 233.9,220.1 C237.7,220.1 240.7,217.1 240.7,213.3 L240.7,195.8 C240.7,192.1 237.7,189 233.9,189 z M208.1,189 C204.3,189 201.3,192 201.3,195.8 L201.3,213.3 C201.3,217 204.3,220.1 208.1,220.1 C211.9,220.1 214.9,217.1 214.9,213.3 L214.9,195.8 C214.9,192.1 211.9,189 208.1,189 z M182.3,189 C178.5,189 175.5,192 175.5,195.8 L175.5,213.3 C175.5,217 178.5,220.1 182.3,220.1 C186.1,220.1 189.1,217.1 189.1,213.3 L189.1,195.8 C189.1,192.1 186.1,189 182.3,189 z M182.3,149.3 C178.5,149.3 175.5,152.3 175.5,156.1 L175.5,173.6 C175.5,177.3 178.5,180.4 182.3,180.4 C186.1,180.4 189.1,177.4 189.1,173.6 L189.1,156.1 C189.1,152.4 186.1,149.3 182.3,149.3 z M208.1,149.3 C204.3,149.3 201.3,152.3 201.3,156.1 L201.3,173.6 C201.3,177.3 204.3,180.4 208.1,180.4 C211.9,180.4 214.9,177.4 214.9,173.6 L214.9,156.1 C214.9,152.4 211.9,149.3 208.1,149.3 z M233.9,149.3 C230.1,149.3 227.1,152.3 227.1,156.1 L227.1,173.6 C227.1,177.3 230.1,180.4 233.9,180.4 C237.7,180.4 240.7,177.4 240.7,173.6 L240.7,156.1 C240.7,152.4 237.7,149.3 233.9,149.3 z M233.9,109.6 C230.1,109.6 227.1,112.6 227.1,116.4 L227.1,133.9 C227.1,137.6 230.1,140.7 233.9,140.7 C237.7,140.7 240.7,137.7 240.7,133.9 L240.7,116.4 C240.7,112.7 237.7,109.6 233.9,109.6 z M208.1,109.6 C204.3,109.6 201.3,112.6 201.3,116.4 L201.3,133.9 C201.3,137.6 204.3,140.7 208.1,140.7 C211.9,140.7 214.9,137.7 214.9,133.9 L214.9,116.4 C214.9,112.7 211.9,109.6 208.1,109.6 z M182.3,109.6 C178.5,109.6 175.5,112.6 175.5,116.4 L175.5,133.9 C175.5,137.6 178.5,140.7 182.3,140.7 C186.1,140.7 189.1,137.7 189.1,133.9 L189.1,116.4 C189.1,112.7 186.1,109.6 182.3,109.6 z M182.3,69.9 C178.5,69.9 175.5,72.9 175.5,76.7 L175.5,94.1 C175.5,97.8 178.5,100.9 182.3,100.9 C186.1,100.9 189.1,97.9 189.1,94.1 L189.1,76.7 C189.1,73 186.1,69.9 182.3,69.9 z M208.1,69.9 C204.3,69.9 201.3,72.9 201.3,76.7 L201.3,94.1 C201.3,97.8 204.3,100.9 208.1,100.9 C211.9,100.9 214.9,97.9 214.9,94.1 L214.9,76.7 C214.9,73 211.9,69.9 208.1,69.9 z M233.9,69.9 C230.1,69.9 227.1,72.9 227.1,76.7 L227.1,94.1 C227.1,97.8 230.1,100.9 233.9,100.9 C237.7,100.9 240.7,97.9 240.7,94.1 L240.7,76.7 C240.7,73 237.7,69.9 233.9,69.9 z M233.9,30.4 C230.1,30.4 227.1,33.4 227.1,37.2 L227.1,54.7 C227.1,58.4 230.1,61.5 233.9,61.5 C237.6,61.5 240.7,58.5 240.7,54.7 L240.7,37.2 C240.7,33.5 237.7,30.4 233.9,30.4 z M208.1,30.4 C204.3,30.4 201.3,33.4 201.3,37.2 L201.3,54.7 C201.3,58.4 204.3,61.5 208.1,61.5 C211.8,61.5 214.9,58.5 214.9,54.7 L214.9,37.2 C214.9,33.5 211.9,30.4 208.1,30.4 z M182.3,30.4 C178.5,30.4 175.5,33.4 175.5,37.2 L175.5,54.7 C175.5,58.4 178.5,61.5 182.3,61.5 C186,61.5 189.1,58.5 189.1,54.7 L189.1,37.2 C189.1,33.5 186.1,30.4 182.3,30.4 z" fill="#000000"/>
  </g>
</svg>
