<?xml version="1.0" encoding="UTF-8"?>
<!DOCTYPE svg PUBLIC "-//W3C//DTD SVG 1.1//EN" "http://www.w3.org/Graphics/SVG/1.1/DTD/svg11.dtd">
<svg version="1.1" xmlns="http://www.w3.org/2000/svg" xmlns:xlink="http://www.w3.org/1999/xlink" x="0" y="0" width="283.5" height="283.5" viewBox="0, 0, 283.5, 283.5">
  <g id="Background">
    <rect x="0" y="0" width="283.5" height="283.5" fill="#FFFFFF"/>
  </g>
  <g id="Layer_1">
    <path d="M141.7,0 C219.9,0 283.4,63.6 283.4,141.7 C283.4,219.8 219.8,283.4 141.7,283.4 C63.6,283.4 0,219.8 0,141.7 C0,63.6 63.6,0 141.7,0 z M141.7,13.5 C116.7,13.5 94.5,34.2 80.7,66.1 C85.2,66.8 89.9,67.4 94.6,68 C98.3,68.4 100.9,71.8 100.5,75.5 C100.1,79 97.2,81.5 93.8,81.5 L93,81.5 C87.1,80.8 81.3,80 75.8,79.1 C70.2,95.8 66.8,114.8 66.2,135.1 L97.1,135.1 C100.8,135.1 103.8,138.1 103.8,141.8 C103.8,145.5 100.8,148.5 97.1,148.5 L66.2,148.5 C66.8,168.8 70.2,187.8 75.8,204.5 C81.5,203.5 87.5,202.7 93.7,202 C97.4,201.5 100.7,204.2 101.2,207.9 C101.7,211.6 99,215 95.3,215.4 C90.3,216 85.4,216.7 80.7,217.4 C94.5,249.3 116.7,270 141.7,270 C166.7,270 188.9,249.3 202.7,217.4 C198,216.6 193.2,216 188.3,215.4 C184.6,215 182,211.6 182.3,207.8 C182.8,204.1 186.1,201.5 189.8,201.9 C195.9,202.6 201.9,203.4 207.6,204.4 C213.2,187.7 216.6,168.7 217.2,148.4 L186.2,148.4 C182.5,148.4 179.5,145.4 179.5,141.7 C179.5,138 182.5,135 186.2,135 L217.2,135 C216.6,114.7 213.2,95.7 207.6,79 C202.3,79.9 196.8,80.7 191.1,81.4 L190.3,81.4 C186.9,81.4 184,78.8 183.6,75.4 C183.2,71.7 185.8,68.3 189.5,67.9 C194,67.4 198.4,66.8 202.7,66.1 C188.9,34.2 166.7,13.5 141.7,13.5 z M141.8,110.6 C145.5,110.6 148.5,113.6 148.5,117.3 L148.5,216.7 L163.3,216.7 C167.1,216.7 170.1,219.7 170.1,223.4 C170.1,227.1 167.1,230.1 163.4,230.1 L120.2,230.1 C116.5,230.1 113.5,227.1 113.5,223.4 C113.5,219.7 116.5,216.7 120.2,216.7 L135,216.7 L135,124 L124.3,124 C120.6,124 117.6,121 117.6,117.3 C117.6,113.6 120.6,110.6 124.3,110.6 L141.8,110.6 z M141.7,53.9 C153.8,53.9 163.7,63.8 163.7,76 C163.7,88.1 153.9,98 141.7,98 C129.6,98 119.7,88.1 119.7,76 C119.7,63.8 129.5,53.9 141.7,53.9 z M141.7,67.4 C137,67.4 133.2,71.2 133.2,76 C133.2,80.7 137,84.5 141.7,84.5 C146.4,84.5 150.2,80.7 150.2,76 C150.2,71.2 146.4,67.4 141.7,67.4 z M67.4,219.8 C59.2,221.5 51.7,223.5 44.9,225.7 C57.9,240.7 74.4,252.7 93,260.4 C82.8,249.8 74.1,235.9 67.4,219.8 z M216,219.7 C209.3,235.9 200.6,249.7 190.4,260.3 C209.1,252.7 225.6,240.7 238.5,225.6 C231.8,223.4 224.2,221.4 216,219.7 z M52.8,148.5 L13.7,148.5 C15,172.9 23.1,195.6 36.2,214.5 C36.5,214.3 36.8,214.1 37.2,214.1 C44.8,211.4 53.3,209 62.7,207 C56.9,189.3 53.4,169.5 52.8,148.5 z M269.8,148.5 L230.7,148.5 C230.1,169.5 226.6,189.3 220.8,207 C230.2,209.1 238.8,211.4 246.3,214.1 C246.7,214.2 247,214.3 247.3,214.5 C260.4,195.5 268.5,172.9 269.8,148.5 z M247.3,69 C247,69.2 246.6,69.4 246.3,69.5 C238.7,72.1 230.2,74.5 220.8,76.5 C226.6,94.2 230.1,114 230.7,135 L269.8,135 C268.5,110.6 260.4,87.9 247.3,69 z M36.2,69 C23.1,87.9 14.9,110.6 13.7,135 L52.8,135 C53.4,114 56.9,94.2 62.7,76.5 C53.3,74.4 44.7,72.1 37.2,69.4 C36.8,69.3 36.5,69.2 36.2,69 z M93,23.1 C74.4,30.8 57.9,42.8 44.9,57.8 C51.6,60 59.2,62 67.4,63.7 C74.1,47.6 82.9,33.7 93,23.1 z M190.5,23.1 C200.7,33.7 209.4,47.6 216.1,63.7 C224.3,62 231.8,60 238.6,57.8 C225.6,42.8 209.1,30.8 190.5,23.1 z" fill="#000000"/>
  </g>
</svg>
