<?xml version="1.0" encoding="UTF-8"?>
<!DOCTYPE svg PUBLIC "-//W3C//DTD SVG 1.1//EN" "http://www.w3.org/Graphics/SVG/1.1/DTD/svg11.dtd">
<svg version="1.1" xmlns="http://www.w3.org/2000/svg" xmlns:xlink="http://www.w3.org/1999/xlink" x="0" y="0" width="283.5" height="283.5" viewBox="0, 0, 283.5, 283.5">
  <g id="Background">
    <rect x="0" y="0" width="283.5" height="283.5" fill="#FFFFFF"/>
  </g>
  <g id="Layer_1">
    <path d="M282.9,167.4 L276.8,140.6 C274.2,129.2 263,120.3 251.4,120.3 L206.5,120.3 L165.3,79.1 C162.8,76.6 158.6,76.6 156.1,79.1 C153.6,81.6 153.6,85.8 156.1,88.3 L188.1,120.3 L73.8,120.3 L73.8,111.1 C73.8,107.5 70.9,104.6 67.3,104.6 C63.7,104.6 60.8,107.5 60.8,111.1 L60.8,120.3 L22.1,120.3 C9.9,120.3 0,130.2 0,142.4 L0,168.5 C0,180.7 9.5,190.6 21.3,190.6 L30.5,190.6 C33.3,199.6 41.7,206.2 51.7,206.2 C61.6,206.2 70.1,199.6 72.9,190.6 L205,190.6 C207.8,199.6 216.2,206.2 226.2,206.2 C236.1,206.2 244.6,199.6 247.4,190.6 L264.5,190.6 C270.6,190.6 276.1,188.1 279.6,183.7 C283,179.3 284.3,173.4 282.9,167.4 z M51.7,193.2 C46.7,193.2 42.6,189.1 42.6,184.1 C42.6,179.1 46.7,175 51.7,175 C56.7,175 60.8,179.1 60.8,184.1 C60.8,189.2 56.7,193.2 51.7,193.2 z M226.2,193.2 C221.2,193.2 217.1,189.1 217.1,184.1 C217.1,179.1 221.2,175 226.2,175 C231.2,175 235.3,179.1 235.3,184.1 C235.3,189.2 231.2,193.2 226.2,193.2 z M269.3,175.6 C268.3,176.9 266.5,177.6 264.4,177.6 L247.3,177.6 C244.5,168.6 236.1,162 226.1,162 C216.2,162 207.7,168.6 204.9,177.6 L72.9,177.6 C70.1,168.6 61.7,162 51.7,162 C41.8,162 33.3,168.6 30.5,177.6 L21.3,177.6 C16.7,177.6 13,173.5 13,168.5 L13,142.4 C13,137.4 17.1,133.3 22.1,133.3 L251.3,133.3 C256.9,133.3 262.8,138.1 264,143.5 L270.1,170.3 C270.7,172.4 270.4,174.3 269.3,175.6 z" fill="#010202"/>
  </g>
</svg>
