<?xml version="1.0" encoding="UTF-8"?>
<!DOCTYPE svg PUBLIC "-//W3C//DTD SVG 1.1//EN" "http://www.w3.org/Graphics/SVG/1.1/DTD/svg11.dtd">
<svg version="1.1" xmlns="http://www.w3.org/2000/svg" xmlns:xlink="http://www.w3.org/1999/xlink" x="0" y="0" width="283.5" height="283.5" viewBox="0, 0, 283.5, 283.5">
  <g id="Background">
    <rect x="0" y="0" width="283.5" height="283.5" fill="#FFFFFF"/>
  </g>
  <g id="Layer_1">
    <path d="M280.5,229.7 C280.5,229.2 280.4,228.7 280.3,228.2 L280.3,130.2 C280.3,119.3 271.4,110.5 260.6,110.5 L235.4,110.5 C235.5,109.8 235.6,109.1 235.6,108.4 L235.6,54.4 C235.6,47.3 229.8,41.5 222.7,41.5 L204.2,41.5 C197.1,41.5 191.3,47.3 191.3,54.4 L191.3,108.4 C191.3,109.1 191.4,109.8 191.5,110.5 L162.7,110.5 C162.8,109.8 162.9,109.1 162.9,108.4 L162.9,54.4 C162.9,47.3 157.1,41.5 150,41.5 L131.5,41.5 C124.4,41.5 118.6,47.3 118.6,54.4 L118.6,108.4 C118.6,109.1 118.7,109.8 118.8,110.5 L89.8,110.5 C89.9,109.8 90,109.1 90,108.4 L90,54.4 C90,47.3 84.2,41.5 77.1,41.5 L58.6,41.5 C51.5,41.5 45.7,47.3 45.7,54.4 L45.7,108.4 C45.7,109.1 45.8,109.8 45.9,110.5 L23.8,110.5 C12.9,110.5 4.1,119.4 4.1,130.2 L4.1,263.8 C4.1,274.7 13,283.5 23.8,283.5 L260.5,283.5 C271.4,283.5 280.2,274.6 280.2,263.8 L280.2,231.3 C280.4,230.7 280.5,230.2 280.5,229.7 z M203.3,54.4 C203.3,54 203.7,53.6 204.1,53.6 L222.6,53.6 C223,53.6 223.4,54 223.4,54.4 L223.4,108.4 C223.4,108.8 223,109.2 222.6,109.2 L204.1,109.2 C203.7,109.2 203.3,108.8 203.3,108.4 L203.3,54.4 z M130.5,54.4 C130.5,54 130.9,53.6 131.3,53.6 L149.8,53.6 C150.2,53.6 150.6,54 150.6,54.4 L150.6,108.4 C150.6,108.8 150.2,109.2 149.8,109.2 L131.3,109.2 C130.9,109.2 130.5,108.8 130.5,108.4 L130.5,54.4 z M57.8,54.4 C57.8,54 58.2,53.6 58.6,53.6 L77.1,53.6 C77.5,53.6 77.9,54 77.9,54.4 L77.9,108.4 C77.9,108.8 77.5,109.2 77.1,109.2 L58.6,109.2 C58.2,109.2 57.8,108.8 57.8,108.4 L57.8,54.4 z M16.2,179.1 L268.2,179.1 L268.2,223.6 L16.2,223.6 L16.2,179.1 z M23.8,122.5 L260.5,122.5 C264.7,122.5 268.2,125.9 268.2,130.2 L268.2,167 L16.2,167 L16.2,130.1 C16.2,125.9 19.6,122.5 23.8,122.5 z M260.5,271.4 L23.8,271.4 C19.6,271.4 16.1,268 16.1,263.7 L16.1,235.7 L268.1,235.7 L268.1,263.7 C268.2,267.9 264.7,271.4 260.5,271.4 z M67.9,30.4 C64.5,30.4 61.8,27.7 61.9,24.4 L61.9,6 C61.9,2.7 64.6,0 67.9,0 C71.2,0 73.9,2.7 73.9,6 L73.9,24.4 C73.9,27.7 71.2,30.4 67.9,30.4 z M140.6,30.4 C137.3,30.4 134.6,27.7 134.6,24.4 L134.6,6 C134.6,2.7 137.3,0 140.6,0 C143.9,0 146.6,2.7 146.6,6 L146.6,24.4 C146.6,27.7 143.9,30.4 140.6,30.4 z M213.3,30.4 C210,30.4 207.3,27.7 207.3,24.4 L207.3,6 C207.3,2.7 210,0 213.3,0 C216.6,0 219.3,2.7 219.3,6 L219.3,24.4 C219.3,27.7 216.6,30.4 213.3,30.4 z" fill="#010202"/>
  </g>
</svg>
