<?xml version="1.0" encoding="UTF-8"?>
<!DOCTYPE svg PUBLIC "-//W3C//DTD SVG 1.1//EN" "http://www.w3.org/Graphics/SVG/1.1/DTD/svg11.dtd">
<svg version="1.1" xmlns="http://www.w3.org/2000/svg" xmlns:xlink="http://www.w3.org/1999/xlink" x="0" y="0" width="283.5" height="283.5" viewBox="0, 0, 283.5, 283.5">
  <g id="Background">
    <rect x="0" y="0" width="283.5" height="283.5" fill="#FFFFFF"/>
  </g>
  <g id="Layer_1">
    <path d="M262.5,97.7 C266.2,97.7 269.3,100.8 269.2,104.5 L269.2,276.7 C269.2,280.4 266.2,283.4 262.5,283.4 L49.4,283.4 C45.7,283.4 42.7,280.4 42.7,276.7 C42.7,273 45.7,270 49.4,270 L255.8,270 L255.8,104.4 C255.8,100.7 258.8,97.7 262.5,97.7 z M169.8,23 L217.8,71 L169.8,71 L169.8,23 z M156.3,13.5 L156.3,77.8 C156.3,81.5 159.3,84.5 163,84.5 L227.3,84.5 L227.3,241.5 L27.7,241.5 L27.7,13.5 L156.3,13.5 z M163,0 L21,0 C17.3,0 14.3,3 14.3,6.7 L14.3,248.3 C14.3,252 17.3,255 21,255 L234.1,255 C237.8,255 240.8,252 240.8,248.3 L240.8,77.8 C240.8,77.4 240.8,76.9 240.7,76.5 C240.7,76.3 240.6,76.1 240.5,75.9 C240.4,75.7 240.4,75.4 240.3,75.2 L240,74.6 C239.9,74.4 239.8,74.2 239.7,74.1 C239.5,73.7 239.2,73.4 238.9,73.1 L167.8,2 C167.5,1.7 167.1,1.4 166.8,1.2 C166.6,1.1 166.5,1 166.3,0.9 C166.1,0.8 165.9,0.6 165.6,0.6 C165.4,0.5 165.1,0.5 164.9,0.4 C164.7,0.3 164.5,0.3 164.3,0.2 C163.9,0 163.5,0 163,0 z" fill="#000000"/>
  </g>
</svg>
