<?xml version="1.0" encoding="UTF-8"?>
<!DOCTYPE svg PUBLIC "-//W3C//DTD SVG 1.1//EN" "http://www.w3.org/Graphics/SVG/1.1/DTD/svg11.dtd">
<svg version="1.1" xmlns="http://www.w3.org/2000/svg" xmlns:xlink="http://www.w3.org/1999/xlink" x="0" y="0" width="283.5" height="283.5" viewBox="0, 0, 283.5, 283.5">
  <g id="Background">
    <rect x="0" y="0" width="283.5" height="283.5" fill="#FFFFFF"/>
  </g>
  <g id="Layer_1">
    <path d="M181.2,110.3 C184.5,110.3 187.1,113 187.2,116.3 L187.2,274 C187.2,277.3 184.5,280 181.2,280 L102.4,280 C99.1,280 96.4,277.3 96.4,274 L96.4,116.3 C96.4,113 99.1,110.3 102.4,110.3 L181.2,110.3 z M115.5,147.6 L108.3,147.6 L108.3,268 L175.3,268 L175.3,160.7 L168.1,160.7 C164.1,160.7 160.9,163.9 160.9,167.9 L160.9,180.4 C160.9,190.9 152.3,199.5 141.8,199.5 C131.3,199.5 122.7,190.9 122.7,180.4 L122.7,154.8 C122.7,150.8 119.5,147.6 115.5,147.6 z M175.2,122.2 L108.2,122.2 L108.2,135.6 L115.4,135.6 C125.9,135.6 134.5,144.2 134.5,154.7 L134.5,180.3 C134.5,184.3 137.7,187.5 141.7,187.5 C145.7,187.5 148.9,184.3 148.9,180.3 L148.9,167.8 C148.9,157.3 157.5,148.7 168,148.7 L175.2,148.7 L175.2,122.2 z M141.6,19.1 C147.2,26.2 156.3,38.2 161.2,45.4 C166.7,53.6 165.2,65.5 157.7,73 C149.1,81.6 134.2,81.6 125.6,73 C118.2,65.6 116.8,53.9 122.3,45.1 C126.7,38.1 136,26.2 141.6,19.1 z M141.7,3.5 C139.8,3.6 138.2,4.3 137,5.7 C136.3,6.6 119.1,27.6 112.2,38.7 C103.8,52.1 105.9,70.1 117.2,81.4 C123.7,88 132.4,91.6 141.6,91.6 C150.9,91.6 159.5,88 166.1,81.5 C177.8,69.8 179.9,51.8 171.1,38.8 C163.6,27.7 147,6.7 146.3,5.8 C145.2,4.4 143.5,3.5 141.7,3.5 z" fill="#010202"/>
  </g>
</svg>
