<?xml version="1.0" encoding="UTF-8"?>
<!DOCTYPE svg PUBLIC "-//W3C//DTD SVG 1.1//EN" "http://www.w3.org/Graphics/SVG/1.1/DTD/svg11.dtd">
<svg version="1.1" xmlns="http://www.w3.org/2000/svg" xmlns:xlink="http://www.w3.org/1999/xlink" x="0" y="0" width="200" height="200" viewBox="0, 0, 200, 200">
  <g id="Layer_1">
    <path d="M26.287,97.741 L20.974,97.741 L20.974,90.392 L10,90.392 L10,109.608 L20.974,109.608 L20.974,102.16 L26.287,102.16 L26.287,109.608 L37.261,109.608 L37.261,90.392 L26.287,90.392 z M55.31,103.228 L55.31,103.228 L55.31,90.392 L66.284,90.392 L66.284,103.401 C66.284,105.363 64.596,109.608 58.314,109.608 L46.819,109.608 C40.538,109.608 38.85,105.338 38.85,103.401 L38.85,90.392 L49.823,90.392 L49.823,103.228 C49.823,104.543 50.618,106.058 52.554,106.058 C54.516,106.058 55.31,104.543 55.31,103.228 z M88.927,90.392 L101.49,90.392 L101.49,109.608 L91.41,109.608 L91.41,101.366 L86.891,109.608 L82.298,109.608 L77.779,101.366 L77.779,109.608 L67.699,109.608 L67.699,90.392 L80.262,90.392 L84.607,98.188 z M124.157,90.392 L136.72,90.392 L136.72,109.608 L126.64,109.608 L126.64,101.366 L122.121,109.608 L117.528,109.608 L113.01,101.366 L113.01,109.608 L102.905,109.608 L102.905,90.392 L115.492,90.392 L119.812,98.188 z M137.961,90.392 L159.388,90.392 L159.388,95.705 L149.283,95.705 L149.283,97.741 L159.388,97.741 L159.388,102.16 L149.283,102.16 L149.283,104.295 L159.388,104.295 L159.388,109.608 L137.961,109.608 z M174.781,99.255 L174.781,99.255 C177.611,99.255 177.859,94.91 175.128,94.91 L171.777,94.91 L171.777,99.255 L174.781,99.255 z M188.411,96.772 L188.411,96.772 C188.411,99.156 186.549,102.88 184.24,102.781 L190,109.583 L176.469,109.583 L171.777,103.997 L171.777,109.583 L160.803,109.583 L160.803,90.392 L182.651,90.392 C186.897,90.392 188.411,94.389 188.411,96.772 z" fill="#000000"/>
  </g>
</svg>
