<?xml version="1.0" encoding="UTF-8"?>
<!DOCTYPE svg PUBLIC "-//W3C//DTD SVG 1.1//EN" "http://www.w3.org/Graphics/SVG/1.1/DTD/svg11.dtd">
<svg version="1.1" xmlns="http://www.w3.org/2000/svg" xmlns:xlink="http://www.w3.org/1999/xlink" x="0" y="0" width="200" height="200" viewBox="0, 0, 200, 200">
  <g id="Layer_1">
    <path d="M100,185.492 C52.788,185.492 14.509,147.212 14.509,100 C14.509,52.788 52.788,14.509 100,14.509 C147.212,14.509 185.492,52.788 185.492,100 C185.492,147.212 147.212,185.492 100,185.492 M100,10 C50.279,10 10,50.279 10,100 C10,149.721 50.279,190 100,190 C149.721,190 190,149.721 190,100 C190,50.279 149.679,10 100,10 M100,186.215 C111.654,186.215 122.925,183.918 133.559,179.452 C143.809,175.113 153.039,168.904 160.95,160.992 C168.861,153.081 175.071,143.852 179.409,133.601 C183.918,122.968 186.172,111.697 186.172,100.043 C186.172,88.388 183.875,77.117 179.409,66.484 C175.071,56.233 168.861,47.004 160.95,39.093 C153.039,31.181 143.809,24.972 133.559,20.633 C122.925,16.125 111.654,13.871 100,13.871 C88.346,13.871 77.075,16.167 66.441,20.633 C56.191,24.972 46.961,31.181 39.05,39.093 C31.139,47.004 24.929,56.233 20.591,66.484 C16.082,77.117 13.828,88.388 13.828,100.043 C13.828,111.697 16.125,122.968 20.591,133.601 C24.929,143.852 31.139,153.081 39.05,160.992 C46.961,168.904 56.191,175.113 66.441,179.452 C77.075,183.918 88.346,186.215 100,186.215 M100,10.723 C112.037,10.723 123.733,13.062 134.75,17.741 C145.383,22.25 154.953,28.672 163.119,36.881 C171.328,45.09 177.75,54.617 182.259,65.25 C186.895,76.267 189.277,87.963 189.277,100 C189.277,112.037 186.938,123.733 182.259,134.75 C177.75,145.383 171.328,154.91 163.119,163.119 C154.91,171.328 145.383,177.75 134.75,182.259 C123.733,186.895 112.037,189.277 100,189.277 C87.963,189.277 76.267,186.938 65.25,182.259 C54.617,177.75 45.047,171.328 36.881,163.119 C28.715,154.91 22.25,145.383 17.741,134.75 C13.105,123.733 10.723,112.037 10.723,100 C10.723,87.963 13.105,76.267 17.741,65.25 C22.25,54.617 28.672,45.09 36.881,36.881 C45.09,28.672 54.617,22.25 65.25,17.741 C76.224,13.062 87.921,10.723 100,10.723 M46.961,45.005 C48.195,46.026 48.195,47.472 47.344,48.492 L40.794,56.319 L36.711,52.873 L43.346,44.962 C44.112,44.026 45.855,44.069 46.961,45.005 M55,54.149 L48.11,62.358 L43.771,58.743 L50.747,50.449 C51.512,49.513 53.256,49.258 54.447,50.236 C55.766,51.342 55.936,53.043 55,54.149 z M152.996,68.568 L172.051,59.041 L168.776,55.085 L156.654,61.04 L164.395,49.768 L160.865,45.515 L148.318,51.087 L156.399,40.241 L153.124,36.285 L140.236,53.341 L144.149,57.977 L156.484,52.703 L156.526,52.746 L149.126,63.889 L152.996,68.568 z M100,157.335 C131.645,157.335 157.292,131.645 157.335,100 C157.335,68.313 131.645,42.665 100,42.665 C68.313,42.665 42.665,68.355 42.665,100 C42.665,131.687 68.355,157.335 100,157.335 M29.905,54.83 L47.259,69.376 L58.871,55.51 C61.508,52.363 61.933,49.215 59.126,46.493 C57.297,44.707 54.49,44.197 51.853,45.813 C52.363,44.537 52.15,43.176 51.895,42.453 C50.747,40.411 50.364,40.156 49.428,39.348 C46.408,36.796 43.218,38.965 40.922,41.687 L29.905,54.83 z M86.9,17.656 L86.9,17.656 L86.942,40.241 L91.451,40.241 L91.451,24.461 L97.405,40.241 L102.339,40.241 L108.294,24.461 L108.294,40.241 L112.802,40.241 L112.802,17.656 L105.997,17.656 L99.872,33.776 L93.705,17.656 L86.9,17.656 z M100,14.509 C147.212,14.509 185.492,52.788 185.492,100 C185.492,147.212 147.212,185.492 100,185.492 C52.788,185.492 14.509,147.212 14.509,100 C14.509,52.788 52.788,14.509 100,14.509 M46.068,100 C46.068,70.227 70.227,46.111 99.957,46.111 L99.957,100 L46.068,100 M100,100 L153.889,100 C153.889,129.773 129.773,153.889 100,153.889 L100,100 z" fill="#000000"/>
  </g>
</svg>
