<?xml version="1.0" encoding="UTF-8"?>
<!DOCTYPE svg PUBLIC "-//W3C//DTD SVG 1.1//EN" "http://www.w3.org/Graphics/SVG/1.1/DTD/svg11.dtd">
<svg version="1.1" xmlns="http://www.w3.org/2000/svg" xmlns:xlink="http://www.w3.org/1999/xlink" x="0" y="0" width="200" height="200" viewBox="0, 0, 200, 200">
  <g id="Layer_1">
    <path d="M175.757,53.649 C175.143,52.913 174.284,52.053 173.67,51.317 C155.252,31.548 125.171,27.251 99.877,27.251 C74.338,27.251 43.397,31.548 25.225,52.544 C24.98,52.913 24.611,53.281 24.366,53.649 C15.525,64.332 10,79.434 10,99.816 C10,162.681 61.078,172.749 99.877,172.749 C138.799,172.749 190,162.681 190,99.816 C190,79.434 184.598,64.209 175.757,53.649 z M41.31,63.595 C53.465,44.932 76.426,40.389 99.877,40.389 C123.329,40.389 145.921,44.686 158.199,62.981 C158.445,63.349 158.69,63.84 158.936,64.332 C137.94,76.733 114.12,77.224 99.877,107.92 C84.284,78.083 60.709,77.838 40.082,65.928 C40.45,65.191 40.941,64.454 41.31,63.595 z M99.877,159.611 C65.007,159.857 32.469,149.789 32.469,99.816 C32.469,96.132 32.469,92.326 33.083,89.134 C33.206,88.397 33.452,87.66 33.574,86.924 C45.239,91.098 56.78,95.027 68.568,98.956 C82.319,104.604 91.528,112.708 99.877,130.88 C108.226,112.708 117.19,103.499 131.064,97.851 C142.974,93.677 154.638,89.379 166.548,85.205 C166.671,85.45 166.671,85.819 166.794,86.064 C167.408,90.116 167.653,94.905 167.653,99.816 C167.776,149.789 134.748,159.98 99.877,159.611 z" fill="#000000"/>
  </g>
</svg>
