<?xml version="1.0" encoding="UTF-8"?>
<!DOCTYPE svg PUBLIC "-//W3C//DTD SVG 1.1//EN" "http://www.w3.org/Graphics/SVG/1.1/DTD/svg11.dtd">
<svg version="1.1" xmlns="http://www.w3.org/2000/svg" xmlns:xlink="http://www.w3.org/1999/xlink" x="0" y="0" width="200" height="200" viewBox="0, 0, 200, 200">
  <g id="Layer_1">
    <path d="M101.912,99.49 L105.864,97.068 L156.346,131.615 z M99.49,29.504 L95.283,95.411 L98.98,97.578 z M97.833,99.363 L77.819,111.218 L94.518,97.323 z M100,14.844 L100,14.844 C146.275,14.844 186.431,53.98 187.578,99.873 C189.108,52.833 148.824,11.53 100,11.53 C51.176,11.53 11.657,51.048 11.657,99.873 C11.657,127.79 24.788,152.776 45.057,168.966 C39.83,163.484 36.006,159.405 32.436,152.649 C21.856,136.969 14.972,118.994 14.972,99.873 C14.972,52.96 53.088,14.844 100,14.844 z M92.224,93.499 L92.224,93.499 L87.125,90.567 L98.088,18.796 C54.235,19.816 18.924,55.637 18.924,99.745 C18.924,114.023 22.62,127.28 28.994,138.881 L85.085,92.096 L90.439,95.156 L29.504,139.773 C29.759,140.028 29.887,140.283 30.014,140.538 L98.853,101.02 L98.853,115.042 L30.524,141.558 C44.674,165.014 70.552,180.822 100,180.822 C129.448,180.822 155.326,165.014 169.476,141.431 L101.147,115.042 L101.147,101.147 L169.986,140.793 C170.241,140.538 170.368,140.283 170.496,140.028 L109.306,95.283 L114.66,92.224 L170.878,139.263 C177.38,127.535 181.076,114.15 181.076,99.873 C181.076,55.51 145.255,19.306 100.892,18.924 L113.385,89.929 L100.892,97.45 L100.127,18.924 C100.127,18.924 100,18.924 100,18.924 C99.873,18.924 99.618,18.924 99.49,18.924 L92.224,93.499 z M100,185.028 L100,185.028 C147.04,185.028 185.156,147.04 185.028,100 C185.028,80.878 175.595,57.04 164.759,48.626 C175.595,62.521 182.606,81.006 182.606,100 C182.606,145.637 145.637,182.606 100,182.606 C58.824,182.606 24.788,152.649 18.414,113.258 C21.091,133.909 31.926,153.414 45.822,165.652 C60.227,178.144 79.476,185.028 100,185.028 z M100,10 L100,10 C149.717,10 190,50.283 190,100 C190,149.717 149.717,190 100,190 C50.283,190 10,149.717 10,100 C10,50.283 50.283,10 100,10 z" fill="#000000"/>
  </g>
</svg>
