<?xml version="1.0" encoding="UTF-8"?>
<!DOCTYPE svg PUBLIC "-//W3C//DTD SVG 1.1//EN" "http://www.w3.org/Graphics/SVG/1.1/DTD/svg11.dtd">
<svg version="1.1" xmlns="http://www.w3.org/2000/svg" xmlns:xlink="http://www.w3.org/1999/xlink" x="0" y="0" width="200" height="200" viewBox="0, 0, 200, 200">
  <g id="text3041">
    <path d="M99.976,31.758 L51.926,10.49 C51.926,10.49 100.024,189.51 99.784,190.49 L148.074,10.697 L99.976,31.758 z M57.83,17.098 L100.12,35.578 L142.41,17.304 L99.928,173.146 C100.12,172.32 57.83,17.098 57.83,17.098 z M99.784,75.945 L102.328,63.401 L121.193,60.614 L102.664,57.981 L99.496,46.47 L96.904,57.775 L78.999,60.51 L96.568,63.659 L99.784,75.945 z M100.12,39.811 L137.897,23.654 L99.928,161.325 C100.12,160.602 62.343,23.499 62.343,23.499 L100.12,39.811 z" fill="#000000"/>
  </g>
</svg>
