<?xml version="1.0" encoding="UTF-8"?>
<!DOCTYPE svg PUBLIC "-//W3C//DTD SVG 1.1//EN" "http://www.w3.org/Graphics/SVG/1.1/DTD/svg11.dtd">
<svg version="1.1" xmlns="http://www.w3.org/2000/svg" xmlns:xlink="http://www.w3.org/1999/xlink" x="0" y="0" width="200" height="200" viewBox="0, 0, 200, 200">
  <g id="Layer_1">
    <path d="M78.328,72.987 C79.156,51.177 86.399,30.091 99.138,12.363 L189.989,12.363 L189.989,16.732 C150.197,28.505 110.152,48.855 78.328,72.987 z M172.547,187.637 C123.753,180.049 85.399,140.809 79.133,91.578 C83.341,87.589 87.732,83.818 92.308,80.254 C121.523,57.535 148.15,42.393 190,26.861 L190,187.637 L172.547,187.637 z M69.578,79.874 C40.743,103.558 20.129,130.289 15.185,155.871 C14.288,160.803 14.334,164.08 14.334,168.081 L10,168.081 L10,12.374 L88.641,12.374 C76.569,31.103 69.555,53.442 69.555,77.391 C69.555,78.219 69.555,79.058 69.578,79.874 z M141.7,187.637 L141.7,187.637 L107.381,187.637 C72.844,187.637 48.596,173.231 47.734,148.098 C47.274,134.785 55.184,117.102 71.556,99.247 C78.857,138.97 105.668,171.886 141.7,187.637 z" fill="#000000"/>
  </g>
</svg>
