<?xml version="1.0" encoding="UTF-8"?>
<!DOCTYPE svg PUBLIC "-//W3C//DTD SVG 1.1//EN" "http://www.w3.org/Graphics/SVG/1.1/DTD/svg11.dtd">
<svg version="1.1" xmlns="http://www.w3.org/2000/svg" xmlns:xlink="http://www.w3.org/1999/xlink" x="0" y="0" width="200" height="200" viewBox="0, 0, 200, 200">
  <g id="_x33_P2o3m_1_">
    <path d="M10,102.417 C10,99.809 10,97.235 10,94.626 C10.07,94.104 10.174,93.617 10.244,93.096 C10.835,88.748 11.078,84.296 12.018,80.017 C20.611,40.226 54.843,11.183 95.443,9.269 C117.569,8.226 137.607,14.313 155.141,27.913 C173.545,42.174 184.782,60.852 188.782,83.843 C189.304,86.8 189.617,89.791 190,92.783 C190,96.643 190,100.47 190,104.33 C189.896,104.783 189.791,105.235 189.722,105.687 C188.713,111.357 188.156,117.165 186.625,122.626 C174.693,164.713 134.546,191.774 90.711,187.287 C69.698,185.165 51.573,176.539 36.579,161.722 C22.211,147.53 13.653,130.313 10.905,110.278 C10.557,107.67 10.278,105.026 10,102.417 z M98.643,19.426 C96.278,19.426 93.842,19.391 91.477,19.426 C90.607,19.426 89.702,19.565 88.833,19.635 C71.334,21.026 55.574,27.009 41.415,37.304 C34.84,42.07 29.343,47.809 26.734,55.635 C25.133,60.47 24.159,65.583 23.498,70.661 C21.167,88.4 22.663,105.896 27.569,123.078 C30.978,135.183 36.336,146.383 43.711,156.574 C49.625,164.678 57.766,169.583 67.02,172.817 C87.58,179.948 108.419,180.331 129.223,174.348 C143.278,170.313 154.793,163.009 161.751,149.13 C171.179,130.348 176.71,110.835 176.884,89.757 C176.954,81.443 176.258,73.13 174.936,64.922 C172.918,52.539 167.004,42.591 156.289,35.809 C138.755,24.678 119.482,19.322 98.643,19.426 z M87.024,136.574 C84.554,136.574 82.188,136.574 79.753,136.574 C79.753,112.47 79.753,88.435 79.753,64.261 C82.118,64.261 84.484,64.261 87.024,64.261 C87.024,88.365 87.024,112.4 87.024,136.574 z M137.468,72.539 C137.468,93.93 137.468,115.148 137.503,136.33 C134.963,136.33 132.667,136.33 129.919,136.33 C129.919,115.078 129.919,93.896 129.919,72.539 C127.17,72.539 124.874,72.539 122.404,72.539 C122.404,69.791 122.404,67.217 122.404,64.47 C129.884,64.47 137.364,64.47 144.983,64.47 C144.983,67.078 144.983,69.722 144.983,72.539 C142.478,72.539 140.077,72.539 137.468,72.539 z M76.169,64.47 C76.169,67.113 76.169,69.652 76.169,72.435 C71.473,72.435 66.915,72.435 62.219,72.435 C62.219,79.635 62.219,86.73 62.219,93.93 C65.837,93.93 69.455,93.93 73.212,93.93 C73.212,96.678 73.212,99.252 73.212,102.035 C69.629,102.035 65.976,102.035 62.149,102.035 C62.149,113.687 62.149,125.061 62.149,136.574 C59.61,136.574 57.244,136.574 54.739,136.574 C54.739,112.539 54.739,88.574 54.739,64.47 C61.801,64.47 68.968,64.47 76.169,64.47 z M102.853,136.33 C100.348,136.33 98.226,136.33 95.964,136.435 C95.964,135.739 95.964,135.148 95.964,134.522 C95.964,111.704 95.964,88.957 95.964,66.209 C95.964,64.191 95.964,64.191 97.982,64.191 C102.679,64.191 107.41,64.226 112.141,64.156 C113.185,64.122 113.742,64.435 114.159,65.374 C116.142,69.409 118.195,73.443 120.143,77.513 C120.491,78.174 120.665,78.904 120.665,79.6 C120.665,98.035 120.665,116.47 120.665,134.939 C120.665,135.391 120.63,135.809 120.595,136.33 C118.09,136.33 115.76,136.33 113.185,136.33 C113.185,124.887 113.185,113.617 113.185,102.139 C109.706,102.139 106.436,102.139 102.853,102.139 C102.853,113.513 102.853,124.852 102.853,136.33 z M37.205,73.722 C37.484,79.252 37.623,85.235 38.11,91.148 C39.675,112.296 44.894,132.574 53.104,152.087 C54.809,156.191 57.487,159.044 61.349,160.922 C63.262,161.861 65.245,162.73 67.228,163.461 C75.578,166.452 84.31,167.774 93.146,168.296 C104.975,169.026 116.734,168.47 128.249,165.339 C134.581,163.6 140.599,161.235 145.539,156.748 C146.061,156.261 146.513,155.67 146.757,155.009 C148.462,150.417 150.131,145.896 151.662,141.235 C159.316,117.583 162.934,93.339 162.308,68.504 C162.203,64.783 162.169,61.026 161.577,57.339 C160.533,50.591 157.576,44.956 151.175,41.756 C148.74,40.539 146.305,39.426 143.765,38.487 C132.041,34.139 119.795,32.678 107.375,32.261 C97.112,31.913 86.884,32.435 76.726,33.861 C67.402,35.148 58.218,37.13 49.486,40.713 C42.876,43.426 38.945,48.4 38.145,55.356 C37.449,61.27 37.484,67.287 37.205,73.722 z M113.116,92.261 C113.116,88.713 113.116,85.2 113.081,81.757 C113.081,81.513 112.976,81.235 112.872,80.991 C111.794,78.348 110.715,75.739 109.602,73.096 C109.463,72.748 109.045,72.226 108.732,72.226 C106.819,72.156 104.94,72.191 103.027,72.191 C103.027,78.974 103.027,85.583 103.027,92.261 C106.332,92.261 109.602,92.261 113.116,92.261 z" fill="#000000"/>
  </g>
</svg>
