<?xml version="1.0" encoding="UTF-8"?>
<!DOCTYPE svg PUBLIC "-//W3C//DTD SVG 1.1//EN" "http://www.w3.org/Graphics/SVG/1.1/DTD/svg11.dtd">
<svg version="1.1" xmlns="http://www.w3.org/2000/svg" xmlns:xlink="http://www.w3.org/1999/xlink" x="0" y="0" width="200" height="200" viewBox="0, 0, 200, 200">
  <g id="Layer_1">
    <path d="M109.797,143.182 C110.841,142.383 113.176,141.585 114.466,141.032 C114.404,139.066 113.606,137.223 114.097,135.565 C114.957,132.617 116.984,131.327 118.95,131.081 C119.072,131.142 119.195,131.388 119.072,131.449 C117.967,132.494 117.537,133.968 117.352,135.565 C117.291,136.179 117.168,138.083 117.721,139.435 C118.888,138.82 121.714,137.838 122.635,137.653 C122.758,135.688 123.065,133.784 123.618,132.371 C124.723,129.607 127.18,127.395 129.637,128.685 C129.76,128.747 129.883,128.992 129.76,129.054 C128.225,129.607 127.242,131.204 126.382,133.047 C126.136,133.599 125.276,136.548 126.259,137.162 C126.259,137.162 126.32,137.162 126.32,137.223 C128.102,136.855 128.409,137.039 130.313,136.855 C130.62,134.951 131.48,133.292 132.217,132.064 C133.323,129.914 136.21,128.194 138.79,129.73 C138.913,129.791 139.035,130.098 138.851,130.098 C137.07,130.467 135.903,131.634 135.289,132.678 C134.981,133.169 133.323,135.442 134.183,136.363 C134.244,136.363 134.367,136.363 134.49,136.363 C136.026,136.302 137.131,136.609 138.728,136.916 C139.22,135.749 139.65,135.626 140.141,135.012 C141.922,132.862 144.932,132.125 145.976,134.152 C146.099,134.275 146.099,134.521 145.976,134.521 C145.055,134.644 143.519,135.135 142.782,136.056 C142.598,136.241 142.107,136.793 141.615,137.838 C143.704,139.435 144.871,140.725 145.424,142.874 C145.546,143.243 145.731,145.454 144.994,144.349 C141.615,140.11 137.07,139.189 130.252,139.865 C122.942,140.54 119.564,141.646 112.254,145.577 C116.308,149.201 110.227,152.764 109.244,147.42 C105.682,152.825 101.935,146.007 106.726,145.024 C101.812,140.233 108.507,138.022 109.797,143.182 L109.797,143.182 z M110.104,129.422 L110.104,129.422 C108.262,130.16 106.296,130.651 104.33,130.958 C102.795,132.187 104.638,135.135 106.972,132.617 C107.893,135.319 111.026,133.169 109.06,130.467 C109.367,130.098 109.736,129.791 110.104,129.422 z M122.266,119.84 L122.266,119.84 C121.099,121.499 119.748,122.973 118.212,124.324 C122.696,122.359 128.102,120.823 133.63,120.147 C141.922,119.103 150.46,121.744 154.33,125.983 C154.453,126.106 154.822,126.29 154.883,126.106 C155.006,125.368 154.883,124.754 154.637,124.017 C154.33,122.543 152.672,121.007 151.198,120.209 C151.75,119.165 152.242,118.427 152.487,118.243 C154.023,116.892 155.62,116.646 157.401,116.708 C157.524,116.708 157.524,116.462 157.401,116.339 C156.173,114.251 151.996,114.435 149.969,116.585 C149.416,117.199 148.802,117.629 148.249,118.796 C146.775,117.997 144.441,117.199 143.581,117.137 C143.089,114.619 147.266,111.671 149.109,111.364 C149.293,111.364 149.171,111.056 148.986,110.995 C144.318,108.845 140.202,112.162 139.158,116.892 C138.36,116.83 135.657,116.892 134.674,116.83 C133.323,114.435 137.254,110.688 138.483,110.319 C138.667,110.258 138.544,110.012 138.36,109.951 C133.569,108.108 129.515,113.452 129.269,117.752 C127.795,118.059 124.908,118.98 122.266,119.84 z M108.753,165.663 L108.753,165.663 C106.972,161.056 101.628,163.759 106.787,167.751 C102.549,169.471 106.112,175.307 109.736,168.919 C111.947,174.14 116.677,169.533 111.456,167.076 C113.176,165.11 117.23,162.346 120.117,161.732 C125.092,160.688 131.603,160.012 134.674,164.066 C135.227,164.926 135.596,161.732 132.34,160.196 C132.647,157.494 134.674,156.081 136.21,155.774 C136.271,155.774 136.271,155.528 136.148,155.405 C134.429,153.562 130.375,155.958 129.822,158.845 C128.532,158.538 127.242,158.046 126.136,158.108 C124.539,156.634 129.392,151.658 130.682,152.395 C130.743,152.395 130.682,152.088 130.559,152.027 C128.225,150.675 123.618,153.01 123.004,158.231 C121.591,158.354 120.178,158.906 118.888,159.275 C118.028,158.722 118.09,153.808 121.284,152.15 C121.345,152.088 121.284,151.842 121.161,151.781 C117.23,150.921 115.203,156.204 116.37,160.135 C115.694,160.319 114.158,161.425 113.36,161.978 C111.763,161.056 112.009,156.756 112.561,155.958 C112.623,155.835 112.561,155.651 112.439,155.589 C110.411,155.896 109.244,160.073 111.333,163.329 C110.657,163.882 109.306,165.049 108.753,165.663 z M56.173,160.81 L56.173,160.81 L99.662,160.81 L99.662,141.892 L43.151,141.892 C46.653,148.403 51.014,154.852 56.173,160.81 z M126.873,84.644 L168.396,84.644 L168.396,68.366 L126.873,68.366 z M168.335,48.895 L99.416,48.895 L99.416,31.757 L110.78,31.757 L125.706,32.924 L141.8,36.425 L156.111,39.312 L168.396,43.674 z M161.271,24.202 L161.271,24.202 C157.77,23.096 154.269,21.991 150.768,21.008 L150.768,34.521 L151.259,34.644 C155.804,35.934 160.288,37.285 164.711,38.76 L164.711,36.487 C163.298,36.057 161.947,35.565 160.596,35.135 C158.323,34.398 155.989,33.661 153.655,32.986 L153.655,29.423 L154.76,29.73 C157.893,30.651 161.025,31.634 164.097,32.678 L164.097,30.713 C163.052,30.344 161.947,30.037 160.903,29.669 C158.507,28.87 156.05,28.133 153.655,27.396 L153.655,24.018 L154.76,24.325 C158.077,25.369 161.394,26.413 164.65,27.519 L164.65,25.308 C163.482,24.939 162.377,24.57 161.271,24.202 z M137.131,23.342 L137.131,23.342 C135.903,23.096 134.674,22.912 133.446,22.728 L133.446,17.568 C132.402,17.384 131.296,17.261 130.252,17.138 L130.252,30.221 C131.357,30.406 132.402,30.529 133.446,30.713 L133.446,25.492 C135.104,25.799 136.824,26.106 138.483,26.413 C140.325,26.782 142.107,27.15 143.949,27.519 L143.949,32.801 C145.055,33.047 146.099,33.293 147.143,33.538 L147.143,20.086 C146.038,19.902 144.994,19.656 143.949,19.411 L143.949,24.632 C141.677,24.202 139.404,23.772 137.131,23.342 z M118.335,29.177 L118.335,29.177 C119.502,29.3 120.669,29.362 121.714,29.607 C123.434,29.73 125.215,29.914 126.935,30.099 L126.935,29.853 C126.935,29.116 126.935,28.44 126.935,27.703 C124.171,27.396 121.345,27.15 118.581,26.905 C117.782,26.843 116.923,26.782 116.124,26.659 C115.878,26.659 115.633,26.597 115.387,26.536 L115.08,26.413 L114.834,26.29 L114.588,26.106 L114.343,25.86 L114.158,25.615 L114.036,25.308 C113.974,25.123 113.974,24.939 113.913,24.755 C113.79,24.018 113.79,23.28 113.79,22.543 C113.728,21.622 113.79,20.701 113.913,19.841 C113.913,19.656 113.974,19.472 114.036,19.288 L114.158,18.981 L114.343,18.735 L114.588,18.489 L114.834,18.305 L115.08,18.182 L115.387,18.121 L115.817,18.059 C116.738,17.998 117.66,18.059 118.52,18.121 C121.284,18.305 123.986,18.551 126.75,18.796 L126.75,16.462 C124.662,16.217 122.635,16.032 120.547,15.848 C119.134,15.725 117.66,15.664 116.247,15.602 C115.51,15.541 114.834,15.541 114.097,15.602 C113.421,15.664 112.684,15.787 112.07,16.094 C111.824,16.217 111.701,16.401 111.517,16.585 C111.026,17.261 110.964,18.059 110.903,18.858 L110.903,19.288 C110.841,21.069 110.841,22.789 110.903,24.57 C110.903,25.308 110.964,26.045 111.149,26.72 C111.21,26.905 111.271,27.089 111.394,27.273 C111.517,27.396 111.64,27.58 111.763,27.703 C111.947,27.826 112.07,27.949 112.254,28.072 C112.5,28.256 112.746,28.317 112.991,28.44 C113.483,28.624 114.036,28.747 114.588,28.809 C115.817,28.993 117.107,29.054 118.335,29.177 z M98.004,26.475 L98.004,26.475 L98.004,26.475 L98.004,26.475 L97.819,26.475 C96.222,26.475 94.625,26.475 93.028,26.536 C93.028,27.212 93.028,27.949 93.028,28.624 C95.362,28.624 97.758,28.563 100.154,28.563 C101.689,28.563 103.163,28.563 104.699,28.502 C105.19,28.44 105.743,28.44 106.235,28.317 C106.542,28.256 106.849,28.072 107.156,27.887 C107.34,27.764 107.463,27.642 107.586,27.457 L107.77,27.212 C107.832,27.089 107.832,26.966 107.893,26.843 C108.139,26.045 108.139,25.185 108.139,24.325 C108.139,23.588 108.077,22.789 107.77,22.113 C107.709,21.929 107.586,21.745 107.402,21.561 C107.033,21.192 106.542,21.008 106.05,20.885 L105.682,20.824 C102.611,20.701 99.478,20.639 96.407,20.578 L96.1,20.516 L95.792,20.332 L95.608,20.086 L95.547,19.841 L95.485,19.595 C95.485,19.226 95.485,18.919 95.485,18.551 L95.547,18.121 L95.608,17.875 L95.731,17.629 L95.915,17.445 L96.161,17.322 C96.284,17.322 96.468,17.261 96.591,17.261 C97.267,17.199 97.942,17.199 98.618,17.199 C101.566,17.199 104.515,17.261 107.463,17.322 L107.463,15.357 C105.252,15.295 102.979,15.234 100.768,15.234 C99.416,15.234 98.065,15.234 96.714,15.234 C96.161,15.234 95.547,15.234 94.994,15.357 C94.441,15.48 93.888,15.664 93.458,16.032 C93.397,16.155 93.274,16.278 93.213,16.401 C92.844,17.199 92.783,18.059 92.783,18.919 C92.783,19.595 92.783,20.332 92.905,21.008 C92.967,21.253 93.09,21.499 93.213,21.745 L93.335,21.929 L93.458,22.113 L93.581,22.236 L93.765,22.359 L93.95,22.482 C94.073,22.543 94.195,22.543 94.38,22.605 C94.932,22.728 95.547,22.728 96.161,22.728 L102.365,22.728 L103.286,22.728 L104.023,22.851 L104.453,22.973 L104.638,23.096 L104.822,23.219 L104.945,23.403 L105.006,23.588 L105.068,23.772 L105.19,24.448 L105.19,25.062 L105.129,25.492 L105.068,25.676 L104.945,25.86 L104.822,26.045 L104.638,26.167 C104.515,26.229 104.392,26.29 104.208,26.352 C104.023,26.352 103.9,26.413 103.716,26.413 C102.918,26.475 102.119,26.475 101.382,26.475 C100.215,26.475 99.109,26.475 98.004,26.475 z M77.119,23.465 L77.119,23.465 L77.181,18.735 C78.901,18.612 80.559,18.428 82.279,18.305 C83.2,18.244 84.183,18.121 85.166,18.121 C85.35,18.121 85.534,18.121 85.719,18.182 L85.964,18.244 L86.149,18.367 L86.333,18.489 L86.517,18.674 L86.64,18.858 L86.763,19.042 C86.824,19.288 86.886,19.472 86.886,19.656 C86.886,20.209 86.886,20.762 86.824,21.315 C86.824,21.499 86.763,21.622 86.702,21.806 L86.579,21.991 L86.456,22.175 L86.272,22.359 L86.087,22.482 L85.842,22.605 L85.596,22.666 C85.412,22.728 85.227,22.789 85.043,22.789 C84.367,22.851 83.692,22.912 83.016,22.973 C81.05,23.096 79.085,23.28 77.119,23.465 z M82.095,15.971 L82.095,15.971 C79.453,16.155 76.812,16.401 74.109,16.708 L74.109,29.607 C75.092,29.546 76.075,29.423 77.058,29.3 L77.058,25.676 L77.795,25.615 C79.699,25.43 81.542,25.246 83.446,25.123 C83.815,25.123 84.245,25.062 84.613,25.123 C84.797,25.123 84.982,25.185 85.166,25.246 L85.473,25.43 L85.719,25.615 L85.903,25.86 L86.087,26.106 L86.21,26.413 L86.456,27.027 C86.64,27.58 86.702,28.072 86.763,28.624 C87.746,28.563 88.729,28.563 89.711,28.502 C89.711,27.764 89.589,27.027 89.343,26.29 C89.159,25.86 88.974,25.492 88.729,25.123 L88.544,24.878 C88.36,24.693 88.176,24.57 87.93,24.386 L86.272,23.465 L87.93,23.096 C88.114,23.035 88.36,22.973 88.544,22.912 C88.729,22.851 88.851,22.728 88.974,22.666 L89.281,22.421 C89.404,22.236 89.466,22.113 89.589,21.929 L89.711,21.683 C89.773,21.438 89.834,21.192 89.834,20.946 C89.896,20.271 89.896,19.656 89.896,18.981 C89.896,18.489 89.896,17.937 89.773,17.445 C89.711,17.261 89.65,17.015 89.527,16.831 C89.404,16.524 89.22,16.339 88.974,16.155 C88.913,16.094 88.79,16.032 88.667,15.971 C88.36,15.787 88.053,15.725 87.684,15.725 C87.377,15.725 87.009,15.725 86.702,15.725 C85.166,15.725 83.63,15.848 82.095,15.971 z M61.825,21.008 L61.825,21.008 C62.623,20.885 63.483,20.701 64.343,20.516 C64.834,20.455 65.326,20.394 65.879,20.394 L66.37,20.455 L66.616,20.516 L66.861,20.639 L66.984,20.701 L67.168,20.885 L67.291,21.069 L67.414,21.315 C67.537,21.561 67.598,21.806 67.66,22.052 L67.721,22.421 C67.783,22.851 67.783,23.342 67.783,23.833 C67.783,24.755 67.844,25.615 67.66,26.536 L67.537,26.843 L67.414,27.15 L67.23,27.457 L66.984,27.703 L66.739,27.949 L66.431,28.133 L66.124,28.317 C65.94,28.379 65.694,28.44 65.51,28.502 C64.527,28.747 63.483,28.993 62.5,29.177 C61.272,29.423 60.043,29.669 58.815,29.853 C58.63,29.914 58.446,29.914 58.2,29.914 L57.832,29.914 L57.525,29.853 L57.218,29.73 L56.972,29.546 L56.726,29.3 L56.542,28.993 L56.419,28.686 C56.296,27.887 56.296,27.027 56.296,26.167 C56.296,25.369 56.296,24.57 56.481,23.772 C56.542,23.588 56.603,23.342 56.726,23.158 L56.849,22.912 L57.033,22.728 L57.218,22.543 L57.402,22.359 L57.648,22.175 L57.893,21.991 C58.139,21.929 58.385,21.806 58.63,21.745 L61.825,21.008 z M63.36,18.244 L63.36,18.244 C61.702,18.551 60.105,18.858 58.692,19.288 L56.481,19.964 C55.989,20.148 55.559,20.394 55.191,20.639 L54.822,20.946 L54.392,21.438 C54.208,21.683 54.085,21.929 53.962,22.236 L53.778,22.789 C53.655,23.403 53.594,24.079 53.532,24.693 L53.532,30.16 L53.901,32.187 L54.146,32.556 L54.454,32.801 C54.576,32.863 54.699,32.924 54.884,32.986 L55.498,33.047 C55.743,33.047 56.051,33.047 56.296,32.986 C57.279,32.863 58.262,32.678 59.245,32.494 C61.272,32.064 63.299,31.696 65.326,31.266 C66.309,31.02 67.291,30.836 68.274,30.529 C68.52,30.406 68.704,30.344 68.95,30.221 L69.503,29.853 L69.871,29.3 C70.055,29.054 70.178,28.809 70.301,28.563 C70.363,28.44 70.424,28.256 70.485,28.072 C70.67,27.335 70.67,26.597 70.731,25.86 C70.793,25.492 70.793,25.062 70.793,24.693 C70.854,23.772 70.854,22.851 70.793,21.868 C70.731,21.008 70.67,20.148 70.547,19.349 C70.547,19.104 70.485,18.919 70.363,18.674 C70.301,18.551 70.24,18.367 70.117,18.244 C69.994,18.121 69.871,18.059 69.748,17.937 C69.564,17.814 69.441,17.752 69.257,17.691 C69.073,17.629 68.827,17.568 68.643,17.568 C68.213,17.568 67.783,17.568 67.353,17.629 C66.001,17.752 64.711,17.998 63.36,18.244 z M38.36,32.494 L38.36,32.494 L38.299,27.519 C40.264,26.905 42.23,26.229 44.196,25.615 C44.81,25.43 45.363,25.246 45.977,25.185 L46.223,25.185 L46.468,25.185 L46.714,25.246 L46.96,25.369 L47.144,25.553 L47.267,25.799 L47.39,26.106 C47.574,26.72 47.574,27.273 47.513,27.887 C47.513,28.133 47.451,28.317 47.39,28.563 L47.205,28.932 L47.083,29.116 L46.898,29.3 L46.714,29.484 L46.53,29.607 L46.1,29.853 C45.547,30.099 44.933,30.283 44.318,30.467 C42.291,31.143 40.326,31.819 38.36,32.494 z M40.51,24.448 L40.51,24.448 C38.79,25 37.132,25.553 35.412,26.106 L35.412,39.742 C36.395,39.374 37.377,38.944 38.36,38.575 L38.36,34.951 C40.326,34.276 42.291,33.6 44.257,32.924 C45.424,32.556 46.53,32.187 47.635,31.696 C48.127,31.511 48.495,31.266 48.925,30.959 C49.11,30.836 49.294,30.651 49.478,30.467 C49.724,30.221 49.908,29.976 50.031,29.669 C50.338,28.993 50.461,28.194 50.522,27.396 C50.645,26.413 50.645,25.43 50.522,24.448 C50.461,23.956 50.4,23.526 50.215,23.096 C50.092,22.851 49.97,22.666 49.724,22.543 L49.478,22.421 C48.802,22.236 48.127,22.298 47.451,22.421 C46.775,22.543 46.161,22.728 45.547,22.912 C43.827,23.403 42.169,23.895 40.51,24.448 z M35.228,123.034 L35.228,123.034 L80.866,123.034 C76.321,118.366 73.434,111.978 73.311,105.037 L32.156,105.037 C32.218,110.319 33.262,116.462 35.228,123.034 z M100.829,187.53 L100.829,187.53 L100.829,187.53 C100.891,187.53 100.891,187.53 100.829,187.53 C100.891,187.53 100.891,187.53 100.829,187.53 z M99.478,187.592 L99.478,187.592 C99.355,187.53 99.171,187.469 98.986,187.469 C99.171,187.53 99.294,187.53 99.478,187.592 z M100.338,187.715 L100.338,187.715 C100.276,187.776 100.276,187.776 100.215,187.776 C100.276,187.715 100.276,187.715 100.338,187.715 z M100.338,187.715 L100.338,187.715 C100.338,187.715 100.338,187.715 100.338,187.715 C100.338,187.715 100.338,187.715 100.338,187.715 z M100.829,187.592 L100.829,187.592 C100.829,187.592 100.829,187.592 100.829,187.592 C100.829,187.592 100.829,187.592 100.829,187.592 z M167.045,49.877 L167.045,49.877 C167.045,50 167.045,50.123 167.045,50.246 C167.045,50.123 167.045,50 167.045,49.877 z M167.045,49.816 L167.045,49.816 C167.045,49.816 167.045,49.816 167.045,49.816 C167.045,49.816 167.045,49.816 167.045,49.816 z M167.045,49.202 L167.045,49.202 C167.045,49.386 167.045,49.509 167.045,49.693 C167.045,49.509 167.045,49.386 167.045,49.202 z M100.461,48.158 L100.461,48.158 L100.461,32.74 C122.696,32.617 144.871,36.487 167.045,44.226 C167.045,45.885 167.045,47.543 167.045,49.202 C167.045,48.833 167.045,48.526 167.045,48.158 L100.461,48.158 z M166.922,67.813 L166.922,67.813 C166.922,67.813 166.922,67.813 166.922,67.813 C166.922,67.813 166.922,67.813 166.922,67.813 z M166.615,103.808 L166.615,103.808 L166.615,103.747 C166.615,103.747 166.615,103.747 166.615,103.747 C166.615,103.747 166.615,103.747 166.615,103.747 C166.615,103.747 166.615,103.747 166.615,103.808 C166.615,103.747 166.615,103.808 166.615,103.808 C166.615,103.808 166.615,103.808 166.615,103.808 z M166.615,104.73 L166.615,104.73 L166.615,104.668 C166.615,104.668 166.615,104.668 166.615,104.668 C166.615,104.668 166.615,104.668 166.615,104.668 C166.615,104.668 166.615,104.668 166.615,104.73 C166.615,104.73 166.615,104.73 166.615,104.73 z M166.615,104.914 L166.615,104.914 L166.615,104.853 C166.615,104.853 166.615,104.853 166.615,104.853 C166.615,104.853 166.615,104.853 166.615,104.853 C166.615,104.853 166.615,104.853 166.615,104.853 C166.615,104.853 166.615,104.853 166.615,104.853 C166.615,104.853 166.615,104.853 166.615,104.853 C166.615,104.853 166.615,104.853 166.615,104.853 C166.615,104.853 166.615,104.853 166.615,104.914 C166.615,104.914 166.615,104.914 166.615,104.914 C166.615,104.914 166.615,104.914 166.615,104.914 C166.615,104.914 166.615,104.914 166.615,104.914 z M166.615,105.098 L166.615,105.098 C166.615,105.098 166.615,105.16 166.615,105.098 C166.615,105.16 166.615,105.098 166.615,105.098 z M166.615,105.037 L166.615,105.037 C166.615,105.037 166.615,105.098 166.615,105.098 C166.615,105.098 166.615,105.037 166.615,105.037 z M166.615,104.914 L166.615,104.914 C166.615,104.975 166.615,104.975 166.615,104.975 C166.615,104.975 166.615,104.914 166.615,104.914 z M166.615,104.545 L166.615,104.545 C166.615,104.607 166.615,104.607 166.615,104.607 C166.615,104.607 166.615,104.545 166.615,104.545 z M166.615,104.423 L166.615,104.423 C166.615,104.484 166.615,104.484 166.615,104.545 C166.615,104.484 166.615,104.484 166.615,104.423 z M166.615,104.115 L166.615,104.115 C166.615,104.115 166.615,104.177 166.615,104.177 C166.615,104.177 166.615,104.115 166.615,104.115 z M33.323,103.87 L33.323,103.87 C33.323,103.87 33.323,103.87 33.323,103.87 C33.323,103.87 33.323,103.87 33.323,103.87 z M33.323,105.221 L33.323,105.221 C33.323,105.221 33.323,105.221 33.323,105.221 C33.323,105.221 33.323,105.221 33.323,105.221 z M36.518,123.219 L36.518,123.219 C36.518,123.096 36.456,122.973 36.395,122.85 C36.456,122.973 36.456,123.096 36.518,123.219 z M36.763,124.017 L36.763,124.017 C36.763,123.894 36.702,123.833 36.64,123.71 C36.702,123.771 36.702,123.894 36.763,124.017 z M44.318,141.585 L44.318,141.585 C44.318,141.523 44.318,141.523 44.318,141.585 C44.318,141.523 44.318,141.523 44.318,141.585 z M44.687,142.199 L44.687,142.199 C44.626,142.137 44.626,142.076 44.564,142.015 C44.626,142.076 44.626,142.137 44.687,142.199 z M44.748,142.322 L44.748,142.322 C44.748,142.322 44.748,142.26 44.687,142.26 C44.748,142.26 44.748,142.322 44.748,142.322 z M44.134,141.155 L44.134,141.155 C41.063,135.503 38.667,129.852 36.886,124.447 L82.586,124.447 L81.235,123.526 C80.805,123.157 80.436,122.727 80.068,122.297 L36.21,122.297 C36.21,122.359 36.272,122.42 36.272,122.481 C34.491,116.462 33.446,110.749 33.323,105.835 C33.323,105.835 33.323,105.835 33.323,105.835 L73.434,105.835 C73.372,105.405 73.372,104.975 73.372,104.545 L73.372,103.685 L33.385,103.685 C33.385,103.747 33.385,103.747 33.385,103.747 C33.262,90.663 33.201,77.641 33.078,64.619 L31.972,25.799 C54.638,17.384 77.304,13.023 100.031,12.654 C122.389,12.285 144.809,15.787 167.229,23.219 C167.229,30.16 167.168,37.162 167.107,44.165 C167.107,43.428 167.107,42.691 167.107,41.954 C144.871,34.276 122.574,30.406 100.215,30.59 C77.672,30.774 55.068,35.074 32.463,43.796 L32.525,46.008 C54.515,37.47 76.444,33.108 98.311,32.74 L98.311,67.568 L100.461,67.568 L100.461,50.246 L167.107,50.246 C167.045,56.02 167.045,61.732 166.984,67.506 L126.935,67.506 L126.935,67.568 L127.242,67.568 L127.242,69.656 L166.984,69.656 C166.922,74.386 166.922,79.116 166.861,83.907 L127.242,83.907 L127.242,85.995 L166.861,85.995 C166.799,91.831 166.799,97.727 166.738,103.624 L127.242,103.624 L127.242,104.484 C127.242,104.914 127.18,105.344 127.18,105.774 L166.677,105.774 C166.677,105.713 166.677,105.713 166.677,105.651 C166.369,119.41 159.121,138.575 145.546,155.405 C134.613,168.98 119.625,181.019 100.952,187.53 C100.952,187.53 101.014,187.469 101.075,187.469 L101.075,131.265 C100.768,131.265 100.522,131.265 100.215,131.265 C99.785,131.265 99.355,131.265 98.925,131.265 L98.925,141.155 L44.134,141.155 z M58.139,161.24 L58.139,161.24 C58.139,161.24 58.078,161.179 58.078,161.118 C58.078,161.179 58.078,161.179 58.139,161.24 z M58.876,162.039 L58.876,162.039 C58.753,161.916 58.63,161.793 58.569,161.67 C58.63,161.793 58.753,161.916 58.876,162.039 z M98.925,162.162 L98.925,162.162 L98.925,187.407 C82.648,182.862 69.318,173.464 58.999,162.162 L98.925,162.162 z M57.095,160.073 L57.095,160.073 C56.358,159.213 55.682,158.354 54.945,157.494 C51.075,152.641 47.697,147.543 44.81,142.383 C44.933,142.69 45.117,142.997 45.301,143.304 L98.864,143.304 L98.864,160.073 L57.095,160.073 z M30.314,23.833 L30.314,23.833 L30.621,64.619 C30.744,77.887 30.805,91.216 30.928,104.545 L30.928,104.545 L30.928,104.545 L30.928,104.545 C30.989,119.226 38.483,140.847 53.102,158.968 C64.527,173.034 80.191,185.073 100.031,190.172 L100.706,190.172 C120.362,183.538 136.087,171.007 147.451,156.879 C161.578,139.373 169.072,119.349 169.134,105.098 C169.318,77.519 169.502,49.939 169.686,22.359 L169.686,21.499 L168.826,21.192 C145.854,13.453 122.942,9.828 99.969,10.197 C76.996,10.627 54.085,15.05 31.112,23.526 L30.314,23.833 z M42.046,57.801 L42.046,57.801 C41.247,54.607 35.166,54.791 38.176,59.46 C32.893,60.258 36.456,66.953 40.326,62.347 C41.984,66.155 47.021,63.391 43.827,59.767 C51.812,55.958 59.245,53.317 68.151,51.782 C76.935,50.246 83.507,50.676 87.623,54.484 C87.746,54.669 88.176,54.791 88.176,54.607 C88.299,53.87 88.114,53.256 87.807,52.58 C86.947,50.492 84.183,49.386 80.928,48.833 C81.419,47.85 82.279,46.99 82.525,46.745 C84.06,45.332 86.149,45.025 88.176,44.963 C88.36,44.963 88.299,44.718 88.176,44.595 C86.763,42.691 82.033,43.489 79.883,45.701 C79.269,46.376 78.716,47.42 78.164,48.587 C76.014,48.465 73.741,48.526 71.775,48.71 C71.652,48.772 71.53,48.772 71.407,48.772 C70.301,47.973 72.205,44.533 72.574,44.042 C73.987,42.261 75.952,41.217 78.225,40.664 C78.409,40.602 78.286,40.357 78.102,40.295 C74.662,39.005 70.977,40.848 69.134,43.551 C68.274,44.841 67.783,47.298 67.476,49.202 C64.957,49.509 62.623,49.939 60.35,50.43 C60.35,50.43 60.289,50.43 60.289,50.43 C58.938,49.939 60.227,46.192 60.535,45.639 C61.579,43.796 63.176,42.629 65.141,41.954 C65.264,41.892 65.141,41.646 64.957,41.585 C61.64,40.602 58.569,42.629 57.341,45.393 C56.665,46.806 56.603,49.447 56.603,51.352 C54.146,52.089 51.751,52.949 49.417,53.931 C49.232,53.931 49.11,53.931 48.987,53.87 C47.697,53.563 48.557,49.632 48.802,49.079 C49.601,47.113 51.014,45.701 52.795,44.779 C52.918,44.718 52.795,44.533 52.611,44.472 C49.417,43.919 46.714,46.315 45.793,49.263 C45.301,50.86 45.486,53.809 45.67,55.713 C44.441,56.327 43.213,57.064 42.046,57.801 z M43.151,94.533 L43.151,94.533 C42.23,89.742 36.21,92.138 39.896,96.622 C35.043,97.666 38.053,104.545 42.721,99.201 C45.363,103.256 49.54,99.14 45.24,96.437 C52.427,92.568 54.515,91.093 62.562,89.189 C66.124,88.329 69.871,87.961 73.25,88.145 L73.25,81.265 C72.758,81.45 72.267,81.818 71.898,82.248 C71.345,82.924 70.485,84.337 70.055,85.504 C68.028,85.442 65.694,85.565 63.913,85.811 C63.606,84.275 64.773,82.003 65.449,81.02 C66.677,79.177 67.906,78.686 68.827,78.071 C69.011,78.01 68.888,77.764 68.704,77.703 C67.046,77.027 63.422,78.317 61.886,81.081 C61.149,82.433 61.087,84.705 60.903,86.609 C58.385,87.162 58.262,87.285 56.296,87.961 C54.146,83.108 57.402,80.528 58.999,79.853 C59.183,79.791 59.06,79.607 58.876,79.546 C56.849,79.116 54.822,80.098 53.594,82.678 C52.795,84.275 52.672,86.855 53.286,88.759 C51.137,89.558 51.198,89.374 49.171,90.479 C48.373,89.803 47.758,87.961 48.004,86.855 C48.495,84.828 48.741,83.477 50.338,82.433 C50.461,82.371 50.338,82.125 50.154,82.125 C47.881,82.003 46.038,83.415 45.301,86.364 C44.871,88.022 45.547,90.602 46.653,92.383 C45.547,93.059 44.196,93.735 43.151,94.533 z M41.063,76.229 L41.063,76.229 C40.203,71.99 34.92,73.28 37.93,78.133 C32.525,78.808 36.026,85.627 39.957,81.081 C41.493,84.951 46.591,82.371 43.459,78.686 C50.829,75.123 54.085,73.096 62.992,71.745 C66.37,71.253 69.994,71.13 73.311,71.437 L73.311,67.629 L74.478,67.629 C74.908,67.015 75.277,66.524 75.461,66.401 C77.058,64.988 77.795,64.435 79.822,64.374 C80.006,64.374 79.945,64.128 79.822,64.005 C78.593,62.531 74.847,62.715 72.697,64.926 C72.082,65.541 71.652,67.076 71.1,68.182 C68.95,67.998 67.598,68.243 65.633,68.366 C64.466,67.199 66.063,64.681 66.861,63.759 C68.336,61.978 68.397,62.224 70.67,61.732 C70.854,61.671 70.608,61.18 70.424,61.118 C68.704,60.32 65.756,60.872 63.852,63.514 C62.93,64.804 62.316,66.708 61.947,68.612 C59.183,68.98 58.139,69.472 56.603,69.718 C55.313,66.892 58.385,63.268 60.166,62.715 C60.35,62.654 59.982,62.224 59.798,62.162 C57.586,61.61 55.191,62.899 53.901,65.541 C53.286,66.892 53.164,69.41 53.102,71.253 C50.707,71.867 51.567,71.806 49.232,72.727 C49.048,72.727 48.925,72.727 48.802,72.666 C47.513,72.297 48.127,69.963 48.373,69.41 C49.171,67.506 48.741,66.278 50.522,65.356 C50.645,65.234 50.522,65.049 50.338,64.988 C47.881,64.742 46.345,66.216 45.363,69.103 C44.81,70.7 45.056,72.42 45.178,74.324 C43.95,74.939 42.291,75.492 41.063,76.229 z M127.119,67.568 L127.119,67.568 L127.058,104.484 C127.058,119.165 115.018,131.265 100.154,131.265 C85.35,131.265 73.25,119.165 73.25,104.484 L73.25,67.568 L127.119,67.568 z M125.891,68.858 L74.539,68.858 L74.539,104.545 C74.539,118.612 86.087,130.037 100.215,130.037 C114.404,130.037 125.891,118.612 125.891,104.545 L125.891,68.858 M87.439,115.172 L87.439,115.172 C87.193,115.11 86.886,115.049 86.947,114.742 C86.702,114.435 86.579,113.882 86.394,113.452 L85.35,113.022 C84.797,112.776 85.104,111.855 85.104,111.302 C84.982,109.152 84.429,107.002 84.859,104.853 C84.982,104.3 85.903,104.73 86.394,104.607 C86.947,104.484 87.439,104.3 87.93,104.177 C88.483,104.054 89.711,104.484 89.65,103.931 L89.527,102.396 L88.421,102.273 C87.93,102.211 87.316,102.088 87.009,101.72 C86.763,101.413 87.132,100.921 87.009,100.553 C86.886,100.123 86.579,99.754 86.333,99.386 C86.026,98.833 85.964,98.157 85.473,97.85 C85.166,97.604 84.736,97.789 84.49,98.034 C83.999,98.526 83.63,99.201 83.323,99.877 C83.077,100.369 83.016,100.983 82.77,101.474 C82.648,101.72 82.34,101.781 82.218,102.027 C81.849,102.641 80.928,103.44 81.358,103.993 C81.603,104.3 82.095,104.73 82.033,104.853 C81.972,104.975 81.173,105.221 80.743,105.405 C80.375,105.651 79.761,106.081 79.576,106.081 C79.392,106.081 79.269,105.283 79.331,104.914 C79.453,104.545 79.822,104.361 80.006,104.054 C80.436,103.256 80.743,102.457 81.112,101.597 C81.296,101.29 81.173,100.921 81.358,100.614 C81.665,100.061 82.156,99.57 82.525,99.017 C82.955,98.342 83.323,97.543 83.815,96.867 C83.999,96.56 84.183,96.13 84.552,96.007 C85.043,95.885 85.657,95.885 86.087,96.13 C86.394,96.376 86.272,96.929 86.517,97.236 C86.947,97.85 87.316,98.464 87.93,98.772 C88.237,98.956 88.729,98.833 89.036,98.649 C89.343,98.403 89.404,98.034 89.466,97.666 C89.834,95.885 89.343,96.622 90.448,95.27 C91.8,93.55 92.107,94.287 93.028,93.428 C93.335,93.12 93.09,92.568 93.151,92.138 C93.213,91.769 93.643,91.339 93.458,90.971 C93.274,90.602 92.721,90.418 92.291,90.418 C91.923,90.418 91.616,90.663 91.308,90.848 C91.001,91.032 90.878,91.401 90.633,91.523 C90.448,91.646 90.018,91.708 89.896,91.523 C89.711,91.216 90.326,90.541 90.018,90.541 L88.299,90.418 C87.991,90.418 88.053,89.865 88.237,89.619 C88.36,89.435 88.79,89.619 88.974,89.496 C89.404,89.189 89.589,88.698 89.957,88.329 C90.326,87.899 90.756,87.469 91.247,87.224 C91.738,86.978 92.353,86.855 92.967,86.794 C93.335,86.732 94.257,87.285 94.134,86.917 C93.827,86.057 92.168,85.135 92.291,84.951 C92.353,84.767 94.318,85.258 95.301,85.135 C95.485,85.074 95.915,84.582 96.1,84.46 C96.898,84.091 97.267,84.214 98.004,83.784 C98.434,83.6 98.372,82.924 98.679,82.617 C99.048,82.248 99.478,82.064 99.969,81.941 C100.522,81.757 101.505,81.757 101.689,81.818 C101.873,81.88 101.321,82.064 101.136,82.248 C100.891,82.494 100.584,82.678 100.399,82.985 C100.215,83.354 99.908,83.845 100.154,84.091 C100.584,84.46 101.259,84.398 101.873,84.398 C102.242,84.398 102.549,84.214 102.856,84.091 C103.348,83.968 103.778,83.661 104.269,83.661 C105.129,83.661 105.989,83.784 106.787,84.091 C106.972,84.152 107.095,84.275 106.91,84.398 C106.419,84.705 105.682,84.828 105.129,85.074 C104.822,85.197 104.453,85.504 104.453,85.811 C104.453,86.364 104.822,86.855 105.19,87.224 C105.866,87.961 106.787,88.452 107.463,89.251 C107.647,89.496 107.832,90.049 107.647,90.111 C107.463,90.172 106.972,89.803 106.665,89.681 C106.296,89.558 105.927,89.374 105.559,89.374 C105.375,89.435 105.313,89.558 105.375,89.681 C105.436,89.865 106.419,90.356 106.726,91.032 C106.91,91.523 107.217,93.12 107.033,93.182 C106.849,93.243 106.05,92.076 105.866,91.953 C105.559,91.646 105.129,91.401 104.76,91.401 C104.576,91.401 104.269,91.646 104.33,91.831 C104.515,92.506 105.252,92.875 105.498,93.55 C105.62,93.98 105.805,95.393 105.559,95.455 C105.313,95.516 104.146,93.919 103.716,93.735 C103.348,93.612 102.733,93.735 102.365,93.98 C101.873,94.287 101.505,94.779 101.259,95.27 C100.952,96.007 100.645,96.744 100.706,97.543 C100.706,98.096 101.014,98.71 101.443,99.14 C101.873,99.57 102.549,99.816 103.163,99.877 C104.453,100.061 105.805,99.877 107.095,99.877 C108.569,99.877 110.043,99.631 111.456,99.877 C112.07,100 112.623,100.491 113.176,100.86 C113.728,101.228 114.22,101.966 114.895,102.027 C115.387,102.027 115.878,101.536 116.063,101.044 C116.308,100.553 116.247,99.877 116.063,99.324 C115.755,98.464 115.08,97.789 114.527,97.052 C113.974,96.315 113.298,95.7 112.868,94.902 C112.623,94.41 112.561,93.858 112.561,93.305 C112.561,92.936 112.623,92.568 112.868,92.322 C113.053,92.138 113.544,92.138 113.728,92.322 C113.974,92.629 113.667,93.12 113.851,93.428 C113.974,93.673 114.404,93.735 114.588,93.55 C114.773,93.428 114.834,92.138 115.264,91.401 C115.51,90.971 115.694,90.541 116.124,90.295 C116.615,90.049 117.291,90.233 117.844,89.988 C118.028,89.865 117.967,89.435 118.151,89.312 C118.397,89.128 118.827,88.944 119.011,89.189 C119.257,89.496 119.072,89.988 118.888,90.356 C118.642,90.848 118.028,91.032 117.721,91.462 C117.414,91.892 117.168,92.383 116.984,92.875 C116.861,93.305 116.554,93.796 116.677,94.287 C116.738,94.595 117.168,94.84 117.414,94.717 C117.782,94.533 117.905,93.98 118.151,93.612 C118.335,93.366 118.274,92.936 118.581,92.752 C118.765,92.568 119.257,92.69 119.318,92.936 C119.441,93.55 119.257,94.226 119.011,94.779 C118.827,95.209 118.212,95.332 118.028,95.762 C117.905,96.007 117.967,96.376 118.151,96.622 C118.397,96.867 118.765,97.052 119.134,97.052 C119.441,97.052 119.564,96.683 119.809,96.622 C119.994,96.56 120.301,96.56 120.362,96.744 C120.547,97.113 120.547,97.543 120.362,97.912 C120.239,98.096 119.932,98.157 119.687,98.219 C119.134,98.342 118.458,98.219 117.967,98.526 C117.782,98.649 117.905,99.079 118.09,99.263 C118.212,99.447 118.581,99.57 118.827,99.57 C119.072,99.57 119.38,99.509 119.564,99.324 C119.809,99.079 119.809,98.649 120.117,98.464 C120.301,98.342 120.792,98.342 120.792,98.587 C120.792,99.263 120.547,99.877 120.239,100.43 C119.994,100.86 119.134,100.983 119.257,101.413 C119.441,101.904 120.362,101.781 120.792,102.15 C120.915,102.334 120.854,102.764 120.669,102.826 C120.055,103.071 119.318,103.01 118.704,102.948 C118.09,102.826 117.598,102.211 116.984,102.273 C116.308,102.396 115.755,102.948 115.264,103.378 C115.141,103.501 115.264,103.685 115.264,103.808 C115.325,104.545 115.694,105.344 115.51,106.081 C115.325,106.695 114.773,107.125 114.404,107.678 C113.974,108.292 113.237,108.784 112.991,109.521 C112.807,110.135 112.93,110.749 113.114,111.364 C113.237,111.794 113.544,112.162 113.851,112.469 C114.22,112.899 114.895,113.083 115.018,113.636 C115.141,114.312 114.711,115.049 114.343,115.663 C113.974,116.155 113.237,116.339 112.807,116.83 C112.439,117.199 112.316,117.69 112.131,118.12 C112.07,118.366 112.193,118.796 111.947,118.98 C111.579,119.287 110.964,119.165 110.534,119.41 C109.797,119.84 108.262,120.332 108.384,121.007 C108.507,121.683 108.692,122.236 108.63,122.42 C108.569,122.666 106.419,123.034 106.05,123.096 C105.682,123.157 106.112,122.174 106.296,121.806 C106.48,121.437 106.787,121.376 106.972,121.13 C107.095,120.884 107.156,120.639 107.279,120.393 C107.463,119.963 107.77,119.594 108.139,119.226 C108.63,118.735 109.306,118.427 109.797,117.936 C109.982,117.752 109.982,117.445 110.104,117.199 C110.35,116.769 110.78,116.523 110.964,116.093 C111.333,115.295 111.947,114.435 111.824,113.513 C111.763,113.022 110.903,113.022 110.411,112.776 C109.859,112.531 109.244,112.408 108.753,112.039 C108.446,111.794 108.384,111.241 108.016,111.056 C107.832,110.934 107.463,110.995 107.279,111.179 C107.033,111.364 107.033,111.732 107.033,112.039 C107.033,112.653 107.156,113.268 107.156,113.882 C107.156,114.128 107.217,114.435 107.033,114.619 C106.665,114.988 106.05,115.049 105.62,115.295 C104.576,115.909 103.532,116.646 102.488,117.322 C101.505,117.875 99.478,118.182 99.539,118.919 C99.662,119.656 99.846,120.024 99.724,120.147 C99.601,120.209 99.355,120.27 98.925,120.332 C98.495,120.393 97.328,120.393 97.205,120.332 C97.082,120.27 97.328,119.84 97.512,119.594 C97.697,119.41 98.004,119.349 98.249,118.98 C98.495,118.612 98.741,117.936 98.986,117.383 C99.109,117.076 99.662,117.445 99.969,117.26 C100.891,116.769 101.689,116.155 102.488,115.54 C102.856,115.233 103.225,114.926 103.47,114.558 C103.716,114.189 103.778,113.759 104.023,113.391 C104.208,113.145 104.638,113.083 104.76,112.838 C104.883,112.531 104.945,112.162 104.76,111.855 C104.33,111.118 103.348,110.688 103.102,109.828 C102.979,109.275 103.9,108.784 103.778,108.231 C103.655,107.801 103.041,107.74 102.672,107.678 C101.812,107.555 100.952,107.678 100.092,107.678 C98.986,107.617 97.881,107.74 96.837,107.432 C96.038,107.125 95.485,106.327 94.687,105.897 C94.502,105.774 94.195,105.835 93.95,105.897 C93.52,106.081 93.151,106.45 92.66,106.572 C92.107,106.757 91.493,106.818 90.94,106.695 C89.896,106.511 88.974,106.02 87.991,105.835 C87.5,105.774 86.886,105.713 86.456,105.958 C86.149,106.204 86.026,106.695 86.026,107.064 C85.964,108.477 86.026,109.889 86.149,111.302 C86.21,111.855 86.149,112.838 86.579,112.899 C87.009,112.961 87.254,113.022 87.561,113.022 C87.869,113.022 88.483,112.776 88.544,112.899 C88.544,112.961 88.606,113.698 88.421,114.066 C88.237,114.496 87.684,115.233 87.439,115.172 z M99.048,93.735 L99.048,93.735 C98.925,93.612 99.109,90.602 98.802,88.882 C98.495,87.101 98.065,87.162 96.959,85.995 C96.837,85.872 97.205,85.504 97.389,85.565 C99.048,85.811 99.724,86.978 100.215,88.452 C100.522,89.312 100.522,90.111 100.461,91.032 C100.399,91.892 100.461,92.752 100.031,93.428 C99.846,93.673 99.294,93.98 99.048,93.735 z M83.63,77.703 L83.63,77.703 C83.63,78.87 82.832,79.73 81.48,79.791 C80.498,79.791 79.761,79.3 79.761,78.808 C79.761,78.44 80.006,78.194 80.375,78.194 C80.682,78.194 81.112,78.501 81.665,78.501 C82.033,78.501 82.279,78.256 82.279,77.887 C82.279,77.396 81.91,77.211 81.358,77.027 C80.375,76.659 79.883,76.229 79.883,75.307 C79.883,74.202 80.62,73.403 81.788,73.403 C82.709,73.403 83.262,73.772 83.262,74.263 C83.262,74.57 83.077,74.816 82.709,74.816 C82.463,74.816 82.095,74.632 81.788,74.632 C81.419,74.632 81.173,74.816 81.173,75.123 C81.173,75.553 81.542,75.614 82.156,75.86 C83.139,76.229 83.63,76.781 83.63,77.703 z M87.869,74.202 L87.869,74.202 C87.869,74.632 87.561,74.816 87.009,74.816 L86.579,74.816 L86.579,78.686 C86.579,79.361 86.394,79.668 85.964,79.668 C85.534,79.668 85.35,79.361 85.35,78.686 L85.35,74.816 L84.92,74.816 C84.367,74.816 84.06,74.632 84.06,74.202 C84.06,73.772 84.367,73.587 84.92,73.587 L87.009,73.587 C87.561,73.587 87.869,73.772 87.869,74.202 z M92.905,76.966 L92.905,76.966 C92.905,78.747 91.984,79.73 90.633,79.73 C89.22,79.73 88.36,78.747 88.36,76.966 L88.36,74.447 C88.36,73.772 88.544,73.465 88.974,73.465 C89.404,73.465 89.589,73.772 89.589,74.447 L89.589,76.843 C89.589,77.887 89.957,78.44 90.633,78.44 C91.308,78.44 91.677,77.887 91.677,76.843 L91.677,74.447 C91.677,73.772 91.861,73.465 92.291,73.465 C92.721,73.465 92.905,73.772 92.905,74.447 L92.905,76.966 z M97.451,74.202 L97.451,74.202 C97.451,74.632 97.144,74.816 96.591,74.816 L96.161,74.816 L96.161,78.686 C96.161,79.361 95.977,79.668 95.547,79.668 C95.117,79.668 94.932,79.361 94.932,78.686 L94.932,74.816 L94.502,74.816 C93.95,74.816 93.643,74.632 93.643,74.202 C93.643,73.772 93.95,73.587 94.502,73.587 L96.591,73.587 C97.144,73.587 97.451,73.772 97.451,74.202 z M101.505,74.202 L101.505,74.202 C101.505,74.632 101.198,74.816 100.645,74.816 L100.215,74.816 L100.215,78.686 C100.215,79.361 100.031,79.668 99.601,79.668 C99.171,79.668 98.986,79.361 98.986,78.686 L98.986,74.816 L98.557,74.816 C98.004,74.816 97.697,74.632 97.697,74.202 C97.697,73.772 98.004,73.587 98.557,73.587 L100.645,73.587 C101.198,73.587 101.505,73.772 101.505,74.202 z M106.296,76.843 L106.296,76.843 C106.296,78.501 105.436,79.73 104.085,79.73 C102.733,79.73 101.812,78.44 101.812,76.536 C101.812,74.57 102.733,73.342 104.208,73.342 C105.252,73.342 105.927,73.956 105.927,74.57 C105.927,74.877 105.682,75.184 105.436,75.184 C105.129,75.184 104.822,74.632 104.146,74.632 C103.47,74.632 102.979,75.307 102.979,76.474 C102.979,77.641 103.47,78.378 104.146,78.378 C104.76,78.378 105.129,77.887 105.129,77.15 L104.76,77.15 C104.269,77.15 104.023,76.966 104.023,76.536 C104.023,76.106 104.269,75.921 104.76,75.921 L105.559,75.921 C106.05,75.921 106.296,76.167 106.296,76.843 z M111.886,78.993 L111.886,78.993 C111.886,79.423 111.64,79.668 111.21,79.607 C110.903,79.607 110.719,79.361 110.596,78.931 L110.473,78.378 L108.507,78.378 L108.323,78.993 C108.2,79.423 107.955,79.607 107.709,79.607 C107.402,79.607 107.156,79.3 107.156,78.931 C107.156,78.808 107.156,78.686 107.217,78.563 L108.63,74.324 C108.814,73.772 109.122,73.465 109.552,73.465 C109.982,73.465 110.289,73.772 110.473,74.263 L111.824,78.563 C111.886,78.747 111.886,78.87 111.886,78.993 z M110.166,77.15 L110.166,77.15 L109.552,74.939 L108.876,77.15 L110.166,77.15 z M116.677,79.054 L116.677,79.054 C116.677,79.423 116.431,79.668 116.124,79.668 C115.878,79.668 115.694,79.484 115.448,79.177 L114.036,77.15 L114.036,78.624 C114.036,79.3 113.851,79.607 113.421,79.607 C112.991,79.607 112.807,79.3 112.807,78.624 L112.807,74.447 C112.807,73.772 112.991,73.465 113.667,73.465 L114.588,73.465 C115.878,73.465 116.615,74.263 116.615,75.369 C116.615,76.229 116.124,76.843 115.325,77.027 L116.308,78.256 C116.554,78.563 116.677,78.808 116.677,79.054 z M115.325,75.553 L115.325,75.553 C115.325,75.062 115.08,74.816 114.588,74.816 L114.036,74.816 L114.036,76.29 L114.588,76.29 C115.08,76.29 115.325,76.044 115.325,75.553 z M121.284,74.202 L121.284,74.202 C121.284,74.632 121.038,74.816 120.424,74.816 L119.994,74.816 L119.994,78.686 C119.994,79.361 119.809,79.668 119.38,79.668 C118.95,79.668 118.765,79.361 118.765,78.686 L118.765,74.816 L118.335,74.816 C117.782,74.816 117.475,74.632 117.475,74.202 C117.475,73.772 117.782,73.587 118.335,73.587 L120.424,73.587 C120.977,73.587 121.284,73.772 121.284,74.202 z" fill="#000000"/>
  </g>
</svg>
