<?xml version="1.0" encoding="UTF-8"?>
<!DOCTYPE svg PUBLIC "-//W3C//DTD SVG 1.1//EN" "http://www.w3.org/Graphics/SVG/1.1/DTD/svg11.dtd">
<svg version="1.1" xmlns="http://www.w3.org/2000/svg" xmlns:xlink="http://www.w3.org/1999/xlink" x="0" y="0" width="200" height="200" viewBox="0, 0, 200, 200">
  <g id="seat">
    <path d="M70.525,21.192 C104.095,20.018 137.697,21.184 171.208,23.321 C174.736,23.625 178.31,23.6 181.784,24.337 C183.663,24.787 185.694,25.499 186.793,27.195 C187.795,29.04 187.816,31.194 188.077,33.226 C188.874,43.211 189.109,53.237 189.859,63.222 C188.408,63.397 186.956,63.176 185.505,63.13 C159.659,61.802 133.792,60.698 107.904,60.664 C94.496,60.702 81.072,60.573 67.677,61.218 C64.43,61.693 60.755,62.772 58.88,65.646 C69.015,67.433 79.13,69.362 89.261,71.182 C122.838,77.422 156.441,83.525 190.019,89.756 C189.99,96.079 190.002,102.403 190.015,108.726 C171.132,105.623 152.284,102.273 133.414,99.07 C92.818,92.122 52.235,85.078 11.626,78.197 C11.706,71.178 12.008,64.163 12.155,57.14 C12.411,51.58 12.251,45.944 13.518,40.483 C14.37,36.63 15.947,32.756 18.888,30.002 C23.964,25.012 31.305,23.608 38.139,22.904 C48.908,21.913 59.723,21.588 70.525,21.192 z M10.019,87.926 C68.161,98.562 126.282,109.377 184.415,120.075 C185.686,120.383 187.045,120.408 188.265,120.869 L188.412,121.202 C188.093,130.657 187.908,140.12 187.565,149.575 C187.342,155.409 186.722,161.513 183.694,166.652 C180.448,171.966 174.4,174.906 168.416,176.016 C159.597,177.658 150.588,177.766 141.656,178.253 C103.22,179.982 64.705,179.026 26.332,176.407 C23.267,176.194 20.147,176.14 17.169,175.296 C15.626,174.814 14.032,174.037 13.16,172.623 C12.225,170.768 12.166,168.652 11.935,166.631 C11.113,155.6 10.677,144.548 10.094,133.505 C29.889,134.752 49.717,135.451 69.549,135.888 C88.697,136.195 107.846,136.191 126.995,136.378 C131.125,136.549 135.592,135.767 138.724,132.89 C139.182,132.37 139.924,131.888 139.848,131.11 C131.218,129.825 122.637,128.229 114.023,126.823 C79.366,120.948 44.693,115.127 10.04,109.219 C9.998,102.121 10.048,95.023 10.019,87.926 z" fill="#19191B" id="Combined-Shape"/>
  </g>
</svg>
