<?xml version="1.0" encoding="UTF-8"?>
<!DOCTYPE svg PUBLIC "-//W3C//DTD SVG 1.1//EN" "http://www.w3.org/Graphics/SVG/1.1/DTD/svg11.dtd">
<svg version="1.1" xmlns="http://www.w3.org/2000/svg" xmlns:xlink="http://www.w3.org/1999/xlink" x="0" y="0" width="200" height="200" viewBox="0, 0, 200, 200">
  <g id="Layer_1">
    <path d="M87.844,98.012 L84.292,98.012 C83.161,98.843 78.585,102.094 74.238,105.221 C75.705,106.069 77.207,106.829 78.744,107.518 L87.844,98.012 z M82.454,98.012 L73.231,104.621 C71.623,103.666 70.05,102.589 68.549,101.44 C72.012,99.814 75.228,98.313 75.846,98.012 L82.454,98.012 z M67.594,100.698 C67.506,100.627 65.403,98.86 64.52,98.03 L73.319,98.03 L67.594,100.698 z M118.27,90.096 C118.27,90.803 117.811,91.298 117.051,91.457 C116.645,91.545 116.079,91.528 115.849,91.528 L115.849,88.948 L115.832,88.948 C116.238,88.93 116.91,88.895 117.263,88.948 C117.934,89.054 118.27,89.425 118.27,90.096 z M134.049,95.309 L134.049,88.471 L133.377,88.471 L133.377,93.542 C133.324,93.507 128.695,88.471 128.695,88.471 L128.218,88.471 L128.218,95.309 L128.889,95.309 L128.889,90.026 C128.925,90.079 133.165,94.708 133.165,94.708 L133.713,95.309 L134.049,95.309 z M126.822,95.309 L126.822,88.471 L125.868,88.471 L125.868,95.309 L126.822,95.309 z M125.055,89.142 L125.055,88.471 L124.984,88.471 L119.843,88.471 L119.843,89.142 L119.913,89.142 C120.496,89.072 121.08,89.072 121.998,89.072 L121.998,95.309 L122.952,95.309 C122.952,95.309 122.952,89.195 122.952,89.072 C123.642,89.072 124.366,89.072 124.984,89.142 L125.055,89.142 z M118.765,95.309 L119.984,95.309 C119.984,95.309 117.387,92.058 117.263,91.916 C118.5,91.651 119.295,90.98 119.295,90.026 C119.295,88.983 118.5,88.471 116.98,88.471 L114.895,88.471 L114.895,95.309 L115.849,95.309 C115.849,95.309 115.849,92.093 115.849,91.987 L116.132,91.987 C116.167,92.022 116.945,92.941 116.945,92.941 L118.093,94.425 L118.694,95.309 L118.765,95.309 z M113.128,95.309 L114.277,95.309 L111.238,88.347 L110.955,88.347 L107.845,95.309 L108.658,95.309 L108.658,95.238 C108.923,94.372 109.276,93.595 109.612,92.8 C109.612,92.8 109.665,92.711 109.683,92.676 L112.05,92.676 C112.386,93.418 112.722,94.266 113.058,95.238 L113.128,95.309 z M107.439,95.326 L107.439,95.256 C107.191,93.577 106.926,91.422 106.626,88.541 L106.626,88.471 L106.555,88.471 L106.273,88.471 L104.647,91.457 C104.647,91.457 103.587,93.383 103.499,93.542 C102.456,91.846 101.573,90.026 100.777,88.471 L100.707,88.471 L100.406,88.471 L100.406,88.471 L100.406,88.541 C100.318,89.549 99.717,93.666 99.452,95.256 L99.452,95.344 L100.265,95.344 L100.265,95.273 C100.265,94.302 100.442,92.87 100.601,91.351 C100.601,91.351 100.707,90.679 100.724,90.397 C100.83,90.609 102.138,93.029 102.615,94.037 L103.163,95.185 L103.357,95.185 C103.923,93.86 104.753,92.358 105.866,90.379 C106.008,91.545 106.237,93.895 106.343,95.256 L106.343,95.326 L107.421,95.326 z M95.547,95.309 L95.547,88.471 L95.477,88.471 L94.876,88.471 C94.876,88.471 94.876,93.436 94.876,93.542 C94.823,93.507 90.194,88.471 90.194,88.471 L89.716,88.471 L89.716,95.309 L90.388,95.309 L90.388,90.026 C90.423,90.079 94.664,94.708 94.664,94.708 L95.212,95.309 L95.547,95.309 z M84.84,95.45 C87.137,95.45 88.639,93.931 88.639,91.74 C88.639,89.354 86.73,88.347 84.84,88.347 C82.649,88.347 81.111,89.761 81.111,91.863 C81.111,93.984 82.649,95.45 84.84,95.45 z M79.292,95.309 L79.292,89.072 C79.981,89.072 80.705,89.072 81.324,89.142 L81.394,89.142 L81.394,88.471 L81.324,88.471 L76.182,88.471 L76.182,89.142 L76.252,89.142 C76.836,89.072 77.419,89.072 78.337,89.072 L78.337,95.309 L79.292,95.309 z M73.284,95.45 C74.751,95.45 75.793,94.496 75.811,93.135 C75.811,92.005 74.963,91.634 74.132,91.298 C73.39,90.997 72.701,90.768 72.701,89.937 C72.701,89.319 73.231,88.859 73.902,88.859 C74.45,88.859 74.857,89.16 75.051,89.672 L75.245,89.672 L75.528,88.789 C75.104,88.435 74.468,88.329 74.026,88.329 C72.648,88.329 71.782,89.054 71.782,90.22 C71.782,91.439 72.666,91.793 73.461,92.111 C74.185,92.393 74.892,92.641 74.892,93.471 C74.892,94.249 74.256,94.902 73.531,94.902 C72.878,94.902 72.418,94.584 71.976,93.895 L71.782,93.895 L71.588,94.849 L71.658,94.849 C72.012,95.256 72.825,95.45 73.284,95.45 z M70.068,95.309 L71.217,95.309 L68.231,88.347 L67.895,88.347 L64.785,95.309 L65.669,95.309 L65.669,95.238 C65.934,94.39 66.234,93.595 66.552,92.8 C66.552,92.8 66.605,92.711 66.623,92.676 L69.061,92.676 C69.397,93.418 69.715,94.231 70.068,95.238 L70.068,95.309 z M136.593,86.668 L136.593,96.952 L63.407,96.952 L63.389,96.934 L63.389,86.668 L136.576,86.668 z M109.895,92.128 C109.948,91.969 110.796,90.061 110.902,89.814 C110.99,90.043 111.785,91.969 111.856,92.128 L109.895,92.128 z M62.311,91.722 L62.311,93.401 L60.438,93.789 C59.961,93.241 59.502,92.694 59.06,92.164 L62.311,91.722 z M84.893,88.736 C85.688,88.736 86.483,89.107 86.925,89.69 C87.437,90.326 87.525,90.962 87.525,91.775 C87.525,91.828 87.525,91.863 87.525,91.899 C87.525,92.57 87.26,93.56 86.642,94.213 C86.165,94.743 85.529,94.973 84.804,94.973 C83.214,94.973 82.172,93.807 82.172,91.987 C82.207,89.99 83.232,88.736 84.893,88.736 z M52.964,83.029 C52.929,82.958 52.31,81.845 51.162,80.961 L85.105,80.961 L85.105,80.979 C86.801,80.979 88.179,81.474 89.151,82.463 C89.858,83.188 90.353,84.124 90.618,85.255 C90.618,85.255 90.671,85.467 90.724,85.591 L54.431,85.591 C53.883,84.672 52.964,83.029 52.964,83.029 z M62.311,94.496 L62.311,95.821 C61.94,95.45 61.605,95.079 61.269,94.69 C61.693,94.62 62.029,94.549 62.311,94.496 z M62.311,89.178 L62.311,90.644 L58.3,91.174 C57.859,90.609 57.452,90.061 57.046,89.531 L62.311,89.178 z M96.13,98.012 L92.42,111.353 C90.37,111.088 88.356,110.699 86.395,110.186 C89.098,105.645 92.685,99.549 93.586,98.012 L96.13,98.012 z M92.367,98.012 L85.352,109.886 C83.462,109.356 81.624,108.72 79.822,107.96 C83.621,103.967 88.232,99.161 89.345,98.012 L92.367,98.012 z M137.671,95.857 L137.671,94.514 L138.731,94.726 C138.378,95.097 138.042,95.468 137.671,95.857 z M66.905,92.128 C66.976,91.969 67.736,90.061 67.86,89.814 C67.948,90.043 68.814,91.969 68.867,92.128 L66.905,92.128 z M142.919,89.531 C142.548,90.061 142.124,90.626 141.664,91.174 L137.653,90.644 L137.653,89.178 L142.919,89.531 z M140.922,92.164 C140.48,92.729 140.021,93.259 139.544,93.789 C138.696,93.595 138.042,93.471 137.653,93.401 L137.653,91.722 L140.922,92.164 z M147.018,83.046 C146.612,83.771 146.135,84.637 145.552,85.626 L109.241,85.626 C109.312,85.467 109.365,85.273 109.365,85.273 C109.63,84.124 110.125,83.188 110.831,82.481 C111.821,81.491 113.181,80.997 114.878,80.997 L148.838,80.997 C147.654,81.88 147.053,82.976 147.018,83.046 z M144.88,86.651 C144.527,87.216 144.12,87.835 143.679,88.453 L137.653,88.064 L137.653,86.651 L144.88,86.651 z M120.196,107.978 C118.394,108.72 116.556,109.356 114.648,109.904 L107.651,98.03 L110.672,98.03 L120.196,107.978 z M135.462,98.012 C134.561,98.913 132.441,100.645 132.388,100.68 C130.232,99.691 128.147,98.701 126.663,98.012 L135.462,98.012 z M131.434,101.422 C129.914,102.606 128.359,103.666 126.769,104.603 C123.253,102.094 119.525,99.443 117.528,98.012 L124.136,98.012 L131.434,101.422 z M103.852,98.012 L106.396,98.012 L113.588,110.169 C111.626,110.681 109.612,111.052 107.562,111.335 L103.852,98.012 z M125.744,105.221 C124.278,106.069 122.776,106.829 121.256,107.501 C117.934,104.055 113.941,99.885 112.139,98.012 L115.69,98.012 L125.744,105.221 z M136.947,98.083 L152.566,102.907 C152.619,102.924 152.884,103.013 153.326,103.101 L144.809,105.61 C143.749,105.91 142.177,105.292 141.647,105.027 C141.647,105.027 137.6,103.136 133.466,101.193 C134.703,100.186 135.869,99.143 136.947,98.083 z M116.698,115.487 C116.786,115.646 117.298,116.547 118.076,117.166 L111.715,118.897 C111.149,119.039 110.672,118.986 110.248,118.721 C109.382,118.191 109.082,116.936 109.064,116.865 L107.845,112.43 C110.001,112.13 112.103,111.706 114.153,111.158 L116.698,115.487 z M125.691,113.703 C125.727,113.738 126.257,114.286 126.999,114.71 L119.719,116.689 C118.889,116.812 117.899,115.434 117.616,114.922 L115.196,110.84 C117.175,110.275 119.101,109.603 120.973,108.79 L125.691,113.703 z M106.767,112.536 L108.022,117.095 C108.057,117.254 108.322,118.244 109.011,119.039 C108.04,118.756 107.739,118.473 106.52,117.289 C106.52,117.289 103.092,114.021 101.944,112.907 C103.587,112.854 105.195,112.713 106.767,112.536 z M93.515,111.494 L97.261,98.03 L99.452,98.03 L99.452,111.865 C97.438,111.847 95.459,111.724 93.515,111.494 z M91.978,117.095 L93.233,112.554 C94.805,112.748 96.431,112.872 98.056,112.925 C96.749,114.144 92.544,118.155 92.544,118.155 C92.049,118.632 91.519,118.897 90.989,119.039 C91.678,118.244 91.943,117.236 91.978,117.095 z M126.698,105.928 L134.685,111.635 C134.72,111.653 135.18,111.989 135.833,112.289 C134.066,112.766 130.285,113.791 130.285,113.791 L129.084,114.127 C128.077,114.374 126.84,113.367 126.451,112.96 C126.451,112.96 124.507,110.946 122.016,108.349 C123.624,107.624 125.179,106.812 126.698,105.928 z M102.756,98.012 L106.485,111.476 C104.523,111.724 102.544,111.83 100.53,111.847 L100.53,98.012 L102.756,98.012 z M85.847,111.141 C87.897,111.688 90.017,112.112 92.137,112.413 L90.918,116.848 C90.918,116.865 90.635,118.173 89.716,118.721 C89.31,118.968 88.815,119.021 88.268,118.897 L81.907,117.148 C82.684,116.53 83.214,115.611 83.302,115.452 C83.302,115.452 84.38,113.632 85.847,111.141 z M62.294,86.668 L62.294,88.064 L56.286,88.471 C55.88,87.835 55.473,87.234 55.102,86.668 L62.311,86.668 z M189.884,81.474 C189.919,81.527 189.99,81.65 190.008,81.88 C190.008,82.092 189.937,82.357 189.742,82.746 C189.725,82.781 188.417,84.937 188.417,84.937 C188.152,85.326 188.011,85.52 186.986,85.591 L146.806,85.591 C147.265,84.849 147.637,84.142 147.955,83.541 C147.972,83.523 149.386,80.979 151.912,80.979 L188.735,80.979 C189.106,80.997 189.601,81.032 189.884,81.474 z M144.191,89.602 L178.982,91.916 C179.035,91.916 179.194,91.934 179.388,91.952 C179.229,92.111 179.106,92.323 179,92.535 C179,92.517 177.674,94.902 177.374,95.397 C177.303,95.485 176.932,95.91 175.678,95.751 L142.919,91.351 C143.361,90.75 143.802,90.167 144.191,89.602 z M132.512,101.952 L141.152,105.999 C141.205,106.016 142.088,106.476 143.166,106.67 C142.671,107.271 142.424,107.872 142.389,107.978 C141.929,109.144 141.47,110.345 138.254,111.547 C136.929,111.936 135.356,110.769 135.339,110.769 C135.339,110.769 131.752,108.207 127.688,105.31 C129.349,104.285 130.957,103.154 132.512,101.952 z M140.745,94.054 C141.24,93.471 141.717,92.906 142.159,92.323 L175.059,96.74 L167.744,98.878 C166.525,99.214 164.104,98.843 163.256,98.666 C163.256,98.666 147.831,95.503 140.745,94.054 z M139.95,94.955 L163.062,99.708 C163.115,99.726 163.592,99.814 164.246,99.903 L156.577,102.164 C155.005,102.571 152.937,101.899 152.92,101.882 L152.902,101.882 L137.83,97.235 C138.572,96.475 139.279,95.715 139.95,94.955 z M144.933,88.524 C145.375,87.87 145.799,87.234 146.17,86.633 L185.148,86.633 C184.989,86.792 184.901,86.951 184.813,87.093 L183.417,89.549 C183.205,89.92 182.922,90.485 181.986,90.803 C181.191,90.997 179.636,90.874 179.106,90.803 L144.933,88.524 z M72.277,105.31 L64.644,110.752 C64.626,110.769 63.053,111.953 61.711,111.529 C58.53,110.328 58.053,109.126 57.594,107.96 C57.558,107.836 57.311,107.236 56.799,106.635 C57.876,106.44 58.777,105.981 58.83,105.963 C58.83,105.963 63.142,103.949 67.453,101.935 C69.008,103.172 70.634,104.285 72.277,105.31 z M73.514,112.96 C73.125,113.385 71.888,114.392 70.881,114.162 L64.114,112.307 C64.785,112.024 65.244,111.671 65.28,111.653 C65.28,111.653 69.043,108.95 73.266,105.928 C74.804,106.829 76.358,107.642 77.949,108.349 L73.514,112.96 z M62.188,97.235 L47.116,101.882 C47.063,101.899 45.013,102.589 43.44,102.164 C40.914,101.422 38.263,100.627 35.772,99.903 C36.426,99.814 36.903,99.726 36.956,99.708 C36.956,99.708 53.265,96.351 60.067,94.955 C60.721,95.715 61.428,96.457 62.188,97.235 z M84.769,110.84 L82.348,114.904 C82.066,115.434 81.076,116.83 80.228,116.689 L72.948,114.71 C73.708,114.286 74.238,113.738 74.273,113.703 C74.273,113.703 76.358,111.547 78.991,108.79 C80.864,109.586 82.79,110.275 84.769,110.84 z M66.534,101.21 L58.353,105.027 C57.806,105.292 56.233,105.928 55.173,105.628 C54.855,105.539 51.268,104.497 46.656,103.119 C47.098,103.013 47.398,102.924 47.434,102.924 C47.416,102.924 60.103,99.019 63.053,98.101 C64.131,99.143 65.28,100.186 66.534,101.21 z M59.255,94.037 L36.744,98.648 C35.878,98.825 33.51,99.196 32.256,98.878 C28.863,97.871 26.089,97.076 24.923,96.722 L57.841,92.305 C58.3,92.888 58.76,93.454 59.255,94.037 z M55.085,88.559 L20.877,90.838 C20.347,90.891 18.792,91.015 17.997,90.821 C17.06,90.485 16.742,89.937 16.565,89.566 C16,88.594 15.258,87.128 14.869,86.668 L53.865,86.668 C54.219,87.269 54.643,87.905 55.085,88.559 z M53.212,85.608 L13.032,85.608 L13.032,85.591 C12.095,85.52 11.901,85.414 11.6,84.937 C11.6,84.937 10.364,82.905 10.275,82.746 C10.063,82.357 9.992,82.074 10.01,81.898 C10.028,81.403 10.381,81.014 11.282,80.997 L48.105,80.997 C50.597,80.997 52.063,83.559 52.063,83.559 C52.381,84.159 52.77,84.849 53.212,85.608 z M55.809,89.619 C56.215,90.185 56.639,90.768 57.081,91.369 L24.305,95.751 C23.068,95.91 22.679,95.503 22.608,95.397 L20.983,92.517 C20.877,92.305 20.735,92.128 20.594,91.969 C20.824,91.952 55.809,89.619 55.809,89.619 z" fill="#000000"/>
  </g>
</svg>
