<?xml version="1.0" encoding="UTF-8"?>
<!DOCTYPE svg PUBLIC "-//W3C//DTD SVG 1.1//EN" "http://www.w3.org/Graphics/SVG/1.1/DTD/svg11.dtd">
<svg version="1.1" xmlns="http://www.w3.org/2000/svg" xmlns:xlink="http://www.w3.org/1999/xlink" x="0" y="0" width="200" height="200" viewBox="0, 0, 200, 200">
  <g id="Layer_1">
    <path d="M186.873,80.394 L135.375,80.402 C134.064,80.402 133.207,80.013 133.207,78.205 L133.207,70.56 C133.207,68.356 132.021,67.192 129.868,67.192 L70.908,67.192 C68.704,67.192 67.569,68.437 67.569,70.538 L67.569,78.183 C67.569,79.794 66.807,80.38 65.394,80.38 L31.645,80.387 C29.06,80.387 27.552,81.617 26.776,83.235 L10.337,115.351 C10.124,115.762 10,116.237 10,116.721 C10,117.988 10.827,119.635 13.134,119.635 L65.387,119.628 C66.998,119.628 67.562,120.36 67.562,121.825 L67.562,129.462 C67.562,131.768 68.894,132.808 70.908,132.808 L129.861,132.808 C131.867,132.808 133.207,131.834 133.207,129.484 L133.2,121.846 C133.2,120.287 133.859,119.65 135.367,119.65 L168.143,119.642 C170.398,119.642 172.023,119.049 173.158,116.948 L189.407,85.205 C189.766,84.517 190,84.129 190,83.316 C190,81.148 188.14,80.394 186.873,80.394 z M173.891,93.186 L166.056,108.512 C165.565,109.406 164.694,109.435 164.079,109.435 L125.211,109.435 C123.6,109.435 123.014,110.16 123.014,111.624 L123.014,120.441 C123.014,121.898 122.37,122.608 120.803,122.608 L79.966,122.608 C78.597,122.608 77.762,122.125 77.762,120.419 L77.762,111.61 C77.762,109.999 77.022,109.428 75.558,109.428 L27.896,109.428 C26.724,109.428 25.919,108.695 25.919,107.67 C25.919,107.37 25.992,107.099 26.124,106.843 L33.959,91.524 C34.259,90.99 34.75,90.602 35.929,90.602 L75.558,90.609 C76.927,90.609 77.776,90.06 77.776,88.398 L77.776,79.581 C77.776,78.022 78.457,77.399 79.966,77.399 L120.796,77.392 L120.796,77.392 C122.26,77.392 122.992,78.044 122.992,79.603 L122.992,88.412 C122.992,89.928 123.695,90.594 125.211,90.594 L172.111,90.594 C173.605,90.594 174.096,91.576 174.096,92.359 C174.096,92.645 174.022,92.93 173.891,93.186 z" fill="#000000"/>
  </g>
</svg>
