<?xml version="1.0" encoding="UTF-8"?>
<!DOCTYPE svg PUBLIC "-//W3C//DTD SVG 1.1//EN" "http://www.w3.org/Graphics/SVG/1.1/DTD/svg11.dtd">
<svg version="1.1" xmlns="http://www.w3.org/2000/svg" xmlns:xlink="http://www.w3.org/1999/xlink" x="0" y="0" width="200" height="200" viewBox="0, 0, 200, 200">
  <g id="Layer_1">
    <path d="M78.033,89.257 C78.236,86.876 81.226,84.19 80.82,81.758 C80.465,79.832 78.084,78.21 75.702,77.856 C74.334,77.653 69.824,77.298 68.811,77.248 C67.594,77.197 64.351,77.146 63.287,77.146 C62.274,77.146 59.588,77.096 58.777,77.096 C57.966,77.096 57.004,77.045 55.686,76.842 C54.369,76.64 53.456,76.336 52.19,75.981 C50.923,75.575 49.909,75.271 48.896,75.069 C47.882,74.866 46.616,74.663 45.754,74.562 C44.893,74.461 43.119,74.359 41.852,74.309 C40.535,74.309 37.342,74.309 36.278,74.309 C35.265,74.309 32.022,74.461 31.211,74.461 C30.349,74.461 29.488,74.461 29.083,74.461 C28.677,74.461 28.779,74.663 28.576,74.714 C28.373,74.765 27.41,74.714 26.853,74.714 C26.296,74.714 25.89,74.714 25.687,74.663 C25.485,74.663 25.231,74.663 25.231,74.663 C25.231,74.663 25.181,74.866 25.383,74.917 C25.586,74.967 26.042,75.018 26.245,75.018 C26.397,75.018 27.714,75.119 28.17,75.17 C28.627,75.17 29.437,75.17 29.944,75.221 C30.451,75.271 31.363,75.271 31.971,75.271 C32.579,75.271 34.961,75.271 35.822,75.271 C36.684,75.322 38.356,75.322 39.167,75.322 C39.977,75.373 41.903,75.423 43.423,75.626 C44.943,75.829 46.16,75.981 47.68,76.336 C49.149,76.69 50.872,77.248 51.683,77.501 C52.544,77.754 53.71,78.058 54.267,78.21 C54.875,78.362 55.433,78.362 55.585,78.514 C55.737,78.616 55.737,78.768 55.635,78.971 C55.534,79.173 55.483,79.224 55.382,79.427 C55.331,79.629 55.23,79.731 55.23,79.731 L54.673,79.731 C54.673,79.731 54.774,79.629 54.774,79.528 C54.774,79.427 54.47,79.224 54.115,79.173 C53.761,79.123 52.24,78.971 51.835,78.92 C51.43,78.869 49.909,78.717 49.099,78.717 C48.288,78.717 45.045,78.717 44.234,78.717 C43.423,78.768 40.383,78.666 39.623,78.717 C38.863,78.768 36.177,78.717 35.467,78.717 C34.758,78.717 33.086,78.717 32.376,78.717 C31.718,78.717 29.437,78.717 28.627,78.717 C27.816,78.717 25.079,78.616 24.573,78.666 C24.066,78.666 22.546,78.616 21.786,78.616 C21.025,78.616 18.441,78.514 17.782,78.514 C17.073,78.514 16.212,78.464 15.958,78.362 C15.705,78.261 14.235,77.501 13.627,77.248 C13.019,76.944 11.904,76.386 11.6,76.234 C11.296,76.082 10.992,75.879 10.891,75.829 C10.789,75.778 10.384,76.183 10.283,76.336 C10.181,76.488 9.979,76.336 9.979,76.336 C9.979,76.336 11.398,74.765 11.702,74.41 C12.006,74.055 12.36,73.599 12.512,73.548 C12.664,73.498 13.272,73.498 13.678,73.548 C14.033,73.599 16.465,73.802 16.921,73.853 C17.377,73.903 19.404,73.954 19.961,74.005 C20.519,74.005 23.052,74.055 23.914,74.055 C24.775,74.055 27.461,74.157 28.221,74.106 C29.032,74.055 31.262,73.853 31.92,73.802 C32.63,73.751 34.758,73.599 35.771,73.599 C36.785,73.548 38.863,73.599 39.521,73.548 C40.18,73.498 42.815,73.498 43.677,73.498 C44.589,73.498 47.122,73.599 47.984,73.65 C48.845,73.65 52.544,73.853 53.507,73.903 C54.47,73.954 59.284,74.106 60.348,74.157 C61.412,74.207 62.983,74.258 63.845,74.207 C64.706,74.157 68.709,73.954 69.925,73.954 C71.141,73.903 74.385,73.853 75.651,73.903 C76.969,73.954 80.111,74.258 81.175,74.359 C82.239,74.511 83.303,74.765 83.556,74.765 C83.861,74.765 84.317,74.815 84.519,74.967 C84.671,75.119 84.823,75.474 85.178,75.677 C85.482,75.879 85.938,75.93 86.09,76.133 C86.242,76.336 86.242,76.792 86.344,76.944 C86.445,77.146 86.8,77.704 86.85,78.109 C86.901,78.514 86.85,79.224 86.597,79.629 C86.344,80.085 85.887,80.592 85.431,81.099 C84.975,81.606 84.215,82.112 83.607,82.67 C82.948,83.227 81.884,84.038 81.327,84.798 C80.769,85.558 80.415,86.065 80.313,86.825 C80.212,87.585 80.263,88.041 80.212,88.193 C80.161,88.345 80.06,88.649 79.857,88.852 C79.655,89.055 78.895,89.967 78.59,90.321 C78.286,90.676 77.83,91.386 77.729,91.588 C77.628,91.791 77.526,91.943 77.526,91.943 L77.324,91.639 C77.324,91.639 77.729,91.183 77.78,91.031 C77.982,90.727 77.932,90.169 78.033,89.257 M15.299,80.288 C15.299,80.288 15.603,80.541 15.806,80.744 C16.059,80.947 16.059,81.2 16.059,81.403 C16.059,81.606 15.958,81.91 16.11,82.062 C16.262,82.264 16.972,82.518 17.377,82.72 C17.833,82.923 19.252,83.582 19.505,83.683 C19.708,83.785 20.164,83.987 20.519,83.987 C20.873,84.038 22.698,83.987 23.61,83.937 C24.522,83.886 26.904,83.785 27.968,83.734 C28.981,83.683 32.376,83.48 33.238,83.43 C34.099,83.379 38.609,83.126 39.572,83.024 C40.535,82.923 46.261,82.518 46.97,82.467 C47.73,82.366 51.835,82.011 52.443,81.96 C53.102,81.91 54.47,81.758 55.027,81.808 C55.585,81.859 55.838,82.214 55.889,82.366 C55.939,82.518 55.686,82.67 55.686,82.67 C55.686,82.67 56.091,82.619 56.142,82.568 C56.193,82.518 56.244,82.366 56.345,82.163 C56.446,81.96 56.75,81.656 56.801,81.555 C56.852,81.454 56.852,81.403 56.649,81.251 C56.446,81.099 56.446,81.099 56.345,80.947 C56.193,80.795 56.041,80.693 55.939,80.643 C55.889,80.541 55.737,80.44 55.635,80.339 C55.585,80.237 55.483,80.085 55.331,79.984 C55.129,79.883 54.875,80.035 54.774,80.035 C54.723,80.085 54.369,80.136 53.913,80.136 C53.456,80.187 51.48,80.136 50.669,80.136 C49.909,80.136 46.413,80.136 45.602,80.136 C44.791,80.136 41.295,80.136 40.636,80.136 C39.977,80.136 35.771,80.085 35.011,80.085 C34.251,80.035 30.552,80.035 29.792,80.035 C29.032,80.035 25.485,79.933 24.877,79.984 C24.218,80.035 21.634,79.933 20.772,79.933 C19.911,79.933 17.529,79.832 17.124,79.832 C16.718,79.832 15.401,79.832 15.401,79.832 L15.299,80.288 M19.86,85.913 C19.86,85.913 20.215,86.115 20.367,86.166 C20.569,86.217 20.873,86.673 20.924,86.876 C20.975,87.078 21.076,87.281 21.228,87.433 C21.38,87.585 22.394,87.889 23.052,88.041 C23.711,88.193 25.231,88.649 25.941,88.751 C26.65,88.852 27.613,88.751 28.576,88.7 C29.539,88.649 31.262,88.497 32.68,88.345 C34.099,88.193 38.153,87.686 39.217,87.534 C40.231,87.382 44.639,86.724 45.754,86.521 C46.869,86.369 51.43,85.609 52.24,85.457 C53,85.305 54.977,85.001 55.382,84.899 C55.787,84.798 56.244,84.899 56.497,85.001 C56.75,85.102 56.852,85.355 56.852,85.457 C56.852,85.558 56.801,85.71 56.801,85.71 L57.409,85.609 C57.409,85.609 57.409,85.254 57.51,85.051 C57.612,84.899 57.764,84.646 57.764,84.443 C57.764,84.241 57.156,83.886 56.953,83.734 C56.75,83.632 56.446,83.278 56.294,83.075 C56.142,82.872 56.041,82.974 55.889,82.974 C55.737,82.974 55.585,83.075 54.622,83.176 C53.659,83.227 50.923,83.531 50.112,83.582 C49.301,83.632 44.082,84.038 43.22,84.139 C42.308,84.19 36.075,84.646 35.163,84.697 C34.251,84.798 29.488,85.051 28.424,85.102 C27.41,85.153 24.066,85.305 23.204,85.355 C22.394,85.406 21.076,85.406 20.772,85.457 C20.468,85.507 19.86,85.507 19.86,85.507 L19.86,85.913 M25.586,90.473 C25.586,90.473 25.535,90.676 25.687,90.777 C25.738,90.828 25.991,90.828 26.194,90.929 C26.346,90.98 26.65,91.233 26.853,91.487 C27.106,91.74 27.056,91.994 27.208,92.348 C27.36,92.703 27.613,92.754 27.917,92.804 C28.221,92.855 29.032,93.058 29.843,93.159 C30.603,93.26 31.87,93.412 32.528,93.463 C33.187,93.514 33.339,93.463 34.15,93.412 C34.961,93.362 38.204,92.956 39.065,92.804 C39.927,92.652 43.372,91.943 44.285,91.74 C45.197,91.538 48.49,90.727 48.997,90.575 L53.152,89.409 C53.71,89.207 57.206,88.193 57.46,88.092 C57.764,87.99 58.017,87.94 58.169,87.94 C58.321,87.94 58.625,88.142 58.727,88.294 C58.828,88.446 58.727,88.7 58.727,88.7 L59.284,88.497 C59.284,88.497 59.284,88.345 59.335,88.142 C59.385,87.94 59.436,87.838 59.537,87.636 C59.639,87.484 59.689,87.129 59.639,87.028 C59.588,86.926 59.385,86.825 59.132,86.724 C58.879,86.673 58.422,86.521 58.118,86.369 C57.814,86.217 57.612,86.014 57.358,85.963 C57.105,85.862 56.801,86.065 56.396,86.166 C55.99,86.268 54.875,86.42 53.913,86.622 C52.95,86.774 49.301,87.433 48.186,87.636 C47.072,87.838 43.068,88.446 42.258,88.548 C41.447,88.649 36.633,89.359 35.771,89.46 C34.91,89.612 32.174,89.865 31.616,89.916 C31.059,89.967 29.437,90.169 28.88,90.169 C28.322,90.22 27.36,90.271 27.005,90.271 C26.65,90.321 26.448,90.423 26.144,90.473 C25.839,90.524 25.586,90.473 25.586,90.473 M32.528,95.186 C32.528,95.186 32.528,95.287 32.579,95.287 C32.68,95.338 32.832,95.389 32.984,95.439 C33.136,95.49 33.238,95.541 33.491,95.642 C33.745,95.743 34.049,95.895 34.353,96.047 C34.657,96.199 34.809,96.352 34.961,96.554 C35.163,96.757 35.315,96.858 35.619,96.96 C35.923,97.061 38.001,97.365 38.761,97.466 C39.521,97.568 41.346,97.72 41.802,97.72 C42.258,97.669 42.562,97.568 43.119,97.416 C43.727,97.264 46.109,96.605 46.768,96.402 C47.426,96.199 51.075,94.983 51.886,94.679 C52.696,94.426 55.23,93.463 55.838,93.21 C56.446,92.956 58.524,92.146 58.879,91.994 C59.233,91.842 59.943,91.538 60.196,91.436 C60.5,91.335 60.601,91.284 60.703,91.335 C60.804,91.335 61.159,91.538 61.21,91.639 C61.21,91.74 61.159,91.994 61.159,91.994 C61.159,91.994 61.412,91.892 61.564,91.842 L62.172,91.588 C62.172,91.588 61.919,91.386 61.919,91.284 C61.919,91.183 61.919,90.271 61.919,90.068 C61.919,89.865 61.868,89.764 61.767,89.663 C61.615,89.561 60.956,89.46 60.703,89.359 C60.449,89.308 59.74,89.105 59.487,89.055 C59.233,89.004 58.98,89.207 58.727,89.308 C58.524,89.409 56.345,90.068 55.585,90.321 C54.825,90.524 52.088,91.335 51.278,91.538 C50.467,91.74 46.362,92.804 45.703,92.956 C45.045,93.108 41.295,93.919 40.433,94.122 C39.572,94.274 35.923,94.781 35.417,94.882 C34.859,94.933 32.528,95.186 32.528,95.186 M42.258,99.24 C42.258,99.24 42.258,99.544 42.308,99.443 C42.41,99.392 42.714,99.443 42.916,99.493 C43.119,99.544 43.575,99.797 43.778,100.051 C43.981,100.304 44.031,100.507 44.386,100.659 C44.791,100.811 45.45,100.861 45.906,100.861 C46.362,100.861 47.882,100.912 48.642,100.912 C49.403,100.912 50.264,100.912 50.619,100.861 C50.973,100.861 51.227,100.709 51.632,100.507 C52.038,100.304 54.47,99.139 54.977,98.885 C55.483,98.632 59.284,96.656 59.791,96.402 C60.297,96.149 62.78,94.831 63.034,94.679 C63.287,94.527 63.54,94.375 63.845,94.375 C64.098,94.325 64.453,94.325 64.554,94.375 C64.655,94.426 64.706,94.629 64.706,94.629 L65.669,94.173 C65.871,94.122 66.581,93.666 66.581,93.666 C66.581,93.666 66.53,93.666 66.378,93.666 C66.226,93.666 65.871,93.615 65.517,93.514 C65.162,93.412 64.807,93.26 64.605,93.108 C64.402,92.906 64.351,92.45 64.351,92.247 C64.351,92.044 64.301,91.892 64.199,91.791 C64.098,91.69 63.946,91.69 63.693,91.69 C63.439,91.69 62.882,91.791 62.628,91.842 C62.375,91.892 61.818,92.196 61.615,92.298 C61.412,92.45 60.905,92.652 60.399,92.855 C59.841,93.058 56.294,94.527 55.635,94.781 C54.977,94.983 51.734,96.199 51.227,96.402 C50.669,96.605 47.933,97.517 47.376,97.72 C46.818,97.922 45.45,98.277 45.045,98.378 C44.69,98.48 43.423,98.835 43.22,98.936 C43.018,99.037 42.258,99.24 42.258,99.24 M51.075,102.382 C51.075,102.382 51.125,102.534 51.531,102.432 C51.784,102.432 51.987,102.534 52.342,102.686 C52.696,102.888 52.848,103.294 53.102,103.547 C53.355,103.8 53.761,103.8 54.065,103.8 C54.369,103.8 55.889,103.547 56.598,103.395 C57.308,103.243 59.284,102.838 59.689,102.736 C60.095,102.635 60.804,102.382 61.057,102.23 C61.311,102.078 62.527,101.165 62.932,100.861 C63.338,100.507 65.061,99.189 65.517,98.784 C65.973,98.378 68.304,96.453 68.506,96.301 C68.709,96.149 69.773,95.135 69.773,95.135 C69.773,95.135 69.368,95.237 69.115,95.237 C68.861,95.237 68.709,95.237 68.304,95.186 C67.898,95.135 67.544,94.781 67.392,94.578 C67.24,94.375 66.986,94.021 66.986,94.021 C66.986,94.021 66.885,94.071 66.682,94.122 C66.48,94.173 66.378,94.325 66.226,94.426 C66.074,94.527 65.111,95.034 64.402,95.439 C63.693,95.845 60.449,97.618 59.892,97.922 C59.335,98.277 54.926,100.507 54.47,100.709 C54.014,100.912 51.075,102.382 51.075,102.382 M59.689,104.105 C59.74,104.257 60.145,104.054 60.399,103.953 C60.5,103.902 60.703,103.953 60.905,104.054 C61.108,104.155 61.514,104.51 61.666,104.713 C61.868,104.915 62.172,104.915 62.426,104.915 C62.679,104.915 63.743,104.713 64.098,104.611 C64.503,104.51 65.162,104.307 65.517,104.206 C65.871,104.105 66.125,103.953 66.429,104.155 C66.682,104.257 67.037,104.358 67.189,104.257 C67.29,104.155 68.405,102.99 68.811,102.534 C69.216,102.128 70.584,100.659 71.04,100.152 L73.422,97.517 C73.422,97.517 73.371,97.416 73.371,97.314 C73.371,97.213 73.32,97.061 73.32,96.858 C73.32,96.605 73.118,96.554 72.966,96.554 C72.814,96.554 72.51,96.605 72.155,96.605 C71.851,96.605 71.395,96.605 71.04,96.453 C70.736,96.301 70.533,96.047 70.381,95.946 C70.229,95.845 70.179,95.541 70.179,95.541 C70.179,95.541 69.368,96.301 68.963,96.656 C68.557,97.061 66.986,98.378 66.48,98.784 C65.922,99.24 64.25,100.608 63.845,100.912 C63.439,101.216 62.02,102.331 61.666,102.635 C61.311,102.939 59.689,104.105 59.689,104.105 M67.493,104.611 C67.493,104.611 67.645,104.662 67.949,104.611 C68.101,104.611 68.253,104.763 68.405,104.966 C68.506,105.169 68.659,105.371 68.912,105.422 C69.165,105.473 69.672,105.321 69.976,105.27 C70.28,105.219 71.952,104.814 72.256,104.713 C72.56,104.611 72.814,104.561 73.118,104.915 C73.32,105.169 73.472,105.371 73.523,105.321 C73.624,105.27 73.624,105.219 73.726,105.017 C73.777,104.814 74.334,103.8 74.537,103.344 C74.739,102.888 75.55,101.267 75.651,100.963 C75.702,100.709 75.702,99.899 75.702,99.544 C75.702,99.189 75.651,98.074 75.651,97.973 C75.651,97.872 75.651,97.77 75.499,97.72 C75.347,97.669 74.841,97.821 74.486,97.872 C74.131,97.973 73.726,97.973 73.624,97.973 C73.574,97.973 73.422,98.125 73.27,98.328 C73.067,98.53 72.408,99.341 72.003,99.797 C71.598,100.253 69.723,102.28 69.368,102.635 C69.064,102.99 67.493,104.611 67.493,104.611 M75.043,103.446 C75.043,103.446 75.195,103.8 75.246,104.003 C75.347,104.206 75.195,104.966 75.195,105.169 C75.145,105.371 75.145,105.523 75.398,105.726 C75.651,105.929 75.955,105.979 76.057,106.081 C76.209,106.284 76.412,106.284 76.513,106.233 C76.614,106.182 76.868,105.979 77.02,105.929 C77.121,105.878 77.07,105.777 77.02,105.625 C76.969,105.473 76.918,105.371 76.969,105.219 C77.02,105.067 76.868,104.814 76.817,104.662 C76.766,104.51 76.361,103.547 76.31,103.344 C76.209,103.091 76.006,102.838 75.905,102.635 C75.803,102.382 75.702,101.926 75.702,101.926 C75.702,101.926 75.601,102.23 75.499,102.382 C75.449,102.534 75.043,103.446 75.043,103.446 M67.189,106.588 C67.189,106.588 67.29,106.892 67.392,107.094 C67.544,107.449 67.594,107.601 67.594,107.601 C67.594,107.601 67.797,107.652 67.898,107.652 C67.949,107.652 68.05,107.702 68.253,107.905 C68.456,108.108 68.557,108.462 68.811,108.969 C69.064,109.476 70.128,111.452 70.533,112.06 C70.939,112.668 72.206,114.341 72.814,114.999 C73.371,115.658 75.195,117.482 76.057,118.141 C76.918,118.851 78.692,120.067 79.401,120.523 C80.161,120.979 82.188,122.094 82.644,122.296 C83.1,122.55 84.165,122.955 84.418,123.107 C84.671,123.259 84.722,123.411 84.823,123.563 C84.874,123.715 84.671,123.918 84.671,123.918 L84.975,124.07 L85.33,123.512 L85.735,122.854 C85.735,122.854 85.583,122.752 85.533,122.651 C85.431,122.55 85.229,122.55 84.874,122.398 C84.519,122.246 83.151,121.638 82.087,121.08 C81.023,120.573 79.249,119.408 78.489,118.901 C77.729,118.394 75.651,116.621 75.246,116.266 C74.841,115.911 73.27,114.138 72.763,113.58 C72.307,112.972 71.192,111.402 70.787,110.743 C70.381,110.135 69.723,108.766 69.571,108.412 C69.419,108.108 69.317,107.702 69.317,107.5 C69.368,107.297 69.165,107.094 69.064,107.044 C68.963,106.993 68.709,106.993 68.557,107.044 C68.405,107.094 68.304,107.196 68,107.196 C67.645,107.196 67.189,106.588 67.189,106.588 M69.419,106.993 C69.419,106.993 69.419,107.044 69.317,107.145 C69.368,107.246 69.571,107.246 69.723,107.246 C69.875,107.246 70.027,107.297 70.331,107.398 C70.635,107.5 70.837,107.753 70.989,107.905 C71.091,108.057 71.547,108.969 71.952,109.729 C72.358,110.439 73.118,111.503 73.726,112.263 C74.334,113.023 75.297,114.087 75.854,114.645 C76.412,115.202 77.324,116.013 77.982,116.52 C78.59,117.026 79.604,117.685 80.364,118.192 C81.124,118.698 82.29,119.357 82.847,119.661 C83.404,119.965 84.519,120.523 84.773,120.624 C85.026,120.725 85.431,120.928 85.583,121.08 C85.735,121.232 85.887,121.587 85.887,121.84 C85.887,122.094 85.685,122.296 85.735,122.347 C85.786,122.398 85.938,122.398 85.938,122.347 C85.989,122.246 86.445,121.536 86.597,121.232 C86.749,120.928 87.357,120.016 87.56,119.611 C87.762,119.256 88.32,118.394 88.624,117.837 C88.877,117.33 89.587,116.266 89.637,116.114 C89.688,116.013 89.637,115.861 89.485,115.759 C89.384,115.658 89.333,115.557 89.131,115.455 C88.928,115.405 88.269,115.101 87.61,114.847 C86.952,114.543 86.141,114.138 85.482,113.783 C84.823,113.479 83.354,112.466 82.847,112.111 C82.34,111.756 81.073,110.641 80.617,110.236 C80.161,109.78 79.553,109.071 79.097,108.564 C78.641,108.006 77.83,106.841 77.78,106.74 C77.729,106.638 77.628,106.486 77.526,106.486 C77.425,106.486 77.324,106.334 77.273,106.284 C77.222,106.233 77.02,106.385 76.918,106.436 C76.817,106.486 76.26,106.841 75.955,106.993 C75.651,107.094 75.297,107.145 74.942,107.196 C74.587,107.246 74.334,106.993 74.131,106.841 C73.979,106.689 73.827,106.334 73.675,106.131 C73.574,105.979 73.472,105.878 73.371,105.878 C73.27,105.878 73.118,105.929 72.915,105.979 C72.763,106.03 72.307,106.233 71.902,106.334 C71.547,106.436 70.584,106.689 70.229,106.841 C69.875,106.993 69.419,106.993 69.419,106.993 M56.294,78.616 C56.294,78.616 56.193,78.768 56.091,78.92 L55.99,79.224 L56.244,79.275 C56.294,79.275 56.396,79.325 56.548,79.477 C56.7,79.629 57.308,79.883 57.46,79.933 C57.612,79.984 57.865,80.035 58.068,79.984 C58.321,79.984 59.385,79.832 59.791,79.781 C60.196,79.781 61.412,79.629 61.666,79.629 C61.919,79.579 62.223,79.731 62.324,79.781 C62.426,79.832 62.375,80.035 62.375,80.035 C62.375,80.035 62.78,79.984 62.882,79.933 C62.983,79.883 62.932,79.731 62.983,79.579 C63.084,79.427 63.135,79.173 63.236,79.072 C63.338,79.021 63.236,78.768 63.236,78.768 L63.034,78.717 C62.932,78.717 62.628,78.616 62.426,78.616 C62.223,78.616 60.145,78.616 59.436,78.616 C58.727,78.616 56.294,78.616 56.294,78.616 M57.004,82.062 C57.004,82.062 57.206,82.163 57.257,82.112 C57.308,82.163 57.409,82.214 57.662,82.366 C57.966,82.518 58.22,82.619 58.524,82.67 C58.828,82.72 59.183,82.518 59.588,82.416 C59.993,82.315 61.007,82.062 61.26,81.96 C61.514,81.859 62.324,81.656 62.628,81.656 C62.932,81.707 63.186,81.91 63.287,81.96 C63.338,82.011 63.236,82.264 63.236,82.264 C63.236,82.264 63.338,82.214 63.388,82.214 C63.439,82.163 63.845,82.062 63.845,82.062 C63.845,82.062 63.845,81.859 63.895,81.758 C63.946,81.656 63.895,81.606 63.997,81.504 C64.098,81.403 64.149,81.302 64.199,81.2 C64.25,81.099 64.098,80.896 63.946,80.795 C63.794,80.693 63.54,80.491 63.388,80.389 C63.236,80.288 63.034,80.237 62.882,80.237 C62.78,80.237 62.375,80.389 61.919,80.491 C61.463,80.592 60.551,80.795 60.044,80.896 C59.537,81.048 58.473,81.302 58.22,81.352 C57.966,81.403 57.409,81.606 57.308,81.656 C57.257,81.707 57.004,82.062 57.004,82.062 M58.068,84.798 C58.068,84.798 58.27,84.798 58.22,84.95 C58.372,84.95 58.676,85.153 58.929,85.254 C59.183,85.355 59.487,85.406 59.791,85.457 C60.145,85.507 60.348,85.406 60.652,85.254 C61.007,85.102 61.919,84.697 62.223,84.545 C62.527,84.393 63.388,84.038 63.591,83.987 C63.794,83.937 64.149,84.038 64.25,84.19 C64.351,84.291 64.351,84.494 64.351,84.494 L64.605,84.443 C64.757,84.393 64.909,84.291 64.909,84.291 C64.909,84.291 64.909,84.089 64.959,83.987 C65.01,83.886 65.01,83.785 65.111,83.632 C65.213,83.531 65.314,83.278 65.263,83.126 C65.213,82.974 65.01,82.872 64.757,82.771 C64.503,82.67 64.098,82.568 63.895,82.568 C63.693,82.568 63.388,82.72 63.186,82.822 C62.983,82.872 62.122,83.176 61.716,83.278 C61.362,83.379 60.399,83.632 59.892,83.835 C59.385,83.987 58.929,84.139 58.777,84.241 C58.625,84.342 58.321,84.393 58.22,84.494 C58.068,84.595 58.068,84.798 58.068,84.798 M60.095,87.028 C60.095,87.028 60.044,87.028 60.044,87.18 C60.044,87.281 60.449,87.382 60.551,87.484 C60.652,87.585 61.057,87.838 61.26,87.94 C61.463,88.041 61.615,88.092 62.02,88.142 C62.375,88.193 62.476,88.041 62.628,87.94 C62.73,87.889 63.54,87.382 63.845,87.18 C64.199,86.977 65.01,86.521 65.162,86.47 C65.365,86.42 65.618,86.47 65.77,86.622 C65.922,86.724 65.973,86.926 65.973,86.926 C65.973,86.926 66.226,86.825 66.378,86.724 L66.733,86.521 C66.733,86.521 66.682,86.217 66.682,86.115 C66.632,86.014 66.733,85.71 66.784,85.609 C66.784,85.558 66.784,85.254 66.682,85.102 C66.632,84.95 66.328,84.899 66.074,84.849 C65.871,84.798 65.466,84.697 65.263,84.697 C65.061,84.697 64.909,84.849 64.757,84.899 C64.605,84.95 63.895,85.305 63.439,85.507 C62.983,85.71 61.564,86.318 61.21,86.521 L60.095,87.028 M62.122,89.713 L62.071,89.916 C62.071,89.916 62.375,89.815 62.527,89.815 C62.679,89.815 62.78,89.865 62.983,89.967 C63.186,90.068 63.388,90.169 63.54,90.22 C63.693,90.271 63.895,90.271 64.25,90.423 C64.605,90.575 64.909,90.777 64.959,90.777 C65.01,90.777 65.871,90.017 66.226,89.713 L68.456,87.94 C68.456,87.94 68.456,87.585 68.456,87.433 C68.506,87.332 68.557,87.18 68.506,87.028 C68.506,86.876 68.304,86.876 68,86.876 C67.696,86.876 67.138,86.825 66.885,86.876 C66.682,86.926 66.226,87.23 65.77,87.484 C65.314,87.737 64.149,88.396 63.693,88.7 C63.236,89.004 62.122,89.713 62.122,89.713 z M64.807,91.639 C64.858,91.791 65.061,91.69 65.061,91.69 C65.061,91.69 65.213,91.588 65.365,91.639 C65.517,91.639 65.871,91.943 66.175,91.943 C66.48,91.943 66.936,92.044 67.138,92.196 C67.341,92.348 67.442,92.703 67.442,92.703 C67.442,92.703 67.797,92.399 68,92.146 C68.202,91.892 68.811,91.335 69.115,91.031 C69.368,90.777 70.077,90.119 70.28,89.916 C70.483,89.713 70.635,89.561 70.635,89.561 C70.635,89.561 70.584,89.511 70.533,89.409 C70.483,89.359 70.483,89.156 70.483,89.004 C70.533,88.852 70.432,88.446 70.381,88.244 C70.331,88.041 70.077,88.041 69.925,88.041 C69.773,88.041 69.419,88.142 69.267,88.142 C69.115,88.142 68.963,88.142 68.861,88.244 C68.76,88.345 67.949,88.953 67.645,89.207 C67.341,89.511 66.175,90.423 65.77,90.777 C65.365,91.132 64.807,91.639 64.807,91.639 M67.645,93.311 C67.645,93.311 67.898,93.311 67.746,93.26 C67.797,93.26 68,93.159 68.101,93.159 C68.202,93.159 68.354,93.311 68.506,93.463 C68.709,93.615 68.861,93.666 69.165,93.666 C69.469,93.666 69.773,93.615 70.027,93.869 C70.229,94.021 70.229,94.274 70.229,94.274 C70.229,94.274 70.584,94.021 70.837,93.767 C71.091,93.514 71.952,92.652 72.307,92.348 C72.662,92.044 73.219,91.487 73.422,91.284 C73.624,91.081 73.979,90.727 73.979,90.727 C73.979,90.727 73.878,90.777 73.726,90.777 C73.523,90.777 73.32,90.727 72.966,90.625 C72.611,90.524 72.408,90.22 72.358,90.017 C72.307,89.815 72.206,89.612 72.054,89.561 C71.902,89.511 71.598,89.663 71.344,89.764 C71.091,89.865 70.939,90.068 70.685,90.321 C70.432,90.575 69.469,91.487 69.165,91.791 L67.645,93.311 M70.685,94.679 C70.685,94.679 70.787,94.73 71.04,94.679 C71.192,94.629 71.192,94.629 71.344,94.679 C71.496,94.73 71.648,94.983 71.902,95.135 C72.155,95.287 72.206,95.186 72.408,95.237 C72.611,95.287 72.712,95.287 72.915,95.642 C73.168,95.997 73.118,96.25 73.118,96.25 C73.118,96.25 73.219,96.098 73.32,95.946 C73.422,95.845 73.675,95.338 73.827,95.135 C73.979,94.933 74.739,93.767 75.094,93.26 C75.398,92.754 76.057,91.892 76.26,91.588 C76.462,91.284 76.665,91.031 76.665,91.031 C76.665,91.031 76.513,91.081 76.412,91.183 C76.31,91.284 75.905,91.284 75.702,91.284 C75.499,91.284 75.195,91.233 74.891,91.183 C74.638,91.183 74.486,90.98 74.486,90.98 C74.486,90.98 73.878,91.588 73.523,91.943 C73.168,92.298 72.358,93.058 71.952,93.463 C71.547,93.869 70.685,94.679 70.685,94.679 M76.918,91.639 C76.918,91.639 76.766,91.69 76.564,91.791 C76.462,91.943 76.361,92.146 76.107,92.5 C75.854,92.855 75.702,93.26 75.499,93.716 C75.297,94.173 75.246,94.477 75.094,94.781 C74.942,95.085 74.79,95.49 74.689,95.845 C74.587,96.199 74.689,96.402 74.79,96.605 C74.891,96.757 75.043,96.96 75.043,97.061 L75.043,97.314 L75.347,97.213 C75.449,97.213 75.651,97.061 75.651,97.061 L75.702,96.757 C75.702,96.656 75.803,96.554 75.905,96.301 C76.006,96.047 76.107,95.541 76.209,95.237 C76.26,94.933 76.614,93.818 76.716,93.564 C76.817,93.311 77.324,92.399 77.324,92.298 C77.374,92.196 77.222,92.095 77.121,91.943 C77.02,91.791 76.918,91.639 76.918,91.639 M63.845,78.768 C63.845,78.768 63.743,78.869 63.693,78.971 C63.642,79.072 63.642,79.173 63.642,79.173 C63.642,79.173 63.693,79.224 63.845,79.325 C63.946,79.376 64.047,79.427 64.25,79.528 C64.503,79.629 64.706,79.731 64.959,79.731 C65.263,79.781 65.567,79.731 65.922,79.68 C66.277,79.68 66.784,79.629 66.986,79.629 C67.189,79.629 67.493,79.731 67.645,79.781 C67.797,79.832 67.949,79.781 68.202,79.731 C68.506,79.68 68.861,79.579 69.013,79.579 C69.165,79.579 69.368,79.579 69.419,79.579 C69.469,79.579 69.672,79.781 69.773,79.933 C69.875,80.085 70.128,80.187 70.381,80.339 C70.635,80.541 70.685,80.845 70.685,81.048 C70.685,81.251 70.584,81.454 70.584,81.555 C70.584,81.656 70.685,81.656 70.888,81.707 C71.091,81.707 71.344,81.96 71.496,82.062 C71.648,82.214 71.699,82.67 71.699,82.872 C71.699,83.024 71.699,83.126 71.851,83.126 C71.952,83.126 72.206,83.176 72.459,83.278 C72.712,83.379 72.864,83.683 72.966,83.886 C73.016,84.089 72.966,84.241 73.067,84.342 C73.168,84.443 73.27,84.342 73.574,84.393 C73.827,84.443 74.081,84.545 74.182,84.747 C74.283,84.899 74.435,85.153 74.385,85.355 C74.334,85.558 74.334,85.71 74.334,85.71 C74.334,85.71 74.486,85.659 74.587,85.609 C74.79,85.507 74.993,85.457 75.195,85.457 C75.398,85.457 75.651,85.558 75.854,85.71 C76.057,85.862 76.158,86.115 76.158,86.42 C76.107,86.724 75.702,87.129 75.499,87.23 C75.297,87.332 74.993,87.23 74.891,87.23 C74.79,87.23 74.638,87.332 74.435,87.534 C74.233,87.686 73.675,88.244 73.472,88.446 C73.27,88.649 72.814,89.156 72.814,89.156 C72.814,89.156 72.864,89.105 72.966,89.105 C73.016,89.105 73.118,89.055 73.27,89.004 C73.371,88.953 73.422,89.004 73.624,89.105 C73.827,89.207 73.979,89.561 74.03,89.764 C74.081,89.967 73.929,90.169 73.929,90.169 L74.081,90.169 C74.081,90.169 74.182,90.017 74.385,89.815 C74.537,89.663 74.841,89.257 75.246,88.801 C75.651,88.294 76.665,87.23 76.969,86.876 C77.273,86.521 78.033,85.811 78.134,85.659 C78.236,85.507 78.743,84.646 78.945,84.241 C79.148,83.835 79.401,83.176 79.452,82.518 C79.503,81.859 79.199,81.454 78.793,80.947 C78.388,80.44 77.02,79.883 76.31,79.629 C75.601,79.376 74.79,79.224 73.878,79.072 C72.966,78.92 71.648,78.92 70.888,78.869 C70.128,78.869 69.672,78.92 69.368,78.92 C69.064,78.92 68.253,78.869 67.746,78.819 C67.24,78.717 66.328,78.717 65.567,78.717 C64.858,78.717 63.845,78.768 63.845,78.768 M64.503,81.149 C64.503,81.149 64.453,81.251 64.554,81.302 L64.554,81.504 C64.554,81.504 64.605,81.555 64.706,81.504 C64.757,81.454 64.807,81.403 64.959,81.454 C65.111,81.504 65.213,81.555 65.618,81.606 C66.023,81.707 66.074,81.606 66.328,81.555 C66.581,81.504 67.24,81.251 67.696,81.149 C68.152,81.048 68.557,80.947 68.709,80.896 C68.861,80.795 68.963,80.643 69.115,80.491 C69.267,80.339 69.267,80.288 69.317,80.237 C69.368,80.187 69.267,80.085 69.267,80.085 L69.013,80.085 C68.861,80.085 68.659,80.085 68.506,80.035 C68.354,79.984 68,80.085 67.594,80.187 C67.189,80.288 66.226,80.541 65.719,80.693 C65.213,80.845 64.503,81.149 64.503,81.149 M65.719,82.974 C65.719,82.974 65.719,83.075 65.719,83.126 C65.719,83.227 65.669,83.278 65.669,83.278 C65.669,83.278 65.871,83.278 65.973,83.278 C66.074,83.278 66.175,83.328 66.378,83.379 C66.632,83.43 66.834,83.48 67.037,83.48 C67.24,83.48 67.949,83.126 68.253,82.974 C68.557,82.822 69.368,82.416 69.52,82.315 C69.621,82.264 69.824,81.96 69.875,81.859 C69.925,81.707 69.824,81.656 69.672,81.555 C69.52,81.454 69.267,81.555 69.013,81.606 C68.76,81.707 67.594,82.112 66.986,82.366 C66.429,82.619 65.719,82.974 65.719,82.974 M67.037,84.95 L66.986,85.153 C66.986,85.153 67.341,85.051 67.442,85.051 C67.544,85.051 67.696,85.102 67.797,85.153 C67.898,85.203 68.253,85.406 68.405,85.406 C68.506,85.457 68.76,85.558 68.912,85.558 C69.064,85.507 69.368,85.254 69.571,85.102 C69.773,84.95 70.027,84.798 70.331,84.494 C70.635,84.241 70.685,84.089 70.787,83.937 C70.888,83.734 70.888,83.531 70.888,83.43 C70.888,83.328 70.685,83.227 70.483,83.227 C70.28,83.227 69.875,83.379 69.52,83.582 C69.165,83.785 68.304,84.19 68.05,84.342 C67.797,84.494 67.037,84.95 67.037,84.95 z M69.115,86.622 C69.115,86.622 69.216,86.622 69.469,86.572 C69.672,86.572 70.128,86.724 70.331,86.825 C70.584,86.926 70.888,87.129 70.989,87.078 C71.091,87.028 71.446,86.673 71.699,86.47 C71.902,86.268 72.56,85.761 72.56,85.761 C72.56,85.761 72.611,85.558 72.56,85.507 C72.56,85.406 72.408,85.457 72.358,85.355 C72.307,85.305 72.358,85.153 72.307,85.001 C72.256,84.849 72.054,84.849 72.003,84.798 C71.952,84.697 71.851,84.697 71.75,84.697 C71.648,84.697 71.446,84.849 71.141,85.051 C70.837,85.254 70.229,85.659 69.925,85.913 C69.571,86.217 69.115,86.622 69.115,86.622 M70.939,87.838 C70.939,87.838 71.141,87.838 71.395,88.041 C71.648,88.092 71.75,88.142 72.003,88.396 C72.256,88.598 72.358,88.903 72.358,88.903 C72.358,88.903 72.408,88.801 72.459,88.751 C72.51,88.7 73.016,88.193 73.32,87.889 C73.624,87.585 74.334,86.876 74.334,86.876 C74.334,86.876 74.283,86.774 74.283,86.724 C74.283,86.673 74.131,86.673 74.081,86.673 C74.03,86.622 74.03,86.521 74.03,86.369 C74.03,86.217 73.929,86.166 73.878,86.166 C73.827,86.115 73.624,86.166 73.523,86.166 C73.422,86.166 73.27,86.115 73.32,86.014 C73.371,85.862 73.168,85.862 73.168,85.862 C73.168,85.862 72.712,86.166 72.51,86.369 C72.307,86.572 72.003,86.825 71.75,87.078 C71.496,87.332 70.939,87.838 70.939,87.838 M75.145,89.663 L74.993,89.764 C74.993,89.764 75.195,89.764 75.347,89.865 C75.499,89.967 75.55,90.017 75.702,90.22 C75.905,90.423 75.905,90.828 75.905,90.828 C75.905,90.828 76.057,90.727 76.209,90.676 C76.31,90.625 76.513,90.524 76.513,90.524 C76.513,90.524 76.513,90.271 76.564,90.017 C76.614,89.764 76.716,89.511 76.716,89.308 C76.716,89.105 76.766,88.598 76.817,88.345 C76.868,88.041 77.121,87.484 77.121,87.484 C77.121,87.484 77.02,87.636 76.868,87.788 L75.955,88.751 C75.55,89.156 75.145,89.663 75.145,89.663 z M84.621,74.562 C84.621,74.562 84.823,74.663 84.874,74.917 C84.975,74.967 85.229,74.815 85.33,74.815 C85.431,74.815 85.583,74.815 85.735,74.815 C85.887,74.815 86.394,74.866 86.597,74.866 C86.8,74.815 87.509,74.562 88.066,74.359 C88.624,74.157 90.093,73.802 91.157,73.548 C92.222,73.244 94.097,72.991 95.211,72.839 C96.377,72.687 98.657,72.535 99.823,72.535 C100.988,72.484 103.268,72.687 104.282,72.788 C105.245,72.89 106.36,73.042 107.373,73.244 C108.386,73.447 109.907,73.853 110.768,74.106 C111.63,74.359 112.542,74.663 113.099,74.866 C113.707,75.069 114.315,75.373 114.417,75.474 C114.518,75.575 114.518,75.829 114.518,75.829 C114.518,75.829 114.721,75.727 114.923,75.626 C115.126,75.525 115.379,75.423 115.582,75.322 C115.734,75.221 115.886,75.119 115.886,75.119 C115.886,75.119 115.531,74.967 115.278,74.866 C115.025,74.765 114.974,74.613 114.923,74.562 C114.822,74.461 114.518,74.41 114.062,74.207 C113.606,74.005 112.39,73.599 111.63,73.346 C110.869,73.092 109.451,72.738 108.64,72.535 C107.829,72.282 105.802,71.927 104.789,71.826 C103.775,71.674 101.85,71.522 99.772,71.522 C97.34,71.522 94.857,71.775 93.59,71.978 C92.374,72.18 90.296,72.636 89.384,72.89 C88.674,73.092 86.293,73.903 85.837,74.106 C85.33,74.309 84.621,74.562 84.621,74.562 M120.041,89.359 C120.041,89.359 120.092,88.142 119.94,87.585 C119.383,84.697 116.292,82.771 114.569,81.504 C113.251,80.541 112.288,78.768 113.099,77.349 C113.403,76.842 113.809,76.386 113.809,76.386 C113.809,76.386 113.656,76.285 113.504,76.234 C113.352,76.133 113.251,76.031 113.15,75.93 C112.998,75.829 112.035,75.525 111.173,75.221 C110.363,74.917 108.437,74.461 107.424,74.207 C106.41,73.954 104.687,73.751 103.826,73.65 C102.964,73.548 100.785,73.396 99.873,73.396 C98.961,73.346 97.39,73.498 96.174,73.599 C94.958,73.701 93.438,73.954 92.424,74.157 C91.36,74.359 90.499,74.613 89.688,74.815 C88.877,75.018 87.661,75.474 87.408,75.575 C87.104,75.677 86.496,75.93 86.496,75.93 C86.496,75.93 86.648,76.082 86.8,76.133 C86.901,76.183 87.002,76.133 87.256,76.183 C87.509,76.183 87.864,76.437 88.066,76.589 C88.269,76.69 88.37,77.248 88.472,78.008 C88.573,78.717 88.168,79.629 87.914,80.035 C87.661,80.389 87.256,80.693 87.002,80.795 C86.749,80.845 86.597,80.541 86.597,80.541 C86.597,80.541 86.141,81.099 85.989,81.251 C85.837,81.454 84.823,82.315 84.317,82.72 C83.81,83.126 82.999,83.835 82.644,84.19 C82.29,84.545 81.935,85.001 81.935,85.001 C81.935,85.001 82.087,85.406 82.492,85.507 C82.746,85.558 82.847,85.305 83.354,85.001 C83.81,84.697 84.621,84.139 85.127,83.785 C85.634,83.43 87.002,82.72 87.56,82.467 C88.117,82.163 88.573,81.96 90.397,81.352 C92.222,80.744 94.198,80.389 95.566,80.187 C96.934,79.984 99.012,79.781 101.394,79.883 C103.775,79.984 106.005,80.389 107.677,80.744 C109.4,81.149 110.363,81.504 111.782,82.062 C113.2,82.619 114.518,83.328 115.785,84.139 C117.153,85.001 117.812,85.71 118.166,86.065 C118.521,86.42 119.129,87.23 119.281,87.636 C119.433,88.041 119.484,88.751 119.636,88.903 C119.788,89.055 120.041,89.359 120.041,89.359 M121.207,87.838 C121.359,89.409 122.119,90.98 122.17,91.791 C122.22,92.247 122.119,92.602 122.119,92.652 C122.119,92.703 122.322,93.108 122.322,93.108 C122.322,93.108 122.423,92.754 122.474,92.602 C122.524,92.45 122.626,92.146 122.626,91.994 C122.626,91.842 122.778,91.69 122.828,91.639 C122.879,91.588 122.93,91.335 122.93,91.081 L122.93,89.409 C122.93,89.055 122.93,88.75 122.879,88.497 C122.828,88.294 122.524,87.585 122.322,87.281 C122.119,86.977 121.866,86.622 121.714,86.369 C121.562,86.115 121.055,85.254 120.852,84.899 C120.649,84.494 120.143,83.632 120.041,83.379 C119.94,83.126 119.991,82.974 119.991,82.67 C120.041,82.366 120.143,81.606 120.193,81.302 C120.295,80.997 120.447,80.643 120.649,80.491 C120.852,80.339 121.156,80.085 121.156,80.085 L120.852,79.984 C120.852,79.984 120.801,79.883 120.801,79.781 C120.801,79.68 121.004,79.325 121.41,79.021 C121.815,78.717 122.474,78.464 123.082,78.261 C123.69,78.008 124.703,77.805 125.919,77.653 C127.136,77.501 129.213,77.501 130.429,77.501 C131.646,77.501 134.129,77.552 134.939,77.552 C135.75,77.552 138.03,77.501 139.145,77.4 C140.26,77.298 141.527,77.045 142.49,76.842 C143.452,76.64 145.53,76.234 146.898,75.981 C148.216,75.727 151.155,75.322 152.016,75.221 C152.878,75.119 155.563,74.815 156.526,74.765 C157.489,74.714 159.82,74.663 160.833,74.714 C161.695,74.714 162.759,74.866 163.468,74.815 C164.229,74.765 166.154,74.765 166.712,74.765 C167.269,74.765 168.89,74.765 169.499,74.815 C170.107,74.866 170.867,74.917 170.867,74.917 L170.715,75.373 C170.715,75.373 170.36,75.373 169.651,75.322 C168.941,75.271 167.168,75.221 166.661,75.221 C166.154,75.221 164.077,75.322 163.164,75.373 C162.252,75.423 159.617,75.626 158.705,75.677 C157.793,75.778 155.158,76.031 154.145,76.183 C153.131,76.285 149.635,76.893 148.874,77.045 C148.114,77.197 146.544,77.45 145.935,77.602 C145.327,77.704 145.023,77.856 144.669,77.957 C144.314,78.008 143.909,78.109 143.909,78.109 L143.959,78.261 C143.959,78.261 144.314,78.312 144.415,78.312 C144.517,78.312 144.517,78.362 144.719,78.413 C144.871,78.464 145.378,78.514 145.783,78.514 C146.189,78.464 147.506,78.312 148.469,78.261 C149.432,78.21 150.395,78.16 151.155,78.16 C151.915,78.109 154.651,78.109 155.614,78.109 C156.577,78.109 160.985,78.058 161.999,78.058 C163.012,78.058 166.053,78.008 167.168,78.008 C168.232,78.008 171.678,77.957 172.488,77.957 C173.299,77.906 177.049,77.906 178.164,77.856 C179.279,77.856 181.863,77.805 182.724,77.805 C183.586,77.805 184.903,77.754 185.258,77.704 C185.613,77.653 186.322,77.349 186.778,77.146 C187.234,76.944 187.944,76.64 188.197,76.538 C188.4,76.437 188.704,76.538 188.906,76.64 C189.059,76.69 189.109,76.944 189.109,76.944 C189.109,76.944 189.667,76.69 189.768,76.64 C189.869,76.589 189.92,76.386 189.971,76.285 C190.021,76.183 189.819,75.93 189.768,75.778 C189.717,75.677 189.363,75.271 189.059,74.917 C188.754,74.562 188.298,74.055 188.197,73.954 C188.096,73.853 187.69,73.599 187.386,73.548 C187.082,73.498 186.322,73.599 185.562,73.65 C184.853,73.701 182.471,73.903 181.559,74.005 C180.647,74.055 178.164,74.258 177.201,74.309 C176.289,74.359 174.566,74.359 174.059,74.359 C173.603,74.359 171.323,74.41 170.563,74.359 C169.803,74.309 168.485,74.258 167.573,74.207 C166.661,74.157 164.178,74.005 163.164,73.954 C162.151,73.903 158.198,73.701 157.286,73.701 C156.374,73.701 153.182,73.751 152.118,73.802 C151.104,73.853 148.266,74.055 147.253,74.106 C146.189,74.207 143.098,74.309 142.236,74.309 C141.375,74.309 139.804,74.359 138.943,74.41 C138.081,74.41 136.105,74.359 134.99,74.309 C133.824,74.258 132.102,74.005 130.835,73.853 C129.619,73.751 128.048,73.65 127.186,73.65 C126.376,73.65 124.754,73.751 123.842,73.802 C122.879,73.903 120.649,74.258 119.839,74.461 C119.079,74.663 117.102,75.17 116.291,75.474 C115.43,75.727 114.569,76.285 114.113,76.69 C113.859,76.893 113.656,77.096 113.555,77.298 C114.062,76.994 114.265,77.653 114.265,78.058 C114.265,78.92 115.177,80.035 115.886,80.541 C116.798,81.2 118.268,82.062 118.774,82.923 C119.281,83.785 119.585,84.494 120.041,85.153 C120.497,85.811 121.105,86.825 121.207,87.838 M120.751,80.896 C120.751,80.896 121.055,80.947 121.105,80.896 C121.207,80.896 121.359,81.099 121.46,81.251 C121.562,81.403 121.511,81.656 121.562,82.112 C121.663,82.568 121.916,82.974 122.17,83.48 C122.423,83.987 122.98,84.849 123.132,85.102 C123.284,85.355 123.69,85.609 123.842,85.862 C123.994,86.065 123.994,86.42 124.095,86.724 C124.247,87.028 124.703,87.484 125.007,87.788 C125.311,88.092 126.173,88.852 126.376,89.004 C126.528,89.156 126.832,89.46 126.832,89.511 C126.832,89.612 126.629,89.764 126.629,89.764 C126.629,89.764 126.68,89.815 126.781,89.815 C126.882,89.815 127.085,89.815 127.237,89.764 C127.338,89.713 127.288,89.663 127.338,89.561 C127.389,89.511 127.44,89.257 127.44,89.105 C127.44,88.953 127.338,88.75 127.237,88.649 C127.136,88.548 126.68,88.092 126.426,87.889 C126.173,87.686 125.565,87.18 125.21,86.876 C124.906,86.622 124.653,86.47 124.653,86.47 L124.906,86.318 C124.957,86.268 124.754,86.166 124.653,86.065 C124.551,85.963 124.551,85.761 124.703,85.558 C124.855,85.355 125.109,85.305 125.362,85.305 C125.615,85.305 125.818,85.609 125.919,85.811 C126.021,86.065 126.325,86.369 126.629,86.622 C126.933,86.876 127.744,87.585 127.997,87.788 C128.25,87.99 128.605,88.193 128.656,88.294 C128.706,88.345 128.605,88.548 128.605,88.548 C128.605,88.548 128.859,88.548 129.011,88.497 C129.163,88.497 129.365,88.446 129.416,88.345 C129.517,88.244 129.517,87.94 129.467,87.788 C129.416,87.636 129.011,87.281 128.808,87.078 C128.605,86.876 127.794,86.217 127.541,86.014 C127.288,85.811 126.781,85.406 126.73,85.305 C126.73,85.203 126.882,85.153 126.882,85.102 C126.882,85.051 126.73,85.001 126.629,84.899 C126.528,84.798 126.578,84.697 126.578,84.545 C126.578,84.393 126.781,84.241 126.933,84.19 C127.085,84.139 127.288,84.291 127.44,84.393 C127.592,84.545 127.845,84.899 127.997,85.051 C128.149,85.203 128.757,85.609 129.061,85.811 C129.365,86.065 130.024,86.47 130.227,86.673 C130.379,86.825 130.48,86.926 130.48,87.028 C130.48,87.129 130.531,87.23 130.531,87.23 C130.531,87.23 130.784,87.23 130.936,87.18 C131.139,87.129 131.189,87.078 131.189,87.078 C131.189,87.078 131.189,86.977 131.189,86.926 C131.189,86.876 131.189,86.724 131.189,86.724 C131.189,86.724 131.24,86.572 131.342,86.47 C131.494,86.369 131.443,86.268 131.291,86.115 C131.139,85.963 130.683,85.71 130.48,85.558 C130.277,85.406 129.467,84.849 129.163,84.646 C128.859,84.443 128.453,84.139 128.402,84.089 C128.402,83.987 128.554,83.886 128.554,83.886 C128.554,83.886 128.402,83.734 128.301,83.632 C128.2,83.531 128.301,83.278 128.402,83.176 C128.554,82.974 128.808,83.126 128.909,83.176 C129.011,83.227 129.315,83.531 129.467,83.632 C129.619,83.785 130.176,84.089 130.429,84.19 C130.683,84.291 131.595,84.849 131.848,85.001 C132.102,85.153 132.152,85.305 132.203,85.355 C132.254,85.457 132.254,85.558 132.254,85.558 C132.254,85.558 132.71,85.406 132.862,85.355 C133.014,85.305 132.912,85.254 132.963,85.153 C133.014,85.051 133.064,84.849 133.115,84.697 C133.166,84.545 132.862,84.393 132.71,84.291 C132.558,84.19 131.95,83.886 131.747,83.785 C131.544,83.683 130.835,83.278 130.531,83.126 C130.227,82.974 129.771,82.67 129.771,82.67 C129.771,82.67 129.771,82.619 129.821,82.619 C129.872,82.619 129.872,82.518 129.872,82.416 C129.872,82.315 129.72,82.264 129.669,82.163 C129.619,82.062 129.669,81.96 129.872,81.91 C130.075,81.859 130.277,81.96 130.48,82.011 C130.632,82.112 131.494,82.416 131.747,82.518 C132,82.619 132.659,82.872 133.014,83.024 C133.318,83.176 133.571,83.328 133.672,83.531 C133.774,83.734 133.672,83.886 133.672,83.886 L133.977,83.785 C134.027,83.785 134.331,83.582 134.331,83.582 C134.331,83.582 134.331,83.379 134.382,83.328 C134.382,83.278 134.433,83.126 134.534,83.024 C134.635,82.923 134.635,82.72 134.585,82.568 C134.534,82.366 134.179,82.264 133.875,82.214 C133.571,82.163 133.014,81.91 132.659,81.808 C132.355,81.707 131.595,81.504 131.342,81.403 C131.139,81.302 130.885,81.2 130.835,81.099 C130.784,81.048 130.885,80.947 130.936,80.896 C131.037,80.845 131.139,80.896 131.189,80.896 C131.24,80.845 131.291,80.795 131.392,80.693 C131.494,80.643 131.696,80.744 132.051,80.795 C132.355,80.845 132.912,80.997 133.216,81.048 C133.52,81.099 134.179,81.251 134.433,81.352 C134.686,81.454 134.787,81.555 134.838,81.606 C134.889,81.656 134.838,81.859 134.838,81.859 C134.838,81.859 134.99,81.91 135.041,81.859 C135.091,81.808 135.395,81.707 135.497,81.656 C135.598,81.606 135.598,81.555 135.598,81.454 C135.547,81.352 135.547,81.2 135.598,81.099 C135.649,80.997 135.699,80.896 135.699,80.795 C135.75,80.693 135.547,80.592 135.446,80.592 C135.345,80.541 135.091,80.541 134.787,80.491 C134.534,80.44 134.078,80.339 133.723,80.288 C133.368,80.237 132.912,80.136 132.608,80.085 C132.304,80.035 131.95,80.035 131.696,79.781 C131.494,79.579 131.595,79.528 131.646,79.528 C131.696,79.528 131.848,79.528 131.899,79.528 C131.95,79.528 132,79.477 132.102,79.376 C132.203,79.275 132.304,79.275 132.456,79.275 C132.558,79.275 132.71,79.325 132.963,79.325 C133.216,79.325 133.875,79.376 134.179,79.376 C134.433,79.376 135.091,79.427 135.294,79.477 C135.497,79.528 135.699,79.68 135.801,79.832 C135.902,79.984 135.902,80.085 135.902,80.085 C135.902,80.085 136.307,79.832 136.409,79.781 C136.51,79.731 136.612,79.68 136.612,79.68 L136.612,79.579 C136.612,79.528 136.561,79.376 136.662,79.224 C136.713,79.072 136.713,78.971 136.662,78.869 C136.662,78.768 136.358,78.717 136.206,78.666 C136.054,78.616 135.497,78.666 135.243,78.666 C134.99,78.666 134.078,78.666 133.622,78.666 C133.166,78.666 132.558,78.666 132.102,78.666 C131.646,78.717 130.379,78.666 129.669,78.666 C128.96,78.666 126.882,78.717 126.122,78.768 C125.362,78.869 123.639,79.224 123.183,79.376 C122.727,79.528 121.967,79.883 121.511,80.187 C120.953,80.592 120.751,80.896 120.751,80.896 M122.828,87.332 C122.828,87.332 122.879,87.636 122.98,87.788 C123.031,87.889 123.132,88.142 123.183,88.396 C123.234,88.649 123.284,89.156 123.284,89.156 L123.436,89.156 L123.588,89.105 C123.588,89.105 123.791,89.409 123.994,89.713 C124.197,89.967 124.298,90.068 124.501,90.271 C124.703,90.473 124.754,90.575 124.754,90.676 C124.754,90.828 124.45,90.879 124.45,90.879 C124.45,90.879 124.703,90.929 124.805,90.929 C124.957,90.929 125.109,90.777 125.21,90.676 C125.311,90.575 125.463,90.119 125.463,89.967 C125.463,89.815 125.159,89.561 125.058,89.409 C124.957,89.257 124.501,88.801 124.399,88.751 C124.298,88.7 123.943,88.446 123.74,88.294 C123.538,88.142 122.828,87.332 122.828,87.332 M122.727,93.21 C122.727,93.21 122.828,93.26 122.93,93.311 C123.031,93.311 122.98,93.26 123.082,93.26 C123.183,93.26 123.284,93.564 123.487,93.818 C123.69,94.071 123.994,94.679 124.197,95.034 C124.349,95.338 124.653,96.199 124.754,96.301 C124.855,96.453 125.311,96.656 125.565,96.808 C125.818,96.96 125.97,97.213 125.97,97.314 C125.97,97.416 125.869,97.568 125.869,97.568 C125.869,97.568 126.223,97.517 126.325,97.517 C126.426,97.466 126.477,97.314 126.578,97.162 C126.629,97.01 126.68,96.808 126.68,96.656 C126.68,96.504 126.325,95.946 126.173,95.743 C126.071,95.541 125.362,94.629 125.109,94.274 C124.855,93.919 124.298,93.21 124.146,93.007 C124.045,92.804 123.69,92.551 123.588,92.399 C123.487,92.298 123.132,91.842 123.132,91.842 L123.082,92.044 C123.031,92.146 122.93,92.45 122.93,92.602 C122.93,92.804 122.727,93.21 122.727,93.21 M123.335,91.284 C123.335,91.284 123.639,91.74 123.791,91.842 C123.943,91.994 124.095,92.146 124.045,92.095 C123.994,92.044 124.146,91.842 124.197,91.842 C124.247,91.842 124.349,91.892 124.653,91.943 C124.957,91.994 125.21,92.196 125.463,92.45 C125.717,92.703 126.274,93.362 126.477,93.615 C126.68,93.869 127.136,94.477 127.338,94.679 C127.49,94.882 127.744,95.085 127.997,95.237 C128.301,95.389 128.453,95.49 128.656,95.591 C128.859,95.693 128.909,95.845 128.909,95.997 C128.909,96.149 128.706,96.25 128.706,96.25 C128.706,96.25 128.859,96.25 129.061,96.25 C129.264,96.25 129.365,96.199 129.416,96.098 C129.517,95.997 129.517,95.743 129.568,95.642 C129.619,95.541 129.72,95.49 129.771,95.389 C129.821,95.287 129.821,95.135 129.72,94.983 C129.619,94.831 129.213,94.426 128.96,94.173 C128.656,93.97 127.845,93.159 127.642,92.956 C127.49,92.754 126.173,91.487 125.919,91.284 C125.615,91.132 125.362,91.081 125.109,91.132 C124.855,91.183 124.703,91.386 124.653,91.436 C124.551,91.436 124.349,91.436 124.095,91.436 C123.791,91.436 123.335,91.284 123.335,91.284 M125.818,90.676 C125.818,90.676 125.869,90.777 125.97,90.777 C126.071,90.879 126.071,90.879 126.071,90.879 C126.071,90.879 126.071,90.879 126.173,90.879 C126.223,90.879 126.325,90.727 126.325,90.727 C126.325,90.727 126.578,90.777 126.73,90.828 C126.882,90.879 127.338,90.98 127.49,91.031 C127.642,91.081 128.25,91.588 128.453,91.791 C128.656,91.994 129.517,92.804 129.872,93.058 C130.227,93.362 130.632,93.666 130.885,93.818 C131.189,93.97 131.392,94.122 131.544,94.223 C131.696,94.325 131.798,94.426 131.747,94.527 C131.696,94.629 131.544,94.73 131.544,94.73 C131.544,94.73 131.798,94.73 131.899,94.73 C132,94.781 132.152,94.73 132.203,94.629 C132.203,94.527 132.203,94.325 132.254,94.173 C132.304,94.021 132.456,93.869 132.558,93.716 C132.659,93.564 132.304,93.26 132.203,93.159 C132.102,93.058 131.747,92.804 131.392,92.551 C131.088,92.247 129.872,91.335 129.568,91.081 C129.264,90.828 128.504,90.169 128.2,90.068 C127.896,89.916 127.794,89.967 127.693,89.967 C127.592,89.967 127.49,89.967 127.237,90.017 C126.933,90.068 126.832,90.271 126.832,90.271 C126.832,90.271 126.781,90.321 126.578,90.321 C126.376,90.321 126.021,90.169 125.97,90.169 C125.919,90.169 125.869,90.321 125.869,90.473 C125.869,90.575 125.818,90.676 125.818,90.676 M127.946,89.359 C127.946,89.359 127.946,89.409 127.997,89.409 C128.098,89.511 128.149,89.511 128.25,89.612 C128.352,89.663 128.453,89.409 128.504,89.409 C128.554,89.409 128.859,89.409 129.112,89.409 C129.365,89.409 129.771,89.511 130.024,89.612 C130.227,89.713 130.733,90.119 131.037,90.321 C131.342,90.575 132.051,91.081 132.304,91.284 C132.558,91.487 133.014,91.791 133.267,91.892 C133.52,91.994 133.824,91.994 134.078,92.146 C134.331,92.247 134.433,92.399 134.433,92.551 C134.483,92.652 134.331,92.804 134.331,92.804 L134.889,92.703 C134.889,92.703 134.939,92.551 134.99,92.45 C135.041,92.298 134.99,92.196 135.091,92.044 C135.193,91.892 135.345,91.791 135.345,91.588 C135.345,91.436 135.193,91.335 134.99,91.132 C134.787,90.929 134.129,90.575 133.672,90.321 C133.267,90.068 132.102,89.359 131.696,89.105 C131.342,88.903 130.683,88.345 130.581,88.294 C130.48,88.244 130.176,88.294 130.075,88.294 C129.973,88.294 129.973,88.446 129.821,88.548 C129.669,88.649 129.568,88.7 129.416,88.801 C129.264,88.903 129.264,88.852 129.011,88.953 C128.757,89.055 128.554,89.055 128.352,89.055 C128.098,89.055 127.946,89.105 127.946,89.105 L127.946,89.359 M131.189,87.585 C131.189,87.585 131.494,87.636 131.494,87.534 C131.595,87.484 131.747,87.484 131.899,87.534 C132,87.585 132.102,87.686 132.355,87.838 C132.659,87.99 133.368,88.396 133.774,88.598 C134.179,88.801 134.939,89.257 135.294,89.46 C135.699,89.713 135.902,89.815 136.155,89.865 C136.409,89.916 136.713,89.967 136.966,90.017 C137.22,90.068 137.321,90.271 137.372,90.423 C137.422,90.575 137.27,90.676 137.27,90.676 C137.27,90.676 137.422,90.676 137.574,90.625 C137.726,90.575 137.929,90.524 138.03,90.473 C138.132,90.423 138.03,90.271 137.98,90.169 C137.929,90.068 138.03,89.967 138.132,89.815 C138.233,89.663 138.182,89.46 138.081,89.308 C138.03,89.105 137.372,88.903 137.017,88.751 C136.662,88.649 135.446,87.99 134.838,87.737 C134.23,87.484 133.064,86.876 132.811,86.724 C132.507,86.572 132.304,86.572 132.152,86.572 C132,86.572 131.798,86.47 131.747,86.47 C131.646,86.47 131.696,86.572 131.646,86.724 C131.646,86.876 131.646,87.23 131.595,87.382 C131.544,87.534 131.189,87.585 131.189,87.585 M133.368,85.507 C133.368,85.507 133.622,85.507 133.622,85.71 C133.723,85.811 133.824,85.862 134.078,86.014 C134.331,86.166 135.091,86.42 135.446,86.572 C135.801,86.673 137.068,87.281 137.372,87.382 C137.676,87.534 138.334,87.788 138.74,87.94 C139.145,88.092 139.196,88.193 139.399,88.345 C139.601,88.497 139.399,88.7 139.399,88.7 C139.399,88.7 139.5,88.7 139.753,88.649 C140.007,88.598 140.108,88.598 140.159,88.497 C140.26,88.396 140.159,88.244 140.159,88.193 C140.159,88.092 140.209,88.092 140.311,87.94 C140.412,87.838 140.361,87.737 140.361,87.484 C140.361,87.23 140.26,87.078 140.108,86.926 C139.956,86.825 139.703,86.774 139.297,86.622 C138.892,86.47 138.03,86.166 137.524,85.963 C137.068,85.811 135.598,85.254 135.294,85.153 C135.041,85.051 134.433,84.798 134.331,84.747 C134.23,84.697 134.027,84.697 133.875,84.697 C133.723,84.747 133.622,84.646 133.52,84.697 C133.47,84.697 133.52,84.798 133.47,85.051 C133.419,85.305 133.368,85.507 133.368,85.507 M134.99,83.328 C134.99,83.328 135.193,83.379 135.345,83.43 C135.446,83.48 135.649,83.683 135.851,83.835 C136.054,83.987 136.409,84.038 136.713,84.139 C137.017,84.19 137.929,84.494 138.436,84.646 C138.943,84.798 139.905,85.102 140.26,85.203 C140.615,85.305 141.121,85.507 141.223,85.659 C141.375,85.811 141.273,86.065 141.273,86.065 C141.273,86.065 141.324,86.014 141.527,85.963 C141.73,85.913 141.983,85.761 142.034,85.71 C142.084,85.659 142.034,85.153 142.034,84.95 C142.034,84.747 142.034,84.342 141.932,84.139 C141.831,83.937 141.476,83.937 140.919,83.835 C140.361,83.734 139.5,83.531 138.841,83.379 C138.182,83.278 136.561,82.872 136.257,82.771 C135.953,82.72 135.598,82.72 135.497,82.72 C135.395,82.72 135.142,82.619 135.041,82.67 C134.99,82.72 134.99,83.328 134.99,83.328 M136.155,80.997 C136.155,80.997 136.358,81.048 136.51,81.048 C136.713,81.149 136.916,81.403 137.22,81.555 C137.574,81.707 138.132,81.758 138.588,81.859 C139.044,81.96 140.26,82.214 140.564,82.264 C140.868,82.315 141.426,82.467 141.73,82.518 C142.034,82.568 142.236,82.67 142.338,82.771 C142.49,82.923 142.338,83.227 142.439,83.176 C142.54,83.075 142.743,82.974 142.946,82.822 C143.148,82.67 143.351,82.518 143.351,82.416 C143.351,82.315 143.3,81.96 143.3,81.758 C143.3,81.555 143.351,81.251 142.996,81.149 C142.794,81.099 142.135,81.149 141.73,81.099 C141.324,81.048 139.905,80.845 139.348,80.744 C138.841,80.643 137.422,80.491 137.118,80.44 C136.814,80.389 136.612,80.44 136.51,80.44 C136.46,80.44 136.155,80.744 136.155,80.744 L136.155,80.997 M137.118,79.325 C137.118,79.325 137.22,79.224 137.27,79.275 C137.372,79.325 137.321,79.275 137.524,79.376 C137.726,79.477 138.182,79.579 138.689,79.579 C139.196,79.579 140.26,79.579 140.665,79.579 C141.071,79.528 142.287,79.629 142.591,79.731 C142.895,79.832 143.148,80.035 143.25,80.237 C143.351,80.389 143.3,80.693 143.3,80.693 C143.3,80.693 143.706,80.339 143.858,80.187 C144.01,80.035 144.263,79.781 144.263,79.68 C144.314,79.579 144.162,79.325 144.111,79.173 C144.061,78.971 143.959,78.616 143.909,78.413 C143.858,78.21 143.756,78.058 143.554,77.957 C143.402,77.906 142.844,78.008 142.439,78.058 C142.034,78.109 140.716,78.362 140.057,78.464 C139.348,78.565 138.284,78.768 137.929,78.819 C137.524,78.92 137.017,78.869 137.017,78.869 C137.017,78.869 137.017,78.971 137.017,79.021 C137.017,79.072 137.118,79.325 137.118,79.325 M144.061,80.693 C144.061,80.693 144.314,80.693 144.415,80.643 C144.567,80.693 144.567,80.795 144.821,80.845 C145.074,80.896 145.682,80.997 146.138,80.997 C146.544,81.048 148.013,81.149 148.722,81.2 C149.381,81.302 153.587,81.555 154.449,81.606 C155.31,81.656 159.364,81.91 160.175,81.96 C160.985,82.011 164.482,82.214 165.597,82.264 C166.712,82.315 169.955,82.518 171.272,82.568 C172.59,82.67 175.377,82.72 176.289,82.771 C177.201,82.771 179.38,82.771 180.343,82.771 C181.255,82.771 181.508,82.67 182.066,82.568 C182.623,82.467 183.586,82.214 183.94,82.062 C184.295,81.91 184.549,81.859 184.701,81.91 C184.853,81.96 185.157,82.163 185.207,82.264 C185.258,82.416 185.157,82.568 185.157,82.568 C185.157,82.568 185.258,82.518 185.359,82.518 C185.461,82.467 185.917,82.214 185.967,82.163 C186.018,82.112 185.917,81.808 185.917,81.606 C185.917,81.403 185.815,80.947 185.714,80.592 C185.613,80.288 185.359,79.477 185.309,79.376 C185.258,79.275 185.207,79.123 185.055,79.072 C184.903,79.021 184.498,79.072 184.042,79.123 C183.636,79.123 182.218,79.173 181.508,79.173 C180.799,79.173 176.897,79.275 176.035,79.275 C175.225,79.325 170.157,79.325 169.195,79.376 C168.232,79.427 164.178,79.376 163.316,79.427 C162.506,79.427 159.212,79.427 158.452,79.427 C157.742,79.427 153.182,79.477 152.472,79.477 C151.814,79.477 148.57,79.477 148.114,79.477 C147.658,79.477 145.885,79.477 145.631,79.579 C145.429,79.629 145.125,79.629 145.023,79.629 C144.922,79.629 144.821,79.832 144.669,79.984 C144.567,80.136 144.061,80.693 144.061,80.693 M142.338,83.937 C142.338,83.937 142.439,83.937 142.49,83.886 C142.642,83.886 142.692,83.886 142.844,83.886 C142.996,83.886 142.946,83.886 143.3,83.886 C143.655,83.886 143.858,83.886 144.111,83.886 C144.365,83.886 144.719,83.987 145.327,84.038 C145.885,84.089 147.912,84.393 148.57,84.494 C149.179,84.595 151.56,84.899 152.422,85.051 C153.283,85.203 156.577,85.609 157.59,85.761 C158.553,85.913 161.441,86.268 162.86,86.42 C164.279,86.572 167.37,86.926 168.485,87.028 C169.6,87.129 171.88,87.332 172.691,87.382 C173.552,87.433 175.174,87.534 175.883,87.534 C176.593,87.534 177.556,87.433 178.113,87.382 C178.67,87.332 179.836,87.028 180.039,87.028 C180.241,87.028 180.495,87.23 180.596,87.382 C180.647,87.534 180.545,87.788 180.545,87.788 C180.545,87.788 180.849,87.636 181.052,87.484 C181.255,87.332 181.508,86.673 181.61,86.318 C181.711,85.963 181.762,84.798 181.762,84.545 C181.762,84.241 181.458,84.241 181.204,84.241 C180.951,84.241 180.495,84.291 180.089,84.291 C179.735,84.342 177.505,84.291 176.846,84.291 C176.187,84.291 172.235,84.19 171.12,84.139 C170.005,84.089 166.56,83.937 165.647,83.886 C164.735,83.835 161.137,83.632 160.225,83.582 C159.313,83.531 154.803,83.227 153.79,83.176 C152.776,83.075 149.533,82.872 149.027,82.822 C148.52,82.771 146.493,82.67 146.087,82.619 C145.682,82.568 143.858,82.518 143.858,82.518 C143.858,82.518 143.858,82.619 143.807,82.822 C143.756,82.974 143.452,83.176 143.199,83.379 C142.946,83.582 142.338,83.937 142.338,83.937 M140.817,86.825 C140.817,86.825 140.919,86.977 141.172,87.18 C141.375,87.23 141.426,87.18 141.578,87.129 C141.73,87.078 142.186,86.926 142.439,86.876 C142.692,86.774 142.996,86.876 143.25,86.926 C143.503,86.977 144.517,87.23 145.023,87.332 C145.53,87.433 147.354,87.889 148.013,88.041 C148.672,88.244 151.56,88.903 152.219,89.055 C152.878,89.207 155.462,89.764 156.171,89.916 C156.881,90.068 160.377,90.777 161.391,90.98 C162.404,91.183 164.786,91.588 165.495,91.69 C166.255,91.791 168.282,92.044 168.84,92.146 C169.397,92.196 170.005,92.298 170.36,92.298 C170.664,92.298 171.373,92.247 171.88,92.196 C172.387,92.146 173.198,92.044 173.603,91.994 C174.009,91.943 174.667,91.842 174.819,91.842 C174.971,91.892 175.225,92.146 175.326,92.298 C175.427,92.45 175.275,92.703 175.275,92.703 C175.275,92.703 175.326,92.652 175.529,92.551 C175.731,92.45 175.833,92.247 175.934,92.095 C176.035,91.892 176.137,91.436 176.238,91.183 C176.339,90.929 176.492,89.713 176.542,89.561 C176.593,89.409 176.441,89.257 176.238,89.207 C176.035,89.156 175.478,89.156 174.667,89.156 C173.907,89.105 172.083,89.004 171.221,88.953 C170.36,88.903 167.928,88.649 167.218,88.598 C166.56,88.548 162.151,88.092 161.441,87.99 C160.732,87.889 156.83,87.382 155.918,87.281 C155.006,87.129 150.445,86.521 149.787,86.42 C149.128,86.318 146.645,85.913 146.138,85.862 C145.682,85.761 144.061,85.558 143.706,85.507 C143.402,85.457 142.54,85.406 142.54,85.406 C142.54,85.406 142.591,85.507 142.591,85.659 C142.591,85.811 142.591,85.862 142.439,86.065 C142.287,86.268 141.831,86.369 141.578,86.521 C141.324,86.673 140.817,86.825 140.817,86.825 M138.588,89.308 C138.588,89.308 138.537,89.409 138.588,89.46 C138.689,89.561 138.79,89.612 138.943,89.663 C139.095,89.713 139.399,89.815 139.703,89.865 C140.007,89.916 140.361,89.865 140.615,89.865 C140.868,89.865 141.121,89.916 141.476,90.068 C141.831,90.169 144.111,90.98 144.922,91.284 C145.733,91.588 147.506,92.196 148.925,92.652 C150.344,93.159 152.574,93.767 153.942,94.173 C155.31,94.578 157.236,95.034 158.553,95.338 C159.871,95.642 161.898,95.946 163.164,96.149 C164.482,96.352 165.951,96.402 166.458,96.402 C166.914,96.402 167.421,96.352 167.674,96.402 C167.928,96.453 168.13,96.656 168.181,96.808 C168.232,96.96 168.08,97.213 168.08,97.213 C168.08,97.213 168.13,97.162 168.333,97.061 C168.536,96.96 168.738,96.706 168.992,96.402 C169.245,96.098 169.499,95.541 169.651,95.237 C169.803,94.933 170.056,94.274 170.107,93.97 C170.107,93.767 169.955,93.666 169.752,93.615 C169.549,93.564 168.586,93.463 167.928,93.412 C167.269,93.311 164.482,92.906 163.671,92.754 C162.86,92.652 157.996,91.74 157.236,91.588 C156.526,91.436 153.232,90.727 152.523,90.575 C151.814,90.423 147.76,89.46 147.202,89.308 C146.645,89.156 143.098,88.294 142.794,88.193 C142.49,88.092 141.73,87.94 141.527,87.94 C141.273,87.889 140.767,87.788 140.767,87.788 C140.767,87.788 140.716,87.94 140.665,88.092 C140.615,88.244 140.665,88.548 140.665,88.7 C140.665,88.852 140.564,88.852 140.311,88.953 C140.057,89.055 139.5,89.156 139.297,89.207 C139.044,89.257 138.588,89.308 138.588,89.308 M135.902,91.588 L135.902,91.994 C135.902,91.994 136.206,92.095 136.307,92.146 C136.409,92.196 136.814,92.348 137.068,92.399 C137.372,92.45 137.726,92.551 138.03,92.703 C138.385,92.855 139.601,93.514 140.159,93.818 C140.716,94.122 141.78,94.679 142.49,95.034 C143.199,95.389 145.429,96.504 146.037,96.757 C146.645,97.061 148.874,98.024 149.635,98.328 C150.395,98.632 152.067,99.24 152.776,99.443 C153.486,99.645 153.993,99.747 154.449,99.797 C154.905,99.848 155.462,99.797 156.07,99.797 C156.628,99.797 158.148,99.797 158.604,99.747 C159.009,99.747 159.617,99.696 159.82,99.696 C160.023,99.696 160.124,99.797 160.276,99.899 C160.428,100 160.479,100.101 160.529,100.304 C160.58,100.456 160.377,100.608 160.377,100.608 C160.377,100.608 160.783,100.557 160.935,100.355 C161.137,100.152 161.289,99.747 161.391,99.443 C161.492,99.139 161.644,98.632 161.695,98.48 C161.746,98.328 161.796,98.024 161.746,97.821 C161.746,97.669 161.34,97.517 160.935,97.466 C160.529,97.365 159.161,97.112 158.35,96.96 C157.54,96.757 154.094,95.895 153.334,95.693 C152.574,95.49 149.027,94.426 148.368,94.223 C147.709,94.021 143.554,92.652 143.098,92.45 C142.591,92.247 140.817,91.639 140.311,91.436 C139.804,91.284 138.892,90.98 138.486,90.929 C138.081,90.879 137.574,91.081 137.22,91.233 C136.764,91.386 135.902,91.588 135.902,91.588 z M133.064,93.564 C133.064,93.564 133.014,93.767 133.318,93.919 C133.368,94.071 133.622,94.122 133.824,94.223 C134.078,94.274 134.737,94.527 134.939,94.629 C135.142,94.73 135.699,95.186 136.105,95.49 C136.46,95.794 137.422,96.453 137.828,96.757 C138.233,97.01 140.868,98.936 141.426,99.291 C141.983,99.696 143.807,100.811 144.415,101.165 C144.973,101.47 146.087,102.078 146.594,102.28 C147.101,102.483 147.506,102.534 148.114,102.686 C148.722,102.838 149.533,102.939 150.04,102.99 C150.547,103.04 151.104,103.04 151.256,103.04 C151.408,103.04 151.611,103.142 151.763,103.243 C151.915,103.344 152.016,103.648 152.016,103.75 C152.016,103.801 151.814,104.054 151.814,104.054 C151.814,104.054 151.814,104.054 151.915,104.054 C152.016,104.054 152.118,103.953 152.27,103.801 C152.422,103.648 152.624,103.192 152.726,102.99 C152.827,102.787 153.08,102.078 153.182,101.875 C153.283,101.672 153.283,101.47 153.232,101.318 C153.182,101.216 152.624,101.064 152.32,100.963 C152.016,100.861 151.357,100.709 150.851,100.507 C150.344,100.304 149.432,100 148.874,99.747 C148.266,99.493 146.087,98.53 145.479,98.277 C144.821,98.024 143.098,97.162 142.591,96.909 C142.034,96.656 139.703,95.439 139.145,95.135 C138.588,94.831 136.814,93.869 136.409,93.666 C136.003,93.463 135.345,93.159 135.142,93.108 C134.99,93.058 134.483,93.159 134.23,93.26 C133.977,93.362 133.064,93.564 133.064,93.564 M130.227,95.237 C130.227,95.237 130.176,95.338 130.176,95.287 C130.125,95.338 130.075,95.541 130.176,95.642 C130.227,95.794 130.328,95.743 130.48,95.895 C130.632,96.047 131.037,96.453 131.24,96.656 C131.392,96.858 132.456,97.821 132.862,98.176 C133.216,98.53 134.331,99.595 134.838,100.051 C135.395,100.557 136.307,101.419 136.764,101.824 C137.22,102.23 138.132,103.091 138.486,103.344 C138.841,103.598 139.297,103.75 139.855,103.902 C140.412,104.054 141.831,104.409 142.236,104.51 C142.642,104.611 143.148,104.662 143.402,104.814 C143.655,104.966 143.756,105.219 143.807,105.371 C143.807,105.523 143.604,105.777 143.604,105.777 C143.604,105.777 143.655,105.726 143.807,105.625 C143.909,105.523 144.213,105.219 144.314,105.067 C144.415,104.915 144.821,104.257 144.973,103.953 C145.074,103.648 144.922,103.496 144.77,103.344 C144.618,103.192 144.111,102.939 143.655,102.686 C143.199,102.432 142.236,101.824 141.73,101.52 C141.172,101.216 139.247,99.949 138.841,99.645 C138.385,99.341 136.307,97.821 135.851,97.517 C135.395,97.213 134.027,96.098 133.672,95.845 C133.318,95.591 132.659,95.186 132.406,95.085 C132.152,94.983 131.899,95.034 131.747,95.034 C131.595,95.034 131.139,95.186 130.936,95.237 C130.733,95.287 130.227,95.237 130.227,95.237 M126.984,97.416 C126.984,97.416 127.034,97.466 127.338,97.669 C127.44,97.77 127.49,97.872 127.642,98.024 C127.794,98.176 128.402,98.987 128.757,99.443 C129.112,99.899 129.821,100.861 130.125,101.267 C130.429,101.622 131.291,102.787 131.544,103.091 C131.747,103.344 132.76,104.561 133.014,104.763 C133.267,104.966 134.078,105.321 134.483,105.422 C134.838,105.523 135.75,105.777 135.953,105.827 C136.155,105.878 136.409,106.131 136.46,106.284 C136.51,106.385 136.358,106.689 136.358,106.689 C136.358,106.689 136.713,106.385 136.916,106.233 C137.118,106.081 137.372,105.675 137.473,105.473 C137.574,105.321 137.625,105.067 137.524,104.915 C137.422,104.814 136.966,104.358 136.764,104.155 C136.561,103.953 135.801,103.294 135.294,102.838 C134.737,102.331 133.216,100.912 132.76,100.456 C132.254,100 130.683,98.53 130.379,98.226 C130.024,97.922 129.568,97.416 129.416,97.112 C129.264,96.808 129.112,96.757 128.808,96.706 C128.504,96.656 128.301,96.757 127.946,96.808 C127.592,96.808 127.136,96.808 127.136,96.808 C127.136,96.808 127.136,96.858 127.085,97.01 L126.984,97.416 M123.842,97.821 C123.842,97.821 123.842,97.922 123.943,98.074 C123.943,98.125 123.943,98.429 123.943,98.429 C123.943,98.429 124.197,98.48 124.247,98.53 C124.298,98.53 124.349,98.581 124.501,98.682 C124.653,98.835 124.855,99.189 124.957,99.392 C125.007,99.595 125.007,100.405 125.058,100.608 C125.109,100.811 125.159,101.064 125.362,101.419 C125.565,101.824 126.274,103.142 126.528,103.598 C126.73,104.054 127.186,104.814 127.389,105.067 C127.541,105.219 127.744,105.371 128.149,105.523 C128.554,105.675 129.163,105.878 129.467,105.979 C129.771,106.081 130.176,106.233 130.429,106.436 C130.632,106.588 130.683,106.74 130.683,106.841 C130.683,106.942 130.581,107.145 130.632,107.145 C130.683,107.094 130.936,106.942 131.088,106.79 C131.24,106.638 131.392,106.436 131.494,106.334 C131.595,106.233 131.696,106.081 131.646,105.979 C131.595,105.878 131.291,105.422 131.139,105.219 C130.987,105.017 130.48,104.51 130.227,104.155 C129.973,103.851 129.061,102.686 128.757,102.28 C128.453,101.875 127.693,100.912 127.541,100.659 C127.389,100.405 126.325,98.936 126.274,98.784 C126.173,98.581 126.122,98.277 125.97,98.125 C125.818,97.922 125.666,97.973 125.514,97.922 C125.362,97.872 125.058,97.922 124.754,97.922 C124.399,97.922 123.842,97.821 123.842,97.821 M123.639,102.078 L123.588,102.736 C123.588,102.888 123.386,103.547 123.386,103.547 C123.386,103.547 123.487,103.598 123.538,103.699 C123.588,103.801 123.639,103.902 123.69,104.206 C123.791,104.51 123.791,104.915 123.639,105.27 C123.538,105.523 123.538,105.675 123.588,105.827 C123.639,105.979 124.095,106.233 124.349,106.334 C124.551,106.486 124.754,106.689 124.855,106.79 C124.906,106.892 125.058,107.145 125.058,107.297 C125.058,107.449 124.855,107.652 124.855,107.652 C124.855,107.652 125.109,107.601 125.311,107.449 C125.463,107.297 125.463,107.145 125.565,106.993 C125.666,106.841 125.869,106.486 125.919,106.182 C125.919,105.878 125.767,105.625 125.615,105.321 C125.514,105.017 124.957,104.206 124.805,103.851 C124.602,103.547 124.298,103.091 124.146,102.888 C123.994,102.686 123.639,102.078 123.639,102.078 z M109.856,115.81 C109.856,115.81 109.957,115.962 110.059,116.013 C110.261,116.063 110.312,116.063 110.464,116.063 C110.565,116.063 110.667,116.114 110.92,116.215 C111.326,116.368 111.376,116.469 111.579,116.773 C111.731,117.077 112.592,118.597 112.846,119.003 C113.099,119.408 113.707,120.523 113.809,120.675 C113.91,120.827 114.062,120.979 114.265,120.979 C114.467,120.979 114.67,120.877 114.923,120.776 C115.177,120.624 115.734,120.421 116.139,120.219 C116.545,120.016 117.862,119.357 118.369,119.104 C118.876,118.851 119.636,118.394 120.143,118.09 L122.119,116.874 C122.474,116.672 123.031,116.57 123.386,116.368 C123.74,116.215 124.349,115.607 124.805,115.151 C125.311,114.695 126.578,113.074 126.984,112.516 C127.389,111.959 128.149,110.692 128.352,110.337 C128.554,110.033 129.011,108.969 129.163,108.716 C129.315,108.462 129.467,108.108 129.467,107.956 C129.467,107.804 129.416,107.702 129.213,107.55 C129.011,107.398 128.554,107.297 128.2,107.196 L126.933,106.74 C126.68,106.638 126.274,106.436 126.274,106.436 C126.274,106.436 126.173,106.689 126.071,106.892 C126.021,107.094 125.818,107.449 125.615,107.652 C125.413,107.854 125.311,107.905 124.957,107.956 C124.602,108.006 124.399,107.956 124.045,107.905 C123.69,107.854 123.183,107.652 122.727,107.398 L121.663,106.841 C121.663,106.841 121.207,107.601 120.903,108.006 C120.649,108.412 119.687,109.527 119.281,109.932 C118.876,110.337 117.862,111.249 117.254,111.756 C116.646,112.263 115.886,112.82 115.278,113.175 C114.721,113.53 113.302,114.29 112.795,114.543 C112.288,114.797 111.528,115.101 111.123,115.303 C110.717,115.506 109.856,115.81 109.856,115.81 M106.917,116.672 L106.917,116.976 C106.917,116.976 107.069,116.925 107.12,116.925 C107.17,116.925 107.373,116.976 107.525,116.976 C107.677,116.976 108.133,117.33 108.285,117.533 C108.488,117.736 108.843,118.648 109.045,119.205 C109.248,119.763 109.907,121.384 110.109,121.891 C110.312,122.347 110.819,123.715 111.021,124.121 C111.224,124.526 111.376,124.627 111.528,124.729 C111.68,124.83 112.086,124.931 112.288,125.083 C112.491,125.235 112.592,125.387 112.694,125.691 C112.795,125.945 112.846,126.553 112.846,126.553 C112.846,126.553 113.251,125.843 113.352,125.641 C113.403,125.438 113.859,124.678 113.91,124.526 C113.961,124.374 113.91,124.222 113.809,124.019 C113.758,123.816 113.555,123.36 113.403,123.158 C113.302,122.955 113.099,122.6 112.947,122.347 C112.795,122.094 112.035,120.877 111.832,120.523 C111.63,120.168 110.971,118.952 110.717,118.546 C110.515,118.09 109.755,116.874 109.704,116.672 C109.653,116.469 109.552,116.266 109.4,116.114 C109.299,116.013 109.197,116.013 108.944,116.063 C108.741,116.114 108.336,116.266 107.981,116.368 C107.626,116.469 106.917,116.672 106.917,116.672 z M130.075,107.804 C130.075,107.804 130.024,107.854 130.024,108.006 L129.923,108.361 C129.923,108.361 130.227,108.462 130.277,108.462 C130.328,108.513 130.328,108.665 130.379,108.817 C130.429,108.969 130.227,109.273 130.075,109.679 C129.923,110.084 129.061,111.402 128.706,111.959 C128.352,112.466 127.845,112.922 127.541,113.226 C127.288,113.53 126.021,114.645 125.767,114.999 C125.463,115.354 123.943,116.874 123.386,117.33 C122.879,117.786 121.359,118.901 120.751,119.307 C120.092,119.712 118.876,120.371 118.318,120.725 C117.761,121.029 115.683,121.992 115.227,122.246 C114.771,122.499 113.809,122.854 113.809,122.854 L113.91,123.056 C113.91,123.056 114.163,123.006 114.265,123.006 C114.366,123.006 114.467,123.006 114.67,123.056 C114.923,123.056 115.177,123.107 115.43,123.056 C115.633,123.006 116.646,122.55 117.052,122.347 C117.406,122.144 118.572,121.587 118.927,121.384 C119.281,121.131 120.903,120.219 121.41,119.915 C121.916,119.661 124.45,117.989 124.805,117.634 C125.159,117.28 126.578,115.911 126.933,115.506 C127.288,115.101 128.453,113.631 128.859,113.124 C129.213,112.618 130.176,111.097 130.379,110.743 C130.581,110.388 131.139,109.273 131.342,108.868 C131.494,108.513 131.747,107.753 131.848,107.55 C131.95,107.348 132.203,106.486 132.203,106.385 C132.203,106.284 132.051,106.233 132.051,106.233 C132.051,106.233 132,106.284 131.899,106.436 C131.798,106.588 131.544,106.892 131.291,107.145 C131.037,107.398 130.683,107.652 130.531,107.753 C130.379,107.854 130.075,107.804 130.075,107.804 M104.13,117.178 L104.282,117.533 C104.282,117.533 104.383,117.533 104.434,117.533 C104.485,117.533 104.637,117.482 104.789,117.533 C104.941,117.584 105.295,117.888 105.447,118.09 C105.65,118.293 105.751,118.901 105.853,119.307 C105.954,119.763 106.461,121.891 106.562,122.347 C106.664,122.803 107.018,124.323 107.17,124.881 C107.272,125.438 107.373,125.489 107.576,125.691 C107.778,125.843 108.133,125.995 108.336,126.147 C108.488,126.35 108.64,126.705 108.69,126.806 C108.741,126.958 108.64,127.161 108.589,127.262 C108.488,127.364 108.538,127.718 108.538,127.718 C108.538,127.718 109.147,126.857 109.349,126.604 C109.501,126.35 109.805,125.843 109.856,125.691 C109.907,125.539 109.704,125.033 109.653,124.83 C109.603,124.627 109.197,123.664 109.045,123.259 C108.893,122.854 108.082,120.776 107.88,120.269 C107.677,119.763 106.917,117.786 106.816,117.482 C106.714,117.178 106.613,116.925 106.562,116.824 C106.512,116.672 106.106,116.672 105.853,116.722 C105.599,116.722 104.941,116.976 104.687,117.077 C104.434,117.178 104.13,117.178 104.13,117.178 z M101.444,117.432 L101.495,117.989 C101.495,117.989 101.596,117.989 101.748,118.04 C101.9,118.09 102.103,118.192 102.306,118.394 C102.508,118.597 102.559,118.901 102.61,119.205 C102.66,119.509 102.812,121.536 102.863,122.296 C102.914,123.006 103.066,125.286 103.116,125.691 C103.167,126.147 103.268,126.249 103.42,126.452 C103.572,126.604 103.978,126.806 104.13,126.958 C104.282,127.11 104.434,127.465 104.485,127.668 C104.535,127.82 104.333,128.022 104.231,128.124 C104.13,128.225 104.181,128.478 104.181,128.478 C104.181,128.478 104.839,127.617 105.042,127.414 C105.245,127.212 105.599,126.705 105.65,126.654 C105.65,126.604 105.65,126.401 105.65,126.198 C105.701,125.995 105.447,125.083 105.397,124.729 C105.346,124.323 104.687,121.79 104.637,121.435 C104.586,121.08 104.029,118.698 103.978,118.445 C103.978,118.192 103.877,117.634 103.826,117.432 C103.775,117.28 103.471,117.178 103.167,117.178 C102.863,117.178 102.356,117.28 102.154,117.33 C101.951,117.381 101.444,117.432 101.444,117.432 z M98.657,117.482 L98.556,118.04 C98.556,118.04 98.809,118.09 98.961,118.141 C99.113,118.192 99.316,118.496 99.417,118.749 C99.519,119.003 99.468,119.661 99.417,120.269 C99.367,120.877 99.215,122.55 99.164,123.31 C99.063,124.07 98.911,125.894 98.961,126.147 C98.961,126.401 99.215,126.705 99.367,126.806 C99.519,126.908 100.025,127.465 100.127,127.617 C100.228,127.718 100.127,127.921 100.025,128.073 C99.924,128.174 99.823,128.478 99.823,128.478 C99.823,128.478 100.532,127.87 100.735,127.718 C100.937,127.516 101.546,126.908 101.546,126.908 C101.546,126.908 101.546,126.654 101.546,126.452 C101.546,126.249 101.495,125.235 101.444,124.678 C101.444,124.121 101.241,121.891 101.241,121.587 C101.191,121.232 101.039,119.256 101.039,118.851 C101.039,118.445 100.988,117.837 100.988,117.634 C100.988,117.432 100.583,117.33 100.228,117.33 C99.873,117.33 99.367,117.381 99.265,117.432 C99.164,117.482 98.657,117.482 98.657,117.482 z M95.87,117.28 L95.718,117.736 C95.718,117.736 95.819,117.736 95.921,117.786 C96.022,117.837 96.073,117.837 96.225,117.989 C96.377,118.141 96.478,118.394 96.478,118.698 C96.478,119.003 96.276,119.813 96.174,120.32 C96.073,120.877 95.718,122.347 95.617,122.854 C95.465,123.36 95.11,124.881 95.009,125.286 C94.907,125.742 94.958,125.995 95.11,126.249 C95.313,126.553 95.667,126.908 95.921,127.009 C96.174,127.161 96.326,127.161 96.428,127.262 C96.529,127.364 96.529,127.566 96.681,127.465 C96.884,127.414 97.34,127.009 97.34,127.009 C97.34,127.009 97.39,126.908 97.39,126.857 C97.39,126.806 97.492,126.35 97.542,126.097 C97.542,125.843 97.694,125.134 97.694,124.83 C97.694,124.425 97.796,123.259 97.796,123.056 C97.796,122.854 97.998,120.219 98.049,119.864 C98.1,119.459 98.15,118.192 98.201,117.837 C98.252,117.482 98.049,117.381 97.846,117.28 C97.593,117.229 97.39,117.229 97.086,117.229 C96.782,117.229 96.63,117.28 96.428,117.28 C96.225,117.28 95.87,117.28 95.87,117.28 z M93.083,116.824 L92.83,117.584 C92.83,117.584 92.88,117.634 92.931,117.634 C92.982,117.634 93.083,117.685 93.184,117.786 C93.286,117.888 93.438,118.141 93.438,118.344 C93.438,118.496 93.235,119.104 93.032,119.56 C92.88,120.016 92.12,121.891 91.968,122.347 C91.816,122.803 91.005,124.729 90.955,125.033 C90.904,125.337 90.904,125.438 91.107,125.843 C91.259,126.249 91.512,126.35 91.664,126.401 C91.816,126.452 92.019,126.299 92.222,126.299 C92.424,126.299 92.576,126.401 92.627,126.553 C92.678,126.705 92.526,126.908 92.526,126.908 C92.526,126.908 92.627,126.857 92.728,126.806 C92.83,126.756 93.235,126.553 93.235,126.502 C93.235,126.452 93.387,125.945 93.488,125.691 C93.539,125.438 93.793,124.323 93.894,123.969 C93.995,123.614 94.451,121.587 94.553,121.181 C94.654,120.725 95.262,118.242 95.363,117.888 C95.465,117.533 95.363,117.381 95.313,117.229 C95.262,117.077 94.857,117.026 94.502,116.925 C94.147,116.824 93.843,116.874 93.64,116.874 C93.438,116.874 93.083,116.824 93.083,116.824 z M90.296,116.063 L89.891,117.077 C89.891,117.077 90.043,117.077 90.144,117.128 C90.195,117.128 90.195,117.229 90.296,117.381 C90.347,117.533 90.296,117.685 90.195,117.888 C90.093,118.09 89.536,119.003 89.333,119.408 C89.131,119.813 88.168,121.435 87.965,121.739 C87.762,122.043 86.901,123.563 86.8,123.817 C86.698,124.019 86.749,124.222 86.8,124.323 C86.8,124.425 87.053,124.931 87.154,125.083 C87.256,125.286 87.509,125.286 87.712,125.185 C87.864,125.134 88.066,125.083 88.218,125.083 C88.37,125.083 88.624,125.337 88.674,125.438 C88.776,125.539 88.624,125.742 88.624,125.742 L89.08,125.59 C89.08,125.59 89.181,125.387 89.283,125.134 C89.384,124.931 89.789,124.019 89.891,123.715 C89.992,123.411 90.853,121.232 91.056,120.776 C91.259,120.32 92.07,118.09 92.272,117.685 C92.424,117.28 92.576,116.925 92.526,116.773 C92.424,116.621 92.019,116.368 91.715,116.266 C91.411,116.165 91.107,116.165 90.853,116.165 C90.549,116.165 90.296,116.063 90.296,116.063 z M99.721,116.215 C113.352,116.215 122.626,107.702 122.626,99.24 C122.626,90.777 113.352,82.264 99.721,82.264 C86.09,82.264 76.817,90.777 76.817,99.24 C76.817,107.702 86.09,116.215 99.721,116.215 z M99.721,81.454 C113.2,81.454 123.386,89.764 123.436,99.189 C123.436,108.614 113.2,116.925 99.721,116.925 C86.242,116.925 76.057,108.614 76.057,99.189 C76.057,89.764 86.242,81.454 99.721,81.454 z M100.279,110.439 C103.268,110.439 106.055,109.071 106.055,105.118 C106.055,100.659 103.015,99.645 100.177,99.595 C97.188,99.645 94.046,100.557 94.046,105.118 C94.046,109.628 97.238,110.439 100.076,110.439 L100.279,110.439 M108.893,98.277 L108.893,98.277 L108.893,98.277 C112.086,99.797 113.352,102.736 113.302,104.966 C113.251,109.02 108.589,112.415 100.532,112.466 C91.36,112.516 85.786,108.412 85.786,107.55 C85.786,106.74 87.408,105.929 87.408,105.169 L87.408,93.311 C87.408,92.703 85.685,92.45 85.685,91.284 C85.685,90.119 90.904,85.811 99.519,85.71 C106.664,85.609 112.086,88.446 112.542,92.399 C112.795,94.578 112.136,96.453 108.893,98.277 z M99.671,87.788 C96.681,87.838 94.198,89.308 94.198,92.754 C94.198,96.656 96.63,97.77 99.671,97.77 C102.863,97.72 105.143,96.504 105.143,92.754 C105.143,89.156 102.914,87.838 99.671,87.788" fill="#4D4D4D"/>
  </g>
</svg>
