<?xml version="1.0" encoding="UTF-8"?>
<!DOCTYPE svg PUBLIC "-//W3C//DTD SVG 1.1//EN" "http://www.w3.org/Graphics/SVG/1.1/DTD/svg11.dtd">
<svg version="1.1" xmlns="http://www.w3.org/2000/svg" xmlns:xlink="http://www.w3.org/1999/xlink" x="0" y="0" width="200" height="200" viewBox="0, 0, 200, 200">
  <g id="layer1">
    <path d="M165.702,12.592 C154.946,11.555 126.695,10 100,10 C73.305,10 45.054,11.555 34.298,12.592 C22.117,13.888 16.415,20.108 16.415,32.16 C16.415,55.097 17.322,90.994 18.877,111.987 C20.302,130.778 21.339,145.551 44.665,159.676 C61.382,169.784 77.97,178.467 99.611,189.741 L100,190 L100.389,189.741 C122.03,178.596 138.747,169.784 155.335,159.676 C178.661,145.421 179.827,130.648 181.123,111.987 C182.678,90.864 183.585,55.097 183.585,32.16 C183.585,20.108 177.883,13.888 165.702,12.592 z M173.996,111.469 C172.7,129.352 171.793,141.274 151.577,153.456 C135.767,163.045 121.771,170.432 100.778,181.317 L100,181.706 L99.222,181.317 C78.747,170.691 64.233,163.045 48.423,153.456 C28.337,141.274 27.43,129.482 26.134,111.469 C24.579,90.605 23.672,54.968 23.672,32.16 C23.672,23.737 26.523,20.756 35.076,19.849 C45.702,18.812 73.693,17.257 100,17.257 C126.436,17.257 154.298,18.812 164.924,19.849 C173.477,20.756 176.328,23.866 176.328,32.16 C176.328,54.968 175.551,90.605 173.996,111.469 z M98.929,63.718 C93.746,52.962 83.767,39.096 66.143,39.096 C53.314,39.096 43.724,47.13 40.096,56.331 C42.169,53.221 49.037,43.761 63.292,43.761 C76.381,43.761 87.266,53.61 96.467,72.141 L98.929,63.718 z M33.002,82.823 C32.873,82.823 35.465,82.823 36.631,82.823 C39.093,102.65 48.164,120.145 56.977,120.016 C59.957,120.016 63.586,118.201 63.586,112.888 C63.586,110.555 63.326,108.612 62.938,106.797 C63.974,108.612 66.307,112.888 66.307,118.331 C66.307,124.81 61.771,128.698 55.551,128.698 C42.074,128.698 33.002,113.795 33.002,82.823 z M133.91,39.096 C116.286,39.096 106.307,52.962 101.253,63.718 L103.716,72.141 C112.787,53.61 123.672,43.761 136.891,43.761 C151.016,43.761 158.014,53.35 160.087,56.331 C156.329,47.13 146.739,39.096 133.91,39.096 z M163.445,82.823 C164.611,82.823 167.203,82.823 167.074,82.823 C167.074,113.795 158.002,128.698 144.525,128.828 C138.175,128.828 133.769,124.81 133.769,118.46 C133.769,113.018 136.231,108.612 137.138,106.927 C136.75,108.741 136.491,110.685 136.491,113.018 C136.491,118.46 139.989,120.145 142.97,120.145 C151.912,120.145 160.983,102.65 163.445,82.823 z M127.265,96.066 C131.801,94.122 132.19,88.809 130.764,81.941 L125.84,89.586 L124.025,97.491 C124.025,97.491 125.71,96.714 127.265,96.066 z M72.837,96.066 C74.263,96.714 76.077,97.491 76.077,97.362 L74.263,89.457 L69.339,81.811 C67.913,88.809 68.302,94.122 72.837,96.066 z M145.149,56.152 C159.403,56.152 165.235,69.63 164.328,80.774 L160.958,80.774 C158.107,96.455 150.073,109.802 144.112,109.802 C142.168,109.802 141.261,108.377 141.261,106.044 C141.261,100.602 145.019,94.77 145.019,84.144 C145.019,79.349 143.334,76.239 139.706,76.239 C137.114,76.239 135.041,78.83 133.874,81.681 C136.077,89.586 135.818,96.196 129.468,99.046 C126.358,100.472 122.6,102.157 122.6,102.157 C122.6,102.157 118.583,119.262 118.323,120.429 C118.064,121.595 117.416,123.15 116.898,124.057 C116.25,125.353 110.937,134.424 110.937,134.424 C110.937,134.424 109.123,143.366 108.734,145.31 C107.697,150.494 104.069,150.494 99.922,150.494 C95.775,150.494 92.146,150.494 91.11,145.31 C90.721,143.366 88.907,134.424 88.907,134.424 C88.907,134.424 83.723,125.353 82.945,124.057 C82.427,123.021 81.779,121.595 81.52,120.429 C81.261,119.133 77.244,102.157 77.244,102.157 C77.244,102.157 73.485,100.472 70.375,99.046 C64.025,96.196 63.766,89.586 65.969,81.681 C64.803,78.83 62.73,76.239 60.267,76.239 C56.509,76.239 54.954,79.219 54.954,84.144 C54.954,94.64 58.712,100.472 58.712,106.044 C58.712,108.377 57.676,109.802 55.861,109.802 C49.771,109.802 41.866,96.584 39.015,80.774 L35.645,80.774 C34.868,69.63 40.699,56.152 54.954,56.152 C66.358,56.152 77.632,65.353 84.371,86.606 L79.965,89.586 L82.038,99.954 L90.203,103.323 L91.758,113.561 L87.74,108.636 L83.464,106.822 L84.76,113.431 L92.146,116.411 L94.738,134.165 L92.924,139.867 L100.051,142.718 L107.179,139.867 L105.364,134.165 L107.956,116.411 L115.343,113.431 L116.639,106.822 L112.362,108.636 L108.345,113.561 L109.771,103.323 L118.064,99.824 L120.138,89.457 L115.732,86.476 C122.341,65.353 133.615,56.152 145.149,56.152 z" fill="#000000"/>
  </g>
</svg>
