<?xml version="1.0" encoding="UTF-8"?>
<!DOCTYPE svg PUBLIC "-//W3C//DTD SVG 1.1//EN" "http://www.w3.org/Graphics/SVG/1.1/DTD/svg11.dtd">
<svg version="1.1" xmlns="http://www.w3.org/2000/svg" xmlns:xlink="http://www.w3.org/1999/xlink" x="0" y="0" width="200" height="200" viewBox="0, 0, 200, 200">
  <g id="Layer_1">
    <path d="M100.051,10 C50.364,10 10,50.262 10,99.949 C10,149.636 50.364,190 100.051,190 C149.738,190 190,149.636 190,99.949 C190,50.262 149.738,10 100.051,10 z M156.295,42.271 L157.934,40.939 L166.744,50.672 L165.208,51.901 L161.827,48.11 L157.217,52.413 L155.373,50.467 L159.983,46.164 L156.295,42.271 z M134.781,30.182 L137.547,25.879 L139.801,27.314 L137.137,31.104 C136.625,31.924 136.932,32.743 137.752,33.256 L142.874,36.841 L146.255,31.719 L148.509,33.153 L144.001,40.12 L135.191,34.178 C133.551,33.051 134.166,30.899 134.781,30.182 z M109.067,21.167 C109.579,18.298 111.218,17.786 114.087,18.298 L119.619,19.22 C122.077,19.63 123.717,20.347 123.102,23.728 C122.487,27.006 120.848,27.826 118.492,27.416 L112.038,26.187 C110.501,25.982 108.042,25.982 109.067,21.167 z M84.479,19.015 C84.889,18.913 85.401,18.913 85.913,19.323 C86.016,19.118 86.221,18.708 86.733,18.708 L91.651,17.888 C92.982,17.684 94.622,18.606 94.724,19.63 L95.646,25.265 L92.982,25.777 L92.163,20.859 C92.06,20.142 91.241,19.63 90.421,19.835 L87.45,20.347 L88.475,26.392 L85.811,26.801 L84.991,21.884 C84.889,21.269 84.069,20.757 83.352,20.962 L80.279,21.474 L81.406,27.416 L78.64,27.826 L77.308,20.245 L84.479,19.015 z M53.028,31.309 L54.257,33.051 C54.667,33.665 55.692,33.87 56.306,33.358 L60.404,30.489 C60.814,30.08 60.814,28.748 60.507,28.441 L59.38,27.006 L61.633,25.47 L63.273,27.723 C63.887,28.85 62.965,30.797 62.351,31.309 L60.097,32.743 L62.351,35.817 L60.097,37.558 L57.843,34.485 L56.101,35.714 C54.872,36.431 53.13,36.227 52.413,35.407 L50.774,33.153 L53.028,31.309 z M35.817,47.906 L40.427,52.106 L47.496,44.32 L48.93,45.754 L40.12,55.589 L34.075,50.057 L35.817,47.906 z M24.445,76.283 L28.441,67.371 C28.85,66.448 27.211,65.731 26.904,66.551 L22.908,75.566 L21.372,74.849 L25.982,64.4 C26.392,63.375 27.416,62.965 29.158,63.785 C30.899,64.502 31.207,65.219 30.797,66.244 L27.211,74.337 L29.67,75.259 L28.645,77.718 L24.445,76.283 z M100.051,168.793 C72.8,168.793 49.135,152.914 37.968,129.863 C36.534,129.454 35.817,129.761 34.178,129.556 C32.641,129.454 31.411,127.814 31.002,126.79 L36.636,126.79 L35.509,124.229 L30.08,124.229 L29.158,121.258 L34.587,121.258 C32.334,114.496 31.207,107.427 31.207,99.949 C31.207,61.941 62.043,31.207 100.051,31.207 C138.059,31.207 168.793,61.941 168.793,99.949 C168.793,137.957 138.059,168.793 100.051,168.793 z M170.228,75.464 L173.506,74.132 L170.535,66.858 L167.359,68.293 L166.335,65.731 L173.711,62.76 L174.633,65.219 L172.174,66.346 L175.145,73.517 L177.604,72.493 L178.628,74.952 L171.355,78.025 L170.228,75.464 z M112.345,24.65 L112.345,24.65 L118.287,25.777 C119.824,26.084 120.541,25.06 120.848,23.625 C121.155,22.089 120.336,21.372 119.414,21.167 L113.472,20.04 C112.447,19.835 111.423,19.937 111.218,21.577 C110.911,23.421 111.116,24.445 112.345,24.65 z M148.201,144.001 L148.201,144.001 L148.201,144.001 C118.697,138.469 148.201,144.001 148.201,144.001 C118.697,138.469 112.038,150.968 111.73,156.807 C103.227,149.328 92.163,151.07 88.577,153.426 C80.484,147.792 70.034,151.992 67.473,156.602 C56.716,150.353 47.906,141.133 42.168,130.171 C56.716,134.166 65.219,144.206 70.137,149.226 C75.771,144.513 86.118,146.153 89.089,148.611 C92.265,146.153 104.559,146.46 109.579,150.148 C115.418,136.215 137.24,137.957 151.582,140.006 C150.455,141.542 149.431,142.567 148.201,144.001 z M88.68,155.783 L88.68,155.783 L88.68,155.783 C82.02,150.763 88.68,155.783 88.68,155.783 C82.02,150.763 71.776,154.553 70.137,157.832 C79.152,162.544 89.089,165.208 100.051,165.208 C117.775,165.208 134.064,158.036 145.743,146.357 C114.599,141.338 112.96,158.754 112.755,160.7 C107.94,155.987 98.515,151.377 88.68,155.783 z M113.164,36.124 L113.164,36.124 L113.164,36.124 C89.294,45.037 113.164,36.124 113.164,36.124 C89.294,45.037 65.731,64.912 58.15,73.108 C51.594,80.381 39.095,95.953 37.046,116.955 C35.612,111.525 34.792,105.891 34.792,99.949 C34.792,63.99 63.99,34.792 100.051,34.792 C104.559,34.792 108.862,35.202 113.164,36.124 z M104.866,121.258 L104.866,121.258 L112.242,121.258 L138.162,51.081 C99.027,87.348 102.1,112.242 104.866,121.258 z M116.955,121.258 L116.955,121.258 L161.827,121.258 L161.929,119.824 C133.756,113.677 118.184,115.521 116.955,121.258 z M40.632,121.258 L40.632,121.258 L100.666,121.258 C88.68,116.648 71.571,113.984 62.248,113.677 C52.925,113.267 42.168,114.804 40.632,121.258 z M160.495,124.229 L159.471,126.79 L40.12,126.79 L39.3,124.229 z" fill="#000000"/>
  </g>
</svg>
