<?xml version="1.0" encoding="UTF-8"?>
<!DOCTYPE svg PUBLIC "-//W3C//DTD SVG 1.1//EN" "http://www.w3.org/Graphics/SVG/1.1/DTD/svg11.dtd">
<svg version="1.1" xmlns="http://www.w3.org/2000/svg" xmlns:xlink="http://www.w3.org/1999/xlink" x="0" y="0" width="200" height="200" viewBox="0, 0, 200, 200">
  <g id="layer1">
    <path d="M141.182,29.884 C159.736,41.876 186.436,79.381 193.564,100.028 C186.38,120.789 159.679,158.124 141.182,170.173 L141.182,29.884 z M101.527,56.527 C75.223,56.527 55.877,75.591 55.933,100.085 C55.933,124.409 75.223,143.642 101.527,143.642 C111.201,143.642 123.589,139.683 133.262,132.725 L133.262,175.038 C123.646,181.091 111.879,184.485 98.077,184.485 C51.351,184.485 13.564,146.81 13.564,100.028 C13.564,53.36 51.351,15.515 98.077,15.515 C111.823,15.515 123.589,19.079 133.262,25.075 L133.262,67.332 C123.589,60.374 111.201,56.527 101.527,56.527 z" fill="#000000"/>
  </g>
</svg>
