<?xml version="1.0" encoding="UTF-8"?>
<!DOCTYPE svg PUBLIC "-//W3C//DTD SVG 1.1//EN" "http://www.w3.org/Graphics/SVG/1.1/DTD/svg11.dtd">
<svg version="1.1" xmlns="http://www.w3.org/2000/svg" xmlns:xlink="http://www.w3.org/1999/xlink" x="0" y="0" width="200" height="200" viewBox="0, 0, 200, 200">
  <g id="_x23_010101ff">
    <path d="M28.363,97.814 C28.529,97.635 28.771,97.674 28.988,97.661 C30.849,97.674 32.71,97.674 34.571,97.661 C34.609,100.3 34.66,102.938 34.698,105.577 C38.051,103.027 41.186,100.198 44.526,97.635 C46.565,97.712 48.605,97.635 50.644,97.686 C50.632,102.683 50.632,107.693 50.644,112.689 C47.993,112.715 45.354,112.664 42.716,112.715 L42.665,112.715 C42.639,110.37 42.652,108.024 42.652,105.691 C39.912,107.96 37.362,110.433 34.634,112.715 L34.239,112.715 C31.741,112.664 29.255,112.728 26.757,112.689 C26.795,110.344 26.744,107.986 26.782,105.64 C24.067,107.948 21.467,110.395 18.765,112.715 L9.842,112.715 C10.097,112.447 10.39,112.231 10.696,112.014 C12.226,110.879 13.64,109.605 15.157,108.445 C19.568,104.901 23.978,101.37 28.363,97.814 z M74.634,97.648 C74.583,102.658 74.621,107.667 74.596,112.664 C79.019,112.702 83.442,112.677 87.865,112.677 C87.827,111.517 87.84,110.37 87.865,109.21 C86.093,109.21 84.309,109.21 82.537,109.21 C82.537,105.36 82.562,101.51 82.524,97.661 C79.898,97.661 77.26,97.674 74.634,97.648 z M53.359,102.67 C52.021,105.284 52.123,108.661 53.831,111.071 C54.532,111.988 55.616,112.638 56.788,112.677 C62.129,112.664 67.483,112.702 72.824,112.651 C72.786,111.504 72.786,110.357 72.811,109.21 C69.331,109.171 65.851,109.261 62.384,109.171 C61.964,109.171 61.581,108.967 61.263,108.712 C60.37,107.922 60.179,106.571 60.523,105.475 C60.778,104.659 61.492,103.907 62.384,103.869 C65.851,103.818 69.331,103.881 72.798,103.843 C72.798,102.67 72.773,101.51 72.798,100.338 C67.547,100.338 62.282,100.338 57.031,100.338 C55.488,100.325 54.061,101.332 53.359,102.67 z M96.686,107.438 C98.776,107.4 100.867,107.412 102.957,107.425 C102.957,108.037 102.945,108.636 102.932,109.248 C100.854,109.197 98.764,109.222 96.686,109.222 C96.686,108.623 96.686,108.037 96.686,107.438 z M90.555,100.325 C90.529,101.498 90.516,102.683 90.555,103.869 C94.672,103.856 98.802,103.881 102.932,103.856 C102.932,104.468 102.932,105.08 102.932,105.691 C99.312,105.653 95.692,105.691 92.071,105.666 C91.345,105.666 90.631,106.074 90.274,106.711 C89.637,107.833 89.535,109.184 89.79,110.42 C89.994,111.427 90.618,112.536 91.727,112.715 L106.603,112.715 C107.75,112.549 108.808,111.925 109.509,111.007 C110.554,109.694 110.899,107.973 110.886,106.329 C110.873,104.57 110.287,102.76 109.012,101.523 C108.247,100.758 107.176,100.338 106.106,100.338 C100.918,100.325 95.743,100.351 90.555,100.325 M112.734,102.25 C112.734,105.73 112.734,109.21 112.734,112.677 C115.385,112.677 118.024,112.689 120.663,112.677 C120.65,109.745 120.663,106.8 120.65,103.856 C122.128,103.843 123.62,103.856 125.098,103.843 C125.098,102.67 125.086,101.51 125.111,100.338 C121.631,100.351 118.139,100.3 114.646,100.351 C113.626,100.236 112.658,101.243 112.734,102.25 z M133.97,103.869 C136.035,103.843 138.1,103.869 140.178,103.856 C140.165,104.455 140.165,105.067 140.165,105.666 C138.1,105.628 136.035,105.691 133.97,105.628 C133.983,105.041 133.97,104.455 133.97,103.869 z M128.476,101.052 C127.214,101.918 126.488,103.384 126.195,104.863 C125.787,106.864 126.118,109.069 127.265,110.79 C127.954,111.835 129.114,112.562 130.363,112.702 L146.373,112.702 C146.398,111.542 146.386,110.382 146.398,109.222 C142.256,109.197 138.113,109.235 133.97,109.21 C133.97,108.61 133.97,108.011 133.97,107.412 C137.59,107.412 141.223,107.412 144.856,107.412 C145.71,107.45 146.424,106.813 146.781,106.087 C147.367,104.939 147.393,103.563 147.048,102.339 C146.781,101.472 146.169,100.554 145.238,100.338 C140.522,100.351 135.806,100.351 131.089,100.338 C130.172,100.338 129.228,100.516 128.476,101.052 M149.05,100.325 C149.05,104.442 149.062,108.559 149.037,112.664 C149.712,112.677 150.388,112.651 151.051,112.702 L155.602,112.702 C156.086,112.651 156.583,112.651 157.067,112.638 C157.016,109.694 157.055,106.762 157.055,103.818 C158.444,103.894 159.897,103.932 161.172,104.557 C161.886,104.901 162.37,105.666 162.357,106.456 C162.357,108.521 162.37,110.599 162.345,112.664 C164.715,112.702 167.086,112.664 169.457,112.677 C169.406,109.656 169.496,106.647 169.419,103.639 C169.368,102.39 168.425,101.319 167.329,100.797 C166.615,100.44 165.799,100.287 164.996,100.325 C159.68,100.338 154.365,100.338 149.05,100.325 z M179.145,87.616 C176.557,88.063 173.995,88.636 171.497,89.427 C166.844,90.88 162.345,92.792 157.998,94.997 C157.067,95.456 156.201,96.029 155.219,96.348 C156.379,96.297 157.488,95.953 158.622,95.749 C161.847,95.086 165.123,94.551 168.425,94.525 C169.878,94.525 171.357,94.563 172.759,94.959 C173.727,95.226 174.696,95.685 175.372,96.45 C176.047,97.279 176.264,98.4 176.213,99.446 C176.175,100.465 175.843,101.447 175.499,102.39 C175.053,103.588 174.454,104.748 173.727,105.806 C178.074,102.951 182.599,100.249 186.245,96.488 C187.685,95.073 189.1,93.493 189.699,91.517 C190.158,90.23 189.47,88.7 188.221,88.19 C186.857,87.438 185.263,87.272 183.734,87.285 C182.204,87.311 180.662,87.349 179.145,87.616 z" fill="#000000"/>
  </g>
</svg>
