<?xml version="1.0" encoding="UTF-8"?>
<!DOCTYPE svg PUBLIC "-//W3C//DTD SVG 1.1//EN" "http://www.w3.org/Graphics/SVG/1.1/DTD/svg11.dtd">
<svg version="1.1" xmlns="http://www.w3.org/2000/svg" xmlns:xlink="http://www.w3.org/1999/xlink" x="0" y="0" width="200" height="200" viewBox="0, 0, 200, 200">
  <g id="Layer_1">
    <path d="M100,55.181 C50.301,55.181 10,75.241 10,100 C10,124.759 50.301,144.819 100,144.819 C149.699,144.819 190,124.759 190,100 C190,75.241 149.699,55.181 100,55.181 z M100,141.024 C52.47,141.024 14.157,122.771 14.157,100 C14.157,77.229 52.47,58.976 100,58.976 C147.53,58.976 185.843,77.41 185.843,100 C185.843,122.59 147.53,141.024 100,141.024 L100,141.024 z M159.639,109.398 L159.639,109.398 C160.542,107.41 160.542,105.241 159.819,103.072 C159.277,102.169 158.554,101.446 157.651,101.084 C156.386,100.361 154.94,100 153.494,100 L144.277,100 C144.639,100.723 144.639,101.627 144.277,102.349 L136.867,122.952 L143.554,122.952 L146.446,114.819 L150.783,122.952 L157.47,122.952 L152.952,114.458 C154.398,114.277 155.843,113.735 156.928,112.831 C158.193,112.108 159.096,110.843 159.639,109.398 z M133.795,123.133 L135.964,118.253 L128.373,118.253 C128.735,116.807 129.096,115.542 129.639,114.277 L135.241,114.277 L137.048,109.217 L131.265,109.217 L132.53,105.241 L140.12,105.241 L141.747,100.181 L126.386,100.181 C126.747,101.084 126.747,102.169 126.386,103.072 L119.337,123.133 L133.795,123.133 z M103.795,123.133 L103.795,123.133 L108.855,123.313 L125.843,100.181 L118.253,100.181 L109.94,112.47 L109.94,100.181 L102.892,100.181 C103.253,100.904 103.434,101.807 103.434,102.53 L103.795,123.133 z M98.373,118.072 L98.373,118.072 C101.084,114.819 101.988,110.482 100.904,106.506 C100.542,104.337 99.277,102.53 97.47,101.265 C95.12,99.819 92.229,99.277 89.518,100.181 C85.181,101.807 81.747,105.422 80.301,109.94 C79.578,112.108 79.578,114.458 80.12,116.807 C80.843,120.06 83.373,122.59 86.627,123.313 C88.795,123.494 90.964,123.313 92.952,122.41 C95.12,121.325 96.928,119.88 98.373,118.072 z M78.313,109.398 C79.398,107.59 79.398,105.241 78.675,103.072 C78.133,102.169 77.41,101.446 76.506,101.084 C75.06,100.361 73.614,100 72.169,100 L62.952,100 C63.313,100.723 63.313,101.627 62.952,102.349 L55.542,122.952 L62.229,122.952 L65.12,114.819 L69.458,122.952 L76.145,122.952 L71.627,114.458 C73.072,114.277 74.518,113.735 75.602,112.831 C76.867,111.928 77.771,110.843 78.313,109.398 z M54.096,108.313 L54.096,108.313 L46.325,108.133 L55,104.518 L55.723,102.711 L39.277,108.313 L37.108,113.916 L51.928,113.916 L54.096,108.313 z M55,75.241 L47.771,95.843 L61.325,95.843 L63.494,90.602 L56.807,90.602 L62.771,72.892 L55,72.892 C55.181,73.614 55.181,74.518 55,75.241 z M77.048,72.892 C77.229,73.614 77.048,74.518 76.687,75.06 L63.313,95.663 L69.819,95.663 L71.988,92.771 L78.494,92.771 L78.855,95.663 L85.361,95.663 L84.096,72.892 L77.048,72.892 z M93.855,75.241 L86.627,95.663 L92.41,95.663 L96.386,85.723 L98.193,95.663 L104.518,95.663 L112.831,72.892 L106.325,72.892 L102.711,83.193 L100.723,72.892 L93.855,72.892 C94.217,73.614 94.217,74.518 93.855,75.241 z M123.855,72.892 L123.855,72.892 L116.265,72.711 C116.446,73.614 116.446,74.337 116.265,75.06 L109.217,95.663 L119.699,95.663 C122.229,95.663 124.578,94.94 126.566,93.494 C128.735,91.867 130.542,89.699 131.627,87.169 C132.711,84.639 133.072,81.928 132.892,79.217 C132.711,77.229 131.446,75.422 129.819,74.337 C128.012,73.434 125.843,72.892 123.855,72.892 z M135.783,90.964 L135.241,92.771 L151.687,87.169 L153.494,81.566 L138.855,81.566 L136.867,87.169 L144.458,87.169 L135.783,90.964 z M100,60.602 C146.627,60.602 184.398,78.313 184.398,100 C184.398,121.687 146.627,139.398 100,139.398 C53.373,139.398 15.602,121.687 15.602,100 C15.602,78.313 53.373,60.602 100,60.602 z M120.783,90.06 C120.422,90.241 120.06,90.422 119.699,90.422 L118.072,90.422 L122.229,78.675 L123.855,78.675 C126.747,78.675 125.482,83.193 124.578,85.542 C124.217,86.807 123.494,87.892 122.59,88.795 C122.048,89.337 121.506,89.699 120.783,90.06 z M151.325,105.783 C155.12,105.783 152.771,109.578 150.422,109.578 L148.614,109.578 L149.88,105.783 L151.325,105.783 z M70,105.783 C73.795,105.783 71.807,109.578 69.096,109.578 L67.289,109.578 L68.554,105.783 L70,105.783 z M75.241,87.711 L78.133,82.831 L78.494,87.711 z M89.337,106.867 C89.699,106.325 90.241,105.964 91.145,105.783 C92.59,105.422 94.036,106.506 94.217,107.952 C94.759,111.205 93.675,114.458 91.506,116.807 C91.325,117.169 90.964,117.349 90.602,117.53 C89.337,118.253 87.711,117.711 87.169,116.446 C86.807,115.361 86.627,114.096 86.807,112.831 C86.988,110.663 87.892,108.494 89.337,106.867 z" fill="#000000"/>
  </g>
</svg>
