<?xml version="1.0" encoding="UTF-8"?>
<!DOCTYPE svg PUBLIC "-//W3C//DTD SVG 1.1//EN" "http://www.w3.org/Graphics/SVG/1.1/DTD/svg11.dtd">
<svg version="1.1" xmlns="http://www.w3.org/2000/svg" xmlns:xlink="http://www.w3.org/1999/xlink" x="0" y="0" width="200" height="200" viewBox="0, 0, 200, 200">
  <g id="Layer_1">
    <path d="M180.099,43.197 C147.829,6.448 83.968,26.635 49.577,55.81 C7.642,94.858 0.923,140.595 22.671,165.054 C41.267,182.412 67.377,181.616 89.921,179.259 C108.045,175.781 128.085,168.031 146.209,153.768 C160.914,142.156 174.382,126.243 184.46,104.73 C199.077,73.551 183.252,46.733 180.099,43.197 L180.099,43.197 z M143.704,148.876 C134.597,157.157 75.953,193.552 37.318,155.978 C5.284,124.828 33.752,75.938 51.169,61.35 C54.322,59.759 72.534,38.865 106.159,34.533 C131.12,31.321 152.309,38.128 165.04,52.333 C171.67,59.759 176.002,69.189 177.358,80.27 C181.278,112.598 152.81,140.595 143.704,148.876 L143.704,148.876 z M63.516,62.736 L63.516,62.736 L89.803,88.551 C95.933,94.268 96.935,98.6 96.935,103.934 L96.935,142.598 L63.516,142.598 L63.516,62.736 z M138.871,62.736 L138.871,62.736 L112.584,88.551 C106.454,94.268 105.452,98.6 105.452,103.934 L105.452,142.598 L138.871,142.598 L138.871,62.736 z" fill="#000000"/>
  </g>
</svg>
