<?xml version="1.0" encoding="UTF-8"?>
<!DOCTYPE svg PUBLIC "-//W3C//DTD SVG 1.1//EN" "http://www.w3.org/Graphics/SVG/1.1/DTD/svg11.dtd">
<svg version="1.1" xmlns="http://www.w3.org/2000/svg" xmlns:xlink="http://www.w3.org/1999/xlink" x="0" y="0" width="200" height="200" viewBox="0, 0, 200, 200">
  <g id="Layer_1">
    <path d="M111.95,64.857 C111.95,60.824 108.723,60.521 108.723,60.521 L100.555,60.521 L100.555,62.639 L105.193,62.739 C105.193,62.739 106.504,61.328 107.916,63.042 C109.328,64.655 109.529,65.462 109.529,65.462 C109.529,65.462 109.731,68.487 107.008,65.866 C104.084,63.345 100.655,64.454 100.655,64.454 L100.655,69.798 L108.824,69.798 C108.723,69.899 111.95,69.193 111.95,64.857 z M78.269,111.849 C78.773,112.655 79.076,113.664 79.176,114.874 C79.277,115.983 79.277,117.294 79.076,118.706 C78.571,119.916 78.269,121.328 77.866,122.639 C77.261,124.252 76.555,125.563 75.95,126.773 C75.143,128.084 74.336,128.992 73.529,130 C72.824,130.908 71.916,131.412 71.109,131.613 C70,132.017 68.992,132.017 67.782,131.613 C66.672,131.311 65.765,130.706 65.261,130 C64.555,129.193 64.151,128.185 64.05,127.076 C63.95,126.067 63.95,124.756 64.151,123.345 C64.353,122.235 64.857,120.622 65.361,119.21 C66.37,115.782 67.882,113.261 69.697,111.647 C71.513,110.034 73.429,109.529 75.445,110.034 C76.655,110.437 77.664,111.143 78.269,111.849 z M92.286,67.378 C93.294,65.765 95.008,65.462 95.008,65.563 L95.008,69.899 L90.874,69.899 C90.874,69.899 90.874,68.992 92.286,67.378 z M89.765,65.462 C87.345,67.378 86.336,70.202 86.336,70.202 L84.521,70.101 C84.521,70.101 88.05,63.849 88.857,62.437 C89.462,61.025 90.471,61.025 90.471,61.025 C90.471,61.025 92.084,60.924 93.899,60.824 C95.714,60.622 95.109,62.941 95.109,62.941 C95.109,62.941 92.286,63.647 89.765,65.462 z M100.756,73.933 L108.521,73.933 C108.521,73.933 114.773,75.244 114.773,81.496 C114.773,87.748 109.429,89.361 109.429,89.361 C109.429,89.361 108.723,89.664 106,89.765 C103.176,89.765 101.361,88.756 101.361,88.756 L101.462,87.345 C101.462,87.345 104.286,87.143 107.008,85.832 C109.529,84.319 110.538,82.807 110.538,82.807 C110.538,82.807 111.95,80.992 110.941,80.286 C110.034,79.681 109.63,80.084 109.63,80.084 C109.63,80.084 110.336,79.782 107.513,82.101 C104.689,84.42 100.958,83.714 100.958,83.714 L100.756,73.731 z M101.059,154.605 C156.017,153.597 177.092,127.681 181.025,116.084 C185.059,104.387 175.983,93.597 175.983,93.597 L123.143,35.714 C123.143,35.714 114.168,26.336 98.84,26.739 C83.815,27.143 73.328,39.546 73.328,39.546 C73.328,39.546 34.706,82.303 23.412,95.311 C12.118,108.521 23.008,126.067 23.008,126.067 C23.008,126.067 46.101,155.815 101.059,154.605 z M99.95,10 C149.563,10 190,50.437 190,100.05 C190,149.563 149.563,190 99.95,190 C50.437,190 10,149.563 10,100.05 C10,50.437 50.437,10 99.95,10 z M166.807,111.546 C167.311,110.538 167.613,109.328 167.815,108.218 C167.815,107.008 167.613,106 167.21,105.193 C166.403,103.782 165.294,102.672 163.882,102.168 C162.471,101.765 160.857,101.765 158.739,102.168 C157.832,102.37 156.924,102.571 155.916,102.773 C154.908,103.277 153.899,103.58 152.891,103.782 C151.076,104.185 149.866,104.286 148.857,104.185 C147.849,104.084 147.143,103.479 146.739,102.773 C146.336,101.765 146.336,100.756 146.739,99.748 C147.345,98.538 148.151,97.63 149.462,97.025 C150.571,96.319 151.479,95.916 152.487,95.916 C153.496,95.815 154.303,95.815 155.311,96.017 C156.017,96.218 156.824,96.723 157.832,97.227 C158.639,97.832 159.546,98.437 160.252,98.84 L161.866,98.034 L157.933,90.975 L156.319,91.983 L155.815,93.597 C154.908,93.597 153.798,93.798 152.387,94.202 C151.076,94.605 149.664,95.008 148.252,96.017 C146.84,96.824 145.63,97.63 144.521,98.84 C143.513,99.849 142.706,100.857 142.403,101.866 C141.798,103.076 141.496,103.983 141.395,104.992 C141.395,106 141.597,106.807 142,107.815 C142.807,109.025 143.815,110.134 145.227,110.639 C146.739,111.244 148.454,111.244 150.269,110.84 C151.277,110.639 152.084,110.437 153.092,110.235 C154.101,109.933 155.008,109.63 156.218,109.227 C157.933,108.824 159.345,108.723 160.353,108.824 C161.26,108.924 162.067,109.529 162.471,110.235 C162.874,111.345 162.874,112.353 162.471,113.462 C161.966,114.672 160.857,115.681 159.244,116.689 C158.034,117.496 156.924,117.798 155.714,117.899 C154.605,118.101 153.597,117.899 152.487,117.697 C151.378,117.496 150.471,116.992 149.462,116.487 C148.655,116.084 147.647,115.58 146.941,114.975 L145.429,115.782 L149.664,123.345 L151.277,122.336 L151.882,120.723 C152.992,120.622 154.202,120.319 155.815,119.916 C157.429,119.613 158.84,118.807 160.454,118 C162.168,116.891 163.58,115.983 164.387,114.874 C165.294,113.765 166.202,112.756 166.807,111.546 z M137.26,110.437 C136.857,109.025 136.353,107.916 136.353,107.109 C136.353,106.303 136.454,105.697 136.857,105.294 C137.26,104.891 137.765,104.487 138.37,104.286 C138.975,103.983 139.378,103.681 139.782,103.58 L139.479,102.37 L128.689,105.597 L128.891,106.908 C129.294,106.807 129.899,106.807 130.706,106.807 C131.513,106.807 132.118,106.807 132.521,107.008 C133.126,107.109 133.429,107.714 133.832,108.319 C134.235,109.025 134.538,110.034 134.941,111.445 L137.059,119.513 C137.664,121.731 137.664,123.647 136.655,125.261 C135.849,126.672 134.437,127.882 132.42,128.286 C130.303,128.891 128.588,128.79 127.176,128.084 C125.765,127.378 124.756,125.664 124.151,123.445 L121.126,111.445 C121.025,110.941 121.025,110.639 121.025,110.235 C121.126,109.933 121.328,109.529 121.731,109.227 C122.134,109.025 122.538,108.824 122.84,108.622 C123.244,108.521 123.647,108.319 123.95,108.218 L123.647,106.908 L110.538,110.538 L110.84,111.849 C111.244,111.849 111.647,111.748 111.95,111.748 C112.555,111.748 112.857,111.748 113.261,111.748 C113.765,111.849 114.168,111.95 114.471,112.252 C114.471,112.555 114.773,112.756 114.874,113.261 L118.101,125.361 C118.807,127.983 120.319,130 122.739,130.807 C125.059,131.815 128.185,131.815 131.714,130.807 C134.739,129.899 136.857,128.286 138.471,126.168 C139.882,124.252 140.286,121.933 139.681,119.21 L137.26,110.437 z M108.723,117.899 L110.034,117.899 L109.832,110.538 L87.345,110.941 L87.445,118.202 L88.756,118.202 C89.16,117.092 89.765,115.983 90.37,114.672 C91.076,113.462 91.782,112.756 92.387,112.655 C92.689,112.655 93.193,112.655 93.697,112.555 C94.101,112.555 94.706,112.555 95.109,112.555 L95.815,112.555 L96.118,132.42 C96.118,132.924 96.118,133.227 96.017,133.63 C95.916,133.832 95.613,134.034 95.21,134.336 C95.008,134.437 94.605,134.437 94,134.538 C93.395,134.538 92.992,134.639 92.689,134.639 L92.689,136.05 L105.597,135.849 L105.597,134.437 C105.193,134.437 104.689,134.336 104.185,134.336 C103.681,134.134 103.277,134.034 102.975,133.933 C102.571,133.832 102.37,133.63 102.168,133.227 C102.067,132.924 102.067,132.622 102.067,132.218 L101.664,112.454 L102.37,112.454 C102.773,112.454 103.378,112.454 103.782,112.454 C104.387,112.454 104.689,112.454 105.092,112.555 C105.697,112.555 106.403,113.16 107.109,114.471 C107.916,115.58 108.521,116.689 108.723,117.899 z M84.723,124.353 C85.429,122.437 85.731,120.622 85.429,119.008 C85.328,117.294 84.723,115.681 84.017,114.269 C83.109,113.059 82.202,111.95 80.689,110.941 C79.176,109.933 77.563,109.126 75.748,108.622 C73.832,108.118 72.118,107.916 70.303,108.017 C68.387,108.218 66.773,108.723 65.059,109.429 C63.647,110.235 62.235,111.345 60.924,112.756 C59.613,114.067 58.706,115.681 58,117.597 C57.395,119.513 57.193,121.328 57.294,122.941 C57.395,124.555 58,126.168 58.807,127.58 C59.613,128.992 60.723,130.101 62.134,131.109 C63.345,132.017 65.059,132.924 66.874,133.328 C68.992,134.034 71.008,134.134 72.824,134.034 C74.739,133.731 76.454,133.328 78.067,132.319 C79.58,131.513 80.79,130.403 82,129.092 C83.21,127.681 84.118,126.168 84.723,124.353 z M40.252,116.387 C40.151,115.983 40.151,115.58 40.353,115.076 C40.454,114.773 40.756,114.067 41.16,113.462 L50.639,99.143 C50.84,98.739 51.042,98.538 51.445,98.336 C51.748,98.235 52.252,98.235 52.756,98.437 C53.16,98.639 53.664,98.84 54.168,99.042 C54.874,99.345 55.176,99.647 55.58,99.748 L56.487,98.437 L42.975,88.655 L42.269,89.966 C42.672,90.269 43.076,90.571 43.479,90.975 C43.882,91.277 44.286,91.882 44.487,92.286 C44.891,92.891 44.992,93.193 44.992,93.597 C44.891,94 44.79,94.202 44.487,94.605 L34.403,110.134 C34,110.437 33.697,110.739 33.395,110.84 C32.891,110.941 32.487,110.941 32.084,110.84 C31.882,110.84 31.479,110.538 30.773,110.336 C30.37,109.933 29.765,109.731 29.361,109.529 L28.555,110.639 L51.143,126.874 L56.286,120.118 L54.975,119.311 C53.966,119.916 53.059,120.42 51.748,120.924 C50.336,121.328 49.429,121.731 48.42,121.731 C47.815,121.832 47.008,121.529 46.202,121.126 C45.193,120.622 44.185,119.916 43.378,119.311 C42.471,118.504 41.765,118.101 41.261,117.697 C40.655,117.092 40.353,116.79 40.252,116.387 z M63.042,90.471 C63.042,90.471 61.731,90.37 61.832,91.681 C61.832,93.294 62.538,92.891 62.538,92.891 L74.336,92.79 C74.336,92.79 75.345,91.378 73.529,90.37 C72.218,89.664 73.731,87.345 74.235,86.538 C74.336,88.353 85.529,104.185 101.361,103.277 C117.798,102.37 124.252,93.697 124.252,93.697 C124.252,93.697 127.378,90.471 125.866,89.765 C124.252,88.756 123.546,90.37 123.546,90.37 L121.529,92.185 C121.529,92.185 113.765,97.63 103.176,98.034 C92.588,98.538 89.462,94.807 85.126,90.672 C80.689,86.538 79.479,77.361 79.479,77.361 L81.899,73.63 L85.731,73.731 C85.731,73.731 85.025,79.58 87.95,83.109 C90.975,86.84 95.109,87.244 95.109,87.244 C95.109,87.244 95.109,87.244 95.109,88.252 C95.109,89.16 94.202,89.563 92.387,90.168 C90.672,90.874 92.286,92.185 92.286,92.185 L111.748,92.387 C111.748,92.387 120.622,90.168 120.622,81.697 C120.622,73.429 113.16,71.815 113.16,71.815 C113.16,71.815 118,71.412 118,64.252 C118,57.092 111.042,57.395 111.042,57.395 L85.126,57.597 L85.126,59.21 C85.126,59.21 85.126,59.513 85.529,60.521 C85.832,61.63 85.126,62.134 85.126,62.134 L79.176,70.706 C79.176,70.706 78.571,61.328 85.227,54.37 C92.084,47.21 101.059,48.622 101.059,48.622 L105.092,48.824 C105.092,48.824 113.462,50.538 118.706,53.563 C123.849,56.487 122.639,52.958 122.639,52.958 C122.639,52.958 120.118,48.924 119.008,46.504 C117.697,44.084 117.092,45.294 115.479,46.605 C113.765,47.916 111.546,46.605 111.546,46.605 C111.546,46.605 99.042,42.37 86.437,47.613 C73.832,52.958 71.513,69.193 71.311,72.218 C71.008,75.345 72.319,82.605 72.319,82.605 C72.319,82.605 70.202,85.933 68.79,88.05 C67.378,90.37 63.042,90.471 63.042,90.471 z M121.126,40.454 L169.429,94.605 C169.126,94.504 179.109,103.882 175.378,114.37 C171.849,125.059 151.681,147.849 101.16,149.059 C50.538,149.966 29.261,123.345 29.261,123.345 C29.261,123.345 18.874,109.529 29.261,97.529 C39.647,85.529 76.05,44.387 76.05,44.387 C76.05,44.387 85.227,31.983 99.244,31.782 C113.361,31.378 121.126,40.454 121.126,40.454 z" fill="#000000"/>
  </g>
</svg>
