<?xml version="1.0" encoding="UTF-8"?>
<!DOCTYPE svg PUBLIC "-//W3C//DTD SVG 1.1//EN" "http://www.w3.org/Graphics/SVG/1.1/DTD/svg11.dtd">
<svg version="1.1" xmlns="http://www.w3.org/2000/svg" xmlns:xlink="http://www.w3.org/1999/xlink" x="0" y="0" width="200" height="200" viewBox="0, 0, 200, 200">
  <g id="Layer_1">
    <path d="M148.708,145.779 C159.604,145.779 166.121,137.986 166.121,128.366 C166.121,118.747 159.604,110.954 148.708,110.954 L113.382,110.954 L113.382,145.779 L148.708,145.779 z M148.708,85.081 C158.299,85.081 164.135,78.18 164.135,69.662 C164.135,61.144 158.299,54.235 148.708,54.235 L113.382,54.235 L113.382,85.081 L148.708,85.081 z M63.63,110.946 L63.63,119.573 L41.745,119.573 L41.745,76.454 L63.63,76.454 L63.63,85.081 L84.53,85.081 L84.53,54.228 L31.886,54.228 L31.886,65.174 L10,65.174 L10,54.228 L10,32.335 L148.708,32.335 C170.412,32.335 188.014,49.929 188.014,71.641 C188.028,81.174 184.563,90.38 178.271,97.542 C185.527,104.98 190,115.158 190,126.373 C190,149.179 171.514,167.665 148.708,167.665 L10,167.665 L10,145.772 L10,134.826 L31.893,134.826 L31.893,145.772 L84.537,145.772 L84.537,110.946 L63.63,110.946 L63.63,110.946 z" fill="#000000"/>
  </g>
</svg>
