<?xml version="1.0" encoding="UTF-8"?>
<!DOCTYPE svg PUBLIC "-//W3C//DTD SVG 1.1//EN" "http://www.w3.org/Graphics/SVG/1.1/DTD/svg11.dtd">
<svg version="1.1" xmlns="http://www.w3.org/2000/svg" xmlns:xlink="http://www.w3.org/1999/xlink" x="0" y="0" width="200" height="200" viewBox="0, 0, 200, 200">
  <g id="Layer_1">
    <path d="M170.889,75.096 C149.21,64.155 124.766,59.388 100.562,59.388 C76.155,59.388 50.71,63.197 29.111,75.096 C20.056,80.109 10,88.881 10,100.062 L10,100.062 C10,111.119 19.896,120.297 29.038,124.904 C50.754,135.882 75.241,140.612 99.481,140.612 C123.881,140.612 149.333,136.803 170.925,124.948 C179.9,120.021 190,111.286 190,100.141 C190,88.961 180.183,79.746 170.889,75.096 z M68.101,121.139 L53.351,103.385 L52.909,103.385 L52.909,121.139 L41.445,121.139 L41.445,81.553 L38.92,81.553 L38.92,78.905 L52.909,78.905 L52.909,93.771 L53.351,93.771 L65.453,78.905 L78.353,78.905 L62.326,98.618 L80.922,121.139 L68.101,121.139 z M104.807,121.139 L93.35,121.139 L93.35,81.713 L90.869,81.713 L90.869,78.789 L104.814,78.789 L104.814,121.139 z M149.13,121.139 L139.713,93.532 L130.259,121.139 L117.758,121.139 L131.499,81.546 L131.499,81.546 L129.258,81.546 L129.258,78.941 L146.932,78.941 L161.319,121.139 L149.13,121.139 z" fill="#000000"/>
  </g>
</svg>
