<?xml version="1.0" encoding="UTF-8"?>
<!DOCTYPE svg PUBLIC "-//W3C//DTD SVG 1.1//EN" "http://www.w3.org/Graphics/SVG/1.1/DTD/svg11.dtd">
<svg version="1.1" xmlns="http://www.w3.org/2000/svg" xmlns:xlink="http://www.w3.org/1999/xlink" x="0" y="0" width="200" height="200" viewBox="0, 0, 200, 200">
  <g id="opel">
    <path d="M99.964,161.812 C66.164,161.812 38.129,133.789 38.129,100.001 C38.129,98.244 38.21,96.503 38.358,94.781 L90.098,98.008 L67.719,113.462 C67.416,113.676 67.217,114.027 67.217,114.423 C67.217,115.07 67.742,115.595 68.389,115.595 L159.76,115.595 C152.734,141.993 128.389,161.812 99.964,161.812 M99.964,38.188 C133.765,38.188 161.8,66.214 161.8,100.001 C161.8,101.744 161.723,103.474 161.575,105.185 L109.886,101.9 L132.315,86.538 C132.62,86.324 132.818,85.973 132.818,85.577 C132.818,84.93 132.294,84.404 131.65,84.404 L40.169,84.404 C47.197,58.007 71.54,38.188 99.964,38.188 M188.648,106.905 L171.731,105.829 C171.885,103.907 171.967,101.962 171.967,100.001 C171.967,60.25 139.731,28.027 99.964,28.027 C65.558,28.027 36.791,52.154 29.664,84.404 L16.379,84.404 C15.509,84.404 14.731,84.817 14.238,85.46 L10.284,90.916 C10.106,91.145 10,91.432 10,91.744 C10,92.492 10.604,93.095 11.352,93.095 L28.203,94.146 C28.047,96.077 27.964,98.029 27.964,100.001 C27.964,139.75 60.2,171.973 99.964,171.973 C134.371,171.973 163.138,147.846 170.267,115.595 L183.619,115.595 C184.491,115.595 185.266,115.183 185.76,114.54 L189.715,109.084 C189.893,108.855 190,108.568 190,108.256 C190,107.508 189.394,106.905 188.648,106.905" fill="#1A171B" id="path6381"/>
  </g>
</svg>
