<?xml version="1.0" encoding="UTF-8"?>
<!DOCTYPE svg PUBLIC "-//W3C//DTD SVG 1.1//EN" "http://www.w3.org/Graphics/SVG/1.1/DTD/svg11.dtd">
<svg version="1.1" xmlns="http://www.w3.org/2000/svg" xmlns:xlink="http://www.w3.org/1999/xlink" x="0" y="0" width="200" height="200" viewBox="0, 0, 200, 200">
  <g id="Layer_1">
    <path d="M162.904,25.601 L162.627,23.814 L160.966,23.058 C152.523,19.072 129.687,10 99.654,10 C71.282,10 49.553,18.11 39.034,22.99 L37.373,23.746 L37.096,25.533 C35.228,37.423 31.906,69.038 41.179,104.708 C50.591,140.859 69.759,169.038 97.993,188.625 L99.931,190 L101.868,188.625 C130.102,169.107 149.271,140.859 158.682,104.708 C168.094,69.107 164.772,37.491 162.904,25.601 z M152.108,103.058 C143.32,136.735 125.812,163.127 100,181.684 C74.188,163.127 56.68,136.667 47.892,103.058 C39.311,70.275 41.802,41.134 43.67,28.488 C54.12,23.814 74.05,16.942 99.654,16.942 C126.504,16.942 147.264,24.502 156.399,28.488 C158.198,41.134 160.689,70.275 152.108,103.058 z M49.207,36.254 L47.546,36.873 L50.521,45.052 L56.334,42.852 L55.781,41.409 L51.698,42.921 z M75.364,29.313 L72.735,29.794 L72.527,36.804 L72.527,36.804 L69.69,30.412 L67.06,30.893 L68.721,39.416 L70.382,39.141 L68.998,31.993 L68.998,31.993 L71.974,38.797 L73.704,38.454 L73.911,31.031 L73.98,31.031 L75.364,38.179 L77.025,37.835 z M116.124,32.199 L116.124,32.199 L115.985,33.574 L117.992,33.78 C117.439,35.498 116.124,35.567 115.709,35.498 C114.463,35.361 113.217,34.605 113.494,32.268 C113.771,30 115.017,29.244 116.331,29.381 C117.577,29.519 118.061,30.687 118.061,31.031 L119.861,31.237 C119.861,30.069 119.03,28.213 116.331,27.938 C113.425,27.595 111.903,29.725 111.626,32.062 C111.28,35.086 113.079,36.804 115.155,37.01 C116.747,37.148 117.508,36.46 117.992,35.979 L118.061,37.079 L119.307,37.216 L119.791,32.543 L116.124,32.199 z M128.165,34.811 L127.473,38.66 L129.272,38.935 L130.794,30.344 L128.995,30.069 L128.442,33.299 L125.051,32.68 L125.674,29.45 L123.874,29.107 L122.283,37.698 L124.082,38.041 L124.774,34.192 z M136.123,31.581 L134.393,31.168 L132.317,39.691 L134.116,40.103 z M143.112,39.828 L143.112,39.828 L141.521,33.024 L139.721,32.474 L137.161,40.79 L138.753,41.34 L140.621,35.361 L140.621,35.361 L142.213,42.371 L143.943,42.852 L146.503,34.536 L144.842,34.055 z M151.693,36.46 L149.963,35.773 L146.849,43.952 L148.579,44.57 z M129.826,100.928 C131.625,101.271 133.632,101.271 135.223,100.241 C134.67,100.034 133.424,99.622 132.04,98.935 C130.656,98.247 129.203,97.285 128.234,96.186 C127.542,95.361 127.058,94.948 126.642,94.742 C126.227,94.536 125.812,94.467 125.258,94.33 C124.705,94.124 123.598,93.918 122.421,93.368 C121.245,92.887 120.068,92.062 119.307,90.893 C118.546,89.725 117.923,87.938 117.439,86.357 C116.954,84.777 116.539,83.333 116.193,82.715 C115.847,82.096 115.293,81.546 114.809,80.859 C114.325,80.172 113.84,79.347 113.633,78.11 C113.425,76.942 113.148,75.704 112.871,74.605 C112.595,73.505 112.249,72.612 111.833,71.993 C111.418,71.375 111.072,70.344 110.726,69.381 C110.38,68.419 110.034,67.526 109.688,67.113 C109.342,66.701 108.581,66.014 107.681,65.326 C106.782,64.708 105.674,64.089 104.636,64.089 C103.598,64.089 102.214,64.57 100.83,65.326 C99.446,66.082 98.062,67.113 96.886,68.282 C95.71,69.45 94.464,70.412 93.288,71.512 C92.111,72.612 91.211,73.78 90.796,75.361 C90.381,76.942 89.827,79.003 89.205,80.859 C88.651,82.784 88.028,84.433 87.682,85.326 C87.267,86.22 86.506,88.007 85.883,89.931 C85.26,91.856 84.776,93.918 84.983,95.223 C84.983,96.254 85.053,97.216 85.329,97.904 C85.606,98.591 86.091,98.935 86.713,98.729 C87.336,98.591 87.544,97.973 87.821,97.423 C88.028,96.804 88.305,96.323 89.066,96.254 C89.827,96.186 90.173,96.254 90.45,96.392 C90.727,96.529 90.935,96.735 91.281,96.873 C91.627,97.079 92.111,97.354 92.526,97.491 C93.011,97.629 93.426,97.629 93.772,97.148 C94.118,96.667 94.602,96.392 95.087,96.323 C95.571,96.254 96.125,96.254 96.54,96.323 C96.955,96.392 97.37,96.323 97.786,96.186 C98.132,96.048 98.547,95.704 98.824,95.086 C99.1,94.467 99.516,94.261 99.931,94.192 C100.346,94.124 100.692,94.192 100.83,94.261 C101.453,94.948 101.938,95.911 102.353,96.804 C102.699,97.698 102.976,98.591 102.906,99.072 C102.837,99.553 102.699,100.309 102.353,101.203 C102.007,102.096 101.592,103.058 101.038,103.814 C100.484,104.639 99.862,105.739 99.862,106.907 C99.862,108.144 100.554,109.381 102.63,110.412 C102.63,111.237 102.56,111.649 102.837,112.199 C103.114,112.749 103.737,113.436 105.052,114.742 C105.536,115.155 106.02,115.979 106.436,116.873 C106.851,117.766 107.197,118.729 107.404,119.347 C107.474,119.622 107.612,119.759 107.75,119.759 C107.889,119.828 107.958,119.691 108.027,119.485 C108.235,118.729 108.65,117.835 108.858,116.46 C109.135,115.086 109.273,113.23 108.996,110.55 C108.65,110.687 108.097,110.893 107.612,111.237 C107.128,111.581 106.643,112.062 106.297,112.612 C106.228,111.581 106.228,110.137 106.297,108.694 C106.366,107.251 106.505,105.945 106.712,105.258 C106.92,104.57 106.989,104.158 107.128,103.952 C107.266,103.746 107.404,103.54 107.75,103.196 C108.027,102.852 108.304,102.302 108.304,101.684 C108.373,101.065 108.166,100.378 107.612,99.897 C107.058,99.416 106.643,98.935 106.436,98.454 C106.228,97.973 106.09,97.491 106.159,96.942 C106.228,96.392 106.712,95.636 107.889,94.88 C109.065,94.124 110.865,93.436 113.425,93.024 C113.771,92.955 113.979,93.093 113.979,93.299 C114.048,93.505 113.84,93.711 113.633,93.918 C113.425,94.124 112.871,94.536 112.318,94.948 C111.764,95.361 111.211,95.842 111.003,96.117 C110.795,96.392 110.38,97.148 110.38,97.973 C110.38,98.866 110.865,99.828 112.387,100.79 C113.909,101.753 114.809,102.234 115.639,102.509 C116.47,102.784 117.162,102.852 118.131,102.852 C117.854,102.509 116.954,101.821 116.124,101.134 C115.293,100.378 114.532,99.759 114.325,99.485 C114.186,99.21 113.909,98.866 113.84,98.522 C113.84,98.179 113.979,97.698 114.601,97.148 C115.293,96.598 115.847,96.048 116.262,95.636 C116.677,95.223 116.954,94.88 117.093,94.605 C117.715,94.88 118.684,95.361 119.722,95.773 C120.76,96.186 121.729,96.598 122.352,96.735 C122.975,96.942 123.598,97.216 124.22,97.56 C124.774,97.904 125.328,98.385 125.743,98.866 C126.504,99.759 128.026,100.515 129.826,100.928 z M136.261,98.797 C137.853,99.278 139.168,99.141 140.067,99.347 C139.029,101.134 137.23,102.165 135.223,102.784 C133.216,103.402 130.933,103.54 128.926,103.677 C129.618,104.089 130.102,105.052 130.448,106.151 C130.794,107.32 130.864,108.625 130.864,109.725 C130.864,110.825 131.002,111.993 131.21,112.955 C131.486,113.918 131.763,114.605 132.04,114.88 C132.317,115.155 132.594,115.567 132.801,116.048 C133.009,116.529 133.078,117.148 132.801,117.835 C132.524,118.522 132.455,118.935 132.524,119.278 C132.594,119.622 132.732,119.897 133.009,120.103 C133.286,120.309 133.562,120.584 133.839,120.928 C134.047,121.271 134.254,121.684 134.254,122.302 C134.254,122.852 134.047,123.608 133.701,124.227 C133.355,124.845 132.94,125.326 132.386,125.395 C131.832,125.533 131.21,125.326 130.725,124.914 C130.241,124.57 129.895,124.021 129.756,123.402 C129.618,122.784 129.618,122.234 129.618,121.615 C129.549,121.065 129.549,120.515 129.48,119.966 C129.41,119.485 129.203,118.729 129.064,117.904 C128.857,117.01 128.718,116.048 128.718,115.017 C128.58,113.093 128.096,111.718 127.265,110.619 C126.504,109.519 125.397,108.832 124.29,108.213 C124.082,108.625 123.321,109.244 122.49,109.863 C121.66,110.481 120.691,111.237 119.999,111.924 C119.307,112.68 118.753,113.78 118.407,114.88 C118.061,115.979 117.785,117.148 117.646,118.041 C118.615,118.66 118.615,119.759 118.338,120.79 C118.061,121.821 117.508,122.852 117.231,123.402 C117.023,123.952 116.885,124.227 116.262,124.433 C115.639,124.639 114.532,124.708 112.387,124.845 C110.242,124.914 108.65,124.57 107.543,124.021 C106.436,123.471 105.813,122.784 105.536,122.165 C105.259,121.546 104.913,120.928 104.567,120.309 C104.152,119.691 103.737,119.072 103.183,118.591 C103.183,118.866 103.183,119.21 103.045,119.622 C102.906,120.034 102.699,120.515 102.353,121.065 C102.007,121.615 101.73,122.44 101.522,123.265 C101.246,124.089 101.107,124.914 101.038,125.464 C100.969,125.945 100.692,126.289 100.138,126.426 C99.654,126.564 98.893,126.564 97.924,126.495 C96.955,126.426 96.54,125.945 96.402,125.258 C96.263,124.57 96.471,123.814 96.817,123.196 C97.163,122.646 97.716,121.753 98.27,120.997 C98.824,120.172 99.308,119.416 99.585,119.003 C99.862,118.591 100.138,118.179 100.208,117.904 C100.346,117.56 100.208,117.354 99.792,117.079 C99.377,116.873 99.17,116.735 99.031,116.804 C98.893,116.942 98.685,117.216 98.27,117.835 C97.855,118.454 97.647,119.072 97.301,119.828 C96.955,120.584 96.609,121.409 95.917,122.371 C95.225,123.333 94.81,124.227 94.533,125.052 C94.256,125.876 94.118,126.632 94.049,127.251 C93.98,127.869 93.772,128.557 93.564,129.175 C93.357,129.863 93.218,130.412 93.218,130.962 C93.218,131.512 93.357,131.924 93.495,132.406 C93.634,132.887 93.703,133.505 93.426,134.261 C93.149,135.017 92.734,135.636 92.111,136.048 C91.488,136.46 90.589,136.735 89.481,136.735 C88.305,136.735 87.613,136.46 87.129,135.979 C86.713,135.498 86.506,134.948 86.506,134.536 C86.506,134.124 86.713,133.436 87.198,132.68 C87.682,131.924 88.374,131.031 89.205,130.137 C90.104,129.244 90.381,128.144 90.519,127.045 C90.658,125.945 90.519,124.914 90.519,124.227 C90.519,123.54 90.865,122.509 91.35,121.409 C91.834,120.309 92.457,119.278 92.872,118.66 C93.288,118.041 93.288,117.354 93.011,116.735 C92.665,116.117 92.111,115.636 91.419,115.361 C90.658,115.086 90.173,114.674 89.827,114.192 C89.481,113.711 89.205,113.162 88.928,112.612 C88.651,112.062 88.651,111.443 88.582,110.962 C88.513,110.481 88.236,110.069 87.475,110 C86.713,109.931 86.298,110.275 85.952,110.825 C85.675,111.375 85.468,112.062 85.122,112.68 C84.776,113.299 84.499,113.918 84.291,114.742 C84.084,115.498 84.015,116.46 84.015,117.698 C84.084,118.935 83.599,120.722 83.046,122.302 C82.492,123.883 81.8,125.395 81.385,125.876 C80.97,126.357 80.624,126.564 80.347,126.77 C80.001,126.976 79.724,127.251 79.309,127.938 L78.894,128.969 L78.479,130 C78.063,130.962 77.994,132.199 77.925,133.436 C77.856,134.674 77.856,135.842 77.717,136.735 C77.579,137.629 77.025,138.385 76.195,138.935 C75.364,139.485 74.257,139.759 72.942,139.622 C71.628,139.485 71.005,138.866 70.797,138.11 C70.59,137.354 70.866,136.392 71.489,135.636 C72.112,134.811 72.873,133.643 73.704,132.406 C74.534,131.168 75.295,129.863 75.918,128.832 C76.472,127.801 76.679,126.77 76.887,125.739 C77.025,124.639 77.233,123.54 77.717,122.234 C78.202,120.928 78.617,119.416 78.825,117.766 C79.101,116.117 79.171,114.399 79.171,112.68 C79.101,110.962 79.309,109.381 79.586,107.869 C79.863,106.357 80.209,105.052 80.416,103.952 C80.624,102.852 80.831,101.34 81.039,99.759 C81.247,98.179 81.316,96.529 81.316,95.155 C81.247,93.78 81.662,92.612 82.146,91.512 C82.631,90.412 83.184,89.45 83.53,88.488 C83.876,87.526 84.015,86.564 84.499,84.708 C84.983,82.852 85.745,80.241 87.336,76.048 C88.859,71.856 92.25,68.625 95.502,66.22 C98.754,63.883 101.938,62.302 103.252,61.615 C104.498,60.859 106.09,60.584 107.612,60.584 C109.204,60.584 110.726,60.928 112.041,61.546 C113.356,62.096 114.809,62.371 116.055,62.44 C117.369,62.509 118.407,62.44 119.03,62.44 C119.722,61.821 120.276,61.34 120.414,60.722 C120.553,60.103 120.276,59.347 119.307,58.247 C118.338,57.148 115.501,56.667 111.903,56.46 C108.304,56.323 103.944,56.392 99.931,56.46 C95.986,56.529 93.495,55.979 91.973,55.086 C90.519,54.192 89.966,52.887 89.966,51.443 C89.966,49.931 90.727,49.175 91.696,48.694 C92.665,48.213 93.841,48.076 94.741,47.869 C95.64,47.663 96.194,47.595 96.955,47.526 C97.647,47.388 98.547,47.251 99.931,46.907 C101.315,46.495 102.145,46.495 102.768,46.632 C103.391,46.77 103.737,47.182 104.29,47.663 C105.744,47.32 107.474,47.595 109.204,48.076 C110.934,48.557 112.595,49.175 113.909,49.588 C112.387,49.588 111.003,50 109.757,50.344 C108.443,50.687 107.266,51.1 105.951,51.1 C104.706,51.1 103.045,51.1 101.522,50.962 C100,50.893 98.478,50.619 97.44,50.206 C96.748,50.275 95.848,50.275 95.156,50.55 C94.464,50.825 93.98,51.237 93.98,52.199 C93.98,53.162 96.955,53.436 100.623,53.505 C104.29,53.574 108.789,53.299 111.903,53.299 C115.017,53.299 117.715,53.643 119.791,54.261 C121.867,54.88 123.251,55.842 123.805,56.942 C124.359,58.11 124.566,59.072 124.497,60.378 C124.428,61.684 124.013,63.333 123.251,65.67 C126.089,68.832 127.75,72.612 128.58,76.117 C129.41,79.622 129.48,82.852 129.272,84.845 C129.064,86.838 129.203,88.076 129.41,88.969 C129.618,89.863 129.964,90.412 130.241,91.031 C130.518,91.649 130.725,92.062 130.794,92.68 C130.864,93.299 130.794,93.986 130.656,95.017 C132.87,97.354 134.67,98.316 136.261,98.797 z M60.279,38.247 L62.424,37.629 L60.417,34.605 L60.417,34.605 L60.279,38.247 z M60.901,32.474 L66.299,39.897 L64.362,40.447 L63.324,38.866 L60.209,39.759 L60.14,41.684 L58.272,42.234 L58.895,33.024 L60.901,32.474 z M83.945,35.43 C84.845,35.361 85.329,34.948 85.191,33.986 C85.053,33.23 84.361,33.024 83.738,33.093 L81.454,33.368 L81.731,35.704 L83.945,35.43 z M81.108,30.069 L81.316,31.924 L83.461,31.718 C84.153,31.649 84.707,31.306 84.637,30.619 C84.568,29.931 84.015,29.794 83.184,29.863 L81.108,30.069 z M87.059,34.055 C87.129,34.742 86.921,35.43 86.437,35.911 C86.021,36.46 85.606,36.804 83.807,37.01 L80.139,37.423 L79.171,28.763 L83.392,28.282 C85.537,28.076 86.229,29.313 86.298,30.206 C86.506,31.512 85.814,31.924 85.468,32.131 C86.575,32.406 86.99,33.23 87.059,34.055 z M94.118,34.948 C95.087,34.88 96.471,34.192 96.402,31.787 C96.332,29.313 94.879,28.763 93.91,28.832 C92.872,28.9 91.557,29.588 91.627,31.993 C91.696,34.467 93.149,35.017 94.118,34.948 z M93.841,27.32 C94.948,27.251 98.062,27.595 98.201,31.718 C98.339,35.773 95.364,36.392 94.187,36.46 C93.08,36.529 89.966,36.117 89.827,32.062 C89.689,28.007 92.665,27.388 93.841,27.32 z M105.398,31.306 C106.297,31.375 106.782,31.031 106.851,30.137 C106.851,29.656 106.643,28.969 105.605,28.969 L103.322,28.9 L103.252,31.237 L105.398,31.306 z M108.304,34.33 C108.235,35.567 108.235,35.911 108.581,36.117 L108.581,36.323 L106.574,36.254 C106.436,35.842 106.436,35.361 106.436,34.467 C106.436,33.23 106.436,32.818 105.052,32.749 L103.183,32.68 L103.045,36.117 L101.246,36.048 L101.522,27.32 L105.951,27.457 C108.304,27.526 108.65,29.244 108.65,30 C108.65,30.962 108.166,31.787 107.266,32.062 C107.958,32.406 108.373,32.68 108.304,34.33 z" fill="#000000"/>
  </g>
</svg>
