<?xml version="1.0" encoding="UTF-8"?>
<!DOCTYPE svg PUBLIC "-//W3C//DTD SVG 1.1//EN" "http://www.w3.org/Graphics/SVG/1.1/DTD/svg11.dtd">
<svg version="1.1" xmlns="http://www.w3.org/2000/svg" xmlns:xlink="http://www.w3.org/1999/xlink" x="0" y="0" width="200" height="200" viewBox="0, 0, 200, 200">
  <g id="Layer_1">
    <path d="M141.733,38.51 C137.7,57.058 136.088,65.525 132.459,78.831 C128.83,92.137 126.814,103.427 122.378,109.476 C119.153,113.911 113.911,116.733 108.266,117.137 C103.024,117.54 97.379,117.54 92.137,117.137 C86.492,116.733 81.251,113.911 78.025,109.476 C73.59,103.831 71.17,91.734 67.945,78.831 C64.719,65.929 62.703,57.058 58.671,38.51 L52.622,38.913 C50.203,38.913 48.187,39.316 46.171,39.72 C46.171,39.72 48.59,77.622 49.8,93.75 C51.01,110.685 53.026,138.91 54.639,160.684 C54.639,160.684 58.267,161.087 63.912,161.49 C69.557,161.893 72.783,161.893 72.783,161.893 C75.202,152.216 78.428,139.313 81.654,133.668 C83.67,130.443 87.299,128.427 91.331,128.427 C94.153,128.023 96.976,128.023 100.202,128.023 L100.202,128.023 C103.024,128.023 105.847,128.023 109.072,128.427 C113.104,128.427 116.733,130.443 118.749,133.668 C122.378,139.313 125.201,152.216 127.62,161.893 C127.62,161.893 130.443,161.893 136.491,161.49 C142.539,161.087 145.765,160.684 145.765,160.684 C147.781,139.313 149.797,110.685 150.603,93.75 C151.813,77.622 154.232,39.72 154.232,39.72 C152.216,39.316 150.2,39.316 147.781,38.913 L141.733,38.51 z M180.441,101.411 L180.441,101.411 C181.247,88.105 180.844,74.396 180.038,61.09 C178.022,46.171 170.764,38.51 154.635,35.688 C145.765,34.075 136.491,33.268 127.62,32.865 C119.959,32.059 107.459,32.059 100.202,32.059 C92.944,32.059 80.444,32.462 72.783,32.865 C63.912,33.268 54.639,34.075 45.768,35.688 C29.639,38.51 22.381,45.768 19.962,61.09 C18.753,74.396 18.753,88.105 19.559,101.411 C20.365,114.717 21.978,127.62 25.204,140.523 C26.817,146.571 29.639,151.813 34.075,156.248 C40.123,161.087 46.977,163.909 54.639,164.312 C84.88,167.538 115.12,167.538 145.361,164.312 C152.619,163.909 159.877,161.087 165.925,156.248 C170.361,151.813 173.586,146.571 174.796,140.523 C178.022,127.62 180.038,114.717 180.441,101.411 z M189.312,61.09 C189.715,69.154 190.118,77.218 189.715,85.283 C189.312,96.169 188.505,107.056 187.296,117.943 C186.489,127.217 184.473,136.491 182.054,145.361 C178.828,155.845 175.602,158.667 171.57,161.893 C165.119,166.329 158.264,168.748 150.603,169.957 C116.733,173.586 82.863,173.586 48.994,169.957 C41.333,168.748 34.478,166.329 28.026,161.893 C24.398,159.071 21.172,155.845 17.543,145.361 C15.124,136.088 13.108,127.217 12.301,117.943 C10.688,107.056 9.882,96.169 9.882,85.283 C9.882,77.218 9.882,69.154 10.688,61.09 C13.108,37.3 29.236,32.059 43.349,29.639 C52.622,28.026 61.896,27.22 71.573,27.22 C78.428,26.817 95.363,26.414 100.202,26.414 C105.04,26.414 121.572,26.817 128.83,27.22 C138.104,27.623 147.378,28.43 156.651,29.639 C170.764,32.059 186.892,36.897 189.312,61.09 z" fill="#000000"/>
  </g>
</svg>
