<?xml version="1.0" encoding="UTF-8"?>
<!DOCTYPE svg PUBLIC "-//W3C//DTD SVG 1.1//EN" "http://www.w3.org/Graphics/SVG/1.1/DTD/svg11.dtd">
<svg version="1.1" xmlns="http://www.w3.org/2000/svg" xmlns:xlink="http://www.w3.org/1999/xlink" x="0" y="0" width="200" height="200" viewBox="0, 0, 200, 200">
  <g id="Layer_1">
    <path d="M189.312,93.674 C188.905,91.657 188.28,89.671 187.482,87.763 C186.7,85.902 185.715,84.103 184.589,82.414 C183.463,80.741 182.165,79.177 180.742,77.754 C179.319,76.331 177.755,75.033 176.082,73.907 C174.393,72.765 172.61,71.796 170.733,71.014 C168.841,70.216 166.855,69.591 164.822,69.184 C162.742,68.762 160.615,68.543 158.488,68.543 C158.488,68.543 158.488,68.543 158.488,68.543 C156.361,68.543 154.219,68.762 152.155,69.184 C150.137,69.591 148.151,70.216 146.243,71.014 C144.382,71.796 142.584,72.781 140.895,73.907 C140.254,74.329 139.644,74.798 139.034,75.268 C138.424,74.798 137.814,74.345 137.173,73.907 C135.484,72.765 133.701,71.796 131.825,71.014 C129.932,70.216 127.946,69.591 125.913,69.184 C123.849,68.762 121.706,68.543 119.579,68.543 C119.579,68.543 119.579,68.543 119.579,68.543 C117.453,68.543 115.31,68.762 113.246,69.184 C111.229,69.591 109.242,70.216 107.334,71.014 C105.474,71.796 103.675,72.781 101.986,73.907 C101.314,74.361 100.657,74.845 100.016,75.346 C99.374,74.845 98.718,74.361 98.061,73.907 C96.372,72.765 94.589,71.796 92.712,71.014 C90.82,70.216 88.834,69.591 86.801,69.184 C84.737,68.762 82.594,68.543 80.467,68.543 C80.467,68.543 80.467,68.543 80.467,68.543 C78.341,68.543 76.198,68.762 74.134,69.184 C72.116,69.591 70.13,70.216 68.222,71.014 C66.361,71.796 64.563,72.781 62.874,73.907 C62.202,74.361 61.56,74.83 60.935,75.33 C60.309,74.83 59.652,74.361 58.996,73.907 C57.307,72.765 55.524,71.796 53.647,71.014 C51.755,70.216 49.769,69.591 47.736,69.184 C45.672,68.762 43.529,68.543 41.402,68.543 C41.402,68.543 41.402,68.543 41.402,68.543 C39.275,68.543 37.133,68.762 35.069,69.184 C33.051,69.591 31.065,70.216 29.157,71.014 C27.296,71.796 25.498,72.781 23.809,73.907 C22.136,75.033 20.572,76.331 19.149,77.754 C17.725,79.177 16.427,80.741 15.301,82.414 C14.222,84.103 13.253,85.902 12.471,87.763 C11.673,89.655 11.048,91.641 10.641,93.674 C10.219,95.738 10,97.881 10,100.008 L10,100.008 C10,102.135 10.219,104.277 10.641,106.341 C11.048,108.359 11.673,110.345 12.471,112.237 C13.253,114.098 14.238,115.897 15.364,117.586 C16.49,119.243 17.788,120.823 19.211,122.246 C20.634,123.669 22.198,124.967 23.871,126.093 C25.56,127.235 27.343,128.204 29.22,128.986 C31.112,129.784 33.098,130.409 35.131,130.816 C37.195,131.238 39.338,131.457 41.465,131.457 L41.465,131.457 C41.465,131.457 41.465,131.457 41.465,131.457 C43.592,131.457 45.734,131.238 47.798,130.816 C49.816,130.409 51.802,129.784 53.71,128.986 C55.571,128.204 57.369,127.219 59.058,126.093 C59.715,125.639 60.372,125.17 60.997,124.67 C61.623,125.17 62.28,125.639 62.937,126.093 C64.626,127.235 66.408,128.204 68.285,128.986 C70.177,129.784 72.163,130.409 74.181,130.816 C76.245,131.238 78.387,131.457 80.514,131.457 C80.514,131.457 80.514,131.457 80.514,131.457 C82.641,131.457 84.784,131.238 86.848,130.816 C88.865,130.409 90.851,129.784 92.759,128.986 C94.62,128.204 96.419,127.219 98.108,126.093 C98.78,125.639 99.437,125.155 100.078,124.654 C100.719,125.155 101.376,125.639 102.049,126.093 C103.738,127.235 105.52,128.204 107.397,128.986 C109.289,129.784 111.275,130.409 113.308,130.816 C115.373,131.238 117.515,131.457 119.642,131.457 C119.642,131.457 119.642,131.457 119.642,131.457 C121.769,131.457 123.911,131.238 125.976,130.816 C127.993,130.409 129.979,129.784 131.887,128.986 C133.748,128.204 135.546,127.219 137.235,126.093 C137.877,125.671 138.487,125.202 139.096,124.732 C139.706,125.202 140.316,125.655 140.957,126.093 C142.646,127.235 144.429,128.204 146.306,128.986 C148.198,129.784 150.184,130.409 152.202,130.816 C154.266,131.238 156.408,131.457 158.535,131.457 C158.535,131.457 158.535,131.457 158.535,131.457 C160.662,131.457 162.805,131.238 164.869,130.816 C166.886,130.409 168.872,129.784 170.78,128.986 C172.641,128.204 174.44,127.219 176.129,126.093 C177.802,124.967 179.366,123.669 180.789,122.246 C182.212,120.823 183.51,119.259 184.636,117.586 C185.778,115.897 186.747,114.114 187.529,112.237 C188.327,110.345 188.952,108.359 189.359,106.326 C189.781,104.246 190,102.119 190,99.992 C189.953,97.881 189.734,95.738 189.312,93.674 z M27.734,79.678 C29.048,78.786 30.44,78.036 31.894,77.41 C33.38,76.785 34.928,76.3 36.492,75.987 C38.103,75.659 39.776,75.487 41.434,75.487 L41.434,75.487 C43.091,75.487 44.765,75.659 46.375,75.987 C47.955,76.315 49.503,76.785 50.973,77.41 C52.427,78.02 53.835,78.786 55.133,79.678 C55.414,79.865 55.696,80.069 55.977,80.272 C55.414,80.96 54.883,81.679 54.398,82.414 C53.256,84.103 52.287,85.886 51.505,87.763 C50.707,89.655 50.082,91.641 49.675,93.674 C49.253,95.738 49.034,97.881 49.034,100.008 L49.034,100.008 C49.034,102.135 49.253,104.277 49.675,106.341 C50.082,108.359 50.707,110.345 51.505,112.237 C52.287,114.098 53.272,115.897 54.398,117.586 C54.898,118.321 55.43,119.04 55.993,119.728 C55.712,119.931 55.43,120.135 55.133,120.338 C53.819,121.229 52.427,121.98 50.973,122.606 C49.487,123.231 47.939,123.716 46.375,124.029 C44.765,124.357 43.091,124.529 41.434,124.529 L41.434,124.529 C39.776,124.529 38.103,124.357 36.492,124.029 C34.912,123.7 33.364,123.231 31.894,122.606 C30.44,121.996 29.048,121.229 27.734,120.338 C26.436,119.462 25.216,118.446 24.106,117.351 C22.996,116.241 21.995,115.021 21.119,113.723 C20.228,112.409 19.477,111.017 18.851,109.563 C18.226,108.077 17.741,106.529 17.428,104.965 C17.1,103.354 16.928,101.681 16.928,100.023 L16.928,100.023 C16.928,98.366 17.1,96.692 17.428,95.082 C17.757,93.502 18.226,91.954 18.851,90.484 C19.461,89.03 20.228,87.622 21.119,86.324 C21.995,85.026 23.011,83.806 24.106,82.696 C25.216,81.57 26.436,80.553 27.734,79.678 z M60.169,113.723 C59.277,112.409 58.527,111.017 57.901,109.563 C57.275,108.077 56.791,106.529 56.478,104.965 C56.149,103.354 55.977,101.681 55.977,100.023 L55.977,100.023 C55.977,98.366 56.149,96.692 56.478,95.082 C56.806,93.502 57.275,91.954 57.901,90.484 C58.511,89.03 59.277,87.622 60.169,86.324 C60.419,85.949 60.7,85.573 60.982,85.198 C61.263,85.573 61.529,85.949 61.795,86.324 C62.686,87.638 63.437,89.03 64.063,90.484 C64.688,91.97 65.173,93.518 65.486,95.082 C65.814,96.692 65.986,98.366 65.986,100.023 C65.986,101.681 65.814,103.354 65.486,104.965 C65.157,106.545 64.688,108.093 64.063,109.563 C63.453,111.017 62.686,112.425 61.795,113.723 C61.545,114.098 61.263,114.474 60.982,114.849 C60.7,114.489 60.419,114.114 60.169,113.723 z M67.534,117.601 C68.676,115.912 69.646,114.129 70.427,112.253 C71.225,110.361 71.851,108.374 72.257,106.341 C72.679,104.277 72.898,102.135 72.898,100.008 C72.898,97.881 72.679,95.738 72.257,93.674 C71.851,91.657 71.225,89.671 70.427,87.763 C69.646,85.902 68.66,84.103 67.534,82.414 C67.034,81.679 66.502,80.96 65.939,80.272 C66.221,80.069 66.502,79.865 66.784,79.678 C68.097,78.786 69.489,78.036 70.944,77.41 C72.429,76.785 73.977,76.3 75.541,75.987 C77.152,75.659 78.825,75.487 80.483,75.487 L80.483,75.487 C82.141,75.487 83.814,75.659 85.425,75.987 C87.004,76.315 88.553,76.785 90.023,77.41 C91.477,78.02 92.884,78.786 94.182,79.678 C94.48,79.881 94.777,80.084 95.058,80.303 C94.511,80.991 93.979,81.695 93.494,82.414 C92.353,84.103 91.383,85.886 90.601,87.763 C89.804,89.655 89.178,91.641 88.772,93.674 C88.349,95.738 88.13,97.881 88.13,100.008 L88.13,100.008 C88.13,102.135 88.349,104.277 88.772,106.341 C89.178,108.359 89.804,110.345 90.601,112.237 C91.383,114.098 92.368,115.897 93.494,117.586 C93.995,118.321 94.511,119.024 95.074,119.712 C94.777,119.931 94.495,120.135 94.182,120.338 C92.869,121.229 91.477,121.98 90.023,122.606 C88.537,123.231 86.989,123.716 85.425,124.029 C83.814,124.357 82.141,124.529 80.483,124.529 L80.483,124.529 C78.825,124.529 77.152,124.357 75.541,124.029 C73.962,123.7 72.414,123.231 70.944,122.606 C69.489,121.996 68.097,121.229 66.784,120.338 C66.502,120.15 66.205,119.947 65.939,119.728 C66.502,119.056 67.034,118.336 67.534,117.601 z M99.265,113.723 C98.374,112.409 97.623,111.017 96.997,109.563 C96.372,108.077 95.887,106.529 95.574,104.965 C95.246,103.354 95.074,101.681 95.074,100.023 L95.074,100.023 C95.074,98.366 95.246,96.692 95.574,95.082 C95.903,93.502 96.372,91.954 96.997,90.484 C97.607,89.03 98.374,87.622 99.265,86.324 C99.515,85.949 99.781,85.589 100.047,85.229 C100.313,85.589 100.579,85.949 100.829,86.324 C101.72,87.638 102.471,89.03 103.096,90.484 C103.722,91.97 104.207,93.518 104.52,95.082 C104.848,96.692 105.02,98.366 105.02,100.023 C105.02,101.681 104.848,103.354 104.52,104.965 C104.191,106.545 103.722,108.093 103.096,109.563 C102.487,111.017 101.72,112.425 100.829,113.723 C100.579,114.098 100.313,114.458 100.047,114.818 C99.781,114.458 99.515,114.098 99.265,113.723 z M106.584,117.601 C107.725,115.912 108.695,114.129 109.477,112.253 C110.275,110.361 110.9,108.374 111.307,106.341 C111.729,104.277 111.948,102.135 111.948,100.008 C111.948,97.881 111.729,95.738 111.307,93.674 C110.9,91.657 110.275,89.671 109.477,87.763 C108.695,85.902 107.71,84.103 106.584,82.414 C106.099,81.679 105.567,80.976 105.02,80.288 C105.301,80.069 105.599,79.865 105.896,79.662 C107.209,78.771 108.601,78.02 110.056,77.394 C111.541,76.769 113.089,76.284 114.653,75.971 C116.264,75.643 117.937,75.471 119.595,75.471 L119.595,75.471 C121.253,75.471 122.926,75.643 124.537,75.971 C126.116,76.3 127.665,76.769 129.135,77.394 C130.589,78.004 131.997,78.771 133.295,79.662 C133.545,79.834 133.795,80.006 134.03,80.178 C133.451,80.897 132.904,81.632 132.387,82.399 C131.246,84.088 130.276,85.871 129.494,87.747 C128.697,89.639 128.071,91.626 127.665,93.659 C127.242,95.723 127.023,97.865 127.023,99.992 L127.023,99.992 C127.023,102.119 127.242,104.262 127.665,106.326 C128.071,108.343 128.697,110.329 129.494,112.222 C130.276,114.083 131.262,115.881 132.387,117.57 C132.904,118.336 133.451,119.071 134.045,119.791 C133.795,119.978 133.545,120.15 133.295,120.322 C131.981,121.214 130.589,121.964 129.135,122.59 C127.649,123.215 126.101,123.7 124.537,124.013 C122.926,124.341 121.253,124.513 119.595,124.513 L119.595,124.513 C117.937,124.513 116.264,124.341 114.653,124.013 C113.074,123.685 111.526,123.215 110.056,122.59 C108.601,121.98 107.209,121.214 105.896,120.322 C105.599,120.119 105.301,119.916 105.02,119.697 C105.567,119.04 106.083,118.321 106.584,117.601 z M138.158,113.723 C137.267,112.409 136.516,111.017 135.891,109.563 C135.265,108.077 134.78,106.529 134.467,104.965 C134.139,103.354 133.967,101.681 133.967,100.023 L133.967,100.023 C133.967,98.366 134.139,96.692 134.467,95.082 C134.796,93.502 135.265,91.954 135.891,90.484 C136.5,89.03 137.267,87.622 138.158,86.324 C138.44,85.902 138.737,85.495 139.05,85.089 C139.362,85.495 139.659,85.902 139.941,86.324 C140.832,87.638 141.583,89.03 142.209,90.484 C142.834,91.97 143.319,93.518 143.632,95.082 C143.96,96.692 144.132,98.366 144.132,100.023 C144.132,101.681 143.96,103.354 143.632,104.965 C143.303,106.545 142.834,108.093 142.209,109.563 C141.599,111.017 140.832,112.425 139.941,113.723 C139.659,114.145 139.362,114.552 139.05,114.958 C138.737,114.552 138.44,114.145 138.158,113.723 z M145.68,117.601 C146.822,115.912 147.791,114.129 148.573,112.253 C149.371,110.361 149.997,108.374 150.403,106.341 C150.825,104.277 151.044,102.135 151.044,100.008 C151.044,97.881 150.825,95.738 150.403,93.674 C149.997,91.657 149.371,89.671 148.573,87.763 C147.791,85.902 146.806,84.103 145.68,82.414 C145.164,81.648 144.617,80.913 144.038,80.194 C144.288,80.022 144.539,79.834 144.789,79.662 C146.103,78.771 147.494,78.02 148.949,77.394 C150.434,76.769 151.983,76.284 153.546,75.971 C155.157,75.643 156.831,75.471 158.488,75.471 L158.488,75.471 C160.146,75.471 161.819,75.643 163.43,75.971 C165.01,76.3 166.558,76.769 168.028,77.394 C169.482,78.004 170.89,78.771 172.188,79.662 C173.486,80.538 174.705,81.554 175.816,82.665 C176.926,83.775 177.927,84.995 178.803,86.293 C179.694,87.606 180.445,88.998 181.07,90.453 C181.696,91.938 182.181,93.487 182.493,95.05 C182.822,96.661 182.994,98.334 182.994,99.992 C182.994,101.65 182.822,103.323 182.493,104.934 C182.165,106.513 181.696,108.062 181.07,109.532 C180.46,110.986 179.694,112.394 178.803,113.692 C177.927,114.99 176.911,116.209 175.816,117.32 C174.721,118.43 173.486,119.431 172.188,120.307 C170.874,121.198 169.482,121.949 168.028,122.574 C166.542,123.2 164.994,123.685 163.43,123.997 C161.819,124.326 160.146,124.498 158.488,124.498 L158.488,124.498 C156.831,124.498 155.157,124.326 153.546,123.997 C151.967,123.669 150.419,123.2 148.949,122.574 C147.494,121.964 146.103,121.198 144.789,120.307 C144.539,120.135 144.288,119.963 144.038,119.775 C144.617,119.103 145.164,118.368 145.68,117.601 z" fill="#000000"/>
  </g>
</svg>
