<?xml version="1.0" encoding="UTF-8"?>
<!DOCTYPE svg PUBLIC "-//W3C//DTD SVG 1.1//EN" "http://www.w3.org/Graphics/SVG/1.1/DTD/svg11.dtd">
<svg version="1.1" xmlns="http://www.w3.org/2000/svg" xmlns:xlink="http://www.w3.org/1999/xlink" x="0" y="0" width="200" height="200" viewBox="0, 0, 200, 200">
  <g id="Layer_1">
    <path d="M100.13,15.34 C68.871,15.601 10,21.592 10,100.26 C10,178.929 70.174,184.399 99.87,185.441 C129.826,184.66 190,179.45 190,100.26 C190,21.071 131.389,15.601 100.13,15.34 M95.962,21.592 C98.307,21.592 101.954,21.592 104.298,21.592 L104.298,82.808 L95.962,82.808 L95.962,21.592 z M20.159,100.26 C20.159,38.003 61.056,21.592 93.618,21.592 L66.787,97.916 L55.065,169.551 C51.939,169.03 19.899,153.661 20.159,100.26 M100.391,179.971 C85.803,179.711 64.443,175.022 59.233,171.635 L94.92,93.488 L105.34,93.488 L140.767,172.156 C135.557,175.543 114.718,179.971 100.391,179.971 M144.935,170.072 L134.255,97.916 L106.643,21.592 C139.204,21.592 180.101,38.263 180.101,100.26 C180.362,153.661 148.061,169.551 144.935,170.072" fill="#000000"/>
  </g>
</svg>
