<?xml version="1.0" encoding="UTF-8"?>
<!DOCTYPE svg PUBLIC "-//W3C//DTD SVG 1.1//EN" "http://www.w3.org/Graphics/SVG/1.1/DTD/svg11.dtd">
<svg version="1.1" xmlns="http://www.w3.org/2000/svg" xmlns:xlink="http://www.w3.org/1999/xlink" x="0" y="0" width="200" height="200" viewBox="0, 0, 200, 200">
  <g id="Layer_1">
    <path d="M123.428,146.204 C126.639,145.803 148.963,143.094 164.716,135.217 C181.773,126.689 190,112.893 190,100.652 C190,74.214 152.977,53.796 99.95,53.796 C46.923,53.796 10,74.064 10,100.652 C10,113.043 18.127,126.99 35.284,135.217 C51.137,142.843 73.612,145.652 76.973,146.204 L99.95,78.98 L123.428,146.204 L123.428,146.204 z M99.95,68.495 C99.95,68.495 64.983,115.1 61.622,119.314 C48.729,118.161 26.405,109.632 26.405,95.033 C26.405,76.472 58.913,59.164 99.95,59.164 C143.043,59.164 173.495,76.472 173.495,95.033 C173.495,109.732 151.171,118.11 138.278,119.164 C134.766,114.699 99.95,68.495 99.95,68.495" fill="#000000"/>
  </g>
</svg>
