<?xml version="1.0" encoding="UTF-8"?>
<!DOCTYPE svg PUBLIC "-//W3C//DTD SVG 1.1//EN" "http://www.w3.org/Graphics/SVG/1.1/DTD/svg11.dtd">
<svg version="1.1" xmlns="http://www.w3.org/2000/svg" xmlns:xlink="http://www.w3.org/1999/xlink" x="0" y="0" width="200" height="200" viewBox="0, 0, 200, 200">
  <g id="Layer_1">
    <path d="M99.93,66.215 C50.023,66.215 9.93,81.215 9.93,100 C9.93,118.645 50.304,133.785 99.93,133.785 C149.556,133.785 189.93,118.645 189.93,100 C190.07,81.495 149.556,66.215 99.93,66.215 z M99.93,130.841 C52.266,130.841 13.715,117.103 13.715,100 C13.715,83.037 52.407,69.159 99.93,69.159 C147.593,69.159 186.145,82.897 186.145,100 C186.285,117.103 147.593,130.841 99.93,130.841 z M135.397,106.869 C135.397,107.009 135.397,107.15 135.397,107.15 C135.397,107.29 135.678,107.43 135.818,107.57 C135.818,107.57 135.958,107.71 135.818,107.85 C135.257,109.112 134.696,109.813 133.995,110.794 C133.294,111.776 132.593,112.477 131.752,113.178 C130.491,114.299 128.528,115.421 126.986,114.72 C126.285,114.299 126.005,113.458 126.005,112.617 C126.005,110.514 126.986,108.271 128.808,106.028 C130.911,103.364 133.435,101.963 134.977,102.804 C136.659,103.505 136.238,105.467 135.397,106.869 z M90.818,92.85 C90.678,92.009 90.958,91.028 91.799,90.327 C92.22,89.907 92.78,89.907 93.201,90.187 C93.622,90.467 93.341,91.308 93.061,92.009 C92.64,92.71 91.939,93.271 91.238,93.271 C90.958,93.131 90.818,93.131 90.818,92.85 z M99.93,71.822 C53.949,71.822 16.659,84.579 16.659,100.14 C16.659,115.561 53.949,128.318 99.93,128.318 C145.911,128.318 183.201,115.561 183.201,100 C183.201,84.439 145.911,71.822 99.93,71.822 z M57.173,118.645 C52.266,118.645 47.921,115.701 47.36,110.374 C47.08,107.43 47.921,104.907 49.603,102.664 C51.005,100.701 53.528,99.159 55.631,98.738 C56.332,98.598 57.173,98.738 57.594,99.159 C58.154,99.86 58.014,100.561 57.453,100.981 C55.911,101.822 53.949,103.224 52.967,105.047 C52.126,106.589 51.986,108.551 53.248,110.234 C55.21,113.178 60.678,113.318 65.865,108.551 C67.126,107.43 68.248,106.308 69.369,104.907 C71.612,102.383 72.313,101.402 75.397,97.196 C75.397,97.196 75.397,97.056 75.397,97.056 C75.397,97.056 75.397,97.056 75.257,96.916 C73.294,96.916 71.472,97.617 69.79,98.879 C69.369,99.299 68.668,99.159 68.248,98.738 C67.967,98.178 68.108,97.477 68.668,97.196 C71.332,95.234 74.416,94.953 77.36,94.393 C77.36,94.393 77.64,94.393 77.78,94.112 C79.042,92.57 80.023,91.028 81.285,89.486 C82.687,87.804 84.369,86.402 85.631,85.14 C87.453,83.598 88.715,83.037 89.836,82.336 C90.117,82.196 89.836,81.916 89.696,81.916 C82.967,80.654 75.958,78.972 69.369,81.495 C64.743,83.178 62.78,86.822 63.762,89.346 C64.463,91.028 66.706,91.308 68.949,90.327 C70.771,89.486 72.313,88.084 73.575,86.262 C74.276,85.28 75.537,85.981 74.836,87.664 C72.874,92.29 69.089,95.935 64.603,96.075 C60.678,96.215 58.294,93.411 58.294,89.907 C58.294,83.037 66.005,78.411 74.136,77.71 C83.949,76.869 93.201,79.533 102.874,80.654 C110.304,81.495 117.453,81.636 124.883,79.813 C125.724,79.673 126.425,80.234 126.285,81.075 C126.145,82.336 125.163,83.598 122.78,85 C119.977,86.542 117.033,86.963 113.949,86.963 C106.519,86.963 99.65,84.159 92.5,82.617 C92.5,82.897 92.64,83.318 92.36,83.458 C88.435,86.402 84.79,89.346 82.407,93.411 C82.266,93.551 82.407,93.551 82.547,93.551 C84.65,93.411 86.472,93.411 88.435,93.271 C88.715,93.271 88.715,93.131 88.715,92.85 C88.575,91.449 88.995,89.766 90.257,88.645 C91.519,87.523 93.201,87.383 94.182,88.224 C95.444,89.206 95.304,90.888 94.603,92.15 C93.902,93.411 92.78,94.112 91.799,94.533 C91.799,94.533 91.519,94.533 91.659,94.813 C91.659,95.093 93.201,95.935 93.341,96.215 C93.481,96.355 93.341,96.776 93.201,96.916 C93.061,97.056 92.78,97.196 92.5,97.196 C92.22,97.196 92.079,97.056 91.799,96.916 C91.098,96.495 90.257,95.935 89.836,95.234 C89.696,94.953 89.556,94.953 89.136,94.953 C87.033,95.093 83.808,95.374 81.565,95.654 C81.005,95.654 81.005,95.794 80.865,96.075 C77.36,101.822 73.575,108.131 69.369,112.336 C64.883,117.383 61.098,118.645 57.173,118.645 z M152.92,90.327 C152.22,91.449 139.042,111.635 138.201,113.598 C137.92,114.299 137.92,114.72 138.201,115.14 C138.902,116.121 140.444,115.561 141.425,114.86 C144.229,112.897 146.191,110.514 148.434,108.411 C148.575,108.271 148.715,108.271 148.855,108.411 C149.135,108.692 149.696,109.112 149.977,109.393 C150.117,109.533 150.117,109.673 149.977,109.813 C147.874,112.477 145.491,114.86 143.248,116.682 C139.743,119.346 136.238,120.047 134.416,118.364 C133.715,117.664 133.435,116.822 133.435,115.981 C133.435,115.561 133.154,115.561 133.014,115.701 C130.911,117.804 127.266,120.047 124.042,118.364 C121.238,116.963 120.678,113.738 121.238,110.935 C121.238,110.935 121.238,110.514 120.818,110.654 C120.257,111.075 119.556,111.495 118.575,111.916 C117.453,112.336 116.892,112.477 115.771,112.477 C114.369,112.477 113.248,111.916 112.407,110.514 C111.986,109.813 111.706,108.692 111.706,107.85 C111.706,107.71 111.565,107.57 111.425,107.85 C109.182,111.215 107.079,114.579 104.836,118.084 C104.696,118.224 104.556,118.364 104.416,118.364 C103.014,118.364 101.472,118.364 100.07,118.364 C99.79,118.364 99.65,118.224 99.79,117.944 C100.631,116.402 104.836,110.234 107.78,104.907 C108.621,103.505 108.481,102.664 107.921,102.383 C107.36,101.963 106.098,102.523 104.977,103.364 C102.173,105.467 99.79,108.832 98.528,110.374 C97.827,111.215 97.126,112.617 95.304,114.579 C92.36,117.804 88.435,119.626 84.79,118.364 C82.687,117.664 81.285,115.981 80.724,114.019 C80.584,113.598 80.444,113.458 80.164,113.738 C79.603,114.439 78.341,115.561 77.22,116.262 C77.079,116.402 76.799,116.542 76.519,116.402 C76.238,116.262 75.537,115.28 75.397,114.86 C75.257,114.579 75.397,114.439 75.537,114.299 C77.079,113.037 77.78,112.196 78.481,111.495 C78.902,110.935 79.322,110.234 79.743,109.112 C80.584,106.869 82.687,102.664 86.752,100.421 C88.294,99.579 89.836,99.019 91.659,98.738 C92.36,98.598 93.061,98.738 93.201,99.299 C93.341,99.579 93.481,100.14 93.622,100.421 C93.762,100.701 93.622,100.841 93.341,100.981 C90.958,101.963 88.575,103.364 86.893,105.607 C84.93,108.131 84.509,111.215 85.771,112.897 C86.752,114.159 88.154,114.439 89.696,113.878 C91.939,113.178 93.762,111.215 94.743,108.832 C95.724,106.308 96.005,103.505 95.164,100.841 C95.023,100.421 95.164,100 95.444,99.86 C96.005,99.439 96.846,99.019 96.986,98.879 C97.547,98.598 98.107,98.738 98.388,99.159 C99.229,100.28 99.65,101.963 99.65,103.785 C99.65,104.206 99.79,104.206 100.07,103.925 C101.472,102.383 102.874,100.841 104.276,99.579 C105.678,98.458 107.5,97.617 109.042,97.617 C111.145,97.617 112.266,99.159 112.126,101.682 C112.126,101.963 112.407,101.963 112.547,101.822 C113.248,100.841 113.668,100.421 114.369,99.86 C115.911,98.598 117.313,98.037 118.995,98.178 C120.958,98.318 122.5,100.14 122.22,102.103 C122.079,103.364 121.238,104.626 120.117,105.187 C119.135,105.748 117.874,105.607 117.033,104.907 C116.332,104.346 116.192,103.364 116.332,102.523 C116.332,102.383 116.192,102.103 115.911,102.383 C113.949,104.346 113.808,106.869 115.07,108.131 C116.472,109.393 118.435,108.551 119.977,107.57 C122.78,105.748 124.883,103.364 127.266,101.402 C128.949,100.14 130.771,99.019 132.874,98.738 C133.995,98.598 135.117,98.598 136.238,99.159 C137.78,99.72 138.621,100.981 138.762,102.103 C138.762,102.383 139.042,102.523 139.182,102.243 C140.304,100.421 146.752,90.888 147.313,89.907 C147.453,89.626 147.593,89.486 148.014,89.486 C149.416,89.486 151.238,89.486 152.5,89.486 C152.92,90.047 152.92,90.187 152.92,90.327 z" fill="#000000"/>
  </g>
</svg>
