<?xml version="1.0" encoding="UTF-8"?>
<!DOCTYPE svg PUBLIC "-//W3C//DTD SVG 1.1//EN" "http://www.w3.org/Graphics/SVG/1.1/DTD/svg11.dtd">
<svg version="1.1" xmlns="http://www.w3.org/2000/svg" xmlns:xlink="http://www.w3.org/1999/xlink" x="0" y="0" width="200" height="200" viewBox="0, 0, 200, 200">
  <g id="Layer_1">
    <path d="M10,91.81 C10,85.834 13.715,81.802 20.742,81.802 L66.347,81.802 L66.347,90.276 L22.11,90.276 C20.872,90.276 19.77,90.91 19.77,92.782 L19.77,106.908 C19.77,108.622 20.49,109.731 22.751,109.731 L53.906,109.731 C55.547,109.731 56.814,109.148 56.814,106.988 L56.814,103.683 L38.577,103.683 L38.577,95.612 L66.347,95.612 L66.347,108.593 C66.347,114.807 61.826,118.205 54.726,118.205 L20.814,118.205 C13.953,118.205 10,114.49 10,108.269 L10,91.81 M107.027,118.205 L122.608,90.593 L122.608,118.205 L132.371,118.205 L132.371,81.802 L117.352,81.802 L102.498,107.945 L87.645,81.795 L72.633,81.795 L72.633,118.198 L82.396,118.198 L82.396,90.593 L97.977,118.205 L107.027,118.205 M190,118.205 L149.162,118.205 C142.286,118.205 138.347,114.49 138.347,108.276 L138.347,91.81 C138.347,85.834 142.048,81.802 149.075,81.802 L190,81.802 L190,90.953 L150.45,90.953 C149.212,90.953 148.103,91.58 148.103,93.452 L148.103,106.232 C148.103,107.952 148.83,109.054 151.091,109.054 L190,109.054 L190,118.205" fill="#000000"/>
  </g>
</svg>
