<?xml version="1.0" encoding="UTF-8"?>
<!DOCTYPE svg PUBLIC "-//W3C//DTD SVG 1.1//EN" "http://www.w3.org/Graphics/SVG/1.1/DTD/svg11.dtd">
<svg version="1.1" xmlns="http://www.w3.org/2000/svg" xmlns:xlink="http://www.w3.org/1999/xlink" x="0" y="0" width="200" height="200" viewBox="0, 0, 200, 200">
  <g id="Layer_1">
    <path d="M100,42.377 C50.439,42.377 10,68.253 10,100 C10,131.747 50.439,157.623 100,157.623 C149.561,157.623 190,131.747 190,100 C190,68.253 149.561,42.377 100,42.377 L100,42.377 z M124.913,53.059 C132.875,54.585 140.339,56.841 147.04,59.694 C152.812,62.68 156.196,66.196 156.196,70.011 C156.196,77.707 142.396,84.375 122.691,87.295 C121.331,72.433 117.682,59.727 112.772,51.6 C117.018,51.931 121.065,52.429 124.913,53.059 L124.913,53.059 z M100,51.102 C107.464,51.102 113.734,66.926 115.492,88.19 C110.549,88.655 105.374,88.92 100,88.92 C94.626,88.92 89.418,88.655 84.508,88.19 C86.266,66.893 92.569,51.102 100,51.102 L100,51.102 z M52.96,59.694 C59.661,56.841 67.125,54.619 75.087,53.059 C78.902,52.429 82.982,51.931 87.228,51.6 C82.318,59.727 78.669,72.466 77.309,87.295 C57.604,84.342 43.804,77.707 43.804,70.011 C43.804,66.196 47.188,62.647 52.96,59.694 L52.96,59.694 z M17.995,100 C17.995,88.422 24.696,77.774 35.875,69.348 C35.842,69.746 35.809,70.144 35.809,70.542 C35.809,81.854 52.86,91.574 76.812,95.455 C76.745,97.081 76.745,98.706 76.745,100.365 C76.745,120.402 80.792,138.116 86.963,148.633 C47.951,144.884 17.995,124.482 17.995,100 L17.995,100 z M101.99,149.263 C101.327,149.263 100.663,149.263 100,149.263 C99.337,149.263 98.673,149.263 98.01,149.263 C90.114,146.244 83.977,125.444 83.977,100.365 C83.977,99.038 84.01,97.744 84.043,96.45 C89.152,96.981 94.493,97.28 100,97.28 C105.507,97.28 110.848,96.981 115.957,96.45 C115.99,97.744 116.023,99.071 116.023,100.365 C115.99,125.444 109.853,146.244 101.99,149.263 L101.99,149.263 z M113.037,148.666 C119.208,138.15 123.255,120.435 123.255,100.398 C123.255,98.739 123.222,97.114 123.188,95.488 C147.14,91.607 164.191,81.887 164.191,70.575 C164.191,70.177 164.158,69.779 164.125,69.381 C175.304,77.807 182.005,88.456 182.005,100.033 C182.005,124.482 152.049,144.884 113.037,148.666 L113.037,148.666 z" fill="#000000"/>
  </g>
</svg>
