<?xml version="1.0" encoding="UTF-8"?>
<!DOCTYPE svg PUBLIC "-//W3C//DTD SVG 1.1//EN" "http://www.w3.org/Graphics/SVG/1.1/DTD/svg11.dtd">
<svg version="1.1" xmlns="http://www.w3.org/2000/svg" xmlns:xlink="http://www.w3.org/1999/xlink" x="0" y="0" width="200" height="200" viewBox="0, 0, 200, 200">
  <g id="Layer_1">
    <path d="M87.363,107.911 L87.363,111.437 L119.719,111.437 L119.719,100.8 L116.044,100.8 C115.867,104.148 114.03,107.615 109.289,107.911 L103.57,107.911 L103.57,91.763 L109.081,91.763 L109.081,88.207 L87.452,88.207 L87.452,91.763 L92.785,91.763 L92.785,107.911 L87.363,107.911 L87.363,107.911 z M69.467,111.941 C60.607,111.941 53.141,107.407 53.141,100.148 C53.141,92.059 60.578,88.059 69.467,88.059 C79.393,88.059 85.733,92.593 85.733,100.148 C85.733,107.348 78.593,111.941 69.467,111.941 L69.467,111.941 z M69.467,108 C72.548,108 74.83,104.415 74.83,100.119 C74.83,95.348 72.756,91.793 69.467,91.793 C66.178,91.793 64.163,95.348 64.163,100.119 C64.163,104.948 66.178,108 69.467,108 L69.467,108 z M10,88.237 L10,91.793 L15.422,91.793 L26.119,111.407 L38.889,111.407 L49.822,91.793 L55.215,91.793 L55.215,88.237 L38.859,88.237 L38.859,91.793 L43.541,91.793 L35.659,106.015 L27.867,91.793 L33.585,91.793 L33.585,88.237 L10,88.237 L10,88.237 z M114.356,88.237 L137.97,88.237 L137.97,91.793 L132.222,91.793 L140.015,106.015 L147.956,91.793 L143.215,91.793 L143.215,88.237 L159.541,88.237 L159.541,91.793 L154.178,91.793 L143.215,111.407 L130.444,111.407 L119.748,91.793 L114.356,91.793 L114.356,88.237 L114.356,88.237 z M173.733,111.941 C182.859,111.941 190,107.348 190,100.148 C190,92.593 183.63,88.059 173.733,88.059 C164.874,88.059 157.407,92.059 157.407,100.148 C157.407,107.407 164.874,111.941 173.733,111.941 L173.733,111.941 z M173.733,108 C170.444,108 168.459,104.948 168.459,100.119 C168.459,95.348 170.474,91.793 173.733,91.793 C176.993,91.793 179.096,95.348 179.096,100.119 C179.096,104.415 176.844,108 173.733,108 L173.733,108 z" fill="#000000"/>
  </g>
</svg>
