<?xml version="1.0" encoding="UTF-8"?>
<!DOCTYPE svg PUBLIC "-//W3C//DTD SVG 1.1//EN" "http://www.w3.org/Graphics/SVG/1.1/DTD/svg11.dtd">
<svg version="1.1" xmlns="http://www.w3.org/2000/svg" xmlns:xlink="http://www.w3.org/1999/xlink" x="0" y="0" width="200" height="200" viewBox="0, 0, 200, 200">
  <g id="Layer_1">
    <path d="M135.66,79.774 C142.135,68.439 143.886,55.096 155.112,48.363 C162.592,43.87 173.058,44.616 177.551,52.856 C178.311,55.096 179.804,56.602 179.804,58.096 C182.044,64.829 186.524,72.308 183.551,79.788 C182.791,81.281 179.058,81.281 178.311,82.774 C176.071,94 171.578,103.719 167.845,114.185 C166.352,117.932 162.605,120.918 159.619,123.158 C157.379,124.651 153.633,124.651 154.379,121.665 C154.379,115.679 154.379,109.692 156.619,103.719 C158.859,99.226 158.112,94 156.619,89.507 C155.873,86.521 155.126,82.027 152.126,79.788 C151.366,79.788 149.886,79.041 149.14,80.534 C148.393,85.027 151.379,88.76 149.886,93.253 C147.646,98.493 141.66,99.24 138.66,103.719 C133.42,110.452 135.674,119.425 131.927,127.651 C128.941,134.384 123.701,140.37 119.954,147.103 C116.968,151.597 119.954,157.569 116.208,161.316 C113.222,165.062 108.728,168.049 104.235,165.809 C101.249,164.316 99.742,160.569 101.995,157.583 C104.235,153.836 110.968,155.343 111.715,149.357 C111.715,142.624 110.222,135.891 111.715,129.905 C113.208,126.918 115.448,124.665 116.955,121.678 C119.194,120.185 122.941,119.439 122.194,116.439 C122.194,114.945 119.208,117.185 117.701,116.439 C116.955,115.692 116.955,114.945 116.955,114.199 C120.688,107.466 132.66,103.733 127.42,94.747 L125.181,94.747 C124.434,94.747 124.434,94 124.434,93.253 C130.407,91 132.66,85.014 135.66,79.774 L135.66,79.774 z M168.565,123.158 C174.252,111.783 178.284,99.973 182.777,88 C182.777,87.254 186.524,85.014 188.017,87.254 C188.763,88.747 188.763,89.493 189.51,91 C190.257,95.493 190.257,100.719 188.75,105.213 C187.257,111.199 187.257,117.185 185.003,122.411 C183.51,124.651 182.017,126.905 180.51,129.891 C176.764,135.877 173.031,143.357 166.298,145.597 C162.551,147.09 157.325,150.09 153.578,145.597 C152.832,144.103 152.832,142.61 153.578,141.104 C158.832,134.384 164.832,130.638 168.565,123.158 L168.565,123.158 z M94.258,49.109 C92.168,45.281 91.285,40.096 86.018,38.643 C82.665,37.707 83.779,34.15 82.285,33.404 C80.969,32.956 79.027,33.024 77.724,32.413 C76.218,31.707 75.349,30.336 73.923,29.698 C72.403,29.006 70.625,29.372 69.267,29.101 C68.195,28.829 67.448,27.58 66.376,27.254 C61.476,25.775 56.67,24.2 52.367,26.657 C48.621,28.15 44.141,25.897 38.901,28.897 C35.915,31.883 32.168,34.137 29.929,37.123 C28.435,39.363 26.182,40.109 26.942,43.109 C53.874,32.643 68.086,64.055 86.018,79.014 C89.765,82 94.991,80.507 95.751,76.027 C97.258,67.068 98.751,57.335 94.258,49.109 L94.258,49.109 z M106.299,49.109 C108.389,45.281 109.271,40.096 114.525,38.643 C117.891,37.707 116.764,34.15 118.258,33.404 C119.588,32.956 121.516,33.024 122.819,32.413 C124.339,31.707 125.194,30.336 126.633,29.698 C128.153,29.006 129.918,29.372 131.289,29.101 C132.362,28.829 133.108,27.58 134.181,27.254 C139.067,25.775 143.886,24.2 148.176,26.657 C151.909,28.15 156.402,25.897 161.642,28.897 C164.628,31.883 168.375,34.137 170.614,37.123 C172.108,39.363 174.361,40.109 173.601,43.109 C146.683,32.657 132.47,64.068 114.525,79.027 C110.778,82.014 105.552,80.521 104.805,76.041 C103.299,67.068 101.805,57.335 106.299,49.109 L106.299,49.109 z M64.34,79.774 C57.851,68.439 56.1,55.096 44.888,48.363 C37.408,43.87 26.942,44.616 22.449,52.856 C21.702,55.096 20.209,56.602 20.209,58.096 C17.969,64.829 13.476,72.308 16.463,79.788 C17.209,81.281 20.956,81.281 21.702,82.774 C23.942,94 28.435,103.719 32.168,114.185 C33.662,117.932 37.408,120.918 40.394,123.158 C42.634,124.651 46.381,124.651 45.634,121.665 C45.634,115.679 45.634,109.692 43.394,103.719 C41.155,99.226 41.901,94 43.394,89.507 C44.141,86.521 44.888,82.027 47.888,79.788 C48.634,79.788 50.127,79.041 50.874,80.534 C51.621,85.027 48.634,88.76 50.127,93.253 C52.367,98.493 58.367,99.24 61.353,103.719 C66.593,110.452 64.34,119.425 68.086,127.651 C71.073,134.384 76.313,140.37 80.059,147.103 C83.045,151.597 80.059,157.569 83.806,161.316 C86.792,165.062 91.285,168.049 95.778,165.809 C98.765,164.316 100.271,160.569 98.018,157.583 C95.778,153.836 89.045,155.343 88.299,149.357 C88.299,142.624 89.792,135.891 88.299,129.905 C86.806,126.918 84.552,124.665 83.059,121.678 C80.819,120.185 77.073,119.439 77.819,116.439 C77.819,114.945 80.806,117.185 82.312,116.439 C83.073,115.692 83.073,114.945 83.073,114.199 C79.313,107.466 67.34,103.719 72.58,94.747 L74.819,94.747 C75.58,94.747 75.58,94 75.58,93.253 C69.593,91 67.34,85.014 64.34,79.774 L64.34,79.774 z M31.435,123.158 C25.748,111.783 21.716,99.973 17.223,88 C17.223,87.254 13.476,85.014 11.983,87.254 C11.223,88.747 11.223,89.493 10.49,91 C9.743,95.493 9.743,100.719 11.237,105.213 C12.73,111.199 12.73,117.185 14.983,122.411 C16.476,124.651 17.969,126.905 19.476,129.891 C23.223,135.877 26.956,143.357 33.675,145.597 C37.422,147.09 42.648,150.09 46.394,145.597 C47.141,144.103 47.141,142.61 46.394,141.104 C41.155,134.384 35.168,130.638 31.435,123.158 L31.435,123.158 z M108.348,170.75 C108.416,167.194 99.091,167.574 99.091,167.574 C99.091,167.574 89.833,167.194 89.833,170.75 C89.833,174.307 96.661,175.61 99.186,175.61 C99.199,175.61 108.253,175.8 108.348,170.75 z" fill="#000000"/>
  </g>
</svg>
