<?xml version="1.0" encoding="UTF-8"?>
<!DOCTYPE svg PUBLIC "-//W3C//DTD SVG 1.1//EN" "http://www.w3.org/Graphics/SVG/1.1/DTD/svg11.dtd">
<svg version="1.1" xmlns="http://www.w3.org/2000/svg" xmlns:xlink="http://www.w3.org/1999/xlink" x="0" y="0" width="200" height="200" viewBox="0, 0, 200, 200">
  <g id="Layer_1">
    <path d="M12.551,82.623 C15.074,82.742 17.448,82.831 19.822,82.949 C21.158,83.009 22.523,83.068 23.859,83.128 C25.936,83.217 28.014,83.335 30.091,83.424 C31.427,83.484 32.733,83.543 34.068,83.602 C35.612,83.662 37.155,83.751 38.668,83.81 C39.796,83.869 40.894,83.899 42.022,83.959 C44.189,84.077 46.355,84.166 48.522,84.285 C49.65,84.344 50.777,84.374 51.935,84.433 C53.805,84.522 55.675,84.641 57.515,84.73 C58.731,84.79 59.948,84.849 61.135,84.908 C63.005,84.997 64.905,85.116 66.774,85.205 C67.902,85.264 69.03,85.324 70.188,85.383 C71.582,85.442 73.007,85.472 74.402,85.591 C76.954,85.769 79.329,85.175 81.673,84.315 C85.205,83.009 88.796,81.94 92.447,81.02 C94.821,80.427 97.195,79.893 99.599,79.358 C99.896,79.299 100.223,79.299 100.519,79.358 C105.743,80.427 110.907,81.792 115.982,83.454 C117.585,83.988 119.187,84.552 120.79,85.086 C121.859,85.442 122.957,85.621 124.084,85.591 C125.746,85.561 127.379,85.472 129.041,85.413 C130.287,85.353 131.534,85.324 132.78,85.264 C134.62,85.175 136.461,85.057 138.301,84.968 C139.577,84.908 140.853,84.849 142.1,84.79 C144.029,84.701 145.928,84.582 147.857,84.493 C149.252,84.433 150.617,84.374 152.012,84.315 C153.941,84.226 155.9,84.107 157.829,84.018 C159.165,83.959 160.471,83.929 161.806,83.84 C163.795,83.751 165.813,83.632 167.802,83.543 C169.196,83.484 170.562,83.424 171.957,83.365 C174.004,83.276 176.023,83.157 178.07,83.068 C179.465,83.009 180.89,82.949 182.285,82.89 C184.095,82.831 185.906,82.742 187.716,82.712 C188.102,82.712 188.517,82.771 188.903,82.86 C189.972,83.128 190.298,83.78 189.764,84.76 C189.23,85.799 188.666,86.808 188.072,87.787 C186.559,90.25 184.897,92.595 182.849,94.673 C181.573,95.949 180.118,96.988 178.456,97.73 C176.23,98.739 173.945,99.481 171.63,100.223 C164.537,102.419 157.503,104.674 150.38,106.811 C141.862,109.334 133.344,111.768 124.797,114.201 C120.79,115.359 116.754,116.516 112.717,117.585 C108.651,118.653 104.585,119.603 100.49,120.612 C100.163,120.701 99.807,120.671 99.481,120.612 C91.438,118.742 83.454,116.635 75.53,114.32 C66.893,111.797 58.197,109.364 49.561,106.811 C42.497,104.704 35.493,102.478 28.489,100.282 C26.53,99.659 24.63,98.976 22.701,98.264 C20,97.284 17.834,95.593 15.964,93.426 C13.738,90.814 11.868,87.965 10.295,84.938 C9.702,83.78 10.058,83.098 11.334,82.86 C11.839,82.682 12.284,82.653 12.551,82.623 z M74.521,99.599 C74.105,99.659 73.719,99.718 73.333,99.748 C72.265,99.807 71.226,99.837 70.158,99.866 C68.971,99.896 67.784,99.926 66.596,99.985 C65.884,100.015 65.172,100.045 64.489,100.104 C63.807,100.134 63.124,100.223 62.412,100.252 C61.403,100.282 60.364,100.282 59.355,100.341 C57.811,100.401 56.298,100.519 54.754,100.608 C53.627,100.668 52.499,100.727 51.371,100.786 C50.214,100.846 49.056,100.876 47.928,100.905 C47.602,100.905 47.275,100.905 46.949,100.905 C46.266,100.935 45.613,100.965 44.931,100.994 C44.248,101.024 43.595,101.024 42.913,101.054 C42.764,101.054 42.616,101.143 42.467,101.172 C42.467,101.232 42.467,101.261 42.467,101.321 C42.675,101.41 42.853,101.528 43.091,101.588 C43.922,101.825 44.753,102.033 45.584,102.3 C50.51,103.814 55.437,105.357 60.423,106.633 C61.848,106.989 63.272,107.346 64.756,107.286 C67.249,107.227 69.713,107.108 72.206,107.078 C74.194,107.049 76.183,107.019 78.171,107.049 C79.18,107.049 80.1,107.405 80.902,107.998 C81.139,108.177 81.287,108.384 81.258,108.77 C80.872,108.919 80.456,109.097 80.011,109.245 C78.409,109.75 76.806,110.224 75.203,110.729 C74.966,110.788 74.639,110.848 74.669,111.144 C74.699,111.471 75.025,111.501 75.292,111.56 C76.153,111.797 77.043,111.975 77.904,112.243 C81.02,113.192 84.107,114.172 87.223,115.092 C87.995,115.329 88.796,115.478 89.568,115.656 C89.805,115.715 90.013,115.715 90.221,115.448 C90.102,115.299 90.043,115.121 89.894,115.003 C89.627,114.736 89.36,114.498 89.093,114.261 C87.134,112.628 85.324,110.877 83.84,108.829 C82.089,106.425 80.456,103.903 78.765,101.469 C77.518,99.659 76.301,97.848 74.966,96.068 C74.313,95.207 73.541,94.406 72.74,93.634 C71.642,92.565 70.188,92.15 68.763,91.764 C65.617,90.933 62.412,90.458 59.177,90.013 C57.544,89.776 55.882,89.598 54.25,89.419 C52.41,89.182 50.54,88.974 48.7,88.767 C47.157,88.588 45.613,88.44 44.07,88.262 C41.696,87.995 39.292,87.728 36.917,87.461 C35.701,87.342 34.513,87.223 33.297,87.105 C31.605,86.926 29.943,86.748 28.251,86.57 C27.153,86.452 26.085,86.363 24.987,86.244 C24.363,86.184 23.77,86.066 23.146,86.006 C22.553,85.947 21.93,85.947 21.306,85.858 C19.852,85.621 18.398,85.621 16.944,85.65 C16.825,85.65 16.706,85.739 16.558,85.769 C16.765,86.511 17.151,87.105 17.567,87.698 C18.962,89.687 20.594,91.408 22.464,92.951 C24.482,94.643 26.708,95.771 29.349,96.068 C30.596,96.216 31.813,96.424 33.059,96.542 C34.751,96.72 36.413,96.839 38.105,96.958 C39.559,97.047 40.983,97.077 42.438,97.136 C44.218,97.195 45.97,97.284 47.75,97.314 C51.015,97.344 54.309,97.314 57.574,97.344 C60.008,97.344 62.412,97.433 64.845,97.433 C66.121,97.433 67.398,97.433 68.674,97.433 C69.416,97.433 70.188,97.433 70.929,97.433 C71.256,97.433 71.582,97.462 71.879,97.551 C72.681,97.819 73.393,98.204 74.046,98.739 C74.313,98.917 74.521,99.154 74.521,99.599 z M118.92,108.325 C119.069,108.206 119.187,108.058 119.366,107.909 C120.137,107.346 121.028,107.049 121.948,107.019 C123.521,106.989 125.094,106.989 126.667,107.019 C129.367,107.078 132.098,107.197 134.799,107.257 C135.481,107.286 136.164,107.316 136.817,107.167 C138.39,106.871 139.992,106.544 141.536,106.099 C145.305,105.031 149.074,103.903 152.843,102.775 C154.179,102.389 155.485,102.003 156.82,101.618 C157.117,101.528 157.414,101.439 157.592,101.083 C157.444,101.054 157.325,100.994 157.206,100.994 C156.553,100.965 155.9,100.994 155.277,100.965 C154.624,100.935 153.971,100.786 153.318,100.786 C152.25,100.816 151.181,100.668 150.113,100.697 C148.926,100.727 147.739,100.519 146.551,100.49 C145.127,100.46 143.702,100.371 142.307,100.282 C141.358,100.252 140.378,100.223 139.428,100.163 C139.013,100.134 138.597,100.134 138.152,100.104 C137.084,100.045 136.015,99.955 134.947,99.926 C133.73,99.866 132.484,99.837 131.267,99.807 C130.554,99.777 129.842,99.718 129.13,99.688 C128.002,99.659 126.874,99.599 125.746,99.57 C125.657,99.57 125.568,99.51 125.42,99.451 C125.568,99.214 125.657,99.006 125.806,98.857 C126.399,98.204 127.201,97.848 128.002,97.522 C128.892,97.166 129.842,97.195 130.792,97.166 C138.894,97.106 147.026,97.255 155.129,97.047 C156.969,96.988 158.779,96.988 160.619,96.869 C163.112,96.72 165.605,96.513 168.098,96.305 C169.167,96.216 170.235,96.038 171.304,95.86 C172.52,95.652 173.708,95.385 174.806,94.762 C176.23,93.99 177.507,93.011 178.723,91.912 C180.474,90.31 181.988,88.47 183.264,86.481 C183.413,86.244 183.62,85.977 183.502,85.621 C183.353,85.621 183.235,85.591 183.116,85.591 C180.831,85.561 178.605,85.828 176.349,86.066 C174.064,86.333 171.808,86.541 169.523,86.748 C168.365,86.867 167.178,86.986 166.021,87.105 C163.973,87.312 161.925,87.55 159.877,87.787 C158.304,87.965 156.731,88.114 155.188,88.292 C152.873,88.559 150.558,88.826 148.273,89.093 C147.145,89.212 146.017,89.33 144.889,89.479 C143.316,89.687 141.773,89.865 140.2,90.102 C138.36,90.369 136.52,90.666 134.68,90.992 C133.582,91.2 132.513,91.467 131.445,91.734 C129.753,92.15 128.121,92.743 126.904,94.079 C126.073,94.999 125.242,95.889 124.53,96.899 C122.482,99.837 120.523,102.775 118.534,105.743 C116.783,108.384 114.825,110.848 112.48,112.985 C111.827,113.578 111.174,114.112 110.521,114.706 C110.284,114.914 110.046,115.092 109.987,115.507 C110.195,115.537 110.373,115.596 110.521,115.567 C111.263,115.418 112.035,115.299 112.777,115.062 C115.359,114.29 117.911,113.489 120.493,112.717 C122.007,112.272 123.521,111.679 125.094,111.441 C125.272,111.412 125.539,111.352 125.539,111.085 C125.568,110.818 125.331,110.759 125.123,110.67 C125.094,110.67 125.064,110.64 125.004,110.64 C123.55,110.165 122.096,109.69 120.642,109.186 C120.256,109.067 119.87,108.948 119.484,108.8 C119.217,108.77 118.98,108.681 118.92,108.325 z M100.104,86.719 C100.104,86.748 100.104,86.748 100.104,86.778 C99.955,86.778 99.837,86.778 99.688,86.808 C99.332,86.867 99.006,86.926 98.679,86.986 C95.147,87.728 91.705,88.707 88.292,89.894 C87.104,90.31 85.917,90.814 84.79,91.349 C83.988,91.705 83.899,92.002 84.137,92.833 C84.493,94.02 84.819,95.207 85.235,96.364 C86.155,99.095 87.223,101.736 88.677,104.229 C89.241,105.209 89.894,106.158 90.755,106.9 C93.278,109.097 96.097,110.848 99.124,112.302 C99.837,112.628 100.49,112.688 101.143,112.272 C101.202,112.243 101.291,112.213 101.35,112.183 C103.012,111.412 104.585,110.492 106.099,109.453 C107.138,108.74 108.117,107.998 109.097,107.227 C110.492,106.129 111.382,104.645 112.183,103.101 C113.311,100.935 114.231,98.65 115.003,96.335 C115.418,95.118 115.774,93.901 116.13,92.684 C116.309,92.061 116.19,91.823 115.656,91.467 C115.507,91.378 115.359,91.289 115.21,91.23 C114.29,90.844 113.37,90.399 112.45,90.072 C109.304,88.945 106.069,88.054 102.805,87.283 C101.914,87.045 100.994,86.897 100.104,86.719 z" fill="#000000"/>
  </g>
</svg>
