<?xml version="1.0" encoding="UTF-8"?>
<!DOCTYPE svg PUBLIC "-//W3C//DTD SVG 1.1//EN" "http://www.w3.org/Graphics/SVG/1.1/DTD/svg11.dtd">
<svg version="1.1" xmlns="http://www.w3.org/2000/svg" xmlns:xlink="http://www.w3.org/1999/xlink" x="0" y="0" width="200" height="200" viewBox="0, 0, 200, 200">
  <g id="tesla">
    <path d="M99.263,189.518 L124.442,47.911 C148.431,47.911 156.03,50.577 157.108,61.295 C157.108,61.295 173.214,55.284 181.323,43.091 C149.622,28.403 117.807,27.722 117.807,27.722 L99.206,50.35 L99.263,50.35 L80.662,27.722 C80.662,27.722 48.847,28.403 17.146,43.091 C25.255,55.284 41.361,61.295 41.361,61.295 C42.495,50.577 50.038,47.911 73.856,47.911 L99.263,189.518 z M99.263,21.2 L99.263,21.2 C73.629,21.03 44.31,25.17 14.31,38.27 C12.382,34.868 10.737,31.408 9.263,27.836 C37.902,16.437 68.412,10.482 99.263,10.312 C130.113,10.482 160.624,16.437 189.263,27.836 C189.263,27.836 188.242,31.068 184.215,38.27 C154.159,25.17 124.896,20.974 99.263,21.2" fill="#000000"/>
  </g>
</svg>
