<?xml version="1.0" encoding="UTF-8"?>
<!DOCTYPE svg PUBLIC "-//W3C//DTD SVG 1.1//EN" "http://www.w3.org/Graphics/SVG/1.1/DTD/svg11.dtd">
<svg version="1.1" xmlns="http://www.w3.org/2000/svg" xmlns:xlink="http://www.w3.org/1999/xlink" x="0" y="0" width="200" height="200" viewBox="0, 0, 200, 200">
  <g id="Layer_1">
    <path d="M122.415,167.598 C118.283,119.847 149.743,81.156 184.155,76.611 C205.197,119.198 166.093,159.896 122.415,167.598 L122.415,167.598 z M159.335,48.309 L159.335,48.309 C134.721,73.158 110.197,113.236 113.502,168.926 C115.243,168.602 117.368,168.454 119.257,168.1 C118.106,129.468 131.623,86.616 175.596,63.183 C172.734,59.376 164.529,51.555 159.335,48.309 z M124.923,33.346 L124.923,33.346 C112.587,77.939 105.563,93.197 105.091,169.605 L110.728,169.251 C108.957,114.889 121.205,88.003 145.759,40.518 C140.594,37.802 131.209,34.467 124.923,33.346 z M110.167,31.074 L110.167,31.074 C103.851,77.969 102.287,97.447 102.582,169.635 C100.635,169.723 99.513,169.723 97.919,169.694 C96.65,97.034 95.883,77.349 89.184,30.867 C96.65,30.277 103.851,30.483 110.167,31.074 z M75.077,33.346 L75.077,33.346 C87.442,77.939 94.466,93.197 94.939,169.605 L89.272,169.251 C91.072,114.889 78.795,88.003 54.27,40.518 C59.435,37.802 68.791,34.467 75.077,33.346 z M40.724,48.309 L40.724,48.309 C65.367,73.158 89.833,113.236 86.557,168.926 C84.845,168.602 82.691,168.454 80.773,168.1 C81.924,129.468 68.436,86.616 24.463,63.183 C27.355,59.376 35.53,51.555 40.724,48.309 z M77.615,167.598 L77.615,167.598 C33.936,159.896 -5.197,119.198 15.904,76.611 C50.286,81.156 81.717,119.847 77.615,167.598 z" fill="#000000"/>
  </g>
</svg>
