<?xml version="1.0" encoding="UTF-8"?>
<!DOCTYPE svg PUBLIC "-//W3C//DTD SVG 1.1//EN" "http://www.w3.org/Graphics/SVG/1.1/DTD/svg11.dtd">
<svg version="1.1" xmlns="http://www.w3.org/2000/svg" xmlns:xlink="http://www.w3.org/1999/xlink" x="0" y="0" width="200" height="200" viewBox="0, 0, 200, 200">
  <g id="Layer_1">
    <path d="M100,146.174 C149.727,146.174 190,125.493 190,100.011 C190,74.528 149.727,53.826 100,53.826 C50.294,53.826 10,74.507 10,99.989 C10,125.472 50.294,146.174 100,146.174 z M116.903,123.487 C115.43,126.945 112.827,134.393 106.915,137.338 C105.101,138.192 102.86,138.64 100.918,138.704 C100.47,138.768 100.171,138.704 100.064,138.704 C83.438,138.704 67.987,136.442 55.032,132.472 C54.925,132.408 54.627,132.301 54.627,132.301 C53.325,131.896 52.706,131.341 52.706,130.658 C52.706,130.082 52.983,129.634 53.453,129.185 C53.623,129.015 53.901,128.78 54.242,128.438 C57.188,125.941 66.279,119.411 83.161,112.859 C89.137,110.596 96.564,107.758 104.354,106.093 C108.964,105.218 125.888,102.678 116.903,123.487 L116.903,123.487 z M162.469,76.982 C162.746,76.406 163.216,75.915 164.005,75.915 C164.453,75.851 164.966,75.979 165.819,76.534 C176.384,83.044 182.701,91.175 182.701,99.989 C182.701,115.932 162.255,129.591 133.059,135.588 C131.181,135.994 129.943,135.994 129.495,135.481 C129.217,135.14 129.089,134.692 129.495,134.073 C129.666,133.731 129.9,133.454 130.285,133.048 C146.206,114.267 158.35,86.544 161.743,78.498 C161.956,77.836 162.212,77.324 162.469,76.982 L162.469,76.982 z M83.374,76.364 C84.847,72.906 87.451,65.458 93.363,62.512 C95.177,61.616 97.418,61.211 99.36,61.147 C99.808,61.147 100.149,61.147 100.256,61.147 C116.818,61.147 132.291,63.473 145.224,67.378 C145.331,67.378 145.63,67.485 145.736,67.549 C146.931,67.955 147.55,68.51 147.55,69.193 C147.55,69.811 147.209,70.217 146.803,70.665 C146.633,70.836 146.355,71.113 146.014,71.412 C143.005,73.909 134.041,80.44 117.095,86.907 C111.119,89.233 103.692,92.007 95.902,93.736 C91.292,94.654 74.389,97.215 83.374,76.364 L83.374,76.364 z M67.069,64.391 C68.947,63.985 70.42,63.985 70.804,64.497 C71.081,64.775 71.209,65.287 70.804,65.906 C70.633,66.247 70.398,66.525 70.057,66.973 C54.114,85.754 41.992,113.478 38.599,121.46 C38.321,122.036 38.086,122.591 37.852,122.932 C37.51,123.508 37.062,123.957 36.315,123.999 C35.909,123.999 35.355,123.893 34.437,123.38 C23.872,116.871 17.363,108.74 17.363,99.925 C17.448,84.047 37.894,70.366 67.069,64.391 L67.069,64.391 z M162.554,130.039 C178.582,121.801 187.418,111.109 187.418,99.947 C187.418,88.785 178.646,78.114 162.618,69.876 C145.971,61.339 123.797,56.643 100.085,56.643 C76.374,56.643 54.178,61.296 37.553,69.876 C21.567,78.114 12.753,88.785 12.753,99.968 C12.753,111.151 21.525,121.801 37.531,130.039 C54.157,138.533 76.31,143.271 100.021,143.271 C123.733,143.271 145.928,138.555 162.554,130.039 z M100,53.826 C149.727,53.826 190,74.443 190,99.925 C190,125.344 149.727,146.024 100,146.024 C50.294,146.024 10,125.408 10,99.925 C10,74.443 50.294,53.826 100,53.826 z" fill="#000000"/>
  </g>
</svg>
