<?xml version="1.0" encoding="UTF-8"?>
<!DOCTYPE svg PUBLIC "-//W3C//DTD SVG 1.1//EN" "http://www.w3.org/Graphics/SVG/1.1/DTD/svg11.dtd">
<svg version="1.1" xmlns="http://www.w3.org/2000/svg" xmlns:xlink="http://www.w3.org/1999/xlink" x="0" y="0" width="200" height="200" viewBox="0, 0, 200, 200">
  <g id="Layer_1">
    <path d="M13.297,124.238 L52.861,62.485 C54.911,59.277 57.05,56.693 60.436,54.465 C63.733,52.238 68.723,50.812 70.861,50.812 L175.475,50.901 C159.347,26.307 131.634,10 100,10 C50.277,10 10,50.277 10,100 C10,108.376 11.158,116.574 13.297,124.238 L13.297,124.238 z M33.881,161.04 L33.881,161.04 C29.96,156.762 26.396,152.129 23.366,147.139 L72.733,67.208 C75.941,61.327 80.129,56.515 86.634,56.515 L178.772,56.426 C180.822,60.079 182.515,63.822 184.03,67.653 L103.119,67.653 C93.584,67.653 89.842,73.089 85.921,78.703 L33.881,161.04 z M64.356,182.693 L64.356,182.693 C59.366,180.465 54.554,177.881 50.01,174.851 L105.168,84.317 C111.584,73.713 115.416,73.446 122.723,73.446 L185.99,73.535 C187.149,77.099 188.04,80.842 188.663,84.584 L133.416,84.584 C127.802,84.584 122.366,89.218 119.604,93.762 L64.356,182.693 z M189.465,90.198 L189.465,90.198 C189.822,93.406 190,96.703 190,100 C190,149.723 149.723,190 100,190 C94.564,190 89.307,189.465 84.139,188.574 L139.921,97.951 C142.327,93.941 145.891,90.109 152.574,90.198 L189.465,90.198 z" fill="#000000"/>
  </g>
</svg>
