<?xml version="1.0" encoding="UTF-8"?>
<!DOCTYPE svg PUBLIC "-//W3C//DTD SVG 1.1//EN" "http://www.w3.org/Graphics/SVG/1.1/DTD/svg11.dtd">
<svg version="1.1" xmlns="http://www.w3.org/2000/svg" xmlns:xlink="http://www.w3.org/1999/xlink" x="0" y="0" width="200" height="200" viewBox="0, 0, 200, 200">
  <g id="Layer_1">
    <path d="M186.764,33.145 C179.657,31.368 172.504,29.819 165.215,29.045 C158.108,28.27 151.047,27.131 143.894,26.812 C133.371,26.129 122.892,25.446 112.369,25.537 C104.168,25.264 96.014,25.446 87.813,25.674 C76.652,25.719 65.49,26.676 54.329,27.314 C41.209,28.68 28.043,29.683 15.104,32.507 C10.184,51.504 8.544,71.96 14.193,90.957 C20.161,109.408 32.462,125.034 46.174,138.382 C61.345,153.233 79.021,165.625 98.519,174.053 C99.112,174.235 99.749,174.736 100.342,174.326 C117.836,166.126 134.646,156.104 149.042,143.074 C158.336,134.92 166.901,125.854 173.962,115.694 C182.982,103.121 188.586,88.132 190.089,72.734 C191.456,59.523 190.18,46.038 186.764,33.145 z M177.925,100.888 C167.948,120.296 152.231,136.15 134.874,149.133 C128.952,153.461 122.801,157.561 116.378,161.069 C111.093,164.076 105.809,167.128 100.114,169.315 C85.353,163.757 72.233,154.646 60.115,144.76 C51.277,137.334 42.803,129.362 35.605,120.25 C26.767,109.362 19.751,96.697 16.972,82.848 C14.011,67.495 15.013,51.504 19.25,36.516 C31.277,33.874 43.623,32.917 55.832,31.596 C63.805,31.049 71.777,30.594 79.795,30.093 C89.226,30.001 98.702,29.546 108.132,29.683 C114.555,29.865 120.933,29.774 127.357,30.047 C134.008,30.457 140.705,30.822 147.357,31.232 C158.108,32.553 168.996,33.327 179.52,36.015 C180.659,36.379 182.071,36.334 183.028,37.108 C188.312,58.156 187.401,81.253 177.925,100.888 z M91.595,36.471 C91.595,38.43 91.458,40.389 91.686,42.256 C92.324,43.623 93.781,44.443 95.285,44.352 C100.296,44.352 105.307,44.352 110.319,44.352 C112.05,44.443 113.963,43.578 114.601,41.846 C115.057,40.206 114.783,38.521 114.783,36.835 C110.273,36.835 105.717,36.835 101.207,36.835 C101.207,37.61 101.162,38.338 101.162,39.113 C103.986,39.113 106.811,39.067 109.681,39.158 C109.499,39.842 109.544,40.616 109.134,41.209 C108.588,41.755 107.722,41.527 107.039,41.619 C104.578,41.573 102.164,41.71 99.704,41.573 C98.519,41.482 98.656,39.978 98.656,39.113 C98.747,37.928 98.383,36.516 99.157,35.468 C99.932,35.104 100.843,35.195 101.708,35.149 C106.036,35.195 110.364,35.195 114.692,35.149 C114.692,34.375 114.692,33.555 114.692,32.78 C108.223,32.78 101.754,32.735 95.285,32.78 C93.463,32.917 91.412,34.512 91.595,36.471 z M121.845,32.78 C121.89,35.787 121.754,38.84 121.89,41.892 C122.255,43.805 124.487,44.489 126.173,44.534 C131.321,44.625 136.423,44.944 141.525,44.99 C141.525,44.033 141.48,43.076 141.48,42.12 C137.881,42.029 134.236,42.347 130.683,41.801 C129.954,41.209 129.635,40.206 129.635,39.25 C129.589,37.063 129.635,34.922 129.635,32.78 C127.038,32.78 124.441,32.78 121.845,32.78 z M38.202,36.243 C35.696,36.334 33.19,37.883 32.507,40.389 C32.052,42.393 31.459,44.534 31.778,46.63 C32.097,48.133 33.783,48.452 35.104,48.224 C42.165,47.541 49.272,46.721 56.379,45.946 C56.516,45.035 56.652,44.079 56.789,43.122 C51.413,43.623 46.083,44.261 40.753,44.762 C40.799,43.851 40.753,42.484 41.983,42.439 C46.174,41.983 50.366,41.71 54.557,41.209 C54.511,40.389 54.511,39.614 54.511,38.794 C50.183,39.158 45.901,39.66 41.619,40.024 C41.71,39.158 42.074,38.111 43.122,38.156 C47.905,37.746 52.643,37.473 57.427,37.017 C57.564,36.197 57.655,35.377 57.746,34.557 C51.231,35.058 44.716,35.696 38.202,36.243 z M146.081,36.425 C145.899,38.748 145.99,41.117 146.081,43.441 C146.081,44.671 147.038,45.719 148.268,45.764 C155.83,46.767 163.347,47.678 170.91,48.634 C170.864,47.814 170.864,46.994 170.819,46.174 C166.308,45.582 161.798,44.853 157.288,44.261 C156.468,44.124 155.602,44.124 154.874,43.669 C154.19,43.167 154.555,41.619 155.511,41.801 C159.384,42.165 163.256,42.803 167.128,43.259 C167.128,42.712 167.128,41.619 167.128,41.072 C163.21,40.525 159.247,39.978 155.329,39.386 C153.962,39.477 154.19,37.2 155.602,37.746 C160.249,38.293 164.851,38.976 169.497,39.614 C169.497,38.84 169.452,38.02 169.452,37.245 C163.074,36.425 156.696,35.468 150.272,34.648 C148.769,34.512 146.491,34.603 146.081,36.425 z M78.246,39.022 C78.064,37.928 78.839,35.878 77.244,35.742 C75.103,35.787 72.916,35.969 70.775,35.969 C69.682,35.833 68.816,36.607 67.951,37.108 C67.859,37.837 67.814,38.566 67.723,39.295 C71.231,39.204 74.739,39.067 78.246,39.022 z M84.943,35.969 C84.943,38.84 84.943,41.755 84.989,44.671 C82.802,44.671 80.615,44.671 78.429,44.671 C78.429,43.532 78.429,42.439 78.429,41.3 C74.784,41.345 71.14,41.391 67.495,41.619 C67.495,42.849 67.495,44.124 67.495,45.354 C65.855,45.354 64.26,45.354 62.62,45.309 C62.939,42.712 63.122,40.115 63.44,37.518 C63.623,35.468 65.855,34.375 67.677,34.102 C72.278,33.692 76.88,33.464 81.481,33.418 C82.984,33.327 85.034,34.238 84.943,35.969 z M86.265,48.133 C80.205,48.407 74.146,48.133 68.087,48.725 C55.787,49.591 43.486,50.183 31.323,52.006 C28.589,52.461 25.81,52.598 23.213,53.418 C21.528,53.919 21.71,56.015 21.528,57.381 C21.573,59.249 20.753,61.345 21.801,63.076 C23.623,63.759 25.628,63.258 27.496,63.167 C33.919,62.484 40.343,61.709 46.767,61.117 C58.885,60.525 70.957,59.386 83.076,59.34 C90.182,59.158 97.244,59.021 104.351,58.839 C110.729,58.839 117.243,58.247 123.53,59.705 C127.311,61.254 130.683,64.078 134.874,64.443 C140.113,64.579 145.352,64.989 150.591,65.49 C155.42,66.128 160.295,66.493 164.987,67.859 C168.677,69.089 170.545,73.326 170.181,77.016 C169.68,81.663 168.131,86.173 166.308,90.456 C165.169,92.87 164.031,95.376 161.844,97.016 C162.026,93.964 162.436,90.638 160.659,87.996 C159.11,85.627 156.012,84.943 153.37,85.308 C147.812,86.037 142.482,87.722 137.197,89.545 C132.049,91.595 126.81,93.417 122.027,96.287 C121.571,96.652 120.296,97.016 120.797,97.79 C125.079,98.337 129.407,98.246 133.689,98.793 C138.564,99.248 143.439,100.159 148.359,100.205 C147.448,100.433 146.491,100.615 145.534,100.706 C132.778,101.891 119.977,102.984 107.54,106.036 C101.298,107.494 96.242,112.004 92.779,117.243 C87.996,124.487 85.49,132.915 83.713,141.343 C82.984,144.213 82.529,147.174 82.483,150.136 C82.438,151.639 82.939,153.325 84.351,154.099 C89.59,157.151 94.92,160.158 100.205,163.21 C112.505,157.151 124.122,149.634 134.783,141.024 C148.678,130.09 160.933,116.879 170.226,101.8 C174.463,94.693 177.515,86.902 178.928,78.748 C180.477,70.456 180.294,61.891 179.019,53.6 C171.32,51.732 163.438,51.003 155.602,49.91 C149.543,49.318 143.484,48.862 137.425,48.315 C130.865,48.042 124.259,47.769 117.699,47.541 C107.221,47.769 96.743,47.905 86.265,48.133 z M36.061,68.771 C31.96,69.363 27.633,69.317 23.806,71.185 C22.166,71.914 21.573,73.873 21.847,75.559 C22.257,78.292 22.302,81.162 23.76,83.577 C24.762,85.171 26.904,85.627 28.635,85.126 C34.512,83.804 40.434,82.711 46.402,82.164 C40.662,84.624 34.648,86.447 29.09,89.271 C28.134,89.818 26.904,90.41 26.721,91.595 C26.266,94.237 27.541,96.925 29.409,98.702 C30.822,99.977 32.917,99.932 34.557,99.112 C39.25,97.062 43.988,95.057 48.908,93.69 C44.716,96.378 40.297,98.793 36.243,101.754 C34.967,102.756 33.282,104.032 33.6,105.9 C34.102,107.904 35.605,109.453 37.017,110.865 C38.384,112.232 40.616,111.685 42.074,110.774 C45.992,108.269 49.682,105.444 53.828,103.348 C50.047,107.175 45.491,110.273 42.302,114.692 C40.799,117.152 42.94,119.703 44.808,121.207 C45.81,122.027 47.222,121.89 48.179,121.116 C52.142,118.063 55.65,114.464 59.659,111.503 C57.062,115.831 53.6,119.567 51.094,123.94 C50.001,125.854 50.639,128.405 52.324,129.726 C53.828,131.138 56.607,131.639 57.974,129.772 C60.525,126.446 62.62,122.801 65.399,119.658 C63.896,123.302 62.256,126.81 60.798,130.455 C60.206,131.958 59.614,133.553 59.659,135.193 C59.978,136.833 61.846,137.289 63.122,137.972 C64.853,138.883 66.629,137.516 67.541,136.104 C69.591,132.915 70.957,129.362 72.871,126.081 C72.142,130.182 70.684,134.1 69.636,138.154 C69.089,140.159 69.089,142.482 70.274,144.259 C71.413,146.035 73.417,146.992 75.422,147.448 C78.611,137.38 81.709,127.084 87.358,118.063 C89.818,114.692 92.324,111.367 95.285,108.405 C103.804,99.749 115.011,94.419 126.264,90.274 C134.145,87.358 142.118,84.716 150.318,82.939 C153.826,82.119 157.789,81.982 160.933,84.032 C162.573,85.034 163.393,86.902 164.031,88.634 C165.989,84.898 167.22,80.752 167.356,76.515 C167.356,74.784 167.083,72.506 165.215,71.777 C162.527,70.775 159.611,70.638 156.787,70.32 C148.587,69.454 140.341,69.044 132.141,68.361 C129.043,68.178 126.309,66.584 123.94,64.716 C123.348,66.948 122.255,69.226 120.205,70.456 C118.382,71.641 115.922,71.641 114.054,70.547 C111.139,68.862 108.36,66.948 105.353,65.399 C102.027,63.805 98.292,64.397 94.784,64.169 C75.149,64.488 55.559,66.174 36.061,68.771 z" fill="#231F20"/>
  </g>
</svg>
