<?xml version="1.0" encoding="UTF-8"?>
<!DOCTYPE svg PUBLIC "-//W3C//DTD SVG 1.1//EN" "http://www.w3.org/Graphics/SVG/1.1/DTD/svg11.dtd">
<svg version="1.1" xmlns="http://www.w3.org/2000/svg" xmlns:xlink="http://www.w3.org/1999/xlink" x="0" y="0" width="200" height="200" viewBox="0, 0, 200, 200">
  <g id="skoda">
    <path d="M93.44,0.162 C74.473,2.612 57.804,9.981 44.544,21.777 C43.429,22.767 42.168,23.874 41.743,24.234 C41.317,24.596 39.599,26.371 37.925,28.181 C-3.021,72.463 9.704,143.209 63.454,170.1 C123.868,200.326 194.77,155.642 193.557,88.105 C193.426,80.81 193.28,79.181 192.204,72.977 C184.976,31.318 148.011,0.356 104.786,-0.241 C98.658,-0.326 96.671,-0.255 93.44,0.162 M113.439,4.096 C167.624,10.73 201.881,63.525 185.79,115.6 C177.7,141.778 156.019,163.437 129.64,171.691 C87.555,184.859 42.625,164.384 24.765,123.9 C12.919,97.048 16.585,61.848 33.529,39.749 C33.643,39.6 34.427,38.567 35.271,37.453 C53.38,13.559 84,0.492 113.439,4.096 M99.383,8.444 C46.89,11.438 10.827,62.728 25.922,112.921 C41.523,164.791 102.547,187.174 148.01,157.699 C150.141,156.318 151.265,155.517 153.676,153.663 C158.803,149.72 164.562,143.896 168.281,138.893 C168.943,138.001 169.558,137.211 169.648,137.137 C170.202,136.678 174.856,129.095 176.089,126.641 C203.021,73.039 165.496,10.009 105.732,8.463 C103.206,8.397 100.349,8.389 99.383,8.444 M110.864,15.852 C172.957,21.708 200.269,98.138 155.991,142.134 C115.473,182.396 47.905,164.063 32.033,108.501 C29.707,100.357 28.969,85.771 30.49,78.01 C30.625,77.322 30.934,75.726 31.176,74.463 C38.15,38.143 73.278,12.306 110.864,15.852 M98.033,23.933 C95.28,24.188 91.175,24.88 88.056,25.614 C82.033,27.031 81.997,27.498 87.523,32.484 C93.191,37.6 98.275,43.343 101.952,48.785 C104.305,52.266 104.317,52.311 102.898,52.311 C100.587,52.311 98.53,51.157 94.868,47.806 C87.932,41.461 76.453,33.36 72.86,32.276 C70.845,31.668 63.633,36.532 57.538,42.61 C53.045,47.091 52.642,47.964 54.611,48.962 C61.101,52.253 78.042,64.453 78.042,65.837 C78.042,67.466 74.149,66.822 68.992,64.339 C58.571,59.321 48.628,56.144 46.657,57.199 C45.349,57.899 41.309,67.585 39.849,73.517 C37.893,81.463 38.031,81.83 43.34,82.862 C64.59,86.991 77.292,97.907 80.875,115.12 C81.672,118.945 81.394,120.4 79.717,121.18 C78.331,121.824 77.916,121.682 69.051,117.513 L64.248,115.255 L53.969,115.255 L43.691,115.255 L42.901,116.045 C41.394,117.553 41.542,117.907 46.074,123.556 C47.94,125.882 50.745,129.737 52.309,132.123 C55.906,137.614 55.142,137.137 60.341,137.137 C65.289,137.137 64.463,137.398 70.207,134.016 L73.855,131.869 L105.339,131.798 C141.98,131.716 138.015,131.334 138.015,134.945 C138.015,138.501 138.971,138.679 145.983,136.429 C151.685,134.6 160.047,129.192 160.603,126.975 C161.378,123.891 147.92,116.129 140.446,115.349 C138.432,115.139 138.103,115.527 137.971,118.27 C137.841,120.965 137.435,121.468 135.394,121.468 C134.214,121.468 133.813,121.345 133.285,120.816 C131.978,119.509 131.984,119.442 134.063,111.293 C141.818,80.905 138.08,55.909 122.886,36.542 C120.463,33.454 112.066,25.026 110.729,24.342 C109.644,23.786 102.207,23.546 98.033,23.933 M119.104,98.001 C124.283,100.395 125.612,106.851 121.788,111.035 C116.61,116.701 107.488,113.168 107.488,105.499 C107.488,99.385 113.585,95.45 119.104,98.001" fill="#000000" id="path0"/>
  </g>
</svg>
