<?xml version="1.0" encoding="UTF-8"?>
<!DOCTYPE svg PUBLIC "-//W3C//DTD SVG 1.1//EN" "http://www.w3.org/Graphics/SVG/1.1/DTD/svg11.dtd">
<svg version="1.1" xmlns="http://www.w3.org/2000/svg" xmlns:xlink="http://www.w3.org/1999/xlink" x="0" y="0" width="200" height="200" viewBox="0, 0, 200, 200">
  <g id="Layer_1">
    <path d="M184.346,84.25 L190,78.538 L133.404,78.538 L133.404,78.538 C126.365,67.346 114.077,59.904 100.058,59.904 C86.038,59.904 73.75,67.346 66.712,78.538 L66.712,78.538 L10,78.538 L15.654,84.25 L63.712,84.25 C62.788,86.385 62.096,88.635 61.577,90.942 L61.577,90.942 L22.231,90.942 L27.885,96.654 L60.712,96.654 C60.596,97.75 60.538,98.846 60.538,100 C60.538,101.154 60.596,102.25 60.712,103.346 L34.462,103.346 L40.115,109.058 L61.577,109.058 C62.096,111.423 62.846,113.731 63.827,115.923 C63.827,115.865 63.769,115.808 63.769,115.75 L46.692,115.75 L52.346,121.462 L66.712,121.462 L66.712,121.462 C73.75,132.654 86.038,140.096 100.058,140.096 C114.077,140.096 126.365,132.654 133.404,121.462 L133.404,121.462 L147.654,121.462 L153.308,115.75 L136.404,115.75 C136.404,115.808 136.346,115.865 136.346,115.923 C137.269,113.731 138.019,111.423 138.596,109.058 L159.942,109.058 L165.596,103.346 L139.519,103.346 C139.635,102.25 139.692,101.154 139.692,100 C139.692,98.846 139.635,97.75 139.519,96.654 L172.115,96.654 L177.769,90.942 L138.538,90.942 L138.538,90.942 C138.019,88.635 137.269,86.385 136.404,84.25 C136.404,84.25 184.346,84.25 184.346,84.25 z M134.269,79.981 C134.269,79.923 134.212,79.923 134.212,79.865 C134.212,79.923 134.269,79.923 134.269,79.981 z M135.077,81.481 C135.077,81.423 135.019,81.365 135.019,81.308 C135.019,81.365 135.077,81.423 135.077,81.481 z M65.154,81.308 C65.096,81.365 65.096,81.423 65.096,81.481 C65.096,81.423 65.096,81.365 65.154,81.308 z M65.904,79.865 C65.904,79.923 65.846,79.923 65.846,79.981 C65.846,79.923 65.904,79.923 65.904,79.865 z M65.846,120.019 C65.846,120.077 65.904,120.077 65.904,120.135 C65.904,120.135 65.846,120.077 65.846,120.019 z M65.038,118.519 C65.096,118.577 65.096,118.635 65.154,118.692 C65.096,118.635 65.038,118.577 65.038,118.519 z M100.058,134.385 C81.365,134.385 66.192,118.981 66.192,100 C66.192,81.019 81.365,65.615 100.058,65.615 C118.75,65.615 133.923,81.019 133.923,100 C133.923,118.981 118.75,134.385 100.058,134.385 z M135.019,118.75 C135.077,118.692 135.077,118.635 135.135,118.577 C135.077,118.577 135.019,118.635 135.019,118.75 z M134.212,120.135 C134.212,120.077 134.269,120.077 134.269,120.019 C134.269,120.077 134.212,120.135 134.212,120.135 z M76.288,109.058 C76.288,109.058 76.288,95.385 76.288,95.385 L80.615,109 L84.538,109 L88.75,95.5 L88.75,109 L92.385,109 L92.385,90.769 L87.135,90.769 L82.577,105.365 L78.019,90.769 L72.769,90.769 L72.769,109.058 L76.288,109.058 z M100.173,109.058 L100.173,90.769 L96.423,90.769 L96.423,109.058 L100.173,109.058 z M107.846,109.058 L107.846,95.846 L115,109 L119.385,109 L119.385,90.769 L115.808,90.769 L115.808,103.981 L108.654,90.769 L104.269,90.769 L104.269,109.058 L107.846,109.058 z M127.173,109.058 L127.173,90.769 L123.423,90.769 L123.423,109.058 L127.173,109.058 z" fill="#000000"/>
  </g>
</svg>
