<?xml version="1.0" encoding="UTF-8"?>
<!DOCTYPE svg PUBLIC "-//W3C//DTD SVG 1.1//EN" "http://www.w3.org/Graphics/SVG/1.1/DTD/svg11.dtd">
<svg version="1.1" xmlns="http://www.w3.org/2000/svg" xmlns:xlink="http://www.w3.org/1999/xlink" x="0" y="0" width="200" height="200" viewBox="0, 0, 200, 200">
  <g id="Layer_1">
    <path d="M98.093,33.103 C85.167,37.511 70.721,47.883 53.645,64.996 C45.422,73.219 36.31,83.85 29.457,93.257 C23.159,101.815 15.529,116.334 12.564,125.336 C9.861,133.373 9.563,139.003 11.602,142.744 C12.935,145.152 13.861,145.929 18.381,148.449 C32.012,156.079 54.052,163.007 73.276,165.711 C83.389,167.118 87.685,167.415 100.316,167.415 C112.947,167.415 117.243,167.12 127.356,165.711 C145.248,163.193 164.361,157.451 178.843,150.227 C184.993,147.152 187.215,145.67 188.473,143.633 C190.066,141.115 190.437,139.411 190.215,135.374 C189.88,129.485 187.436,122.039 182.546,112.37 C179.027,105.295 171.359,92.776 169.434,90.813 C169.101,90.478 168.879,90.072 168.916,89.887 C169.065,89.479 162.581,81.183 157.767,75.59 C153.285,70.366 142.544,59.625 136.986,54.772 C125.281,44.549 114.427,37.252 106.317,34.177 C103.315,33.066 99.649,32.585 98.093,33.103 z M106.094,40.141 C112.762,43.438 132.505,57.847 140.32,65.106 C154.656,78.404 167.915,96.777 178.287,117.778 C186.695,134.817 187.399,139.372 182.102,142.855 C174.841,147.67 159.582,153.337 142.357,157.596 C127.318,161.338 117.353,162.559 101.427,162.559 C89.536,162.596 85.091,162.3 74.98,160.744 C55.088,157.67 27.864,148.706 19.344,142.408 C14.825,139.111 15.639,134.407 23.64,118.147 C31.123,102.961 40.53,88.44 50.346,77.032 C54.198,72.475 63.94,62.845 67.903,59.585 C78.016,51.288 92.35,41.583 98.018,39.175 C100.76,38.029 102.204,38.214 106.094,40.141 z M90.425,76.811 C84.981,73.737 80.387,71.145 80.204,71.035 C80.055,70.961 79.982,77.814 80.018,86.333 L80.128,101.778 L90.425,108.038 L100.685,114.334 L110.611,108.297 C116.057,105 120.724,102.11 120.983,101.888 C121.317,101.554 121.427,98.11 121.354,86.219 L121.244,70.994 L111.131,76.699 C105.574,79.849 100.871,82.404 100.722,82.404 C100.538,82.404 95.908,79.886 90.425,76.811 z M72.091,77.368 C72.164,60.922 72.238,57.957 72.679,57.959 C72.974,57.959 79.383,61.552 86.939,65.923 L100.681,73.924 L114.424,65.923 C121.98,61.552 128.388,57.959 128.684,57.959 C129.129,57.959 129.204,60.995 129.277,77.368 L129.388,96.777 L132.944,94.813 C134.87,93.702 140.39,90.405 145.167,87.479 C150.686,84.072 153.945,82.294 154.093,82.553 C154.24,82.775 154.389,98.554 154.389,117.631 L154.389,152.301 L151.351,153.449 C149.649,154.079 148.018,154.635 147.722,154.709 C147.241,154.819 147.13,151.3 146.982,125.483 L146.796,96.147 L138.461,100.777 C133.867,103.334 129.904,105.63 129.682,105.815 C129.311,106.111 129.2,111.928 129.2,132.633 L129.2,159.043 L128.016,159.229 C127.349,159.341 125.793,159.6 124.608,159.822 C123.387,160.008 122.164,160.193 121.905,160.193 C121.536,160.193 121.424,155.563 121.35,135.598 L121.24,111.002 L110.98,117.225 L100.683,123.484 L90.423,117.262 L80.127,111.002 L80.016,135.634 L79.943,160.267 L78.165,160.044 C77.203,159.896 75.461,159.6 74.313,159.378 L72.164,158.97 L72.164,132.56 L72.164,106.113 L71.202,105.519 C70.684,105.185 66.757,102.926 62.424,100.518 L54.572,96.147 L54.387,125.483 C54.24,151.302 54.128,154.819 53.647,154.709 C53.351,154.633 51.722,154.079 50.054,153.449 L46.979,152.301 L46.979,117.631 C46.979,98.554 47.126,82.775 47.275,82.553 C47.424,82.294 50.682,84.072 56.201,87.479 C60.979,90.405 66.498,93.702 68.425,94.813 L71.981,96.777 L72.091,77.368 z" fill="#000000"/>
  </g>
</svg>
