<?xml version="1.0" encoding="UTF-8"?>
<!DOCTYPE svg PUBLIC "-//W3C//DTD SVG 1.1//EN" "http://www.w3.org/Graphics/SVG/1.1/DTD/svg11.dtd">
<svg version="1.1" xmlns="http://www.w3.org/2000/svg" xmlns:xlink="http://www.w3.org/1999/xlink" x="0" y="0" width="200" height="200" viewBox="0, 0, 200, 200">
  <g id="Layer_1">
    <path d="M99.976,9.951 C50.364,9.951 9.976,50.34 9.976,100 C9.976,149.66 50.364,190.049 99.976,190.049 C149.636,190.049 189.976,149.66 189.976,100 C190.024,50.34 149.636,9.951 99.976,9.951 z M92.888,181.456 L92.888,157.961 C95.218,158.252 97.549,158.398 99.976,158.398 C102.306,158.398 104.636,158.252 106.917,158.01 L106.917,181.505 C104.636,181.699 102.306,181.796 99.976,181.796 C97.597,181.748 95.218,181.65 92.888,181.456 z M117.257,97.767 L117.257,53.252 L106.966,50.291 L106.966,97.718 L92.937,97.718 L92.937,50.34 L82.646,53.301 L82.646,97.816 L43.325,97.816 C44.199,67.233 69.248,42.718 99.976,42.718 C130.704,42.718 155.752,67.282 156.626,97.767 L117.257,97.767 z M156.626,100.146 C156.286,125.049 139.83,146.117 117.209,153.398 L117.209,100.146 L156.626,100.146 z M82.597,100.146 L82.597,153.35 C60.073,146.068 43.665,125 43.325,100.146 L82.597,100.146 z M92.888,100.146 L106.917,100.146 L106.917,155.631 C104.636,155.922 102.306,156.068 99.976,156.068 C97.597,156.068 95.218,155.922 92.888,155.631 L92.888,100.146 z M117.257,179.903 L117.257,155.777 C141.383,148.398 159.005,125.874 159.005,99.369 C159.005,66.845 132.549,40.34 99.976,40.34 C67.451,40.34 40.947,66.796 40.947,99.369 C40.947,125.874 58.471,148.301 82.549,155.777 L82.549,179.854 C45.85,171.893 18.228,139.078 18.228,100 C18.228,54.903 54.927,18.204 99.976,18.204 C145.073,18.204 181.772,54.903 181.772,100 C181.772,139.175 154.102,171.99 117.257,179.903 z M29.248,63.544 L33.277,65 L28.568,77.961 L31.917,79.175 L36.384,66.942 L40.413,68.447 L35.995,80.68 L41.917,82.816 L40.024,88.155 L22.597,81.796 z M59.339,54.218 L55.284,58.125 L42.418,44.771 L46.473,40.865 z M76.626,36.893 C76.966,37.816 77.403,38.35 77.937,38.447 C78.131,38.495 78.422,38.447 78.762,38.398 C79.102,38.35 79.539,38.204 80.024,38.058 L81.917,37.427 L83.325,36.942 C84.393,36.553 84.782,35.922 84.442,35 C84.15,34.223 83.665,33.932 82.888,34.029 L81.772,34.32 L80.704,34.612 L77.597,35.485 L75.461,36.019 C75.121,36.117 74.636,36.214 74.053,36.311 C72.451,36.602 71.286,36.165 70.51,35 C70.073,34.369 69.684,33.641 69.442,32.816 C68.908,31.359 68.714,30.194 68.714,29.466 C68.762,28.204 69.296,27.233 70.218,26.505 C71.141,25.777 73.277,24.854 76.529,23.738 C77.112,23.544 77.597,23.398 78.131,23.252 C79.345,22.913 80.17,22.67 81.044,22.573 C81.917,22.427 82.694,22.427 83.325,22.524 C84.053,22.621 84.684,22.913 85.267,23.447 C85.801,23.981 86.286,24.709 86.578,25.631 L86.966,26.796 L81.626,28.641 L81.335,28.01 C81.044,27.476 80.607,27.184 80.024,27.184 C79.976,27.184 79.879,27.184 79.636,27.233 C79.248,27.33 78.859,27.427 78.422,27.524 C78.422,27.524 77.694,27.718 77.354,27.864 C77.015,27.961 75.995,28.398 75.995,28.398 C75.607,28.592 75.267,28.689 75.024,28.932 C74.49,29.272 74.345,29.806 74.539,30.485 C74.782,31.165 75.267,31.505 76.092,31.408 C76.238,31.408 76.432,31.359 76.675,31.311 C76.917,31.262 77.112,31.214 77.306,31.165 L78.714,30.777 L80.121,30.34 L83.034,29.515 C83.422,29.369 83.811,29.272 84.199,29.223 C84.587,29.175 85.024,29.126 85.413,29.126 C87.354,29.126 88.811,30.485 89.733,33.252 C90.801,36.311 89.976,38.495 87.306,39.854 C87.16,39.951 86.917,40.049 86.578,40.194 C86.286,40.34 85.995,40.437 85.801,40.485 C85.267,40.68 84.587,40.922 83.762,41.214 C82.937,41.505 82.451,41.699 82.306,41.748 C82.112,41.796 81.335,42.087 79.879,42.524 C78.422,43.01 80.801,42.136 80.024,42.427 C79.684,42.524 79.345,42.67 79.005,42.718 C78.665,42.816 78.325,42.913 77.985,42.961 C77.257,43.204 76.529,43.35 75.898,43.35 C75.218,43.35 74.636,43.204 74.053,43.01 C73.568,42.816 73.131,42.476 72.694,41.942 C72.257,41.408 71.917,40.728 71.626,39.951 L71.141,38.738 L76.626,36.893 z M115.704,22.282 L114.005,28.981 L115.461,29.32 L123.374,24.175 L129.782,25.777 L118.811,32.573 L126.578,44.078 L120.073,42.427 L114.199,33.932 L112.84,33.641 L111.189,40.243 L105.752,38.884 L110.218,20.922 z M168.665,70.777 L164.587,72.33 L166.189,76.456 C166.238,76.602 166.335,76.893 166.481,77.233 C166.626,77.621 166.723,77.913 166.82,78.107 C166.917,78.35 167.015,78.544 167.112,78.689 C167.209,78.835 167.306,78.981 167.451,79.126 C167.888,79.563 168.616,79.563 169.636,79.175 C170.316,78.883 170.801,78.544 170.995,78.01 C171.141,77.621 171.092,77.039 170.752,76.262 L170.17,74.709 L168.665,70.777 z M175.752,75.777 C175.995,76.359 176.141,76.748 176.189,76.99 C176.238,77.233 176.335,77.524 176.481,77.961 C176.917,79.66 176.772,80.971 175.995,81.942 C175.704,82.33 175.364,82.621 174.976,82.913 C174.587,83.155 174.199,83.398 173.811,83.592 C173.422,83.786 172.985,83.981 172.5,84.175 C171.092,84.709 169.927,84.951 169.053,84.806 C168.18,84.709 167.257,83.981 166.286,82.718 C166.432,84.32 166.286,85.437 165.85,85.971 C165.413,86.553 164.442,87.136 162.937,87.718 L160.801,88.544 L158.762,83.301 L160.364,82.67 C161.432,82.233 162.112,81.845 162.354,81.456 C162.597,81.019 162.549,80.291 162.112,79.175 L160.17,74.078 L155.85,75.728 L153.811,70.485 L171.141,63.835 L175.752,75.777 z M147.015,35.34 L161.092,48.689 L158.083,51.845 L148.131,42.379 L146.383,44.223 L155.85,53.204 L153.034,56.117 L143.617,47.136 L141.286,49.563 L151.383,59.126 L148.422,62.282 L134.248,48.786 z" fill="#000000"/>
  </g>
</svg>
