<?xml version="1.0" encoding="UTF-8"?>
<!DOCTYPE svg PUBLIC "-//W3C//DTD SVG 1.1//EN" "http://www.w3.org/Graphics/SVG/1.1/DTD/svg11.dtd">
<svg version="1.1" xmlns="http://www.w3.org/2000/svg" xmlns:xlink="http://www.w3.org/1999/xlink" x="0" y="0" width="200" height="200" viewBox="0, 0, 200, 200">
  <g id="layer1">
    <path d="M189.789,80.651 C189.157,79.604 188.02,79.532 187.514,79.495 L114.756,79.495 C112.698,79.495 111.037,80.127 109.792,81.355 C108.908,82.239 108.312,83.376 107.987,84.766 C107.969,84.82 107.879,85.091 107.265,85.091 L92.879,85.091 C92.266,85.091 92.175,84.802 92.157,84.766 C91.851,83.376 91.237,82.239 90.352,81.355 C89.125,80.127 87.446,79.495 85.407,79.495 L12.666,79.495 C12.197,79.513 11.042,79.586 10.41,80.651 C10.103,81.156 9.886,82.022 10.536,83.232 C10.536,83.232 11.872,85.452 11.872,85.452 C12.413,86.336 13.045,86.661 14.345,86.751 C14.363,86.751 14.976,86.806 15.392,87.546 L16.745,89.928 C17.034,90.47 17.702,91.751 20.012,92.076 C20.048,92.076 20.716,92.148 21.095,92.852 C21.095,92.852 22.774,95.794 22.774,95.794 C23.261,96.733 23.947,97.094 25.193,97.473 C25.193,97.473 55.625,106.408 55.625,106.408 C56.653,106.715 57.087,107.888 57.087,107.888 C57.809,109.765 58.747,111.317 63.512,112.743 C63.512,112.743 88.403,119.53 88.403,119.53 C88.71,119.638 91.562,120.505 93.71,118.429 C93.71,118.429 99.558,112.851 99.558,112.851 C99.558,112.851 99.792,112.617 100.117,112.617 C100.442,112.617 100.695,112.869 100.695,112.869 C100.713,112.888 106.525,118.429 106.525,118.429 C108.673,120.505 111.525,119.638 111.85,119.53 C111.832,119.53 136.722,112.743 136.74,112.743 C141.487,111.317 142.462,109.729 143.148,107.888 C143.184,107.816 143.581,106.715 144.61,106.408 C144.61,106.408 149.213,105.054 175.042,97.473 C176.287,97.094 176.973,96.733 177.461,95.794 L179.121,92.87 C179.5,92.148 180.15,92.076 180.186,92.058 C182.515,91.751 183.182,90.47 183.471,89.91 C183.471,89.91 184.825,87.528 184.825,87.528 C185.24,86.788 185.854,86.733 185.89,86.733 C187.189,86.643 187.821,86.318 188.363,85.434 C188.363,85.434 189.698,83.214 189.698,83.214 C189.987,82.69 190.114,82.203 190.114,81.734 C190.077,81.355 189.987,80.976 189.789,80.651 M109.323,85.073 C109.575,83.954 110.063,83.033 110.767,82.329 C111.741,81.355 113.077,80.867 114.756,80.867 L148.184,80.867 C147.029,81.734 146.433,82.817 146.397,82.889 C146,83.611 145.531,84.459 144.953,85.416 L109.196,85.416 C109.269,85.271 109.323,85.073 109.323,85.073 M64.054,96.589 C64.054,96.589 64.036,96.571 64.036,96.571 L64.036,86.463 L136.127,86.463 L136.127,96.589 C136.127,96.589 136.127,96.589 136.127,96.589 L64.054,96.589 z M62.989,87.834 L57.069,88.232 C56.653,87.618 56.256,87.022 55.895,86.463 L62.989,86.463 L62.989,87.834 z M62.989,88.935 L62.989,90.379 L59.036,90.903 C58.603,90.343 58.206,89.802 57.809,89.278 L62.989,88.935 z M62.989,91.426 L62.989,93.087 L61.148,93.466 C60.679,92.924 60.227,92.383 59.794,91.86 L62.989,91.426 z M62.989,94.17 L62.989,95.488 C62.628,95.109 62.285,94.748 61.96,94.368 C62.375,94.296 62.718,94.224 62.989,94.17 M76.31,97.635 L82.826,97.635 L73.729,104.151 C72.158,103.195 70.606,102.148 69.126,101.011 C72.537,99.404 75.696,97.924 76.31,97.635 M68.187,100.271 C68.097,100.199 66.021,98.466 65.155,97.635 L73.819,97.635 L68.187,100.271 z M84.631,97.635 L88.132,97.635 L79.162,106.985 C77.645,106.317 76.165,105.559 74.721,104.729 C79.017,101.661 83.512,98.448 84.631,97.635 M89.594,97.635 L92.573,97.635 L85.659,109.332 C83.8,108.808 81.977,108.177 80.208,107.437 C83.963,103.502 88.493,98.773 89.594,97.635 M93.782,97.635 L96.291,97.635 L92.645,110.776 C90.623,110.505 88.638,110.126 86.706,109.621 C89.36,105.144 92.897,99.152 93.782,97.635 M106.399,97.635 L113.474,109.602 C111.543,110.108 109.557,110.487 107.536,110.758 L103.89,97.635 L106.399,97.635 z M107.626,97.635 L110.604,97.635 L119.99,107.437 C118.221,108.177 116.398,108.808 114.521,109.332 L107.626,97.635 z M112.048,97.635 L115.55,97.635 L125.459,104.729 C124.015,105.559 122.535,106.317 121.019,106.985 C117.752,103.592 113.817,99.477 112.048,97.635 M117.355,97.635 L123.871,97.635 L131.055,100.993 C129.557,102.148 128.022,103.195 126.452,104.133 C122.986,101.661 119.322,99.043 117.355,97.635 M126.362,97.635 L135.026,97.635 C134.141,98.52 132.047,100.217 131.993,100.271 C129.881,99.296 127.824,98.321 126.362,97.635 M137.192,94.17 L138.238,94.387 C137.896,94.766 137.553,95.127 137.192,95.506 L137.192,94.17 z M137.192,93.105 L137.192,91.444 L140.404,91.878 C139.971,92.419 139.52,92.943 139.051,93.484 C138.22,93.304 137.571,93.177 137.192,93.105 M137.192,90.379 L137.192,88.935 L142.372,89.278 C141.993,89.802 141.578,90.361 141.144,90.903 L137.192,90.379 z M137.192,87.834 L137.192,86.445 L144.303,86.445 C143.942,87.004 143.545,87.6 143.13,88.213 L137.192,87.834 z M85.425,80.867 C87.103,80.867 88.457,81.355 89.414,82.329 C90.118,83.033 90.605,83.954 90.858,85.073 C90.858,85.073 90.912,85.271 90.966,85.398 L55.228,85.398 C54.686,84.495 53.784,82.871 53.784,82.871 C53.747,82.799 53.134,81.716 51.997,80.849 L85.425,80.849 z M14.435,85.398 C13.514,85.326 13.316,85.217 13.027,84.748 C13.027,84.748 11.818,82.744 11.728,82.582 C11.529,82.203 11.457,81.932 11.475,81.752 C11.493,81.264 11.836,80.885 12.72,80.867 L48.982,80.867 C51.437,80.867 52.881,83.394 52.881,83.394 C53.206,83.99 53.585,84.676 54.018,85.416 L14.435,85.416 z M19.345,90.542 C18.424,90.217 18.117,89.676 17.937,89.315 C17.377,88.358 16.637,86.914 16.258,86.463 L54.65,86.463 C55.011,87.058 55.426,87.672 55.859,88.322 L22.178,90.56 C21.655,90.614 20.121,90.74 19.345,90.542 M25.572,95.397 C24.344,95.56 23.965,95.163 23.893,95.054 L22.287,92.221 C22.178,92.004 22.052,91.841 21.908,91.679 C22.124,91.661 56.581,89.369 56.581,89.369 C56.978,89.928 57.393,90.488 57.827,91.083 L25.572,95.397 z M33.387,98.502 C30.048,97.509 27.323,96.715 26.167,96.372 L58.585,92.022 C59.036,92.582 59.487,93.141 59.975,93.719 L37.809,98.267 C36.961,98.448 34.615,98.809 33.387,98.502 M44.38,101.715 C41.907,100.993 39.29,100.217 36.835,99.495 C37.485,99.404 37.954,99.314 38.008,99.296 C38.008,99.296 54.072,95.993 60.769,94.621 C61.419,95.361 62.123,96.101 62.863,96.859 L48.008,101.444 C47.953,101.462 45.932,102.13 44.38,101.715 M55.968,105.126 C55.643,105.036 52.123,104.007 47.574,102.653 C48.008,102.545 48.296,102.455 48.332,102.455 C48.314,102.455 60.805,98.61 63.711,97.708 C64.776,98.737 65.913,99.765 67.14,100.776 L59.108,104.53 C58.567,104.801 57.014,105.415 55.968,105.126 M62.393,110.956 C59.253,109.765 58.783,108.592 58.332,107.437 C58.296,107.328 58.061,106.733 57.556,106.137 C58.621,105.938 59.505,105.487 59.559,105.469 C59.559,105.469 63.801,103.484 68.043,101.498 C69.577,102.707 71.165,103.809 72.79,104.819 L65.281,110.198 C65.263,110.216 63.711,111.371 62.393,110.956 M71.418,113.519 L64.758,111.696 C65.426,111.407 65.877,111.065 65.913,111.046 C65.913,111.046 69.631,108.393 73.783,105.415 C75.281,106.299 76.815,107.094 78.385,107.798 L74.017,112.346 C73.638,112.761 72.411,113.754 71.418,113.519 M80.642,116.028 L73.476,114.079 C74.216,113.664 74.739,113.122 74.775,113.086 C74.775,113.086 76.815,110.956 79.414,108.249 C81.255,109.043 83.151,109.711 85.1,110.27 L82.735,114.277 C82.447,114.801 81.472,116.173 80.642,116.028 M91.165,116.173 C91.165,116.191 90.876,117.472 89.973,118.014 C89.576,118.266 89.089,118.321 88.547,118.194 L82.284,116.479 C83.042,115.866 83.566,114.963 83.656,114.801 C83.656,114.801 84.721,113.014 86.165,110.559 C88.186,111.101 90.262,111.516 92.374,111.805 L91.165,116.173 z M92.753,117.472 C92.266,117.941 91.742,118.194 91.219,118.339 C91.905,117.562 92.157,116.57 92.193,116.425 L93.439,111.967 C94.991,112.148 96.58,112.274 98.186,112.328 C96.886,113.519 92.753,117.472 92.753,117.472 M93.71,110.902 L97.392,97.635 L99.558,97.635 L99.558,111.263 C97.572,111.245 95.623,111.137 93.71,110.902 M100.623,111.263 L100.623,97.635 L102.807,97.635 L106.489,110.902 C104.558,111.137 102.608,111.245 100.623,111.263 M106.525,116.606 C106.525,116.606 103.15,113.393 102.013,112.292 C103.619,112.238 105.207,112.111 106.76,111.931 L108.005,116.407 C108.041,116.57 108.294,117.544 108.98,118.321 C108.023,118.05 107.734,117.779 106.525,116.606 M111.651,118.194 C111.092,118.321 110.622,118.266 110.207,118.014 C109.341,117.49 109.052,116.263 109.034,116.191 L107.825,111.823 C109.936,111.534 112.012,111.119 114.034,110.577 L116.543,114.837 C116.633,114.999 117.138,115.884 117.896,116.498 L111.651,118.194 z M119.539,116.028 C118.709,116.155 117.734,114.801 117.463,114.295 L115.081,110.27 C117.03,109.711 118.925,109.043 120.766,108.249 L125.405,113.086 C125.441,113.122 125.965,113.664 126.705,114.079 L119.539,116.028 z M129.954,113.194 L128.762,113.519 C127.77,113.754 126.542,112.761 126.163,112.364 C126.163,112.364 124.25,110.379 121.795,107.816 C123.365,107.112 124.9,106.299 126.398,105.433 L134.286,111.065 C134.322,111.083 134.773,111.426 135.423,111.714 C133.672,112.184 129.954,113.194 129.954,113.194 M141.848,107.437 C141.397,108.592 140.928,109.765 137.769,110.956 C136.47,111.353 134.917,110.198 134.899,110.198 C134.899,110.198 131.38,107.671 127.372,104.819 C128.997,103.809 130.585,102.707 132.12,101.516 L140.621,105.487 C140.675,105.505 141.542,105.956 142.607,106.155 C142.119,106.733 141.885,107.328 141.848,107.437 M144.231,105.126 C143.184,105.415 141.632,104.801 141.108,104.549 C141.108,104.549 137.137,102.689 133.058,100.776 C134.286,99.783 135.423,98.755 136.488,97.708 L151.884,102.455 C151.92,102.473 152.191,102.563 152.624,102.653 L144.231,105.126 z M155.819,101.715 C154.267,102.13 152.227,101.462 152.209,101.444 L152.191,101.444 C152.191,101.444 152.191,101.444 152.191,101.444 L137.354,96.859 C138.094,96.119 138.78,95.361 139.448,94.621 L162.191,99.296 C162.245,99.314 162.714,99.404 163.364,99.495 L155.819,101.715 z M166.811,98.502 C165.602,98.827 163.219,98.466 162.389,98.285 C162.389,98.285 147.209,95.163 140.224,93.737 C140.711,93.159 141.181,92.6 141.614,92.04 L174.013,96.39 L166.811,98.502 z M177.912,92.239 C177.912,92.221 176.594,94.567 176.305,95.054 C176.233,95.145 175.854,95.56 174.627,95.397 L142.372,91.065 C142.805,90.488 143.238,89.91 143.617,89.351 L177.894,91.625 C177.948,91.625 178.092,91.643 178.291,91.661 C178.147,91.823 178.02,92.022 177.912,92.239 M183.634,86.878 L182.262,89.296 C182.063,89.657 181.775,90.217 180.854,90.524 C180.078,90.722 178.544,90.596 178.02,90.524 L144.357,88.286 C144.791,87.636 145.206,87.022 145.567,86.427 L183.959,86.427 C183.814,86.589 183.724,86.733 183.634,86.878 M188.471,82.582 C188.453,82.618 187.171,84.748 187.171,84.748 C186.919,85.145 186.774,85.326 185.764,85.398 C185.764,85.398 146.18,85.398 146.18,85.398 C146.632,84.658 147.011,83.972 147.318,83.376 C147.336,83.358 148.725,80.849 151.216,80.849 L187.478,80.849 C187.857,80.867 188.345,80.903 188.615,81.337 C188.652,81.391 188.724,81.517 188.724,81.734 C188.724,81.932 188.67,82.203 188.471,82.582 M110.839,89.567 C110.731,89.802 109.9,91.679 109.846,91.841 L111.777,91.841 C111.705,91.679 110.929,89.784 110.839,89.567 z M68.44,89.567 C68.332,89.802 67.574,91.679 67.501,91.841 L69.433,91.841 C69.379,91.679 68.53,89.784 68.44,89.567 z M115.712,88.701 L115.712,91.246 C115.947,91.246 116.488,91.264 116.904,91.174 C117.644,91.011 118.095,90.524 118.095,89.838 C118.095,89.17 117.77,88.809 117.102,88.701 C116.759,88.647 116.091,88.683 115.694,88.701 z M85.226,88.502 C83.584,88.502 82.573,89.73 82.555,91.697 C82.555,93.484 83.584,94.639 85.154,94.639 C85.876,94.639 86.49,94.405 86.959,93.899 C87.573,93.249 87.825,92.275 87.825,91.625 C87.825,91.589 87.825,91.553 87.825,91.499 C87.825,90.704 87.735,90.073 87.23,89.441 C86.779,88.863 86.002,88.502 85.226,88.502 z M127.896,88.232 L128.365,88.232 C128.365,88.232 132.932,93.195 132.968,93.231 L132.968,88.232 L133.636,88.232 L133.636,94.964 L133.311,94.964 L132.769,94.368 C132.769,94.368 128.6,89.802 128.564,89.766 L128.564,94.964 L127.896,94.964 L127.896,88.232 z M125.568,88.232 L126.506,88.232 L126.506,94.964 L125.568,94.964 L125.568,88.232 z M119.629,88.232 L124.701,88.232 L124.773,88.232 L124.773,88.899 L124.701,88.899 C124.087,88.827 123.383,88.827 122.698,88.827 C122.698,88.954 122.698,94.964 122.698,94.964 L121.759,94.964 L121.759,88.827 C120.857,88.827 120.279,88.827 119.701,88.899 L119.629,88.899 L119.629,88.232 z M114.774,88.232 L116.831,88.232 C118.33,88.232 119.106,88.737 119.106,89.766 C119.106,90.704 118.33,91.372 117.102,91.625 C117.229,91.769 119.774,94.964 119.774,94.964 L118.582,94.964 L118.51,94.964 L117.914,94.098 C117.914,94.098 116.777,92.636 116.777,92.636 C116.777,92.636 116.019,91.733 115.983,91.697 L115.712,91.697 C115.712,91.805 115.712,94.964 115.712,94.964 L114.774,94.964 L114.774,88.232 z M100.496,88.232 L100.785,88.232 L100.857,88.232 C101.633,89.766 102.518,91.553 103.529,93.231 C103.619,93.069 104.666,91.174 104.666,91.174 L106.272,88.232 L106.543,88.232 L106.615,88.232 L106.615,88.304 C106.904,91.138 107.175,93.267 107.409,94.91 L107.409,94.982 L106.344,94.982 L106.344,94.91 C106.236,93.574 106.02,91.264 105.875,90.109 C104.774,92.058 103.962,93.538 103.402,94.838 L103.204,94.838 L102.662,93.701 C102.193,92.708 100.912,90.325 100.803,90.109 C100.785,90.379 100.677,91.047 100.677,91.047 C100.514,92.545 100.352,93.953 100.352,94.91 L100.352,94.982 L99.558,94.982 L99.558,94.91 C99.81,93.34 100.406,89.296 100.496,88.304 L100.496,88.232 z M89.973,88.232 L90.443,88.232 C90.443,88.232 95.009,93.195 95.045,93.231 C95.045,93.123 95.045,88.232 95.045,88.232 L95.641,88.232 L95.713,88.232 L95.713,94.964 L95.388,94.964 L94.847,94.368 C94.847,94.368 90.677,89.802 90.641,89.766 L90.641,94.964 L89.973,94.964 L89.973,88.232 z M76.635,88.232 L81.707,88.232 L81.779,88.232 L81.779,88.899 L81.707,88.899 C81.093,88.827 80.389,88.827 79.703,88.827 L79.703,94.964 L78.764,94.964 L78.764,88.827 C77.862,88.827 77.284,88.827 76.707,88.899 L76.635,88.899 L76.635,88.232 z M110.893,88.105 L111.164,88.105 L114.16,94.964 L113.023,94.964 L112.951,94.892 C112.626,93.935 112.283,93.105 111.958,92.365 L109.63,92.365 C109.612,92.401 109.557,92.491 109.557,92.491 C109.232,93.267 108.871,94.044 108.619,94.892 L108.619,94.964 L107.825,94.964 L110.893,88.105 z M85.172,88.105 C87.031,88.105 88.908,89.098 88.908,91.444 C88.908,93.61 87.428,95.109 85.172,95.109 C83.006,95.109 81.508,93.665 81.508,91.571 C81.508,89.495 83.024,88.105 85.172,88.105 z M74.505,88.105 C74.938,88.105 75.57,88.213 75.985,88.556 L75.714,89.423 L75.515,89.423 C75.317,88.917 74.92,88.629 74.378,88.629 C73.71,88.629 73.187,89.08 73.187,89.694 C73.187,90.506 73.873,90.74 74.595,91.029 C75.407,91.354 76.256,91.733 76.256,92.834 C76.256,94.17 75.227,95.109 73.783,95.109 C73.331,95.109 72.537,94.91 72.176,94.513 L72.104,94.513 L72.303,93.574 L72.501,93.574 C72.934,94.26 73.386,94.567 74.035,94.567 C74.757,94.567 75.371,93.917 75.371,93.159 C75.371,92.347 74.667,92.094 73.963,91.823 C73.187,91.517 72.303,91.156 72.303,89.964 C72.303,88.809 73.151,88.105 74.505,88.105 z M68.494,88.105 L68.819,88.105 L71.761,94.964 L70.624,94.964 L70.624,94.892 C70.281,93.899 69.956,93.105 69.631,92.365 L67.231,92.365 C67.213,92.401 67.158,92.491 67.158,92.491 C66.852,93.267 66.545,94.062 66.292,94.892 L66.292,94.964 L65.426,94.964 L68.494,88.105 z" fill="#000000"/>
  </g>
</svg>
