<?xml version="1.0" encoding="UTF-8"?>
<!DOCTYPE svg PUBLIC "-//W3C//DTD SVG 1.1//EN" "http://www.w3.org/Graphics/SVG/1.1/DTD/svg11.dtd">
<svg version="1.1" xmlns="http://www.w3.org/2000/svg" xmlns:xlink="http://www.w3.org/1999/xlink" x="0" y="0" width="200" height="200" viewBox="0, 0, 200, 200">
  <g id="Layer_1">
    <path d="M100,10 C50.298,10 10,50.298 10,100 C10,149.702 50.298,190 100,190 C149.702,190 190,149.709 190,100 C190,50.298 149.709,10 100,10 z M100,188.2 C51.292,188.2 11.8,148.708 11.8,100 C11.8,51.292 51.292,11.8 100,11.8 C148.708,11.8 188.2,51.292 188.2,100 C188.2,148.708 148.708,188.2 100,188.2 z M34.53,72.554 L21.714,67.226 L19.842,71.711 L36.28,78.544 L40.384,68.687 L36.762,67.175 L34.53,72.554 z M40.038,45.647 L43.998,41.306 L41.104,38.67 L33.868,46.59 L47.008,58.593 L50.284,55.007 L45.129,50.298 L48.722,46.36 L45.827,43.718 L42.234,47.649 L40.038,45.647 z M152.236,32.363 L137.044,42.695 L140.601,45.971 L149.399,40.067 L149.435,40.103 L145.533,50.5 L146.944,51.825 L157.233,47.447 L157.269,47.476 L151.991,56.764 L155.469,60.155 L164.922,44.308 L161.402,40.996 L151.955,45.165 L155.721,35.639 L152.236,32.363 z M177.191,74.123 L180.813,72.626 L176.738,62.805 L160.3,69.623 L164.375,79.444 L167.99,77.946 L165.779,72.611 L168.609,71.438 L170.711,76.492 L174.333,74.994 L172.23,69.933 L174.981,68.795 z M26.243,101.152 L26.294,97.113 L20.606,99.028 L20.606,99.078 L26.243,101.152 z M32.961,94.665 L29.858,95.846 L29.778,102.534 L32.86,103.859 L32.795,109.014 L15.083,101.613 L15.148,96.306 L33.026,89.481 L32.961,94.665 z M64.13,35.589 L67.708,33.717 L63.323,29.62 L63.323,29.62 L63.323,29.62 L63.323,29.62 L63.28,29.642 L64.13,35.589 z M63.122,23.514 L77.608,36.021 L73.022,38.426 L70.509,36.244 L64.583,39.354 L64.878,42.688 L60.314,45.078 L58.42,25.977 L63.122,23.514 z M92.519,23.421 C94.096,23.298 95.853,22.874 95.702,20.944 C95.55,19.014 93.743,18.87 92.166,19 L91.698,19.029 L92.051,23.457 L92.519,23.421 z M97.041,25.595 L103.485,32.399 L103.485,32.399 L97.458,32.882 L92.346,26.423 L92.296,26.423 L92.836,33.242 L87.99,33.623 L86.579,15.89 L93.815,15.314 C97.494,15.018 100.425,16.473 100.72,20.26 C100.914,22.708 99.647,24.94 97.041,25.595 z M128.649,28.972 C129.398,26.632 127.821,23.766 125.063,22.881 C122.298,21.988 119.346,23.392 118.59,25.732 L118.59,25.732 C117.662,28.461 119.116,31.427 121.845,32.356 C121.888,32.378 121.938,32.392 121.989,32.406 C124.718,33.321 127.684,31.852 128.598,29.116 C128.62,29.073 128.634,29.022 128.649,28.972 z M126.438,18.611 C131.558,20.26 135.114,25.372 133.466,30.491 L133.466,30.491 C131.702,35.978 126.323,38.512 120.614,36.676 C114.904,34.84 112.024,29.649 113.788,24.162 C115.437,19.036 121.319,16.962 126.438,18.611 z M176.752,102.765 C179.207,102.678 181.367,100.23 181.266,97.329 C181.173,94.427 178.847,92.13 176.392,92.217 C173.505,92.267 171.208,94.643 171.258,97.523 C171.258,97.574 171.266,97.624 171.266,97.674 C171.33,100.554 173.714,102.837 176.594,102.772 C176.644,102.772 176.702,102.765 176.752,102.765 z M185.745,97.178 C185.932,102.549 182.332,107.632 176.954,107.826 C171.201,108.028 166.989,103.83 166.78,97.833 C166.578,91.842 170.481,87.364 176.241,87.162 C181.612,86.982 185.558,91.799 185.745,97.178 z M100.756,163.158 C135.309,162.748 163.158,134.632 163.158,100.007 C163.158,65.339 135.23,37.194 100.756,36.849 L100.756,163.158 C100.72,163.158 100.677,163.158 100.634,163.158 L100.756,163.158 L100.756,163.158 z M99.244,163.158 L99.244,107.978 L80.222,107.978 L80.214,159.99 C86.356,162.021 92.778,163.086 99.244,163.158 L99.244,163.158 z M37.338,107.978 C39.434,124.494 47.973,139.506 61.084,149.752 L61.077,107.978 L37.338,107.978 C37.338,107.978 37.338,107.978 37.338,107.978 L37.338,107.978 L37.338,107.978 z M61.055,50.277 C49.074,59.673 40.578,73.223 37.814,88.826 L61.084,88.833 L61.055,50.277 L61.055,50.277 z M80.236,39.995 L80.222,88.826 L99.244,88.826 L99.244,36.842 C92.786,36.914 86.37,37.972 80.236,39.995 z M100,35.164 C135.806,35.164 164.836,64.187 164.836,100 C164.836,135.813 135.806,164.836 100,164.836 L100,164.836 C64.194,164.836 35.164,135.806 35.164,100 C35.164,64.194 64.194,35.164 100,35.164 z M126.316,149.716 L126.316,149.716 C126.316,149.716 129.585,149.723 131.687,149.716 C133.797,149.716 133.962,151.156 133.919,152.15 C138.981,150.234 136.353,146.764 133.998,146.757 L127.259,146.757 C126.453,146.757 125.798,146.102 125.798,145.295 C125.798,144.489 126.453,143.826 127.259,143.826 L136.036,143.798 C139.456,143.798 142.235,141.069 142.235,137.634 C142.235,134.207 139.463,131.428 136.036,131.428 L121.521,131.414 C120.462,131.414 119.606,130.557 119.606,129.498 C119.606,128.44 120.462,127.583 121.521,127.583 L140.666,127.605 C147.023,127.605 152.171,122.608 152.171,116.258 C152.171,109.907 147.016,104.55 140.666,104.55 L120.57,104.565 C119.447,104.565 118.54,103.658 118.54,102.534 C118.54,101.411 119.447,100.504 120.57,100.504 L141.94,100.504 C148.326,100.454 158.529,94.557 158.529,83.073 C158.529,71.589 149.918,64.727 147.527,63.611 C147.203,64.569 145.77,66.801 142.264,66.801 L132.062,66.801 C130.305,66.801 128.714,68.075 127.914,70.631 L118.346,70.631 C118.511,72.546 120.426,76.053 124.408,76.053 L133.66,76.053 C134.726,76.053 135.582,76.751 135.582,77.81 C135.582,77.81 135.582,77.817 135.582,77.817 C135.575,78.875 134.718,79.732 133.66,79.732 L124.408,79.732 C122.018,79.725 119.303,80.366 118.346,84.513 L138.203,84.506 C139.571,84.506 140.68,85.535 140.68,86.91 C140.68,88.286 139.571,89.474 138.203,89.474 L120.578,89.459 C120.383,89.452 120.189,89.452 119.994,89.459 C112.766,89.618 107.042,95.601 107.2,102.83 C107.358,110.058 113.342,115.782 120.57,115.624 L138.909,115.624 C140.039,115.638 140.946,116.567 140.939,117.698 C140.939,118.814 140.032,119.404 138.909,119.404 L120.729,119.418 C115.934,119.418 112.046,123.112 112.046,127.907 C112.046,132.71 115.934,136.598 120.729,136.598 L135.561,136.598 C136.569,136.612 137.375,137.433 137.368,138.434 C137.368,139.434 136.562,140.241 135.561,140.241 L126.316,140.241 C123.688,140.241 121.571,142.523 121.571,145.137 C121.571,147.758 123.695,149.716 126.316,149.716 z M139.478,56.224 L139.478,56.224 z M134.69,56.224 C133.631,56.224 132.774,55.36 132.767,54.302 L132.767,54.302 C132.767,53.236 133.631,52.379 134.69,52.379 C135.755,52.379 136.612,53.243 136.612,54.302 C136.612,55.367 135.748,56.224 134.69,56.224 z M129.902,56.224 L129.902,56.224 z M125.121,56.224 L125.121,56.224 z M120.34,56.224 L120.34,56.224 z M118.504,59.09 L118.504,57.261 L141.472,57.261 L141.472,59.09 L118.504,59.09 z M118.504,63.474 L118.504,61.084 L141.472,61.084 L141.472,63.474 L118.504,63.474 z M119.98,77.91 L119.98,77.91 C116.229,76.161 115.192,70.653 115.516,69.141 L110.26,65.512 L110.26,65.512 C109.54,64.785 108.359,64.785 107.632,65.512 C106.905,66.232 106.905,67.413 107.632,68.14 L111.023,70.494 C112.694,71.61 112.377,73.446 112.139,74.958 C111.909,76.478 110.31,75.758 109.828,75.196 C109.094,74.462 108.086,74.044 107.042,74.044 C104.86,74.044 103.089,75.808 103.089,77.99 C103.089,80.171 104.853,81.863 107.034,81.863 C108.122,81.863 109.108,81.417 109.821,80.704 C110.303,80.142 111.894,79.43 112.132,80.942 C112.37,82.454 112.686,84.29 111.016,85.406 L107.625,87.76 C107.589,87.796 107.553,87.832 107.517,87.868 C106.818,88.624 106.869,89.798 107.625,90.496 C108.381,91.194 109.554,91.144 110.253,90.388 L115.509,86.759 C115.314,84.923 116.229,79.667 119.98,77.91 z" fill="#000000"/>
  </g>
</svg>
