<?xml version="1.0" encoding="UTF-8"?>
<!DOCTYPE svg PUBLIC "-//W3C//DTD SVG 1.1//EN" "http://www.w3.org/Graphics/SVG/1.1/DTD/svg11.dtd">
<svg version="1.1" xmlns="http://www.w3.org/2000/svg" xmlns:xlink="http://www.w3.org/1999/xlink" x="0" y="0" width="200" height="200" viewBox="0, 0, 200, 200">
  <g id="peugeot">
    <path d="M86.459,12.981 C82.919,14.198 78.59,16.343 76.838,17.748 C75.088,19.153 70.543,21.711 66.74,23.431 C58.801,27.023 58.335,28.504 62.984,35.354 C67.674,42.264 71.339,43.68 75.028,40.008 C77.637,37.412 83.525,37.718 85.035,40.526 C86.51,43.266 83.862,44.534 77.536,44.119 C69.464,43.589 67.534,46.54 71.934,52.689 C75.729,57.991 78.374,58.971 82.775,56.707 C87.345,54.356 88.423,55.171 86.202,59.299 C83.568,64.196 82.765,64.034 64.22,54.853 C39.321,42.526 26.854,42.672 19.937,55.373 C17.43,59.974 20.937,64.631 26.269,63.782 C30.48,63.112 31.021,63.335 32.11,66.183 C32.893,68.233 34.21,69.323 35.903,69.323 C37.329,69.323 40.454,70.528 42.847,72.001 L47.198,74.679 L39.382,76.256 C23.776,79.405 19.823,81.328 16.834,87.227 C11.502,97.747 14.767,104.326 23.803,101.273 C27.584,99.996 29.61,99.832 30.688,100.715 C31.634,101.489 39.254,101.874 50.693,101.725 C70.286,101.469 73.909,102.196 80.23,107.653 C83.194,110.212 83.196,110.22 80.966,114 C65.683,139.898 62.84,146.295 62.403,155.759 C62.168,160.869 61.897,165.05 61.802,165.051 C58.053,165.086 40.656,169.101 38.686,170.385 C35.992,172.142 35.001,175.697 34.248,186.312 L33.97,190.224 L61.028,190.436 L88.085,190.648 L87.669,182.219 L87.252,173.788 L101.264,158.128 L115.276,142.467 L124.529,149.332 C139.328,160.312 141.098,161.393 145.894,162.385 C151.475,163.539 152.572,165.896 147.998,166.908 C135.797,169.604 134.038,171.526 132.716,183.596 L131.929,190.776 L154.722,190.728 L177.515,190.681 L183.006,184.813 C186.027,181.586 188.498,178.234 188.498,177.365 C188.498,174.677 173.424,146.409 166.348,135.826 C158.209,123.655 158.214,125.084 166.283,117.155 C177.862,105.777 177.709,102.376 164.347,73.896 C154.431,52.761 152.875,47.099 155.357,41.187 C157.4,36.322 162.042,35.199 162.042,39.57 C162.042,50.267 179.204,70.788 183.017,64.649 C183.735,63.494 178.803,43.382 175.74,34.97 C171.353,22.922 155.855,20.792 147.184,31.045 L143.863,34.972 L139.072,30.317 C136.438,27.757 133.98,24.466 133.611,23.004 C133.105,20.999 130.64,19.463 123.571,16.75 C106.321,10.132 97.392,9.224 86.459,12.981 M106.171,16.092 C120.727,19.77 127.136,22.711 127.981,26.1 C128.41,27.826 132.238,32.83 136.487,37.22 C143.969,44.949 144.247,45.46 145.271,53.373 C147.886,73.556 147.897,73.535 133.181,77.176 C118.34,80.848 118.526,82.072 137.541,105.921 C155.548,128.507 168.88,148.224 176.893,164.123 L182.726,175.694 L178.697,180.627 L174.669,185.56 L165.769,184.877 C160.874,184.502 154.338,184.194 151.245,184.194 C145.68,184.194 145.628,184.158 146.153,180.598 C146.724,176.729 148.147,176.119 166.251,171.983 C176.149,169.721 176.06,168.539 164.612,150.354 C137.288,106.948 117.607,90.066 60.877,61.379 C47.771,54.753 44.012,53.382 37.51,52.863 C26.568,51.989 27.632,49.81 38.729,50.368 C47.409,50.804 48.554,51.249 74.504,64.28 C107.436,80.817 106.418,80.697 112.417,68.726 C120.4,52.794 120.027,49.642 108.412,34.935 C99.724,23.933 89.847,22.781 71.09,30.578 C67.087,32.242 64.635,31.984 64.635,29.896 C64.635,29.348 66.935,27.992 69.746,26.883 C72.557,25.774 76.21,23.632 77.863,22.124 C81.29,18.997 91.244,15.143 97.754,14.42 C98.441,14.344 102.229,15.096 106.171,16.092 M83.097,20.256 C79.825,21.57 78.457,23.727 79.954,25.216 C81.521,26.775 91.091,22.923 91.091,20.733 C91.091,18.879 87.118,18.642 83.097,20.256 M161.557,93.209 C163.797,98.43 161.572,102.064 153.678,106.079 C147.332,109.307 146.919,109.11 137.82,98.504 C128.572,87.722 128.782,86.306 140.176,82.664 C146.796,80.547 149.305,79.132 150.305,76.95 C151.687,73.931 155.891,80.006 161.557,93.209 M67.579,93.187 C69.662,95.476 69.454,95.517 53.975,95.879 C36.973,96.277 33.381,93.582 48.733,91.946 C62.158,90.517 65.342,90.726 67.579,93.187 M93.997,111.58 C96.001,113.039 95.472,114.113 86.781,126.238 C72.356,146.363 69.089,153.247 70.051,161.493 C71.014,169.751 70.369,170.393 59.201,172.295 C48.58,174.103 46.976,174.967 45.997,179.398 C45.068,183.614 41.786,184.295 41.786,180.272 C41.786,174.789 44.804,172.537 54.104,171.082 C68.362,168.85 68.221,168.974 67.909,158.808 C67.617,149.295 73.266,135.632 84.994,117.485 C90.164,109.487 90.667,109.157 93.997,111.58" fill="#000000" id="path0"/>
  </g>
</svg>
