<?xml version="1.0" encoding="UTF-8"?>
<!DOCTYPE svg PUBLIC "-//W3C//DTD SVG 1.1//EN" "http://www.w3.org/Graphics/SVG/1.1/DTD/svg11.dtd">
<svg version="1.1" xmlns="http://www.w3.org/2000/svg" xmlns:xlink="http://www.w3.org/1999/xlink" x="0" y="0" width="200" height="200" viewBox="0, 0, 200, 200">
  <g id="Layer_1">
    <path d="M190,100 C190,149.708 149.708,190 100,190 C50.292,190 10,149.708 10,100 C10,50.292 50.292,10 100,10 C149.708,10 190,50.292 190,100 L190,100 z M100,14.356 C52.726,14.356 14.356,52.726 14.356,100 C14.356,147.274 52.726,185.644 100,185.644 C147.274,185.644 185.644,147.338 185.644,100 C185.644,52.662 147.274,14.356 100,14.356 L100,14.356 z M100.448,18.071 C62.975,18.071 32.548,46.641 32.548,81.872 L32.548,118.128 C32.548,153.359 62.975,181.929 100.448,181.929 C137.922,181.929 168.349,153.359 168.349,118.128 L168.349,81.872 C168.349,46.641 137.986,18.071 100.448,18.071 L100.448,18.071 z M163.801,104.932 C164.826,109.224 165.338,113.644 165.338,118.192 C165.338,151.758 136.32,178.918 100.448,178.918 C64.577,178.918 35.623,151.694 35.623,118.128 C35.623,113.58 36.135,109.16 37.16,104.868 C47.025,128.698 71.623,145.609 100.512,145.609 C129.338,145.673 153.936,128.762 163.801,104.932 L163.801,104.932 z M165.338,81.872 L165.338,99.295 C156.754,73.288 130.939,54.391 100.448,54.391 C69.957,54.391 44.142,73.288 35.559,99.295 L35.559,81.872 C35.559,48.306 64.577,21.146 100.448,21.146 C136.32,21.082 165.338,48.306 165.338,81.872 L165.338,81.872 z M38.505,100 C46.769,75.338 71.367,57.402 100.448,57.402 C129.53,57.402 154.128,75.338 162.391,100 C154.128,124.662 129.53,142.598 100.448,142.598 C71.367,142.598 46.769,124.726 38.505,100 L38.505,100 z M145.544,147.338 L145.544,147.338 C145.032,147.851 142.662,149.9 141.957,150.477 L143.367,141.765 L145.544,147.338 z M145.737,135.68 L145.737,135.68 C145.032,136.384 141.189,139.203 139.972,139.972 L135.488,161.367 L135.231,142.918 C134.975,143.302 131.004,145.032 130.171,145.48 L130.107,165.274 C132.157,164.698 139.779,159.701 140.484,159.125 L141.125,155.281 C141.893,154.769 146.377,150.797 146.826,150.349 L147.786,152.719 C148.363,152.335 150.733,150.157 151.246,149.196 L145.737,135.68 z M99.808,165.082 L99.808,165.082 C98.783,165.082 95.132,164.89 94.619,164.826 L97.502,156.498 L99.808,165.082 z M122.932,148.235 L122.932,148.235 L122.932,159.125 C122.548,158.612 116.399,150.413 115.886,150.028 C115.374,150.157 109.929,150.861 109.544,151.053 L108.135,170.527 L101.409,151.566 C100.641,151.694 94.811,151.502 94.427,151.31 L88.854,163.416 L82.064,162.071 C82.256,162.456 80.591,165.402 77.388,164.121 C74.185,162.84 73.673,157.587 73.673,156.434 C73.673,155.281 73.609,151.886 76.875,151.758 C80.142,151.694 82.192,155.345 82.192,157.011 C82.897,157.331 88.021,158.356 88.598,158.484 C88.598,155.345 86.932,151.246 80.27,148.235 C76.683,146.569 67.907,143.174 67.779,153.359 L67.779,154.769 C67.395,153.295 63.616,149.772 62.142,148.363 C60.989,147.402 57.851,144.327 57.402,142.982 C56.826,141.381 57.402,139.779 59.324,140.932 C60.733,141.829 62.27,144.648 61.758,146.057 C62.27,146.505 66.05,149.196 67.395,149.644 C67.779,147.915 67.907,144.968 62.014,139.459 C58.427,136 55.673,134.847 54.199,135.103 C52.726,135.295 51.701,136.961 52.406,140.676 C52.726,142.534 54.968,145.801 56.762,147.722 C57.594,148.747 61.502,152.399 61.886,153.231 C62.27,154.064 62.399,155.665 60.925,155.473 C59.452,155.345 57.146,154.064 57.338,150.541 C56.185,149.708 52.214,146.121 51.701,145.416 C51.701,149.58 53.367,154.32 58.875,158.484 C62.399,161.367 67.203,162.712 67.715,158.228 L67.715,157.075 C68.228,161.302 71.431,165.402 74.313,166.939 C77.26,168.477 83.281,171.744 87.509,166.747 L86.1,170.142 C86.932,170.463 91.032,171.039 91.993,171.167 L93.21,168.605 C93.979,168.797 100.577,169.31 101.345,169.181 L102.114,171.616 C103.075,171.68 107.495,171.488 108.007,171.295 C108.712,171.423 113.772,170.591 114.285,170.399 L114.477,159.381 C114.989,160.278 121.075,167.516 121.843,168.221 C122.42,168.221 127.288,166.491 127.865,166.107 L127.993,146.313 C127.416,146.698 123.637,148.107 122.932,148.235 z M138.37,52.214 L138.37,52.214 C138.626,51.189 138.37,50.356 137.73,49.715 C137.281,49.331 132.157,46.192 129.018,45.167 L129.018,49.075 C131.004,49.651 135.488,52.214 136,52.534 C136.769,53.046 138.114,53.238 138.37,52.214 z M129.53,37.544 L129.53,37.544 L129.53,41.324 C131.772,41.964 135.039,43.822 135.552,44.142 C136.32,44.655 137.665,44.975 137.922,43.95 C138.178,42.925 137.922,42.285 137.281,41.708 C136.32,40.811 132.028,38.441 129.53,37.544 z M106.406,40.875 L106.406,40.875 C106.918,40.94 112.171,41.644 112.811,41.836 L109.737,33.317 L106.406,40.875 z M84.434,41.964 L84.434,41.964 C85.587,41.516 89.687,41.004 90.199,40.94 L86.996,33.573 L84.434,41.964 z M139.972,47.794 L139.972,47.794 C142.149,48.754 145.416,52.47 145.224,54.968 C145.224,57.722 144.199,59.516 142.406,59.388 C141.317,59.388 139.203,58.491 138.37,57.979 C136.641,57.082 128.057,50.996 115.566,48.69 L114.285,45.423 C113.388,45.295 105.765,44.142 104.74,44.27 L103.587,47.217 C102.306,47.217 99.167,47.217 98.527,47.217 C97.886,47.217 94.363,47.345 93.658,47.537 L92.057,44.527 C90.648,44.783 83.794,45.808 82.897,46.192 L81.552,49.779 C80.527,50.036 76.171,51.509 75.018,51.957 L75.658,49.843 C75.018,50.804 72.776,52.854 71.879,53.367 C70.918,53.879 63.936,58.107 61.246,59.068 C58.491,59.964 56.057,60.797 55.801,57.594 C56.826,56.633 62.335,53.238 63.552,52.79 C63.808,53.751 66.05,53.046 67.459,52.278 C68.868,51.509 70.149,49.459 68.996,48.562 C67.843,47.665 58.235,53.879 56.826,50.164 C55.416,46.448 56.569,42.605 61.502,39.146 C66.434,35.687 69.701,33.829 73.416,34.085 C76.043,34.278 76.235,36.712 76.235,37.416 C74.954,37.865 70.598,39.658 69.253,40.363 C69.189,39.594 67.523,38.377 64.448,40.491 C62.911,41.644 62.783,43.566 63.936,44.206 C65.089,44.847 67.972,43.246 68.996,42.861 C70.021,42.477 73.801,40.747 75.594,42.477 C76.491,43.246 77.324,44.527 76.875,46 L82.769,29.473 C84.562,28.833 89.879,27.808 91.48,27.68 L98.527,42.541 L105.061,27.231 C106.406,27.167 112.875,28 114.349,28.577 L121.972,48.05 C121.972,46.897 123.125,32.356 123.253,31.011 C125.559,31.523 134.655,35.046 140.484,39.851 C142.214,41.196 146.505,45.744 143.302,47.922 C142.598,48.37 140.612,47.922 139.972,47.794 z M90.648,77.964 L90.648,77.964 L110.569,77.964 L109.737,80.527 L91.544,80.527 L90.648,77.964 z M86.1,94.683 L86.1,94.683 C85.203,92.826 83.345,90.904 80.335,91.032 C79.181,91.032 78.093,91.288 77.068,91.673 C77.26,90.456 77.644,89.302 78.157,88.598 C79.438,86.932 80.783,86.676 81.936,86.612 C83.281,86.548 84.306,87.701 84.306,87.701 C84.883,88.406 85.715,88.79 86.548,88.726 C86.548,91.544 88.854,93.786 91.673,93.786 C94.491,93.786 96.797,91.48 96.797,88.662 L99.423,88.662 L99.423,86.292 L89.11,86.292 C89.559,84.947 90.071,83.409 91.224,83.345 C91.224,83.345 108.135,83.345 108.007,83.345 C109.609,83.345 110.121,84.178 110.121,84.178 C107.431,85.843 105.829,87.381 105.829,87.381 L107.495,89.879 C110.698,86.74 116.911,84.178 116.911,84.178 C114.349,88.854 108.968,93.53 108.968,93.53 C111.082,98.655 109.352,104.932 109.352,104.932 C109.352,104.932 108.263,102.498 107.431,100.961 C104.612,95.772 103.907,101.473 103.907,103.843 C103.907,107.687 102.306,110.441 102.306,110.441 C102.306,110.441 102.114,106.918 101.665,105.445 C99.936,99.872 98.783,105.061 98.014,107.174 C97.438,108.84 96.605,109.032 96.605,109.032 L96.157,105.829 L93.979,107.431 L94.811,113.26 C94.811,113.26 98.142,112.235 99.808,108.327 C99.808,108.327 100.641,113.708 99.744,117.039 C99.744,117.039 101.986,116.335 104.484,111.915 C106.021,109.16 106.278,104.42 106.278,104.42 C107.943,107.238 108.199,111.53 108.199,111.53 C108.199,111.53 110.569,110.633 112.491,104.548 C113.324,101.794 112.811,95.004 112.299,94.427 C112.299,94.427 114.477,92.313 116.463,90.071 C117.167,90.904 120.819,95.324 120.37,99.872 C114.028,97.886 114.413,100.641 116.27,103.907 C116.911,104.996 119.345,107.687 118.897,110.313 C118.705,111.786 118.32,113.452 118.064,114.477 C117.936,114.413 117.872,114.285 117.744,114.221 C115.886,112.811 110.505,108.776 113.58,117.295 C113.58,117.295 115.053,121.779 112.683,125.238 C112.363,125.687 111.915,126.199 111.466,126.776 C110.89,125.687 110.057,124.79 109.224,124.021 C106.47,121.459 104.804,120.947 104.868,126.199 C104.868,128.249 104.548,131.068 104.036,131.9 C103.075,133.438 100.961,134.783 99.039,135.808 C98.847,130.875 98.527,126.007 97.95,124.598 C96.797,121.843 95.708,118.705 92.954,124.47 C92.954,124.534 92.121,126.199 91.544,128.377 C90.391,126.712 89.431,125.367 89.174,125.046 C88.342,123.701 89.943,120.498 91.032,119.089 C93.594,115.63 91.929,114.285 88.534,114.733 C87.957,114.797 87.509,114.925 86.996,115.181 C86.996,114.797 86.996,114.477 86.996,114.221 C86.996,113.324 87.957,111.786 88.598,111.018 C93.274,105.573 89.431,106.534 86.036,107.623 C82.897,108.648 81.552,105.189 81.616,105.253 C83.281,105.893 84.178,105.957 85.779,105.573 C89.367,104.74 95.836,97.63 95.836,97.63 L86.1,94.683 z M91.609,91.673 L91.609,91.673 C89.943,91.673 88.598,90.327 88.598,88.662 L90.263,88.662 C90.263,89.623 90.648,90.263 91.544,90.263 C92.441,90.263 92.954,89.623 92.954,88.662 L94.619,88.662 C94.619,90.327 93.274,91.673 91.609,91.673 z M65.922,95.452 L65.922,95.452 C67.267,96.733 69.573,98.847 72.52,98.655 C75.466,98.527 78.733,96.861 80.655,97.117 C82.577,97.374 85.075,97.758 86.676,100.641 C85.972,100.32 83.986,99.552 82.577,99.552 C81.167,99.552 76.363,101.922 73.48,101.601 C70.598,101.281 67.972,99.488 65.922,95.452 z M75.915,86.868 L75.915,86.868 C73.48,90.071 73.865,96.605 73.865,96.605 C73.865,96.605 76.875,93.658 80.014,93.658 C83.345,93.658 83.73,96.925 83.73,96.925 L90.456,98.847 C90.456,98.847 87.125,102.37 84.498,103.267 C81.872,104.228 78.285,102.242 78.285,102.242 C78.285,102.242 78.733,107.367 80.783,108.968 C82.705,110.569 84.306,110.505 86.292,109.288 C86.292,109.288 84.05,111.851 83.986,114.157 C83.986,116.27 84.242,121.139 84.242,121.139 C84.242,121.139 86.612,117.68 88.534,117.423 C88.534,117.423 84.306,122.996 86.612,126.52 C87.317,127.544 93.082,135.488 93.082,135.488 C93.082,135.488 93.146,133.246 93.402,131.388 C93.786,128.505 95.132,125.623 95.132,125.623 C95.772,127.352 96.157,139.907 96.157,139.907 C96.157,139.907 103.523,137.409 106.021,133.31 C107.302,131.26 107.238,126.199 107.238,126.199 C109.224,127.673 110.249,131.836 110.249,131.836 C110.249,131.836 113.196,128.762 114.605,126.776 C117.872,122.1 115.822,116.399 115.822,116.399 C117.488,117.68 119.345,121.459 119.345,121.459 C119.345,121.459 119.537,117.744 120.05,116.27 C120.37,115.374 120.947,112.811 121.267,110.762 C122.036,106.085 117.872,101.986 117.872,101.986 C117.872,101.986 120.242,102.434 121.907,104.548 C121.907,104.548 122.42,103.715 122.804,100.192 C123.509,93.722 118,88.021 118,88.021 C118,88.021 118.961,86.676 119.73,84.69 C120.498,82.705 120.754,80.335 120.754,80.335 C117.423,79.822 112.619,82.192 112.619,82.192 C112.299,81.488 112.043,81.103 111.402,80.847 C111.53,80.847 111.594,80.975 111.722,80.975 L119.537,62.591 C115.63,62.463 110.954,64.833 114.093,69.189 C114.157,69.381 113.964,69.445 113.836,69.317 C113.26,68.74 112.491,68.356 111.594,68.356 C109.929,68.356 108.584,69.701 108.584,71.367 C108.584,73.032 109.929,74.377 111.594,74.377 C111.851,74.377 112.043,74.377 112.235,74.313 C107.367,78.797 102.498,74.89 101.922,72.84 C102.498,73.288 103.139,73.544 103.907,73.544 C105.573,73.544 106.918,72.199 106.918,70.534 C106.918,68.868 105.573,67.523 103.907,67.523 C103.395,67.523 102.947,67.651 102.498,67.843 C103.011,67.331 103.331,66.626 103.331,65.794 C103.331,64.128 101.986,62.783 100.32,62.783 C98.655,62.783 97.31,64.128 97.31,65.794 C97.31,66.626 97.694,67.395 98.27,67.972 C97.822,67.715 97.246,67.523 96.669,67.523 C95.004,67.523 93.658,68.868 93.658,70.534 C93.658,72.199 95.004,73.544 96.669,73.544 C97.31,73.544 97.95,73.352 98.463,72.968 C95.708,78.349 88.662,75.53 88.47,74.313 C88.726,74.377 88.918,74.377 89.11,74.377 C90.776,74.377 92.121,73.032 92.121,71.367 C92.121,69.701 90.776,68.356 89.11,68.356 C88.214,68.356 87.445,68.74 86.868,69.317 C86.74,69.445 86.548,69.381 86.612,69.189 C89.751,64.833 85.075,62.463 81.167,62.591 L88.982,80.911 C89.11,80.847 89.174,80.847 89.238,80.847 C88.79,81.039 88.406,81.359 88.085,81.808 C87.317,82.897 86.356,85.907 86.356,85.907 C86.356,85.907 84.626,83.73 81.808,83.794 C80.078,83.858 77.836,84.306 75.915,86.868 z" fill="#000000"/>
  </g>
</svg>
