<?xml version="1.0" encoding="UTF-8"?>
<!DOCTYPE svg PUBLIC "-//W3C//DTD SVG 1.1//EN" "http://www.w3.org/Graphics/SVG/1.1/DTD/svg11.dtd">
<svg version="1.1" xmlns="http://www.w3.org/2000/svg" xmlns:xlink="http://www.w3.org/1999/xlink" x="0" y="0" width="200" height="200" viewBox="0, 0, 200, 200">
  <g id="Layer_1">
    <path d="M117.293,94.652 C117.293,94.041 117.293,93.43 117.293,92.879 C117.293,93.43 117.293,93.98 117.293,94.652 L117.293,94.652 z M117.293,92.696 L117.293,92.696 C117.293,92.452 117.293,92.268 117.293,92.146 C117.293,92.329 117.293,92.513 117.293,92.696 z M117.293,91.718 L117.293,91.718 C117.293,91.596 117.293,91.474 117.293,91.413 C117.293,91.474 117.293,91.596 117.293,91.718 z M82.953,93.796 L82.953,93.796 C82.953,94.285 82.953,94.835 82.953,95.447 C82.953,94.896 82.953,94.346 82.953,93.796 z M82.891,91.168 L82.891,91.168 C82.891,91.413 82.891,91.902 82.891,92.696 C82.891,92.024 82.891,91.474 82.891,91.168 z M82.953,104.676 L82.953,104.676 C82.953,105.287 82.953,105.837 82.953,106.326 C82.953,105.837 82.953,105.226 82.953,104.676 z M82.891,107.426 L82.891,107.426 C82.891,108.221 82.891,108.71 82.891,108.954 C82.891,108.71 82.891,108.16 82.891,107.426 z M117.293,105.409 L117.293,105.409 C117.293,106.081 117.293,106.632 117.293,107.182 C117.293,106.693 117.293,106.081 117.293,105.409 z M117.293,107.426 L117.293,107.426 C117.293,107.61 117.293,107.793 117.293,107.976 C117.293,107.793 117.293,107.61 117.293,107.426 z M117.293,108.343 L117.293,108.343 C117.293,108.465 117.293,108.587 117.293,108.649 C117.293,108.587 117.293,108.465 117.293,108.343 z M105.498,94.835 L105.498,94.835 L117.047,95.691 C116.679,74.91 115.757,42.822 111.211,23.385 L103.471,23.385 L105.498,94.835 z M111.211,176.737 L111.211,176.737 C115.819,157.301 116.679,125.212 117.047,104.431 L105.498,105.287 L103.471,176.737 L111.211,176.737 z M94.563,94.835 L94.563,94.835 L96.529,23.385 L88.973,23.385 C84.427,42.822 83.506,74.91 83.137,95.691 L94.563,94.835 z M88.973,176.737 L88.973,176.737 L96.591,176.737 L94.563,105.287 L83.137,104.431 C83.506,125.212 84.427,157.301 88.973,176.737 z M124.481,95.997 L124.481,95.997 L131.299,96.424 L131.299,103.453 L124.481,104.003 C124.235,137.192 121.225,174.414 116.187,186.088 L100.092,190 L83.997,186.088 C78.96,174.475 75.949,137.192 75.704,104.065 L68.701,103.514 L68.701,96.486 L75.704,95.935 C75.949,62.808 78.96,25.586 83.997,13.912 L100.092,10 L116.187,13.912 C121.225,25.586 124.235,62.869 124.481,95.997 z" fill="#000000"/>
  </g>
</svg>
