<?xml version="1.0" encoding="UTF-8"?>
<!DOCTYPE svg PUBLIC "-//W3C//DTD SVG 1.1//EN" "http://www.w3.org/Graphics/SVG/1.1/DTD/svg11.dtd">
<svg version="1.1" xmlns="http://www.w3.org/2000/svg" xmlns:xlink="http://www.w3.org/1999/xlink" x="0" y="0" width="200" height="200" viewBox="0, 0, 200, 200">
  <g id="citroen">
    <path d="M184.563,172.461 C184.65,170.381 184.729,167.747 184.729,165.081 C184.729,159.382 180.056,153.98 180.015,153.933 C156.135,127.469 115.785,88.322 100.779,86.964 C100.476,86.931 100.001,86.961 100.001,86.961 C100.009,105.03 100.61,104.184 89.954,108.687 C88.856,109.149 53.119,124.254 19.033,155.129 C14.89,159.813 15.273,164.495 15.273,164.495 C15.273,167.33 15.36,169.266 15.454,172.449 C31.176,158.97 77.828,120.668 100.001,120.668 C122.162,120.668 168.849,158.994 184.563,172.461 z M183.921,150.369 C184.167,150.646 190,157.31 190,165.081 C190,171.13 189.598,177.218 189.596,177.265 C189.584,177.557 189.442,180.13 188.017,180.828 C187.784,180.94 187.538,180.999 187.279,180.999 C186.74,180.999 186.14,180.754 185.477,180.266 C184.866,179.724 123.991,125.975 100,125.975 C76.012,125.975 15.138,179.724 14.494,180.292 C13.852,180.761 13.261,181 12.73,181 C12.47,181 12.22,180.943 11.989,180.828 C10.561,180.13 10.419,177.557 10.407,177.277 C10.402,177.218 10,171.13 10,165.081 C10,157.31 15.833,150.646 16.081,150.369 L16.084,150.366 C18.617,147.556 78.374,81.622 100,81.622 C121.629,81.622 181.384,147.556 183.921,150.369 z M184.479,109.749 C184.564,107.672 184.644,105.042 184.644,102.377 C184.644,96.685 179.975,91.287 179.934,91.24 C156.078,64.803 115.77,25.695 100.779,24.337 C100.475,24.305 100.001,24.335 100.001,24.335 C100.009,42.385 100.609,41.54 89.963,46.039 C88.867,46.501 53.166,61.591 19.113,92.436 C14.975,97.114 15.358,101.793 15.358,101.793 C15.358,104.623 15.445,106.558 15.539,109.737 C31.245,96.273 77.851,58.009 100.001,58.009 C122.14,58.009 168.779,96.297 184.479,109.749 z M183.838,87.678 C184.084,87.955 189.91,94.613 189.91,102.377 C189.91,108.42 189.509,114.502 189.506,114.549 C189.495,114.841 189.354,117.41 187.929,118.108 C187.696,118.221 187.45,118.277 187.191,118.277 C186.654,118.277 186.054,118.035 185.392,117.548 C184.781,117.003 123.967,63.309 100,63.309 C76.036,63.309 15.222,117.003 14.58,117.572 C13.938,118.042 13.348,118.279 12.817,118.279 C12.558,118.279 12.309,118.222 12.077,118.108 C10.65,117.41 10.51,114.841 10.497,114.561 C10.493,114.502 10.09,108.42 10.09,102.377 C10.09,94.613 15.917,87.955 16.166,87.678 L16.169,87.675 C18.699,84.87 78.396,19 100,19 C121.608,19 181.301,84.87 183.838,87.678 z" fill="#000000" id="Citroen"/>
  </g>
</svg>
