<?xml version="1.0" encoding="UTF-8"?>
<!DOCTYPE svg PUBLIC "-//W3C//DTD SVG 1.1//EN" "http://www.w3.org/Graphics/SVG/1.1/DTD/svg11.dtd">
<svg version="1.1" xmlns="http://www.w3.org/2000/svg" xmlns:xlink="http://www.w3.org/1999/xlink" x="0" y="0" width="200" height="200" viewBox="0, 0, 200, 200">
  <g id="Layer_1">
    <path d="M162.147,62.485 C145.735,52.926 123.706,46.485 99.794,46.485 C75.882,46.485 54.059,52.926 37.647,62.485 C20.794,72.456 10,86.397 10,100.309 C10,114.044 20.588,127.75 37.647,137.721 C53.853,147.279 75.882,153.515 99.794,153.515 C123.706,153.515 145.941,147.279 162.147,137.721 C179.206,127.75 190,114.015 190,100.309 C190,86.191 179.206,72.456 162.147,62.485 z M143.235,75.574 L146.765,66.838 L150.706,75.574 L167.971,79.103 L150.706,82.662 L147.176,92.221 L143.235,82.662 L127.441,79.103 L143.235,75.574 z M137.206,105.103 L119.941,109.044 L116.412,118.191 L112.471,108.632 L96.676,105.103 L112.471,101.574 L116,92.838 L119.941,101.574 L137.206,105.103 z M21.441,89.721 L58.441,81.809 L66.735,60.603 L75.471,80.779 L116,89.721 L75.882,98.015 L67.147,120.074 L58.441,97.603 L21.441,89.721 z M89.206,132.75 L85.647,142.103 L81.706,132.338 L65.912,129.221 L81.706,125.662 L85.235,116.515 L89.206,125.25 L106.235,129.221 L89.206,132.75 z M134.912,129.632 L130.971,138.985 L127.029,129.632 L111.647,126.103 L127.029,122.544 L130.971,113.838 L134.5,122.132 L152.176,126.103 L134.912,129.632 z M161.735,109.044 L158.206,118.191 L154.235,108.632 L138.882,105.103 L154.235,101.574 L158.206,92.838 L161.735,101.574 L178.971,105.103 L161.735,109.044 z" fill="#000000"/>
  </g>
</svg>
