<?xml version="1.0" encoding="UTF-8"?>
<!DOCTYPE svg PUBLIC "-//W3C//DTD SVG 1.1//EN" "http://www.w3.org/Graphics/SVG/1.1/DTD/svg11.dtd">
<svg version="1.1" xmlns="http://www.w3.org/2000/svg" xmlns:xlink="http://www.w3.org/1999/xlink" x="0" y="0" width="200" height="200" viewBox="0, 0, 200, 200">
  <g id="Layer_1">
    <path d="M100,10 C50.427,10 10,50.427 10,100 C10,149.573 50.427,190 100,190 C149.573,190 190,149.573 190,100 C189.965,50.427 149.538,10 100,10 L100,10 z M100,179.607 C56.143,179.607 20.393,143.857 20.393,100 C20.393,56.143 56.143,20.393 100,20.393 C143.857,20.393 179.607,56.143 179.607,100 C179.607,143.857 143.822,179.607 100,179.607 L100,179.607 z M74.226,160.831 L74.226,160.831 L37.021,80.081 C35.012,86.386 33.938,93.072 33.938,100 C33.938,127.263 50.566,150.751 74.226,160.831 z M118.326,163.464 L118.326,163.464 L99.965,120.681 L81.64,163.464 C87.46,165.162 93.591,166.062 99.965,166.062 C106.339,166.062 112.506,165.162 118.326,163.464 z M162.979,80.115 L162.979,80.115 L125.774,160.797 C149.4,150.751 166.062,127.263 166.062,100 C166.062,93.072 164.988,86.386 162.979,80.115 z M133.291,42.979 L133.291,42.979 L110.219,96.848 L89.781,96.848 L66.709,42.979 C58.637,47.691 51.674,54.099 46.236,61.686 L79.146,131.628 L90.231,104.919 L109.769,104.919 L120.855,131.628 L153.764,61.686 C148.326,54.099 141.363,47.725 133.291,42.979 z M100,33.938 L100,33.938 C93.522,33.938 87.286,34.873 81.397,36.605 L100,81.397 L118.603,36.605 C112.714,34.873 106.443,33.938 100,33.938 z" fill="#000000"/>
  </g>
</svg>
