<?xml version="1.0" encoding="UTF-8"?>
<!DOCTYPE svg PUBLIC "-//W3C//DTD SVG 1.1//EN" "http://www.w3.org/Graphics/SVG/1.1/DTD/svg11.dtd">
<svg version="1.1" xmlns="http://www.w3.org/2000/svg" xmlns:xlink="http://www.w3.org/1999/xlink" x="0" y="0" width="200" height="200" viewBox="0, 0, 200, 200">
  <g id="peugeot-alt">
    <path d="M94.246,6.514 C88.295,7.594 82.925,9.358 77.805,11.92 C75.134,13.255 74.344,13.877 71.942,16.538 C71.272,17.28 70.563,17.707 69.242,18.162 C58.168,21.972 56.597,23.245 58.444,26.915 C61.32,32.632 64.731,36.625 67.454,37.467 C69.867,38.213 70.231,38.173 70.739,37.108 C71.592,35.319 75.601,33.63 79.487,33.424 L81.753,33.304 L82.882,34.517 C85.055,36.852 85.789,39.418 84.549,40.335 C82.661,41.731 74.431,42.433 72.537,41.36 L71.452,40.744 L70.743,41.454 C70.353,41.846 69.684,42.342 69.257,42.558 C67.059,43.67 67.069,44.318 69.335,47.791 C73.87,54.744 76.386,55.884 80.786,52.979 C83.958,50.886 85.062,50.774 86.436,52.406 C87.628,53.825 87.077,55.092 83.125,60.027 C80.561,63.229 81.375,63.331 72.23,58.654 C42.545,43.473 43.337,43.778 33.646,43.807 C24.787,43.833 23.832,44.146 19.635,48.412 C15.358,52.758 14.683,54.839 16.379,58.452 C17.789,61.458 17.925,61.518 21.228,60.612 C26.006,59.3 28.968,60.539 29.436,64.046 C29.642,65.594 29.776,65.686 32.104,65.872 C34.54,66.067 37.059,67.263 40.716,69.966 C45.851,73.761 46.01,74.287 42.13,74.649 C36.61,75.164 26.415,77.256 21.819,78.816 C16.242,80.71 14.897,81.753 12.979,85.671 C9.288,93.212 9.249,95.779 12.756,100.137 C14.34,102.107 14.52,102.117 17.868,100.427 C23.784,97.442 26.194,97.361 28.145,100.079 C28.74,100.908 29.178,101.288 29.427,101.193 C32.125,100.157 32.478,100.137 48.042,100.143 C70.756,100.153 72.269,100.541 80.758,108.536 L82.494,110.172 L80.793,113.002 C74.98,122.67 67.082,136.934 63.552,144.135 C60.256,150.86 60.044,151.914 60.267,160.389 L60.445,167.123 L59.815,167.754 C59.016,168.553 56.653,169.115 48.3,170.493 C33.283,172.97 32.943,173.282 31.331,186.019 C30.309,194.1 30.382,194.334 33.744,193.79 C40.612,192.677 58.495,192.616 75.916,193.648 C81.54,193.98 85.243,194.101 85.387,193.956 C85.531,193.812 85.503,191.471 85.315,187.966 C84.69,176.27 84.753,176.03 89.885,170.364 C91.686,168.375 96.801,162.702 101.251,157.757 C113.363,144.298 114.366,143.234 114.954,143.234 C115.173,143.234 115.969,143.722 116.725,144.319 C120.452,147.269 139.318,160.975 141.276,162.157 C143.161,163.295 145.736,164.078 148.563,164.371 C152.222,164.752 153.187,165.476 153.189,167.842 C153.191,169.702 152.809,169.929 148.039,170.922 C135.739,173.48 135.499,173.792 133.793,189.463 C133.24,194.542 132.849,194.219 138.537,193.36 C142.384,192.777 161.496,192.935 171.123,193.629 C175.542,193.946 179.27,194.138 179.408,194.053 C179.547,193.967 180.322,193.005 181.132,191.915 C181.943,190.824 184.317,188.221 186.408,186.128 C190.751,181.783 190.65,182.022 189.466,178.822 C185.048,166.882 172.334,144.041 162.567,130.497 C158.851,125.344 158.867,124.956 162.959,121.302 C179.13,106.868 179.543,102.681 167.327,77.109 C157.115,55.731 156.599,54.523 155.132,48.523 C152.97,39.693 155.963,32.111 161.621,32.088 C163.618,32.08 164.112,32.663 164.346,35.311 C165.307,46.13 172.491,57.005 181.774,61.695 C185.172,63.413 185.416,62.67 183.667,55.924 C183.038,53.495 181.543,47.687 180.346,43.018 C176.553,28.212 175.768,26.636 170.636,23.53 C162.026,18.32 152.518,21.124 146.933,30.522 C146.254,31.663 145.642,32.597 145.572,32.597 C143.163,32.597 134.055,22.767 133.075,19.11 C132.357,16.434 132.581,16.591 125.67,13.933 C109.299,7.638 100.067,5.458 94.246,6.514 M87.119,16.73 C87.119,17.352 81.46,19.733 79.984,19.733 C79.311,19.733 79.185,18.847 79.75,18.074 C80.604,16.906 87.119,15.718 87.119,16.73 M156.873,77.945 C164.51,92.243 165.068,93.436 165.219,95.789 C165.496,100.114 162.44,103.336 154.333,107.261 C147.702,110.473 147.949,110.598 138.064,98.972 C129.236,88.591 128.823,87.944 129.548,85.665 C130.252,83.458 130.855,83.122 139.565,80.09 C149.11,76.768 149.444,76.467 149.744,70.915 C150.055,65.175 150.05,65.17 156.873,77.945" fill="#000000" id="path0"/>
  </g>
</svg>
