<?xml version="1.0" encoding="UTF-8"?>
<!DOCTYPE svg PUBLIC "-//W3C//DTD SVG 1.1//EN" "http://www.w3.org/Graphics/SVG/1.1/DTD/svg11.dtd">
<svg version="1.1" xmlns="http://www.w3.org/2000/svg" xmlns:xlink="http://www.w3.org/1999/xlink" x="0" y="0" width="200" height="200" viewBox="0, 0, 200, 200">
  <g id="Layer_1">
    <path d="M75.532,79.702 C69.743,79.702 64.136,81.547 60.359,85.237 C56.582,88.919 54.679,94.018 54.679,100.534 C54.679,114.306 64.862,121.431 76.687,121.431 C84.409,121.431 92.537,117.16 95.696,109.112 L84.176,109.112 C83.37,111.662 78.975,112.998 76.818,112.998 C74.167,112.998 71.937,112.141 70.15,110.42 C68.363,108.713 67.441,106.308 67.361,103.229 L96.314,103.229 C96.597,88.585 88.97,79.687 75.532,79.702 z M66.889,96.532 C66.867,93.684 67.666,91.447 69.278,89.798 C70.891,88.142 72.939,87.314 75.424,87.314 C77.741,87.314 79.716,88.099 81.336,89.66 C82.949,91.229 83.791,93.517 83.871,96.532 L66.889,96.532 z M113.499,96.546 L130.482,96.546 C130.402,93.532 129.559,91.236 127.947,89.675 C126.327,88.113 124.359,87.329 122.034,87.329 C119.55,87.329 117.502,88.157 115.889,89.813 C114.277,91.462 113.47,93.699 113.499,96.546 z M122.165,79.709 C135.595,79.709 143.208,88.6 142.939,103.25 L113.986,103.25 C114.066,106.33 114.989,108.735 116.775,110.441 C118.562,112.163 120.792,113.02 123.443,113.02 C125.601,113.02 129.995,111.684 130.801,109.134 L142.322,109.134 C139.162,117.182 131.034,121.453 123.313,121.453 C111.48,121.453 101.311,114.328 101.311,100.556 C101.311,94.033 103.214,88.941 106.991,85.244 C110.768,81.554 116.376,79.709 122.165,79.709 z M35.35,101.006 L35.35,64.971 L48.664,64.971 L48.664,100.287 C48.664,115.315 41.924,121.598 28.224,121.874 C14.859,122.143 10.015,110.994 9.985,98.994 L23.554,98.994 C23.823,104.493 22.079,109.933 29.83,109.773 C34.66,109.672 35.35,107.492 35.35,101.006 z M174.608,109.599 C176.562,107.667 177.55,104.478 177.55,100.069 C177.55,95.943 176.533,92.885 174.514,90.888 C172.509,88.898 171.507,87.902 168.536,87.902 C162.435,87.902 160.176,95.028 160.321,99.561 C160.531,105.72 162.892,112.294 168.761,112.294 C171.696,112.294 172.654,111.546 174.608,109.599 z M172.654,79.048 C183.201,79.048 189.985,88.287 189.985,100.004 C189.985,113.325 183.964,121.388 173.221,121.388 C168.274,121.388 164.439,118.845 160.778,115.228 L160.778,135.029 L148.438,134.818 L148.438,80.573 L159.594,80.363 L159.594,86.137 C162.696,81.605 167.635,79.048 172.654,79.048 z" fill="#000000"/>
  </g>
</svg>
