<?xml version="1.0" encoding="UTF-8"?>
<!DOCTYPE svg PUBLIC "-//W3C//DTD SVG 1.1//EN" "http://www.w3.org/Graphics/SVG/1.1/DTD/svg11.dtd">
<svg version="1.1" xmlns="http://www.w3.org/2000/svg" xmlns:xlink="http://www.w3.org/1999/xlink" x="0" y="0" width="200" height="200" viewBox="0, 0, 200, 200">
  <g id="Layer_1">
    <path d="M112.065,170.586 C110.123,171.418 110.123,170.031 111.233,169.476 C117.334,166.703 122.327,161.71 125.378,155.886 C120.385,158.937 116.78,158.382 112.897,160.878 C109.014,163.374 107.35,168.367 102.912,171.418 C107.904,176.41 111.787,177.797 114.561,177.797 C116.78,178.074 118.998,177.797 121.217,177.242 C126.764,176.133 131.479,173.359 135.917,172.527 C126.21,169.199 117.334,168.644 112.065,170.586 z M90.709,178.906 C92.096,178.629 94.037,178.629 95.701,178.629 C87.658,180.847 80.447,184.73 71.017,186.672 C70.462,186.672 70.185,186.672 69.63,186.394 C68.798,185.562 67.966,184.73 67.411,183.898 C76.009,183.898 84.607,180.57 90.709,178.906 z M139.8,164.484 C145.624,163.652 150.339,164.484 153.667,164.484 C151.726,165.593 147.843,167.257 146.733,168.089 C138.413,173.636 131.202,167.257 125.655,167.812 C130.092,166.148 134.807,164.761 139.8,164.484 z M121.495,166.425 C125.1,163.929 127.319,158.382 129.26,156.441 C134.53,151.448 137.026,152.28 141.464,149.23 C137.858,157.827 130.37,164.206 121.495,166.425 z M82.666,13.606 C79.337,16.656 74.9,19.153 70.185,20.262 C68.243,20.539 66.025,20.539 63.806,20.539 C67.689,16.102 72.681,12.496 82.666,13.606 z M60.478,28.028 C58.536,28.305 56.872,28.305 55.208,28.028 C59.368,23.867 65.193,21.926 71.017,23.313 C67.966,25.809 64.361,27.473 60.478,28.028 z M39.954,35.516 C38.29,36.903 35.794,39.122 35.516,39.676 C36.626,32.188 41.341,26.086 48.274,23.313 C46.61,28.028 43.837,32.188 39.954,35.516 z M42.727,35.794 C46.333,31.356 52.157,29.137 57.704,30.247 C54.931,33.02 51.602,34.684 47.997,35.516 C46.055,35.794 44.391,35.794 42.727,35.794 z M48.552,38.29 C45.501,41.618 41.895,44.114 38.012,45.501 C36.348,46.055 34.684,46.61 33.02,47.165 C36.626,41.341 39.954,38.567 48.552,38.29 z M63.529,15.27 C60.478,21.371 57.427,25.254 49.661,27.75 C51.88,21.094 54.931,18.043 63.529,15.27 z M30.801,62.974 C29.137,68.521 26.641,73.79 23.035,78.228 C22.203,79.337 21.649,80.724 20.817,81.834 C19.707,74.068 23.867,66.579 30.801,62.974 z M10,105.131 C16.379,110.123 21.094,117.057 23.867,124.823 C20.539,122.049 12.219,118.721 11.109,110.678 C10.832,108.737 10.555,107.072 10,105.131 z M45.223,147.843 C40.508,143.96 33.575,138.136 35.239,128.428 C37.458,131.202 39.399,134.253 41.341,137.304 C43.282,141.186 44.114,145.624 45.223,147.843 z M60.755,158.382 C52.435,155.331 46.333,147.843 45.223,139.245 C48.829,143.405 49.938,143.128 54.099,147.565 C56.317,149.784 58.259,155.886 60.755,158.382 z M15.27,123.159 C22.758,127.596 29.692,133.143 33.297,140.077 C26.918,138.136 20.817,134.807 18.043,128.706 C16.934,126.487 15.547,123.991 15.27,123.159 z M33.852,153.39 C39.954,154.499 49.661,154.777 59.368,161.433 C52.435,160.046 44.669,162.542 38.567,157.273 C36.626,155.609 34.684,153.945 33.852,153.39 z M24.7,140.077 C33.02,142.018 40.786,146.456 46.888,152.835 C42.173,151.171 33.852,152.003 28.305,144.792 C26.918,143.128 25.254,140.632 24.7,140.077 z M32.188,128.151 C32.188,130.092 32.465,132.034 33.02,133.975 C26.364,125.378 25.532,118.998 27.473,111.787 C28.028,116.225 32.743,119.553 32.188,128.151 z M23.59,116.78 C19.707,109.291 19.153,103.19 24.422,95.146 C24.977,100.971 25.809,104.576 24.422,110.678 C24.145,112.619 23.867,114.561 23.59,116.78 z M13.606,104.576 C8.059,99.029 11.109,91.263 10,85.162 C14.992,92.096 17.766,100.693 17.488,109.291 C16.379,107.904 14.992,105.686 13.606,104.576 z M19.43,97.365 C18.598,87.103 22.481,82.943 27.473,77.951 C25.809,82.943 26.641,87.935 21.649,93.76 C20.817,94.869 19.985,96.256 19.43,97.365 z M18.598,72.404 C18.875,72.126 17.211,66.025 16.934,63.529 C16.934,57.982 20.817,53.821 22.203,50.216 C23.867,58.259 22.203,64.638 18.598,72.404 z M16.379,90.709 C15.547,89.045 14.438,87.381 13.606,85.994 C9.723,79.06 13.883,71.849 14.992,67.411 C19.153,77.396 17.488,81.834 16.379,90.709 z M39.122,47.997 C36.903,52.435 33.575,56.317 29.692,59.368 C28.028,60.2 24.977,62.419 24.7,62.696 C26.641,55.763 31.911,49.938 39.122,47.997 z M25.254,54.653 C25.254,52.712 24.7,51.325 24.977,49.661 C25.254,46.055 26.641,42.727 28.86,39.954 C30.247,38.29 31.633,36.626 33.02,34.961 C32.465,42.173 29.692,49.106 25.254,54.653 z M136.194,20.539 C133.975,20.539 131.757,20.539 129.538,20.262 C125.1,19.153 120.94,16.934 117.334,13.606 C127.042,12.496 132.311,16.102 136.194,20.539 z M129.26,23.035 C135.085,21.926 140.909,23.867 144.792,28.028 C143.128,28.305 141.186,28.305 139.522,28.028 C135.639,27.473 132.034,25.809 129.26,23.035 z M160.046,35.516 C156.441,32.188 153.667,28.028 151.726,23.035 C158.659,25.809 163.374,32.188 164.484,39.399 C164.206,39.122 161.433,36.903 160.046,35.516 z M157.273,35.794 C155.609,35.794 153.945,35.794 152.28,35.516 C148.675,34.684 145.069,33.02 142.573,30.247 C148.12,29.414 153.667,31.356 157.273,35.794 z M151.448,38.29 C160.046,38.567 163.652,41.341 166.98,47.442 C165.316,46.888 163.652,46.333 161.988,45.778 C158.105,44.114 154.499,41.618 151.448,38.29 z M150.616,27.75 C142.851,25.254 139.8,21.371 136.749,15.27 C145.069,18.043 148.12,21.094 150.616,27.75 z M177.242,78.505 C173.636,73.79 170.863,68.521 169.476,63.251 C176.41,66.579 180.293,74.345 179.461,82.111 C178.906,80.724 178.074,79.615 177.242,78.505 z M176.133,124.545 C178.906,117.057 183.621,110.123 190,104.854 C189.445,106.795 189.168,108.459 188.891,110.401 C187.781,118.444 179.461,121.772 176.133,124.545 z M164.761,128.428 C166.425,138.136 159.492,143.96 154.777,147.843 C155.886,145.347 156.718,140.909 158.659,137.304 C160.601,134.253 162.542,131.202 164.761,128.428 z M154.777,139.245 C153.667,148.12 147.843,155.609 139.245,158.382 C141.464,156.163 143.683,150.062 145.901,147.565 C150.339,142.851 151.171,143.405 154.777,139.245 z M166.98,139.8 C170.586,133.143 177.519,127.596 185.008,122.881 C184.453,123.713 183.344,126.21 182.234,128.428 C179.461,134.253 173.082,137.581 166.98,139.8 z M161.71,157.273 C155.609,162.542 147.843,160.046 140.909,161.71 C150.616,154.777 160.324,154.777 166.425,153.39 C165.593,153.945 163.652,155.609 161.71,157.273 z M153.112,152.835 C160.324,144.515 169.753,141.741 175.3,140.077 C174.746,140.632 173.082,142.851 171.695,144.792 C166.425,151.726 157.827,150.894 153.112,152.835 z M172.804,111.787 C174.746,118.998 173.636,125.378 167.535,133.975 C167.812,132.034 168.089,130.092 168.089,128.151 C167.535,119.553 172.25,116.225 172.804,111.787 z M175.578,110.678 C174.191,104.299 175.023,100.971 175.3,95.424 C180.847,103.467 180.293,109.569 176.41,117.057 C176.41,114.838 176.133,112.619 175.578,110.678 z M182.512,109.291 C182.234,100.693 185.008,92.096 190,85.162 C188.891,91.263 191.941,99.029 186.394,104.576 C185.285,105.963 183.621,107.904 182.512,109.291 z M172.527,77.951 C177.797,82.943 181.402,87.103 180.57,97.365 C180.015,96.256 179.183,94.869 178.351,93.76 C173.359,87.935 174.191,82.943 172.527,77.951 z M182.789,63.529 C182.789,66.025 181.125,72.126 181.125,72.404 C177.519,64.638 175.855,58.259 177.519,50.216 C179.183,54.099 182.789,57.982 182.789,63.529 z M183.621,90.709 C182.512,81.834 181.125,77.396 185.008,67.411 C185.84,71.849 190,79.06 186.394,85.994 C185.285,87.381 184.453,89.045 183.621,90.709 z M170.308,59.368 C166.425,56.317 163.097,52.435 160.878,47.997 C167.812,49.938 173.359,55.485 175.023,62.696 C174.746,62.419 171.972,60.478 170.308,59.368 z M175.3,49.661 C175.3,51.325 174.746,52.712 175.023,54.653 C170.308,49.106 167.535,42.173 167.257,34.961 C168.367,36.626 170.308,38.29 171.695,39.954 C173.914,42.727 175.3,46.055 175.3,49.661 z M87.381,161.71 C90.154,163.652 94.592,168.089 98.475,171.695 C105.686,177.797 114.838,183.344 132.034,184.453 C131.479,185.285 130.647,186.117 130.092,186.672 C129.538,187.227 128.706,187.504 127.874,187.227 C107.627,182.234 106.24,177.519 97.643,176.965 C90.986,176.687 86.549,179.183 81.002,178.629 C74.622,178.074 68.798,174.746 64.083,173.636 C71.017,170.031 82.388,169.199 87.935,171.418 C89.877,172.25 89.322,170.586 88.213,170.031 C82.388,166.98 77.673,162.265 74.345,156.718 C76.841,158.382 82.388,158.382 87.381,161.71 z M74.068,167.812 C68.521,166.98 61.31,173.636 53.267,168.089 C52.157,167.535 48.274,165.593 46.333,164.484 C49.661,164.761 54.099,163.929 59.923,164.484 C64.638,164.761 69.63,165.871 74.068,167.812 z M78.228,166.425 C69.353,164.206 61.864,157.827 58.259,149.23 C62.696,152.28 64.915,151.448 70.462,156.441 C72.404,158.382 74.9,163.652 78.228,166.425 z M71.572,77.673 C71.849,77.396 71.849,77.951 71.849,78.228 C71.849,78.505 71.294,79.06 71.294,79.337 C70.74,80.724 69.63,81.556 68.243,81.556 C67.411,81.556 66.302,81.556 65.193,81.556 C65.193,81.556 64.915,81.556 64.915,81.556 C64.083,81.279 63.806,80.447 64.083,79.892 C64.361,79.337 64.361,79.06 64.361,78.505 C64.361,77.951 64.361,77.396 63.806,77.396 C63.251,77.396 63.251,77.119 63.529,76.841 L64.638,76.009 C64.915,75.732 65.47,75.455 66.025,75.732 C66.579,76.287 66.579,76.841 66.302,77.396 C66.025,77.673 66.025,77.673 66.025,77.951 C66.025,78.228 66.025,78.505 66.579,78.228 L67.689,77.951 C68.243,77.673 69.076,77.673 69.908,77.951 C70.462,77.951 70.74,77.951 71.017,77.951 L71.572,77.673 z M92.65,77.673 C92.928,77.396 93.482,77.951 93.482,78.228 C93.482,78.505 92.928,79.06 92.928,79.337 C92.373,80.724 91.263,81.556 89.877,81.556 C89.045,81.556 87.935,81.556 86.826,81.556 C86.549,81.556 86.549,81.556 86.271,81.556 C85.439,81.279 85.162,80.447 85.439,79.892 C85.439,79.337 85.716,79.06 85.716,78.505 C85.716,77.951 85.716,77.396 85.162,77.396 C84.607,77.396 84.607,77.119 84.884,76.841 L85.994,76.009 C86.271,75.732 86.826,75.455 87.381,75.732 C87.658,76.287 87.658,76.841 87.381,77.396 L87.103,77.951 C87.103,78.228 87.103,78.505 87.658,78.228 L88.767,77.951 C89.599,77.673 90.431,77.673 91.263,77.951 C91.541,77.951 91.818,77.951 92.096,77.951 L92.65,77.673 z M100.139,49.106 C100.139,49.106 100.139,49.106 100.139,49.106 C98.197,49.106 96.81,47.72 96.81,45.778 L96.81,45.778 C96.81,43.837 98.197,42.45 100.139,42.45 C102.08,42.45 103.467,43.837 103.467,45.778 C103.467,47.72 101.803,49.106 100.139,49.106 z M86.549,50.216 C86.549,50.216 86.549,50.216 86.549,50.216 C84.884,50.493 83.22,49.384 82.943,47.442 C82.666,45.778 84.052,44.114 85.716,43.837 C87.381,43.559 89.045,44.946 89.322,46.61 C89.599,48.274 88.213,49.938 86.549,50.216 z M71.572,47.442 C73.236,46.888 74.9,47.997 75.455,49.384 C76.009,51.048 75.177,52.989 73.513,53.544 C73.513,53.544 73.236,53.544 73.236,53.544 C71.572,54.099 69.908,52.989 69.353,51.325 C68.798,49.661 69.908,47.997 71.572,47.442 z M58.259,52.989 C59.646,52.157 61.587,52.989 62.142,54.099 C62.419,54.376 62.696,54.931 62.696,55.208 C63.251,56.872 62.419,58.536 60.755,59.091 C59.091,59.646 57.427,58.814 56.872,57.149 C56.872,57.149 56.872,57.149 56.872,57.149 C56.04,55.763 56.595,53.821 58.259,52.989 z M113.451,50.216 C113.451,50.216 113.451,50.216 113.451,50.216 C111.51,49.938 110.401,48.274 110.678,46.61 C110.955,44.946 112.619,43.559 114.284,43.837 C115.948,44.114 117.334,45.778 117.057,47.442 C116.78,49.106 115.116,50.493 113.451,50.216 z M126.487,53.544 C126.487,53.544 126.487,53.544 126.487,53.544 C124.823,52.989 123.713,51.048 124.545,49.384 C125.1,47.72 127.042,46.888 128.706,47.442 C130.37,47.997 131.202,49.938 130.647,51.602 C130.092,53.267 128.151,54.099 126.487,53.544 z M138.968,58.536 C138.69,58.536 138.69,58.536 138.69,58.536 C137.304,57.704 136.749,55.763 137.581,54.099 C138.413,52.712 140.354,52.157 142.018,52.989 C142.018,52.989 142.018,52.989 142.018,52.989 C143.683,53.544 144.237,55.485 143.405,57.149 C142.573,58.814 140.632,59.368 138.968,58.536 z M106.795,108.182 C106.24,108.182 105.963,107.627 106.518,107.35 L107.627,106.518 C107.904,106.24 108.459,105.963 109.014,106.24 C109.291,106.795 109.291,107.35 109.014,107.904 L108.737,108.459 C108.737,108.737 108.737,109.014 109.291,108.737 C109.846,108.737 110.123,108.737 110.401,108.459 C111.233,108.182 112.065,108.182 112.897,108.459 C113.174,108.459 113.451,108.459 113.729,108.459 C113.729,108.459 114.006,108.459 114.284,108.459 C114.561,108.182 115.116,108.459 114.838,109.014 C114.561,109.291 114.561,109.846 114.284,110.123 C113.729,111.51 112.619,112.342 111.233,112.342 C110.401,112.342 109.291,112.342 108.182,112.342 C108.182,112.342 107.904,112.342 107.904,112.342 C107.072,112.065 106.795,111.51 107.072,110.678 C107.072,110.123 107.35,109.846 107.35,109.291 C107.35,108.737 107.35,108.182 106.795,108.182 z M126.487,108.182 C126.21,108.182 125.932,107.627 125.932,107.627 L127.042,106.795 C127.319,106.518 127.874,106.24 128.428,106.518 C128.983,107.072 128.983,107.627 128.706,108.182 C128.428,108.459 128.428,108.459 128.428,108.737 C128.428,109.014 128.428,109.291 128.983,109.014 C129.538,109.014 129.815,109.014 130.092,108.737 C130.647,108.459 131.479,108.459 132.311,108.737 C132.866,108.737 133.143,108.737 133.421,108.737 C133.698,108.737 133.698,108.459 133.975,108.459 C134.253,108.182 134.807,108.459 134.53,109.014 C134.253,109.291 134.253,109.846 133.975,110.123 C133.421,111.51 132.311,112.342 130.924,112.342 C130.092,112.342 128.983,112.342 127.874,112.342 C127.874,112.342 127.596,112.342 127.596,112.342 C126.764,112.065 126.487,111.51 126.764,110.678 C127.042,110.123 127.042,109.846 127.042,109.291 C127.042,108.737 127.042,108.182 126.487,108.182 z M75.177,96.81 C74.9,96.81 74.622,96.256 74.622,96.256 C74.9,95.978 75.455,95.701 75.732,95.424 C76.009,95.146 76.564,94.869 77.119,95.146 C77.673,95.701 77.673,96.256 77.396,96.81 C77.119,97.088 77.119,97.088 77.119,97.365 C77.119,97.643 77.119,97.643 77.673,97.643 L78.783,97.365 C79.337,97.088 80.169,97.088 81.002,97.365 C81.556,97.365 81.834,97.365 82.111,97.365 C82.388,97.365 82.388,97.088 82.666,97.088 C82.943,96.81 83.498,97.088 83.22,97.643 C83.22,97.92 82.666,98.475 82.666,98.752 C82.111,100.139 81.002,100.971 79.615,100.971 C78.783,100.971 77.673,100.971 76.564,100.971 C76.564,100.971 76.287,100.971 76.287,100.971 C75.455,100.693 75.177,100.139 75.455,99.307 C75.455,98.752 75.732,98.475 75.732,97.92 C75.732,97.365 75.732,96.81 75.177,96.81 z M115.67,127.319 C115.116,127.596 115.116,127.042 115.393,126.764 L116.502,125.932 C116.78,125.655 117.334,125.378 117.889,125.655 C118.166,126.21 118.166,126.764 117.889,127.319 L117.612,127.874 C117.612,128.151 117.612,128.428 118.166,128.151 C118.721,128.151 118.998,128.151 119.276,127.874 C120.108,127.596 120.94,127.596 121.772,127.874 C122.049,127.874 122.327,127.874 122.604,127.874 C122.881,127.874 122.881,127.596 123.159,127.596 C123.436,127.319 123.713,127.874 123.713,128.151 C123.713,128.428 123.159,128.983 123.159,129.26 C122.604,130.647 121.495,131.479 120.108,131.479 C119.276,131.479 118.166,131.479 117.057,131.479 C117.057,131.479 116.78,131.479 116.78,131.479 C115.948,131.202 115.67,130.647 115.948,129.815 C115.948,129.26 116.225,128.983 116.225,128.428 C116.225,127.874 116.225,127.319 115.67,127.319 z M85.162,41.341 C81.834,41.618 79.892,44.669 79.892,48.274 C79.892,48.829 80.169,49.384 80.447,49.938 L78.228,50.493 C77.673,47.165 74.622,44.946 71.294,45.501 C67.966,46.055 65.747,49.106 66.302,52.435 C66.579,52.989 66.857,53.544 67.134,54.099 L64.915,54.931 C64.915,54.376 64.638,53.821 64.361,53.267 C63.806,52.157 62.974,51.325 61.864,50.77 C59.091,49.384 55.485,50.493 53.821,53.267 C52.435,56.04 53.544,59.646 56.317,61.31 L63.806,65.47 L64.638,57.982 C66.302,57.149 67.689,56.595 69.076,56.04 L75.177,60.478 L77.396,53.267 C79.06,52.712 80.447,52.435 82.111,52.157 L87.381,57.704 L90.709,50.77 C92.373,50.77 93.76,50.493 95.424,50.493 L99.861,56.595 L104.022,50.493 C105.686,50.493 107.072,50.493 108.737,50.77 L112.065,57.704 L117.334,52.157 C118.998,52.435 120.663,52.712 122.049,53.267 L124.268,60.478 L129.815,56.04 C131.479,56.595 132.866,57.427 134.253,57.982 L135.362,65.47 L142.851,61.31 C143.96,60.755 144.792,59.923 145.347,58.814 C147.011,55.763 145.901,52.157 142.851,50.77 C139.8,49.106 136.194,50.216 134.807,53.267 C134.53,53.821 134.253,54.376 134.253,54.931 L132.034,54.099 C132.311,53.821 132.589,53.267 132.866,52.712 C133.975,49.661 132.311,46.333 129.26,45.223 C126.21,44.114 122.881,45.778 121.772,48.829 C121.495,49.384 121.495,49.938 121.495,50.493 L118.998,49.938 C119.553,49.384 119.831,48.552 119.831,47.72 C120.108,44.391 117.889,41.341 114.561,41.063 C111.233,40.786 108.182,43.005 107.904,46.333 C107.904,47.165 107.904,47.72 107.904,48.274 L105.686,47.997 C105.963,47.165 105.963,46.61 105.963,46.055 C105.963,45.778 105.963,45.501 105.963,45.223 C105.686,41.895 102.912,39.399 99.584,39.676 C96.256,39.954 93.76,42.727 94.037,46.055 C94.037,46.888 94.037,47.442 94.314,47.997 L92.096,48.274 C92.096,47.442 92.096,46.888 92.096,46.333 C91.541,43.005 88.49,40.786 85.162,41.341 z M145.347,78.783 L145.347,78.783 L121.217,78.505 L121.217,82.666 L141.464,82.666 L145.347,78.783 z M139.8,103.19 L140.077,103.19 L140.077,89.322 L121.217,89.322 L121.217,103.19 L139.8,103.19 z M139.8,114.284 L139.8,114.284 L139.8,104.299 L100.693,104.299 L100.693,114.284 L139.8,114.284 z M139.8,122.327 L139.8,115.67 L100.693,115.67 L100.693,122.327 L139.8,122.327 z M132.034,132.311 L132.034,132.311 C138.136,131.757 139.8,128.706 139.8,123.713 L100.693,123.713 L100.693,138.136 C103.19,136.194 106.24,135.085 109.291,134.807 L132.034,132.311 z M119.553,94.037 L119.553,94.037 L100.693,94.314 L100.693,98.197 L119.553,98.197 L119.553,94.037 z M100.693,73.79 C100.693,73.79 100.693,87.658 100.693,87.658 L119.553,87.658 L119.553,73.79 L100.693,73.79 z M99.307,91.541 L99.307,91.541 L99.307,85.162 L60.2,85.162 L60.2,91.541 L99.307,91.541 z M99.307,102.912 L99.307,102.912 L99.307,93.205 L60.2,93.205 L60.2,102.912 L99.307,102.912 z M99.307,113.451 L99.307,113.451 L99.584,109.569 L80.724,109.569 L80.724,113.451 L99.307,113.451 z M99.307,138.413 L99.307,138.413 L99.584,119.831 L80.724,119.831 L80.724,133.975 L90.709,135.085 C93.76,135.362 96.81,136.471 99.307,138.413 z M79.06,118.166 L79.06,118.166 L79.06,104.299 L60.2,104.299 L60.2,118.166 L79.06,118.166 z M79.06,128.706 L79.06,128.706 L79.06,124.545 L60.2,124.545 C60.2,125.932 60.755,127.319 61.31,128.706 L79.06,128.706 z M59.368,83.498 L99.307,83.498 L99.307,73.79 L50.216,73.79 L59.368,83.498 z M78.505,44.946 C79.06,43.282 80.169,41.618 82.111,40.786 C85.716,38.29 90.709,39.122 93.205,42.727 C94.037,41.063 95.424,39.676 97.088,38.844 C100.971,36.903 105.686,38.844 107.627,42.727 C108.737,41.063 110.123,39.954 112.065,39.399 C116.502,38.29 120.94,40.786 122.049,44.946 C123.436,43.559 125.1,42.727 127.042,42.45 C131.479,41.895 135.362,44.946 135.917,49.384 C136.749,48.829 137.581,48.274 138.69,47.997 C143.128,46.888 147.565,49.384 148.675,53.544 C149.784,57.982 147.288,62.419 143.128,63.529 L143.128,70.74 L157.827,70.74 L143.683,85.994 L143.683,123.436 C143.683,129.815 140.909,134.253 133.143,135.362 C125.378,136.471 116.225,137.304 112.065,137.858 C106.518,138.413 103.467,139.522 100.416,143.96 C97.088,139.245 94.314,138.413 88.767,137.858 C84.607,137.304 75.732,136.194 67.689,135.362 C59.646,134.53 57.149,129.815 57.149,123.436 L57.149,85.716 L42.727,70.462 L57.427,70.462 L57.427,63.251 C54.099,62.142 51.88,59.091 51.88,55.763 C51.602,51.325 55.208,47.72 59.646,47.72 C61.587,47.72 63.251,48.274 64.638,49.384 C64.915,47.442 65.747,45.778 67.134,44.391 C70.462,41.341 75.455,41.618 78.505,44.946 z" fill="#000000"/>
  </g>
</svg>
