<?xml version="1.0" encoding="UTF-8"?>
<!DOCTYPE svg PUBLIC "-//W3C//DTD SVG 1.1//EN" "http://www.w3.org/Graphics/SVG/1.1/DTD/svg11.dtd">
<svg version="1.1" xmlns="http://www.w3.org/2000/svg" xmlns:xlink="http://www.w3.org/1999/xlink" x="0" y="0" width="200" height="200" viewBox="0, 0, 200, 200">
  <g id="Layer_1">
    <path d="M190.612,110.042 C190.612,111.044 190.612,111.782 190.612,112.696 C190.052,112.755 189.609,112.814 189.137,112.814 C142.453,112.814 95.768,112.843 49.083,112.725 C39.941,112.696 30.828,111.811 21.981,109.216 C19.327,108.42 16.672,107.358 14.313,105.913 C9.388,102.934 9.418,98.717 14.166,95.414 C17.026,93.438 20.3,92.347 23.632,91.433 C30.445,89.575 37.405,88.72 44.394,88.13 C55.719,87.157 67.073,87.628 78.427,87.569 C78.811,87.569 79.194,87.599 79.577,87.835 C76.776,87.953 73.944,88.1 71.143,88.218 C64.478,88.513 57.783,88.69 51.118,89.191 C44.896,89.663 38.702,90.607 32.804,92.701 C31.182,93.261 29.619,94.028 28.145,94.883 C27.23,95.414 26.375,96.181 25.726,97.007 C24.045,99.101 24.104,101.637 26.228,103.288 C27.879,104.586 29.855,105.648 31.86,106.385 C36.402,108.066 41.209,108.626 46.016,109.098 C54.923,109.983 63.858,109.983 72.824,109.983 C111.31,109.953 149.796,109.983 188.282,109.983 C188.931,110.042 189.639,110.042 190.612,110.042 z M63.18,97.184 C63.298,97.184 63.416,97.154 63.505,97.125 C65.127,100.428 66.719,103.731 68.312,106.975 C69.609,106.975 70.73,106.975 71.939,106.975 C73.591,103.613 75.242,100.31 76.894,96.977 C76.982,97.007 77.071,97.007 77.159,97.036 C77.159,100.28 77.159,103.524 77.159,106.886 C78.987,106.886 80.668,106.886 82.349,106.886 C82.349,102.315 82.349,97.921 82.349,93.409 C79.636,93.409 77.071,93.409 74.387,93.409 C73.148,95.945 71.91,98.452 70.523,101.224 C69.167,98.393 67.958,95.886 66.808,93.438 C64.065,93.438 61.499,93.438 58.845,93.438 C58.845,98.039 58.845,102.463 58.845,106.975 C60.32,106.975 61.676,106.975 63.18,106.975 C63.18,103.613 63.18,100.398 63.18,97.184 z M105.766,105.707 C106.178,106.267 106.473,106.621 106.768,107.063 C107.447,107.004 108.095,106.975 108.862,106.916 C108.862,104.468 108.862,102.138 108.862,99.749 C105.854,99.749 102.993,99.749 100.015,99.749 C100.015,100.605 100.015,101.342 100.015,102.227 C101.371,102.345 102.58,102.433 103.878,102.521 C103.17,104.085 101.696,104.674 99.69,104.379 C97.832,104.114 96.653,102.934 96.417,101.135 C96.151,98.835 96.918,97.007 98.452,96.299 C100.487,95.355 102.404,96.004 104.379,98.363 C105.795,98.245 107.27,98.098 108.921,97.95 C108.656,96.122 107.565,95.031 106.178,94.411 C102.079,92.583 97.98,92.524 94.028,94.824 C92.111,95.945 91.108,97.714 91.02,99.956 C90.872,103.377 92.848,105.942 96.446,106.827 C99.631,107.594 102.787,107.476 105.766,105.707 z M49.644,101.43 C48.228,101.43 47.078,101.43 45.603,101.43 C46.282,100.015 46.842,98.835 47.432,97.626 C47.55,97.596 47.668,97.596 47.786,97.567 C48.376,98.806 48.965,100.015 49.644,101.43 z M50.941,104.32 C51.472,105.294 51.944,106.119 52.357,106.916 C54.215,106.916 55.925,106.916 57.931,106.916 C55.601,102.227 53.389,97.832 51.177,93.379 C49.142,93.379 47.196,93.379 45.161,93.379 C42.861,97.862 40.619,102.286 38.231,106.945 C40,106.945 41.416,106.945 42.831,106.945 C43.362,106.001 43.804,105.146 44.276,104.32 C46.547,104.32 48.67,104.32 50.941,104.32 z M173.802,104.026 C174.657,102.728 176.043,102.256 178.078,102.58 C178.432,103.731 178.137,104.409 177.105,104.881 C175.748,105.5 174.569,105.205 173.802,104.026 z M178.461,100.074 C178.373,100.221 178.255,100.369 178.167,100.457 C177.724,100.516 177.311,100.546 176.869,100.605 C175.011,100.899 173.153,101.047 171.354,101.489 C169.555,101.932 168.582,103.17 168.611,104.379 C168.641,105.648 169.762,106.709 171.708,107.034 C173.92,107.388 176.132,107.388 178.108,106.06 C178.196,105.972 178.373,106.001 178.491,105.972 C178.697,106.326 178.904,106.65 179.11,106.945 C180.585,106.945 181.971,106.945 183.387,106.945 C183.387,104.763 183.387,102.728 183.387,100.664 C183.357,98.481 182.767,97.626 180.644,97.095 C177.99,96.446 175.276,96.476 172.622,97.095 C171.826,97.272 171.03,97.596 170.351,98.068 C169.821,98.422 169.526,99.101 169.113,99.631 C169.201,99.749 169.29,99.867 169.378,99.985 C170.735,99.985 172.091,99.985 173.566,99.985 C174.451,98.599 175.955,98.688 177.429,99.012 C177.813,99.101 178.108,99.72 178.461,100.074 z M120.777,100.516 C119.037,100.516 117.444,100.516 115.793,100.516 C115.881,99.277 116.707,99.012 117.651,98.894 C119.449,98.658 120.157,99.012 120.777,100.516 z M121.543,103.406 C119.833,105.028 118.329,105.382 116.677,104.586 C115.94,104.203 115.409,103.701 115.793,102.492 C119.037,102.492 122.34,102.492 125.613,102.492 C125.702,100.221 124.994,98.776 123.224,97.891 C119.833,96.21 116.412,96.21 113.02,97.891 C111.31,98.747 110.307,100.162 110.337,102.138 C110.366,104.055 111.457,105.353 113.109,106.149 C116.353,107.712 119.685,107.712 122.959,106.355 C124.08,105.884 125.023,105.117 125.436,103.819 C125.23,103.731 125.082,103.613 124.964,103.613 C123.814,103.524 122.694,103.465 121.543,103.406 z M153.217,100.516 C151.447,100.516 149.884,100.516 148.203,100.516 C148.262,99.248 149.118,99.012 150.061,98.894 C151.86,98.688 152.598,99.012 153.217,100.516 z M153.925,103.377 C152.332,105.028 150.681,105.382 149,104.556 C148.262,104.144 147.732,103.642 148.203,102.522 C149.796,102.522 151.389,102.522 153.011,102.522 C154.662,102.522 156.314,102.522 157.995,102.522 C158.201,100.664 157.611,99.395 156.402,98.393 C153.453,96.004 147.26,96.092 144.37,98.54 C142.069,100.487 142.187,103.701 144.576,105.53 C147.319,107.594 152.893,107.889 155.812,106.06 C156.402,105.707 156.903,105.235 157.375,104.733 C157.611,104.497 157.729,104.114 157.965,103.642 C156.461,103.554 155.222,103.465 153.925,103.377 z M127.353,96.918 C127.353,100.369 127.353,103.583 127.383,106.916 C129.005,106.916 130.509,106.916 132.16,106.916 C132.16,106.149 132.16,105.589 132.16,104.999 C132.16,103.76 132.131,102.522 132.19,101.312 C132.278,99.838 133.133,99.16 134.637,99.218 C135.965,99.277 136.407,99.808 136.436,101.371 C136.466,102.256 136.436,103.141 136.436,104.026 C136.436,104.999 136.436,105.942 136.436,106.945 C138.206,106.945 139.68,106.945 141.244,106.945 C141.244,104.379 141.302,101.961 141.214,99.572 C141.155,98.304 140.329,97.449 139.15,97.125 C136.82,96.476 134.49,96.299 132.367,97.832 C132.278,97.921 132.101,97.921 131.983,97.95 C131.806,97.567 131.659,97.213 131.541,96.918 C130.125,96.918 128.828,96.918 127.353,96.918 z M190.553,106.945 C190.553,102.345 190.553,97.921 190.553,93.468 C188.872,93.468 187.397,93.468 185.834,93.468 C185.834,98.009 185.834,102.404 185.834,106.945 C187.456,106.945 188.931,106.945 190.553,106.945 z M163.952,96.948 C162.507,96.948 161.209,96.948 159.794,96.948 C159.794,100.31 159.794,103.554 159.794,106.916 C161.327,106.916 162.802,106.916 164.453,106.916 C164.453,105.825 164.453,104.881 164.453,103.967 C164.483,100.693 164.807,100.28 167.992,99.69 C168.081,99.69 168.169,99.602 168.316,99.484 C168.316,98.658 168.316,97.744 168.316,96.83 C166.724,96.387 165.544,96.977 164.394,97.921 C164.247,97.596 164.099,97.302 163.952,96.948 z" fill="#000000"/>
  </g>
</svg>
