<?xml version="1.0" encoding="UTF-8"?>
<!DOCTYPE svg PUBLIC "-//W3C//DTD SVG 1.1//EN" "http://www.w3.org/Graphics/SVG/1.1/DTD/svg11.dtd">
<svg version="1.1" xmlns="http://www.w3.org/2000/svg" xmlns:xlink="http://www.w3.org/1999/xlink" x="0" y="0" width="200" height="200" viewBox="0, 0, 200, 200">
  <g id="renault-alt">
    <path d="M124.581,105.268 C115.012,125.84 89.146,173.573 83.78,182.709 C83.436,183.285 83.156,183.745 82.943,184.081 C82.147,185.297 81.46,186.002 80.878,185.974 C80.878,185.974 90.44,168.47 97.912,149.738 C89.51,134.251 82.284,119.921 75.345,105.182 C74.102,102.559 73.508,101.257 73.515,99.963 L73.515,99.961 C73.515,99.958 73.515,99.956 73.515,99.956 C73.518,98.674 74.137,97.38 75.363,94.742 C85.405,73.146 109.994,26.829 117.117,15.803 C117.946,14.519 118.389,14.039 118.983,14.039 C119.003,14.039 119.018,14.039 119.038,14.039 C119.038,14.039 109.11,32.617 102.025,50.277 C110.427,65.759 117.681,80.124 124.624,94.861 C125.853,97.479 126.454,98.738 126.454,100.019 C126.454,101.303 125.81,102.625 124.581,105.268 z M170.736,95.154 C168.123,89.7 159.986,73.69 153.091,61.19 C143.637,44.055 126.758,15.846 124.842,13.273 C122.949,10.733 121.887,10.619 120.135,10.437 L119.877,10.407 C117.324,10.129 106.509,10 100,10 C94.427,10 82.585,10.144 79.827,10.42 C77.228,10.677 76.526,11.473 75.045,13.409 C73.007,16.065 55.847,45.076 46.909,61.19 C40.444,72.841 30.209,92.986 29.256,95.154 C28.399,97.11 28,98.652 28,99.999 C28,101.437 28.399,102.973 29.261,104.841 C31.407,109.494 37.878,122.38 46.909,138.805 C56.33,155.94 73.351,184.258 75.156,186.722 C77.064,189.328 78.31,189.434 80.034,189.591 C82.653,189.823 93.954,190 100,190 C106.529,190 118.338,189.74 119.966,189.591 C121.579,189.444 122.971,189.318 124.842,186.722 C126.558,184.344 144.866,153.835 153.091,138.805 C160.974,124.405 169.728,107.103 170.736,104.841 C171.848,102.359 172,101.048 172,99.996 C172,99.172 171.836,97.444 170.736,95.154 L170.736,95.154 z" fill="#010000" id="Fill-1"/>
  </g>
</svg>
