<?xml version="1.0" encoding="UTF-8"?>
<!DOCTYPE svg PUBLIC "-//W3C//DTD SVG 1.1//EN" "http://www.w3.org/Graphics/SVG/1.1/DTD/svg11.dtd">
<svg version="1.1" xmlns="http://www.w3.org/2000/svg" xmlns:xlink="http://www.w3.org/1999/xlink" x="0" y="0" width="200" height="200" viewBox="0, 0, 200, 200">
  <g id="Layer_1">
    <path d="M141.85,20.125 C129.25,13.6 115.075,10 100,10 C84.925,10 70.75,13.6 58.15,20.125 L58.15,20.125 C29.575,35.2 10,65.35 10,100 C10,134.65 29.575,164.8 58.375,179.875 C70.75,186.175 84.925,190 100,190 C115.075,190 129.025,186.175 141.625,179.65 C170.425,164.8 190,134.65 190,100 C190,65.35 170.425,35.2 141.85,20.125 z M19,100 C19,70.525 34.75,44.875 58.375,30.475 L58.375,30.475 C69.85,23.5 83.125,19.45 97.75,19 L87.625,92.575 L58.375,115.3 L58.375,115.3 L28.675,138.475 C22.6,127 19,113.95 19,100 z M141.85,169.3 C129.475,176.725 115.3,181 100,181 C84.7,181 70.3,176.725 58.15,169.3 C47.125,162.775 38.125,153.775 31.375,142.975 L58.15,131.95 L58.15,131.95 L100,114.85 L141.85,131.725 L141.85,131.725 L168.85,142.75 C162.1,153.775 152.65,162.775 141.85,169.3 z M141.85,115.3 L141.85,115.3 L112.825,92.8 L102.475,19 C116.65,19.45 130.15,23.5 141.625,30.475 L141.625,30.475 C165.25,44.65 181,70.525 181,100 C181,113.95 177.625,127 171.325,138.475 L141.85,115.3 z" fill="#000000"/>
  </g>
</svg>
