<?xml version="1.0" encoding="UTF-8"?>
<!DOCTYPE svg PUBLIC "-//W3C//DTD SVG 1.1//EN" "http://www.w3.org/Graphics/SVG/1.1/DTD/svg11.dtd">
<svg version="1.1" xmlns="http://www.w3.org/2000/svg" xmlns:xlink="http://www.w3.org/1999/xlink" x="0" y="0" width="200" height="200" viewBox="0, 0, 200, 200">
  <g id="Layer_1">
    <path d="M170.343,83.289 L150.29,83.289 L150.29,83.289 C139.413,83.289 130.633,92.109 130.633,102.947 C130.633,113.823 139.453,122.604 150.29,122.604 L150.29,122.604 L170.343,122.604 L170.343,122.604 C181.22,122.604 190,113.784 190,102.947 C190,92.109 181.18,83.289 170.343,83.289 L170.343,83.289 L170.343,83.289 L170.343,83.289 z M169.117,114.496 L151.437,114.496 L151.437,114.496 C145.069,114.496 139.927,109.354 139.927,102.986 C139.927,96.618 145.069,91.477 151.437,91.477 L151.437,91.477 L169.117,91.477 L169.117,91.477 C175.485,91.477 180.626,96.618 180.626,102.986 C180.666,109.354 175.485,114.496 169.117,114.496 L169.117,114.496 L169.117,114.496 L169.117,114.496 z M116.987,106.467 L116.987,106.467 L116.987,106.467 L85.346,106.467 L85.346,98.319 L115.761,98.319 L115.761,98.319 C117.62,98.319 119.123,96.816 119.123,94.957 C119.123,93.098 117.62,91.477 115.761,91.477 L115.761,91.477 L91.437,91.477 L91.437,91.477 C85.069,91.477 79.927,96.618 79.927,102.986 C79.927,109.354 85.069,114.496 91.437,114.496 L91.437,114.496 L126.599,114.496 L126.599,122.643 L90.25,122.643 L90.25,122.643 C79.413,122.643 70.593,113.863 70.593,102.986 C70.593,92.149 79.374,83.329 90.25,83.329 L90.25,83.329 L116.987,83.329 L116.987,83.329 C123.355,83.329 128.497,88.589 128.497,94.957 C128.497,101.325 123.355,106.467 116.987,106.467 z M34.206,114.496 L34.206,114.496 L34.206,114.496 L57.343,114.496 L57.343,106.15 L38.477,106.15 L38.477,98.003 L66.915,98.003 L66.915,122.604 L32.624,122.604 L32.624,122.604 C20.125,122.604 10,112.479 10,99.98 C10,87.482 20.125,77.357 32.624,77.357 L32.624,77.357 L66.875,77.357 L66.875,85.188 L34.206,85.188 L34.206,85.188 C25.979,85.188 19.295,91.753 19.295,99.98 C19.295,108.207 25.979,114.496 34.206,114.496 z M169.512,107.574 L169.512,107.574 L169.512,107.574 L175.089,107.574 L175.089,107.574 C175.643,106.546 175.999,105.399 176.117,104.054 L176.117,104.054 L170.382,104.054 L170.382,104.054 C170.303,105.28 169.987,106.467 169.512,107.574 z M175.089,98.952 L175.089,98.952 L175.089,98.952 L169.512,98.952 L169.512,98.952 C170.026,100.059 170.343,101.246 170.422,102.512 L170.422,102.512 L176.117,102.512 L176.117,102.512 C175.999,101.206 175.603,99.98 175.089,98.952 z M168.247,107.574 L168.247,107.574 L168.247,107.574 L168.247,107.574 C168.8,106.506 169.156,105.359 169.275,104.054 L169.275,104.054 L161.206,104.054 L161.206,107.574 L168.247,107.574 z M161.167,98.952 L161.167,98.952 L161.167,98.952 L161.167,102.512 L169.235,102.512 L169.235,102.512 C169.117,101.167 168.721,99.98 168.207,98.952 L168.207,98.952 L161.167,98.952 z M159.664,102.512 L159.664,102.512 L159.664,102.512 L159.664,98.952 L152.624,98.952 L152.624,98.952 C152.109,99.98 151.714,101.167 151.595,102.512 L151.595,102.512 L159.664,102.512 z M159.664,107.574 L159.664,107.574 L159.664,107.574 L159.664,104.054 L151.595,104.054 L151.595,104.054 C151.674,105.399 152.07,106.506 152.624,107.574 L152.624,107.574 L159.664,107.574 z M150.409,102.512 L150.409,102.512 L150.409,102.512 L150.409,102.512 C150.527,101.246 150.844,100.059 151.358,98.952 L151.358,98.952 L145.742,98.952 L145.742,98.952 C145.188,99.98 144.832,101.167 144.713,102.512 L144.713,102.512 L150.409,102.512 z M145.742,107.574 L145.742,107.574 L145.742,107.574 L151.279,107.574 L151.279,107.574 C150.804,106.467 150.488,105.32 150.409,104.054 L150.409,104.054 L144.713,104.054 L144.713,104.054 C144.832,105.359 145.188,106.506 145.742,107.574 z M172.518,94.166 L172.518,94.166 L172.518,94.166 L172.518,94.166 C175.326,96.223 177.304,99.545 177.304,103.263 C177.304,106.704 175.603,109.789 173.27,111.767 L173.27,111.767 L171.688,111.767 L171.688,111.767 C172.597,110.897 173.428,110.026 174.14,109.117 L174.14,109.117 L168.761,109.117 L168.761,109.117 C168.088,110.145 167.297,111.015 166.427,111.767 L166.427,111.767 L164.845,111.767 L164.845,111.767 C165.715,110.897 166.546,110.066 167.258,109.117 L167.258,109.117 L161.206,109.117 L161.206,111.767 L159.664,111.767 L159.664,109.117 L153.612,109.117 L153.612,109.117 C154.285,110.026 155.115,110.897 156.025,111.767 L156.025,111.767 L154.443,111.767 L154.443,111.767 C153.533,111.015 152.742,110.145 152.109,109.117 L152.109,109.117 L146.73,109.117 L146.73,109.117 C147.442,110.026 148.273,110.897 149.183,111.767 L149.183,111.767 L147.601,111.767 L147.601,111.767 C145.267,109.789 143.566,106.704 143.566,103.263 C143.566,99.506 145.544,96.223 148.352,94.166 L148.352,94.166 L149.974,94.166 L149.974,94.166 C149.064,94.759 147.759,95.867 146.691,97.37 L146.691,97.37 L152.189,97.37 L152.189,97.37 C152.98,96.104 154.008,95.036 155.194,94.166 L155.194,94.166 L156.816,94.166 L156.816,94.166 C155.906,94.759 154.601,95.867 153.533,97.37 L153.533,97.37 L159.664,97.37 L159.664,94.166 L161.206,94.166 L161.206,97.37 L167.337,97.37 L167.337,97.37 C166.229,95.867 164.964,94.799 164.054,94.166 L164.054,94.166 L165.676,94.166 L165.676,94.166 C166.862,95.036 167.891,96.104 168.682,97.37 L168.682,97.37 L174.179,97.37 L174.179,97.37 C173.072,95.867 171.806,94.799 170.896,94.166 L170.896,94.166 L172.518,94.166 z" fill="#000000"/>
  </g>
</svg>
