<?xml version="1.0" encoding="UTF-8"?>
<!DOCTYPE svg PUBLIC "-//W3C//DTD SVG 1.1//EN" "http://www.w3.org/Graphics/SVG/1.1/DTD/svg11.dtd">
<svg version="1.1" xmlns="http://www.w3.org/2000/svg" xmlns:xlink="http://www.w3.org/1999/xlink" x="0" y="0" width="200" height="200" viewBox="0, 0, 200, 200">
  <g id="Layer_1">
    <path d="M185.788,120.428 L179.126,120.428 C175.415,120.523 173.575,118.525 172.782,117.859 C149.531,101.11 106.17,82.078 67.09,68.914 C62.047,67.36 54.561,66.281 49.866,66.281 C45.203,66.281 42.951,65.901 38.098,66.091 C33.435,66.281 28.582,67.074 25.854,67.836 C23.126,68.629 17.004,70.183 16.718,73.894 C14.371,75.671 11.992,78.05 11.04,79.033 C10.057,80.016 9.74,81.919 11.675,84.045 C13.61,86.202 15.957,88.327 17.511,87.375 C19.066,86.424 18.685,85.218 19.256,84.045 C19.827,82.871 21.794,81.126 23.729,83.252 C25.664,85.409 24.458,86.329 23.348,87.344 C22.301,88.295 20.239,90.072 21.603,91.816 C22.967,93.561 24.522,94.163 26.647,92.609 C28.201,91.467 32.42,89.057 34.862,87.693 C35.465,87.344 36.195,86.455 38.859,87.534 C41.714,88.644 46.155,90.611 48.026,91.626 L43.998,93.466 C41.873,94.83 40.001,98.668 39.811,100.063 C39.62,102.22 40.382,105.266 43.3,107.803 L49.581,107.803 L53.387,102.347 L53.102,101.776 C57.955,101.205 71.182,105.202 77.399,102.76 C81.682,104.504 89.263,105.488 103.251,104.124 C105.789,103.933 109.246,103.394 111.372,106.185 C113.592,109.072 124.44,120.523 127.961,121.697 C131.482,122.87 146.042,122.87 149.848,123.536 C153.116,124.139 154.416,123.536 157.144,126.645 L162.981,131.815 C163.647,132.608 165.709,134.099 168.024,134.099 L172.053,134.099 C174.4,133.909 175.637,132.26 176.24,130.293 L186.168,130.293 C189.277,130.293 190.26,127.501 190.26,124.964 C190.228,122.49 188.515,120.428 185.788,120.428 L185.788,120.428 z" fill="#000000"/>
  </g>
</svg>
