<?xml version="1.0" encoding="UTF-8"?>
<!DOCTYPE svg PUBLIC "-//W3C//DTD SVG 1.1//EN" "http://www.w3.org/Graphics/SVG/1.1/DTD/svg11.dtd">
<svg version="1.1" xmlns="http://www.w3.org/2000/svg" xmlns:xlink="http://www.w3.org/1999/xlink" x="0" y="0" width="200" height="200" viewBox="0, 0, 200, 200">
  <g id="Layer_1">
    <path d="M106.091,173.743 L138.839,173.743 C133.826,171.072 132.046,163.998 131.765,157.205 C128.532,126.517 111.432,102.624 107.262,96.439 C126.705,84.774 135.279,66.923 135.279,50.432 C135.279,22.978 111.104,10 90.161,10 L34.971,10 C37.033,12.952 38.532,14.123 38.532,20.916 L38.532,160.765 C38.532,167.559 35.58,170.791 33.519,173.743 L58.584,173.743 C56.523,170.791 53.571,167.559 53.571,160.765 L53.571,109.417 C70.484,109.136 84.586,106.372 95.924,101.874 C113.165,120.38 115.226,147.225 115.554,154.581 C115.789,161.936 111.994,168.449 106.091,173.743 L106.091,173.743 z M53.571,96.767 L53.571,19.745 L86.039,19.745 C108.48,19.745 115.836,33.894 115.554,48.933 C114.055,90.536 72.733,96.767 53.571,96.767 L53.571,96.767 z M83.04,125.674 L83.04,125.674 L83.04,177.022 C83.04,183.816 85.992,187.048 88.053,190 L62.988,190 C65.049,187.048 68.001,183.816 68.001,177.022 L68.001,112.275 C71.843,111.806 80.979,110.495 83.04,109.745 L83.04,112.978 C87.491,112.978 93.066,112.65 99.11,111.619 C100.75,114.336 103.982,120.802 104.872,123.8 C98.267,124.925 90.817,125.534 83.04,125.674 z M109.604,35.534 L109.604,35.534 C108.152,31.832 104.17,27.569 101.171,25.789 L64.44,25.789 C66.549,28.74 68.001,29.912 68.001,36.705 L68.001,92.176 C72.874,91.707 79.667,89.505 83.04,88.334 L83.04,35.534 L109.604,35.534 z M139.214,44.951 L139.214,44.951 C137.902,37.126 134.248,29.865 132.889,27.71 C149.521,32.067 165.029,44.857 165.029,66.502 C165.029,82.993 156.455,100.843 137.012,112.509 C141.182,118.693 158.282,142.587 161.515,173.274 C161.796,180.068 163.576,187.142 168.589,189.813 L135.841,189.813 C141.697,184.518 145.539,178.006 145.258,170.651 C144.977,163.295 143.337,136.309 126.096,117.803 C125.721,117.944 124.456,118.412 124.034,118.553 C122.395,115.273 119.771,109.276 117.663,106.091 C131.952,99.672 144.461,87.538 145.258,65.003 C145.445,57.553 143.712,50.338 139.214,44.951 z" fill="#000000"/>
  </g>
</svg>
