<?xml version="1.0" encoding="UTF-8"?>
<!DOCTYPE svg PUBLIC "-//W3C//DTD SVG 1.1//EN" "http://www.w3.org/Graphics/SVG/1.1/DTD/svg11.dtd">
<svg version="1.1" xmlns="http://www.w3.org/2000/svg" xmlns:xlink="http://www.w3.org/1999/xlink" x="0" y="0" width="200" height="200" viewBox="0, 0, 200, 200">
  <g id="Layer_1">
    <path d="M56.246,66.765 C60.698,60.828 65.926,59.73 69.991,59.601 C76.574,59.472 80.575,64.506 80.575,64.506 C80.575,64.506 82.834,57.472 84.576,54.955 C85.351,53.922 86.19,53.148 87.287,52.696 C87.158,52.696 86.964,52.696 86.706,52.825 L68.507,10.233 C77.607,9.91 88.513,15.46 81.156,25.592 C81.027,26.043 81.479,26.173 81.737,25.914 C83.092,24.559 84.899,23.656 86.964,23.656 C90.836,23.656 93.998,26.818 93.998,30.69 C93.998,34.562 90.836,37.724 86.964,37.724 C86.512,37.724 86.061,37.724 85.48,37.595 C85.931,40.435 102.323,47.017 108.712,34.433 C107.551,35.336 106.002,35.788 104.517,35.788 C100.645,35.788 97.483,32.626 97.483,28.754 C97.483,24.882 100.645,21.72 104.517,21.72 C105.873,21.72 107.228,22.171 108.26,22.752 C106.905,21.397 106.002,19.59 106.002,17.654 C106.002,13.782 109.164,10.62 113.036,10.62 C116.908,10.62 120.07,13.782 120.07,17.654 C120.07,19.59 119.296,21.203 118.134,22.43 C119.167,21.978 120.199,21.655 121.425,21.655 C125.298,21.655 128.46,24.817 128.46,28.689 C128.46,32.561 125.298,35.724 121.425,35.724 C119.618,35.724 118.134,35.143 116.779,34.11 C118.134,38.886 129.428,47.985 140.786,37.531 C140.334,37.66 139.882,37.66 139.301,37.66 C135.429,37.66 132.267,34.498 132.267,30.625 C132.267,26.753 135.429,23.591 139.301,23.591 C141.367,23.591 143.174,24.495 144.529,25.85 C144.851,26.173 145.303,25.979 145.11,25.527 C137.817,15.395 148.659,9.845 157.758,10.168 L139.56,52.954 C139.237,52.954 139.108,52.632 138.785,52.632 C140.27,53.213 140.85,54.116 141.625,55.794 C141.625,55.794 152.789,50.308 160.533,51.47 C160.533,51.47 159.953,56.956 158.146,61.602 C156.339,66.248 154.144,69.346 154.144,69.346 C154.144,69.346 166.987,82.64 165.309,97.677 C164.405,105.873 163.244,107.809 163.244,107.809 C159.372,102.904 153.822,101.871 153.822,101.871 C153.822,101.871 163.502,111.423 161.695,122.329 C160.921,127.104 159.63,133.042 158.855,135.171 C157.694,138.592 157.242,147.239 157.242,147.239 C157.242,147.239 152.918,138.463 149.046,135.429 C149.046,135.429 153.822,148.724 146.207,159.565 C142.915,164.212 136.075,171.375 136.075,171.375 C136.075,171.375 133.687,161.695 129.041,158.275 C129.041,158.275 129.17,170.084 126.201,174.795 C120.393,184.347 103.227,190.155 103.227,190.155 C103.227,190.155 102.323,160.921 100.839,156.919 C100.839,156.919 97.677,163.631 96.838,170.343 C96.257,174.666 96.063,179.894 96.063,179.894 C96.063,179.894 82.64,161.372 81.027,158.985 C75.671,150.789 85.48,137.817 85.48,137.817 C81.027,138.398 75.477,146.465 75.477,146.465 C75.477,146.465 74.896,135.107 74.896,130.202 C75.025,124.846 80.252,118.844 80.252,118.844 C75.606,121.684 71.927,121.813 67.41,118.07 C62.635,114.327 61.602,102.388 61.602,102.388 C61.602,102.388 69.927,107.034 76.058,104.776 C82.188,102.71 89.933,94.515 89.933,94.515 L74.251,90.062 C74.251,90.062 73.347,82.447 65.603,82.447 C58.311,82.447 51.276,89.287 51.276,89.287 C51.276,89.287 50.631,74.186 56.246,66.765 L56.246,66.765 z M33.013,86.706 C37.789,96.128 43.92,100.258 50.631,101.033 C57.343,101.807 68.507,96.257 71.798,96.257 C75.09,96.257 79.672,98.064 81.35,98.774 C77.607,92.062 71.798,91.159 67.346,90.578 C62.893,89.997 55.278,93.869 48.437,94.127 C41.532,94.644 36.175,89.739 33.013,86.706 L33.013,86.706 z M92.837,77.929 C96.709,77.929 99.871,74.767 99.871,70.895 L95.999,70.895 C95.999,73.154 94.837,74.638 92.708,74.638 C90.643,74.638 89.739,73.154 89.739,70.895 L85.867,70.895 C85.802,74.767 88.965,77.929 92.837,77.929 L92.837,77.929 z M79.994,84.963 L102.646,91.804 C102.646,91.804 87.609,108.325 79.22,110.326 C75.477,111.229 73.412,111.1 69.54,109.551 C69.411,109.422 72.508,117.424 79.801,115.037 C87.674,112.52 96.644,110.261 85.738,122.91 C84.254,124.717 81.995,128.266 81.995,130.396 C81.995,130.977 81.995,131.751 81.995,132.654 C83.157,132.074 84.254,131.751 85.544,131.622 C93.417,130.589 97.354,133.687 91.352,141.754 C88.836,145.045 85.093,152.467 87.029,155.629 C87.609,156.403 89.868,159.501 92.514,163.373 C93.869,158.275 95.805,154.403 95.805,154.273 C102.194,140.85 104.776,148.143 107.421,154.596 C108.777,157.887 109.487,169.181 109.938,180.668 C114.391,178.28 119.36,175.183 121.555,171.569 C122.716,169.633 123.491,163.05 123.491,158.275 C123.361,146.078 127.234,147.239 133.622,153.176 C135.559,154.983 137.495,157.048 138.85,159.565 C139.882,158.21 140.915,157.048 141.689,156.016 C147.175,147.949 143.754,137.495 143.754,137.495 C136.591,117.682 149.111,127.04 153.435,130.331 C153.757,130.46 153.886,130.783 154.209,130.912 C154.79,128.524 155.693,124.652 156.145,121.232 C157.178,115.101 151.499,108.841 150.014,106.324 C145.69,98.709 144.787,92.32 159.565,96.902 C160.598,86.319 152.079,75.993 150.466,74.057 C145.819,79.284 140.786,84.189 140.786,84.189 C141.947,85.544 143.174,101.355 141.238,107.744 C136.785,121.942 131.235,124.007 131.235,124.007 C131.235,124.007 130.654,114.004 126.782,107.486 C126.782,107.486 126.201,118.521 122.587,124.91 C116.779,135.171 111.552,136.849 111.552,136.849 C113.617,129.105 111.681,116.585 111.681,116.585 C107.809,125.685 100.065,128.072 100.065,128.072 L98.128,114.52 L103.227,110.777 L104.259,118.263 C104.259,118.263 106.195,117.812 107.551,113.939 C109.357,109.035 112.003,96.967 116.069,109.938 C117.102,113.359 117.553,121.555 117.553,121.555 C117.553,121.555 121.296,115.166 121.296,106.195 C121.296,100.71 122.91,87.416 129.492,99.484 C131.428,103.033 133.945,108.712 133.945,108.712 C133.945,108.712 137.946,94.127 133.042,82.188 C133.042,82.188 145.561,71.282 151.563,60.44 C151.563,60.44 137.107,66.378 129.621,73.734 L125.749,67.926 C125.749,67.926 129.492,64.377 135.752,60.44 C135.752,60.44 134.59,58.504 130.847,58.504 C131.17,58.504 91.804,58.504 91.804,58.504 C89.094,58.633 87.932,62.247 86.899,65.345 L110.906,65.345 L110.906,70.83 L104.776,70.83 C104.776,77.413 99.419,82.769 92.837,82.769 C86.254,82.769 80.898,77.542 80.898,70.959 C78.962,71.089 77.026,70.185 75.671,68.572 C75.671,68.572 73.283,65.861 70.185,66.055 C67.475,66.184 64.377,66.829 61.408,70.701 C60.247,72.315 59.343,75.025 58.892,77.865 C61.279,76.961 63.796,76.38 66.507,76.38 C73.605,76.122 77.929,80.64 79.994,84.963 L79.994,84.963 z M90.578,45.985 L92.643,51.922 L134.978,51.922 L136.914,45.985 L90.578,45.985 L90.578,45.985 z" fill="#000000"/>
  </g>
</svg>
