<?xml version="1.0" encoding="UTF-8"?>
<!DOCTYPE svg PUBLIC "-//W3C//DTD SVG 1.1//EN" "http://www.w3.org/Graphics/SVG/1.1/DTD/svg11.dtd">
<svg version="1.1" xmlns="http://www.w3.org/2000/svg" xmlns:xlink="http://www.w3.org/1999/xlink" x="0" y="0" width="200" height="200" viewBox="0, 0, 200, 200">
  <g id="Layer_1">
    <path d="M132.767,80.69 L132.505,80.249 L131.843,79.201 L131.154,78.181 L130.423,77.188 L129.664,76.209 L128.879,75.258 L128.065,74.334 L127.224,73.438 L126.342,72.569 L125.432,71.728 L124.508,70.915 L123.556,70.142 L122.578,69.398 L121.571,68.681 L120.537,67.992 L119.489,67.344 L118.414,66.723 L117.311,66.144 L116.194,65.592 L115.049,65.082 L113.891,64.6 L112.719,64.159 L111.52,63.759 L110.306,63.4 L109.079,63.083 L107.838,62.807 L106.584,62.573 L105.315,62.38 L104.033,62.228 L102.737,62.118 L101.427,62.049 L100.103,62.021 L98.78,62.049 L97.47,62.118 L96.174,62.228 L94.892,62.38 L93.623,62.573 L92.368,62.807 L91.128,63.083 L89.9,63.4 L88.687,63.759 L87.488,64.159 L86.316,64.6 L85.157,65.082 L84.027,65.592 L82.91,66.144 L81.807,66.723 L80.732,67.344 L79.684,67.992 L78.65,68.681 L77.643,69.398 L76.664,70.142 L75.713,70.915 L74.789,71.728 L73.879,72.569 L73.01,73.438 L72.155,74.334 L71.342,75.258 L70.556,76.209 L69.798,77.188 L69.067,78.181 L68.378,79.201 L67.716,80.249 L67.454,80.69 L10,80.69 L16.191,89.445 L19.017,92.81 L26.711,101.565 L30.158,104.929 L39.989,113.684 L44.29,117.076 L56.01,125.804 L72.266,125.804 L72.555,126.107 L73.231,126.81 L73.92,127.486 L74.637,128.148 L75.368,128.796 L76.113,129.416 L76.871,130.023 L77.643,130.616 L78.443,131.181 L79.256,131.733 L80.083,132.257 L80.925,132.767 L81.779,133.249 L82.648,133.718 L83.53,134.159 L84.427,134.587 L85.337,134.987 L86.247,135.359 L87.17,135.704 L88.108,136.034 L89.059,136.338 L90.025,136.614 L90.99,136.862 L91.969,137.096 L92.961,137.303 L93.954,137.482 L94.961,137.634 L95.981,137.758 L97.001,137.854 L98.035,137.923 L99.069,137.965 L100.117,137.979 L101.165,137.965 L102.199,137.923 L103.233,137.854 L104.254,137.758 L105.274,137.634 L106.28,137.482 L107.273,137.303 L108.266,137.096 L109.245,136.862 L110.21,136.614 L111.175,136.338 L112.126,136.034 L113.064,135.704 L113.988,135.359 L114.898,134.987 L115.808,134.587 L116.704,134.159 L117.586,133.718 L118.455,133.249 L119.31,132.767 L120.151,132.257 L120.978,131.733 L121.792,131.181 L122.591,130.616 L123.363,130.023 L124.122,129.416 L124.866,128.796 L125.597,128.148 L126.314,127.486 L127.017,126.81 L127.693,126.107 L127.982,125.804 L143.99,125.804 L155.71,117.076 L160.011,113.684 L169.842,104.929 L173.289,101.565 L180.983,92.81 L183.809,89.445 L190,80.69 L132.767,80.69 z M183.106,88.205 L134.89,88.205 C135.538,90.08 136.021,92.038 136.352,94.037 L178.198,94.037 L172.669,100.324 L136.848,100.324 C136.834,102.309 136.655,104.254 136.338,106.156 L166.547,106.156 L159.488,112.444 L134.669,112.444 C133.953,114.429 133.07,116.345 132.036,118.152 L151.973,118.276 L143.535,124.563 L127.403,124.563 C120.675,132.036 110.927,136.751 100.117,136.751 C89.308,136.751 79.56,132.036 72.831,124.563 L56.424,124.563 L47.985,118.276 L68.171,118.152 C67.137,116.345 66.254,114.429 65.537,112.444 L40.457,112.444 L33.412,106.17 L63.883,106.17 C63.566,104.267 63.386,102.323 63.373,100.338 L27.262,100.338 L21.733,94.051 L63.841,94.051 C64.172,92.051 64.669,90.093 65.303,88.218 L16.839,88.218 L12.385,81.931 L68.143,81.931 C74.472,70.804 86.44,63.276 100.103,63.276 C113.767,63.276 125.735,70.804 132.064,81.931 L187.56,81.931 L183.106,88.205 z M120.813,108.707 L125.197,108.707 L125.197,92.713 L120.813,92.713 L120.813,108.707 z M118.041,108.707 L118.041,92.713 L113.519,92.713 L113.519,101.565 L107.673,92.713 L103.192,92.713 L103.192,108.707 L107.701,108.707 L107.701,99.924 L113.519,108.707 L118.041,108.707 z M100.241,108.707 L100.241,92.713 L95.857,92.713 L95.857,108.707 L100.241,108.707 z M93.127,108.707 L93.127,92.713 L86.66,92.713 L84.165,102.447 L81.655,92.713 L75.175,92.713 L75.175,108.707 L79.215,108.707 L79.215,96.519 L82.331,108.707 L85.971,108.707 L89.101,96.519 L89.101,108.707 L93.127,108.707 z M100.103,72.321 C115.353,72.321 127.803,84.758 127.803,100.021 C127.803,115.284 115.367,127.72 100.103,127.72 C84.84,127.72 72.404,115.27 72.404,100.021 C72.404,84.758 84.854,72.321 100.103,72.321 z" fill="#1B171B"/>
  </g>
</svg>
