<?xml version="1.0" encoding="UTF-8"?>
<!DOCTYPE svg PUBLIC "-//W3C//DTD SVG 1.1//EN" "http://www.w3.org/Graphics/SVG/1.1/DTD/svg11.dtd">
<svg version="1.1" xmlns="http://www.w3.org/2000/svg" xmlns:xlink="http://www.w3.org/1999/xlink" x="0" y="0" width="200" height="200" viewBox="0, 0, 200, 200">
  <g id="Layer_1">
    <path d="M109.558,154.322 L108.667,152.63 L107.472,150.172 L106.522,147.604 L105.824,144.716 L105.519,142.237 L105.519,139.831 L105.772,136.995 L106.091,135.57 L105.712,134.36 L104.933,133.737 L103.367,132.578 L102.26,131.792 L102.053,130.277 L101.533,128.659 L100.553,127.07 L99.499,125.719 L98.177,124.457 L96.5,123.188 L94.614,121.777 L93.612,121.295 L92.617,120.99 L91.778,121.131 L91.051,121.614 L90.732,122.401 L90.947,123.826 L91.674,127.018 L92.936,131.227 L93.991,133.744 L95.401,136.951 L96.403,138.837 L97.933,141.62 L99.766,144.723 L101.214,146.72 L102.424,148.339 L102.476,149.23 L102.312,149.957 L101.637,150.224 L99.603,150.328 L96.04,150.113 L93.1,149.734 L90.516,149.274 L87.376,148.383 L85.788,147.685 L84.733,147.225 L83.538,147.01 L82.165,147.062 L81.437,147.381 L80.435,147.381 L78.067,147.01 L76.716,146.55 L75.239,146.446 L72.885,146.394 L71.104,146.23 L69.463,146.23 L67.845,146.334 L66.739,146.795 L65.952,147.01 L65.684,147.381 L65.736,148.116 L66.486,149.326 L67.897,151.271 L68.736,151.627 L70.057,152.57 L71.571,153.409 L73.212,153.944 L75.565,153.996 L77.666,153.78 L79.448,153.372 L80.962,152.889 L81.601,153.209 L81.905,153.832 L82.439,153.996 L83.739,153.944 L85.379,154.055 L86.218,154.322 L87.213,154.055 L90.457,154.463 L92.669,154.782 L96.284,155.569 L98.92,156.349 L101.526,157.24 L103.819,158.294 L104.71,158.932 L107.078,159.036 L108.34,158.717 L109.016,157.344 L109.743,155.666 L109.558,154.322 z M72.499,148.94 L72.336,149.311 L72.054,149.653 L71.824,149.727 L71.341,149.742 L70.911,149.616 L70.718,149.452 L70.436,149.096 L70.45,148.777 L70.614,148.547 L71.163,148.368 L71.801,148.242 L71.801,148.242 L72.284,148.227 L72.514,148.368 L72.566,148.636 L72.499,148.94 z M98.036,152.199 L97.843,152.451 L97.235,152.489 L96.181,152.31 L95.253,152.147 L94.288,152.095 L93.36,152.021 L91.236,151.486 L89.559,150.967 L88.364,150.573 L88.185,150.232 L88.237,149.861 L88.467,149.772 L90.034,150.269 L90.034,150.269 L90.732,150.551 L91.459,150.714 L92.35,150.841 L93.827,151.004 L95.112,151.197 L96.322,151.286 L97.302,151.501 L97.851,151.642 L98.014,151.858 L98.014,152.199 z M105.312,151.152 L105.119,151.509 L104.762,151.791 L104.243,151.917 L103.96,151.791 L103.871,151.486 L103.96,151.145 L104.443,150.789 L104.443,150.789 L104.799,150.699 L105.193,150.699 L105.319,150.863 L105.319,151.152 z M156.497,106.752 L156.497,103.389 L156.23,101.733 L155.851,100.004 L155.391,98.564 L155.161,97.836 L154.857,97.673 L154.857,97.673 L154.396,98.133 L154.486,98.972 L154.627,100.471 L154.79,102.06 L154.894,103.433 L154.827,105 L154.753,106.744 L154.434,108.311 L154.055,109.684 L153.417,111.02 L152.578,112.394 L151.724,113.73 L150.818,114.962 L149.979,116.068 L149.519,116.907 L149.178,117.672 L149.244,118.243 L149.675,118.437 L150.477,118.243 L152.043,116.744 L153.417,115.14 L154.33,113.856 L155.131,112.364 L155.666,110.991 L156.134,109.424 L156.468,107.591 L156.505,106.752 z M134.308,127.122 L134.308,126.343 L134.197,125.756 L133.789,125.237 L133.432,124.917 L133.002,124.88 L132.556,125.021 L132.133,125.556 L132.2,126.409 L132.95,127.441 L133.061,128.562 L133.232,128.882 L133.573,128.971 L133.944,128.755 L134.056,128.258 L134.234,127.709 L134.308,127.122 z M121.154,163 L120.797,163.364 L120.693,163.668 L120.753,163.973 L120.998,164.114 L121.213,164.114 L121.532,163.758 L121.888,163.438 L122.044,163.186 L122.03,162.993 L121.851,162.904 L121.458,162.889 L121.154,163 L121.154,163 z M116.61,166.512 L116.811,166.007 L116.603,165.74 L116.35,165.688 L115.653,166.133 L115.192,166.631 L115.192,166.631 L112.728,169.11 L110.701,171.3 L109.254,172.903 L109.179,173.349 L109.343,173.616 L109.684,173.631 L110.204,173.289 L111.132,172.451 L112.312,171.382 L113.574,170.06 L114.769,168.902 L115.823,167.67 L116.61,166.512 z M105.705,177.387 L105.876,176.986 L105.816,176.667 L105.601,176.541 L105.156,176.615 L105.156,176.615 L104.547,176.986 L104.243,177.365 L104.205,177.684 L104.384,178.003 L104.688,178.093 L105.096,177.951 L105.43,177.758 L105.705,177.387 z M100.82,185.264 L100.976,184.61 L100.924,184.239 L100.724,184.076 L100.33,184.091 L99.781,184.432 L99.781,184.432 L99.053,185.16 L98.786,185.694 L98.697,186.162 L98.771,186.533 L99.002,186.711 L99.217,186.711 L99.714,186.607 L100.234,186.266 L100.553,185.783 L100.82,185.264 z M113.99,154.448 L114.064,154.278 L113.901,153.454 L113.737,153.045 L113.723,152.741 L113.708,151.887 L113.515,150.818 L113.225,150.016 L112.832,149.556 L112.527,149.43 L112.527,149.43 L112.245,149.43 L112.119,149.593 L112.082,150.128 L112.082,151.019 L112.26,151.984 L112.564,152.682 L113.203,153.736 L113.633,154.359 L113.864,154.463 L113.99,154.448 z M111.392,135.8 L111.748,134.657 L111.585,134.123 L110.998,134.197 L110.337,135.013 L109.602,136.068 L109.157,137.775 L108.964,139.022 L108.979,139.935 L109.246,140.737 L109.588,140.737 L109.588,140.737 L109.714,140.507 L109.818,140.151 L110.174,138.918 L110.642,137.864 L110.887,137.189 L111.392,135.8 z M111.228,97.465 L111.228,97.465 L108.34,93.731 L105.846,90.056 L103.99,87.168 L103.278,85.186 L102.884,83.278 L102.416,81.979 L101.689,81.638 L100.976,81.831 L100.731,83.078 L101.251,85.253 L102.498,88.408 L104.064,90.954 L105.846,93.204 L107.806,95.164 L108.979,96.284 L111.228,97.465 z M110.374,110.352 L110.627,109.743 L110.553,108.689 L110.181,108.14 L109.966,107.94 L109.469,107.94 L109.098,108.014 L108.845,108.296 L108.845,108.296 L108.504,109.239 L108.363,109.988 L108.081,111.347 L107.992,112.431 L108.244,112.735 L108.764,112.802 L109.031,112.587 L109.157,112.015 L109.55,111.191 L109.944,110.746 L110.374,110.352 z M103.478,17.795 L103.248,18.218 L103.567,18.448 L103.946,18.522 L104.428,18.559 L104.926,18.522 L105.245,18.381 L105.23,18.062 L104.851,17.869 L104.369,17.706 L103.478,17.795 z M105.935,20.556 L105.534,20.482 L105.015,20.497 L104.681,20.638 L104.45,20.831 L104.643,21.061 L104.911,21.187 L105.378,21.254 L105.772,21.217 L106.061,20.876 L106.128,20.683 L105.935,20.556 z M106.24,27.646 L106.18,27.267 L106.247,26.518 L105.95,26.213 L105.519,26.213 L105.237,26.569 L104.963,26.926 L104.54,27.386 L104.235,28.151 L104.235,28.826 L104.376,29.197 L104.339,29.591 L104.606,29.68 L104.926,29.643 L104.926,29.643 L105.868,29.249 L106.685,28.819 L107.539,28.336 L108.192,28.106 L108.585,28.002 L108.979,27.416 L108.697,27.149 L108.147,27.186 L107.487,27.327 L106.759,27.609 L106.24,27.646 z M109.157,33.407 L109.098,33.191 L108.86,33.05 L108.578,33.065 L108.363,33.169 L108.363,33.169 L108.147,33.459 L108.043,33.674 L108.095,33.926 L108.326,34.067 L108.615,34.03 L108.83,33.904 L109.068,33.726 L109.157,33.407 z M109.573,34.884 L109.231,34.943 L109.016,35.069 L108.786,35.314 L108.771,35.619 L108.771,35.908 L108.934,35.997 L109.15,36.035 L109.15,36.035 L109.15,36.035 L109.15,36.035 L109.469,35.908 L109.803,35.604 L109.825,35.314 L109.788,35.01 L109.573,34.884 z M110.122,37.504 L109.885,37.207 L109.476,37.193 L109.083,37.46 L108.845,37.586 L108.63,37.779 L108.541,38.061 L108.63,38.276 L108.986,38.314 L109.254,38.276 L109.558,38.202 L109.877,38.076 L110.07,37.809 L110.122,37.504 z M109.981,45.047 L110.048,44.646 L109.959,44.394 L109.706,44.319 L109.328,44.334 L108.882,44.423 L108.578,44.639 L108.363,44.854 L108.326,45.21 L108.378,45.5 L108.667,45.663 L108.964,45.737 L108.964,45.737 L109.498,45.544 L109.892,45.277 L109.981,45.047 z M108.378,47.237 L108.214,47.422 L108.155,47.764 L108.229,48.068 L108.511,48.157 L108.816,48.194 L108.816,48.194 L109.439,47.927 L109.692,47.645 L109.818,47.363 L109.818,47.096 L109.714,46.932 L109.447,46.918 L109.075,46.955 L108.697,47.044 L108.378,47.237 z M108.355,40.021 L108.6,40.259 L108.994,40.259 L109.372,40.17 L109.602,39.917 L109.751,39.687 L109.677,39.457 L109.409,39.368 L108.964,39.383 L108.964,39.383 L108.593,39.524 L108.355,39.754 L108.355,40.021 z M108.355,42.3 L108.274,42.486 L108.311,42.805 L108.541,43.094 L108.771,43.183 L109.001,43.221 L109.558,42.953 L109.981,42.582 L110.018,42.033 L109.981,41.691 L109.692,41.528 L109.372,41.439 L109.105,41.454 L108.957,41.632 L108.89,41.877 L108.823,42.196 L108.66,42.3 L108.355,42.3 z M110.018,49.516 L110.018,49.315 L109.825,49.137 L109.32,49.085 L108.912,49.174 L108.058,49.62 L108.058,49.62 L107.865,49.761 L107.791,49.991 L107.917,50.28 L108.4,50.347 L108.986,50.295 L109.484,50.117 L109.825,49.835 L110.018,49.516 z M109.944,52.567 L110.018,52.099 L109.825,51.728 L109.357,51.565 L108.875,51.58 L108.533,51.721 L108.229,51.884 L107.873,52.203 L107.806,52.545 L107.947,52.812 L108.214,52.901 L108.429,52.938 L108.429,52.938 L108.964,52.938 L109.395,52.797 L109.944,52.567 z M109.194,54.527 L109.194,54.222 L108.979,53.918 L108.481,53.814 L107.932,53.888 L107.932,53.888 L107.576,54.141 L107.398,54.408 L107.36,54.801 L107.591,55.069 L108.125,55.084 L108.556,54.972 L108.964,54.898 L109.194,54.527 z M108.481,57.184 L108.548,56.761 L108.355,56.531 L107.925,56.531 L107.375,56.694 L107.375,56.694 L107.034,56.821 L106.804,57.088 L106.499,57.407 L106.536,57.749 L106.967,57.964 L107.464,57.964 L107.962,57.86 L108.214,57.541 L108.481,57.184 z M107.323,60.354 L107.524,60.057 L107.383,59.686 L106.989,59.493 L106.522,59.56 L106.098,59.753 L106.009,60.072 L106.024,60.287 L106.306,60.48 L106.306,60.48 L106.841,60.495 L107.323,60.354 z M106.826,62.618 L106.945,62.366 L106.893,62.062 L106.663,61.869 L106.284,61.869 L105.891,61.943 L105.891,61.943 L105.571,62.173 L105.571,62.492 L105.698,62.76 L106.091,62.849 L106.462,62.797 L106.826,62.618 z M105.846,65.313 L106.202,64.912 L106.165,64.63 L105.809,64.4 L105.43,64.4 L105.148,64.489 L105.022,64.756 L105.022,65.15 L105.312,65.313 L105.312,65.313 L105.846,65.313 z M105.312,67.058 L105.438,66.887 L105.423,66.62 L105.029,66.301 L104.569,66.338 L104.569,66.338 L104.265,66.553 L104.191,66.82 L104.495,67.125 L104.955,67.162 L105.312,67.058 z M100.085,36.985 L100.085,36.435 L99.588,36.309 L98.801,36.688 L98.281,37.059 L97.175,37.735 L96.21,38.202 L95.661,38.455 L95.431,38.863 L95.431,38.863 L95.646,39.152 L96.27,39.152 L97.272,39.138 L98.237,38.744 L99.202,38.284 L99.9,37.467 L100.093,36.985 z M96.433,46.502 L96.47,45.737 L96.203,45.307 L96.203,45.307 L96.203,45.307 L96.203,45.307 L95.579,45.411 L94.763,46.197 L93.174,48.729 L91.496,51.973 L90.553,53.844 L89.499,56.019 L88.215,58.001 L87.896,58.751 L87.948,59.018 L88.289,59.033 L89.343,58.625 L90.858,57.036 L92.855,54.237 L94.102,51.921 L95.223,50.065 L96.062,47.875 L96.433,46.502 z M94.636,75.877 L94.815,75.343 L94.726,74.593 L94.651,73.88 L94.473,73.561 L93.887,73.398 L93.887,73.398 L93.248,73.487 L92.573,74.021 L92.127,74.593 L92.127,75.164 L92.409,75.521 L92.751,75.966 L93.36,76.107 L94.265,76.092 L94.636,75.877 z M93.835,116.625 L94.31,116.662 L94.146,116.395 L93.916,116.024 L92.721,114.903 L91.244,113.567 L89.588,112.089 L86.597,109.491 L85.684,108.474 L85.684,108.474 L84.719,107.42 L83.954,106.477 L83.167,105.69 L82.432,104.799 L81.437,103.834 L80.509,103.278 L79.923,103.24 L79.581,103.582 L79.544,104.473 L79.737,105.438 L80.257,106.24 L81.096,107.116 L82.38,108.363 L83.449,109.202 L84.912,110.538 L86.248,111.585 L87.51,112.438 L90.628,114.539 L92.64,115.875 L93.835,116.625 z M79.039,68.253 L79.418,68.312 L79.953,68.275 L80.769,68.097 L81.608,67.867 L82.662,67.689 L83.605,67.6 L84.674,67.615 L85.936,67.615 L86.953,67.726 L87.777,67.971 L88.653,68.223 L89.225,68.298 L89.596,68.223 L89.7,67.882 L89.648,67.399 L88.772,66.546 L87.666,65.996 L86.493,65.744 L85.067,65.744 L82.729,66.033 L80.391,66.761 L79.27,67.221 L78.95,67.577 L78.913,68.06 L78.913,68.06 L79.039,68.253 z M90.91,35.671 L91.897,35.196 L92.446,34.342 L92.662,33.607 L93.107,33.251 L93.07,32.768 L92.84,32.768 L92.179,33.176 L91.095,33.852 L89.314,35.114 L89.314,35.114 L89.046,35.277 L88.816,35.597 L88.98,35.901 L89.893,35.901 L90.91,35.671 z M87.985,26.525 L88.794,26.993 L89.648,27.453 L90.613,27.846 L91.415,27.846 L92.164,27.564 L92.216,26.814 L91.934,25.961 L91.593,25.159 L90.917,24.691 L90.041,24.528 L88.846,24.58 L88.096,25.204 L87.755,25.901 L87.985,26.525 z M92.944,21.907 L92.825,22.301 L93.055,22.731 L93.679,22.694 L94.198,22.501 L94.57,22.071 L94.406,21.714 L93.909,21.536 L93.515,21.714 L93.515,21.714 L92.944,21.907 z M95.327,35.738 L95.045,36.168 L95.097,36.487 L95.49,36.614 L96.307,36.398 L97.109,35.901 L97.784,35.255 L97.947,34.646 L97.947,34.097 L97.643,33.904 L97.198,33.941 L96.589,34.349 L95.913,34.988 L95.327,35.738 z M66.739,77.429 L67.021,75.892 L66.909,75.461 L66.553,75.32 L66.553,75.32 L66.553,75.32 L66.553,75.32 L66.16,75.432 L65.692,76.092 L64.994,77.391 L64.638,78.743 L64.244,80.116 L63.584,81.556 L63.064,82.41 L62.567,82.944 L62.604,83.405 L62.96,83.657 L63.584,83.427 L64.17,82.981 L65.328,81.541 L65.989,79.529 L66.739,77.429 z M60.807,92.795 L60.896,92.506 L60.822,92.15 L60.391,91.756 L59.575,91.385 L58.432,90.888 L57.452,90.405 L56.383,90.138 L55.759,89.908 L55.187,89.922 L55.618,90.242 L56.865,90.991 L57.971,91.815 L59.092,92.513 L59.575,92.729 L60.273,92.833 L60.807,92.795 z M55.655,116.803 L55.566,117.137 L55.677,117.687 L55.945,117.939 L56.316,118.006 L56.62,117.776 L56.672,117.419 L56.62,117.115 L56.39,116.863 L56.39,116.863 L55.87,116.751 L55.655,116.803 z M47.704,101.637 L47.786,101.154 L47.534,99.499 L47.356,98.482 L46.947,97.324 L46.606,96.24 L46.591,95.386 L46.398,94.547 L46.205,94.369 L46.012,94.369 L45.908,94.533 L45.908,94.533 L45.715,95.921 L45.752,97.331 L45.967,98.541 L46.376,99.826 L46.784,100.642 L47.066,101.266 L47.244,101.607 L47.474,101.8 L47.601,101.8 L47.704,101.637 z M45.477,85.075 L45.693,84.577 L45.856,84.206 L45.856,83.672 L45.604,83.508 L45.336,83.635 L45.173,83.902 L44.639,84.83 L44.624,85.468 L44.839,85.646 L45.158,85.52 L45.477,85.075 z M57.184,75.721 L57.266,75.55 L57.251,75.246 L57.021,74.905 L56.65,74.459 L56.026,74.088 L55.633,73.732 L55.291,73.427 L54.987,73.375 L54.809,73.36 L54.705,73.553 L54.705,73.553 L54.757,73.947 L54.972,74.214 L55.455,74.697 L55.974,75.127 L56.576,75.469 L57.006,75.736 L57.184,75.721 z M50.221,66.323 L50.466,65.915 L50.451,65.61 L50.169,65.343 L49.85,65.254 L49.39,65.291 L49.39,65.291 L48.499,65.395 L48.068,65.699 L47.927,66.182 L48.053,66.538 L48.551,66.731 L49.367,66.642 L50.221,66.323 z M46.42,71.549 L46.45,70.569 L46.235,70.25 L45.663,70.413 L45.27,70.874 L45.27,70.874 L44.52,72.173 L44.178,73.954 L44.089,74.897 L44.089,75.595 L44.252,75.951 L44.713,75.825 L45.566,74.504 L46.049,72.937 L46.42,71.549 z M39.524,99.105 L39.85,98.705 L39.724,98.244 L39.256,98.192 L38.722,98.46 L38.989,98.979 L39.524,99.105 z M85.416,25.226 L85.624,24.862 L85.305,24.342 L84.897,24.253 L84.399,24.328 L83.739,24.647 L82.298,25.322 L80.784,25.998 L79.27,26.725 L78.446,27.423 L78.446,27.423 L78.965,27.475 L79.982,27.401 L81.036,27.134 L82.729,26.673 L83.961,25.924 L84.511,25.463 L85.008,25.337 L85.416,25.226 z M79.344,34.424 L79.403,34.156 L79.314,33.837 L79.188,33.644 L78.921,33.57 L78.921,33.57 L78.921,33.57 L78.921,33.57 L78.668,33.585 L78.475,33.8 L78.438,34.156 L78.542,34.446 L78.735,34.55 L79.077,34.55 L79.344,34.424 z M76.167,31.499 L76.3,31.09 L76.263,30.623 L76.174,30.356 L75.922,30.304 L75.639,30.304 L75.424,30.445 L75.424,30.445 L75.157,30.875 L75.12,31.194 L75.35,31.462 L75.632,31.603 L75.988,31.588 L76.167,31.499 z M73.605,32.137 L73.895,31.172 L73.613,30.712 L72.989,30.192 L72.47,30.14 L71.898,30.422 L71.898,30.422 L71.2,31.387 L70.911,32.367 L71.037,33.065 L71.378,33.28 L72.358,33.065 L73.086,32.657 L73.605,32.137 z M162.919,79.678 L163.446,80.398 L163.32,81.185 L162.733,82.774 L161.152,85.268 L160.046,87.695 L159.511,90.138 L159.259,92.098 L159.578,95.178 L160.098,98.14 L160.706,101.028 L161.226,105.022 L161.152,108.251 L160.833,111.852 L159.853,114.094 L158.658,116.447 L156.557,119.283 L154.916,120.723 L153.082,121.703 L151.375,122.482 L150.128,122.75 L149.809,123.336 L150.714,124.85 L151.768,126.959 L151.91,128.013 L151.91,129.26 L151.516,131.754 L151.449,133.982 L151.516,135.496 L151.961,137.01 L152.028,137.33 L151.761,137.864 L151.175,137.649 L150.269,135.615 L150.195,135.563 L149.534,133.514 L149.267,130.552 L148.821,128.325 L147.767,126.417 L146.913,125.363 L146.253,125.044 L145.718,125.311 L145.859,126.09 L147.04,127.731 L147.626,129.832 L147.626,132.831 L147.166,135.86 L146.646,138.161 L145.466,140.262 L144.026,142.563 L143.417,143.736 L142.504,144.983 L141.724,146.037 L141.917,147.218 L142.17,147.878 L141.724,148.487 L140.871,148.487 L140.41,147.099 L140.284,145.659 L140.41,144.412 L141.071,142.378 L142.177,140.009 L143.372,137.515 L143.766,134.947 L143.892,133.061 L143.625,131.866 L143.306,130.619 L142.986,130.299 L142.593,130.299 L142.251,131.012 L141.984,132.527 L141.732,134.702 L141.197,136.201 L141.197,137.983 L141.465,139.037 L141.271,139.497 L140.878,139.549 L140.418,138.889 L140.024,136.342 L140.024,133.113 L140.151,131.599 L140.292,130.619 L140.076,129.178 L139.95,127.664 L139.49,126.558 L138.97,126.216 L138.384,126.357 L137.849,126.877 L137.723,128.466 L137.523,130.552 L136.862,132.801 L135.934,134.835 L134.954,136.617 L133.774,138.703 L132.133,140.559 L130.552,142.392 L128.985,144.033 L126.684,145.993 L124.977,147.455 L123.537,148.361 L122.75,148.821 L122.022,150.002 L121.309,152.444 L121.042,153.35 L121.042,154.931 L121.168,156.111 L121.755,157.232 L122.95,158.732 L123.7,160.016 L124.041,160.803 L124.331,162.154 L124.398,163.602 L124.717,164.381 L124.257,164.968 L124.056,165.502 L123.544,166.022 L121.369,167.217 L119.216,168.657 L116.388,171.278 L114.873,172.859 L114.161,174.299 L113.307,174.819 L112.253,175.405 L111.518,175.94 L111.392,177.12 L110.805,178.56 L109.684,180.149 L108.778,181.329 L107.925,181.864 L107.39,182.257 L106.878,182.116 L106.41,181.99 L106.536,182.651 L106.804,183.311 L106.336,186.452 L105.482,187.253 L104.577,187.647 L103.99,187.647 L103.723,188.307 L102.016,189.094 L100.709,189.874 L99.462,190 L96.574,190 L95.787,189.161 L95.713,187.84 L96.106,186.199 L96.767,184.217 L97.888,182.257 L99.722,180.349 L101.214,178.709 L102.535,177.068 L103.122,175.873 L104.228,174.819 L106.084,174.106 L106.989,173.572 L109.09,171.27 L111.392,168.776 L113.693,165.814 L114.814,164.248 L115.526,163.067 L115.794,162.34 L115.794,161.753 L115.4,160.899 L113.366,158.405 L111.659,155.71 L110.412,153.142 L108.823,149.861 L107.576,147.099 L107.056,144.998 L106.663,141.398 L107.056,138.168 L107.836,135.088 L109.15,132.72 L110.471,130.544 L111.451,128.852 L111.77,127.731 L111.911,125.504 L111.911,124.45 L112.305,123.596 L112.824,122.208 L113.411,121.569 L113.359,120.961 L112.557,120.961 L111.718,121.369 L111.31,122.275 L111.184,123.722 L110.983,125.556 L110.716,127.211 L109.469,129.371 L109.216,130.886 L108.162,132.007 L107.427,132.72 L106.499,132.846 L105,132.259 L103.359,131.079 L102.75,129.513 L102.624,127.998 L99.952,124.383 L97.383,122.208 L94.406,120.085 L91.177,117.895 L88.66,116.558 L85.312,114.762 L81.177,111.592 L78.965,109.632 L76.382,106.796 L74.244,104.673 L72.908,102.691 L72.21,101.37 L72.44,100.82 L72.833,99.803 L67.399,99.803 L64.794,98.927 L62.76,97.754 L62.76,96.581 L60.547,95.319 L55.982,93.107 L54.096,92.409 L52.277,91.303 L51.015,90.197 L50.162,90.197 L49.056,90.821 L48.432,92.476 L48.825,95.238 L49.909,97.517 L50.548,100.419 L51.335,103.56 L52.277,105.772 L53.777,107.502 L53.703,108.355 L53.844,109.692 L54.646,109.944 L56.835,110.887 L58.016,112.067 L58.662,113.01 L58.825,113.559 C58.825,113.633 58.825,114.183 58.899,114.183 L59.293,115.059 L59.293,118.125 L58.973,119.461 L58.439,120.404 L57.956,121.51 L57.17,121.74 L56.227,121.666 L54.809,120.79 L52.849,118.904 L51.513,116.944 L50.637,114.732 L49.39,112.839 L48.284,111.733 L47.088,110.79 L46.628,109.684 L46.146,106.544 L45.522,104.495 L45.292,102.676 L44.809,100.731 L44.111,97.97 L43.562,95.134 L42.456,91.519 L41.973,88.683 L42.063,87.116 L42.916,84.978 L44.022,83.093 L45.359,81.92 L46.621,81.133 L48.276,81.044 L51.112,81.133 L53.465,81.593 L55.908,82.076 L57.793,82.239 L59.129,82.543 L59.523,82.15 L59.129,81.363 L57.882,80.814 L56.62,79.797 L55.195,78.535 L53.859,76.968 L52.678,75.239 L51.572,73.977 L50.555,73.427 L49.842,73.197 L49.293,73.36 L48.744,74.058 L48.514,75.164 L48.439,76.426 L48.187,77.369 L47.883,78.475 L47.17,79.418 L46.383,80.116 L45.67,80.762 L45.188,81.066 L44.171,81.155 L43.621,82.009 L42.909,82.647 L42.122,83.909 L41.335,86.337 L41.016,87.926 L41.016,89.336 L41.268,90.836 L41.728,92.81 L42.211,94.696 L42.604,96.262 L42.909,97.524 L42.449,99.091 L41.268,100.976 L39.917,102.617 L38.974,103.471 L37.957,103.79 L37.408,103.396 L36.695,101.756 L36.784,99.707 L36.554,98.46 L36.948,97.034 L36.948,93.575 L37.022,91.593 L37.096,90.412 L37.645,89.239 L38.521,87.191 L38.841,84.748 L39.39,82.788 L40.407,80.806 L40.956,78.683 L41.58,76.56 L42.129,75.224 L42.218,72.945 L42.842,71.037 L43.466,69.79 L44.015,67.741 L44.497,66.405 L45.195,64.675 L46.546,63.732 L48.113,62.856 L50.325,62.396 L52.055,62.7 L54.015,63.413 L55.833,64.912 L57.489,66.249 L58.825,67.266 L61.408,68.617 L63.71,69.634 L65.276,70.651 L66.687,71.297 L67.399,71.46 L68.505,70.911 L69.292,70.428 L70.079,69.404 L71.185,68.142 L72.915,67.273 L74.964,66.026 L76.3,64.92 L77.406,64.133 L78.267,63.116 L78.891,61.067 L80.071,59.82 L81.927,58.253 L83.939,56.242 L85.528,54.052 L87.295,51.825 L88.757,49.546 L89.188,48.387 L89.833,46.71 L90.442,44.876 L91.051,43.198 L91.481,41.862 L91.697,40.704 L91.786,39.761 L91.355,39.034 L90.568,38.729 L88.764,38.603 L87.354,38.856 L86.448,38.729 L84.77,38.21 L83.486,38.083 L82.662,37.601 L81.66,37.475 L80.643,37.527 L79.945,37.297 L79.039,37.475 L77.97,37.69 L76.345,38.544 L75.224,38.811 L74.192,38.848 L73.368,38.848 L72.351,38.722 L71.868,38.291 L71.92,37.772 L72.202,37.289 L73.665,36.859 L75.61,36.131 L76.256,35.79 L76.434,35.329 L76.256,34.847 L75.491,34.81 L73.583,35.574 L72.173,36.005 L70.925,36.346 L70.161,36.398 L69.515,36.057 L68.787,35.396 L68.787,34.201 L68.736,33.08 L68.787,32.278 L69.337,31.58 L70.161,30.155 L71.015,28.871 L71.356,28.262 L71.66,27.371 L72.054,26.547 L72.729,26.369 L74.496,26.332 L75.781,26.295 L77.243,25.938 L78.794,25.263 L80.502,24.142 L82.692,23.266 L84.577,21.93 L86.129,21.106 L87.146,20.43 L87.718,20.163 L88.66,19.821 L88.876,19.48 L88.698,19.049 L86.686,18.144 L85.312,17.802 L84.154,17.446 L82.64,17.372 L81.927,17.409 L81.229,17.713 L80.621,17.891 L79.975,17.75 L79.67,17.231 L79.938,16.859 L80.791,16.807 L81.86,16.466 L83.286,16.162 L84.229,16.288 L84.956,16.124 L84.971,15.427 L84.971,15.427 L84.451,15.338 L83.204,15.39 L82.937,14.603 L85.179,14.142 L86.552,14.09 L89.514,14.729 L92.528,15.583 L94.184,15.456 L94.703,14.996 L94.629,14.209 L93.916,13.281 L93.991,12.494 L95.49,10 L97.933,12.227 L99.967,14.402 L100.553,15.189 L102.713,15.189 L105.208,15.583 L107.116,16.436 L108.615,17.416 L109.936,18.879 L117.353,18.738 L118.347,18.931 L119.402,19.198 L119.654,19.658 L119.209,20.245 L117.301,20.831 L114.732,21.685 L113.285,22.932 L115.905,23.593 L117.813,24.714 L119.988,26.993 L122.557,27.601 L125.637,29.828 L127.597,32.716 L127.078,33.251 L125.63,32.397 L123.848,30.415 L121.688,30.415 L119.194,29.828 L117.338,29.168 L115.697,28.314 L114.792,27.921 L114.205,28.381 L114.918,29.042 L116.826,30.341 L118.533,32.048 L119.312,32.976 L122.661,33.169 L124.427,33.362 L126.87,34.609 L128.436,36.057 L128.971,36.591 L128.896,37.178 L128.236,36.985 L126.669,35.864 L125.155,35.277 L123.173,35.404 L121.874,35.545 L120.359,35.545 L119.431,35.47 L118.719,35.203 L118.258,34.884 L117.939,35.277 L118.852,36.383 L120.56,37.311 L123.715,38.826 L125.281,39.538 L127.063,39.932 L127.189,40.593 L125.623,41.053 L123.789,40.734 L122.081,39.932 L119.78,39.806 L117.553,38.878 L116.165,38.165 L115.185,38.039 L115.311,38.826 L118.073,41.253 L120.107,44.282 L120.693,45.782 L121.888,46.784 L123.329,48.35 L123.722,49.739 L125.095,50.986 L125.756,51.238 L125.296,51.966 L124.383,51.698 L122.802,50.845 L121.035,49.204 L119.647,48.15 L117.026,46.635 L114.457,44.601 L114.012,44.601 L114.138,45.136 L116.098,46.97 L117.88,48.076 L119.446,49.078 L120.894,50.377 L121.161,51.431 L122.282,53.072 L123.136,53.799 L124.583,53.992 L125.83,54.311 L126.684,55.039 L126.098,55.559 L124.583,55.826 L123.195,55.432 L122.141,55.432 L120.768,54.72 L119.914,53.525 L118.592,53.064 L115.846,52.277 L114.457,51.958 L113.871,52.352 L114.064,53.012 L115.385,53.725 L116.833,55.432 L117.494,56.219 L119.847,57.273 L122.148,59.322 L123.47,61.356 L124.13,62.262 L124.865,62.21 L125.118,62.604 L124.598,62.923 L124.168,63.101 L124.064,63.116 L122.104,61.935 L121.369,60.562 L119.461,60.347 L117.961,59.56 L116.38,59.308 L116.722,60.146 L117.895,61.074 L117.768,61.661 L116.647,61.535 L115.861,60.948 L114.539,60.555 L113.485,60.339 L113.359,60.8 L114.071,61.728 L115.712,62.314 L117.62,62.633 L119.068,63.361 L120.381,64.482 L121.896,65.001 L123.663,65.076 L124.516,65.469 L124.197,66.182 L123.076,66.716 L120.975,66.642 L118.875,65.736 L117.575,65.076 L116.254,64.682 L114.547,64.682 L113.492,65.269 L114.027,65.588 L115.467,65.781 L117.033,65.974 L118.941,66.976 L120.122,68.082 L121.243,68.81 L122.148,69.077 L121.629,69.47 L120.508,69.47 L119.134,69.129 L118.281,68.416 L117.226,68.609 L115.267,68.609 L113.359,68.736 L111.451,68.736 L110.597,68.609 L110.523,69.129 L111.451,69.715 L113.611,70.443 L115.853,70.903 L117.353,72.009 L118.6,73.472 L119.988,74.578 L121.436,74.771 L123.143,74.504 L125.103,73.858 L125.689,73.249 L126.306,73.197 L126.231,73.657 L125.571,74.296 L124.056,75.224 L122.95,75.743 L120.968,76.011 L118.206,75.617 L116.64,74.83 L113.685,73.65 L110.924,73.19 L109.424,72.462 L108.764,72.922 L109.424,73.457 L112.757,74.756 L115.519,76.196 L117.301,77.785 L117.961,78.691 L117.568,79.225 L116.514,78.765 L114.212,77.25 L112.624,76.731 L111.25,76.731 L111.05,77.25 L112.03,77.443 L113.797,78.104 L115.578,79.745 L116.506,81.259 L117.152,82.239 L117.88,82.699 L118.34,82.506 L118.733,82.581 L118.392,83.241 L116.892,83.048 L115.445,82.046 L114.324,81.14 L112.149,79.819 L110.122,78.891 L108.355,78.965 L106.18,77.911 L104.807,76.983 L104.272,77.443 L104.005,79.812 L105.059,83.627 L108.942,89.989 L112.49,94.391 L118.993,99.848 L123.522,102.914 L124.962,104.035 L128.243,106.729 L131.472,109.81 L132.972,111.844 L134.093,113.233 L135.8,115.586 L137.047,118.028 L137.508,119.721 L140.982,119.528 L144.597,117.494 L147.418,114.925 L150.18,111.451 L150.915,109.224 L151.308,107.242 L151.561,104.822 L151.561,102.52 L150.974,98.259 L149.994,92.677 L148.48,88.022 L147.693,85.06 L146.906,81.638 L147.032,78.356 L147.299,75.929 L148.205,73.487 L149.853,70.473 L151.546,68.171 L153.914,66.07 L155.822,64.43 L156.943,63.702 L158.316,62.99 L158.635,63.242 L158.383,63.777 L155.688,66.078 L153.513,68.773 L151.872,72.121 L150.944,75.135 L150.751,77.829 L150.826,79.277 L151.019,79.886 L151.605,79.938 L154.634,76.389 L156.668,74.429 L158.435,72.982 L159.63,71 L160.417,69.04 L160.877,68.58 L161.13,69.292 L160.937,71.542 L159.363,74.749 L156.727,78.691 L155.428,80.791 L154.894,83.041 L154.768,85.461 L155.235,87.562 L156.022,88.022 L156.876,87.881 L157.663,86.114 L158.324,85.06 L159.964,83.078 L160.551,82.684 L161.605,81.118 L162.191,80.457 L162.191,79.336 L162.919,79.678 z M92.922,14.514 L92.922,14.521 L90.821,14.521 L89.626,13.667 L88.772,13.207 L88.846,12.294 L89.574,11.633 L89.499,10.846 L89.96,10.186 L90.62,10.379 L92.781,12.999 L92.922,14.514 z" fill="#000000"/>
  </g>
</svg>
