<?xml version="1.0" encoding="UTF-8"?>
<!DOCTYPE svg PUBLIC "-//W3C//DTD SVG 1.1//EN" "http://www.w3.org/Graphics/SVG/1.1/DTD/svg11.dtd">
<svg version="1.1" xmlns="http://www.w3.org/2000/svg" xmlns:xlink="http://www.w3.org/1999/xlink" x="0" y="0" width="200" height="200" viewBox="0, 0, 200, 200">
  <g id="Layer_1">
    <path d="M52.853,107.021 C34.554,109.64 17.565,111.969 17.565,111.969 C16.837,112.041 15.164,112.369 13.563,112.296 C12.763,112.26 11.999,112.114 11.38,111.86 C10.726,111.569 10.289,111.168 10.071,110.586 C9.743,109.713 9.962,108.622 10.726,107.385 C11.453,106.148 12.617,104.838 14.145,103.529 C30.516,88.977 48.487,92.397 48.487,92.397 C48.487,92.397 50.161,92.651 52.853,93.052 M105.784,90.25 L104.111,91.233 L103.783,89.305 L106.112,86.794 z M106.257,85.303 L103.529,88.177 L102.801,84.321 L107.167,75.662 z M109.531,89.05 L107.239,94.907 C106.876,94.398 106.475,93.888 105.966,93.452 L106.33,93.488 L106.621,90.796 L109.531,89.05 z M104.147,92.178 L105.602,91.305 L105.457,93.052 C105.057,92.724 104.657,92.47 104.147,92.178 z M102.801,88.977 L101.492,90.396 L100.582,88.686 L102.11,85.63 z M101.855,91.305 L102.983,90.068 L103.311,91.742 C102.874,91.596 102.365,91.451 101.855,91.305 z M99.563,88.613 L98.69,90.36 L97.381,88.977 L98.036,85.63 z M99.309,91.233 L100.146,89.705 L100.909,91.16 C100.364,91.087 99.854,91.196 99.309,91.233 z M108.331,97.09 C108.222,96.58 107.967,96.144 107.712,95.707 L109.386,95.78 L108.331,97.09 z M110.113,94.907 L108.222,94.798 L110.841,88.322 L119.172,83.411 z M72.097,128.521 C72.206,128.412 73.88,127.248 73.807,127.248 C74.607,126.702 75.153,126.302 75.553,125.975 C75.335,126.302 74.389,127.794 74.389,127.794 C74.389,127.794 73.298,129.576 73.261,129.613 C73.225,129.576 72.134,128.558 72.097,128.521 z M90.578,138.635 C90.651,138.635 91.487,136.743 91.487,136.707 C91.851,135.87 92.106,135.215 92.288,134.706 C92.288,135.069 92.215,136.852 92.215,136.852 C92.215,136.852 92.178,138.926 92.178,138.998 C92.069,138.998 90.651,138.671 90.578,138.635 z M75.153,96.362 L75.117,96.398 L75.371,96.398 C81.083,97.235 85.921,97.963 87.558,98.181 C90.687,98.618 93.488,97.744 95.343,97.017 C95.125,97.344 94.907,97.453 94.616,97.89 C91.742,100.728 89.013,101.564 87.886,101.746 C87.777,101.746 87.631,101.783 87.595,101.783 C78.827,103.238 65.513,105.202 52.853,107.021 L52.816,93.015 C58.164,93.816 67.441,95.198 75.153,96.362 z M94.58,99.964 C94.58,101.091 95.016,102.146 95.671,102.983 C94.398,102.51 92.833,102.001 90.432,101.819 C91.706,101.273 93.161,100.364 94.798,98.872 C94.725,99.236 94.58,99.563 94.58,99.964 z M120.954,82.538 C123.901,86.067 125.938,90.36 126.848,95.089 C125.829,95.198 124.738,95.38 123.756,95.525 L123.756,95.38 L111.241,94.943 L120.954,82.538 z M70.315,79.773 C71.042,80.173 71.006,81.046 70.169,82.465 C69.478,83.593 68.532,84.466 67.259,84.83 L67.55,87.304 C69.187,87.049 70.897,85.739 72.061,83.739 C73.989,80.501 73.552,78.318 71.624,77.227 C69.478,75.953 67.695,77.736 66.24,79.409 C64.785,81.046 64.312,81.447 63.657,81.083 C63.184,80.828 63.002,80.137 63.73,78.864 C64.348,77.772 65.222,77.118 66.313,76.754 L65.949,74.244 C64.312,74.789 62.966,75.808 61.875,77.663 C60.492,80.028 60.456,82.574 62.275,83.629 C64.203,84.757 65.731,83.593 67.404,81.629 C69.187,79.628 69.66,79.409 70.315,79.773 z M74.753,63.948 L69.914,67.513 L76.754,76.754 L78.973,75.117 L76.572,71.843 L78.973,70.024 C81.265,68.35 82.32,66.204 80.719,64.021 C79.264,62.093 76.863,62.42 74.753,63.948 z M86.685,57.946 L83.629,58.673 L90.25,64.276 L91.269,68.641 L93.961,67.986 L92.906,63.584 L96.435,55.617 L93.379,56.345 L92.106,59.437 C91.742,60.238 91.305,61.547 91.16,61.984 C90.832,61.62 89.85,60.674 89.195,60.128 L86.685,57.946 z M103.674,55.836 L101.346,67.077 L104.038,67.623 L104.729,64.312 L107.312,62.639 L109.859,68.823 L113.133,69.551 L109.677,61.183 L114.406,58.091 L111.132,57.4 L106.585,60.456 C106.184,60.711 105.53,61.147 105.311,61.365 C105.384,61.002 105.639,59.983 105.712,59.583 L106.366,56.381 L103.674,55.836 z M121.682,61.474 L115.097,70.751 L123.101,76.499 L124.41,74.68 L118.626,70.533 L120.227,68.277 L123.465,70.533 L124.738,68.714 L121.5,66.458 L122.628,64.858 L128.157,68.823 L129.467,67.004 L121.682,61.474 z M134.997,72.898 L125.138,78.791 L126.557,81.156 L130.122,79.009 L131.541,81.374 L129.285,85.594 L130.922,88.286 L133.36,83.739 C134.706,84.975 136.124,85.157 137.58,84.284 C139.69,83.084 139.581,80.61 138.271,78.391 L134.997,72.898 z M99.891,69.587 C84.866,69.587 72.425,80.428 69.951,94.725 C63.621,93.816 57.073,92.833 52.925,92.215 C56.636,69.551 76.281,52.271 100,52.271 C123.646,52.271 143.328,69.478 147.075,92.069 C141.327,92.906 135.433,93.816 129.867,94.652 C127.321,80.428 114.843,69.587 99.891,69.587 z M136.052,81.847 C135.179,82.392 134.415,82.029 133.796,80.937 L131.941,77.845 L134.487,76.354 L136.343,79.446 C136.961,80.464 136.998,81.338 136.052,81.847 z M96.871,91.778 L97.162,90.105 L98.327,91.342 C97.817,91.415 97.381,91.596 96.871,91.778 z M78.464,65.767 C79.046,66.568 78.827,67.332 77.772,68.132 L75.189,70.024 L73.407,67.659 L75.953,65.804 C76.972,65.076 77.881,65.003 78.464,65.767 z M94.216,93.415 C93.743,93.816 93.233,94.143 92.906,94.616 L90.541,88.941 L93.525,90.687 L93.816,93.452 L94.216,93.415 z M97.308,84.321 L96.617,88.177 L93.852,85.266 L92.833,75.662 z M189.929,89.341 C190.257,90.214 190.002,91.269 189.311,92.506 C188.583,93.743 187.383,95.125 185.891,96.435 C173.595,107.349 160.462,108.149 154.641,107.858 C152.713,107.749 151.549,107.53 151.513,107.53 L151.476,107.53 C151.476,107.53 149.803,107.312 147.184,106.912 C141.872,106.148 132.559,104.766 124.738,103.602 C124.701,103.602 124.701,103.602 124.701,103.602 C119.317,102.838 113.97,102.001 112.369,101.783 C109.24,101.382 106.475,102.219 104.62,102.947 C104.657,102.91 104.657,102.874 104.693,102.838 C104.911,102.583 105.093,102.474 105.42,102.037 C108.076,99.454 110.55,98.581 111.823,98.29 C112.005,98.254 112.187,98.254 112.369,98.217 L112.369,98.181 C121.136,96.726 134.451,94.725 147.147,92.906 C165.446,90.25 182.435,87.922 182.435,87.922 C183.163,87.813 184.8,87.558 186.4,87.631 C187.201,87.667 187.965,87.777 188.62,88.068 C189.238,88.322 189.711,88.759 189.929,89.341 z M107.167,73.771 L102.547,82.902 L100.582,72.716 C102.838,72.752 105.057,73.189 107.167,73.771 z M108.149,73.989 C110.332,74.68 112.405,75.59 114.297,76.754 L107.203,84.248 L108.149,73.989 z M97.417,96.253 L99.964,99.927 L97.49,103.747 C96.289,102.947 95.489,101.528 95.489,99.964 C95.489,98.399 96.253,97.053 97.417,96.253 z M107.058,85.703 L113.679,78.718 L110.077,87.704 L106.694,89.668 z M99.891,71.806 C86.067,71.806 74.535,81.847 72.17,95.052 C71.733,94.98 71.26,94.907 70.788,94.834 C73.261,80.974 85.339,70.424 99.891,70.424 C114.443,70.424 126.484,80.937 128.994,94.761 C128.521,94.798 128.048,94.871 127.612,94.943 C125.211,81.81 113.715,71.806 99.891,71.806 z M119.426,96.253 C117.316,96.617 114.115,97.053 112.151,97.344 L112.151,97.272 C111.241,97.381 110.259,97.381 109.313,97.272 L110.404,95.889 L119.426,96.253 z M101.055,92.142 C103.929,92.542 106.221,94.434 107.239,96.944 C104.766,96.362 102.838,95.416 102.838,95.416 L102.801,95.489 C101.964,94.943 100.982,94.58 99.964,94.58 C98.945,94.58 97.999,94.98 97.199,95.489 L97.162,95.416 L97.053,95.453 C97.053,95.453 95.089,96.398 92.542,96.981 C93.888,93.706 97.344,91.596 101.055,92.142 z M102.547,103.674 L99.964,99.927 L102.401,96.144 C103.674,96.908 104.511,98.327 104.511,99.927 C104.511,101.492 103.747,102.838 102.547,103.674 z M88.795,94.871 L75.226,95.489 C74.535,95.38 73.807,95.271 73.079,95.162 C73.916,90.396 75.953,86.067 78.936,82.538 L88.795,94.871 z M120.154,81.701 L111.314,86.94 L115.134,77.336 C116.953,78.609 118.662,80.064 120.154,81.701 z M91.924,94.689 L89.959,94.761 L80.792,83.338 L89.305,88.213 z M91.706,96.908 L90.651,95.562 L92.397,95.489 C92.142,95.962 91.887,96.398 91.706,96.908 z M104.329,96.981 C105.566,97.453 107.312,98.036 109.313,98.217 C108.149,98.763 106.767,99.6 105.348,100.873 C105.384,100.618 105.42,100.327 105.42,100.036 C105.42,98.836 104.984,97.854 104.329,96.981 z M94.652,92.942 L94.507,91.233 L96.035,92.142 C95.525,92.36 95.052,92.615 94.652,92.942 z M94.034,86.722 L96.435,89.232 L96.071,91.087 L94.398,90.141 z M90.032,87.631 L86.285,78.609 L93.015,85.667 L93.415,89.596 z M99.418,72.716 L97.563,82.902 L92.833,73.734 C94.98,73.152 97.162,72.752 99.418,72.716 z M91.778,73.989 L92.797,84.211 L85.667,76.717 C87.558,75.517 89.632,74.68 91.778,73.989 z M98.29,84.175 L100.036,74.607 L101.855,84.175 L100.073,87.667 z M84.83,77.409 L88.686,86.867 L79.773,81.774 C81.265,80.101 82.975,78.645 84.83,77.409 z M116.443,104.875 L124.629,104.438 C125.575,104.584 125.793,104.62 126.811,104.766 C126.448,106.839 125.793,108.877 124.992,110.768 L116.443,104.875 z M115.025,104.911 L123.064,110.55 C123.064,110.55 113.569,108.222 113.569,108.185 L111.059,105.057 L115.025,104.911 z M108.294,102.947 L109.277,104.293 L107.567,104.366 C107.858,103.893 108.113,103.456 108.294,102.947 z M105.93,113.169 L103.492,110.695 L103.856,108.877 L105.566,109.822 z M105.311,106.985 L105.457,108.658 L103.929,107.785 C104.438,107.567 104.911,107.312 105.311,106.985 z M107.13,105.311 L107.749,106.803 L105.93,106.403 C106.366,106.039 106.803,105.712 107.13,105.311 z M113.86,104.074 L110.404,104.184 L109.168,102.656 C110.077,102.547 110.95,102.547 111.86,102.619 L113.86,104.074 z M131.432,113.897 L131.031,114.661 L135.215,118.008 C135.215,118.008 136.416,118.917 136.852,119.281 C136.488,119.172 134.888,118.626 134.888,118.626 L129.758,117.098 L129.358,117.862 L137.907,120.263 L138.271,119.536 L131.432,113.897 z M131.795,112.733 L131.468,113.497 L139.471,116.807 L139.799,116.043 L131.795,112.733 z M132.85,109.822 L132.559,110.586 L140.272,114.952 L140.49,114.151 C140.49,114.151 138.526,113.06 138.489,113.06 C138.489,113.024 139.035,111.241 139.071,111.205 C139.144,111.205 141.363,111.423 141.363,111.423 L141.654,110.623 L132.85,109.822 z M133.542,126.775 L134.051,126.157 C134.051,126.157 127.939,121.391 127.903,121.355 C127.939,121.282 128.849,120.118 128.849,120.118 L128.157,119.572 L125.756,122.664 L126.448,123.21 C126.448,123.21 127.357,122.009 127.393,121.973 C127.43,122.009 133.542,126.775 133.542,126.775 z M130.85,130.013 C131.613,129.176 131.577,128.048 130.74,127.175 C129.867,126.338 128.921,126.084 127.466,126.302 C126.193,126.484 125.756,126.229 125.247,125.793 C124.883,125.429 124.665,124.847 125.102,124.41 C125.429,124.01 125.938,124.119 126.63,124.338 L126.666,124.338 L126.848,123.537 L126.811,123.537 C126.084,123.246 125.284,123.064 124.556,123.828 C124.229,124.119 124.047,124.556 124.047,124.992 C124.047,125.502 124.338,126.047 124.738,126.448 C125.502,127.212 126.229,127.393 127.685,127.212 C128.849,127.066 129.576,127.284 130.231,127.866 C130.704,128.339 130.74,128.958 130.304,129.394 C129.94,129.758 129.431,129.758 128.558,129.394 L128.521,129.394 L128.23,130.195 L128.267,130.195 C129.358,130.74 130.195,130.704 130.85,130.013 z M126.229,134.051 L128.885,131.868 L128.339,131.177 C128.339,131.177 126.338,132.814 126.302,132.85 C126.266,132.814 124.192,130.34 124.156,130.304 C124.229,130.231 125.393,129.285 125.393,129.285 L124.847,128.594 C124.847,128.594 123.646,129.576 123.61,129.613 C123.537,129.54 121.9,127.539 121.864,127.503 C121.937,127.466 123.828,125.866 123.828,125.866 L123.246,125.174 L120.663,127.357 L126.229,134.051 z M122.228,136.743 L123.028,136.343 L117.171,129.649 L116.371,130.086 L118.99,138.526 L119.717,138.125 C119.717,138.125 119.026,135.979 119.026,135.943 C119.063,135.906 120.7,135.033 120.736,134.997 C120.772,135.069 122.228,136.743 122.228,136.743 z M117.135,139.362 L117.899,138.998 L114.333,131.068 L113.569,131.432 L117.135,139.362 z M113.533,140.708 L114.261,140.454 L113.169,131.686 L112.442,131.977 L113.169,137.252 C113.242,138.053 113.388,138.853 113.533,139.508 C113.242,138.962 112.842,138.234 112.442,137.507 L109.75,132.85 L109.022,133.141 L113.533,140.708 z M109.968,141.8 L110.586,141.618 L108.877,133.105 L108.113,133.251 L109.131,138.125 C109.131,138.125 109.386,139.217 109.459,139.544 C109.277,139.253 108.367,137.798 108.367,137.798 L105.748,133.796 C105.712,133.796 104.984,133.942 104.984,133.942 L104.948,133.942 L106.73,142.454 L107.494,142.273 L106.439,137.179 C106.439,137.179 106.148,135.943 106.112,135.761 C106.294,136.052 107.203,137.507 107.203,137.507 L109.968,141.8 z M104.329,142.745 L105.202,142.673 L104.256,134.014 L103.383,134.087 L104.329,142.745 z M99.891,142.927 L100.036,134.233 L99.163,134.233 L99.018,142.927 L99.891,142.927 z M98.436,136.015 L98.436,135.943 C98.181,134.633 97.635,133.978 96.762,133.905 C95.416,133.833 94.47,135.361 94.143,138.198 C93.852,141.072 94.434,142.745 95.853,142.891 C96.835,143 97.453,142.491 97.963,141.254 L97.963,141.218 L97.272,140.781 L97.272,140.817 C96.871,141.763 96.508,142.091 95.962,142.054 C95.744,142.054 95.562,141.909 95.38,141.727 C94.943,141.181 94.798,139.981 94.98,138.307 C95.198,136.015 95.78,134.778 96.653,134.851 C97.235,134.888 97.453,135.251 97.672,136.306 L97.672,136.343 L98.472,136.015 z M92.979,142.382 L93.015,133.578 L92.142,133.396 L88.504,141.472 L89.305,141.654 C89.305,141.654 90.214,139.581 90.214,139.544 C90.287,139.544 92.106,139.944 92.142,139.944 C92.142,139.981 92.106,142.2 92.106,142.2 L92.979,142.382 z M86.831,140.89 L87.449,141.108 L90.36,132.923 L89.596,132.632 L87.922,137.325 C87.922,137.325 87.631,138.307 87.486,138.707 C87.486,138.344 87.449,136.67 87.449,136.67 L87.304,131.868 C87.267,131.795 86.576,131.577 86.576,131.577 L86.54,131.577 L83.557,139.762 L84.321,140.053 L86.103,135.142 C86.103,135.142 86.54,133.942 86.612,133.76 C86.612,134.124 86.649,135.797 86.649,135.797 L86.831,140.89 z M82.938,138.526 C82.938,138.526 80.61,137.361 80.646,137.325 C80.683,137.289 82.101,134.415 82.138,134.378 C82.174,134.415 83.557,135.106 83.557,135.106 L83.957,134.342 C83.957,134.342 82.574,133.651 82.538,133.614 C82.611,133.542 83.739,131.213 83.775,131.141 C83.811,131.177 86.03,132.268 86.03,132.268 L86.431,131.504 L83.375,130.013 L79.409,137.689 L82.538,139.289 L82.938,138.526 z M76.426,135.87 L77.19,136.306 C77.19,136.306 81.374,129.795 81.41,129.722 C81.447,129.795 82.72,130.595 82.72,130.595 L83.156,129.867 L79.846,127.721 L79.337,128.448 C79.337,128.448 80.61,129.285 80.646,129.322 C80.61,129.358 76.426,135.87 76.426,135.87 z M71.588,132.341 L72.243,132.887 L76.826,125.284 L76.208,124.701 L68.932,129.722 L69.514,130.304 C69.514,130.304 71.333,129.031 71.37,128.994 C71.406,129.067 72.788,130.34 72.788,130.377 C72.716,130.449 71.588,132.341 71.588,132.341 z M66.277,126.63 L68.387,129.176 L69.078,128.63 C69.078,128.63 67.513,126.811 67.477,126.775 C67.55,126.702 73.443,121.682 73.443,121.682 L72.898,121.027 L66.277,126.63 z M63.73,123.064 L65.622,125.793 L66.349,125.284 C66.349,125.284 64.967,123.319 64.931,123.246 C64.967,123.21 71.333,118.844 71.333,118.844 L70.824,118.153 L63.73,123.064 z M61.875,120.045 C62.457,121.173 63.73,121.427 65.294,120.554 L70.642,117.717 L70.242,116.953 L64.894,119.79 C63.803,120.372 63.039,120.336 62.675,119.608 C62.566,119.354 62.529,119.099 62.602,118.808 C62.711,118.408 63.112,118.008 63.766,117.68 L69.114,114.843 L68.714,114.115 L63.33,116.953 C61.802,117.789 61.22,118.917 61.875,120.045 z M60.201,116.225 L60.419,116.916 L68.568,113.86 L68.277,113.096 L63.584,114.843 C63.584,114.843 62.602,115.206 62.202,115.388 C62.457,115.134 63.73,114.006 63.73,114.006 L67.332,110.768 C67.332,110.732 67.041,110.041 67.041,110.041 L67.041,110.004 L58.964,112.987 L59.255,113.751 L64.13,111.932 C64.13,111.932 65.331,111.459 65.513,111.423 C65.258,111.678 63.985,112.805 63.985,112.805 L60.201,116.225 z M99.964,130.413 C115.025,130.413 127.43,119.536 129.904,105.202 C136.124,106.112 142.855,107.13 147.075,107.749 C143.364,130.449 123.683,147.729 99.964,147.729 C76.354,147.729 56.745,130.595 52.925,108.04 C58.637,107.203 64.494,106.366 69.987,105.53 C72.643,119.681 85.048,130.413 99.964,130.413 z M120.081,103.82 L115.243,104.002 L113.569,102.874 C114.697,103.019 117.717,103.456 120.081,103.82 z M106.948,114.224 L106.512,110.368 L109.968,112.333 L113.679,121.318 z M119.135,116.553 L110.695,111.714 L109.204,108.076 L113.06,109.058 z M108.767,107.058 L108.04,105.239 L109.968,105.129 L112.223,107.894 z M106.221,107.349 L108.113,107.822 L109.422,110.95 L106.403,109.277 z M93.343,110.223 L92.942,114.224 L86.285,121.318 L89.923,112.223 z M94.216,109.64 L95.853,108.695 L96.217,110.623 L93.925,113.133 z M103.129,108.149 L102.801,109.895 L101.673,108.658 C102.183,108.549 102.619,108.331 103.129,108.149 z M90.432,110.877 L92.833,105.057 C93.124,105.566 93.561,106.075 93.997,106.475 L93.67,106.439 L93.379,109.131 L90.432,110.877 z M91.596,102.91 C91.742,103.42 92.033,103.82 92.215,104.256 L90.578,104.184 L91.596,102.91 z M95.78,107.712 L94.325,108.585 C94.325,108.585 94.507,106.912 94.507,106.912 C94.907,107.203 95.343,107.494 95.78,107.712 z M100.4,111.241 L101.237,109.531 L102.619,110.95 L101.964,114.333 z M93.779,114.588 L96.471,111.787 L97.199,115.643 L92.833,124.265 z M100.691,108.695 L99.854,110.259 L99.091,108.767 C99.636,108.84 100.146,108.731 100.691,108.695 z M97.199,110.914 L98.472,109.495 L99.382,111.241 L97.89,114.261 z M98.145,108.585 L96.981,109.822 C96.981,109.822 96.689,108.185 96.653,108.185 C97.09,108.367 97.635,108.513 98.145,108.585 z M79.773,118.226 L88.65,112.951 L84.83,122.555 C82.975,121.318 81.265,119.863 79.773,118.226 z M101.71,115.789 L99.964,125.284 L98.145,115.716 L99.891,112.223 z M91.778,125.902 C89.668,125.247 87.595,124.374 85.703,123.246 L92.724,115.643 L91.778,125.902 z M92.833,126.193 L97.453,117.062 L99.418,127.248 C97.162,127.212 94.98,126.775 92.833,126.193 z M97.162,104.511 C98.036,105.057 98.945,105.457 100,105.457 C101.055,105.457 102.074,105.129 102.91,104.584 C102.983,104.584 103.019,104.584 103.056,104.547 C103.165,104.511 104.911,103.674 107.239,103.129 C105.857,106.403 102.547,108.549 98.872,108.003 C95.998,107.603 93.67,105.639 92.615,103.092 C95.162,103.638 97.126,104.584 97.126,104.584 L97.162,104.511 z M106.112,114.624 L107.13,124.265 L102.656,115.643 L103.347,111.787 z M79.955,96.18 L89.486,95.78 L90.723,97.308 C89.705,97.417 88.65,97.453 87.667,97.308 C86.503,97.126 83.629,96.726 79.955,96.18 z M120.954,117.426 L114.515,109.277 L124.52,111.75 C123.501,113.788 122.373,115.679 120.954,117.426 z M115.17,122.555 L111.241,113.06 L120.19,118.19 C118.662,119.863 117.025,121.318 115.17,122.555 z M87.777,102.765 C88.722,102.656 89.705,102.656 90.687,102.765 L89.523,104.22 L80.865,103.856 C83.375,103.492 85.667,103.092 87.74,102.765 L87.777,102.765 z M118.772,135.142 C118.662,135.069 118.08,133.141 118.08,133.141 C117.789,132.268 117.571,131.613 117.389,131.104 C117.753,131.577 118.226,132.159 118.772,132.741 C118.772,132.741 120.118,134.306 120.19,134.378 C120.081,134.415 118.844,135.106 118.772,135.142 z M108.149,125.902 L107.13,115.607 L114.297,123.174 C112.369,124.374 110.295,125.211 108.149,125.902 z M100.582,127.248 L102.401,117.062 L107.13,126.193 C105.02,126.811 102.838,127.212 100.582,127.248 z M79.009,117.498 C76.099,114.006 74.025,109.713 73.189,105.093 C74.207,104.911 75.226,104.766 76.208,104.62 L88.795,105.057 L79.009,117.498 z M89.195,111.641 L80.792,116.589 L89.887,105.057 L91.778,105.129 z M99.964,129.54 C85.521,129.54 73.443,119.135 70.897,105.348 C71.37,105.311 71.806,105.239 72.243,105.166 C74.644,118.262 86.14,128.23 99.964,128.23 C113.824,128.23 125.32,118.19 127.685,104.948 C128.339,105.057 128.412,105.057 129.067,105.129 C126.593,118.99 114.552,129.54 99.964,129.54 z M133.978,110.586 C134.342,110.623 136.088,110.914 136.088,110.914 C136.088,110.914 138.125,111.132 138.234,111.132 C138.162,111.205 137.762,112.587 137.725,112.66 C137.689,112.624 135.87,111.605 135.87,111.605 C135.069,111.132 134.415,110.805 133.978,110.586 z" fill="#231F20"/>
  </g>
</svg>
