<?xml version="1.0" encoding="UTF-8"?>
<!DOCTYPE svg PUBLIC "-//W3C//DTD SVG 1.1//EN" "http://www.w3.org/Graphics/SVG/1.1/DTD/svg11.dtd">
<svg version="1.1" xmlns="http://www.w3.org/2000/svg" xmlns:xlink="http://www.w3.org/1999/xlink" x="0" y="0" width="200" height="200" viewBox="0, 0, 200, 200">
  <g id="_x23_ee2629ff">
    <path d="M131.007,56.356 C138.893,54.967 146.906,54.763 154.868,54.636 C162.817,54.572 171.097,55.426 178.193,59.336 C184.69,61.986 188.27,69.935 185.875,76.636 C182.767,86.904 175.403,95.121 167.913,102.484 C148.957,122.039 125.44,136.077 102.841,150.931 C106.624,145.428 109.733,139.402 112.051,133.173 C113.835,128.268 115.567,123.173 115.758,117.86 C116.026,112.421 114.892,106.599 111.389,102.293 C107.873,98.318 102.841,95.936 97.809,94.535 C90.522,92.471 82.828,92.267 75.273,92.267 C58.114,92.395 41.081,95.185 24.316,98.624 C18.418,99.694 12.647,101.478 6.622,101.745 C11.73,100.089 16.227,97.108 21.068,94.726 C43.667,83.261 67.056,73.324 91.248,65.77 C104.229,61.655 117.555,58.674 131.007,56.356 z" fill="#000000"/>
  </g>
</svg>
