<?xml version="1.0" encoding="UTF-8"?>
<!DOCTYPE svg PUBLIC "-//W3C//DTD SVG 1.1//EN" "http://www.w3.org/Graphics/SVG/1.1/DTD/svg11.dtd">
<svg version="1.1" xmlns="http://www.w3.org/2000/svg" xmlns:xlink="http://www.w3.org/1999/xlink" x="0" y="0" width="200" height="200" viewBox="0, 0, 200, 200">
  <g id="Layer_1_1_">
    <path d="M160.656,110.888 C157.613,109.926 154.086,108.071 149.798,103.606 C150.074,101.614 150.213,100.309 150.074,99.073 C149.936,97.905 149.521,97.081 149.037,95.913 C148.484,94.745 147.861,93.646 147.446,91.929 C147.031,90.211 146.755,87.807 147.169,83.961 C147.584,80.114 147.446,73.863 145.855,67.131 C144.265,60.331 141.014,53.049 135.55,46.936 C137.002,42.402 137.832,39.242 137.971,36.701 C138.109,34.159 137.694,32.305 136.657,30.038 C135.619,27.908 132.922,26.054 128.91,24.886 C124.899,23.718 119.712,23.031 113.694,23.031 C107.677,23.031 98.963,23.581 91.908,23.443 C84.853,23.306 79.043,22.757 79.043,20.902 C79.043,19.047 80.012,18.223 81.326,17.742 C82.64,17.261 84.369,17.193 85.752,17.055 C87.758,17.879 90.732,18.36 93.637,18.498 C96.611,18.772 99.793,18.772 102.213,18.772 C104.772,18.772 107.055,17.948 109.545,17.33 C111.965,16.643 114.593,15.887 117.568,15.887 C115.008,15.063 111.827,13.895 108.507,12.934 C105.187,11.972 101.798,11.491 99.032,12.109 C97.994,11.148 97.303,10.392 96.058,10.117 C94.882,9.843 93.222,9.843 90.594,10.667 C87.896,11.354 86.167,11.629 84.853,11.835 C83.401,11.972 82.294,12.109 80.565,12.522 C78.836,12.934 76.554,13.208 74.686,14.101 C72.819,15.063 71.366,16.506 71.366,19.391 C71.366,22.207 72.404,24.68 75.239,26.397 C78.214,28.114 82.986,29.214 90.594,29.076 C98.34,28.939 106.778,28.801 113.694,29.076 C120.68,29.488 126.144,30.381 128.011,32.511 C129.879,34.64 130.432,36.083 130.155,37.319 C129.879,38.556 128.841,39.449 127.458,40.616 C126.282,40.616 124.276,40.754 121.717,40.616 C119.297,40.479 116.53,39.929 113.971,38.899 C111.412,37.731 108.507,37.044 105.395,37.044 C102.421,37.044 99.378,37.594 96.957,39.036 C94.398,40.342 88.242,43.433 82.018,47.898 C75.585,52.637 69.084,58.888 66.11,66.994 C63.067,75.099 61.545,80.114 60.646,83.754 C59.678,87.326 59.47,89.181 58.779,91.036 C58.087,92.89 57.049,94.745 56.081,96.875 C55.113,99.004 54.352,101.271 54.49,103.881 C54.49,106.56 54.352,109.72 53.937,112.742 C53.522,115.765 53.107,118.718 52.761,120.848 C52.346,122.977 51.724,125.519 51.171,128.404 C50.617,131.358 50.202,134.38 50.341,137.677 C50.341,140.974 50.202,144.34 49.649,147.5 C49.234,150.66 48.473,153.614 47.505,156.155 C46.537,158.697 46.191,160.826 45.914,162.956 C45.499,164.948 45.084,166.94 44.047,168.932 C42.871,170.924 41.349,173.465 39.759,175.87 C38.168,178.274 36.715,180.541 35.47,182.121 C34.295,183.563 33.741,185.418 34.156,186.929 C34.571,188.44 35.747,189.608 38.306,189.883 C40.865,190.157 43.009,189.608 44.6,188.578 C46.191,187.547 47.297,186.036 47.574,184.319 C47.851,182.601 47.851,180.335 47.989,177.93 C48.127,175.526 48.266,173.122 49.027,171.267 L49.856,169.275 L50.686,167.283 C51.516,165.978 52.001,165.429 52.692,165.016 C53.245,164.604 53.868,164.192 54.698,163.299 C55.528,162.337 56.842,159.452 57.879,156.361 C58.917,153.339 59.885,149.836 59.747,147.5 C59.747,145.096 59.885,143.241 60.3,141.799 C60.715,140.219 61.268,138.982 61.891,137.815 C62.583,136.647 62.928,135.273 63.482,134.243 C64.173,133.212 64.934,132.525 66.456,132.663 C67.908,132.8 68.461,133.624 68.6,134.517 C68.738,135.41 68.738,136.647 69.291,137.677 C69.845,138.708 70.329,139.807 71.021,140.7 C71.712,141.661 72.611,142.417 74.064,142.966 C75.378,143.516 76.484,144.409 77.107,145.645 C77.66,146.813 77.66,148.187 76.83,149.355 C76,150.522 74.825,152.515 73.856,154.644 C72.888,156.773 72.265,158.765 72.265,160.071 C72.265,161.376 72.542,163.368 72.265,165.497 C71.989,167.627 71.435,169.756 69.706,171.473 C68.116,173.191 66.732,174.908 65.833,176.419 C64.865,177.862 64.519,179.235 64.519,179.991 C64.519,180.815 64.934,181.846 65.695,182.807 C66.663,183.769 67.977,184.25 70.26,184.25 C72.404,184.25 74.133,183.7 75.309,182.945 C76.484,182.121 77.314,180.953 77.868,179.51 C78.421,178.068 78.283,176.831 78.006,175.938 C77.729,174.977 77.453,174.221 77.453,173.122 C77.453,172.092 77.729,170.993 78.144,169.687 C78.559,168.52 78.974,167.146 79.113,165.978 C79.251,164.81 79.528,163.299 80.081,161.719 C80.634,160.139 81.395,158.422 82.778,156.567 C84.092,154.713 84.784,153.133 85.476,151.622 C86.167,150.179 86.513,148.943 87.343,147.775 C88.173,146.607 88.519,146.058 88.796,145.783 C89.072,145.645 89.487,145.92 90.248,146.332 C91.078,146.882 91.285,147.294 91.078,147.912 C90.94,148.462 90.386,149.217 89.902,150.042 C89.349,150.866 88.45,152.308 87.343,153.888 C86.306,155.331 85.199,157.048 84.507,158.147 C83.816,159.315 83.47,160.826 83.677,162.131 C83.954,163.436 84.715,164.398 86.651,164.536 C88.519,164.673 89.971,164.673 90.94,164.398 C91.977,164.123 92.53,163.436 92.669,162.543 C92.807,161.513 93.084,159.865 93.637,158.285 C94.052,156.705 94.605,155.125 95.228,154.026 C95.85,152.927 96.265,152.034 96.542,151.209 C96.818,150.385 96.818,149.767 96.818,149.217 C97.856,150.179 98.686,151.347 99.516,152.515 C100.207,153.682 100.83,154.919 101.383,156.087 C101.937,157.254 103.112,158.628 105.256,159.658 C107.4,160.689 110.444,161.376 114.593,161.238 C118.743,160.964 120.887,160.826 122.063,160.414 C123.239,160.002 123.516,159.452 123.931,158.422 C124.484,157.392 125.521,155.4 126.075,153.408 C126.628,151.415 126.628,149.286 124.761,148.118 C125.037,146.401 125.59,144.134 126.213,142.005 C126.905,139.875 127.942,137.746 129.256,136.303 C130.57,134.998 132.438,133.487 134.098,132.319 C135.688,131.152 137.141,129.915 137.556,129.159 C139.7,130.327 141.844,131.701 143.296,133.83 C144.887,135.96 145.855,138.639 146.132,142.348 C146.132,144.34 146.409,146.195 146.824,147.912 C147.1,149.492 147.515,150.935 147.654,151.896 C147.792,152.927 147.792,154.026 147.93,155.056 C147.93,156.224 147.93,157.323 148.207,158.491 C148.484,159.658 149.175,160.758 150.074,161.444 C151.043,162.269 152.218,162.612 153.256,162.406 C154.293,162.269 155.123,161.376 155.815,160.139 C156.507,158.972 156.852,157.46 156.852,156.43 C156.852,155.262 156.437,154.438 156.022,153.751 C155.469,153.064 154.985,152.583 154.432,152.171 C153.878,151.759 153.602,151.209 153.463,150.591 C153.325,149.973 153.463,149.149 154.017,147.775 C154.57,146.47 154.432,145.233 154.017,144.34 C153.602,143.379 153.048,142.623 152.564,142.073 C152.011,141.524 151.527,140.219 150.973,138.364 C150.559,136.509 150.282,134.243 150.282,132.113 C150.282,129.984 150.144,127.442 149.452,125.175 C148.76,123.046 147.861,121.191 146.478,120.367 C150.351,120.092 154.777,119.817 158.651,118.65 C162.524,117.482 165.982,115.49 167.988,111.987 C166.259,111.574 163.7,111.849 160.656,110.888 z M148.207,115.009 C144.749,114.185 141.775,112.742 140.322,111.025 C139.492,110.063 138.455,109.17 137.348,108.483 C136.173,107.796 134.928,107.316 133.752,106.903 C132.576,106.629 130.709,105.873 128.703,105.049 C126.697,104.225 124.83,103.332 123.654,102.782 C123.377,103.332 122.824,103.95 122.063,104.774 C121.233,105.598 120.196,106.629 118.882,107.728 C117.706,108.758 117.429,109.72 117.429,110.407 C117.568,111.094 118.121,111.712 118.397,112.261 C118.812,112.811 120.265,113.979 121.856,115.421 C123.446,116.726 125.176,118.1 125.729,118.718 C123.861,118.718 122.547,118.581 120.887,118.031 C119.297,117.482 117.568,116.589 114.593,114.734 C111.619,112.88 110.72,111.025 110.72,109.308 C110.72,107.728 111.55,106.285 111.896,105.736 C112.311,105.186 113.349,104.293 114.455,103.469 C115.493,102.645 116.599,101.889 117.014,101.477 C117.429,101.065 117.844,100.653 117.706,100.309 C117.706,99.897 117.291,99.622 116.668,99.76 C111.689,100.584 108.23,101.889 105.948,103.332 C103.666,104.774 102.767,106.285 102.628,107.316 C102.49,108.346 102.767,109.308 103.182,110.269 C103.597,111.231 104.357,112.124 105.464,113.086 C106.501,114.047 106.916,115.353 106.778,116.52 C106.778,117.688 106.225,118.787 105.741,119.474 C105.049,120.161 104.772,120.504 104.565,120.917 C104.288,121.329 104.15,122.084 103.735,123.458 C103.32,124.832 103.043,127.305 102.905,130.121 C102.767,132.938 102.767,135.685 102.905,137.677 C103.597,136.647 104.496,135.685 105.464,134.998 C106.432,134.311 107.47,133.968 108.161,133.693 C108.715,138.845 108.438,142.486 107.885,145.096 C107.47,147.775 106.709,149.492 106.294,150.935 C106.156,151.347 106.017,151.622 105.741,151.484 C105.464,151.484 105.187,151.209 105.049,150.66 C104.634,149.492 104.011,147.637 103.182,145.851 C102.352,144.134 101.452,142.554 100.484,141.73 C97.925,139.188 96.749,137.883 96.196,136.784 C95.643,135.685 95.781,134.93 95.781,133.35 C91.77,131.358 90.455,128.953 90.455,126.549 C90.455,124.282 91.631,122.153 92.738,120.573 C93.775,119.131 94.605,117.276 95.297,115.559 C95.989,113.841 96.265,112.399 96.334,111.437 C96.473,110.475 95.919,108.758 95.297,107.041 C94.467,105.324 93.568,103.469 92.323,102.095 C92.046,101.958 91.355,101.82 90.594,101.958 C89.764,102.095 89.003,102.507 88.45,103.675 C87.896,104.843 87.136,105.53 86.444,105.804 C85.614,106.079 84.853,106.217 84.023,106.079 C83.193,105.942 82.156,105.942 81.188,106.079 C80.219,106.217 79.32,106.766 78.628,107.659 C77.937,108.621 77.176,108.621 76.208,108.346 C75.378,108.071 74.479,107.522 73.787,107.178 C73.095,106.903 72.75,106.491 72.196,106.217 C71.643,105.942 71.021,105.804 69.499,105.942 C68.046,106.079 67.493,106.972 67.078,108.209 C66.525,109.239 66.11,110.475 64.934,110.75 C63.758,111.162 62.79,110.475 62.237,109.17 C61.683,107.865 61.545,106.01 61.545,104.018 C61.13,101.477 62.098,97.493 63.274,93.783 C64.45,90.074 65.972,86.64 66.732,84.922 C67.424,83.205 68.6,79.976 69.706,76.267 C70.882,72.695 71.989,68.711 72.75,65.62 C73.58,62.598 75.309,60.331 77.591,58.201 C79.873,56.072 82.294,54.217 84.577,51.95 C86.859,49.684 89.556,47.692 92.185,46.249 C94.882,44.806 97.51,43.845 99.516,43.845 C101.522,43.845 103.666,45.013 105.395,46.249 C107.124,47.554 108.576,48.928 109.268,49.684 C109.96,50.508 110.582,52.225 111.274,54.08 C111.965,55.934 112.588,57.927 113.418,59.094 C114.248,60.262 114.87,62.048 115.423,64.109 C115.977,66.238 116.461,68.642 116.876,70.909 C117.291,73.313 118.19,74.893 119.158,76.198 C120.127,77.504 121.164,78.603 121.856,79.77 C122.547,80.938 123.308,83.754 124.276,86.777 C125.245,89.799 126.42,93.303 127.873,95.569 C129.325,97.836 131.608,99.416 133.89,100.378 C136.173,101.408 138.317,101.82 139.354,102.232 C140.391,102.507 141.221,102.645 142.051,103.057 C142.881,103.469 143.78,104.225 145.095,105.873 C146.962,108.003 149.798,109.857 152.426,111.162 C155.054,112.467 157.475,113.292 158.581,113.704 C155.538,115.696 151.665,115.696 148.207,115.009 z" fill="#000000"/>
  </g>
</svg>
