<?xml version="1.0" encoding="UTF-8"?>
<!DOCTYPE svg PUBLIC "-//W3C//DTD SVG 1.1//EN" "http://www.w3.org/Graphics/SVG/1.1/DTD/svg11.dtd">
<svg version="1.1" xmlns="http://www.w3.org/2000/svg" xmlns:xlink="http://www.w3.org/1999/xlink" x="0" y="0" width="200" height="200" viewBox="0, 0, 200, 200">
  <g id="Layer_1">
    <path d="M131.477,94.33 L111.664,94.33 C110.929,94.33 110.353,94.875 110.353,95.523 L110.353,102.227 C110.353,102.882 110.929,103.427 111.664,103.427 L131.477,103.427 C132.211,103.427 132.788,102.882 132.78,102.235 L132.788,95.523 C132.78,94.875 132.211,94.33 131.477,94.33 z M172.303,103.427 L172.319,95.467 C172.319,93.43 170.676,91.772 168.544,91.772 L140.811,91.772 L140.811,105.994 L145.328,105.994 L145.328,94.33 L166.618,94.33 C167.328,94.33 167.897,94.875 167.897,95.53 L167.897,105.986 L169.555,105.986 C171.071,105.986 172.303,104.896 172.303,103.427 z M100,152.774 C134.77,152.774 163.783,134.706 170.511,110.684 L170.305,110.748 L121.227,110.748 C119.347,128.586 105.236,146.275 99.55,152.767 C99.708,152.767 99.85,152.774 100,152.774 L100,152.774 z M29.489,110.74 C36.115,134.241 64.062,152.016 97.86,152.743 C99.684,144.704 103.79,120.319 88.873,110.74 L29.489,110.74 z M27.784,103.419 C27.784,104.888 29.016,105.986 30.532,105.986 L55.422,105.986 C57.578,105.986 59.3,104.399 59.3,102.314 L59.3,97.623 L32.293,97.623 L32.324,95.459 C32.324,94.812 32.601,94.322 33.422,94.322 L59.3,94.322 L59.3,91.764 L31.708,91.764 C29.568,91.764 27.815,93.39 27.815,95.459 L27.815,100.182 L54.783,100.182 L54.791,102.314 C54.799,102.969 54.27,103.427 53.511,103.427 L27.784,103.419 L27.784,103.419 z M67.347,102.235 L67.347,102.235 L67.339,95.523 C67.339,94.883 67.907,94.322 68.642,94.322 L94.283,94.322 L94.283,91.764 L66.715,91.764 C64.559,91.764 62.822,93.43 62.822,95.459 L62.822,102.29 C62.822,104.335 64.567,105.986 66.715,105.986 L94.291,105.986 L94.291,103.427 L68.65,103.427 C67.915,103.427 67.347,102.882 67.347,102.235 z M99.187,47.249 C65.728,47.518 37.773,64.496 30.089,87.326 L77.984,87.326 C82.019,66.991 93.848,52.801 99.187,47.249 z M102.33,91.772 L97.797,91.772 L97.789,106.002 L102.33,106.002 L102.33,91.772 z M137.289,95.459 C137.289,93.43 135.551,91.772 133.411,91.764 L109.737,91.764 C107.581,91.764 105.844,93.43 105.844,95.459 L105.844,102.29 C105.844,104.335 107.589,105.986 109.737,105.986 L133.411,105.986 C135.551,105.986 137.289,104.335 137.289,102.29 L137.289,95.459 z M101.39,47.249 C100.111,55.115 97.394,78.608 108.821,87.326 L169.903,87.326 C162.258,64.622 134.572,47.707 101.39,47.249 L101.39,47.249 z M100,38.081 C149.695,38.081 190,65.807 190,100.008 C190,134.201 149.71,161.919 100.008,161.919 C50.29,161.919 10,134.201 10,100.008 C10,65.807 50.29,38.081 100,38.081 L100,38.081 z" fill="#000000"/>
  </g>
</svg>
