<?xml version="1.0" encoding="UTF-8"?>
<!DOCTYPE svg PUBLIC "-//W3C//DTD SVG 1.1//EN" "http://www.w3.org/Graphics/SVG/1.1/DTD/svg11.dtd">
<svg version="1.1" xmlns="http://www.w3.org/2000/svg" xmlns:xlink="http://www.w3.org/1999/xlink" x="0" y="0" width="200" height="200" viewBox="0, 0, 200, 200">
  <g id="Layer_1">
    <path d="M84.118,162.483 L116.005,162.483 L116.005,170.363 L84.118,170.363 z M87.934,189.938 L111.943,189.938 L111.943,173.564 L87.934,173.564 z M52.722,129.856 L147.155,129.856 L147.155,126.04 L52.722,126.04 z M47.674,137.367 L152.202,137.367 L152.202,133.55 L47.674,133.55 z M47.674,122.715 L152.202,122.715 L152.202,118.899 L47.674,118.899 z M116.621,145.985 C120.068,142.661 124.624,141.922 124.378,141.922 C127.332,141.183 127.332,140.691 127.332,140.691 L104.802,140.691 L97.661,140.691 L72.175,140.691 C72.175,140.937 72.175,141.43 75.13,141.922 C75.13,141.922 79.685,142.661 83.379,145.985 C88.673,150.787 88.673,159.405 88.673,159.405 L99.877,159.405 L111.327,159.405 C111.327,159.405 111.327,150.787 116.621,145.985 z M53.215,141.06 C53.215,143.03 53.215,144.754 53.215,149.309 C59.986,150.91 64.419,147.832 64.419,141.06 C63.064,141.06 54.446,141.06 53.215,141.06 z M93.475,32.469 C89.289,40.964 80.055,48.105 80.547,48.844 C81.163,49.706 86.334,47.12 88.919,45.889 C93.105,44.042 96.43,42.565 96.43,42.565 C96.43,42.565 98.03,63.988 92.736,83.687 C88.304,99.692 78.331,114.59 77.346,115.821 L90.274,115.821 C90.766,115.451 91.012,114.713 91.505,113.974 C95.198,107.695 97.784,102.401 100.123,93.044 C102.462,102.278 104.802,107.695 108.495,113.974 C108.988,114.343 109.234,115.082 109.726,115.821 L122.654,115.821 C121.546,114.713 111.696,99.815 107.264,83.687 C101.97,63.865 103.57,42.565 103.57,42.565 C103.57,42.565 107.018,44.042 111.081,45.889 C113.666,47.244 118.591,49.829 119.33,48.844 C119.699,48.105 110.711,40.841 106.279,32.469 C101.724,23.728 101.108,10.185 99.877,9.938 C98.769,10.062 98.03,23.605 93.475,32.469 z M52.722,115.944 L52.722,115.944 L52.353,115.821 L52.353,115.575 L63.926,115.575 C63.926,114.097 62.326,98.707 59.001,86.765 C54.938,72.606 47.059,59.432 47.059,59.432 C47.059,59.432 49.275,59.309 54.077,60.91 C58.632,62.633 61.341,64.726 61.587,64.234 C62.079,63.495 54.938,55 47.428,50.075 C40.41,45.52 31.3,43.55 30.561,44.535 C29.822,45.889 41.149,56.847 46.689,75.561 C51.737,92.674 52.722,114.343 52.722,115.944 z M147.278,115.944 L147.278,115.944 L147.647,115.821 L147.647,115.575 L136.074,115.575 C136.074,114.097 137.674,98.707 140.999,86.765 C145.062,72.606 152.941,59.432 152.941,59.432 C152.941,59.432 150.725,59.309 145.923,60.91 C141.368,62.633 138.659,64.726 138.413,64.234 C137.921,63.495 145.062,55 152.572,50.075 C159.59,45.52 168.7,43.55 169.439,44.535 C170.178,45.889 158.851,56.847 153.311,75.561 C148.263,92.674 147.278,114.343 147.278,115.944 z M146.662,141.06 C146.662,143.03 146.662,144.754 146.662,149.309 C139.891,150.91 135.458,147.832 135.458,141.06 C136.813,141.06 145.431,141.06 146.662,141.06 z" fill="#000000"/>
  </g>
</svg>
