<?xml version="1.0" encoding="UTF-8"?>
<!DOCTYPE svg PUBLIC "-//W3C//DTD SVG 1.1//EN" "http://www.w3.org/Graphics/SVG/1.1/DTD/svg11.dtd">
<svg version="1.1" xmlns="http://www.w3.org/2000/svg" xmlns:xlink="http://www.w3.org/1999/xlink" x="0" y="0" width="200" height="200" viewBox="0, 0, 200, 200">
  <g id="Layer_1">
    <path d="M185.788,120.428 L179.126,120.428 C175.415,120.523 173.575,118.525 172.782,117.859 C149.531,101.11 106.17,82.078 67.09,68.914 C62.047,67.36 54.561,66.281 49.866,66.281 C45.203,66.281 42.951,65.901 38.098,66.091 C33.435,66.281 28.582,67.074 25.854,67.836 C23.126,68.629 17.004,70.183 16.718,73.894 C14.371,75.671 11.992,78.05 11.04,79.033 C10.057,80.016 9.74,81.919 11.675,84.045 C13.61,86.202 15.957,88.327 17.511,87.375 C19.066,86.424 18.685,85.218 19.256,84.045 C19.827,82.871 21.794,81.126 23.729,83.252 C25.664,85.409 24.458,86.329 23.348,87.344 C22.301,88.295 20.239,90.072 21.603,91.816 C22.967,93.561 24.522,94.163 26.647,92.609 C28.201,91.467 32.42,89.057 34.862,87.693 C35.465,87.344 36.195,86.455 38.859,87.534 C41.714,88.644 46.155,90.611 48.026,91.626 L43.998,93.466 C41.873,94.83 40.001,98.668 39.811,100.063 C39.62,102.22 40.382,105.266 43.3,107.803 L49.581,107.803 L53.387,102.347 L53.102,101.776 C57.955,101.205 71.182,105.202 77.399,102.76 C81.682,104.504 89.263,105.488 103.251,104.124 C105.789,103.933 109.246,103.394 111.372,106.185 C113.592,109.072 124.44,120.523 127.961,121.697 C131.482,122.87 146.042,122.87 149.848,123.536 C153.116,124.139 154.416,123.536 157.144,126.645 L162.981,131.815 C163.647,132.608 165.709,134.099 168.024,134.099 L172.053,134.099 C174.4,133.909 175.637,132.26 176.24,130.293 L186.168,130.293 C189.277,130.293 190.26,127.501 190.26,124.964 C190.228,122.49 188.515,120.428 185.788,120.428 L185.788,120.428 z M185.851,127.977 L176.462,127.977 C175.923,123.822 172.877,123.251 171.101,123.156 C169.388,123.061 168.088,122.363 167.295,121.887 C167.295,121.887 160.982,116.241 159.238,114.369 C157.493,112.53 156.319,111.927 154.67,111.927 C154.67,111.927 150.102,111.927 148.929,111.927 C147.755,111.927 146.391,112.022 144.456,109.389 C142.521,106.756 137.541,102.569 136.304,101.681 C135.067,100.793 134.75,101.776 135.511,102.474 C136.177,103.172 139.412,105.202 141.347,108.438 C143.282,111.641 144.932,113.323 146.296,113.989 C147.469,114.782 151.054,114.686 153.211,114.686 C155.336,114.686 156.129,114.877 157.874,116.621 C159.618,118.366 163.615,121.887 164.694,123.061 C165.772,124.234 167.612,125.313 170.245,125.313 C172.877,125.313 174.146,126.962 174.051,128.517 C173.956,129.976 173.163,131.625 172.021,131.625 L167.834,131.625 C167.168,131.625 165.613,130.642 165.201,130.261 C163.837,129.278 160.443,126.36 158.476,124.298 C156.51,122.236 154.575,121.665 151.974,121.284 C149.373,120.904 138.461,120.396 136.018,120.301 C133.576,120.206 129.896,120.206 127.264,118.556 C124.694,116.939 114.417,105.678 112.672,103.648 C110.642,101.301 107.565,101.586 105.726,101.554 C87.55,103.553 81.079,101.713 79.144,100.539 L81.047,97.272 C86.725,98.604 94.528,97.335 95.575,97.018 C96.654,96.733 96.463,95.654 95.385,95.845 C92.942,96.13 82.348,94.861 81.301,94.671 C81.206,91.943 75.084,83.759 74.291,82.173 C73.498,80.619 74.196,79.636 74.957,78.969 C75.75,78.272 75.75,77.415 75.052,77.415 C72.229,77.701 71.563,79.953 72.134,82.681 C72.705,85.409 78.732,93.307 78.351,95.179 C77.97,97.018 76.13,99.619 75.052,100.698 C69.786,101.967 58.145,98.858 51.42,99.048 C48.851,99.112 49.295,101.332 50.215,102.125 L48.09,105.234 L45.013,105.234 C43.363,104.758 42.761,102.22 42.475,100.952 C42.539,100.127 43.141,97.748 45.203,95.972 C49.327,92.419 65.821,94.037 67.281,94.037 C68.74,94.037 68.359,93.339 67.471,93.053 C65.917,92.673 61.19,91.404 58.431,91.309 C57.796,89.469 56.623,88.137 56.242,86.329 C55.925,84.774 56.337,82.871 56.876,81.697 C57.606,79.445 56.052,79.794 55.512,80.429 C54.783,81.507 52.943,83.886 52.848,85.631 C52.753,87.375 54.561,90.516 55.037,91.277 C54.148,91.277 52.594,91.372 51.928,91.372 C47.202,87.375 38.764,84.679 37.115,84.108 C37.4,83.315 37.844,82.49 38.13,81.539 C38.415,80.555 39.018,80.746 39.684,80.968 C40.667,81.444 45.235,83.125 46.694,83.696 C48.153,84.267 49.517,83.981 50.183,83.41 C50.849,82.839 53.102,80.873 54.085,79.509 C55.068,78.145 53.514,78.05 52.911,78.716 C51.071,80.429 48.344,81.348 46.884,81.063 C45.425,80.778 40.762,78.43 39.589,77.637 C36.956,76.464 36.004,78.335 35.687,79.382 C33.974,84.298 31.215,86.646 29.216,88.105 C28.645,88.581 26.012,90.135 25.219,90.643 C24.553,91.087 24.109,90.357 24.395,89.913 C24.966,89.469 27.123,87.28 27.25,86.487 C27.725,83.664 26.964,82.744 25.79,81.475 C24.617,80.207 23.126,79.762 21.381,79.762 C19.637,79.762 17.987,81.38 17.385,81.951 C16.782,82.522 17.543,83.696 16.56,84.394 C15.576,85.091 14.466,83.283 13.895,82.49 C15.164,81.031 15.069,80.333 14.783,78.969 C15.196,78.652 15.862,77.891 16.687,77.161 C17.353,77.542 18.717,77.732 19.605,77.542 C24.331,77.161 25.156,77.701 26.203,78.176 C27.281,78.652 27.598,77.986 27.218,77.288 C26.71,76.368 26.298,76.019 25.315,75.036 L27.218,74.465 C29.343,74.465 31.5,75.258 32.579,75.353 C33.657,75.449 34.323,75.449 34.704,74.655 C35.37,72.594 36.639,72.213 37.527,71.928 C38.415,71.642 39.081,70.849 38.32,70.659 L36.385,70.659 C34.736,70.754 34.64,71.357 34.133,71.928 C33.657,72.499 33.054,73.196 31.786,73.006 C30.517,72.816 27.852,72.372 26.298,72.467 C25.093,72.53 23.348,73.799 19.922,73.672 C21.286,70.246 33.911,68.882 36.353,68.787 C52.499,68.089 55.893,68.882 63.284,70.437 C70.675,71.991 81.777,75.639 103.093,84.108 C123.33,92.165 162.6,111.959 171.672,120.047 C172.18,120.555 175.161,122.648 178.492,122.648 L185.502,122.648 C187.247,122.648 187.722,124.266 187.722,125.027 C187.754,125.884 187.31,127.977 185.851,127.977 L185.851,127.977 z" fill="#000000"/>
  </g>
</svg>
