<?xml version="1.0" encoding="UTF-8"?>
<!DOCTYPE svg PUBLIC "-//W3C//DTD SVG 1.1//EN" "http://www.w3.org/Graphics/SVG/1.1/DTD/svg11.dtd">
<svg version="1.1" xmlns="http://www.w3.org/2000/svg" xmlns:xlink="http://www.w3.org/1999/xlink" x="0" y="0" width="200" height="200" viewBox="0, 0, 200, 200">
  <g id="Layer_1">
    <path d="M100.015,164.672 C129.814,164.672 156.259,154.259 172.644,138.227 L157.877,138.286 C143.934,150.023 123.519,157.406 100.397,157.406 C57.243,157.406 23.591,131.696 23.591,99.985 C23.591,63.391 57.272,42.564 100.397,42.564 C103.133,42.564 105.339,43.829 103.692,46.212 C94.72,57.008 69.186,91.749 64.538,99.279 C55.36,114.105 55.566,132.373 78.07,133.667 L172.674,133.667 C177.498,133.667 178.733,131.402 180.469,129.049 C186.793,120.489 190.029,110.458 190,100.015 C189.97,72.746 170.791,52.331 142.58,42.27 L138.227,48.801 C161.672,57.449 177.174,74.952 177.174,100.015 C177.174,104.368 176.527,108.604 175.321,112.693 C174.262,116.223 172.232,119.224 168.349,119.224 L92.866,119.224 C83.188,119.224 86.924,109.252 90.513,104.398 C95.72,95.073 124.166,56.302 131.02,49.065 C132.755,46.418 137.668,40.917 130.902,38.828 C121.283,36.534 110.869,35.357 100.015,35.357 C50.301,35.328 10.03,60.861 10,99.985 C9.971,139.492 50.301,164.672 100.015,164.672 L100.015,164.672 z" fill="#000000"/>
  </g>
</svg>
