<?xml version="1.0" encoding="UTF-8"?>
<!DOCTYPE svg PUBLIC "-//W3C//DTD SVG 1.1//EN" "http://www.w3.org/Graphics/SVG/1.1/DTD/svg11.dtd">
<svg version="1.1" xmlns="http://www.w3.org/2000/svg" xmlns:xlink="http://www.w3.org/1999/xlink" x="0" y="0" width="200" height="200" viewBox="0, 0, 200, 200">
  <g id="Layer_1">
    <path d="M155.049,71.067 C144.615,51.087 123.686,37.421 99.555,37.421 C75.425,37.421 54.496,51.087 44.061,71.067 L155.049,71.067 L155.049,71.067 z M44.002,128.844 L44.002,128.844 L155.109,128.844 C144.674,148.883 123.715,162.579 99.555,162.579 C75.395,162.579 54.437,148.883 44.002,128.844 z M184.605,76.462 L15.395,76.462 C12.431,76.462 10,78.893 10,81.858 L10,92.026 L10,108.567 L10,118.735 C10,121.7 12.431,124.13 15.395,124.13 L184.605,124.13 C187.569,124.13 190,121.7 190,118.735 L190,108.211 L190,92.352 L190,81.858 C190,78.893 187.569,76.462 184.605,76.462 z M49.16,112.688 C49.16,113.192 48.745,113.577 48.271,113.577 L38.31,113.577 C37.806,113.577 37.243,113.221 37.036,112.747 L28.35,94.042 C28.142,93.597 27.964,93.241 27.964,93.271 C27.964,93.3 27.935,93.715 27.935,94.219 L27.816,112.688 C27.816,113.192 27.401,113.577 26.897,113.577 L22.125,113.577 C21.621,113.577 21.235,113.162 21.235,112.688 L21.235,87.401 C21.235,86.897 21.65,86.512 22.125,86.512 L32.796,86.512 L32.796,86.512 C33.3,86.512 33.864,86.897 34.042,87.342 L41.838,105.988 C42.016,106.433 42.194,106.403 42.194,105.929 L42.194,87.431 C42.194,86.927 42.609,86.542 43.083,86.542 L48.241,86.542 C48.745,86.542 49.13,86.957 49.13,87.431 L49.13,112.688 z M62.174,112.688 C62.174,113.192 61.759,113.577 61.285,113.577 L56.126,113.577 C55.623,113.577 55.237,113.162 55.237,112.688 L55.237,87.401 C55.237,86.897 55.652,86.512 56.126,86.512 L61.285,86.512 C61.789,86.512 62.174,86.927 62.174,87.401 L62.174,112.688 z M92.559,104.832 C92.559,108.449 89.891,112.54 86.453,113.221 L77.559,113.221 L68.221,113.221 L68.221,107.263 L82.955,107.055 C84.792,107.026 84.911,105.958 84.881,105.217 C84.881,105.217 85.237,102.875 82.717,102.875 L74.536,102.875 C69.615,102.875 66.976,99.792 66.976,94.516 C66.976,87.105 71.215,86.245 78.034,86.245 C84.852,86.245 90.04,86.156 90.04,86.156 L89.951,92.292 C85.03,92.292 80.761,92.322 78.034,92.322 C74.269,92.322 74.298,92.441 74.298,94.664 C74.298,96.65 74.595,96.65 77.678,96.65 L86.482,96.739 C92.767,96.769 92.559,104.832 92.559,104.832 z M120.573,104.832 C120.573,108.449 117.905,112.54 114.466,113.221 L105.573,113.221 L96.265,113.221 L96.265,107.263 L110.998,107.055 C112.836,107.026 112.955,105.958 112.925,105.217 C112.925,105.217 113.281,102.875 110.761,102.875 L102.579,102.875 C97.658,102.875 95.02,99.792 95.02,94.516 C95.02,87.105 99.259,86.245 106.077,86.245 C112.895,86.245 118.083,86.156 118.083,86.156 L117.994,92.292 C113.073,92.292 108.804,92.322 106.077,92.322 C102.312,92.322 102.342,92.441 102.342,94.664 C102.342,96.65 102.638,96.65 105.721,96.65 L114.526,96.739 C120.781,96.769 120.573,104.832 120.573,104.832 z M150.306,112.955 L145.03,112.955 C144.526,112.955 143.962,112.599 143.725,112.154 L142.243,109.101 C142.036,108.656 141.443,108.3 140.939,108.3 L131.156,108.3 L131.156,108.3 C130.652,108.3 130.059,108.656 129.852,109.101 L128.281,112.154 C128.043,112.599 127.48,112.955 126.976,112.955 L121.551,112.955 C121.047,112.955 120.781,112.569 120.959,112.125 L130.326,86.719 C130.504,86.245 131.038,85.889 131.542,85.889 L140.316,85.889 C140.82,85.889 141.354,86.275 141.532,86.719 L150.929,112.125 C151.077,112.569 150.81,112.955 150.306,112.955 z M181.848,112.688 C181.848,113.192 181.433,113.577 180.958,113.577 L170.998,113.577 C170.494,113.577 169.931,113.221 169.723,112.747 L161.038,94.042 C160.83,93.597 160.652,93.241 160.652,93.271 C160.652,93.3 160.623,93.715 160.623,94.219 L160.504,112.688 C160.504,113.192 160.089,113.577 159.585,113.577 L154.783,113.577 C154.279,113.577 153.893,113.162 153.893,112.688 L153.893,87.401 C153.893,86.897 154.308,86.512 154.783,86.512 L165.455,86.512 L165.455,86.512 C165.958,86.512 166.522,86.897 166.7,87.342 L174.496,105.988 C174.674,106.433 174.852,106.403 174.852,105.929 L174.852,87.431 C174.852,86.927 175.267,86.542 175.741,86.542 L180.929,86.542 C181.433,86.542 181.818,86.957 181.818,87.431 L181.818,112.688 z M136.374,93.152 L139.279,100.919 C139.457,101.364 139.19,101.749 138.686,101.749 L133.35,101.749 C132.846,101.749 132.579,101.393 132.757,100.919 L135.662,93.152 C135.84,92.708 135.988,92.322 136.018,92.322 C136.047,92.322 136.196,92.678 136.374,93.152 z" fill="#000000"/>
  </g>
</svg>
