<?xml version="1.0" encoding="UTF-8"?>
<!DOCTYPE svg PUBLIC "-//W3C//DTD SVG 1.1//EN" "http://www.w3.org/Graphics/SVG/1.1/DTD/svg11.dtd">
<svg version="1.1" xmlns="http://www.w3.org/2000/svg" xmlns:xlink="http://www.w3.org/1999/xlink" x="0" y="0" width="283.5" height="283.5" viewBox="0, 0, 283.5, 283.5">
  <g id="Background">
    <rect x="0" y="0" width="283.5" height="283.5" fill="#FFFFFF"/>
  </g>
  <g id="Layer_1">
    <path d="M124.283,138.334 C126.034,138.446 127.407,139.188 128.7,140.3 L186.1,197.9 C187.6,199.5 188.3,201.8 187.9,204 C187.5,206.2 186,208 183.9,208.9 L161.4,218.2 L170,239 C171.4,242.4 169.7,246.4 166.3,247.8 C165.4,248.1 164.6,248.3 163.7,248.3 C161.1,248.3 158.6,246.7 157.5,244.1 L148.9,223.3 L126.4,232.6 C125.6,232.9 124.7,233.1 123.8,233.1 C122.5,233.1 121.2,232.8 120.1,232 C118.2,230.8 117.1,228.7 117.1,226.4 L117.1,145 C117.1,142.3 118.8,139.8 121.3,138.8 C122.925,138.305 121.944,138.528 124.283,138.334 z M130.6,161.4 L130.6,216.4 L169.5,200.3 L130.6,161.4 z M209.3,48.6 C213.9,48.6 219.4,52.5 221,56.8 L237.3,102.6 L46.3,102.6 L62.6,56.8 C64.1,52.5 69.7,48.6 74.3,48.6 L209.3,48.6 z M209.2,35.1 L74.2,35.1 C64,35.1 53.3,42.7 49.8,52.3 L31.9,102.5 C31.9,102.6 31.9,102.7 31.8,102.7 C14.1,103.7 0,118.4 0,136.3 L0,176.8 C0,195.4 15.1,210.5 33.7,210.5 L40.4,210.5 L40.4,241.5 C40.4,245.2 43.4,248.2 47.1,248.2 C50.8,248.2 53.8,245.2 53.8,241.5 L53.8,210.5 L96.6,210.5 C100.3,210.5 103.3,207.5 103.3,203.8 C103.3,200.1 100.3,197.1 96.6,197.1 L33.6,197.1 C22.4,197.1 13.4,188 13.4,176.9 L13.4,136.4 C13.4,125.2 22.5,116.2 33.6,116.2 L249.6,116.2 C260.8,116.2 269.8,125.3 269.8,136.4 L269.8,176.9 C269.8,188.1 260.7,197.1 249.6,197.1 L208.5,197.1 C204.8,197.1 201.8,200.1 201.8,203.8 C201.8,207.5 204.8,210.5 208.5,210.5 L229.3,210.5 L229.3,241.5 C229.3,245.2 232.3,248.2 236,248.2 C239.7,248.2 242.7,245.2 242.7,241.5 L242.7,210.5 L249.4,210.5 C268,210.5 283.1,195.4 283.1,176.8 L283.1,136.3 C283.5,118.4 269.3,103.7 251.6,102.7 C251.6,102.6 251.6,102.5 251.5,102.5 L233.6,52.3 C230.2,42.7 219.4,35.1 209.2,35.1 z M47.3,151 C51,151 54,154 54,157.7 C54,161.4 51,164.4 47.3,164.4 C43.6,164.4 40.6,161.4 40.6,157.7 C40.6,154 43.6,151 47.3,151 z M47.2,137.5 C36.1,137.5 27,146.6 27,157.7 C27,168.9 36.1,177.9 47.2,177.9 C58.3,177.9 67.4,168.8 67.4,157.7 C67.4,146.5 58.3,137.5 47.2,137.5 z M236.2,151 C239.9,151 242.9,154 242.9,157.7 C242.9,161.4 239.9,164.4 236.2,164.4 C232.5,164.5 229.5,161.5 229.5,157.7 C229.5,154 232.5,151 236.2,151 z M236.3,137.5 C225.1,137.5 216.1,146.6 216.1,157.7 C216.1,168.9 225.2,177.9 236.3,177.9 C247.4,178 256.5,168.9 256.5,157.7 C256.5,146.5 247.4,137.5 236.3,137.5 z" fill="#000000"/>
  </g>
</svg>
