<?xml version="1.0" encoding="UTF-8"?>
<!DOCTYPE svg PUBLIC "-//W3C//DTD SVG 1.1//EN" "http://www.w3.org/Graphics/SVG/1.1/DTD/svg11.dtd">
<svg version="1.1" xmlns="http://www.w3.org/2000/svg" xmlns:xlink="http://www.w3.org/1999/xlink" x="0" y="0" width="283.5" height="283.5" viewBox="0, 0, 283.5, 283.5">
  <g id="Background">
    <rect x="0" y="0" width="283.5" height="283.5" fill="#FFFFFF"/>
  </g>
  <g id="Layer_1">
    <path d="M207.5,75.4 C217.5,75.4 228,82.8 231.3,92.2 L248.8,141.1 C248.9,141.2 248.9,141.2 248.9,141.3 C266.2,142.2 280,156.6 280.1,174.3 L280.1,213.8 C280.1,231.9 265.3,246.7 247.2,246.7 L240.6,246.7 L240.6,277 C240.6,280.7 237.7,283.6 234,283.6 C230.3,283.6 227.4,280.6 227.4,277 L227.4,246.7 L56.2,246.7 L56.2,277 C56.2,280.7 53.2,283.6 49.6,283.6 C45.9,283.6 43,280.6 43,277 L43,246.7 L36.2,246.7 C18.1,246.7 3.3,231.9 3.3,213.8 L3.3,174.3 C3.3,156.7 17.1,142.3 34.4,141.4 C34.5,141.3 34.5,141.3 34.5,141.2 L52,92.3 C53.2,88.9 57,87.1 60.4,88.3 C63.8,89.5 65.6,93.3 64.4,96.7 L48.5,141.3 L234.8,141.3 L218.9,96.7 C217.4,92.4 212,88.6 207.5,88.6 L170.5,88.6 C166.8,88.6 163.9,85.6 163.9,82 C163.9,78.3 166.9,75.4 170.5,75.4 L207.5,75.4 z M247.1,154.4 L36.4,154.4 C25.5,154.4 16.6,163.3 16.6,174.2 L16.6,213.7 C16.6,224.6 25.5,233.5 36.4,233.5 L247.1,233.5 C258,233.5 266.9,224.6 266.9,213.7 L266.9,174.2 C266.9,163.3 258,154.4 247.1,154.4 z M49.5,175.3 C60.4,175.3 69.2,184.2 69.2,195 C69.2,205.8 60.4,214.7 49.5,214.7 C38.6,214.7 29.7,205.8 29.7,195 C29.7,184.2 38.6,175.3 49.5,175.3 z M49.5,188.4 C45.9,188.4 42.9,191.4 42.9,195 C42.9,198.6 45.9,201.6 49.5,201.6 C53.2,201.6 56.1,198.6 56.1,195 C56.1,191.4 53.1,188.4 49.5,188.4 z M233.9,175.3 C244.8,175.3 253.6,184.2 253.6,195 C253.6,205.8 244.8,214.7 233.9,214.7 C223,214.7 214.2,205.8 214.2,195 C214.2,184.2 223,175.3 233.9,175.3 z M233.9,188.4 C230.3,188.4 227.3,191.4 227.3,195 C227.3,198.6 230.3,201.6 233.9,201.6 C237.6,201.6 240.5,198.6 240.5,195 C240.5,191.4 237.5,188.4 233.9,188.4 z M92.9,26.3 C89.3,26.3 86.3,29.2 86.3,32.9 L86.3,42.4 C86.4,46.1 89.3,49 92.9,49 C96.5,49 99.5,46.1 99.5,42.4 L99.5,32.9 C99.5,29.3 96.6,26.3 92.9,26.3 z M131.8,13.1 C138,13.1 143,18.1 143,24.3 L143,51 C143,57.2 138,62.2 131.8,62.2 L84.4,62.2 C78.2,62.2 73.2,57.2 73.2,51 L73.2,24.3 C73.2,18.1 78.2,13.1 84.4,13.1 L131.8,13.1 z M131.8,-0.1 L84.4,-0.1 C70.9,-0 60,10.9 60,24.3 L60,51 C60,64.4 70.9,75.4 84.4,75.4 L131.8,75.4 C145.2,75.4 156.1,64.5 156.1,51 L156.1,44.2 L215.1,44.2 C218.7,44.2 221.7,41.3 221.7,37.6 C221.7,33.9 218.8,31 215.1,31 L156.1,31 L156.1,24.2 C156.1,10.8 145.2,-0.1 131.8,-0.1 z" fill="#000000"/>
  </g>
</svg>
