<?xml version="1.0" encoding="UTF-8"?>
<!DOCTYPE svg PUBLIC "-//W3C//DTD SVG 1.1//EN" "http://www.w3.org/Graphics/SVG/1.1/DTD/svg11.dtd">
<svg version="1.1" xmlns="http://www.w3.org/2000/svg" xmlns:xlink="http://www.w3.org/1999/xlink" x="0" y="0" width="283.5" height="283.5" viewBox="0, 0, 283.5, 283.5">
  <g id="Background">
    <rect x="0" y="0" width="283.5" height="283.5" fill="#FFFFFF"/>
  </g>
  <g id="Layer_1">
    <path d="M260.042,0.711 C263.715,0.711 266.693,3.689 266.692,7.362 L266.692,108.534 L280.952,122.794 C282.2,124.042 282.901,125.735 282.9,127.5 L282.9,256.923 C282.881,271.2 271.312,282.77 257.035,282.789 L26.465,282.789 C12.188,282.77 0.619,271.2 0.6,256.923 L0.6,124.149 C0.63,113.772 4.767,103.83 12.105,96.493 C76.822,32.121 105.748,16.089 117.23,12.262 C151.485,0.843 255.626,0.711 260.042,0.711 z M253.392,14.053 C229.625,14.279 148.924,15.716 121.437,24.879 C104.039,30.678 66.674,60.974 21.484,105.922 C16.615,110.736 13.883,117.302 13.9,124.149 L13.9,256.923 C13.907,263.859 19.529,269.481 26.465,269.488 L257.035,269.488 C263.971,269.481 269.593,263.859 269.6,256.923 L269.6,130.249 L255.34,115.988 C254.093,114.741 253.393,113.051 253.392,111.288 L253.392,14.053 z M234.711,138.457 C238.384,138.457 241.361,141.434 241.361,145.107 C241.361,148.78 238.384,151.757 234.711,151.757 L199,151.757 C195.327,151.757 192.35,148.78 192.35,145.107 C192.35,141.434 195.327,138.457 199,138.457 L234.711,138.457 z M234.391,25.352 L234.391,25.357 C236.208,25.269 237.982,25.93 239.299,27.185 C240.616,28.44 241.361,30.181 241.361,32 L241.361,104.787 C241.361,108.46 238.384,111.437 234.711,111.437 L51.949,111.437 C49.232,111.439 46.787,109.787 45.774,107.265 C44.762,104.743 45.385,101.859 47.349,99.981 C58.594,89.224 115.67,35.555 137.656,32.806 C161.975,28.876 231.439,25.495 234.391,25.352 z M228.061,38.994 C209.453,39.974 158.738,42.848 139.653,45.956 C139.548,45.973 139.441,45.988 139.335,46 C136.039,46.374 124.806,50.247 91.772,78.059 C83.216,85.263 75.143,92.449 68.89,98.136 L228.061,98.136 L228.061,38.994 z" fill="#1D1D1B"/>
  </g>
</svg>
