<?xml version="1.0" encoding="UTF-8"?>
<!DOCTYPE svg PUBLIC "-//W3C//DTD SVG 1.1//EN" "http://www.w3.org/Graphics/SVG/1.1/DTD/svg11.dtd">
<svg version="1.1" xmlns="http://www.w3.org/2000/svg" xmlns:xlink="http://www.w3.org/1999/xlink" x="0" y="0" width="283.5" height="283.5" viewBox="0, 0, 283.5, 283.5">
  <g id="Background">
    <rect x="0" y="0" width="283.5" height="283.5" fill="#FFFFFF"/>
  </g>
  <g id="Layer_1">
    <path d="M142.8,96.5 C152,96.5 161.7,103.3 164.8,112 L179.5,153.3 L184.2,153.3 C198.3,153.3 209.8,164.8 209.8,178.9 L209.8,213.1 C209.8,227.2 198.3,238.7 184.2,238.7 L173.2,238.7 L173.2,262.9 C173.2,266.3 170.5,269 167.1,269 C163.7,269 161,266.3 161,262.9 L161,238.7 L48.8,238.7 L48.8,262.9 C48.8,266.3 46.1,269 42.7,269 C39.3,269 36.6,266.3 36.6,262.9 L36.6,238.7 L25.6,238.7 C11.5,238.7 -0,227.2 -0,213.1 L-0,178.9 C-0,164.8 11.5,153.3 25.5,153.3 L30.2,153.3 L45,112 C48.2,103.3 57.8,96.5 67.1,96.5 L142.8,96.5 z M184.2,165.5 L25.6,165.5 C18.2,165.5 12.2,171.5 12.2,178.9 L12.2,213.1 C12.2,220.5 18.2,226.5 25.6,226.5 L184.2,226.5 C191.6,226.5 197.6,220.5 197.6,213.1 L197.6,178.9 C197.6,171.5 191.6,165.5 184.2,165.5 z M42.7,177.5 C52.8,177.5 61,185.8 61,195.8 C61,205.9 52.8,214.1 42.7,214.1 C32.6,214.1 24.4,205.9 24.4,195.8 C24.4,185.7 32.6,177.5 42.7,177.5 z M42.7,189.7 C39.3,189.7 36.6,192.4 36.6,195.8 C36.6,199.2 39.3,201.9 42.7,201.9 C46.1,201.9 48.8,199.2 48.8,195.8 C48.8,192.4 46.1,189.7 42.7,189.7 z M167.1,177.5 C177.2,177.5 185.4,185.8 185.4,195.8 C185.4,205.9 177.2,214.1 167.1,214.1 C157,214.1 148.8,205.9 148.8,195.8 C148.8,185.7 157,177.5 167.1,177.5 z M167.1,189.7 C163.7,189.7 161,192.4 161,195.8 C161,199.2 163.7,201.9 167.1,201.9 C170.5,201.9 173.2,199.2 173.2,195.8 C173.2,192.4 170.5,189.7 167.1,189.7 z M142.7,108.7 L67.1,108.7 C62.9,108.7 57.9,112.2 56.5,116.1 L43.2,153.3 L166.6,153.3 L153.3,116.1 C151.9,112.2 146.8,108.7 142.7,108.7 z M232.1,14.5 L187.7,14.5 C159.4,14.5 136.3,37.5 136.3,65.9 C136.3,69.3 139,72 142.4,72 C145.8,72 148.5,69.3 148.5,65.9 C148.5,44.3 166.1,26.7 187.7,26.7 L232.1,26.7 C253.7,26.7 271.3,44.3 271.3,65.8 C271.3,87.4 253.7,105 232.1,105 L219.4,105 C218.5,105.1 217.7,105.3 216.9,105.8 C216.2,106.2 215.5,106.8 215,107.4 C214.9,107.6 214.8,107.7 214.7,107.9 L204.4,124.3 L194,107.8 C192.2,105 188.4,104.1 185.6,105.9 C182.8,107.7 181.9,111.5 183.7,114.3 L199.2,138.8 L200.1,140 C200.6,140.5 201.2,140.9 201.9,141.2 C202.7,141.6 203.6,141.8 204.4,141.8 C205.3,141.8 206.1,141.6 207,141.2 C207.6,140.9 208.2,140.5 208.7,140 C209.1,139.6 209.4,139.2 209.6,138.8 L223.3,117.1 L232.1,117.1 C260.4,117.1 283.5,94.1 283.5,65.7 C283.5,37.5 260.4,14.5 232.1,14.5 z M219.9,73 L179.9,73 C176.5,73 173.8,75.7 173.8,79.1 C173.8,82.5 176.5,85.2 179.9,85.2 L219.9,85.2 C223.3,85.2 226,82.5 226,79.1 C226,75.7 223.3,73 219.9,73 z M244.3,48.6 L179.9,48.6 C176.5,48.6 173.8,51.3 173.8,54.7 C173.8,58.1 176.5,60.8 179.9,60.8 L244.3,60.8 C247.7,60.8 250.4,58.1 250.4,54.7 C250.4,51.3 247.7,48.6 244.3,48.6 z" fill="#010202"/>
  </g>
</svg>
