<?xml version="1.0" encoding="UTF-8"?>
<!DOCTYPE svg PUBLIC "-//W3C//DTD SVG 1.1//EN" "http://www.w3.org/Graphics/SVG/1.1/DTD/svg11.dtd">
<svg version="1.1" xmlns="http://www.w3.org/2000/svg" xmlns:xlink="http://www.w3.org/1999/xlink" x="0" y="0" width="283.5" height="283.5" viewBox="0, 0, 283.5, 283.5">
  <g id="Background">
    <rect x="0" y="0" width="283.5" height="283.5" fill="#FFFFFF"/>
  </g>
  <g id="Layer_1">
    <path d="M251.5,175 C251.5,163.6 244.4,153.8 234.4,149.8 C237.5,145.4 239.3,140.1 239.3,134.3 C239.3,119.4 227.2,107.2 212.2,107.2 L155.3,107.2 C154.8,107.2 154.4,107.2 153.9,107.3 L176.5,63.2 C176.5,63.1 176.6,63.1 176.7,63 C188.4,40.4 179.5,12.5 156.9,0.7 C156.9,0.7 156.9,0.7 156.8,0.7 C156.5,0.6 156.3,0.5 156,0.4 C155.8,0.3 155.7,0.3 155.5,0.2 C155.2,0.1 155,0.1 154.7,0.1 C154.5,0.1 154.4,0 154.2,0 C153.9,0 153.7,0 153.4,0 C153.2,0 153.1,0 152.9,0 C152.6,0 152.4,0.1 152.1,0.2 C152,0.2 151.8,0.3 151.7,0.3 C151.4,0.4 151.2,0.5 151,0.6 C150.9,0.7 150.7,0.7 150.5,0.8 C150.3,0.9 150.1,1.1 149.9,1.2 C149.7,1.3 149.5,1.4 149.4,1.6 C149.3,1.7 149.1,1.9 149,2 C148.8,2.2 148.6,2.4 148.5,2.6 C148.5,2.6 148.5,2.6 148.4,2.7 L51.3,128.7 C51.3,128.7 51.3,128.7 51.3,128.7 C51.3,128.7 51.3,128.7 51.3,128.7 C38.7,145.1 32,165.2 32,186.7 C32,238.2 72.4,280.4 123.2,283.2 C123.7,283.3 124.2,283.4 124.7,283.4 L159.4,283.4 L196,283.4 C210.9,283.4 223.1,271.3 223.1,256.3 C223.1,251 221.5,246.1 218.9,241.9 C230.6,238.9 239.4,228.3 239.4,215.7 C239.4,209.9 237.6,204.6 234.5,200.2 C244.4,196.2 251.5,186.5 251.5,175 z M212.2,120.8 C219.7,120.8 225.8,126.9 225.8,134.4 C225.8,141.9 219.7,148 212.2,148 L155.3,148 C147.8,148 141.7,141.9 141.7,134.4 C141.7,126.9 147.8,120.8 155.3,120.8 L212.2,120.8 z M45.5,186.8 C45.5,168.3 51.2,151.1 62,137 L155.3,15.8 C167.7,25.2 172,42.4 164.7,56.7 C164.7,56.8 164.6,56.9 164.5,56.9 L131,122.3 C130.9,122.4 130.9,122.5 130.9,122.6 C129.2,126.2 128.1,130.2 128.1,134.4 C128.1,140.2 129.9,145.5 133,149.9 C123,153.9 115.9,163.6 115.9,175.1 C115.9,185.3 121.6,194.3 130,198.9 C126.3,203.5 124,209.4 124,215.8 C124,226 129.7,234.9 138.1,239.6 C134.4,244.2 132.1,250.1 132.1,256.5 C132.1,261.5 133.5,266.1 135.8,270.1 L128.6,270.1 C82.8,270 45.5,232.6 45.5,186.8 z M195.9,270 L159.3,270 C151.8,270 145.7,263.9 145.7,256.4 C145.7,248.9 151.8,242.8 159.3,242.8 L195.9,242.8 C203.4,242.8 209.5,248.9 209.5,256.4 C209.5,263.9 203.4,270 195.9,270 z M212.2,229.3 L151.2,229.3 C143.7,229.3 137.6,223.2 137.6,215.7 C137.6,208.2 143.7,202.1 151.2,202.1 L212.2,202.1 C219.7,202.1 225.8,208.2 225.8,215.7 C225.8,223.2 219.7,229.3 212.2,229.3 z M224.4,188.6 L143.1,188.6 C135.6,188.6 129.5,182.5 129.5,175 C129.5,167.5 135.6,161.4 143.1,161.4 L224.4,161.4 C231.9,161.4 238,167.5 238,175 C238,182.5 231.9,188.6 224.4,188.6 z" fill="#000000"/>
  </g>
</svg>
