<?xml version="1.0" encoding="UTF-8"?>
<!DOCTYPE svg PUBLIC "-//W3C//DTD SVG 1.1//EN" "http://www.w3.org/Graphics/SVG/1.1/DTD/svg11.dtd">
<svg version="1.1" xmlns="http://www.w3.org/2000/svg" xmlns:xlink="http://www.w3.org/1999/xlink" x="0" y="0" width="283.5" height="283.5" viewBox="0, 0, 283.5, 283.5">
  <g id="Background">
    <rect x="0" y="0" width="283.5" height="283.5" fill="#FFFFFF"/>
  </g>
  <g id="Layer_1">
    <path d="M187.8,133.8 C195.8,133.8 203.8,139.4 206.4,146.9 L218.3,179.9 C230.8,181.4 240.5,192 240.5,204.9 L240.5,232.5 C240.5,246.4 229.2,257.6 215.4,257.6 L212.9,257.6 L212.9,276.6 C212.9,280.4 209.8,283.5 206.1,283.5 C202.4,283.5 199.4,280.5 199.4,276.8 L199.4,257.8 L84.1,257.8 L84.1,276.8 C84.1,280.5 81.1,283.5 77.4,283.5 C73.7,283.5 70.7,280.5 70.7,276.8 L70.7,257.8 L68.2,257.8 C54.3,257.8 43.1,246.5 43.1,232.7 L43.1,205 C43.1,192.1 52.9,181.4 65.5,180 L77.1,147 C79.8,139.5 87.8,133.8 95.8,133.8 L187.8,133.8 z M215.3,193.3 L68.1,193.3 C61.7,193.3 56.4,198.5 56.4,205 L56.4,232.6 C56.4,239 61.6,244.3 68.1,244.3 L215.3,244.3 C221.7,244.3 227,239.1 227,232.6 L227,205 C227,198.6 221.8,193.3 215.3,193.3 z M203.2,208.4 C209.4,208.4 214.4,213.4 214.4,219.6 C214.4,225.8 209.4,230.8 203.2,230.8 C197,230.8 192,225.8 192,219.6 C192,213.4 197,208.4 203.2,208.4 z M81.447,208.457 C87.3,209.302 91.205,213.734 91.5,219.6 C91.5,225.8 86.5,230.8 80.3,230.8 C74.1,230.8 69.1,225.8 69.1,219.6 C69.1,213.4 74.1,208.4 80.3,208.4 L81.447,208.457 z M187.7,147.3 L95.7,147.3 C93.5,147.3 90.5,149.4 89.7,151.5 L79.8,179.8 L203.9,179.8 L193.7,151.5 C193,149.4 189.9,147.3 187.7,147.3 z M64.7,93 C32.8,93 6.8,118.9 6.8,150.9 C6.8,156.3 7.6,161.7 9.1,166.9 C10,169.8 12.6,171.8 15.6,171.8 L45.9,171.8 C49.6,171.8 52.4,168.7 52.4,165 C52.4,161.3 49.4,158.3 45.7,158.3 L20.8,158.3 C20.4,155.8 20.2,153.4 20.2,150.9 C20.2,126.4 40.2,106.4 64.7,106.4 C68.4,106.4 71.4,103.4 71.4,99.7 C71.4,96 68.4,93 64.7,93 z M218.6,93.1 C214.9,93.1 211.9,96.1 211.9,99.8 C211.9,103.5 214.9,106.5 218.6,106.5 C243.2,106.5 263.1,126.5 263.1,151 C263.1,153.5 262.9,156 262.5,158.4 L237.6,158.4 C233.9,158.4 230.9,161.4 230.9,165.1 C230.9,168.8 233.9,171.8 237.6,171.8 L267.9,171.8 C270.9,171.8 273.5,169.8 274.3,167 C275.7,161.8 276.5,156.4 276.5,151 C276.5,119.1 250.5,93.1 218.6,93.1 z M141.7,79.5 C119.1,79.5 98.4,92.7 89,113.3 C87.4,116.6 88.9,120.6 92.3,122.2 C95.6,123.8 99.6,122.3 101.2,118.9 C108.5,103.1 124.4,92.9 141.7,92.9 C159.1,92.9 175,103.1 182.2,118.9 C183.3,121.3 185.7,122.8 188.3,122.8 C189.3,122.8 190.2,122.6 191.1,122.3 C194.5,120.8 195.9,116.8 194.4,113.4 C185,92.8 164.3,79.5 141.7,79.5 z M64.8,27.1 C75.9,27.1 84.8,36.1 84.8,47.1 C84.8,58.1 75.8,67.1 64.8,67.1 C53.8,67.1 44.8,58.1 44.8,47.1 C44.8,36.1 53.8,27.1 64.8,27.1 z M64.8,13.5 C46.3,13.5 31.3,28.6 31.3,47 C31.3,65.5 46.4,80.5 64.8,80.5 C83.3,80.5 98.3,65.5 98.3,47 C98.3,28.5 83.3,13.5 64.8,13.5 z M218.6,27.1 C229.7,27.1 238.6,36.1 238.6,47.1 C238.6,58.1 229.6,67.1 218.6,67.1 C207.6,67.1 198.6,58.1 198.6,47.1 C198.6,36.1 207.6,27.1 218.6,27.1 z M218.6,13.5 C200.1,13.5 185.1,28.6 185.1,47 C185.1,65.5 200.2,80.5 218.6,80.5 C237.1,80.5 252.1,65.5 252.1,47 C252.1,28.5 237.1,13.5 218.6,13.5 z M141.7,13.5 C152.8,13.5 161.7,22.4 161.7,33.5 C161.7,44.5 152.7,53.5 141.7,53.5 C130.7,53.5 121.7,44.5 121.7,33.5 C121.7,22.5 130.7,13.5 141.7,13.5 z M141.7,0 C123.3,0 108.3,15 108.3,33.4 C108.3,51.9 123.3,66.9 141.7,66.9 C160.2,66.9 175.2,51.9 175.2,33.4 C175.2,15 160.2,0 141.7,0 z" fill="#010202"/>
  </g>
</svg>
