<?xml version="1.0" encoding="UTF-8"?>
<!DOCTYPE svg PUBLIC "-//W3C//DTD SVG 1.1//EN" "http://www.w3.org/Graphics/SVG/1.1/DTD/svg11.dtd">
<svg version="1.1" xmlns="http://www.w3.org/2000/svg" xmlns:xlink="http://www.w3.org/1999/xlink" x="0" y="0" width="283.5" height="283.5" viewBox="0, 0, 283.5, 283.5">
  <g id="Background">
    <rect x="0" y="0" width="283.5" height="283.5" fill="#FFFFFF"/>
  </g>
  <g id="Layer_1">
    <path d="M143.4,283.4 L75.3,283.4 C75.2,283.4 75.1,283.4 75,283.4 C71.2,283.4 68.2,280.3 68.2,276.6 L68.2,238.3 C53.5,235.4 42.5,223.1 42.5,208.5 L42.5,196.7 C42.5,192.9 45.6,189.9 49.3,189.9 L55.3,189.9 L55.3,175.4 C55.3,171.6 58.4,168.6 62.1,168.6 C65.9,168.6 68.9,171.7 68.9,175.4 L68.9,189.9 L81,189.9 L81,175.4 C81,171.6 84.1,168.6 87.8,168.6 C91.6,168.6 94.6,171.7 94.6,175.4 L94.6,189.9 L100.6,189.9 C104.4,189.9 107.4,193 107.4,196.7 L107.4,208.5 C107.4,223.1 96.4,235.4 81.7,238.3 L81.7,269.7 L136.5,269.7 L136.5,177.4 L75,121.1 L13.5,177.4 L13.5,276.5 C13.5,280.3 10.4,283.3 6.7,283.3 C2.9,283.3 -0.1,280.2 -0.1,276.5 L-0.1,174.5 C-0.1,172.6 0.7,170.8 2.1,169.5 L70.4,106.9 C73,104.5 77,104.5 79.6,106.9 L147.9,169.5 C149.3,170.8 150.1,172.6 150.1,174.5 L150.1,276.6 C150.2,280.3 147.2,283.4 143.4,283.4 z M75,225.3 C85.4,225.3 93.9,217.8 93.9,208.5 L93.9,203.5 L56.1,203.5 L56.1,208.5 C56.1,217.8 64.6,225.3 75,225.3 z M276.6,249.9 L208.3,249.9 C204.5,249.9 201.5,246.8 201.5,243.1 L201.5,204.3 C186.8,201.4 175.8,189.1 175.8,174.5 L175.8,162.7 C175.8,158.9 178.9,155.9 182.6,155.9 L188.6,155.9 L188.6,141.5 C188.6,137.7 191.7,134.7 195.4,134.7 C199.2,134.7 202.2,137.8 202.2,141.5 L202.2,155.9 L214.3,155.9 L214.3,141.5 C214.3,137.7 217.4,134.7 221.1,134.7 C224.9,134.7 227.9,137.8 227.9,141.5 L227.9,155.9 L233.9,155.9 C237.7,155.9 240.7,159 240.7,162.7 L240.7,174.5 C240.7,189.1 229.7,201.3 215,204.3 L215,236.2 L269.7,236.2 L269.7,13.7 L146.7,13.7 L146.7,131.9 C146.7,135.7 143.6,138.7 139.9,138.7 C136.1,138.7 133.1,135.6 133.1,131.9 L133.1,6.9 C133.1,3.1 136.2,0.1 139.9,0.1 L276.5,0.1 C280.3,0.1 283.3,3.2 283.3,6.9 L283.3,243.1 C283.5,246.8 280.4,249.9 276.6,249.9 z M208.3,191.3 C218.7,191.3 227.2,183.8 227.2,174.5 L227.2,169.5 L189.4,169.5 L189.4,174.5 C189.4,183.8 197.9,191.3 208.3,191.3 z M221.2,119.5 C217.4,119.5 214.4,116.4 214.4,112.7 L214.4,91.4 C214.4,87.6 217.5,84.6 221.2,84.6 C225,84.6 228,87.7 228,91.4 L228,112.7 C228,116.4 225,119.5 221.2,119.5 z M195.5,119.5 C191.7,119.5 188.7,116.4 188.7,112.7 L188.7,91.4 C188.7,87.6 191.8,84.6 195.5,84.6 C199.3,84.6 202.3,87.7 202.3,91.4 L202.3,112.7 C202.3,116.4 199.2,119.5 195.5,119.5 z M221.2,69.4 C217.4,69.4 214.4,66.3 214.4,62.6 L214.4,41.3 C214.4,37.5 217.5,34.5 221.2,34.5 C225,34.5 228,37.6 228,41.3 L228,62.6 C228,66.3 225,69.4 221.2,69.4 z M195.5,69.4 C191.7,69.4 188.7,66.3 188.7,62.6 L188.7,41.3 C188.7,37.5 191.8,34.5 195.5,34.5 C199.3,34.5 202.3,37.6 202.3,41.3 L202.3,62.6 C202.3,66.3 199.2,69.4 195.5,69.4 z" fill="#000000"/>
  </g>
</svg>
