<?xml version="1.0" encoding="UTF-8"?>
<!DOCTYPE svg PUBLIC "-//W3C//DTD SVG 1.1//EN" "http://www.w3.org/Graphics/SVG/1.1/DTD/svg11.dtd">
<svg version="1.1" xmlns="http://www.w3.org/2000/svg" xmlns:xlink="http://www.w3.org/1999/xlink" x="0" y="0" width="283.5" height="283.5" viewBox="0, 0, 283.5, 283.5">
  <g id="Background">
    <rect x="0" y="0" width="283.5" height="283.5" fill="#FFFFFF"/>
  </g>
  <g id="Layer_1">
    <path d="M236.4,101.4 L236.4,243.2 L0,243.2 L0,101.4 L236.4,101.4 z M222.5,206 C210.9,208.6 201.7,217.8 199.1,229.4 L222.5,229.4 L222.5,206 z M13.8,205.9 L13.8,229.3 L37.2,229.3 C34.6,217.7 25.5,208.5 13.8,205.9 z M185.2,115.2 L51.3,115.2 C48.3,134.5 33.1,149.7 13.9,152.6 L13.9,191.9 C33.1,194.8 48.4,210 51.3,229.3 L185.2,229.3 C188.1,210.1 203.3,194.8 222.6,191.9 L222.6,152.6 C203.4,149.7 188.1,134.5 185.2,115.2 z M37.2,115.2 L13.8,115.2 L13.8,138.6 C25.4,136 34.6,126.8 37.2,115.2 z M222.6,115.2 L199.2,115.2 C201.8,126.8 210.9,136 222.6,138.6 L222.6,115.2 z M252.9,70.8 L44.9,70.8 C41.1,70.8 38,73.9 38,77.7 C38,81.5 41.1,84.6 44.9,84.6 L246,84.6 L246,191.2 C246,195 249.1,198.1 252.9,198.1 C256.7,198.1 259.8,195 259.8,191.2 L259.8,77.7 C259.8,73.9 256.7,70.8 252.9,70.8 z M276.6,40.1 L68.6,40.1 C64.8,40.1 61.7,43.2 61.7,47 C61.7,50.8 64.8,53.9 68.6,53.9 L269.7,53.9 L269.7,160.5 C269.7,164.3 272.8,167.4 276.6,167.4 C280.4,167.4 283.5,164.3 283.5,160.5 L283.5,47 C283.5,43.2 280.4,40.1 276.6,40.1 z" fill="#000000"/>
  </g>
</svg>
