<?xml version="1.0" encoding="UTF-8"?>
<!DOCTYPE svg PUBLIC "-//W3C//DTD SVG 1.1//EN" "http://www.w3.org/Graphics/SVG/1.1/DTD/svg11.dtd">
<svg version="1.1" xmlns="http://www.w3.org/2000/svg" xmlns:xlink="http://www.w3.org/1999/xlink" x="0" y="0" width="283.5" height="283.5" viewBox="0, 0, 283.5, 283.5">
  <g id="Background">
    <rect x="0" y="0" width="283.5" height="283.5" fill="#FFFFFF"/>
  </g>
  <g id="Layer_1">
    <path d="M84.1,180 C97.8,180 111.3,183.7 123.1,190.7 C127,193 128.3,198.1 126,202 C123.7,205.9 118.6,207.2 114.7,204.9 C105.5,199.4 94.9,196.5 84.1,196.5 C51.1,196.5 24.2,223.4 24.2,256.4 C24.2,259.9 24.5,263.4 25.1,266.9 L131.3,266.9 C135.9,266.9 139.8,270.7 139.8,275.3 C139.8,279.9 136.1,283.6 131.5,283.6 L18.7,283.6 C15,283.6 11.7,281.1 10.7,277.6 C8.7,270.7 7.7,263.6 7.7,256.5 C7.7,214.3 41.9,180 84.1,180 z M214.9,16.5 C219,16.5 221.7,18.9 221.7,20.6 L221.7,22.4 L194.6,22.4 L194.6,20.6 L194.5,20.6 C194.5,18.9 197.1,16.5 201.3,16.5 L214.9,16.5 z M208,52.2 C203.4,52.2 199.7,55.9 199.7,60.5 L199.7,74 L186.2,74 C181.6,74 177.9,77.7 177.9,82.3 C177.9,86.9 181.6,90.6 186.2,90.6 L199.7,90.6 L199.7,104.1 C199.7,108.7 203.4,112.4 208,112.4 C212.6,112.4 216.3,108.7 216.3,104.1 L216.3,90.6 L229.8,90.6 C234.4,90.6 238.1,86.9 238.1,82.3 C238.1,77.7 234.4,74 229.8,74 L216.3,74 L216.3,60.5 C216.3,55.9 212.6,52.2 208,52.2 z M245.8,37.5 C254.1,37.5 260.8,44.3 260.8,52.5 L260.8,163.5 L155.2,163.5 L155.2,52.5 C155.2,44.2 162,37.5 170.2,37.5 L245.8,37.5 z M229.8,216 L186.2,216 C181.6,216 177.9,219.7 177.9,224.3 C177.9,228.9 181.6,232.6 186.2,232.6 L229.8,232.6 C234.4,232.6 238.1,228.9 238.1,224.3 C238.1,219.7 234.4,216 229.8,216 z M260.8,180 L260.8,243.8 C260.8,252.1 254,258.8 245.8,258.8 L170.2,258.8 C161.9,258.8 155.2,252 155.2,243.8 L155.2,180 L260.8,180 z M214.8,-0 L201.2,-0 C188.4,-0 177.9,9.3 177.9,20.7 L177.9,22.5 L170.2,22.5 C153.6,22.5 140.2,36 140.2,52.5 L140.2,243.8 C140.2,260.4 153.7,273.8 170.2,273.8 L245.8,273.8 C262.4,273.8 275.8,260.3 275.8,243.8 L275.8,52.5 C275.9,36 262.4,22.5 245.8,22.5 L238.1,22.5 L238.1,20.7 C238.1,9.3 227.7,-0 214.8,-0 z M84.1,105.2 C99.2,105.2 111.4,117.4 111.4,132.5 C111.4,147.5 99.2,159.8 84.1,159.8 C69,159.8 56.8,147.6 56.8,132.5 C56.8,117.5 69,105.2 84.1,105.2 z M84.1,88.8 C60,88.8 40.3,108.5 40.3,132.6 C40.2,156.7 59.9,176.4 84.1,176.4 C108.3,176.4 127.9,156.7 127.9,132.6 C127.9,108.4 108.2,88.8 84.1,88.8 z" fill="#000000"/>
  </g>
</svg>
