<?xml version="1.0" encoding="UTF-8"?>
<!DOCTYPE svg PUBLIC "-//W3C//DTD SVG 1.1//EN" "http://www.w3.org/Graphics/SVG/1.1/DTD/svg11.dtd">
<svg version="1.1" xmlns="http://www.w3.org/2000/svg" xmlns:xlink="http://www.w3.org/1999/xlink" x="0" y="0" width="283.5" height="283.5" viewBox="0, 0, 283.5, 283.5">
  <g id="Background">
    <rect x="0" y="0" width="283.5" height="283.5" fill="#FFFFFF"/>
  </g>
  <g id="Layer_1">
    <path d="M244.3,113.5 C252,113.5 258.2,119.7 258.1,127.4 L258.1,269.9 C258.1,277.5 251.9,283.7 244.3,283.7 L173.3,283.7 C165.7,283.7 159.5,277.5 159.5,269.9 L159.5,127.3 C159.5,119.7 165.7,113.5 173.3,113.5 L244.3,113.5 z M244.7,253.9 L173,253.9 L173,270 C173,270.1 173.1,270.3 173.3,270.3 L244.3,270.3 C244.5,270.3 244.7,270.1 244.7,270 L244.7,253.9 z M209.777,256.964 C211.84,257.8 211.046,257.277 212.3,258.3 C214.2,260.2 214.2,263.4 212.3,265.3 C210.4,267.2 207.2,267.2 205.3,265.3 C203.4,263.4 203.4,260.2 205.3,258.3 C206.884,256.88 207.794,256.964 209.777,256.964 z M244.7,155.3 L173,155.3 L173,240.4 L244.7,240.4 L244.7,155.3 z M244.4,127 L173.4,127 C173.2,127 173,127.2 173,127.3 L173,141.7 L244.7,141.7 L244.7,127.3 C244.7,127.2 244.6,127 244.4,127 z M216,130.8 C218,130.8 219.7,132.5 219.7,134.5 C219.7,136.5 218.1,138.2 216,138.2 L201.8,138.2 C199.7,138.2 198,136.5 198.1,134.5 C198.1,132.5 199.7,130.8 201.8,130.8 L216,130.8 z M120.2,118.3 C67.9,118.3 25.3,160.9 25.3,213.2 C25.3,216.9 28.3,219.9 32,219.9 L140,219.9 C143.7,219.9 146.7,216.9 146.7,213.2 C146.8,209.5 143.7,206.5 140,206.5 L39,206.5 C42.4,164.7 77.5,131.8 120.2,131.8 C125.9,131.8 131.5,132.4 137,133.5 C140.6,134.3 144.2,131.9 145,128.3 C145.8,124.7 143.4,121.1 139.8,120.3 C133.4,119 126.8,118.3 120.2,118.3 z M120.3,13.8 C142,13.8 159.6,31.4 159.6,53.1 C159.5,74.7 141.9,92.4 120.2,92.4 C98.6,92.4 81,74.7 81,53.1 C81,31.5 98.6,13.8 120.3,13.8 z M120.2,0.3 C91.1,0.3 67.5,24 67.5,53.1 C67.5,82.2 91.2,105.9 120.3,105.9 C149.4,105.9 173.1,82.2 173.1,53.1 C173,24 149.3,0.3 120.2,0.3 z" fill="#000000"/>
  </g>
</svg>
