<?xml version="1.0" encoding="UTF-8"?>
<!DOCTYPE svg PUBLIC "-//W3C//DTD SVG 1.1//EN" "http://www.w3.org/Graphics/SVG/1.1/DTD/svg11.dtd">
<svg version="1.1" xmlns="http://www.w3.org/2000/svg" xmlns:xlink="http://www.w3.org/1999/xlink" x="0" y="0" width="283.5" height="283.5" viewBox="0, 0, 283.5, 283.5">
  <g id="Background">
    <rect x="0" y="0" width="283.5" height="283.5" fill="#FFFFFF"/>
  </g>
  <g id="Layer_1">
    <path d="M274.7,41 C273.3,39.3 271.2,38.3 269,38.3 L225.1,38.3 C218.8,27.6 207.2,20.4 193.9,20.4 C188.9,20.4 184.1,21.4 179.8,23.2 C178,10.2 166.8,0 153.3,0 C138.6,0 126.6,12 126.6,26.7 C126.6,30.9 127.6,34.8 129.3,38.4 L38.9,38.4 C36.7,38.4 34.6,39.4 33.2,41.1 C31.8,42.8 31.2,45 31.5,47.2 L52,170 C25.2,184 7,212.1 7,244.3 C7,244.6 7.1,244.8 7.1,245.1 C7.1,245.4 7,245.6 7,245.9 L7,276 C7,280.2 10.4,283.5 14.5,283.5 L77.2,283.5 L167.6,283.5 L230.6,283.5 C234.3,283.5 237.4,280.8 238,277.2 L276.3,47.1 C276.7,44.9 276.1,42.7 274.7,41 z M172.9,53.4 C173.9,47 177.8,41.5 183.2,38.4 C186.3,36.6 189.9,35.5 193.8,35.5 C197.7,35.5 201.3,36.6 204.4,38.4 C209.8,41.5 213.7,47 214.7,53.4 C214.9,54.5 215,55.6 215,56.7 C215,68.4 205.5,77.9 193.8,77.9 C182.1,77.9 172.6,68.4 172.6,56.7 C172.6,55.6 172.7,54.5 172.9,53.4 z M180.3,97.6 C180.3,104 175.1,109.3 168.6,109.3 C162.2,109.3 156.9,104.1 156.9,97.6 C156.9,91.1 162.2,86 168.6,86 C175,86 180.3,91.2 180.3,97.6 z M153.3,15 C159.7,15 165,20.2 165,26.7 C165,33.2 159.8,38.4 153.3,38.4 C146.9,38.4 141.6,33.2 141.6,26.7 C141.6,20.2 146.9,15 153.3,15 z M54.6,185.7 C59,182.9 63.7,180.7 68.7,179 C75.7,176.6 83.2,175.3 91,175.3 C91,175.3 91,175.3 91,175.3 C91,175.3 91,175.3 91,175.3 C127,175.3 156.7,203.1 159.7,238.4 L78.6,238.4 L63.3,238.4 L22.3,238.4 C24.2,216.2 36.6,197 54.6,185.7 z M160.1,268.4 L83.6,268.4 L68.4,268.4 L22,268.4 L22,253.4 L65.8,253.4 L81.1,253.4 L160.1,253.4 L160.1,268.4 z M224.2,268.4 L175.1,268.4 L175.1,245.8 C175.1,245.5 175,245.3 175,245 C175,244.7 175.1,244.5 175.1,244.2 C175.1,200.4 141.4,164.3 98.5,160.5 L98.5,88.4 C98.5,84.2 95.1,80.9 91,80.9 C86.8,80.9 83.5,84.3 83.5,88.4 L83.5,160.6 C77.5,161.1 71.7,162.3 66.2,164 L47.8,53.4 L153.3,53.4 C154.8,53.4 156.3,53.2 157.7,53 C157.7,53.1 157.7,53.3 157.7,53.4 C157.6,54.5 157.5,55.6 157.5,56.7 C157.5,62.2 158.8,67.4 161,72.1 C150,75.4 141.9,85.6 141.9,97.7 C141.9,112.4 153.9,124.4 168.6,124.4 C183.3,124.4 195.3,112.4 195.3,97.7 C195.3,96.1 195.1,94.5 194.9,93 C214.4,92.4 230.1,76.4 230.1,56.8 C230.1,55.7 230,54.6 229.9,53.5 L260.1,53.5 L224.2,268.4 z" fill="#010202"/>
  </g>
</svg>
