<?xml version="1.0" encoding="UTF-8"?>
<!DOCTYPE svg PUBLIC "-//W3C//DTD SVG 1.1//EN" "http://www.w3.org/Graphics/SVG/1.1/DTD/svg11.dtd">
<svg version="1.1" xmlns="http://www.w3.org/2000/svg" xmlns:xlink="http://www.w3.org/1999/xlink" x="0" y="0" width="283.5" height="283.5" viewBox="0, 0, 283.5, 283.5">
  <g id="Background">
    <rect x="0" y="0" width="283.5" height="283.5" fill="#FFFFFF"/>
  </g>
  <g id="Layer_1">
    <path d="M235.6,29.2 C238.7,29.2 241.2,31.7 241.2,34.8 L241.2,174 L282.4,245.3 C283.1,246.3 283.5,247.4 283.4,248.7 C283.4,251.8 280.9,254.3 277.8,254.3 L5.6,254.3 C3.6,254.3 1.8,253.2 0.8,251.5 C-0.2,249.8 -0.2,247.6 0.8,245.9 L42.3,174.1 L42.3,34.8 C42.3,31.7 44.8,29.2 47.9,29.2 L235.6,29.2 z M232.3,181.2 L51.1,181.2 L15.3,243.1 L268.1,243.1 L232.3,181.2 z M169.4,214.9 C172.5,214.9 175,217.4 175,220.5 C175,223.6 172.5,226.1 169.4,226.1 L114,226.1 C110.9,226.1 108.4,223.6 108.4,220.5 C108.4,217.4 110.9,214.9 114,214.9 L169.4,214.9 z M230,40.4 L53.5,40.4 L53.5,170 L230,170 L230,40.4 z M141.7,94.6 C153.5,94.6 163,104.2 163,115.9 L163,129 C163,140.7 153.4,150.3 141.7,150.3 C130,150.3 120.4,140.7 120.4,129 L120.4,115.9 C120.4,104.2 130,94.6 141.7,94.6 z M141.7,105.8 C136.1,105.8 131.6,110.3 131.6,115.9 L131.6,129 C131.6,134.6 136.1,139.1 141.7,139.1 C147.3,139.1 151.8,134.6 151.8,129 L151.8,115.9 C151.8,110.3 147.3,105.8 141.7,105.8 z M93.9,94.7 C99.6,94.7 105,96.9 109,100.9 C111.2,103.1 111.2,106.6 109,108.8 C106.8,111 103.3,111 101.1,108.8 C99.2,106.9 96.7,105.8 94,105.8 C88.4,105.8 83.9,110.3 83.9,116 L83.9,129.1 C83.9,134.7 88.4,139.2 94,139.2 C96.7,139.2 99.2,138.1 101.1,136.2 C103.3,134 106.8,134 109,136.2 C111.2,138.4 111.2,141.9 109,144.1 C104.9,148.1 99.6,150.3 93.9,150.3 C82.2,150.3 72.6,140.7 72.6,129 L72.6,116 C72.6,104.3 82.2,94.7 93.9,94.7 z M192.2,58 C197.2,58 201.9,60 205.4,63.5 C209,67 210.9,71.7 210.9,76.7 C210.9,81.3 209.2,85.7 206,89 L206,89.1 L192.7,102.5 L205.4,102.5 C208.5,102.5 211,105 211.2,107.9 C211.2,111 208.7,113.5 205.6,113.5 L179.4,113.5 C179,113.5 178.7,113.5 178.3,113.4 L177.8,113.3 C177.6,113.2 177.4,113.2 177.2,113.1 L176.7,112.8 C176.5,112.8 176.3,112.7 176.2,112.6 C175.9,112.5 175.7,112.3 175.5,112.1 C175.4,112.1 175.4,112.1 175.3,112 C175,111.7 174.8,111.4 174.6,111.1 L174.1,110.1 C174,110 174,109.8 173.9,109.6 C173.8,109.4 173.7,109.3 173.7,109.1 C173.6,108.7 173.6,108.4 173.6,108 L173.6,107.7 C173.6,107.4 173.6,107.2 173.7,106.9 L173.8,106.4 C173.9,106.3 173.9,106.1 174,105.9 L174.3,105.4 C174.3,105.3 174.4,105.1 174.5,105 C174.6,104.8 174.8,104.6 175,104.4 L175.2,104.2 L197.9,81.3 C199.1,80 199.7,78.5 199.7,76.7 C199.7,74.7 198.9,72.8 197.5,71.4 C196.1,70 194.2,69.2 192.2,69.2 C188.1,69.2 184.7,72.6 184.7,76.7 C184.7,79.8 182.2,82.3 179.1,82.3 C176,82.3 173.5,79.8 173.5,76.7 C173.5,66.4 181.9,58 192.2,58 z" fill="#010202"/>
  </g>
</svg>
