<?xml version="1.0" encoding="UTF-8"?>
<!DOCTYPE svg PUBLIC "-//W3C//DTD SVG 1.1//EN" "http://www.w3.org/Graphics/SVG/1.1/DTD/svg11.dtd">
<svg version="1.1" xmlns="http://www.w3.org/2000/svg" xmlns:xlink="http://www.w3.org/1999/xlink" x="0" y="0" width="283.5" height="283.5" viewBox="0, 0, 283.5, 283.5">
  <g id="Background">
    <rect x="0" y="0" width="283.5" height="283.5" fill="#FFFFFF"/>
  </g>
  <g id="Layer_1">
    <path d="M215.425,234.159 C218.878,233.955 221.275,235.516 222.7,238.6 C223.9,241.8 233,246.6 246.3,246.6 C259.7,246.6 268.7,241.9 269.9,238.6 C271.1,235.1 275,233.3 278.5,234.5 C282,235.7 283.8,239.6 282.6,243.1 C279,253.3 264.4,260.2 246.3,260.2 C228.2,260.2 213.6,253.3 210,243.1 C208.7,239.6 210.6,235.7 214.1,234.5 L215.425,234.159 z M126.825,234.159 L125.5,234.5 C122,235.7 120.1,239.6 121.4,243.1 C125,253.3 139.6,260.2 157.7,260.2 C175.8,260.2 190.4,253.3 194,243.1 C195.3,239.6 193.4,235.7 189.9,234.5 C186.4,233.3 182.5,235.1 181.3,238.6 C180.1,241.9 171.1,246.6 157.7,246.6 C144.3,246.6 135.3,241.8 134.1,238.6 C132.675,235.516 130.278,233.955 126.825,234.159 z M126.825,203.659 L125.5,204 C122,205.2 120.1,209.1 121.4,212.6 C125,222.8 139.6,229.7 157.7,229.7 C175.8,229.7 190.4,222.8 194,212.6 C195.3,209.1 193.4,205.3 189.9,204 C186.4,202.8 182.5,204.6 181.3,208.1 C180.1,211.4 171.1,216.1 157.7,216.1 C144.3,216.1 135.3,211.3 134.1,208.1 C132.675,205.016 130.278,203.455 126.825,203.659 z M215.425,203.659 L214.1,204 C210.6,205.2 208.7,209.1 210,212.6 C213.6,222.8 228.2,229.7 246.3,229.7 C264.4,229.7 279,222.8 282.6,212.6 C283.8,209.1 282,205.3 278.5,204 C275,202.8 271.1,204.6 269.9,208.1 C268.7,211.4 259.7,216.1 246.3,216.1 C233,216.1 223.9,211.3 222.7,208.1 C221.275,205.016 218.878,203.455 215.425,203.659 z M216.4,58.2 L6.8,58.2 C3,58.3 0,61.3 0,65 L0,192.7 C0,196.4 3,199.5 6.8,199.5 L95.6,199.5 C99.3,199.5 102.4,196.5 102.4,192.7 C102.3,189.1 99.3,186 95.6,186 L13.5,186 L13.5,71.8 L209.6,71.8 L209.6,131.7 C209.6,135.4 212.6,138.5 216.4,138.5 C220.1,138.5 223.2,135.5 223.2,131.7 L223.2,65 C223.2,61.3 220.2,58.2 216.4,58.2 z M246.3,168.9 C261.7,168.9 270,174.9 270,177.4 C270,179.9 261.7,185.9 246.3,185.9 C230.9,185.9 222.6,179.9 222.6,177.4 C222.6,174.9 230.9,168.9 246.3,168.9 z M246.3,155.3 C225.1,155.3 209.1,164.7 209.1,177.3 C209.1,189.8 225.1,199.3 246.3,199.3 C267.5,199.3 283.5,189.9 283.5,177.3 C283.5,164.8 267.5,155.3 246.3,155.3 z M126.825,173.259 L125.5,173.6 C122,174.8 120.1,178.7 121.4,182.2 C125,192.4 139.6,199.3 157.7,199.3 C175.8,199.3 190.4,192.4 194,182.2 C195.3,178.7 193.4,174.9 189.9,173.6 C186.4,172.4 182.5,174.2 181.3,177.7 C180.1,181 171.1,185.7 157.7,185.7 C144.3,185.7 135.3,180.9 134.1,177.7 C132.675,174.616 130.278,173.055 126.825,173.259 z M157.7,138.4 C173.1,138.4 181.4,144.4 181.4,146.9 C181.4,149.4 173.1,155.4 157.7,155.4 C142.3,155.4 134,149.4 134,146.9 C134,144.4 142.3,138.4 157.7,138.4 z M157.7,124.9 C136.5,124.9 120.5,134.3 120.5,146.9 C120.5,159.5 136.5,168.9 157.7,168.9 C178.9,168.9 194.9,159.5 194.9,146.9 C194.9,134.3 178.9,124.9 157.7,124.9 z M72.999,94.433 L71.344,94.525 C63.359,95.301 55.872,98.871 50.2,104.5 C45.3,109.4 42,115.5 40.7,122.2 L37.5,122.2 C33.8,122.2 30.7,125.2 30.7,129 C30.7,132.7 33.7,135.8 37.5,135.8 L40.7,135.8 C42,142.5 45.3,148.6 50.2,153.5 C56.9,160.2 65.8,163.6 74.6,163.6 C83.4,163.6 92.3,160.2 99,153.5 C101.6,150.9 101.6,146.6 99,143.9 C96.4,141.3 92.1,141.3 89.4,143.9 C81.2,152.1 67.8,152.1 59.6,143.9 C57.2,141.5 55.6,138.7 54.6,135.8 L75.6,135.8 C79.3,135.8 82.4,132.8 82.4,129 C82.4,125.3 79.4,122.2 75.6,122.2 L54.6,122.2 C55.6,119.2 57.3,116.4 59.6,114.1 C68,105.8 81.4,105.8 89.6,114 C92.2,116.6 96.5,116.6 99.2,114 C101.8,111.4 101.8,107.1 99.2,104.4 C93.284,98.857 86.126,95.366 77.982,94.515 C75.214,94.47 76.875,94.497 72.999,94.433 z M243.4,31.2 L33.8,31.2 C30.1,31.2 27,34.2 27,38 C27,41.8 30.1,44.8 33.8,44.8 L236.6,44.8 L236.6,131.7 C236.6,135.4 239.6,138.5 243.4,138.5 C247.1,138.5 250.2,135.5 250.2,131.7 L250.2,38 C250.2,34.3 247.2,31.2 243.4,31.2 z" fill="#000000"/>
  </g>
</svg>
