<?xml version="1.0" encoding="UTF-8"?>
<!DOCTYPE svg PUBLIC "-//W3C//DTD SVG 1.1//EN" "http://www.w3.org/Graphics/SVG/1.1/DTD/svg11.dtd">
<svg version="1.1" xmlns="http://www.w3.org/2000/svg" xmlns:xlink="http://www.w3.org/1999/xlink" x="0" y="0" width="283.5" height="283.5" viewBox="0, 0, 283.5, 283.5">
  <g id="Background">
    <rect x="0" y="0" width="283.5" height="283.5" fill="#FFFFFF"/>
  </g>
  <g id="Layer_1">
    <path d="M173.4,122.1 C181.7,122.1 190.3,128.2 193.1,136 L206.1,172.2 C219.6,173.6 230.1,185 229.9,198.9 L229.9,228.6 C229.9,243.5 217.8,255.5 203,255.5 L199.9,255.5 L199.9,276.7 C199.9,280.4 196.9,283.4 193.2,283.4 C189.5,283.4 186.5,280.4 186.5,276.7 L186.5,255.5 L60.1,255.5 L60.1,276.7 C60.1,280.4 57.1,283.4 53.4,283.4 C49.7,283.4 46.7,280.4 46.7,276.7 L46.7,255.5 L43.6,255.5 C28.7,255.5 16.7,243.4 16.7,228.6 L16.7,198.9 C16.7,185 27.3,173.6 40.8,172.2 L53.7,136 C56.5,128.1 65,122.1 73.4,122.1 L173.4,122.1 z M203.2,185.5 L43.6,185.5 C36.2,185.5 30.2,191.5 30.2,198.9 L30.2,228.6 C30.2,236 36.2,242 43.6,242 L203.2,242 C210.6,242 216.6,236 216.6,228.6 L216.6,198.9 C216.6,191.5 210.6,185.5 203.2,185.5 z M53.5,203.3 C59.8,203.3 64.9,208.4 64.8,214.6 C64.8,220.8 59.8,225.9 53.5,225.9 C47.2,225.9 42.1,220.8 42.1,214.6 C42.1,208.4 47.2,203.3 53.5,203.3 z M193.4,203.3 C199.7,203.3 204.8,208.4 204.7,214.6 C204.7,220.8 199.6,225.9 193.4,225.9 C187.1,225.9 182,220.8 182,214.6 C182,208.4 187.1,203.3 193.4,203.3 z M173.5,135.6 L73.5,135.6 C70.9,135.6 67.4,138 66.5,140.5 L55.2,172 L191.8,172 L180.5,140.5 C179.6,138 176.1,135.6 173.5,135.6 z M259.9,0 L136.8,0 C133.1,0 130.1,3 130.1,6.7 L130.1,111.3 C130.1,115 133.1,118 136.8,118 C140.5,118 143.5,115 143.5,111.3 L143.5,13.5 L253.1,13.5 L253.1,222.3 L240.3,222.3 C236.6,222.3 233.6,225.3 233.6,229 C233.6,232.7 236.6,235.7 240.3,235.7 L259.9,235.7 C263.6,235.7 266.6,232.7 266.6,229 L266.6,6.7 C266.7,3 263.6,0 259.9,0 z M227.6,123.2 C223.9,123.2 220.9,126.2 220.9,129.9 L220.9,149.7 C220.9,153.4 223.9,156.4 227.6,156.4 C231.3,156.4 234.3,153.4 234.3,149.7 L234.3,129.9 C234.3,126.2 231.3,123.2 227.6,123.2 z M227.5,78.3 C223.8,78.3 220.8,81.3 220.8,85 L220.8,104.7 C220.8,108.4 223.8,111.4 227.5,111.4 C231.2,111.4 234.2,108.4 234.2,104.7 L234.2,85 C234.2,81.3 231.2,78.3 227.5,78.3 z M198.3,78.3 C194.6,78.3 191.6,81.3 191.6,85 L191.6,104.7 C191.6,108.4 194.6,111.4 198.3,111.4 C202,111.4 205,108.4 205,104.7 L205,85 C205,81.3 202,78.3 198.3,78.3 z M169.1,78.3 C165.4,78.3 162.4,81.3 162.4,85 L162.4,104.7 C162.4,108.4 165.4,111.4 169.1,111.4 C172.8,111.4 175.8,108.4 175.8,104.7 L175.8,85 C175.8,81.3 172.8,78.3 169.1,78.3 z M169.2,33.3 C165.5,33.3 162.5,36.3 162.5,40 L162.5,59.7 C162.4,63.5 165.5,66.5 169.2,66.5 C172.9,66.5 175.9,63.5 175.9,59.8 L175.9,40 C175.9,36.3 172.9,33.3 169.2,33.3 z M198.4,33.3 C194.7,33.3 191.7,36.3 191.7,40 L191.7,59.7 C191.6,63.5 194.6,66.5 198.4,66.5 C202.1,66.5 205.1,63.5 205.1,59.8 L205.1,40 C205.1,36.3 202.1,33.3 198.4,33.3 z M227.6,33.3 C223.9,33.3 220.9,36.3 220.9,40 L220.9,59.7 C220.8,63.5 223.8,66.5 227.6,66.5 C231.3,66.5 234.3,63.5 234.3,59.8 L234.3,40 C234.3,36.3 231.3,33.3 227.6,33.3 z" fill="#000000"/>
  </g>
</svg>
