<?xml version="1.0" encoding="UTF-8"?>
<!DOCTYPE svg PUBLIC "-//W3C//DTD SVG 1.1//EN" "http://www.w3.org/Graphics/SVG/1.1/DTD/svg11.dtd">
<svg version="1.1" xmlns="http://www.w3.org/2000/svg" xmlns:xlink="http://www.w3.org/1999/xlink" x="0" y="0" width="283.5" height="283.5" viewBox="0, 0, 283.5, 283.5">
  <g id="Background">
    <rect x="0" y="0" width="283.5" height="283.5" fill="#FFFFFF"/>
  </g>
  <g id="Layer_1">
    <path d="M235.6,172.3 C235.6,172.3 235.6,172.2 235.6,172.2 C235.6,172.2 235.6,172.1 235.6,172.1 C235.3,118.2 176.6,74.5 104.6,74.5 C95.8,74.5 87.1,75.1 78.5,76.4 C69.5,77.7 60.7,79.8 52.3,82.5 C49,83.6 47.1,87.2 48.2,90.5 C49.1,93.2 51.6,94.9 54.3,94.9 C55,94.9 55.6,94.8 56.3,94.6 C58.6,93.9 60.9,93.2 63.3,92.5 L63.3,172.5 C63.3,184.6 72.2,193.8 84.1,193.8 L85.5,193.8 C88.2,202.6 96.5,209.1 106.2,209.1 C115.9,209.1 124.2,202.7 126.9,193.8 L169.5,193.8 C172.2,202.6 180.5,209.1 190.2,209.1 C199.9,209.1 208.2,202.7 210.9,193.8 L214,193.8 C225.7,193.8 235.3,184.4 235.6,172.7 C235.6,172.6 235.6,172.5 235.6,172.4 C235.6,172.4 235.6,172.3 235.6,172.3 z M210.5,134.6 L131.4,134.6 C125.1,134.6 115.5,128.7 111.3,122.2 L88.9,87.9 C94.1,87.4 99.3,87.1 104.5,87.1 C150.9,87.1 191.2,106.5 210.5,134.6 z M106.1,196.3 C101.2,196.3 97.2,192.3 97.2,187.4 C97.2,182.5 101.2,178.5 106.1,178.5 C111,178.5 115,182.5 115,187.4 C115,192.3 111,196.3 106.1,196.3 z M190.1,196.3 C185.2,196.3 181.2,192.3 181.2,187.4 C181.2,182.5 185.2,178.5 190.1,178.5 C195,178.5 199,182.5 199,187.4 C199,192.3 195,196.3 190.1,196.3 z M213.9,181.1 L210.8,181.1 C208.1,172.3 199.8,165.8 190.1,165.8 C180.4,165.8 172.1,172.2 169.4,181.1 L126.8,181.1 C124.1,172.3 115.8,165.8 106.1,165.8 C96.4,165.8 88.1,172.2 85.4,181.1 L84,181.1 C79.1,181.1 75.9,177.7 75.9,172.6 L75.9,91.4 L100.6,129.2 C107.3,139.4 120.8,147.3 131.4,147.3 L217.6,147.3 C221,155.2 222.8,163.5 222.8,172.2 C222.8,177.1 218.8,181.1 213.9,181.1 z" fill="#010202"/>
  </g>
</svg>
