<?xml version="1.0" encoding="UTF-8"?>
<!DOCTYPE svg PUBLIC "-//W3C//DTD SVG 1.1//EN" "http://www.w3.org/Graphics/SVG/1.1/DTD/svg11.dtd">
<svg version="1.1" xmlns="http://www.w3.org/2000/svg" xmlns:xlink="http://www.w3.org/1999/xlink" x="0" y="0" width="283.5" height="283.5" viewBox="0, 0, 283.5, 283.5">
  <g id="Background">
    <rect x="0" y="0" width="283.5" height="283.5" fill="#FFFFFF"/>
  </g>
  <g id="Layer_1">
    <path d="M216.6,92.2 C226,92.2 235.9,99.2 239,108 L254.9,152.4 C270.8,153.5 283.5,166.8 283.4,183.1 L283.4,219.1 C283.4,236 269.6,249.8 252.7,249.8 L247.4,249.8 L247.4,276.8 C247.4,280.5 244.4,283.5 240.7,283.5 C237,283.5 234,280.5 234,276.8 L234,249.8 L79.2,249.8 L79.2,276.8 C79.2,280.5 76.2,283.5 72.5,283.5 C68.8,283.5 65.8,280.5 65.8,276.8 L65.8,249.8 L60.5,249.8 C43.6,249.8 29.8,236 29.8,219.1 L29.8,202.1 C29.8,198.4 32.8,195.4 36.5,195.4 C39.5,195.4 42.1,197.4 42.9,200.1 C43.1,200.8 43.2,201.4 43.2,202.1 L43.2,219.1 C43.2,228.6 50.9,236.4 60.5,236.4 L252.5,236.4 C262.1,236.4 269.9,228.7 269.9,219.1 L269.9,183.1 C269.9,173.5 262.1,165.7 252.5,165.7 L175.3,165.7 C172.3,165.7 169.7,163.7 168.9,161 C168.7,160.3 168.6,159.7 168.6,159 C168.6,155.3 171.6,152.3 175.3,152.3 L240.5,152.3 L238.8,147.4 L226.3,112.5 C225,108.9 220.3,105.6 216.5,105.6 L175.4,105.6 C171.7,105.6 168.7,102.6 168.7,98.9 C168.7,95.2 171.7,92.2 175.4,92.2 L216.6,92.2 z M240.7,196.8 C243.6,196.8 246,199.2 246,202.1 C246,205 243.6,207.4 240.7,207.4 C237.8,207.4 235.4,205 235.4,202.1 C235.4,199.1 237.8,196.8 240.7,196.8 z M240.7,183.4 C230.4,183.4 222,191.8 222,202.1 C222,212.4 230.4,220.8 240.7,220.8 C251,220.8 259.4,212.4 259.4,202.1 C259.4,191.8 251,183.4 240.7,183.4 z M139.2,80.7 C135.5,80.7 132.5,83.7 132.5,87.4 C132.5,90.1 132,92.8 131.3,95.4 C128.2,105.4 119.5,114.2 107.4,119.4 C103.8,120.9 100,122.2 95.9,123.1 C94.6,123.4 93.4,124.1 92.5,125 C90.3,121.3 86.4,118.8 81.8,118.8 C77.3,118.8 73.3,121.2 71.2,124.9 C70.3,124.1 69.2,123.5 68,123.2 C63.9,122.4 60.1,121.1 56.5,119.6 C44.2,114.4 35.4,105.6 32.3,95.4 C31.5,92.8 31.1,90.2 31.1,87.5 C31.1,83.8 28.1,80.8 24.4,80.8 C20.7,80.8 17.7,83.8 17.7,87.5 C17.5,110.1 37.1,130.2 65.1,136 C65.6,136.1 66,136.1 66.5,136.1 C67.8,136.1 69,135.7 70,135.1 C71.7,140 76.3,143.5 81.7,143.5 C87.2,143.5 91.8,139.9 93.5,135 C94.6,135.7 95.9,136.2 97.2,136.2 C97.7,136.2 98.1,136.2 98.6,136.1 C126.4,130.2 145.9,110.2 145.9,87.4 C145.9,83.7 142.9,80.7 139.2,80.7 z M147,75.8 C148.6,75.8 149.9,77.1 149.9,78.7 L149.9,174.3 C149.9,175.9 148.6,177.2 147,177.2 L16.3,177.2 C14.7,177.2 13.4,175.9 13.4,174.3 L13.4,78.7 C13.4,77.1 14.7,75.8 16.3,75.8 L147,75.8 z M147,62.4 L16.3,62.4 C7.3,62.4 -0,69.7 -0,78.7 L-0,174.3 C-0,183.3 7.3,190.6 16.3,190.6 L147,190.6 C156,190.6 163.3,183.3 163.3,174.3 L163.3,78.7 C163.3,69.7 156,62.4 147,62.4 z M100.4,31.3 L62.8,31.3 C53.8,31.3 46.5,38.6 46.5,47.6 L46.5,55.1 C46.5,58.9 49.5,61.9 53.2,61.9 C56.9,61.9 59.9,58.9 59.9,55.2 L59.9,47.7 C59.9,46.1 61.2,44.8 62.8,44.8 L100.4,44.8 C102,44.8 103.3,46.1 103.3,47.7 L103.3,55.4 C103.3,59.1 106.3,62.1 110,62.1 C113.7,62.1 116.7,59.1 116.7,55.4 L116.7,47.6 C116.7,38.6 109.4,31.3 100.4,31.3 z" fill="#000000"/>
  </g>
</svg>
