<?xml version="1.0" encoding="UTF-8"?>
<!DOCTYPE svg PUBLIC "-//W3C//DTD SVG 1.1//EN" "http://www.w3.org/Graphics/SVG/1.1/DTD/svg11.dtd">
<svg version="1.1" xmlns="http://www.w3.org/2000/svg" xmlns:xlink="http://www.w3.org/1999/xlink" x="0" y="0" width="283.5" height="283.5" viewBox="0, 0, 283.5, 283.5">
  <g id="Background">
    <rect x="0" y="0" width="283.5" height="283.5" fill="#FFFFFF"/>
  </g>
  <g id="Layer_1">
    <path d="M144.9,247.8 C148.7,247.8 151.7,250.9 151.7,254.6 L151.7,276.7 C151.7,280.5 148.7,283.5 144.9,283.5 C141.1,283.5 138.1,280.4 138.1,276.7 L138.1,254.6 C138.1,250.8 141.2,247.8 144.9,247.8 z M198.573,225.968 C196.48,226.036 195.061,226.244 193.5,227.8 C190.9,230.4 190.9,234.7 193.5,237.3 L209,253 C210.3,254.3 212,255 213.8,255 C215.6,255 217.3,254.3 218.6,253 C221.2,250.4 221.2,246.1 218.6,243.5 L203,227.8 C201.279,226.399 202.37,227.115 199.537,225.972 L198.573,225.968 z M92.006,225.898 C89.783,225.981 88.57,226.169 86.9,227.8 L71.3,243.4 C68.7,246 68.7,250.3 71.3,252.9 C72.6,254.2 74.3,254.9 76.1,254.9 C77.8,254.9 79.6,254.2 80.9,252.9 L96.5,237.3 C99.1,234.7 99.1,230.4 96.5,227.8 C94.744,226.355 95.852,227.092 92.988,225.901 L92.006,225.898 z M170.049,70.704 L168.7,70.9 C165.1,71.8 162.9,75.5 163.8,79.1 C168.1,95.9 175.4,112.5 182.4,128.6 C190.9,147.9 198.9,166.1 198.9,179.2 C198.9,209 174.7,233.2 144.9,233.2 C115.1,233.2 90.9,209 90.9,179.2 C90.9,166 98.9,147.8 107.4,128.6 C114.5,112.5 121.8,95.9 126,79.1 C126.9,75.5 124.7,71.8 121.1,70.9 C117.5,70 113.8,72.2 112.9,75.8 C108.9,91.5 101.8,107.6 95,123.2 C86,143.8 77.4,163.3 77.4,179.3 C77.5,216.5 107.7,246.8 144.9,246.8 C182.1,246.8 212.4,216.5 212.4,179.3 C212.4,163.3 203.9,143.8 194.8,123.2 C188,107.6 180.9,91.5 176.9,75.8 C175.746,72.609 173.498,70.844 170.049,70.704 z M161.6,151.7 C161.8,151.7 162.2,152 162.3,152.2 L165.2,160.5 L124.3,160.5 L127.2,152.3 C127.3,152 127.7,151.7 127.9,151.7 L161.6,151.7 z M121.2,171.9 C118.6,171.9 116.5,174 116.5,176.6 C116.5,179.2 118.6,181.3 121.2,181.3 C123.8,181.3 125.9,179.2 125.9,176.6 C125.9,174 123.8,171.9 121.2,171.9 z M168.3,171.9 C165.7,171.9 163.6,174 163.6,176.6 C163.6,179.2 165.7,181.3 168.3,181.3 C170.9,181.3 173,179.2 173,176.6 C173,174 170.9,171.9 168.3,171.9 z M172.2,168.6 C173.4,168.6 174.3,169.6 174.3,170.7 L174.3,181.9 C174.3,183.1 173.3,184 172.2,184 L117.2,184 C116.1,184 115.1,183 115.1,181.9 L115.1,170.7 C115.1,169.5 116.1,168.6 117.2,168.6 L172.2,168.6 z M161.6,143.5 L127.9,143.5 C124.4,143.5 120.8,146 119.6,149.4 L115.6,160.5 C110.7,161.3 107,165.5 107,170.6 L107,181.8 C107,187.4 111.5,192 117.1,192 L117.1,197.4 C117.1,199.6 118.9,201.5 121.2,201.5 C123.5,201.5 125.3,199.7 125.3,197.4 L125.3,192 L164.4,192 L164.4,197.4 C164.3,199.7 166.1,201.5 168.3,201.5 C170.5,201.5 172.4,199.7 172.4,197.4 L172.4,192 C178,191.9 182.5,187.4 182.5,181.8 L182.5,170.6 C182.5,165.5 178.8,161.3 173.9,160.5 L169.9,149.4 C168.7,146.1 165.1,143.5 161.6,143.5 z M242.3,172.6 L220.2,172.6 C216.5,172.6 213.4,175.6 213.4,179.4 C213.4,183.1 216.4,186.2 220.2,186.2 L242.3,186.2 C246,186.2 249.1,183.2 249.1,179.4 C249.1,175.6 246.1,172.6 242.3,172.6 z M69.6,172.5 L47.5,172.5 C43.8,172.5 40.7,175.5 40.7,179.3 C40.7,183 43.7,186.1 47.5,186.1 L69.6,186.1 C73.4,186.1 76.4,183 76.4,179.3 C76.4,175.6 73.4,172.5 69.6,172.5 z M168.2,53.8 L121.2,53.8 C117.5,53.8 114.4,56.8 114.4,60.6 C114.5,64.3 117.5,67.4 121.2,67.4 L168.2,67.4 C171.9,67.4 175,64.4 175,60.6 C175,56.9 172,53.8 168.2,53.8 z M168.2,36.9 L121.2,36.9 C117.5,36.9 114.4,39.9 114.4,43.7 C114.5,47.4 117.5,50.5 121.2,50.5 L168.2,50.5 C171.9,50.5 175,47.5 175,43.7 C175,40 172,36.9 168.2,36.9 z M144.8,-0.1 C141,-0.1 138,3 138,6.7 L138,28 C138,31.7 141,34.7 144.8,34.7 C148.5,34.7 151.6,31.7 151.6,27.9 L151.6,6.7 C151.6,3 148.6,-0.1 144.8,-0.1 z" fill="#000000"/>
  </g>
</svg>
