<?xml version="1.0" encoding="UTF-8"?>
<!DOCTYPE svg PUBLIC "-//W3C//DTD SVG 1.1//EN" "http://www.w3.org/Graphics/SVG/1.1/DTD/svg11.dtd">
<svg version="1.1" xmlns="http://www.w3.org/2000/svg" xmlns:xlink="http://www.w3.org/1999/xlink" x="0" y="0" width="283.5" height="283.5" viewBox="0, 0, 283.5, 283.5">
  <g id="Background">
    <rect x="0" y="0" width="283.5" height="283.5" fill="#FFFFFF"/>
  </g>
  <g id="Layer_1">
    <path d="M145.1,92.9 C153.8,92.9 163,99.4 166,107.7 L180.4,147.9 C195.1,150.7 206.3,163.6 206.4,179.2 L206.4,205.4 C206.4,222.9 192.1,237.2 174.6,237.2 L173.7,237.2 L173.7,260.9 C173.7,264.7 170.7,267.7 166.9,267.7 C163.1,267.7 160.1,264.7 160.1,260.9 L160.1,237.2 L46.3,237.2 L46.3,260.9 C46.3,264.7 43.3,267.7 39.5,267.7 C35.7,267.7 32.7,264.7 32.7,260.9 L32.7,237.2 L31.8,237.2 C14.3,237.2 -0,222.9 -0,205.4 L-0,179.2 C-0,163.6 11.2,150.7 25.9,147.9 L40.3,107.7 C43.2,99.4 52.4,92.9 61.2,92.9 L145.1,92.9 z M174.6,161 L31.8,161 C21.8,161 13.6,169.2 13.6,179.2 L13.6,205.4 C13.6,215.4 21.8,223.6 31.8,223.6 L174.5,223.6 C184.5,223.6 192.7,215.4 192.7,205.4 L192.8,205.4 L192.8,179.2 C192.8,169.2 184.6,161 174.6,161 z M39.4,175.5 C49.2,175.5 57.1,183.4 57.1,193.2 C57.1,203 49.1,210.9 39.4,210.9 C29.6,210.9 21.7,203 21.7,193.2 C21.7,183.4 29.7,175.5 39.4,175.5 z M39.4,189.1 C37.1,189.1 35.3,190.9 35.3,193.2 C35.3,195.5 37.1,197.3 39.4,197.3 C41.7,197.3 43.5,195.5 43.5,193.2 C43.5,190.9 41.7,189.1 39.4,189.1 z M166.9,175.5 C176.6,175.5 184.6,183.4 184.6,193.2 C184.6,203 176.6,210.9 166.9,210.9 C157.1,210.9 149.2,203 149.2,193.2 C149.2,183.4 157.2,175.5 166.9,175.5 z M166.9,189.1 C164.6,189.1 162.8,190.9 162.8,193.2 C162.8,195.5 164.6,197.3 166.9,197.3 C169.1,197.3 171,195.5 171,193.2 C171,190.9 169.2,189.1 166.9,189.1 z M90.9,182.9 C94.7,182.9 97.7,186 97.7,189.7 L97.7,196.9 C97.7,200.7 94.7,203.7 90.9,203.7 C87.1,203.7 84.1,200.7 84.1,196.9 L84.1,189.7 C84.1,185.9 87.1,182.9 90.9,182.9 z M145.2,106.6 L61.3,106.6 C58.1,106.6 54.2,109.3 53.1,112.3 L40.5,147.4 L165.9,147.4 L153.4,112.3 C152.3,109.4 148.3,106.6 145.2,106.6 z M166.4,73.6 L82.5,73.6 C78.7,73.6 75.7,76.6 75.7,80.4 C75.7,84.2 78.7,87.2 82.5,87.2 L166.4,87.2 C169.5,87.2 173.5,90 174.6,93 L190.7,137.2 L190.7,137.3 C190.8,137.6 190.9,137.9 191.1,138.2 C191.1,138.2 191.1,138.3 191.2,138.3 C191.3,138.5 191.5,138.8 191.7,139 C191.7,139.1 191.8,139.1 191.8,139.2 L192.6,140 L193.2,140.5 C193.2,140.5 193.3,140.5 193.3,140.6 C193.5,140.8 193.8,140.9 194.1,141.1 L194.3,141.2 C194.8,141.5 195.4,141.6 196,141.7 L196.2,141.7 C196.5,141.7 196.8,141.8 197,141.8 L197.1,141.8 C205.4,141.8 212.1,148.5 212.1,156.8 L212.1,189.5 C212.1,193.3 215.1,196.3 218.9,196.3 C222.7,196.3 225.7,193.3 225.7,189.5 L225.7,156.8 C225.6,142.6 215.4,130.9 201.9,128.5 L187.3,88.4 C184.3,80.1 175.1,73.6 166.4,73.6 z M185.7,54.3 L101.8,54.3 C98,54.3 95,57.3 95,61.1 C95,64.9 98,67.9 101.8,67.9 L185.7,67.9 C188.8,67.9 192.8,70.7 193.9,73.7 L210,117.9 L210,118 C210.1,118.3 210.2,118.6 210.4,118.9 L210.5,119 C210.6,119.2 210.8,119.4 210.9,119.7 C210.9,119.8 211,119.8 211,119.9 L211.8,120.7 C212,120.9 212.2,121 212.4,121.2 L212.5,121.3 C212.7,121.5 213,121.6 213.3,121.8 L213.5,121.9 C214,122.2 214.6,122.3 215.2,122.4 L215.4,122.4 C215.7,122.4 216,122.5 216.2,122.5 L216.3,122.5 C224.6,122.5 231.3,129.2 231.3,137.5 L231.3,170 C231.3,173.8 234.3,176.8 238.1,176.8 C241.9,176.8 244.9,173.8 244.9,170 L244.9,137.3 C244.9,123.3 234.7,111.6 221.2,109.2 L206.6,69.1 C203.6,60.8 194.4,54.3 185.7,54.3 z M257.78,144.138 C255.699,144.201 254.173,144.362 252.6,145.9 C251.4,147.2 250.6,148.9 250.6,150.7 C250.6,152.5 251.3,154.2 252.6,155.5 C253.9,156.7 255.6,157.5 257.4,157.5 C259.2,157.5 260.9,156.8 262.2,155.5 C263.4,154.2 264.2,152.5 264.2,150.7 C264.2,148.9 263.5,147.2 262.2,145.9 C260.489,144.534 261.582,145.236 258.723,144.142 L257.78,144.138 z M277.069,124.868 C274.962,124.936 273.464,125.112 271.9,126.7 C270.7,127.9 269.9,129.7 269.9,131.5 C269.9,133.3 270.6,135 271.9,136.3 C273.2,137.6 274.9,138.3 276.7,138.3 C278.5,138.3 280.3,137.6 281.5,136.3 C282.8,135.1 283.5,133.3 283.5,131.5 C283.5,129.7 282.8,127.9 281.5,126.7 C279.796,125.286 280.886,126.011 278.023,124.872 L277.069,124.868 z M257.4,121.7 C253.644,121.7 250.6,124.744 250.6,128.5 C250.6,132.256 253.644,135.3 257.4,135.3 C261.156,135.3 264.2,132.256 264.2,128.5 C264.2,124.744 261.156,121.7 257.4,121.7 z M276.7,102.4 C272.944,102.4 269.9,105.444 269.9,109.2 C269.9,112.956 272.944,116 276.7,116 C280.456,116 283.5,112.956 283.5,109.2 C283.5,105.444 280.456,102.4 276.7,102.4 z M254.521,100.073 C251.482,100.562 252.719,100.102 250.7,101.1 C247.5,103 246.5,107.2 248.4,110.4 C249.7,112.5 251.9,113.7 254.2,113.7 C255.4,113.6 256.7,113.3 257.7,112.6 C260.9,110.6 261.9,106.5 260,103.3 C258.567,101.437 256.962,100.269 254.521,100.073 z M236.004,89.739 C233.923,89.81 232.385,89.981 230.8,91.5 C229.5,92.8 228.8,94.5 228.8,96.3 C228.8,98.1 229.5,99.8 230.8,101.1 C232,102.3 233.8,103.1 235.6,103.1 C237.4,103.1 239.2,102.4 240.4,101.1 C241.7,99.8 242.4,98.1 242.4,96.3 C242.4,94.5 241.7,92.8 240.4,91.5 C238.7,90.137 239.784,90.837 236.949,89.742 L236.004,89.739 z M273.921,80.749 C270.886,81.187 272.125,80.753 270.1,81.7 C266.9,83.7 265.9,87.8 267.8,91 C269.1,93.1 271.3,94.3 273.6,94.3 C274.7,94.3 275.9,94 277.1,93.3 C280.3,91.3 281.3,87.2 279.4,84 C277.968,82.137 276.357,80.964 273.921,80.749 z M255.28,70.438 C253.199,70.501 251.673,70.662 250.1,72.2 C248.8,73.5 248.1,75.2 248.1,77 C248.1,78.8 248.8,80.5 250.1,81.8 C251.3,83 253.1,83.8 254.9,83.8 C256.7,83.8 258.4,83.1 259.7,81.8 C260.9,80.5 261.7,78.8 261.7,77 C261.7,75.2 261,73.5 259.7,72.2 C257.989,70.834 259.082,71.536 256.223,70.442 L255.28,70.438 z M227.325,69.488 L226,69.8 C222.5,71.1 220.6,75 221.9,78.5 C222.9,81.2 225.5,83 228.3,83 C229.1,83 229.8,82.9 230.6,82.6 C234.1,81.3 235.9,77.4 234.6,73.9 C233.173,70.824 230.758,69.311 227.325,69.488 z M247.774,50.247 L246.525,50.255 L245.2,50.6 C241.7,51.8 239.9,55.7 241.2,59.2 C242.2,62 244.8,63.7 247.6,63.7 C248.4,63.7 249.2,63.6 249.9,63.3 C253.4,62 255.2,58.1 253.9,54.6 C252.505,52.126 250.715,50.514 247.774,50.247 z M220.025,49.359 L218.7,49.7 C215.2,51 213.4,54.9 214.7,58.4 C215.6,61.2 218.2,62.9 221,62.9 C221.8,62.9 222.5,62.8 223.3,62.5 C226.8,61.2 228.7,57.3 227.4,53.8 C225.903,50.739 223.5,49.151 220.025,49.359 z M206.16,35.254 C205.322,35.483 204.425,35.557 203.645,35.94 C201.573,36.958 200.295,38.882 199.9,41.1 C199.4,44.8 202,48.2 205.7,48.7 C206,48.8 206.3,48.8 206.6,48.8 C209.9,48.8 212.8,46.3 213.3,42.9 C213.8,39.2 211.2,35.8 207.5,35.3 L206.16,35.254 z M185.3,35.1 C181.544,35.1 178.5,38.144 178.5,41.9 C178.5,45.656 181.544,48.7 185.3,48.7 C189.056,48.7 192.1,45.656 192.1,41.9 C192.1,38.144 189.056,35.1 185.3,35.1 z M163.9,35.1 C160.144,35.1 157.1,38.144 157.1,41.9 C157.1,45.656 160.144,48.7 163.9,48.7 C167.656,48.7 170.7,45.656 170.7,41.9 C170.7,38.144 167.656,35.1 163.9,35.1 z M121.48,35.338 C119.399,35.401 117.873,35.562 116.3,37.1 C115,38.4 114.3,40.1 114.3,41.9 C114.3,43.7 115,45.4 116.3,46.7 C117.6,47.9 119.3,48.7 121.1,48.7 C122.9,48.7 124.6,48 125.9,46.7 C127.2,45.4 127.9,43.7 127.9,41.9 C127.9,40.1 127.2,38.4 125.9,37.1 C124.189,35.734 125.282,36.436 122.423,35.342 L121.48,35.338 z M142.5,35.1 C138.7,35.1 135.7,38.1 135.7,41.9 C135.7,45.6 138.7,48.7 142.5,48.7 C146.2,48.7 149.3,45.7 149.3,41.9 C149.3,38.1 146.3,35.1 142.5,35.1 z M239.325,30.059 L238,30.4 C234.5,31.7 232.7,35.6 234,39.1 C234.9,41.9 237.5,43.6 240.3,43.6 C241.1,43.6 241.8,43.5 242.6,43.2 C246.1,41.9 248,38 246.7,34.5 C245.204,31.439 242.8,29.851 239.325,30.059 z M225.432,15.854 C224.588,16.083 223.685,16.154 222.901,16.54 C220.833,17.556 219.589,19.493 219.2,21.7 C218.7,25.5 221.3,28.9 225,29.4 L225.9,29.5 C229.2,29.5 232.1,27 232.6,23.6 C233.1,19.9 230.5,16.5 226.8,15.9 L225.432,15.854 z M161.8,15.8 C158.044,15.8 155,18.844 155,22.6 C155,26.356 158.044,29.4 161.8,29.4 C165.556,29.4 168.6,26.356 168.6,22.6 C168.6,18.844 165.556,15.8 161.8,15.8 z M183.2,15.8 C179.444,15.8 176.4,18.844 176.4,22.6 C176.4,26.356 179.444,29.4 183.2,29.4 C186.956,29.4 190,26.356 190,22.6 C190,18.844 186.956,15.8 183.2,15.8 z M204.6,15.8 C200.844,15.8 197.8,18.844 197.8,22.6 C197.8,26.356 200.844,29.4 204.6,29.4 C208.356,29.4 211.4,26.356 211.4,22.6 C211.4,18.844 208.356,15.8 204.6,15.8 z M140.74,16.038 C138.669,16.102 137.161,16.266 135.6,17.8 C134.3,19.1 133.6,20.8 133.6,22.6 C133.6,24.4 134.3,26.1 135.6,27.4 C136.9,28.7 138.6,29.4 140.4,29.4 C142.2,29.4 143.9,28.7 145.2,27.4 C146.4,26.1 147.2,24.4 147.2,22.6 C147.2,20.8 146.5,19.1 145.2,17.8 C143.449,16.441 144.56,17.138 141.679,16.042 L140.74,16.038 z" fill="#000000"/>
  </g>
</svg>
