<?xml version="1.0" encoding="UTF-8"?>
<!DOCTYPE svg PUBLIC "-//W3C//DTD SVG 1.1//EN" "http://www.w3.org/Graphics/SVG/1.1/DTD/svg11.dtd">
<svg version="1.1" xmlns="http://www.w3.org/2000/svg" xmlns:xlink="http://www.w3.org/1999/xlink" x="0" y="0" width="283.5" height="283.5" viewBox="0, 0, 283.5, 283.5">
  <g id="Background">
    <rect x="0" y="0" width="283.5" height="283.5" fill="#FFFFFF"/>
  </g>
  <g id="Layer_1">
    <path d="M87.7,135 C91.5,135 94.5,138 94.3,141.8 C94.3,145.5 91.3,148.5 87.6,148.5 L67.4,148.5 L67.4,276.6 C67.4,280.3 64.4,283.3 60.7,283.3 C57,283.3 54,280.3 54,276.6 L54,148.4 L33.7,148.4 C30,148.4 27,145.4 27,141.7 C27,138 30,135 33.7,135 L87.7,135 z M168.8,81 L114.8,81 C111.1,81 108.1,84 108.1,87.7 C108.1,91.4 111.1,94.4 114.8,94.4 L135.1,94.4 L135.1,276.6 C135.1,280.3 138.1,283.3 141.8,283.3 C145.5,283.3 148.5,280.3 148.5,276.6 L148.5,94.5 L168.7,94.5 C172.4,94.5 175.4,91.5 175.4,87.8 C175.5,84 172.5,81 168.8,81 z M249.7,189 L195.7,189 C192,189 189,192 189,195.7 C189,199.4 192,202.4 195.7,202.4 L216,202.4 L216,276.6 C216,280.3 219,283.3 222.7,283.3 C226.4,283.3 229.4,280.3 229.4,276.6 L229.4,202.4 L249.6,202.4 C253.3,202.4 256.3,199.4 256.3,195.7 C256.5,192 253.4,189 249.7,189 z M222.7,0 C219,0 216,3 216,6.7 L216,168.7 C216,172.5 219,175.5 222.7,175.5 C226.4,175.5 229.4,172.5 229.4,168.8 L229.4,6.7 C229.4,3 226.4,0 222.7,0 z M60.8,0 C57,0 54,3 54,6.7 L54,114.7 C54,118.5 57,121.5 60.8,121.5 C64.5,121.5 67.5,118.5 67.5,114.8 L67.5,6.7 C67.5,3 64.5,0 60.8,0 z M141.8,0.1 C138.1,0.1 135.1,3.1 135.1,6.8 L135.1,60.8 C135.1,64.5 138.1,67.5 141.8,67.5 C145.5,67.5 148.5,64.5 148.5,60.8 L148.5,6.8 C148.5,3.1 145.5,0.1 141.8,0.1 z" fill="#010202"/>
  </g>
</svg>
