<?xml version="1.0" encoding="UTF-8"?>
<!DOCTYPE svg PUBLIC "-//W3C//DTD SVG 1.1//EN" "http://www.w3.org/Graphics/SVG/1.1/DTD/svg11.dtd">
<svg version="1.1" xmlns="http://www.w3.org/2000/svg" xmlns:xlink="http://www.w3.org/1999/xlink" x="0" y="0" width="283.5" height="283.5" viewBox="0, 0, 283.5, 283.5">
  <g id="Background">
    <rect x="0" y="0" width="283.5" height="283.5" fill="#FFFFFF"/>
  </g>
  <g id="Layer_1">
    <path d="M199.9,279.2 C199.3,279.2 198.6,279.1 198,278.9 C194.3,277.9 192.2,274 193.3,270.4 C195.6,262.2 196.8,253.8 196.8,245.3 C196.8,205.1 170.7,170.1 132.7,158.5 L113.6,197.6 L137.9,247.3 C138.2,247.8 138.4,248.3 138.5,248.9 C138.7,249.9 138.7,250.9 138.5,251.9 C138.3,252.9 137.9,253.8 137.3,254.6 C137,255 136.6,255.4 136.1,255.8 L110.4,277.6 C107.8,279.8 104.1,279.8 101.5,277.6 L75.8,255.8 C75.4,255.4 75,255 74.6,254.6 C74,253.8 73.6,252.8 73.4,251.9 C73.2,250.9 73.2,249.9 73.4,248.9 C73.5,248.4 73.7,247.8 74,247.3 L98.3,197.6 L79.2,158.5 C41.2,170.1 15.1,205.1 15.1,245.3 C15.1,253.8 16.3,262.2 18.6,270.4 C19.6,274 17.5,277.9 13.9,278.9 C10.2,279.9 6.4,277.8 5.4,274.2 C2.7,264.8 1.3,255.1 1.3,245.3 C1.3,196.9 34.1,155.2 81,143.7 C81.6,143.5 82.3,143.4 82.8,143.5 C83.8,143.5 84.8,143.7 85.7,144.1 C86.6,144.5 87.5,145.2 88.1,146 C88.5,146.4 88.8,146.9 89,147.5 L105.8,182 L122.6,147.5 C122.9,147 123.2,146.5 123.5,146 C124.1,145.2 125,144.6 125.8,144.2 C125.8,144.2 125.8,144.2 125.8,144.2 C125.8,144.2 125.8,144.2 125.8,144.2 C126.7,143.8 127.7,143.5 128.7,143.5 C128.7,143.5 128.7,143.5 128.7,143.5 C129.3,143.5 129.9,143.6 130.4,143.7 C177.4,155.2 210.1,196.9 210.1,245.3 C210.1,255.1 208.7,264.8 206,274.2 C205.6,277.2 202.9,279.2 199.9,279.2 z M88.7,248.7 L106,263.3 L123.3,248.7 L106,213.2 L88.7,248.7 z M184.7,147.8 C183.7,147.8 182.8,147.6 181.9,147.2 C181.2,146.9 180.5,146.4 179.9,145.8 C179.5,145.4 179.2,145 178.9,144.5 L161.5,116.9 C159.5,113.7 160.4,109.4 163.7,107.4 C166.9,105.4 171.2,106.3 173.2,109.6 L184.9,128.1 L196.5,109.7 C196.6,109.5 196.8,109.3 196.9,109.1 C197.5,108.3 198.2,107.7 199,107.2 C199.8,106.7 200.8,106.4 201.8,106.4 C202,106.4 202.3,106.4 202.5,106.4 L224.4,106.4 C248.7,106.4 268.5,86.6 268.5,62.3 C268.5,38 248.7,18.2 224.4,18.2 L169.4,18.2 C165.6,18.2 162.5,15.1 162.5,11.3 C162.5,7.5 165.6,4.4 169.4,4.4 L224.4,4.4 C256.3,4.4 282.3,30.3 282.3,62.2 C282.3,94.1 256.3,120.1 224.4,120.1 L206,120.1 L190.6,144.5 C190.3,145 190,145.4 189.6,145.8 C189,146.4 188.3,146.8 187.6,147.2 C186.7,147.6 185.7,147.8 184.7,147.8 C184.7,147.8 184.7,147.8 184.7,147.8 z M106,120 C74.1,120 48.2,94 48.2,62.1 C48.2,30.2 74.2,4.3 106,4.3 C137.8,4.3 163.8,30.2 163.8,62.1 C163.8,94 137.9,120 106,120 z M106,18 C81.7,18 61.9,37.8 61.9,62.1 C61.9,86.4 81.7,106.2 106,106.2 C130.3,106.2 150.1,86.4 150.1,62.1 C150.1,37.8 130.3,18 106,18 z M210.5,84 L188.5,84 C184.7,84 181.6,80.9 181.6,77.1 C181.6,73.3 184.7,70.2 188.5,70.2 L210.5,70.2 C214.3,70.2 217.4,73.3 217.4,77.1 C217.4,80.9 214.2,84 210.5,84 z M237.9,56.5 L188.4,56.5 C184.6,56.5 181.5,53.4 181.5,49.6 C181.5,45.8 184.6,42.7 188.4,42.7 L237.9,42.7 C241.7,42.7 244.8,45.8 244.8,49.6 C244.8,53.4 241.7,56.5 237.9,56.5 z" fill="#010202"/>
  </g>
</svg>
