<?xml version="1.0" encoding="UTF-8"?>
<!DOCTYPE svg PUBLIC "-//W3C//DTD SVG 1.1//EN" "http://www.w3.org/Graphics/SVG/1.1/DTD/svg11.dtd">
<svg version="1.1" xmlns="http://www.w3.org/2000/svg" xmlns:xlink="http://www.w3.org/1999/xlink" x="0" y="0" width="283.5" height="283.5" viewBox="0, 0, 283.5, 283.5">
  <g id="Background">
    <rect x="0" y="0" width="283.5" height="283.5" fill="#FFFFFF"/>
  </g>
  <g id="Layer_1">
    <path d="M99.6,180.6 C143,180.6 182.8,207.8 198.5,248.2 C199.8,251.7 198.1,255.6 194.6,257 C193.7,257.4 192.9,257.5 192.1,257.5 C189.4,257.5 186.8,255.9 185.8,253.2 C172.1,217.9 137.4,194.2 99.6,194.2 C61.1,194.2 27.3,217.3 13.4,253.2 C12,256.7 8.1,258.5 4.6,257.1 C1.1,255.7 -0.7,251.8 0.7,248.3 C16.7,207.2 55.5,180.6 99.6,180.6 z M224.7,47.8 L168.9,47.8 C165.1,47.8 162.1,50.8 162.1,54.6 C162.1,58.4 165.1,61.4 168.9,61.4 L224.7,61.4 C249.5,61.4 269.6,81.6 269.6,106.3 C269.6,131.1 249.5,151.2 224.7,151.2 L202.3,151.2 C202,151.2 201.8,151.2 201.5,151.3 C201.3,151.3 201.1,151.3 201,151.4 C200.8,151.4 200.6,151.5 200.4,151.6 C200.2,151.7 200,151.7 199.8,151.8 L198.6,152.4 L197.6,153.2 C197.5,153.3 197.4,153.5 197.2,153.6 L196.7,154.2 C196.7,154.2 196.7,154.3 196.6,154.3 L184.6,173.3 L172.6,154.3 C170.6,151.1 166.4,150.2 163.2,152.2 C160,154.2 159.1,158.4 161.1,161.6 L178.8,189.8 L178.9,189.9 C179.2,190.3 179.5,190.8 179.9,191.1 C180,191.2 180.1,191.2 180.1,191.3 L180.9,191.9 C181,191.9 181,191.9 181.1,192 C181.5,192.2 181.9,192.4 182.2,192.5 C182.4,192.6 182.6,192.7 182.7,192.7 C183.2,192.8 183.8,192.9 184.3,192.9 L184.5,192.9 C185.1,192.9 185.6,192.8 186.1,192.7 C186.3,192.7 186.5,192.6 186.6,192.5 C187,192.4 187.4,192.2 187.7,192 C187.8,192 187.8,192 187.9,191.9 C188.2,191.7 188.4,191.5 188.7,191.3 L189,191.1 C189.4,190.7 189.7,190.3 190,189.9 C190,189.9 190.1,189.8 190.1,189.8 L205.8,164.8 L224.3,164.8 C256.6,164.8 282.8,138.6 282.8,106.3 C283.2,74.1 256.9,47.8 224.7,47.8 z M99.5,61.4 C124.3,61.4 144.4,81.6 144.4,106.3 C144.4,131.1 124.2,151.2 99.5,151.2 C74.8,151.2 54.6,131.1 54.6,106.3 C54.6,81.6 74.7,61.4 99.5,61.4 z M99.5,47.8 C67.2,47.8 41,74.1 41,106.3 C41,138.6 67.2,164.8 99.5,164.8 C131.8,164.8 158,138.6 158,106.3 C158,74 131.7,47.8 99.5,47.8 z M206.7,114.7 L188.4,114.7 C184.6,114.7 181.6,117.7 181.6,121.5 C181.6,125.3 184.7,128.3 188.4,128.3 L206.7,128.3 C210.5,128.3 213.5,125.3 213.5,121.5 C213.5,117.7 210.5,114.7 206.7,114.7 z M230.6,86.8 L188.4,86.8 C184.6,86.8 181.6,89.8 181.6,93.6 C181.6,97.4 184.7,100.4 188.4,100.4 L230.6,100.4 C234.4,100.4 237.4,97.4 237.4,93.6 C237.4,89.8 234.4,86.8 230.6,86.8 z" fill="#010202"/>
  </g>
</svg>
