<?xml version="1.0" encoding="UTF-8"?>
<!DOCTYPE svg PUBLIC "-//W3C//DTD SVG 1.1//EN" "http://www.w3.org/Graphics/SVG/1.1/DTD/svg11.dtd">
<svg version="1.1" xmlns="http://www.w3.org/2000/svg" xmlns:xlink="http://www.w3.org/1999/xlink" x="0" y="0" width="283.5" height="283.5" viewBox="0, 0, 283.5, 283.5">
  <g id="Background">
    <rect x="0" y="0" width="283.5" height="283.5" fill="#FFFFFF"/>
  </g>
  <g id="Layer_1">
    <path d="M278.9,136.4 L250.1,112.2 L263,76.8 C263.7,74.9 263.5,72.9 262.5,71.2 C261.5,69.5 259.8,68.3 257.9,68 L220.9,61.4 L214.3,24.4 C214,22.5 212.8,20.8 211.1,19.8 C209.4,18.8 207.3,18.6 205.5,19.3 L170,32.1 L145.8,3.3 C144.5,1.8 142.7,0.9 140.7,0.9 L140.7,0.9 C138.7,0.9 136.8,1.8 135.6,3.3 L111.4,32.1 L76,19.2 C74.1,18.5 72.1,18.7 70.4,19.7 C68.7,20.7 67.5,22.4 67.2,24.3 L60.6,61.3 L23.6,67.9 C21.7,68.2 20,69.4 19,71.1 C18,72.8 17.8,74.9 18.5,76.7 L31.4,112.1 L2.4,136.4 C0.9,137.7 0,139.5 0,141.5 C0,143.5 0.9,145.4 2.4,146.6 L31.2,170.8 L18.3,206.2 C17.6,208.1 17.8,210.1 18.8,211.8 C19.8,213.5 21.5,214.7 23.4,215 L60.4,221.6 L67,258.7 C67.3,260.6 68.5,262.3 70.2,263.3 C71.9,264.3 74,264.5 75.8,263.8 L111.2,250.9 L135.4,279.7 C136.7,281.2 138.6,282.1 140.5,282.1 C142.4,282.1 144.4,281.2 145.6,279.7 L170,251 L205.4,263.9 C207.3,264.6 209.3,264.4 211,263.4 C212.7,262.4 213.9,260.7 214.2,258.8 L220.8,221.7 L257.8,215.1 C259.7,214.8 261.4,213.6 262.4,211.9 C263.4,210.2 263.6,208.1 262.9,206.3 L250,170.9 L278.8,146.7 C280.3,145.4 281.2,143.5 281.2,141.6 C281.3,139.5 280.4,137.7 278.9,136.4 z M237.9,163.6 C235.7,165.4 235,168.4 235.9,171 L247.6,203.3 L213.8,209.3 C211,209.8 208.9,212 208.4,214.7 L202.4,248.5 L170.1,236.8 C167.5,235.8 164.5,236.6 162.7,238.8 L140.6,265 L118.5,238.7 C117.2,237.2 115.3,236.3 113.4,236.3 C112.6,236.3 111.9,236.4 111.1,236.7 L78.8,248.4 L72.8,214.6 C72.3,211.8 70.1,209.7 67.4,209.2 L33.6,203.2 L45.4,171 C46.4,168.4 45.6,165.4 43.4,163.6 L17.1,141.5 L43.4,119.4 C45.6,117.6 46.3,114.6 45.4,112 L33.7,79.7 L67.5,73.7 C70.3,73.2 72.4,71 72.9,68.3 L78.9,34.5 L111.2,46.2 C113.8,47.2 116.8,46.4 118.6,44.2 L140.6,18 L162.7,44.3 C164.5,46.5 167.5,47.2 170.1,46.3 L202.4,34.6 L208.4,68.4 C208.9,71.2 211.1,73.3 213.8,73.8 L247.6,79.8 L235.9,112 C234.9,114.6 235.7,117.6 237.9,119.4 L264.2,141.5 L237.9,163.6 z M147.4,111.5 C140,111.5 134,117.5 134,124.9 L134,134 L142.7,134 C146.4,134 149.4,137 149.4,140.7 C149.4,144.4 146.4,147.4 142.7,147.4 L134,147.4 L134,169.9 L167.5,169.9 C171.2,169.9 174.2,172.9 174.2,176.6 C174.2,180.3 171.2,183.3 167.5,183.3 L113.9,183.3 C110.2,183.3 107.2,180.3 107.2,176.6 C107.2,172.9 110.2,169.9 113.9,169.9 L120.6,169.9 L120.6,147.4 L113.9,147.4 C110.2,147.4 107.2,144.4 107.2,140.7 C107.2,137 110.2,134 113.9,134 L120.6,134 L120.6,124.9 C120.6,110.1 132.6,98.1 147.4,98.1 C162.2,98.1 174.2,110.1 174.2,124.9 C174.2,128.6 171.2,131.6 167.5,131.6 C163.8,131.6 160.8,128.6 160.8,124.9 C160.8,117.5 154.8,111.5 147.4,111.5 z" fill="#000000"/>
  </g>
</svg>
