<?xml version="1.0" encoding="UTF-8"?>
<!DOCTYPE svg PUBLIC "-//W3C//DTD SVG 1.1//EN" "http://www.w3.org/Graphics/SVG/1.1/DTD/svg11.dtd">
<svg version="1.1" xmlns="http://www.w3.org/2000/svg" xmlns:xlink="http://www.w3.org/1999/xlink" x="0" y="0" width="283.5" height="283.5" viewBox="0, 0, 283.5, 283.5">
  <g id="Background">
    <rect x="0" y="0" width="283.5" height="283.5" fill="#FFFFFF"/>
  </g>
  <g id="Layer_1">
    <path d="M241.5,122 L221.5,122 L221.5,75.3 C221.5,34.9 188.6,2 148.2,2 C107.8,2 74.9,34.9 74.9,75.3 L74.9,122 L54.9,122 C43.9,122 34.9,131 34.9,142 L34.9,262 C34.9,273 43.9,282 54.9,282 L241.6,282 C252.6,282 261.6,273 261.6,262 L261.6,142 C261.5,131 252.5,122 241.5,122 z M88.2,75.3 C88.2,42.2 115.1,15.3 148.2,15.3 C181.3,15.3 208.2,42.2 208.2,75.3 L208.2,122 L88.2,122 L88.2,75.3 z M248.2,262 C248.2,265.7 245.2,268.7 241.5,268.7 L54.8,268.7 C51.1,268.7 48.1,265.7 48.1,262 L48.1,142 C48.1,138.3 51.1,135.3 54.8,135.3 L241.5,135.3 C245.2,135.3 248.2,138.3 248.2,142 L248.2,262 z M149.6,174.3 C142.3,174.3 136.3,180.3 136.3,187.5 L136.3,196.6 L145,196.6 C148.7,196.6 151.7,199.6 151.7,203.3 C151.7,207 148.7,210 145,210 L136.3,210 L136.3,232.5 L169.6,232.5 C173.3,232.5 176.3,235.5 176.3,239.2 C176.3,242.9 173.3,245.9 169.6,245.9 L116.2,245.9 C112.5,245.9 109.5,242.9 109.5,239.2 C109.5,235.5 112.5,232.5 116.2,232.5 L122.9,232.5 L122.9,210.1 L116.2,210.1 C112.5,210.1 109.5,207.1 109.5,203.4 C109.5,199.7 112.5,196.7 116.2,196.7 L122.9,196.7 L122.9,187.6 C122.9,172.9 134.9,160.9 149.6,160.9 C164.3,160.9 176.3,172.9 176.3,187.6 C176.3,191.3 173.3,194.3 169.6,194.3 C165.9,194.3 162.9,191.3 162.9,187.6 C162.9,180.3 157,174.3 149.6,174.3 z" fill="#000000"/>
  </g>
</svg>
