<?xml version="1.0" encoding="UTF-8"?>
<!DOCTYPE svg PUBLIC "-//W3C//DTD SVG 1.1//EN" "http://www.w3.org/Graphics/SVG/1.1/DTD/svg11.dtd">
<svg version="1.1" xmlns="http://www.w3.org/2000/svg" xmlns:xlink="http://www.w3.org/1999/xlink" x="0" y="0" width="283.5" height="283.5" viewBox="0, 0, 283.5, 283.5">
  <g id="Background">
    <rect x="0" y="0" width="283.5" height="283.5" fill="#FFFFFF"/>
  </g>
  <g id="Layer_1">
    <path d="M141.8,3.5 C171,3.5 194.7,27.2 194.7,56.4 C194.7,64.8 192.7,72.8 189.1,80.1 L219.4,75.1 C221.4,74.8 223.5,74.6 225.6,74.6 C243.2,74.6 258.3,87.2 261.3,104.6 C264.9,125.6 252.8,142.8 231.8,146.5 L193,153.3 L223.7,215.3 C223.7,215.3 223.8,215.4 223.8,215.4 L223.8,215.6 L226.3,220.7 C231.2,230.6 231.9,241.7 228.4,252.1 C224.9,262.5 217.5,270.9 207.7,275.8 C202.1,278.6 195.8,280.1 189.5,280.1 C173.8,280.1 159.7,271.3 152.7,257.2 L141.7,235.1 L133.4,251.9 C133.4,251.9 133.4,252 133.4,252 C133.4,252 133.3,252 133.3,252.1 L130.8,257.2 C123.8,271.3 109.7,280.1 94,280.1 C87.7,280.1 81.4,278.6 75.8,275.8 C66,270.9 58.6,262.5 55.1,252.1 C51.6,241.7 52.3,230.5 57.2,220.7 L90.5,153.4 L51.8,146.6 C30.8,142.9 18.6,125.6 22.3,104.6 C25.7,85.2 44.4,71.7 64.2,75.1 L94.5,80.1 C90.8,72.8 88.9,64.8 88.9,56.4 C88.9,27.2 112.6,3.5 141.8,3.5 z M214.8,227.2 L164.9,251.9 C169.7,261.1 179.1,266.8 189.5,266.8 C193.8,266.8 198.1,265.8 201.9,263.9 C208.6,260.6 213.6,254.9 216,247.8 C218.3,240.9 217.8,233.6 214.8,227.2 z M68.6,227 C65.6,233.6 65.1,240.9 67.4,247.7 C69.8,254.8 74.8,260.5 81.5,263.8 C85.4,265.7 89.6,266.7 93.9,266.7 C104.4,266.7 113.7,261 118.5,251.7 L68.6,227 z M141.8,16.6 C119.9,16.6 102.1,34.4 102.1,56.3 C102.1,66.9 106.3,76.9 113.8,84.4 C115.8,86.4 116.3,89.5 115,92.1 C113.7,94.7 110.9,96.1 108.1,95.6 L62,88 C49.3,85.9 37.5,94.4 35.3,106.8 C33.5,117.3 37.3,130.6 54.1,133.5 L101.5,141.8 C103.5,142.1 105.3,143.4 106.2,145.3 C107.1,147.1 107.1,149.3 106.2,151.2 L74.5,215.2 L124.5,240 L135.8,217.1 C136.9,214.8 139.2,213.4 141.7,213.4 C144.2,213.4 146.5,214.9 147.6,217.1 L159,240 L209.1,215.2 L177.4,151.2 C176.4,149.3 176.5,147.2 177.4,145.3 C178.3,143.5 180.1,142.2 182.1,141.8 L229.5,133.5 C236.6,132.2 242,129 245.3,124 C248.3,119.4 249.4,113.3 248.3,106.8 C246.4,95.7 236.8,87.7 225.6,87.7 C224.3,87.7 222.9,87.8 221.6,88 L175.5,95.6 C172.7,96.1 169.9,94.7 168.6,92.1 C167.3,89.5 167.8,86.4 169.8,84.4 C177.3,76.9 181.5,66.9 181.5,56.3 C181.5,34.4 163.7,16.6 141.8,16.6 z M142.15,164.455 L143.273,164.461 C146.584,165.73 145.318,164.916 147.3,166.5 C148.8,167.9 149.6,170 149.6,172.1 C149.6,174.2 148.8,176.2 147.3,177.7 C145.8,179.2 143.7,180 141.7,180 C139.6,180 137.6,179.2 136.1,177.7 C134.6,176.3 133.8,174.2 133.8,172.1 C133.8,170 134.6,168 136.1,166.5 C138.069,164.685 139.607,164.525 142.15,164.455 z M142.139,124.785 L143.273,124.791 C144.908,125.122 146.113,125.803 147.3,126.9 C148.8,128.3 149.6,130.4 149.6,132.5 C149.6,134.6 148.8,136.6 147.3,138.1 C145.8,139.6 143.7,140.4 141.7,140.4 C139.6,140.4 137.6,139.6 136.1,138.1 C134.6,136.6 133.8,134.5 133.8,132.5 C133.8,130.4 134.6,128.4 136.1,126.9 C138.066,125.032 139.564,124.859 142.139,124.785 z M126.527,65.367 L127.474,65.372 C130.272,66.517 129.192,65.804 130.9,67.2 C136.7,73 146.7,73 152.5,67.2 C155.1,64.6 159.3,64.6 161.8,67.2 C164.4,69.7 164.4,73.9 161.8,76.5 C156.4,81.8 149.3,84.8 141.7,84.8 C134.1,84.8 127,81.9 121.6,76.5 C119,74 119,69.8 121.6,67.2 C123.112,65.644 124.469,65.434 126.527,65.367 z M156.664,40.677 C158.639,40.756 160.239,41.812 161.8,42.9 C163.3,44.3 164.1,46.4 164.1,48.5 C164.1,50.6 163.3,52.6 161.8,54.1 C160.3,55.6 158.2,56.4 156.2,56.4 C154.1,56.4 152.1,55.6 150.6,54.1 C149.1,52.6 148.3,50.5 148.3,48.5 C148.3,46.4 149.2,44.4 150.6,42.9 C151.723,41.65 153.123,41.275 154.671,40.747 L155.799,40.683 L156.664,40.677 z M127.646,40.7 C129.626,40.764 131.233,41.815 132.8,42.9 C134.3,44.3 135.1,46.4 135.1,48.5 C135.1,50.6 134.3,52.6 132.8,54.1 C131.3,55.6 129.2,56.4 127.2,56.4 C125.1,56.4 123.1,55.5 121.6,54 C120.1,52.6 119.3,50.5 119.3,48.4 C119.3,46.3 120.1,44.3 121.6,42.8 C123.581,41.217 122.316,42.03 125.627,40.766 L126.777,40.712 L127.646,40.7 z" fill="#010202"/>
  </g>
</svg>
