<?xml version="1.0" encoding="UTF-8"?>
<!DOCTYPE svg PUBLIC "-//W3C//DTD SVG 1.1//EN" "http://www.w3.org/Graphics/SVG/1.1/DTD/svg11.dtd">
<svg version="1.1" xmlns="http://www.w3.org/2000/svg" xmlns:xlink="http://www.w3.org/1999/xlink" x="0" y="0" width="283.5" height="283.5" viewBox="0, 0, 283.5, 283.5">
  <g id="Background">
    <rect x="0" y="0" width="283.5" height="283.5" fill="#FFFFFF"/>
  </g>
  <g id="Layer_1">
    <path d="M223.9,92.7 L110,92.7 L191.4,11.3 C194,8.7 194,4.5 191.4,1.9 C188.8,-0.7 184.6,-0.7 182,1.9 L91.3,92.7 C80.4,92.8 71.5,101.6 71.5,112.6 L71.5,169.6 L46.4,169.6 C42.7,169.6 39.8,172.6 39.8,176.2 C39.8,179.8 42.8,182.8 46.4,182.8 L71.6,182.8 L71.6,219.9 L46.4,219.9 C42.7,219.9 39.8,222.9 39.8,226.5 C39.8,230.2 42.8,233.1 46.4,233.1 L71.6,233.1 L71.6,263.6 C71.6,274.6 80.5,283.5 91.5,283.5 L224,283.5 C235,283.5 243.9,274.6 243.9,263.6 L243.9,112.6 C243.7,101.6 234.8,92.7 223.9,92.7 z M84.8,112.6 C84.8,108.9 87.8,106 91.4,106 L223.9,106 C227.6,106 230.5,109 230.5,112.6 L230.5,169.6 L84.8,169.6 L84.8,112.6 z M84.8,182.8 L230.5,182.8 L230.5,219.9 L84.8,219.9 L84.8,182.8 z M223.9,270.2 L91.4,270.2 C87.7,270.2 84.8,267.2 84.8,263.6 L84.8,233.1 L230.5,233.1 L230.5,263.6 C230.5,267.2 227.5,270.2 223.9,270.2 z" fill="#010202"/>
  </g>
</svg>
