<?xml version="1.0" encoding="UTF-8"?>
<!DOCTYPE svg PUBLIC "-//W3C//DTD SVG 1.1//EN" "http://www.w3.org/Graphics/SVG/1.1/DTD/svg11.dtd">
<svg version="1.1" xmlns="http://www.w3.org/2000/svg" xmlns:xlink="http://www.w3.org/1999/xlink" x="0" y="0" width="283.5" height="283.5" viewBox="0, 0, 283.5, 283.5">
  <g id="Background">
    <rect x="0" y="0" width="283.5" height="283.5" fill="#FFFFFF"/>
  </g>
  <g id="Layer_1">
    <path d="M187.8,133.9 C195.7,133.9 203.7,139.5 206.4,147 L218.3,180 C230.8,181.5 240.5,192.1 240.3,205 L240.3,232.6 C240.3,246.4 229.1,257.7 215.2,257.7 L212.7,257.7 L212.7,276.7 C212.7,280.4 209.7,283.4 206,283.4 C202.3,283.4 199.3,280.4 199.3,276.7 L199.3,257.7 L84,257.7 L84,276.7 C84,280.4 81,283.4 77.3,283.4 C73.6,283.4 70.6,280.4 70.6,276.7 L70.6,257.7 L68.1,257.7 C54.3,257.7 43,246.5 43,232.6 L43,205 C43,192 52.9,181.3 65.5,180.1 L77.1,147.1 C79.8,139.5 87.9,133.9 95.8,133.9 L187.8,133.9 z M187.8,147.3 L95.8,147.3 C93.6,147.3 90.5,149.4 89.8,151.5 L76.6,188.8 C75.6,191.5 73.1,193.3 70.2,193.3 L68.1,193.3 C61.6,193.3 56.4,198.6 56.4,205 L56.4,232.6 C56.4,239.1 61.7,244.3 68.1,244.3 L215.3,244.3 C221.8,244.3 227,239 227,232.6 L227.1,232.6 L227.1,205 C227.1,198.5 221.8,193.3 215.4,193.3 L213.6,193.3 C210.8,193.3 208.3,191.5 207.3,188.8 L193.8,151.5 C193,149.4 190,147.3 187.8,147.3 z M143.224,161.332 C146.284,161.536 145.02,161.189 147.1,162 C150.4,163.6 151.8,167.7 150.1,171 L141,189.2 L152.7,189.2 C152.9,189.2 153.2,189.3 153.4,189.3 L154,189.4 C154.2,189.5 154.4,189.5 154.6,189.6 C154.8,189.7 155.1,189.8 155.3,189.9 C155.4,190 155.4,190 155.5,190 C155.6,190 155.7,190.1 155.8,190.2 L156.4,190.6 C156.6,190.7 156.7,190.9 156.9,191 C157.1,191.2 157.3,191.3 157.4,191.5 L157.8,192 C158,192.1 158.1,192.3 158.2,192.5 L158.8,193.7 C158.9,193.9 158.9,194.1 159,194.3 L159.1,194.9 C159.2,195.1 159.2,195.4 159.2,195.6 L159.2,196.2 C159.2,196.4 159.1,196.7 159.1,196.9 C159.1,197.1 159,197.3 159,197.5 L158.8,198.1 C158.7,198.3 158.6,198.6 158.5,198.8 C158.4,198.9 158.4,198.9 158.4,199 L144.4,227 C143.3,229.3 140.9,230.7 138.4,230.7 C137.4,230.7 136.4,230.5 135.4,230 C132.1,228.4 130.7,224.3 132.4,221 L141.5,202.8 L129.9,202.8 C129.5,202.7 129,202.7 128.6,202.6 C128.4,202.6 128.3,202.5 128.2,202.5 C127.9,202.4 127.5,202.3 127.2,202.1 C127.1,202 127.1,202 127,202 C126.9,202 126.8,201.9 126.7,201.8 L126.1,201.4 C125.9,201.3 125.8,201.1 125.6,201 C125.4,200.8 125.2,200.7 125.1,200.5 L124.7,200 C124.5,199.9 124.4,199.7 124.3,199.5 L123.7,198.3 C123.6,198.1 123.6,197.9 123.5,197.7 C123.5,197.5 123.4,197.3 123.4,197.1 C123.3,196.9 123.3,196.6 123.3,196.4 L123.3,195.8 C123.3,195.6 123.4,195.3 123.4,195.1 L123.5,194.5 C123.6,194.3 123.6,194.1 123.7,193.9 C123.8,193.6 123.9,193.4 124,193.2 C124.1,193.1 124.1,193.1 124.1,193 L138.1,165 C139.386,162.517 140.759,162.159 143.224,161.332 z M80.3,210.4 C85.4,210.4 89.5,214.5 89.5,219.6 C89.5,224.7 85.4,228.8 80.3,228.8 C75.2,228.8 71.1,224.7 71.1,219.6 C71.1,214.5 75.2,210.4 80.3,210.4 z M203.2,210.4 C208.2,210.4 212.4,214.5 212.4,219.6 C212.4,224.7 208.3,228.8 203.2,228.8 C198.1,228.8 194,224.7 194,219.6 C194,214.5 198.1,210.4 203.2,210.4 z M64.9,93.1 C32.9,93.1 6.9,119.1 6.9,151 C6.9,156.4 7.7,161.8 9.2,167 C10,169.9 12.7,171.9 15.7,171.9 L46,171.9 C49.6,171.8 52.6,168.8 52.6,165.1 C52.6,161.4 49.6,158.4 45.9,158.4 L21,158.4 C20.6,155.9 20.4,153.5 20.4,151 C20.4,126.5 40.4,106.5 64.9,106.5 C68.6,106.5 71.6,103.5 71.6,99.8 C71.6,96.1 68.6,93.1 64.9,93.1 z M218.6,93 C214.9,93 211.9,96 211.9,99.7 C211.9,103.4 214.9,106.4 218.6,106.4 C243.1,106.4 263.1,126.3 263.1,150.9 C263.1,153.4 262.9,155.9 262.5,158.3 L237.6,158.3 C233.9,158.3 230.9,161.3 230.9,165 C230.9,168.7 233.9,171.7 237.6,171.7 L267.9,171.7 C270.9,171.7 273.6,169.7 274.4,166.8 C275.9,161.6 276.6,156.2 276.6,150.8 C276.6,119 250.6,93 218.6,93 z M141.7,79.4 C119.1,79.4 98.4,92.7 89,113.2 C87.5,116.6 89,120.6 92.3,122.2 C95.7,123.8 99.7,122.3 101.2,118.9 C108.4,103.1 124.3,92.9 141.7,92.9 C159.1,92.9 174.9,103.1 182.2,118.9 C183.3,121.4 185.8,122.8 188.3,122.8 C189.2,122.8 190.2,122.6 191.1,122.2 C194.5,120.6 196,116.7 194.4,113.3 C185,92.7 164.3,79.4 141.7,79.4 z M218.6,27.1 C229.6,27.1 238.6,36.1 238.6,47.1 C238.6,58.1 229.6,67.1 218.6,67.1 C207.6,67.1 198.6,58.1 198.6,47.1 C198.7,36 207.6,27.1 218.6,27.1 z M218.6,13.5 C200.2,13.5 185.1,28.5 185.1,47 C185.2,65.5 200.2,80.5 218.6,80.5 C237,80.5 252.1,65.5 252.1,47 C252.1,28.6 237.1,13.5 218.6,13.5 z M64.8,27.1 C75.8,27.1 84.8,36.1 84.8,47.1 C84.8,58.1 75.8,67.1 64.8,67.1 C53.8,67.1 44.8,58.1 44.8,47.1 C44.9,36 53.8,27.1 64.8,27.1 z M64.8,13.5 C46.4,13.5 31.3,28.5 31.3,47 C31.4,65.5 46.4,80.5 64.8,80.5 C83.2,80.5 98.3,65.5 98.3,47 C98.3,28.6 83.3,13.5 64.8,13.5 z M141.7,13.5 C152.7,13.5 161.7,22.5 161.7,33.5 C161.7,44.5 152.7,53.5 141.7,53.5 C130.7,53.5 121.7,44.5 121.7,33.5 C121.8,22.4 130.7,13.5 141.7,13.5 z M141.7,0 C123.3,-0 108.3,15 108.3,33.4 C108.3,51.9 123.3,66.9 141.7,66.9 C160.2,66.9 175.2,51.9 175.2,33.4 C175.2,15 160.2,-0 141.7,0 z" fill="#000000"/>
  </g>
</svg>
