<?xml version="1.0" encoding="UTF-8"?>
<!DOCTYPE svg PUBLIC "-//W3C//DTD SVG 1.1//EN" "http://www.w3.org/Graphics/SVG/1.1/DTD/svg11.dtd">
<svg version="1.1" xmlns="http://www.w3.org/2000/svg" xmlns:xlink="http://www.w3.org/1999/xlink" x="0" y="0" width="283.5" height="283.5" viewBox="0, 0, 283.5, 283.5">
  <g id="Background">
    <rect x="0" y="0" width="283.5" height="283.5" fill="#FFFFFF"/>
  </g>
  <g id="Layer_1">
    <path d="M197.5,0.1 C201.3,0.1 204.3,3.2 204.3,6.9 L204.3,29.1 L216.3,29.1 C220.1,29.1 223.1,32.2 223.1,35.9 L223.1,270 L263.4,270 C267.1,270 270.2,273 270.2,276.8 C270.2,280.6 267.1,283.6 263.4,283.6 L20.1,283.6 C16.3,283.6 13.3,280.5 13.3,276.8 C13.3,273 16.4,270 20.1,270 L59.8,270 L59.8,35.9 C59.8,32.1 62.9,29.1 66.6,29.1 L78.7,29.1 L78.7,6.9 C78.7,3.1 81.8,0.1 85.5,0.1 L197.5,0.1 z M209.5,42.7 L73.4,42.7 L73.4,270 L209.5,270 L209.5,42.7 z M109.1,215.4 C112.9,215.4 115.9,218.5 115.9,222.2 L115.9,243.3 C115.9,247.1 112.8,250.1 109.1,250.1 C105.4,250.1 102.3,247 102.3,243.3 L102.3,222.2 C102.3,218.4 105.4,215.4 109.1,215.4 z M141.5,215.4 C145.3,215.4 148.3,218.5 148.3,222.2 L148.3,243.3 C148.3,247.1 145.2,250.1 141.5,250.1 C137.7,250.1 134.7,247 134.7,243.3 L134.7,222.2 C134.7,218.4 137.7,215.4 141.5,215.4 z M173.8,215.4 C177.6,215.4 180.6,218.5 180.6,222.2 L180.6,243.3 C180.6,247.1 177.5,250.1 173.8,250.1 C170.1,250.1 167,247 167,243.3 L167,222.2 C167,218.4 170,215.4 173.8,215.4 z M109.1,165.2 C112.9,165.2 115.9,168.3 115.9,172 L115.9,193.1 C115.9,196.9 112.8,199.9 109.1,199.9 C105.4,199.9 102.3,196.8 102.3,193.1 L102.3,172 C102.3,168.2 105.4,165.2 109.1,165.2 z M173.8,165.2 C177.6,165.2 180.6,168.3 180.6,172 L180.6,193.1 C180.6,196.9 177.5,199.9 173.8,199.9 C170.1,199.9 167,196.8 167,193.1 L167,172 C167,168.2 170,165.2 173.8,165.2 z M141.5,165.2 C145.3,165.2 148.3,168.3 148.3,172 L148.3,193.1 C148.3,196.9 145.2,199.9 141.5,199.9 C137.7,199.9 134.7,196.8 134.7,193.1 L134.7,172 C134.7,168.2 137.7,165.2 141.5,165.2 z M141.5,115 C145.3,115 148.3,118.1 148.3,121.8 L148.3,142.9 C148.3,146.7 145.2,149.7 141.5,149.7 C137.7,149.7 134.7,146.6 134.7,142.9 L134.7,121.8 C134.7,118 137.7,115 141.5,115 z M173.8,115 C177.6,115 180.6,118.1 180.6,121.8 L180.6,142.9 C180.6,146.7 177.5,149.7 173.8,149.7 C170.1,149.7 167,146.6 167,142.9 L167,121.8 C167,118 170,115 173.8,115 z M109.1,115 C112.9,115 115.9,118.1 115.9,121.8 L115.9,142.9 C115.9,146.7 112.8,149.7 109.1,149.7 C105.4,149.7 102.3,146.6 102.3,142.9 L102.3,121.8 C102.3,118 105.4,115 109.1,115 z M109.1,64.7 C112.9,64.7 115.9,67.8 115.9,71.5 L115.9,92.6 C115.9,96.4 112.8,99.4 109.1,99.4 C105.4,99.4 102.3,96.4 102.3,92.6 L102.3,71.5 C102.3,67.7 105.4,64.7 109.1,64.7 z M173.8,64.7 C177.6,64.7 180.6,67.8 180.6,71.5 L180.6,92.6 C180.6,96.4 177.5,99.4 173.8,99.4 C170.1,99.4 167,96.4 167,92.6 L167,71.5 C167,67.7 170,64.7 173.8,64.7 z M141.5,64.7 C145.3,64.7 148.3,67.8 148.3,71.5 L148.3,92.6 C148.3,96.4 145.2,99.4 141.5,99.4 C137.7,99.4 134.7,96.4 134.7,92.6 L134.7,71.5 C134.7,67.7 137.7,64.7 141.5,64.7 z M190.7,13.7 L92.3,13.7 L92.3,29.1 L190.7,29.1 L190.7,13.7 z" fill="#010202"/>
  </g>
</svg>
