<?xml version="1.0" encoding="UTF-8"?>
<!DOCTYPE svg PUBLIC "-//W3C//DTD SVG 1.1//EN" "http://www.w3.org/Graphics/SVG/1.1/DTD/svg11.dtd">
<svg version="1.1" xmlns="http://www.w3.org/2000/svg" xmlns:xlink="http://www.w3.org/1999/xlink" x="0" y="0" width="283.5" height="283.5" viewBox="0, 0, 283.5, 283.5">
  <g id="Background">
    <rect x="0" y="0" width="283.5" height="283.5" fill="#FFFFFF"/>
  </g>
  <g id="Layer_1">
    <path d="M236.4,98.5 L236.4,240.3 L0,240.3 L0,98.5 L236.4,98.5 z M222.5,203.1 C210.9,205.7 201.7,214.9 199.1,226.5 L222.5,226.5 L222.5,203.1 z M13.8,203 L13.8,226.4 L37.2,226.4 C34.6,214.8 25.5,205.6 13.8,203 z M185.2,112.3 L51.3,112.3 C48.3,131.6 33.1,146.8 13.8,149.7 L13.8,189 C33.1,192 48.3,207.2 51.3,226.4 L185.2,226.4 C188.1,207.2 203.3,191.9 222.6,189 L222.6,149.7 C203.4,146.8 188.1,131.6 185.2,112.3 z M116.1,118.9 C119.9,118.9 123,122 123,125.8 L123,132.9 C129.1,133.8 134,135.5 135,135.9 C138.6,137.2 140.4,141.2 139.1,144.8 C137.7,148.4 133.8,150.2 130.2,148.9 C128.7,148.4 126,147.6 122.9,147 L122.9,166.3 C131.9,169 143,175.5 143,187.3 C143,196.7 136.8,205.1 127.3,208.9 C125.9,209.4 124.4,209.9 122.9,210.2 L122.9,215.7 C122.9,219.5 119.8,222.6 116,222.6 C112.2,222.6 109.1,219.5 109.1,215.7 L109.1,210.1 C103,208.7 96.7,205.4 90.9,199.2 C88.3,196.4 88.4,192 91.2,189.4 C94,186.8 98.4,186.9 101,189.7 C103.6,192.5 106.4,194.4 109.2,195.5 L109.2,177 C100.4,174 90.3,166.8 90.3,153 C90.3,152.6 90.3,152.3 90.4,151.9 C91.5,144.8 95.1,139.2 100.8,135.9 C103.4,134.3 106.3,133.4 109.2,132.9 L109.2,125.8 C109.2,122 112.3,118.9 116.1,118.9 z M122.9,181.1 L122.9,195.7 C126.1,194.2 129.2,191.4 129.2,187.3 C129.2,184.7 126.2,182.6 122.9,181.1 z M109.1,147.2 C108.6,147.4 108.1,147.6 107.6,147.9 C106.4,148.6 104.7,150 104,153.6 C104.2,157.5 106.4,160.1 109.1,161.9 L109.1,147.2 z M37.2,112.3 L13.8,112.3 L13.8,135.7 C25.4,133.1 34.6,123.9 37.2,112.3 z M222.6,112.3 L199.2,112.3 C201.8,123.9 210.9,133.1 222.6,135.7 L222.6,112.3 z M252.9,67.9 L44.9,67.9 C41.1,67.9 38,71 38,74.8 C38,78.6 41.1,81.7 44.9,81.7 L246,81.7 L246,188.3 C246,192.1 249.1,195.2 252.9,195.2 C256.7,195.2 259.8,192.1 259.8,188.3 L259.8,74.8 C259.8,71 256.7,67.9 252.9,67.9 z M276.6,37.2 L68.6,37.2 C64.8,37.2 61.7,40.3 61.7,44.1 C61.7,47.9 64.8,51 68.6,51 L269.7,51 L269.7,157.6 C269.7,161.4 272.8,164.5 276.6,164.5 C280.4,164.5 283.5,161.4 283.5,157.6 L283.5,44.1 C283.5,40.3 280.4,37.2 276.6,37.2 z" fill="#000000"/>
  </g>
</svg>
