<?xml version="1.0" encoding="UTF-8"?>
<!DOCTYPE svg PUBLIC "-//W3C//DTD SVG 1.1//EN" "http://www.w3.org/Graphics/SVG/1.1/DTD/svg11.dtd">
<svg version="1.1" xmlns="http://www.w3.org/2000/svg" xmlns:xlink="http://www.w3.org/1999/xlink" x="0" y="0" width="283.5" height="283.5" viewBox="0, 0, 283.5, 283.5">
  <g id="Background">
    <rect x="0" y="0" width="283.5" height="283.5" fill="#FFFFFF"/>
  </g>
  <g id="Layer_1">
    <path d="M276.7,75.2 C280.4,75.2 283.5,78.2 283.4,81.9 L283.4,201.5 C283.4,205.2 280.4,208.2 276.7,208.2 C273,208.2 270,205.2 270,201.5 L270,81.9 C270,78.2 273,75.2 276.7,75.2 z M232,75.2 C228.3,75.2 225.3,78.2 225.3,81.9 L225.3,201.5 C225.3,205.2 228.3,208.2 232,208.2 C235.7,208.2 238.7,205.2 238.7,201.5 L238.7,81.9 C238.7,78.2 235.7,75.2 232,75.2 z M254.3,75.2 C250.6,75.2 247.6,78.2 247.6,81.9 L247.6,201.5 C247.6,205.2 250.6,208.2 254.3,208.2 C258,208.2 261,205.2 261,201.5 L261,81.9 C261.1,78.2 258.1,75.2 254.3,75.2 z M202.8,88.7 L202.8,109.4 C192.2,108.2 184,99.4 183.6,88.7 L202.8,88.7 z M32.7,88.7 C32.3,99.5 24.1,108.3 13.5,109.4 L13.5,88.7 L32.7,88.7 z M119.5,104.9 C106.7,104.9 96.2,115.3 96.2,128.2 L96.2,134.4 L91.9,134.4 C88.2,134.4 85.2,137.4 85.2,141.1 C85.2,144.8 88.2,147.8 91.9,147.8 L96.2,147.8 L96.2,163.8 L91.9,163.8 C88.2,163.8 85.2,166.8 85.2,170.5 C85.2,174.2 88.2,177.2 91.9,177.2 L135.9,177.2 C139.6,177.2 142.6,174.2 142.6,170.5 C142.9,166.8 139.8,163.8 136.1,163.8 L109.8,163.8 L109.8,147.8 L115.7,147.8 C119.4,147.8 122.4,144.8 122.4,141.1 C122.4,137.4 119.4,134.4 115.7,134.4 L109.8,134.4 L109.8,128.2 C109.8,122.8 114.2,118.4 119.6,118.4 C125,118.4 129.4,122.8 129.4,128.2 C129.4,131.9 132.4,134.9 136.1,134.9 C139.8,134.9 142.8,131.9 142.8,128.2 C142.8,115.4 132.4,104.9 119.5,104.9 z M170.2,88.6 C170.6,106.8 184.9,121.6 202.9,122.9 L202.9,160.5 C184.9,161.7 170.6,176.5 170.2,194.8 L46.2,194.8 C45.8,176.6 31.5,161.7 13.5,160.5 L13.5,122.9 C31.5,121.7 45.8,106.9 46.2,88.6 L170.2,88.6 z M202.8,174.1 L202.8,194.8 L183.6,194.8 C184,184 192.3,175.2 202.8,174.1 z M13.5,174.1 C24.1,175.3 32.3,184.1 32.7,194.8 L13.5,194.8 L13.5,174.1 z M209.6,75.2 L6.7,75.2 C3,75.2 -0,78.2 -0,81.9 L-0,201.5 C-0,205.2 3,208.2 6.7,208.2 L209.5,208.2 C213.2,208.2 216.2,205.2 216.2,201.5 L216.2,81.9 C216.3,78.2 213.3,75.2 209.6,75.2 z" fill="#000000"/>
  </g>
</svg>
