<?xml version="1.0" encoding="UTF-8"?>
<!DOCTYPE svg PUBLIC "-//W3C//DTD SVG 1.1//EN" "http://www.w3.org/Graphics/SVG/1.1/DTD/svg11.dtd">
<svg version="1.1" xmlns="http://www.w3.org/2000/svg" xmlns:xlink="http://www.w3.org/1999/xlink" x="0" y="0" width="283.5" height="283.5" viewBox="0, 0, 283.5, 283.5">
  <g id="Background">
    <rect x="0" y="0" width="283.5" height="283.5" fill="#FFFFFF"/>
  </g>
  <g id="Layer_1">
    <path d="M236.7,98.5 L236.7,240.3 L0.3,240.3 L0.3,98.5 L236.7,98.5 z M222.8,203.1 C211.2,205.7 202,214.8 199.4,226.5 L222.8,226.5 L222.8,203.1 z M185.3,112.3 L51.6,112.3 C48.7,131.6 33.4,146.9 14.1,149.8 L14.1,189 C33.4,191.9 48.7,207.2 51.6,226.5 L185.3,226.5 C188.2,207.2 203.5,191.9 222.8,189 L222.8,149.8 C203.5,146.9 188.2,131.6 185.3,112.3 z M125.805,133.147 C134.729,134.164 142.355,137.873 148.8,144 C151.5,146.7 151.5,151.1 148.8,153.8 C146.1,156.5 141.7,156.5 139,153.8 C129.7,144.5 114.6,144.5 105.3,153.8 C102.4,156.6 100.4,160 99.3,163.7 L123.3,163.7 C127.1,163.7 130.2,166.8 130.2,170.6 C130.2,174.4 127.1,177.5 123.3,177.5 L99.3,177.5 C100.5,181.2 102.5,184.6 105.3,187.4 C114.6,196.7 129.7,196.7 139,187.4 C141.7,184.7 146.1,184.7 148.8,187.4 C151.5,190.1 151.5,194.5 148.8,197.2 C141.5,204.5 131.8,208.2 122.2,208.2 C112.6,208.2 102.9,204.5 95.6,197.2 C90.1,191.8 86.6,184.9 85.2,177.5 L81.2,177.5 C77.4,177.5 74.3,174.4 74.3,170.6 C74.3,166.8 77.4,163.7 81.2,163.7 L85.2,163.7 C86.6,156.3 90.1,149.5 95.6,144 C101.799,137.875 109.872,133.987 118.595,133.147 C120.987,132.917 123.402,133.147 125.805,133.147 z M14.1,203 L14.1,226.4 L37.5,226.4 C34.9,214.8 25.8,205.6 14.1,203 z M37.6,112.3 L14.2,112.3 L14.2,135.7 C25.8,133.1 35,124 37.6,112.3 z M222.9,112.3 L199.5,112.3 C202.1,123.9 211.2,133.1 222.9,135.7 L222.9,112.3 z M253.3,67.9 L45.3,67.9 C41.5,67.9 38.4,71 38.4,74.8 C38.4,78.6 41.5,81.7 45.3,81.7 L246.4,81.7 L246.4,188.3 C246.4,192.1 249.5,195.2 253.3,195.2 C257.1,195.2 260.2,192.1 260.2,188.3 L260.2,74.8 C260.2,71 257.1,67.9 253.3,67.9 z M276.9,37.2 L68.9,37.2 C65.1,37.2 62,40.3 62,44.1 C62,47.9 65.1,51 68.9,51 L270,51 L270,157.6 C270,161.4 273.1,164.5 276.9,164.5 C280.7,164.5 283.8,161.4 283.8,157.6 L283.8,44.1 C283.8,40.3 280.7,37.2 276.9,37.2 z" fill="#000000"/>
  </g>
</svg>
