<?xml version="1.0" encoding="UTF-8"?>
<!DOCTYPE svg PUBLIC "-//W3C//DTD SVG 1.1//EN" "http://www.w3.org/Graphics/SVG/1.1/DTD/svg11.dtd">
<svg version="1.1" xmlns="http://www.w3.org/2000/svg" xmlns:xlink="http://www.w3.org/1999/xlink" x="0" y="0" width="283.5" height="283.5" viewBox="0, 0, 283.5, 283.5">
  <g id="Background">
    <rect x="0" y="0" width="283.5" height="283.5" fill="#FFFFFF"/>
  </g>
  <g id="Layer_1">
    <path d="M236.4,98.5 L236.4,240.3 L0,240.3 L0,98.5 L236.4,98.5 z M222.5,203.1 C210.9,205.7 201.7,214.9 199.1,226.5 L222.5,226.5 L222.5,203.1 z M13.8,203 L13.8,226.4 L37.2,226.4 C34.6,214.8 25.4,205.6 13.8,203 z M185.2,112.3 L51.3,112.3 C48.3,131.6 33.1,146.8 13.8,149.7 L13.8,189 C33.1,192 48.3,207.2 51.3,226.4 L185.2,226.4 C188.1,207.2 203.3,191.9 222.6,189 L222.6,149.7 C203.4,146.8 188.1,131.6 185.2,112.3 z M126.6,130.1 C140.1,130.1 151.2,141.1 151.2,154.7 C151.2,158.5 148.1,161.6 144.3,161.6 C140.5,161.6 137.4,158.5 137.4,154.7 C137.4,148.8 132.6,143.9 126.6,143.9 C120.7,143.9 115.8,148.7 115.8,154.7 L115.8,161.7 L122.5,161.7 C126.3,161.7 129.4,164.8 129.4,168.6 C129.4,172.4 126.3,175.5 122.5,175.5 L115.8,175.5 L115.8,193.4 L144.3,193.4 C148.1,193.4 151.2,196.5 151.2,200.3 C151.2,204.1 148.1,207.2 144.3,207.2 L97,207.2 C93.2,207.2 90.1,204.1 90.1,200.3 C90.1,196.5 93.2,193.4 97,193.4 L101.9,193.4 L101.9,175.5 L97,175.5 C93.2,175.5 90.1,172.4 90.1,168.6 C90.1,164.8 93.2,161.7 97,161.7 L102,161.7 L102,154.7 C102,141.1 113.1,130.1 126.6,130.1 z M37.2,112.3 L13.8,112.3 L13.8,135.7 C25.4,133.1 34.6,123.9 37.2,112.3 z M222.6,112.3 L199.2,112.3 C201.8,123.9 211,133.1 222.6,135.7 L222.6,112.3 z M252.9,67.9 L44.9,67.9 C41.1,67.9 38,71 38,74.8 C38,78.6 41.1,81.7 44.9,81.7 L246,81.7 L246,188.3 C246,192.1 249.1,195.2 252.9,195.2 C256.7,195.2 259.8,192.1 259.8,188.3 L259.8,74.8 C259.8,71 256.7,67.9 252.9,67.9 z M276.6,37.2 L68.6,37.2 C64.8,37.2 61.7,40.3 61.7,44.1 C61.7,47.9 64.8,51 68.6,51 L269.7,51 L269.7,157.6 C269.7,161.4 272.8,164.5 276.6,164.5 C280.4,164.5 283.5,161.4 283.5,157.6 L283.5,44.1 C283.5,40.3 280.4,37.2 276.6,37.2 z" fill="#000000"/>
  </g>
</svg>
