<?xml version="1.0" encoding="UTF-8"?>
<!DOCTYPE svg PUBLIC "-//W3C//DTD SVG 1.1//EN" "http://www.w3.org/Graphics/SVG/1.1/DTD/svg11.dtd">
<svg version="1.1" xmlns="http://www.w3.org/2000/svg" xmlns:xlink="http://www.w3.org/1999/xlink" x="0" y="0" width="283.5" height="283.5" viewBox="0, 0, 283.5, 283.5">
  <g id="Background">
    <rect x="0" y="0" width="283.5" height="283.5" fill="#FFFFFF"/>
  </g>
  <g id="Layer_1">
    <path d="M254.3,75.2 C258.1,75.2 261.1,78.2 261,81.9 L261,201.5 C261,205.2 258,208.2 254.3,208.2 C250.6,208.2 247.6,205.2 247.6,201.5 L247.6,81.9 C247.6,78.2 250.6,75.2 254.3,75.2 z M32.7,88.7 C32.3,99.5 24.1,108.3 13.5,109.4 L13.5,88.7 L32.7,88.7 z M202.8,88.7 L202.8,109.4 C192.2,108.2 184,99.4 183.6,88.7 L202.8,88.7 z M13.5,174.1 C24.1,175.3 32.3,184.1 32.7,194.8 L13.5,194.8 L13.5,174.1 z M202.8,174.1 L202.8,194.8 L183.6,194.8 C184,184 192.3,175.2 202.8,174.1 z M110.9,106.2 C101.4,106.2 92.5,109.9 85.7,116.6 C80.6,121.7 77.2,128.1 75.9,135 L72.4,135 C68.7,135 65.7,138 65.7,141.7 C65.7,145.4 68.7,148.4 72.4,148.4 L76,148.4 C77.3,155.3 80.7,161.7 85.8,166.8 C92.7,173.7 101.8,177.2 111,177.2 C120.2,177.2 129.2,173.7 136.2,166.8 C138.8,164.3 138.8,160 136.1,157.3 C133.5,154.7 129.2,154.7 126.6,157.3 C118,165.9 104,165.9 95.4,157.3 C92.9,154.8 91,151.7 90,148.4 L112.2,148.4 C115.9,148.4 118.9,145.4 118.9,141.7 C118.9,138 115.9,135 112.2,135 L90,135 C91.1,131.7 92.9,128.7 95.4,126.1 C99.6,121.9 105.1,119.6 111,119.6 C116.9,119.6 122.4,121.9 126.6,126.1 C129.2,128.7 133.5,128.7 136.1,126.1 C138.7,123.5 138.7,119.2 136.1,116.6 C129.4,109.9 120.4,106.2 110.9,106.2 z M170.2,88.6 C170.6,106.8 184.9,121.6 202.9,122.9 L202.9,160.5 C184.9,161.7 170.6,176.5 170.2,194.8 L46.2,194.8 C45.8,176.6 31.5,161.7 13.5,160.5 L13.5,122.9 C31.5,121.7 45.8,106.9 46.2,88.6 L170.2,88.6 z M209.6,75.2 L6.7,75.2 C3,75.2 -0,78.2 -0,81.9 L-0,201.5 C-0,205.2 3,208.2 6.7,208.2 L209.5,208.2 C213.2,208.2 216.2,205.2 216.2,201.5 L216.2,81.9 C216.3,78.2 213.3,75.2 209.6,75.2 z M232,75.2 C228.3,75.2 225.3,78.2 225.3,81.9 L225.3,201.5 C225.3,205.2 228.3,208.2 232,208.2 C235.7,208.2 238.7,205.2 238.7,201.5 L238.7,81.9 C238.7,78.2 235.7,75.2 232,75.2 z M276.7,75.2 C273,75.2 270,78.2 270,81.9 L270,201.5 C270,205.2 273,208.2 276.7,208.2 C280.4,208.2 283.4,205.2 283.4,201.5 L283.4,81.9 C283.5,78.2 280.4,75.2 276.7,75.2 z" fill="#000000"/>
  </g>
</svg>
