<?xml version="1.0" encoding="UTF-8"?>
<!DOCTYPE svg PUBLIC "-//W3C//DTD SVG 1.1//EN" "http://www.w3.org/Graphics/SVG/1.1/DTD/svg11.dtd">
<svg version="1.1" xmlns="http://www.w3.org/2000/svg" xmlns:xlink="http://www.w3.org/1999/xlink" x="0" y="0" width="283.5" height="283.5" viewBox="0, 0, 283.5, 283.5">
  <g id="Background">
    <rect x="0" y="0" width="283.5" height="283.5" fill="#FFFFFF"/>
  </g>
  <g id="Layer_1">
    <path d="M242.8,51.6 C201.5,51.6 178.6,37 156.4,22.9 C138.2,11.3 120.9,0.3 96.4,0.3 C79.3,0.3 60.2,5.7 37.8,16.9 C37.7,16.9 37.7,17 37.6,17 C37.2,17.2 36.8,17.5 36.5,17.8 C36.4,17.9 36.3,17.9 36.2,18 C35.8,18.4 35.5,18.8 35.2,19.3 C35.1,19.4 35.1,19.5 35,19.6 C34.8,20 34.6,20.4 34.5,20.8 C34.5,20.9 34.4,21.1 34.4,21.2 C34.3,21.7 34.2,22.3 34.2,22.9 L34.2,181.1 L34.2,276.4 C34.2,280.1 37.2,283.1 40.9,283.1 C44.6,283.1 47.6,280.1 47.6,276.4 L47.6,185.4 C66.4,176.4 82.5,172 96.5,172 C117.1,172 132,181.5 149.3,192.5 C172,207 197.8,223.3 243,223.3 C246.7,223.3 249.7,220.3 249.7,216.6 L249.7,58.3 C249.5,54.6 246.5,51.6 242.8,51.6 z M236,209.7 C198.9,208.2 177.3,194.4 156.3,181.1 C138.1,169.5 120.8,158.5 96.3,158.5 C81.8,158.5 65.7,162.4 47.4,170.5 L47.4,27.1 C66.2,18.1 82.3,13.7 96.3,13.7 C116.9,13.7 131.8,23.2 149.1,34.2 C170.7,47.9 195,63.4 236,64.9 L236,209.7 z" fill="#010202"/>
  </g>
</svg>
