<?xml version="1.0" encoding="UTF-8"?>
<!DOCTYPE svg PUBLIC "-//W3C//DTD SVG 1.1//EN" "http://www.w3.org/Graphics/SVG/1.1/DTD/svg11.dtd">
<svg version="1.1" xmlns="http://www.w3.org/2000/svg" xmlns:xlink="http://www.w3.org/1999/xlink" x="0" y="0" width="283.5" height="283.5" viewBox="0, 0, 283.5, 283.5">
  <g id="Background">
    <rect x="0" y="0" width="283.5" height="283.5" fill="#FFFFFF"/>
  </g>
  <g id="Layer_1">
    <path d="M282.9,168.7 L276.8,141.9 C274.2,130.5 263,121.6 251.4,121.6 L206.5,121.6 L170,85.2 C164.7,80 155.2,76 147.8,75.9 C147.8,75.9 147.7,75.9 147.7,75.9 C147.7,75.9 147.7,75.9 147.7,75.9 C147.7,75.9 147.7,75.9 147.7,75.9 C147.7,75.9 147.7,75.9 147.7,75.9 C94,75.9 47,94.2 21.2,121.6 C17.4,121.4 13.9,119.8 11.2,117.1 C8.7,114.6 4.5,114.6 2,117.1 C-0.5,119.6 -0.5,123.8 2,126.3 C4.9,129.2 8.4,131.5 12.2,132.9 C4.5,144.2 0.2,156.6 0.1,169.7 C0.1,169.8 0.1,169.8 0.1,169.9 C0.1,169.9 0.1,170 0.1,170 C0.1,170.1 0.1,170.1 0.1,170.2 C0.1,170.3 0.1,170.4 0.1,170.5 C0.4,182.4 10.2,192 22.2,192 L30.6,192 C33.4,201 41.8,207.6 51.8,207.6 C61.8,207.6 70.2,201 73,192 L205,192 C207.8,201 216.2,207.6 226.2,207.6 C236.2,207.6 244.6,201 247.4,192 L264.5,192 C270.6,192 276.1,189.5 279.6,185.1 C283,180.6 284.3,174.7 282.9,168.7 z M188.1,121.6 L39.7,121.6 C64.3,101.8 103.5,88.9 147.6,88.9 C151.6,88.9 158,91.6 160.8,94.4 L188.1,121.6 z M51.7,194.6 C46.7,194.6 42.6,190.5 42.6,185.5 C42.6,180.5 46.7,176.4 51.7,176.4 C56.7,176.4 60.8,180.5 60.8,185.5 C60.8,190.5 56.7,194.6 51.7,194.6 z M226.2,194.6 C221.2,194.6 217.1,190.5 217.1,185.5 C217.1,180.5 221.2,176.4 226.2,176.4 C231.2,176.4 235.3,180.5 235.3,185.5 C235.3,185.5 235.3,185.5 235.3,185.5 C235.3,185.5 235.3,185.5 235.3,185.5 C235.3,190.5 231.2,194.6 226.2,194.6 z M269.3,176.9 C268.3,178.2 266.5,178.9 264.4,178.9 L247.3,178.9 C244.5,169.9 236.1,163.3 226.1,163.3 C216.1,163.3 207.7,169.9 204.9,178.9 L72.9,178.9 C70.1,169.9 61.7,163.3 51.7,163.3 C41.7,163.3 33.3,169.9 30.5,178.9 L22.1,178.9 C17.1,178.9 13,174.9 13,169.9 C13.1,157.3 17.9,145.3 26.5,134.6 L203.6,134.6 C203.6,134.6 203.7,134.6 203.7,134.6 C203.7,134.6 203.8,134.6 203.8,134.6 L251.3,134.6 C256.9,134.6 262.8,139.4 264,144.8 L270.1,171.6 C270.7,173.7 270.4,175.6 269.3,176.9 z" fill="#010202"/>
  </g>
</svg>
