<?xml version="1.0" encoding="UTF-8"?>
<!DOCTYPE svg PUBLIC "-//W3C//DTD SVG 1.1//EN" "http://www.w3.org/Graphics/SVG/1.1/DTD/svg11.dtd">
<svg version="1.1" xmlns="http://www.w3.org/2000/svg" xmlns:xlink="http://www.w3.org/1999/xlink" x="0" y="0" width="283.5" height="283.5" viewBox="0, 0, 283.5, 283.5">
  <g id="Background">
    <rect x="0" y="0" width="283.5" height="283.5" fill="#FFFFFF"/>
  </g>
  <g id="Layer_1">
    <path d="M178.3,0.3 C178.5,0.4 178.6,0.4 178.7,0.4 C178.9,0.4 179,0.5 179.1,0.5 L180,0.8 C180.1,0.8 180.2,0.8 180.3,0.9 C180.4,0.9 180.5,0.9 180.6,1 L181.2,1.4 C181.3,1.4 181.4,1.5 181.5,1.6 L267.2,87.3 C267.4,87.4 267.5,87.6 267.7,87.8 L267.9,88 C267.9,88.1 268,88.2 268.1,88.3 L268.5,88.9 C268.6,89 268.7,89.1 268.7,89.2 L269.1,90.4 C269.1,90.5 269.2,90.6 269.2,90.7 C269.3,90.8 269.3,91 269.3,91.1 L269.3,276.7 C269.3,280.6 266.1,283.8 262.2,283.8 L21.3,283.8 C17.4,283.8 14.2,280.6 14.2,276.7 L14.2,7.4 C14.2,3.5 17.4,0.3 21.3,0.3 L178.3,0.3 z M170,14.2 L28.3,14.2 L28.3,269.3 L255.1,269.3 L255.1,99.3 L177.1,99.3 C173.2,99.3 170,96.1 170,92.2 L170,14.2 z M140.3,111.1 C144.2,111.1 147.4,114.3 147.4,118.2 L147.4,153.6 L182.8,153.6 C186.7,153.6 189.9,156.8 189.9,160.7 C189.9,164.6 186.7,167.8 182.8,167.8 L147.4,167.8 L147.4,203.2 C147.4,207.1 144.2,210.3 140.3,210.3 C136.4,210.3 133.2,207.1 133.2,203.2 L133.2,167.8 L97.8,167.8 C93.9,167.8 90.7,164.6 90.7,160.7 C90.7,156.8 93.9,153.6 97.8,153.6 L133.2,153.6 L133.2,118.2 C133.2,114.3 136.4,111.1 140.3,111.1 z M184.3,24.2 L184.3,85 L245.1,85 L184.3,24.2 z" fill="#010202"/>
  </g>
</svg>
