<?xml version="1.0" encoding="UTF-8"?>
<!DOCTYPE svg PUBLIC "-//W3C//DTD SVG 1.1//EN" "http://www.w3.org/Graphics/SVG/1.1/DTD/svg11.dtd">
<svg version="1.1" xmlns="http://www.w3.org/2000/svg" xmlns:xlink="http://www.w3.org/1999/xlink" x="0" y="0" width="283.5" height="283.5" viewBox="0, 0, 283.5, 283.5">
  <g id="Background">
    <rect x="0" y="0" width="283.5" height="283.5" fill="#FFFFFF"/>
  </g>
  <g id="Layer_1">
    <path d="M63.5,206.3 C67.5,206.3 71.4,209.1 72.7,212.8 L77.5,226.3 C83.1,227 87.4,231.7 87.4,237.5 L87.4,250.7 C87.4,257 82.3,262.1 76,262.1 L75.5,262.1 L75.5,269.1 C75.5,271.4 73.7,273.2 71.4,273.2 C69.1,273.2 67.3,271.4 67.3,269.1 L67.3,262.1 L20.1,262.1 L20.1,269.1 C20.1,271.4 18.3,273.2 16,273.2 C13.7,273.2 11.9,271.4 11.9,269.1 L11.9,262.1 L11.4,262.1 C5.1,262.1 -0,257 -0,250.7 L-0,237.5 C-0,231.7 4.3,227 9.9,226.3 L14.7,212.8 C16.1,209.1 20,206.3 23.9,206.3 L63.5,206.3 z M76,234.3 L11.4,234.3 C9.6,234.3 8.2,235.8 8.2,237.5 L8.2,250.7 C8.2,252.5 9.7,253.9 11.4,253.9 L76,253.9 C77.8,253.9 79.2,252.4 79.2,250.7 L79.2,237.5 C79.2,235.7 77.7,234.3 76,234.3 z M71.4,239.1 C74.4,239.1 76.8,241.5 76.7,244.4 C76.7,247.3 74.3,249.7 71.4,249.7 C68.5,249.7 66.1,247.3 66.1,244.4 C66.1,241.5 68.5,239.1 71.4,239.1 z M16,239.1 C18.9,239.1 21.3,241.5 21.3,244.4 C21.3,247.3 18.9,249.7 16,249.7 C13.1,249.7 10.7,247.3 10.7,244.4 C10.7,241.5 13.1,239.1 16,239.1 z M63.5,214.6 L23.9,214.6 C23.5,214.6 22.6,215.1 22.5,215.6 L18.7,226.2 L68.7,226.2 L64.9,215.6 C64.8,215.2 63.9,214.6 63.5,214.6 z M162.6,118.7 C163,118.7 163.9,119.3 164,119.7 L167.8,130.3 L117.8,130.3 L121.6,119.7 C121.7,119.3 122.5,118.7 123,118.7 L162.6,118.7 z M170.5,143.3 C167.6,143.3 165.2,145.7 165.2,148.6 C165.2,151.5 167.6,153.9 170.5,153.9 C173.4,153.9 175.8,151.5 175.8,148.6 C175.8,145.7 173.4,143.3 170.5,143.3 z M115.1,143.3 C112.2,143.3 109.8,145.7 109.8,148.6 C109.8,151.5 112.2,153.9 115.1,153.9 C118,153.9 120.4,151.5 120.4,148.6 C120.4,145.7 118,143.3 115.1,143.3 z M175.1,138.5 C176.8,138.5 178.3,139.9 178.3,141.7 L178.3,154.9 C178.3,156.6 176.9,158.1 175.1,158.1 L110.5,158.1 C108.8,158.1 107.3,156.7 107.3,154.9 L107.3,141.7 C107.3,140 108.7,138.5 110.5,138.5 L175.1,138.5 z M162.5,110.5 L123,110.5 C119.1,110.5 115.2,113.3 113.8,117 L109,130.5 C103.4,131.2 99.1,136 99.1,141.7 L99.1,154.9 C99.1,161.2 104.2,166.3 110.5,166.3 L111,166.3 L111,173.3 C111,175.6 112.8,177.4 115.1,177.4 C117.4,177.4 119.2,175.6 119.2,173.3 L119.2,166.3 L166.4,166.3 L166.4,173.3 C166.4,175.6 168.2,177.4 170.5,177.4 C172.8,177.4 174.6,175.6 174.6,173.3 L174.6,166.3 L175.1,166.3 C181.4,166.3 186.5,161.2 186.5,154.9 L186.5,141.7 C186.5,135.9 182.1,131.2 176.5,130.5 L171.7,117 C170.4,113.3 166.5,110.5 162.5,110.5 z M142.8,76.3 C180.1,76.3 210.5,106.7 210.5,144 C210.5,162.1 203.5,179.1 190.7,191.9 C177.9,204.6 160.9,211.7 142.8,211.7 C105.5,211.7 75.1,181.3 75.1,144 C75.1,106.7 105.5,76.3 142.8,76.3 z M142.8,62.6 C97.8,62.6 61.4,99.1 61.4,144 C61.4,189 97.9,225.4 142.8,225.4 C162.8,225.4 181.1,218.2 195.3,206.2 L252,262.9 C253.3,264.2 255.1,264.9 256.8,264.9 C258.6,264.9 260.3,264.2 261.6,262.9 C264.3,260.2 264.3,255.9 261.6,253.2 L205,196.5 C217,182.3 224.2,164 224.2,144 C224.2,99 187.7,62.6 142.8,62.6 z M259.5,18.5 C259.9,18.5 260.8,19.1 260.9,19.5 L264.7,30.1 L214.7,30.1 L218.5,19.5 C218.7,19.1 219.5,18.5 219.9,18.5 L259.5,18.5 z M267.5,43.1 C264.6,43.1 262.2,45.5 262.2,48.4 C262.2,51.3 264.6,53.7 267.5,53.7 C270.4,53.7 272.8,51.3 272.8,48.4 C272.8,45.5 270.4,43.1 267.5,43.1 z M212,43.1 C209.1,43.1 206.7,45.5 206.7,48.4 C206.7,51.3 209.1,53.7 212,53.7 C214.9,53.7 217.3,51.3 217.3,48.4 C217.4,45.5 215,43.1 212,43.1 z M272,38.3 C273.7,38.3 275.2,39.7 275.2,41.5 L275.2,54.6 C275.2,56.3 273.8,57.8 272,57.8 L207.3,57.8 C205.6,57.8 204.1,56.4 204.1,54.6 L204.1,41.5 C204.1,39.8 205.5,38.3 207.3,38.3 L272,38.3 z M259.5,10.2 L219.9,10.2 C216,10.2 212.1,13 210.7,16.7 L206,30.2 C200.4,30.9 196.1,35.7 196.1,41.4 L196.1,54.6 C196.1,60.9 201.2,66 207.5,66 L208,66 L208,73 C208,75.3 209.8,77.1 212.1,77.1 C214.4,77.1 216.2,75.3 216.2,73 L216.2,66 L263.4,66 L263.4,73 C263.4,75.3 265.2,77.1 267.5,77.1 C269.8,77.1 271.6,75.3 271.6,73 L271.6,66 L272.1,66 C278.4,66 283.5,60.9 283.5,54.6 L283.5,41.5 C283.5,35.7 279.1,30.9 273.5,30.2 L268.7,16.7 C267.4,13 263.5,10.2 259.5,10.2 z" fill="#000000"/>
  </g>
</svg>
