<?xml version="1.0" encoding="UTF-8"?>
<!DOCTYPE svg PUBLIC "-//W3C//DTD SVG 1.1//EN" "http://www.w3.org/Graphics/SVG/1.1/DTD/svg11.dtd">
<svg version="1.1" xmlns="http://www.w3.org/2000/svg" xmlns:xlink="http://www.w3.org/1999/xlink" x="0" y="0" width="283.5" height="283.5" viewBox="0, 0, 283.5, 283.5">
  <g id="Background">
    <rect x="0" y="0" width="283.5" height="283.5" fill="#FFFFFF"/>
  </g>
  <g id="Layer_1">
    <path d="M239.342,153.552 C245.103,153.488 249.038,155.712 253.323,159.286 C253.759,159.675 255.022,160.842 255.101,160.914 C255.79,161.522 255.509,161.293 255.927,161.624 C265.297,160.536 273.366,164.031 277.451,172.697 C279.877,178.446 279.668,185.776 277.628,190.832 C276.493,193.644 272.213,197.979 264.095,205.266 C256.881,211.743 247.671,219.479 238.308,226.885 C214.736,245.532 194.886,258.664 183.81,261.671 C175.136,264.037 164.144,264.417 148.632,263.535 C145.205,263.34 141.919,263.111 136.83,262.727 C117.468,261.268 111.224,261.101 107.771,262.261 C106.092,262.826 104.137,263.767 101.981,265.048 C99.371,266.6 96.552,268.594 93.62,270.924 C90.837,273.137 88.112,275.522 85.571,277.907 C84.682,278.741 83.881,279.514 83.184,280.204 C82.775,280.609 82.498,280.889 82.367,281.024 C79.869,283.602 75.754,283.666 73.176,281.167 C70.598,278.669 70.534,274.554 73.033,271.976 C73.225,271.778 73.565,271.433 74.04,270.963 C74.817,270.195 75.699,269.343 76.674,268.428 C79.459,265.815 82.445,263.201 85.531,260.748 C88.89,258.078 92.174,255.754 95.34,253.873 C98.231,252.155 100.99,250.826 103.629,249.939 C109.639,247.919 115.356,248.072 137.807,249.764 C142.822,250.142 146.042,250.367 149.37,250.556 C163.557,251.363 173.455,251.02 180.397,249.127 C189.098,246.765 208.19,234.135 230.242,216.69 C239.399,209.446 248.404,201.883 255.411,195.593 C258.711,192.63 261.438,190.064 263.375,188.102 C264.296,187.17 265.014,186.399 265.495,185.829 C265.625,185.677 265.559,185.662 265.657,185.708 C266.51,183.127 266.346,180.298 265.474,177.752 C264.169,174.715 261.045,174.324 258.106,174.485 L185.769,229.562 C181.939,234.189 176.413,236.241 170.579,236.789 C164.894,237.121 156.28,236.696 145.36,235.694 C141.662,235.355 137.781,234.956 133.78,234.51 C129.134,233.991 124.567,233.436 120.27,232.881 C118.765,232.686 117.401,232.506 116.201,232.343 C115.78,232.286 115.41,232.236 115.092,232.192 C114.9,232.165 114.77,232.147 114.697,232.137 C111.142,231.638 108.664,228.352 109.163,224.797 C109.662,221.242 112.948,218.764 116.503,219.263 C116.561,219.271 116.686,219.289 116.869,219.314 C117.175,219.356 117.535,219.405 117.945,219.461 C119.119,219.62 120.458,219.797 121.936,219.988 C126.162,220.534 130.656,221.08 135.222,221.59 C139.143,222.027 142.94,222.418 146.547,222.749 C156.853,223.694 164.969,224.095 169.821,223.811 C172.706,223.633 173.532,223.036 175.693,221.362 C176.064,220.716 175.85,220.967 176.28,220.566 C177.438,218.779 177,219.679 177.66,217.899 C178.624,214.678 177.94,211.166 176.474,209.765 C176.004,209.309 174.059,208.584 170.934,208.033 C167.79,207.479 163.946,207.139 158.404,206.86 C157.109,206.795 156.577,206.771 153.581,206.639 C143.158,206.18 139.173,205.818 135.481,204.545 C132.84,203.634 130.682,202.323 128.084,200.296 C127.5,199.841 125.346,198.095 124.832,197.693 C119.413,193.459 114.566,191.876 104.623,192.679 C98.327,193.187 85.206,200.418 68.39,212.434 C64.828,214.979 61.135,217.71 57.338,220.6 C49.014,226.936 40.576,233.734 32.466,240.534 C29.626,242.914 27.032,245.123 24.738,247.104 C23.936,247.796 23.231,248.409 22.627,248.937 C22.267,249.251 22.024,249.465 21.903,249.572 C19.212,251.948 15.104,251.693 12.728,249.003 C10.352,246.312 10.607,242.204 13.297,239.828 C13.336,239.794 13.336,239.794 13.5,239.649 C13.662,239.507 13.853,239.339 14.073,239.148 C14.696,238.604 15.421,237.973 16.242,237.264 C18.583,235.244 21.225,232.994 24.114,230.571 C32.37,223.65 40.962,216.727 49.464,210.256 C53.362,207.289 57.159,204.481 60.833,201.856 C79.705,188.372 93.999,180.494 103.577,179.721 C116.89,178.646 124.931,181.273 132.836,187.45 C133.473,187.948 135.621,189.689 136.079,190.046 C137.645,191.267 138.683,191.898 139.719,192.255 C141.662,192.925 145.428,193.268 154.153,193.652 C157.181,193.785 157.723,193.81 159.056,193.876 C164.163,194.176 169.304,194.41 174.341,195.375 C176.688,195.824 176.531,195.777 177.689,196.171 C179.397,194.716 181.116,193.273 182.835,191.83 C188.953,186.705 195.213,181.579 201.26,176.787 C202.637,175.696 203.99,174.633 205.317,173.6 C221.114,161.299 231.203,154.552 236.908,153.761 L239.342,153.552 z M239.513,166.562 L238.692,166.638 C237.935,166.743 234.55,168.548 229.998,171.592 C225.446,174.636 219.792,178.805 213.304,183.857 C212.007,184.867 210.682,185.908 209.333,186.977 C203.388,191.687 197.217,196.741 191.183,201.796 C189.21,203.452 190.147,202.663 188.371,204.163 C189.407,205.852 190.112,207.705 190.458,209.652 L244.292,168.664 C242.518,167.099 241.784,166.763 239.513,166.562 z M130.45,124.58 L137.542,139.109 L130.486,145.091 L123.366,139.094 L130.45,124.58 z M144.231,75.503 L143.666,75.594 C142.861,75.549 143.278,75.5 142.423,75.794 C141.56,75.933 141.938,75.785 141.271,76.191 C140.532,76.445 140.889,76.249 140.23,76.825 C139.459,77.294 139.762,77.004 139.283,77.653 C138.521,78.318 138.952,77.867 138.159,79.149 L138.124,79.22 C138.12,79.225 138.122,79.222 138.119,79.229 L130.45,94.942 L122.78,79.229 C122.778,79.222 122.78,79.225 122.776,79.22 L122.741,79.149 C121.948,77.867 122.378,78.318 121.617,77.653 C121.138,77.004 121.441,77.294 120.67,76.825 C120.011,76.249 120.367,76.445 119.629,76.191 C118.962,75.785 119.34,75.933 118.477,75.794 C117.622,75.5 118.039,75.549 117.233,75.594 C116.236,75.433 116.858,75.477 115.365,75.684 L115.297,75.702 C115.275,75.703 115.288,75.701 115.258,75.712 C87.074,83.205 66.636,108.316 66.6,137.8 C66.6,143.74 67.437,149.623 69.041,155.352 C70.009,158.809 73.596,160.827 77.052,159.859 C80.509,158.891 82.527,155.304 81.559,151.847 C80.269,147.24 79.6,142.534 79.6,137.8 C80.052,116.731 93.015,96.616 113.489,89.83 L123.217,109.761 L109.459,137.949 C108.948,139.332 109.027,138.746 108.976,139.658 C108.755,140.367 108.823,139.951 108.906,140.92 C108.854,141.853 108.777,141.455 109.01,142.13 C109.071,142.842 108.98,142.447 109.405,143.279 C109.721,144.198 109.491,143.845 109.98,144.404 C110.396,145.218 110.086,144.714 111.113,145.772 L126.313,158.572 C128.739,160.615 132.284,160.609 134.703,158.558 L149.803,145.758 C150.824,144.699 150.518,145.202 150.927,144.396 C151.411,143.842 151.18,144.195 151.499,143.269 C151.924,142.43 151.836,142.825 151.894,142.12 C152.124,141.452 152.046,141.849 151.994,140.91 C152.074,139.934 152.144,140.349 151.923,139.647 C151.873,138.746 151.951,139.329 151.441,137.949 L137.683,109.761 L147.411,89.83 C167.632,96.62 181.187,116.722 181.3,137.8 C181.3,142.534 180.631,147.24 179.341,151.847 C178.373,155.304 180.391,158.891 183.847,159.859 C187.304,160.827 190.891,158.809 191.859,155.352 C193.464,149.623 194.3,143.74 194.3,137.8 C193.674,108.672 174.326,82.747 145.641,75.712 C145.612,75.701 145.625,75.703 145.604,75.702 L145.535,75.684 L144.231,75.503 z M130.5,13.9 C143.423,13.9 153.9,24.377 153.9,37.3 C153.9,50.223 143.423,60.7 130.5,60.7 C117.577,60.7 107.1,50.223 107.1,37.3 C107.1,24.377 117.577,13.9 130.5,13.9 z M130.5,0.9 C110.397,0.9 94.1,17.197 94.1,37.3 C94.1,57.403 110.397,73.7 130.5,73.7 C150.603,73.7 166.9,57.403 166.9,37.3 C166.9,17.197 150.603,0.9 130.5,0.9 z" fill="#1D1D1B"/>
  </g>
</svg>
