<?xml version="1.0" encoding="UTF-8"?>
<!DOCTYPE svg PUBLIC "-//W3C//DTD SVG 1.1//EN" "http://www.w3.org/Graphics/SVG/1.1/DTD/svg11.dtd">
<svg version="1.1" xmlns="http://www.w3.org/2000/svg" xmlns:xlink="http://www.w3.org/1999/xlink" x="0" y="0" width="283.5" height="283.5" viewBox="0, 0, 283.5, 283.5">
  <g id="Background">
    <rect x="0" y="0" width="283.5" height="283.5" fill="#FFFFFF"/>
  </g>
  <g id="Layer_1">
    <path d="M249.7,0 C253.4,0 256.5,3 256.5,6.8 L256.5,222.8 C256.5,226.5 253.5,229.6 249.7,229.6 L176.8,229.6 L147.6,280.2 C146.4,282.2 144.1,283.5 141.7,283.5 C139.3,283.5 137.1,282.2 135.8,280.1 L106.6,229.5 L33.8,229.5 C30.1,229.5 27,226.5 27,222.7 L27,6.8 C27,3 30,0 33.8,0 L249.7,0 z M242.9,13.5 L40.5,13.5 L40.5,215.9 L110.5,215.9 C112.9,215.9 115.1,217.2 116.4,219.3 L141.7,263.1 L167,219.3 C168.2,217.2 170.4,215.9 172.9,215.9 L242.9,215.9 L242.9,13.5 z M141.6,28.7 C161.5,28.7 180.3,36.5 194.4,50.6 C223.5,79.7 223.5,127.1 194.4,156.3 L146.3,204.4 C145.2,205.7 143.5,206.4 141.7,206.4 C139.9,206.4 138.2,205.7 136.9,204.4 L88.8,156.3 C59.7,127.2 59.7,79.8 88.8,50.6 C102.9,36.5 121.7,28.7 141.6,28.7 z M141.7,42.4 C125.4,42.4 110,48.8 98.4,60.3 C74.5,84.2 74.5,123 98.4,146.8 L141.7,190.1 L185,146.8 C208.8,123 208.8,84.1 185,60.3 C173.4,48.7 158.1,42.4 141.7,42.4 z M141.7,80.3 C147.9,80.3 153.7,82.7 158.1,87.1 C162.5,91.5 164.9,97.3 164.9,103.5 C164.9,109.7 162.5,115.5 158.1,119.9 C153.7,124.3 147.9,126.7 141.7,126.7 C135.5,126.7 129.7,124.3 125.3,119.9 C120.9,115.5 118.5,109.7 118.5,103.5 C118.5,97.3 120.9,91.5 125.3,87.1 C129.7,82.7 135.5,80.3 141.7,80.3 z M141.7,93.9 C139.1,93.9 136.7,94.9 134.9,96.7 C133.1,98.5 132.1,100.9 132.1,103.5 C132.1,106.1 133.1,108.5 134.9,110.3 C138.5,114 144.9,113.9 148.5,110.3 C150.3,108.5 151.3,106.1 151.3,103.5 C151.3,100.9 150.3,98.5 148.5,96.7 C146.7,94.9 144.3,93.9 141.7,93.9 z" fill="#000000"/>
  </g>
</svg>
