<?xml version="1.0" encoding="UTF-8"?>
<!DOCTYPE svg PUBLIC "-//W3C//DTD SVG 1.1//EN" "http://www.w3.org/Graphics/SVG/1.1/DTD/svg11.dtd">
<svg version="1.1" xmlns="http://www.w3.org/2000/svg" xmlns:xlink="http://www.w3.org/1999/xlink" x="0" y="0" width="283.5" height="283.5" viewBox="0, 0, 283.5, 283.5">
  <g id="Background">
    <rect x="0" y="0" width="283.5" height="283.5" fill="#FFFFFF"/>
  </g>
  <g id="Layer_1">
    <path d="M141.8,0 C163.4,0 180.9,17.5 180.9,39.1 L180.9,51.8 L268.2,51.8 C272.6,51.8 276.2,55.4 276.1,59.9 C276.1,64.3 272.5,67.9 268.1,67.9 L243,67.9 L243,242.2 C243,264.9 224.5,283.4 201.8,283.4 L81.6,283.4 C58.9,283.4 40.4,264.9 40.4,242.2 L40.4,67.8 L15.3,67.8 C10.9,67.8 7.3,64.2 7.3,59.8 C7.3,55.4 10.9,51.8 15.3,51.8 L102.7,51.8 L102.7,39.1 C102.7,17.5 120.2,0 141.8,0 z M227,67.9 L56.5,67.9 L56.5,242.3 C56.5,256.1 67.7,267.4 81.6,267.4 L201.9,267.4 C215.7,267.4 227,256.2 227,242.3 L227,67.9 z M172.8,92 C177.2,92 180.8,95.6 180.8,100 L180.8,235.3 C180.8,239.7 177.2,243.3 172.8,243.3 C168.4,243.3 164.8,239.7 164.8,235.3 L164.8,100 C164.8,95.5 168.4,92 172.8,92 z M110.6,91.9 C115.1,91.9 118.7,95.5 118.6,100 L118.6,235.2 C118.6,239.6 115,243.2 110.6,243.2 C106.2,243.2 102.6,239.6 102.6,235.2 L102.6,99.9 C102.6,95.5 106.2,91.9 110.6,91.9 z M141.8,16 C129.1,16 118.7,26.4 118.7,39.1 L118.8,39.1 L118.8,51.8 L164.9,51.8 L164.9,39.1 C164.9,26.3 154.5,16 141.8,16 z" fill="#010202"/>
  </g>
</svg>
