<?xml version="1.0" encoding="UTF-8"?>
<!DOCTYPE svg PUBLIC "-//W3C//DTD SVG 1.1//EN" "http://www.w3.org/Graphics/SVG/1.1/DTD/svg11.dtd">
<svg version="1.1" xmlns="http://www.w3.org/2000/svg" xmlns:xlink="http://www.w3.org/1999/xlink" x="0" y="0" width="283.5" height="283.5" viewBox="0, 0, 283.5, 283.5">
  <g id="Background">
    <rect x="0" y="0" width="283.5" height="283.5" fill="#FFFFFF"/>
  </g>
  <g id="Layer_1">
    <path d="M141.3,-0 C143.4,0 145.3,1 146.6,2.6 C147.2,3.3 207.5,79.5 233.8,118.5 C261.2,159.1 254.5,215.1 217.8,251.7 C197.4,272.1 170.2,283.4 141.2,283.4 C112.3,283.4 85.1,272.2 64.6,251.7 C29.2,216.3 22.6,160.2 48.9,118.2 C73.2,79.5 133.4,5.6 136,2.5 C137.3,0.9 139.3,-0.1 141.3,-0 z M141.2,17.6 C125.6,36.9 80.1,94 60.4,125.4 C37.4,162.1 43.2,211.2 74.2,242.2 C92.1,260.1 116,270 141.3,270 C166.7,270 190.5,260.1 208.4,242.2 C240.4,210.2 246.3,161.3 222.6,126.1 C201.1,94.2 156.4,37 141.2,17.6 z M138.9,137.2 C156.1,137.2 170,151.2 170,168.4 C170,185.6 156,199.5 138.9,199.5 L125.3,199.5 C121.5,199.5 118.5,196.4 118.5,192.7 L118.5,144 C118.5,140.2 121.6,137.2 125.3,137.2 L138.9,137.2 z M138.9,150.8 L132,150.8 L132,185.9 L138.9,185.9 C148.6,185.9 156.5,178 156.5,168.4 C156.5,158.7 148.6,150.8 138.9,150.8 z" fill="#010202"/>
  </g>
</svg>
