<?xml version="1.0" encoding="UTF-8"?>
<!DOCTYPE svg PUBLIC "-//W3C//DTD SVG 1.1//EN" "http://www.w3.org/Graphics/SVG/1.1/DTD/svg11.dtd">
<svg version="1.1" xmlns="http://www.w3.org/2000/svg" xmlns:xlink="http://www.w3.org/1999/xlink" x="0" y="0" width="283.5" height="283.5" viewBox="0, 0, 283.5, 283.5">
  <g id="Background">
    <rect x="0" y="0" width="283.5" height="283.5" fill="#FFFFFF"/>
  </g>
  <g id="Layer_1">
    <path d="M42.618,-0.09 C45.207,-0.06 46.692,0.773 48.4,2.6 L102.6,74 C103.96,75.877 104.293,78.041 103.636,80.274 C103.485,80.788 103.098,81.2 102.829,81.663 C102.73,81.909 102.796,81.799 102.636,81.995 C102.08,82.953 102.469,82.407 101.3,83.5 L52.463,132.337 C66.318,151.143 82.124,168.385 98.5,185 C114.801,201.679 132.673,216.641 151.048,230.952 L199.9,182.1 C201.064,180.855 200.446,181.32 201.674,180.607 C202.261,180.241 202.024,180.311 202.314,180.235 C203.869,179.332 202.816,179.807 205.682,179.41 C208.671,180.189 207.48,179.611 209.4,180.8 L280.8,235 C283.8,237.3 284.4,241.5 282.1,244.5 C281.406,245.34 281.788,244.959 280.955,245.645 L250.838,275.762 L250.4,276.3 C245.5,281.2 238.8,283.5 230.8,283.5 C196.2,283.5 136.8,242.4 89,194.6 C30,135.6 -18.8,59 7.1,33.1 L7.1,33.1 L37.797,2.403 C38.12,1.846 37.844,2.287 38.9,1.3 C40.82,0.111 39.629,0.689 42.618,-0.09 z M205.861,195.138 L162.068,238.931 C170.94,245.271 180.286,250.893 189.8,256.2 C201.171,262.036 213.069,268.058 225.93,269.668 C230.837,270.282 236.566,270.333 240.602,267.043 L240.8,266.8 L266.461,241.139 L205.861,195.138 z M42.268,16.949 L16.7,42.6 L16.368,42.859 C9.053,52.015 16.658,70.435 20.323,79.064 C26.662,93.992 35.156,108.081 44.499,121.301 L88.261,77.538 L42.268,16.949 z" fill="#010202"/>
  </g>
</svg>
