<?xml version="1.0" encoding="UTF-8"?>
<!DOCTYPE svg PUBLIC "-//W3C//DTD SVG 1.1//EN" "http://www.w3.org/Graphics/SVG/1.1/DTD/svg11.dtd">
<svg version="1.1" xmlns="http://www.w3.org/2000/svg" xmlns:xlink="http://www.w3.org/1999/xlink" x="0" y="0" width="283.5" height="283.5" viewBox="0, 0, 283.5, 283.5">
  <g id="Background">
    <rect x="0" y="0" width="283.5" height="283.5" fill="#FFFFFF"/>
  </g>
  <g id="Layer_1">
    <path d="M221.9,189 L221.9,198.4 C224.1,198.8 226.2,199.3 228.3,200.1 L232.9,192.1 L244.6,198.8 L240,206.7 C241.7,208.1 243.3,209.7 244.7,211.4 L252.6,206.8 L259.3,218.5 L251.4,223.1 C252.1,225.1 252.7,227.3 253.1,229.5 L262.3,229.5 L262.3,243 L253,243 C252.6,245.2 252.1,247.3 251.3,249.4 L259.2,254 L252.5,265.7 L244.6,261.1 C243.2,262.8 241.6,264.4 239.9,265.8 L244.5,273.7 L232.8,280.4 L228.2,272.4 C226.2,273.1 224,273.7 221.8,274.1 L221.8,283.3 L208.3,283.3 L208.3,274.1 C206.1,273.7 204,273.2 201.9,272.4 L197.3,280.4 L185.6,273.7 L190.2,265.8 C188.5,264.4 186.9,262.8 185.5,261.1 L177.6,265.7 L170.9,254 L178.9,249.4 C178.2,247.4 177.6,245.2 177.2,243 L168,243 L168,229.4 L177.2,229.4 C177.6,227.2 178.1,225.1 178.9,223 L171,218.4 L177.7,206.7 L185.6,211.3 C186.3,210.4 187,209.6 187.8,208.8 L190.3,206.6 L185.7,198.7 L197.4,192 L202,199.9 C204,199.2 206.2,198.6 208.4,198.2 L208.4,189 L221.9,189 z M215,211 C208.3,211 202,213.6 197.2,218.4 C192.4,223.1 189.8,229.5 189.8,236.2 C189.8,250.1 201.1,261.4 215,261.4 C228.9,261.4 240.2,250.1 240.2,236.2 C240.2,222.3 228.9,211 215,211 z M215,228.1 C219.5,228.1 223.1,231.7 223.1,236.2 C223.1,240.7 219.5,244.3 215,244.3 C210.5,244.3 206.9,240.7 206.9,236.2 C206.9,231.7 210.5,228.1 215,228.1 z M155.6,256.5 L53,256.5 C49.3,256.5 46.3,259.5 46.3,263.2 C46.3,266.9 49.3,269.9 53,269.9 L155.6,269.9 C159.3,269.9 162.3,266.9 162.3,263.2 C162.4,259.5 159.4,256.5 155.6,256.5 z M154.3,23 L198.8,67.5 L154.3,67.5 L154.3,23 z M147.5,-0 L26,-0 C22.3,-0 19.3,3 19.3,6.7 L19.3,236.2 C19.3,239.9 22.3,242.9 26,242.9 L150.2,242.9 C154,243 157,240 157,236.2 C157,232.5 154,229.5 150.3,229.5 L32.8,229.5 L32.8,13.5 L140.8,13.5 L140.8,74.2 C140.8,77.9 143.8,80.9 147.5,80.9 L208.2,80.9 L208.2,170.2 C208.2,173.9 211.2,176.9 214.9,176.9 C218.6,176.9 221.6,173.9 221.6,170.2 L221.6,74.2 C221.6,73.7 221.6,73.3 221.5,72.8 C221.5,72.7 221.4,72.5 221.4,72.4 C221.3,72.1 221.2,71.8 221.1,71.5 L220.8,71 C220.7,70.8 220.6,70.6 220.4,70.4 C220.2,70.1 220,69.8 219.7,69.6 C219.6,69.5 219.6,69.5 219.6,69.4 L152.3,2 L152.2,1.9 C151.9,1.6 151.6,1.4 151.3,1.2 C151.1,1.1 150.9,1 150.7,0.9 C150.5,0.8 150.3,0.7 150.1,0.6 C149.9,0.5 149.6,0.4 149.4,0.4 C149.2,0.3 149,0.3 148.9,0.2 C148.4,-0 148,-0 147.5,-0 z M242,92.9 C238.3,92.9 235.3,95.9 235.3,99.6 L235.3,176.8 C235.3,180.6 238.3,183.6 242,183.6 C245.7,183.6 248.7,180.6 248.7,176.9 L248.7,99.6 C248.7,95.9 245.7,92.9 242,92.9 z M120.5,162 L66.5,162 C62.8,162 59.8,165 59.8,168.7 C59.8,172.4 62.8,175.4 66.5,175.4 L120.5,175.4 C124.2,175.4 127.2,172.4 127.2,168.7 C127.2,165 124.2,162 120.5,162 z M174.6,135 L66.6,135 C62.9,135 59.9,138 59.9,141.7 C59.9,145.4 62.9,148.4 66.6,148.4 L174.6,148.4 C178.2,148.5 181.3,145.4 181.3,141.7 C181.3,138 178.3,135 174.6,135 z M174.5,108 L66.5,108 C62.8,108 59.8,111 59.8,114.7 C59.8,118.4 62.8,121.4 66.5,121.4 L174.5,121.4 C178.2,121.4 181.2,118.4 181.2,114.7 C181.3,111 178.2,108 174.5,108 z" fill="#000000"/>
  </g>
</svg>
