<?xml version="1.0" encoding="UTF-8"?>
<!DOCTYPE svg PUBLIC "-//W3C//DTD SVG 1.1//EN" "http://www.w3.org/Graphics/SVG/1.1/DTD/svg11.dtd">
<svg version="1.1" xmlns="http://www.w3.org/2000/svg" xmlns:xlink="http://www.w3.org/1999/xlink" x="0" y="0" width="283.5" height="283.5" viewBox="0, 0, 283.5, 283.5">
  <g id="Background">
    <rect x="0" y="0" width="283.5" height="283.5" fill="#FFFFFF"/>
  </g>
  <g id="Layer_1">
    <path d="M103.265,232.559 C106.121,232.723 107.88,234.252 109.3,236.6 C110.7,239.9 109.1,243.7 105.7,245.1 C97.5,248.4 93.8,252.3 93.8,254.7 C93.8,257.1 97.5,261 105.7,264.3 C125.3,272.2 158.3,272.2 177.9,264.3 C186.1,261 189.8,257.1 189.8,254.7 C189.8,252.3 186.1,248.4 177.9,245.1 C174.6,243.8 172.9,240 174.3,236.6 C175.6,233.3 179.4,231.6 182.8,233 C200.2,240.1 202.8,249.6 202.9,254.7 C202.9,259.7 200.3,269.3 182.8,276.4 C171.3,281.1 156.6,283.4 141.8,283.4 C127.1,283.4 112.3,281.1 100.8,276.4 C83.3,269.3 80.7,259.8 80.7,254.7 C80.7,249.7 83.3,240.1 100.8,233 L102.055,232.613 L103.265,232.559 z M141.7,68 C146.7,68 150.8,72.1 150.8,77.1 C150.8,82.1 146.7,86.2 141.7,86.2 C136.7,86.2 132.6,82.1 132.6,77.1 C132.6,72 136.7,68 141.7,68 z M141.7,54.9 C129.5,54.9 119.5,64.9 119.5,77.1 C119.5,89.3 129.5,99.3 141.7,99.3 C153.9,99.3 163.9,89.3 163.9,77.1 C163.9,64.9 153.9,54.9 141.7,54.9 z M141.7,122.1 C154.6,122.1 165.1,132.6 165.1,145.5 C165.1,146.1 165,146.6 165,147.2 L118.4,147.2 L118.3,145.5 C118.3,132.6 128.8,122.1 141.7,122.1 z M141.7,109 C121.5,109 105.2,125.4 105.2,145.5 C105.2,148.9 105.7,152.3 106.6,155.6 L106.7,155.9 C106.8,156.1 106.9,156.3 107,156.6 C107.1,156.8 107.2,157 107.3,157.1 C107.4,157.3 107.5,157.5 107.6,157.6 L108,158.1 C108.1,158.2 108.3,158.4 108.4,158.5 C108.6,158.6 108.7,158.8 108.9,158.9 L109.4,159.2 C109.6,159.3 109.8,159.4 110,159.5 C110.2,159.6 110.4,159.7 110.6,159.7 C110.8,159.8 111,159.8 111.2,159.9 L111.8,160 C112,160 112.3,160.1 112.5,160.1 L170.5,160.1 C170.9,160.1 171.3,160.1 171.7,160 C171.8,160 171.9,159.9 172.1,159.9 C172.4,159.8 172.6,159.8 172.9,159.7 L173.3,159.5 C173.5,159.4 173.7,159.3 174,159.1 C174.1,159 174.2,159 174.4,158.9 C174.7,158.7 174.9,158.5 175.1,158.3 L175.3,158.1 C175.6,157.8 175.8,157.5 176,157.2 C176.1,157.1 176.1,157 176.1,156.9 C176.3,156.7 176.4,156.4 176.5,156.1 L176.9,155.3 C177.8,152 178.3,148.6 178.3,145.2 C178.3,125.4 161.9,109 141.7,109 z M141.7,13.2 C166.3,13.2 189.4,22.8 206.7,40.1 C242.6,75.9 242.6,134.2 206.7,170.1 L141.7,235.1 L76.7,170.1 C40.9,134.2 40.9,75.9 76.7,40.1 C94.1,22.7 117.2,13.2 141.7,13.2 z M141.7,0 C113.6,0 87.2,10.9 67.4,30.8 C26.4,71.8 26.4,138.4 67.4,179.4 L141.7,253.7 L216,179.4 C257,138.4 257,71.7 216,30.8 C196.2,10.9 169.8,0 141.7,0 z" fill="#010202"/>
  </g>
</svg>
