<?xml version="1.0" encoding="UTF-8"?>
<!DOCTYPE svg PUBLIC "-//W3C//DTD SVG 1.1//EN" "http://www.w3.org/Graphics/SVG/1.1/DTD/svg11.dtd">
<svg version="1.1" xmlns="http://www.w3.org/2000/svg" xmlns:xlink="http://www.w3.org/1999/xlink" x="0" y="0" width="283.5" height="283.5" viewBox="0, 0, 283.5, 283.5">
  <g id="Background">
    <rect x="0" y="0" width="283.5" height="283.5" fill="#FFFFFF"/>
  </g>
  <g id="Layer_1">
    <path d="M178.3,0.3 C178.4,0.4 178.6,0.4 178.7,0.4 C178.9,0.4 179,0.5 179.1,0.5 L180,0.8 C180.1,0.8 180.2,0.8 180.3,0.9 C180.4,0.9 180.5,0.9 180.6,1 L181.2,1.4 C181.3,1.4 181.4,1.5 181.5,1.6 L267.2,87.3 C267.4,87.4 267.5,87.6 267.7,87.8 C267.8,87.8 267.8,87.9 267.9,88 C267.9,88.1 268,88.2 268.1,88.3 L268.7,89.2 L269.1,90.4 C269.1,90.5 269.2,90.6 269.2,90.7 C269.3,90.8 269.3,91 269.3,91.1 L269.3,276.7 C269.3,280.6 266.1,283.8 262.2,283.8 L21.3,283.8 C17.4,283.8 14.2,280.6 14.2,276.7 L14.2,7.4 C14.2,3.5 17.4,0.3 21.3,0.3 L178.3,0.3 z M170,14.2 L28.3,14.2 L28.3,269.3 L255.1,269.3 L255.1,99.3 L177.1,99.3 C173.2,99.3 170,96.1 170,92.2 L170,14.2 z M190,166.2 C195.6,166.2 200.3,167.1 205.2,169.2 C206.8,169.9 207.2,170.6 206.6,172 L204.6,177.2 C204.1,178.6 203.2,178.7 201.8,178.1 C198.3,176.6 194,175.5 190.6,175.5 C186.6,175.5 182,177.2 182,182 C182,185.5 185.2,187.5 188,188.9 L197.4,193.5 C204.1,196.8 208.7,201.3 208.7,209.1 C208.7,220.9 199.1,227.3 188,227.3 C182.9,227.3 176.9,226.4 171.8,224.6 C170.2,224 170.1,223.2 170.5,221.9 L172.3,216.4 C172.7,215 173.7,214.8 175.1,215.3 C179.1,216.8 183.5,217.9 187.8,217.9 C192.4,217.9 197.6,215.7 197.6,210.3 C197.6,206.3 194.7,204.2 191.4,202.6 L180.3,197.1 C174.3,194.2 170.3,189.1 170.3,182.5 C170.3,172.2 180.5,166.5 190,166.2 z M139.4,167.6 C140.9,167.6 141.5,168.2 141.5,169.8 L141.5,217.3 L163,217.3 C164.4,217.3 165,218 165,219.3 L165,224.4 C165,225.9 164.3,226.4 163,226.4 L133,226.4 C131.5,226.4 130.6,225.9 130.6,224 L130.6,169.7 C130.6,168.4 131.2,167.6 132.6,167.6 L139.4,167.6 z M85.1,167.5 C86.4,167.5 87.4,168.1 88.2,169.4 L98.7,187 L98.8,187 L109.5,169.2 C110.3,167.9 110.9,167.6 112.4,167.6 L120.1,167.6 C121.5,167.6 121.9,168.8 121.1,169.9 L104.3,195.3 L122.5,223.9 C123.3,225.3 122.7,226.4 121.2,226.4 L113.1,226.4 C111.5,226.4 110.6,225.8 109.8,224.5 L98.1,204.7 L98,204.7 L86.3,224.5 C85.5,225.9 84.7,226.4 82.9,226.4 L75.8,226.4 C74.3,226.4 73.9,225.3 74.7,224 L92.3,196.1 L75.9,169.8 C75.2,168.7 75.6,167.5 77,167.5 L85.1,167.5 z M184.3,24.2 L184.3,85 L245.1,85 L184.3,24.2 z" fill="#010202"/>
  </g>
</svg>
