<?xml version="1.0" encoding="UTF-8"?>
<!DOCTYPE svg PUBLIC "-//W3C//DTD SVG 1.1//EN" "http://www.w3.org/Graphics/SVG/1.1/DTD/svg11.dtd">
<svg version="1.1" xmlns="http://www.w3.org/2000/svg" xmlns:xlink="http://www.w3.org/1999/xlink" x="0" y="0" width="283.5" height="283.5" viewBox="0, 0, 283.5, 283.5">
  <g id="Background">
    <rect x="0" y="0" width="283.5" height="283.5" fill="#FFFFFF"/>
  </g>
  <g id="Layer_1">
    <path d="M178.3,0.3 C178.5,0.4 178.6,0.4 178.7,0.4 C178.9,0.4 179,0.5 179.1,0.5 L180,0.8 C180.1,0.8 180.2,0.8 180.3,0.9 C180.4,0.9 180.5,0.9 180.6,1 L181.2,1.4 C181.3,1.4 181.4,1.5 181.5,1.6 L267.2,87.3 C267.4,87.4 267.5,87.6 267.7,87.8 C267.8,87.8 267.8,87.9 267.9,88 C267.9,88.1 268,88.2 268.1,88.3 L268.5,88.9 C268.6,89 268.7,89.1 268.7,89.2 L269.1,90.4 C269.1,90.5 269.2,90.6 269.2,90.7 C269.3,90.8 269.3,91 269.3,91.1 L269.3,276.7 C269.3,280.6 266.1,283.8 262.2,283.8 L21.3,283.8 C17.4,283.8 14.2,280.6 14.2,276.7 L14.2,7.4 C14.2,3.5 17.4,0.3 21.3,0.3 L178.3,0.3 z M170,14.2 L28.3,14.2 L28.3,269.3 L255.1,269.3 L255.1,99.3 L177.1,99.3 C173.2,99.3 170,96.1 170,92.2 L170,14.2 z M198.5,216.9 C202.4,216.9 205.6,220.1 205.6,224 C205.6,227.9 202.4,231.1 198.5,231.1 L85.1,231.1 C81.2,231.1 78,227.9 78,224 C78,220.1 81.1,216.9 85,216.9 L198.5,216.9 z M141.7,124.2 C145.6,124.2 148.8,127.4 148.8,131.3 L148.8,174.3 L166.8,156.3 C169.6,153.5 174,153.5 176.6,156.5 C179.4,159.2 179.4,163.7 176.6,166.5 L146.5,196.6 C146.4,196.8 146.2,197 146,197.1 L145.9,197.2 C145.8,197.3 145.7,197.4 145.5,197.5 C145.5,197.6 145.4,197.6 145.4,197.6 L144.9,197.9 C144.9,197.9 144.8,197.9 144.8,197.9 C144.7,197.9 144.5,198 144.3,198.1 L144.2,198.1 C144,198.2 143.8,198.2 143.6,198.3 L143.5,198.3 C143.3,198.3 143.1,198.4 142.9,198.4 L142.7,198.4 C142.5,198.5 142.4,198.5 142.2,198.5 L140.8,198.5 C140.7,198.5 140.5,198.4 140.3,198.4 L140.2,198.4 C140,198.3 139.8,198.3 139.6,198.2 C139.4,198.2 139.2,198.1 139,198 L138.4,197.7 L137.9,197.4 C137.8,197.4 137.8,197.4 137.8,197.4 C137.6,197.2 137.5,197.1 137.3,197 C137.3,196.9 137.2,196.9 137.2,196.9 L106.6,166.3 C103.8,163.6 103.8,159.1 106.6,156.3 C109.3,153.5 113.8,153.5 116.6,156.3 L134.6,174.3 L134.6,131.3 C134.6,127.4 137.8,124.2 141.7,124.2 z M184.3,24.2 L184.3,85 L245.1,85 L184.3,24.2 z" fill="#010202"/>
  </g>
</svg>
