<?xml version="1.0" encoding="UTF-8"?>
<!DOCTYPE svg PUBLIC "-//W3C//DTD SVG 1.1//EN" "http://www.w3.org/Graphics/SVG/1.1/DTD/svg11.dtd">
<svg version="1.1" xmlns="http://www.w3.org/2000/svg" xmlns:xlink="http://www.w3.org/1999/xlink" x="0" y="0" width="283.5" height="283.5" viewBox="0, 0, 283.5, 283.5">
  <g id="Background">
    <rect x="0" y="0" width="283.5" height="283.5" fill="#FFFFFF"/>
  </g>
  <g id="Layer_1">
    <path d="M177.9,0 C178,0.1 178.1,0.1 178.2,0.1 C178.3,0.2 178.4,0.2 178.5,0.2 C178.7,0.2 178.8,0.3 178.9,0.3 L179.2,0.4 C179.4,0.4 179.5,0.5 179.6,0.5 L180.2,0.7 L181.7,1.7 L267.3,87.3 C267.5,87.4 267.6,87.6 267.7,87.7 L268.3,88.6 C268.4,88.7 268.5,88.8 268.5,88.9 L268.7,89.2 L269.1,90.4 C269.1,90.5 269.2,90.6 269.2,90.7 C269.3,90.8 269.3,91 269.3,91.1 L269.3,276.4 C269.3,280.3 266.1,283.5 262.2,283.5 L21.3,283.5 C17.4,283.5 14.2,280.3 14.2,276.4 L14.2,7.1 C14.2,3.2 17.4,0 21.3,0 L177.9,0 z M170,14.2 L28.3,14.2 L28.3,269.3 L255.1,269.3 L255.1,99.3 L177.1,99.3 C173.2,99.3 170,96.1 170,92.2 L170,14.2 z M121,167.6 C122.5,167.6 123,168.4 123,169.5 L123,171.5 C123,172.8 122.8,173.9 122,175.2 L94,217.5 L94,217.6 L122.2,217.6 C123.5,217.6 124.1,218 124.1,219.7 L124.1,224.5 C124.1,225.8 123.5,226.5 122,226.5 L81,226.5 C79.9,226.5 79.4,225.7 79.4,224.7 L79.4,222.1 C79.4,221.1 79.5,220.4 80.2,219.4 L108.3,176.6 L108.3,176.5 L83.4,176.5 C81.9,176.5 81.3,175.9 81.3,174.5 L81.3,169.3 C81.3,168.2 81.8,167.6 83,167.6 L121,167.6 z M181.3,167.6 C190.3,167.6 196.9,169.3 201.1,174.1 C203.9,177.3 205.4,181.6 205.4,186.2 C205.4,193 202.9,197.9 198.7,201.2 C194.4,204.5 188.8,205.9 181.7,205.9 L177.9,205.9 L177.9,224.5 C177.9,225.7 177.4,226.5 175.8,226.5 L169,226.5 C167.7,226.5 167,225.9 167,224.2 L167,169.9 C167,168.2 167.5,167.6 169,167.6 L181.3,167.6 z M182.4,176.1 L178,176.1 L178,197.4 L180.3,197.4 C185.2,197.4 189.3,197.1 191.9,194.3 C193.6,192.5 194.5,189.9 194.5,186.6 C194.5,178.8 189.7,176.1 182.4,176.1 z M153.9,167.6 C155.1,167.6 155.7,168.3 155.6,169.1 L155.6,172.8 C155.6,174.2 155,174.6 153.8,174.6 L149,174.6 L149,219.2 L153.7,219.2 C154.9,219.2 155.5,220 155.5,221 L155.5,224.7 C155.5,225.7 155.1,226.4 154,226.4 L133.6,226.4 C132.5,226.4 131.9,225.8 131.9,224.8 L131.9,221 C131.9,219.8 132.4,219.3 133.6,219.3 L138.2,219.3 L138.2,174.7 L133.3,174.7 C132.1,174.7 131.6,174.1 131.6,173 L131.6,169.3 C131.6,168.4 132.1,167.6 133.1,167.6 L153.9,167.6 z M184.3,24.2 L184.3,85 L245.1,85 L184.3,24.2 z" fill="#010202"/>
  </g>
</svg>
