<?xml version="1.0" encoding="UTF-8"?>
<!DOCTYPE svg PUBLIC "-//W3C//DTD SVG 1.1//EN" "http://www.w3.org/Graphics/SVG/1.1/DTD/svg11.dtd">
<svg version="1.1" xmlns="http://www.w3.org/2000/svg" xmlns:xlink="http://www.w3.org/1999/xlink" x="0" y="0" width="283.5" height="283.5" viewBox="0, 0, 283.5, 283.5">
  <g id="Background">
    <rect x="0" y="0" width="283.5" height="283.5" fill="#FFFFFF"/>
  </g>
  <g id="Layer_1">
    <path d="M177.9,0 C178,0.1 178.1,0.1 178.2,0.1 C178.3,0.2 178.4,0.2 178.5,0.2 C178.7,0.2 178.8,0.3 178.9,0.3 L179.2,0.4 C179.4,0.4 179.5,0.5 179.6,0.5 L180.2,0.7 L181.7,1.7 L267.3,87.3 C267.5,87.4 267.6,87.6 267.7,87.7 L268.3,88.6 C268.4,88.7 268.5,88.8 268.5,88.9 L268.7,89.2 L269.1,90.4 C269.1,90.5 269.2,90.6 269.2,90.7 C269.3,90.8 269.3,91 269.3,91.1 L269.3,276.4 C269.3,280.3 266.1,283.5 262.2,283.5 L21.3,283.5 C17.4,283.5 14.2,280.3 14.2,276.4 L14.2,7.1 C14.2,3.2 17.4,0 21.3,0 L177.9,0 z M170,14.2 L28.3,14.2 L28.3,269.3 L255.1,269.3 L255.1,99.3 L177.1,99.3 C173.2,99.3 170,96.1 170,92.2 L170,14.2 z M138.7,167.6 C147.7,167.6 154.3,169.3 158.4,174.1 C161.2,177.3 162.7,181.6 162.7,186.2 C162.7,193 160.2,197.9 156,201.2 C151.7,204.5 146.1,205.9 139,205.9 L135.2,205.9 L135.2,224.5 C135.2,225.7 134.7,226.5 133.1,226.5 L126.3,226.5 C125,226.5 124.3,225.9 124.3,224.2 L124.3,169.9 C124.3,168.2 124.8,167.6 126.4,167.6 L138.7,167.6 z M139.6,176 L135.2,176 L135.2,197.3 L137.5,197.3 C142.4,197.3 146.5,197 149.1,194.2 C150.8,192.4 151.7,189.9 151.7,186.5 C151.7,178.7 146.9,176 139.6,176 z M91.4,167.6 C100.4,167.6 107.1,169.3 111.1,174.1 C113.9,177.3 115.4,181.6 115.4,186.2 C115.4,193 112.9,197.9 108.7,201.2 C104.4,204.5 98.8,205.9 91.7,205.9 L87.9,205.9 L87.9,224.5 C87.9,225.7 87.4,226.5 85.8,226.5 L79,226.5 C77.7,226.5 77,225.9 77,224.2 L77,169.9 C77,168.2 77.5,167.6 79.1,167.6 L91.4,167.6 z M92.4,176 L88,176 L88,197.3 L90.3,197.3 C95.2,197.3 99.3,197 101.9,194.2 C103.5,192.4 104.4,189.9 104.5,186.5 C104.5,178.7 99.7,176 92.4,176 z M211.4,167.6 C213.5,167.6 214.1,168.1 213.9,169.7 L213.3,174.6 C213.2,176 212.4,176.4 210.7,176.4 L195.3,176.4 L195.3,224.3 C195.3,225.8 194.7,226.4 193.3,226.4 L186.4,226.4 C184.9,226.4 184.3,225.8 184.3,224.3 L184.3,176.4 L168.4,176.4 C166.9,176.4 166.4,175.8 166.4,174.4 L166.4,169.4 C166.4,168.1 167,167.6 168.3,167.6 L211.4,167.6 z M184.3,24.2 L184.3,85 L245.1,85 L184.3,24.2 z" fill="#010202"/>
  </g>
</svg>
