<?xml version="1.0" encoding="UTF-8"?>
<!DOCTYPE svg PUBLIC "-//W3C//DTD SVG 1.1//EN" "http://www.w3.org/Graphics/SVG/1.1/DTD/svg11.dtd">
<svg version="1.1" xmlns="http://www.w3.org/2000/svg" xmlns:xlink="http://www.w3.org/1999/xlink" x="0" y="0" width="283.5" height="283.5" viewBox="0, 0, 283.5, 283.5">
  <g id="Background">
    <rect x="0" y="0" width="283.5" height="283.5" fill="#FFFFFF"/>
  </g>
  <g id="Layer_1">
    <path d="M178.3,0.3 C178.5,0.4 178.6,0.4 178.7,0.4 C178.9,0.4 179,0.5 179.1,0.5 L180,0.8 C180.1,0.8 180.2,0.8 180.3,0.9 C180.4,0.9 180.5,0.9 180.6,1 L181.2,1.4 C181.3,1.4 181.4,1.5 181.5,1.6 L267.2,87.3 C267.4,87.4 267.5,87.6 267.7,87.8 C267.8,87.8 267.8,87.9 267.9,88 C267.9,88.1 268,88.2 268.1,88.3 L268.5,88.9 C268.6,89 268.7,89.1 268.7,89.2 L269.1,90.4 C269.1,90.5 269.2,90.6 269.2,90.7 C269.3,90.8 269.3,91 269.3,91.1 L269.3,276.7 C269.3,280.6 266.1,283.8 262.2,283.8 L21.3,283.8 C17.4,283.8 14.2,280.6 14.2,276.7 L14.2,7.4 C14.2,3.5 17.4,0.3 21.3,0.3 L178.3,0.3 z M170,14.2 L28.3,14.2 L28.3,269.3 L255.1,269.3 L255.1,99.3 L177.1,99.3 C173.2,99.3 170,96.1 170,92.2 L170,14.2 z M87.4,167.6 C96.5,167.6 103.1,169.3 107.1,174.1 C109.9,177.3 111.4,181.6 111.4,186.2 C111.4,193 108.9,197.9 104.7,201.2 C100.4,204.5 94.8,205.9 87.7,205.9 L83.9,205.9 L83.9,224.5 C83.9,225.7 83.4,226.5 81.8,226.5 L75,226.5 C73.7,226.5 73,225.9 73,224.2 L73,169.9 C73,168.2 73.5,167.6 75.1,167.6 L87.4,167.6 z M88.4,176 L84,176 L84,197.3 L86.3,197.3 C91.2,197.3 95.3,197 97.9,194.2 C99.5,192.4 100.5,189.9 100.5,186.5 C100.5,178.7 95.7,176 88.4,176 z M135.1,167.6 C144.9,167.6 151.5,168.7 157.1,171.9 C164.7,176.3 169.3,184.7 169.4,197.2 C169.4,207.4 165.9,215.1 160.1,220 C154.8,224.4 147.4,226.4 139,226.4 L122.8,226.4 C121.1,226.4 120.3,226 120.3,224 L120.3,170.2 C120.3,168.4 120.8,167.6 122.9,167.6 L135.1,167.6 z M137.5,176.8 L131.3,176.8 L131.3,217.2 L137.8,217.2 C143.7,217.2 148.6,216.3 152.2,212.7 C155.6,209.3 157.5,204.2 157.5,197.1 C157.5,189.4 155.2,183.5 150.9,180.3 C147.4,177.7 142.9,176.8 137.5,176.8 z M212.9,167.6 C214.6,167.6 215.1,168.3 214.9,169.6 L214.3,174.7 C214.1,176.2 213.3,176.5 211.7,176.5 L190,176.5 L190,191.9 L209.6,191.9 C211.2,191.9 211.7,192.6 211.7,193.8 L211.7,198.6 C211.7,200 211.1,200.6 209.7,200.6 L190,200.6 L190,224.3 C190,225.8 189.4,226.4 188,226.4 L181.4,226.4 C179.7,226.4 179.1,226 179,224.1 L179,169.7 C179,168.4 179.6,167.6 181,167.6 L212.9,167.6 z M184.3,24.2 L184.3,85 L245.1,85 L184.3,24.2 z" fill="#010202"/>
  </g>
</svg>
