<?xml version="1.0" encoding="UTF-8"?>
<!DOCTYPE svg PUBLIC "-//W3C//DTD SVG 1.1//EN" "http://www.w3.org/Graphics/SVG/1.1/DTD/svg11.dtd">
<svg version="1.1" xmlns="http://www.w3.org/2000/svg" xmlns:xlink="http://www.w3.org/1999/xlink" x="0" y="0" width="283.5" height="283.5" viewBox="0, 0, 283.5, 283.5">
  <g id="Background">
    <rect x="0" y="0" width="283.5" height="283.5" fill="#FFFFFF"/>
  </g>
  <g id="Ebene_4">
    <path d="M109.9,189.5 C168,189.5 213.5,214.1 213.5,245.5 C213.5,249.1 210.6,252 207,252 C203.4,252 200.5,249.1 200.5,245.5 C200.5,235 191.4,224.4 175.6,216.3 C158.1,207.4 134.8,202.5 109.9,202.5 C85,202.5 61.6,207.4 44.2,216.3 C28.4,224.4 19.3,235 19.3,245.5 C19.3,249.1 16.4,252 12.8,252 C9.2,252 6.3,249.1 6.3,245.5 C6.3,214.1 51.8,189.5 109.9,189.5 z M256.3,56.8 L194,56.8 C190.4,56.8 187.5,59.7 187.5,63.3 C187.5,66.9 190.4,69.8 194,69.8 L256.4,69.8 C260.3,69.8 263.5,73 263.5,76.9 L263.5,78.2 L193.3,78.2 C189.7,78.2 186.8,81.1 186.8,84.7 C186.8,88.3 189.7,91.2 193.3,91.2 L263.5,91.2 L263.5,99.5 L193.3,99.5 C189.7,99.5 186.8,102.4 186.8,106 C186.8,109.6 189.7,112.5 193.3,112.5 L263.5,112.5 L263.5,173.4 C263.5,177.3 260.3,180.5 256.4,180.5 L189.4,180.5 C185.8,180.5 182.9,183.4 182.9,187 C182.9,190.6 185.8,193.5 189.4,193.5 L256.4,193.5 C267.5,193.5 276.5,184.5 276.5,173.4 L276.5,77 C276.5,65.9 267.4,56.8 256.3,56.8 z M137.2,56.2 C153.8,65.4 165.2,83.2 165.2,103.6 C165.2,106.4 165,109.3 164.6,112.2 C149.2,111 135.7,100.9 130.5,86.2 C134.7,77.1 137.1,66.9 137.2,56.2 z M111,49.5 C115.4,49.5 119.7,50 123.9,51.1 C124,52.7 124.1,54.3 124.1,55.9 C124.1,88.7 97.4,115.4 64.6,115.4 C62.4,115.4 60.1,115.3 57.9,115 C57.2,111.2 56.8,107.4 56.8,103.7 C56.8,73.8 81.1,49.5 111,49.5 z M122.4,99.5 C130.7,113.5 145.1,123 161.5,124.9 C158.6,133.3 154.3,141.5 148.8,148.5 C138,162.2 124.6,169.8 111,169.8 C97.4,169.8 84,162.2 73.2,148.5 C68.4,142.4 64.5,135.4 61.7,128.2 L64.6,128.3 C88.2,128.3 109.1,117 122.4,99.5 z M110.9,36.4 C73.8,36.4 43.7,66.5 43.7,103.6 C43.7,109.5 44.5,115.6 46,121.6 C46.2,122.1 46.3,122.5 46.4,122.9 C49.5,134.8 55.2,146.6 63,156.5 C76.3,173.4 93.3,182.8 111,182.8 C128.7,182.8 145.7,173.5 159,156.5 C167.3,145.9 173.3,133.2 176.2,120.4 C176.3,120.2 176.3,119.9 176.3,119.7 C177.5,114.3 178.1,108.8 178.1,103.6 C178.1,66.6 148,36.4 110.9,36.4 z M243.3,156.5 L222,156.5 C218.4,156.5 215.5,159.4 215.5,163 C215.5,166.6 218.4,169.5 222,169.5 L243.3,169.5 C246.9,169.5 249.8,166.6 249.8,163 C249.8,159.4 246.9,156.5 243.3,156.5 z" fill="#000000"/>
  </g>
</svg>
