<?xml version="1.0" encoding="UTF-8"?>
<!DOCTYPE svg PUBLIC "-//W3C//DTD SVG 1.1//EN" "http://www.w3.org/Graphics/SVG/1.1/DTD/svg11.dtd">
<svg version="1.1" xmlns="http://www.w3.org/2000/svg" xmlns:xlink="http://www.w3.org/1999/xlink" x="0" y="0" width="283.5" height="283.5" viewBox="0, 0, 283.5, 283.5">
  <g id="Background">
    <rect x="0" y="0" width="283.5" height="283.5" fill="#FFFFFF"/>
  </g>
  <g id="Layer_1">
    <path d="M141.7,0 C219.8,0 283.4,63.6 283.4,141.8 C283.4,219.9 219.9,283.5 141.7,283.5 C63.6,283.5 0,219.9 0,141.7 C0,63.6 63.6,0 141.7,0 z M141.7,13.5 C71,13.5 13.5,71 13.5,141.7 C13.5,212.5 71,270 141.7,270 C212.4,270 269.9,212.5 269.9,141.8 C270,71 212.4,13.5 141.7,13.5 z M141.7,238.9 C147.6,238.9 152.5,243.7 152.5,249.7 C152.5,255.7 147.7,260.5 141.7,260.5 C135.7,260.5 130.9,255.7 130.9,249.7 C130.9,243.7 135.7,238.9 141.7,238.9 z M195.6,224.5 C199.5,224.5 203.1,226.6 205,229.9 C206.4,232.4 206.8,235.3 206.1,238.1 C205.4,240.9 203.6,243.2 201,244.7 C199.5,245.6 197.6,246.1 195.7,246.1 C191.9,246.1 188.3,244 186.3,240.7 C183.3,235.5 185.1,228.9 190.2,225.9 C191.8,225 193.7,224.5 195.6,224.5 z M87.7,224.5 C89.6,224.5 91.4,225 93.1,225.9 C98.3,228.9 100,235.5 97,240.7 C95.1,244 91.6,246.1 87.7,246.1 C85.8,246.1 83.9,245.6 82.3,244.6 C77.2,241.6 75.4,235 78.3,229.9 C80.2,226.6 83.8,224.5 87.7,224.5 z M235.2,185 C239,185 242.6,187.1 244.5,190.4 C247.5,195.5 245.7,202.2 240.6,205.2 C239,206 237.1,206.5 235.3,206.5 C231.4,206.5 227.9,204.4 225.9,201.1 C224.4,198.6 224.1,195.7 224.8,192.9 C225.6,190.1 227.3,187.8 229.8,186.4 C231.4,185.5 233.3,185 235.2,185 z M48.1,185 C51.9,185 55.5,187.1 57.4,190.4 C60.4,195.5 58.6,202.2 53.5,205.2 C52,206 50.1,206.5 48.2,206.5 C44.3,206.5 40.8,204.4 38.8,201.1 C37.3,198.6 37,195.7 37.7,192.9 C38.5,190.1 40.2,187.8 42.7,186.4 C44.3,185.5 46.2,185 48.1,185 z M33.7,130.9 C39.7,130.9 44.5,135.7 44.5,141.7 C44.5,147.7 39.7,152.5 33.7,152.5 C27.7,152.5 22.9,147.7 22.9,141.7 C22.9,135.7 27.7,130.9 33.7,130.9 z M141.5,26.8 C205,26.8 256.7,78.5 256.7,142 C256.7,143.8 256,145.5 254.7,146.8 C253.4,148 251.7,148.7 249.9,148.7 L141.5,148.7 C137.8,148.7 134.8,145.7 134.8,142 L134.8,33.5 C134.8,29.8 137.8,26.8 141.5,26.8 z M148.2,40.4 L148.2,135.2 L243,135.2 C239.7,84.5 199,43.8 148.2,40.4 z M48.3,76.9 C50.2,76.9 52,77.4 53.7,78.3 C56.2,79.8 58,82.1 58.7,84.9 C59.4,87.7 59.1,90.6 57.6,93.1 C55.6,96.5 52,98.5 48.2,98.5 C46.3,98.5 44.4,98 42.8,97 C40.3,95.6 38.5,93.3 37.8,90.5 C37,87.7 37.4,84.8 38.9,82.3 C40.8,79 44.4,76.9 48.3,76.9 z M87.7,37.4 C91.6,37.4 95.1,39.5 97.1,42.8 C100.1,48 98.3,54.6 93.2,57.6 C91.5,58.5 89.6,59 87.7,59 C83.9,59 80.3,56.9 78.3,53.6 C75.3,48.5 77.1,41.8 82.3,38.8 C83.9,37.9 85.8,37.4 87.7,37.4 z" fill="#000000"/>
  </g>
</svg>
