<?xml version="1.0" encoding="UTF-8"?>
<!DOCTYPE svg PUBLIC "-//W3C//DTD SVG 1.1//EN" "http://www.w3.org/Graphics/SVG/1.1/DTD/svg11.dtd">
<svg version="1.1" xmlns="http://www.w3.org/2000/svg" xmlns:xlink="http://www.w3.org/1999/xlink" x="0" y="0" width="283.5" height="283.5" viewBox="0, 0, 283.5, 283.5">
  <g id="Background">
    <rect x="0" y="0" width="283.5" height="283.5" fill="#FFFFFF"/>
  </g>
  <g id="Layer_1">
    <path d="M47.2,243.7 C43.5,243.7 40.5,240.7 40.5,237 L40.5,199.3 C40.5,195.6 43.5,192.6 47.2,192.6 C50.9,192.6 53.9,195.6 53.9,199.3 L53.9,237 C53.9,240.7 50.9,243.7 47.2,243.7 z M249.4,206 C267.9,206 283.1,190.9 283.1,172.3 L283.1,131.9 C283.1,113.3 268,98.2 249.4,98.2 L33.7,98.2 C15.1,98.2 -0,113.3 -0,131.9 L-0,172.3 C-0,190.9 15.1,206 33.7,206 L64.9,206 C68.6,206 71.6,203 71.6,199.3 C71.6,195.6 68.6,192.6 64.9,192.6 L33.7,192.6 C22.6,192.6 13.5,183.5 13.5,172.4 L13.5,132 C13.5,120.9 22.6,111.8 33.7,111.8 L249.4,111.8 C260.5,111.8 269.6,120.9 269.6,132 L269.6,172.4 C269.6,183.5 260.5,192.6 249.4,192.6 L209,192.6 C205.3,192.6 202.3,195.6 202.3,199.3 C202.3,203 205.3,206 209,206 L249.4,206 z M244.8,107 C245.6,107 246.3,106.9 247.1,106.6 C250.6,105.4 252.5,101.5 251.2,98 L233.3,47.9 C229.8,38.2 219.1,30.7 208.9,30.7 L74.1,30.7 C63.8,30.7 53.1,38.3 49.7,47.9 L31.8,98 C30.6,101.5 32.4,105.3 35.9,106.6 C39.4,107.8 43.2,106 44.5,102.5 L62.4,52.4 C64,48.1 69.5,44.2 74.1,44.2 L208.9,44.2 C213.5,44.2 219.1,48.1 220.6,52.4 L238.5,102.5 C239.4,105.3 242,107 244.8,107 z M47.2,146.5 C50.9,146.5 53.9,149.5 53.9,153.2 C53.9,156.9 50.9,159.9 47.2,159.9 C43.5,159.9 40.5,156.9 40.5,153.2 C40.5,149.5 43.5,146.5 47.2,146.5 z M47.2,173.5 C58.3,173.5 67.4,164.3 67.4,153.2 C67.4,142.1 58.4,133 47.2,133 C36,133 27,142.2 27,153.3 C27,164.4 36.1,173.5 47.2,173.5 z M235.9,243.7 C239.6,243.7 242.6,240.7 242.6,237 L242.6,199.3 C242.6,195.6 239.6,192.6 235.9,192.6 C232.2,192.6 229.2,195.6 229.2,199.3 L229.2,237 C229.2,240.7 232.2,243.7 235.9,243.7 z M64.9,206 C138.6,206 198.6,186.6 233.9,151.3 C236.5,148.7 236.5,144.4 233.9,141.8 C231.3,139.2 227,139.2 224.4,141.8 C191.6,174.6 135,192.6 64.9,192.6 C61.2,192.6 58.2,195.6 58.2,199.3 C58.2,203 61.2,206 64.9,206 z M235.9,173.5 C239.6,173.5 242.6,170.4 242.7,166.9 L242.7,139.9 C242.7,136.2 239.7,133.2 236,133.2 L209,133.2 C205.3,133.2 202.3,136.2 202.3,139.9 C202.3,143.6 205.3,146.6 209,146.6 L229.2,146.6 L229.2,166.8 C229.2,170.5 232.2,173.5 235.9,173.5 z" fill="#000000"/>
  </g>
</svg>
