<?xml version="1.0" encoding="UTF-8"?>
<!DOCTYPE svg PUBLIC "-//W3C//DTD SVG 1.1//EN" "http://www.w3.org/Graphics/SVG/1.1/DTD/svg11.dtd">
<svg version="1.1" xmlns="http://www.w3.org/2000/svg" xmlns:xlink="http://www.w3.org/1999/xlink" x="0" y="0" width="283.5" height="283.5" viewBox="0, 0, 283.5, 283.5">
  <g id="Background">
    <rect x="0" y="0" width="283.5" height="283.5" fill="#FFFFFF"/>
  </g>
  <g id="Layer_1">
    <path d="M157.8,119.7 L158.8,119.8 C162,119.3 165.2,121.3 166.2,124.5 L183.4,182.1 L189,200.9 C190.7,200.7 192.4,200.6 194.2,200.6 C216.8,200.6 235.3,219.1 235.4,241.9 C235.4,264.5 217,283 194.3,283 C171.7,283 153.2,264.6 153.2,241.9 C153.2,225.6 162.6,211.6 176.3,204.9 L172.8,193.3 L151.7,202.3 C150.9,202.6 150,202.8 149.1,202.8 C146.5,202.8 144,201.2 142.9,198.7 C141.4,195.3 143,191.4 146.4,189.9 L168.9,180.3 L154.8,133.1 L136.3,133.1 C132.6,133.1 129.6,130.1 129.6,126.4 C129.6,122.7 132.6,119.7 136.3,119.7 L157.8,119.7 z M194.2,214.1 L192.9,214.1 L200.6,239.9 C201.7,243.4 199.6,247.1 196.1,248.2 C195.5,248.4 194.8,248.5 194.2,248.5 C191.3,248.5 188.7,246.6 187.8,243.7 L180.1,217.9 C172,222.8 166.5,231.7 166.5,241.8 C166.5,257.1 178.9,269.5 194.2,269.5 C209.5,269.5 221.9,257 221.9,241.8 C221.9,226.5 209.5,214.1 194.2,214.1 z M42.1,214 C51.1,214 59.1,218.3 64.2,225 L39.5,235.6 C36.1,237.1 34.5,241 36,244.4 C37.1,246.9 39.6,248.5 42.2,248.5 C43.1,248.5 44,248.3 44.8,248 L69.5,237.4 C69.7,238.8 69.8,240.2 69.8,241.7 C69.8,257 57.4,269.4 42.1,269.4 C26.8,269.4 14.4,257 14.4,241.7 C14.4,226.4 26.8,214 42.1,214 z M79.5,144.1 L58,144.1 C54.3,144.1 51.3,147.1 51.3,150.8 C51.3,154.5 54.3,157.5 58,157.5 L63.7,157.5 L81.6,217.5 L76.7,219.6 C69.4,208.2 56.6,200.6 42,200.6 C19.3,200.6 0.9,219.1 0.9,241.7 C0.9,264.4 19.4,282.8 42,282.8 C64.7,282.8 83.1,264.3 83.1,241.7 C83.1,238.3 82.7,235 81.9,231.9 L104.7,222.2 C108.1,220.7 109.7,216.8 108.2,213.4 C106.9,210 102.9,208.5 99.5,209.9 L94.1,212.2 L77.8,157.5 L79.5,157.5 C83.2,157.5 86.2,154.5 86.2,150.8 C86.2,147.1 83.2,144.1 79.5,144.1 z M122.35,157.732 C119.892,158.563 118.519,158.951 117.2,161.4 L102.8,190.3 C102.8,190.3 102.8,190.4 102.7,190.4 L102.5,190.8 C102.5,190.9 102.4,191 102.4,191 C102.4,191.1 102.3,191.3 102.3,191.4 L102.1,192 C102.1,192.1 102.1,192.2 102,192.4 L102,194.4 C102,194.5 102,194.6 102.1,194.7 C102.1,194.8 102.1,194.9 102.2,194.9 L102.3,195.3 C102.3,195.4 102.3,195.4 102.4,195.5 C102.4,195.6 102.5,195.8 102.6,195.9 L102.7,196.1 C102.8,196.2 102.8,196.3 102.9,196.5 C102.9,196.6 103,196.7 103.1,196.8 L103.5,197.4 L104.7,198.6 L105.3,199 C105.4,199 105.5,199.1 105.5,199.1 C105.6,199.2 105.7,199.2 105.9,199.3 L106.1,199.3 C106.3,199.4 106.4,199.5 106.6,199.5 L106.8,199.6 C107,199.7 107.1,199.7 107.3,199.7 C107.4,199.7 107.5,199.7 107.5,199.8 C107.6,199.8 107.8,199.9 108,199.9 L121.3,199.9 L111.7,219.1 C110,222.4 111.4,226.4 114.7,228.1 C115.7,228.6 116.7,228.8 117.7,228.8 C120.2,228.8 122.5,227.4 123.7,225.1 L138.1,196.2 C138.1,196.2 138.1,196.1 138.2,196 L138.4,195.6 C138.4,195.9 138.5,195.8 138.5,195.7 C138.5,195.6 138.6,195.5 138.6,195.3 L138.7,195 C138.7,194.9 138.7,194.8 138.8,194.7 C138.8,194.6 138.8,194.4 138.9,194.3 L138.9,192.3 C138.9,192.2 138.9,192.1 138.8,192 C138.8,191.9 138.8,191.8 138.7,191.8 L138.6,191.4 C138.6,191.3 138.6,191.3 138.5,191.2 C138.5,191.1 138.4,190.9 138.3,190.8 L138.2,190.6 C138.1,190.5 138.1,190.4 138,190.2 C138,190.1 137.9,190 137.8,189.9 L137.4,189.3 L136.2,188.1 L135.6,187.7 C135.5,187.7 135.4,187.6 135.4,187.6 C135.3,187.5 135.2,187.5 135,187.4 L134.9,187.4 C134.9,187.4 134.8,187.4 134.8,187.3 L134.4,187.1 C134.3,187.1 134.2,187 134.2,187 C134.1,187 134,186.9 133.8,186.9 L133.35,186.75 L133.2,186.7 C133.1,186.7 133,186.7 132.8,186.6 L119.6,186.6 L129.2,167.4 C130.9,164.1 129.5,160.1 126.2,158.4 C124.131,157.591 125.387,157.936 122.35,157.732 z M232.8,67.7 C225,67.7 217.4,69.5 210.5,73 C203.8,69.6 196.3,67.7 188.3,67.7 C180.5,67.7 172.9,69.5 166,73 C159.3,69.6 151.8,67.7 143.8,67.7 C131.8,67.7 120.3,72 111.3,79.9 C108.5,82.3 108.2,86.6 110.7,89.4 C112,90.9 113.9,91.7 115.7,91.7 C117.3,91.7 118.8,91.2 120.1,90 C126.6,84.3 135,81.1 143.7,81.1 C163.5,81.1 179.6,97.2 179.6,117 C179.6,120.4 179.1,123.7 178.2,126.9 C177.2,130.5 179.2,134.2 182.8,135.2 C183.4,135.4 184,135.5 184.7,135.5 C187.6,135.5 190.3,133.6 191.1,130.7 C192.4,126.3 193,121.7 193,117.1 C193,103.6 187.5,91.4 178.7,82.4 C181.8,81.6 184.9,81.1 188.1,81.1 C207.9,81.1 224,97.2 224,117 C224,118.7 223.9,120.4 223.6,122.1 L209.2,122.1 C205.5,122.1 202.5,125.1 202.5,128.8 L202.5,157.4 C202.5,161.1 205.5,164.1 209.2,164.1 C212.9,164.1 215.9,161.1 215.9,157.4 L215.9,135.5 L234,135.5 L235.4,130.7 C236.7,126.3 237.3,121.7 237.3,117.1 C237.3,103.6 231.8,91.4 223,82.4 C226.1,81.6 229.2,81.1 232.4,81.1 C252.2,81.1 268.3,97.2 268.3,117 C268.3,118.7 268.2,120.4 267.9,122.1 L254,122.1 C250.3,122.1 247.3,125.1 247.3,128.8 L247.3,157.4 C247.3,161.1 250.3,164.1 254,164.1 C257.7,164.1 260.7,161.1 260.7,157.4 L260.7,135.5 L278.8,135.5 L280.2,130.7 C281.5,126.3 282.1,121.7 282.1,117.1 C282.2,89.8 260,67.7 232.8,67.7 z M232.8,13.7 C241.4,13.7 248.3,20.7 248.3,29.2 C248.3,37.8 241.3,44.7 232.8,44.7 C224.2,44.7 217.3,37.7 217.3,29.2 C217.3,20.7 224.3,13.7 232.8,13.7 z M188.3,13.7 C196.9,13.7 203.8,20.7 203.8,29.2 C203.8,37.8 196.8,44.7 188.3,44.7 C179.7,44.7 172.8,37.7 172.8,29.2 C172.8,20.7 179.8,13.7 188.3,13.7 z M143.9,13.7 C152.5,13.7 159.4,20.7 159.4,29.2 C159.4,37.8 152.4,44.7 143.9,44.7 C135.3,44.7 128.4,37.7 128.4,29.2 C128.3,20.7 135.3,13.7 143.9,13.7 z M232.7,0.4 C223.8,0.4 215.8,4.5 210.5,10.8 C205.2,4.4 197.2,0.4 188.3,0.4 C179.4,0.4 171.4,4.5 166.1,10.8 C160.8,4.4 152.8,0.4 143.9,0.4 C127.9,0.4 115,13.4 115,29.3 C114.9,45.2 127.9,58.2 143.9,58.2 C152.8,58.2 160.8,54.1 166.1,47.8 C171.4,54.2 179.4,58.2 188.3,58.2 C197.2,58.2 205.2,54.1 210.5,47.8 C215.8,54.2 223.8,58.2 232.7,58.2 C248.7,58.2 261.6,45.2 261.6,29.3 C261.6,13.3 248.6,0.4 232.7,0.4 z" fill="#000000"/>
  </g>
</svg>
