<?xml version="1.0" encoding="UTF-8"?>
<!DOCTYPE svg PUBLIC "-//W3C//DTD SVG 1.1//EN" "http://www.w3.org/Graphics/SVG/1.1/DTD/svg11.dtd">
<svg version="1.1" xmlns="http://www.w3.org/2000/svg" xmlns:xlink="http://www.w3.org/1999/xlink" x="0" y="0" width="283.5" height="283.5" viewBox="0, 0, 283.5, 283.5">
  <g id="Background">
    <rect x="0" y="0" width="283.5" height="283.5" fill="#FFFFFF"/>
  </g>
  <g id="Layer_1">
    <path d="M192.466,43.694 C195.647,43.94 197.718,45.602 198.9,48.5 L219.9,118.8 L227.1,143 C229.5,142.6 232,142.4 234.5,142.4 C261.4,142.4 283.2,164.2 283.1,191.1 C283.1,217.9 261.3,239.8 234.4,239.8 C207.6,239.8 185.7,218 185.7,191.1 C185.7,171.5 197.4,154.5 214.2,146.8 L209.1,129.9 L179.5,142.6 C178.7,142.9 177.8,143.1 176.9,143.1 C174.3,143.1 171.8,141.5 170.7,139 C169.2,135.6 170.8,131.7 174.2,130.2 L205.3,116.9 L187.4,57.1 L163.8,57.1 C160.1,57.1 157.1,54.1 157.1,50.4 C157.1,46.7 160.1,43.7 163.8,43.7 L190,43.7 C190.4,43.7 190.8,43.7 191.2,43.8 L192.466,43.694 z M234.5,155.8 C233.3,155.8 232.2,155.9 231,156 L240.9,189.2 C242,192.7 239.9,196.4 236.4,197.5 C235.8,197.7 235.1,197.8 234.5,197.8 C231.6,197.8 229,195.9 228.1,193 L218.2,159.8 C206.9,165.7 199.2,177.5 199.2,191.1 C199.2,210.6 215,226.4 234.5,226.4 C254,226.4 269.8,210.5 269.8,191.1 C269.8,171.6 254,155.8 234.5,155.8 z M49,155.8 C61.1,155.8 71.9,162 78.2,171.3 L46.3,184.9 C42.9,186.4 41.3,190.3 42.8,193.7 C43.9,196.2 46.4,197.8 49,197.8 C49.9,197.8 50.8,197.6 51.6,197.3 L83.5,183.7 C84,186 84.3,188.5 84.3,191.1 C84.3,210.6 68.5,226.4 49,226.4 C29.5,226.4 13.7,210.6 13.7,191.1 C13.7,171.6 29.5,155.8 49,155.8 z M94.6,73.3 L68.4,73.3 C64.7,73.3 61.7,76.3 61.7,80 C61.7,83.7 64.7,86.7 68.4,86.7 L76.5,86.7 L99.1,162.3 L90.7,165.9 C82.2,151.8 66.7,142.3 49,142.3 C22.1,142.3 0.3,164.2 0.3,191 C0.3,217.9 22.2,239.7 49,239.7 C75.9,239.7 97.7,217.8 97.7,191 C97.7,186.6 97.1,182.3 96,178.2 L128.1,164.5 C131.5,163 133.1,159.1 131.6,155.7 C130.1,152.3 126.2,150.8 122.8,152.2 L111.5,157 L90.5,86.7 L94.6,86.7 C98.3,86.7 101.3,83.7 101.3,80 C101.3,76.3 98.3,73.3 94.6,73.3 z M147.15,90.032 C144.692,90.864 143.319,91.251 142,93.7 L124.4,129 C124.4,129 124.4,129.1 124.3,129.2 C124.2,129.3 124.2,129.5 124.1,129.6 L124,129.9 C124,130 123.9,130.1 123.9,130.3 L123.8,130.6 C123.8,130.7 123.8,130.8 123.7,130.9 C123.7,131 123.7,131.2 123.6,131.3 L123.6,133.3 C123.6,133.4 123.6,133.5 123.7,133.6 C123.7,133.7 123.7,133.8 123.8,133.8 L123.9,134.2 C123.9,134.3 123.9,134.3 124,134.4 C124,134.5 124.1,134.7 124.2,134.8 L124.3,135 C124.4,135.1 124.4,135.2 124.5,135.4 C124.5,135.5 124.6,135.6 124.7,135.7 L125.1,136.3 L126.3,137.5 L126.9,137.9 C127,137.9 127.1,138 127.1,138 C127.2,138.1 127.3,138.1 127.5,138.2 L127.7,138.2 C127.9,138.3 128,138.4 128.2,138.4 L128.4,138.5 C128.6,138.6 128.7,138.6 128.9,138.6 C129,138.6 129.1,138.6 129.1,138.7 C129.2,138.7 129.4,138.8 129.6,138.8 L148,138.8 L135.2,164.4 C133.5,167.7 134.9,171.7 138.2,173.4 C139.2,173.9 140.2,174.1 141.2,174.1 C143.7,174.1 146,172.7 147.2,170.4 L164.8,135.1 C164.8,135.1 164.8,135 164.9,134.9 L165.1,134.5 C165.1,134.6 165.2,134.5 165.2,134.4 C165.2,134.3 165.3,134.2 165.3,134 L165.4,133.7 C165.4,133.6 165.4,133.5 165.5,133.4 C165.5,133.3 165.5,133.1 165.6,133 L165.6,131 C165.6,130.9 165.6,130.8 165.5,130.7 C165.5,130.6 165.5,130.5 165.4,130.5 L165.3,130.1 C165.3,130 165.3,130 165.2,129.9 C165.2,129.8 165.1,129.6 165,129.5 L164.9,129.3 C164.8,129.2 164.8,129.1 164.7,128.9 C164.7,128.8 164.6,128.7 164.5,128.6 L164.1,128 L162.9,126.8 L162.3,126.4 C162.2,126.4 162.1,126.3 162.1,126.3 C162,126.2 161.9,126.2 161.7,126.1 L161.6,126.1 C161.6,126.1 161.5,126.1 161.5,126 L161.1,125.8 C161,125.8 160.9,125.7 160.9,125.7 C160.8,125.7 160.7,125.6 160.5,125.6 L159.9,125.4 C159.8,125.4 159.7,125.4 159.5,125.3 L141.2,125.3 L154,99.7 C155.7,96.4 154.3,92.4 151,90.7 C148.931,89.891 150.187,90.236 147.15,90.032 z" fill="#000000"/>
  </g>
</svg>
