<?xml version="1.0" encoding="UTF-8"?>
<!DOCTYPE svg PUBLIC "-//W3C//DTD SVG 1.1//EN" "http://www.w3.org/Graphics/SVG/1.1/DTD/svg11.dtd">
<svg version="1.1" xmlns="http://www.w3.org/2000/svg" xmlns:xlink="http://www.w3.org/1999/xlink" x="0" y="0" width="283.5" height="283.5" viewBox="0, 0, 283.5, 283.5">
  <g id="Background">
    <rect x="0" y="0" width="283.5" height="283.5" fill="#FFFFFF"/>
  </g>
  <g id="Layer_1">
    <path d="M273.3,140.3 L203,69.3 C198.8,65.1 193,62.6 187,62.6 L26.4,62.6 C13.5,62.6 3,73.1 3,86 L3,184.4 C3,197.3 13.5,207.8 26.4,207.8 L32,207.8 C34.7,216.2 42.7,222.3 52,222.3 C61.3,222.3 69.2,216.2 72,207.8 L214.2,207.8 C216.9,216.2 224.9,222.3 234.2,222.3 C243.5,222.3 251.4,216.2 254.2,207.8 L256.9,207.8 C269.8,207.8 280.3,197.3 280.3,184.4 L280.3,157.3 C280.3,150.9 277.8,144.9 273.3,140.3 z M199.6,84.4 L256.8,142.2 L212,142.2 C205.1,142.2 199.5,136.6 199.5,129.7 L199.5,84.4 z M52,209.5 C47.6,209.5 44,205.9 44,201.5 C44,197.1 47.6,193.5 52,193.5 C56.4,193.5 60,197.1 60,201.5 C60,205.9 56.4,209.5 52,209.5 z M234.2,209.5 C229.8,209.5 226.2,205.9 226.2,201.5 C226.2,197.1 229.8,193.5 234.2,193.5 C238.6,193.5 242.2,197.1 242.2,201.5 C242.2,205.9 238.6,209.5 234.2,209.5 z M267.3,184.5 C267.3,190.3 262.6,194.9 256.9,194.9 L254.2,194.9 C251.5,186.5 243.5,180.4 234.2,180.4 C224.9,180.4 217,186.5 214.2,194.9 L72,194.9 C69.3,186.5 61.3,180.4 52,180.4 C42.7,180.4 34.8,186.5 32,194.9 L26.4,194.9 C20.6,194.9 16,190.2 16,184.5 L16,86.1 C16,80.3 20.7,75.7 26.4,75.7 L186.6,75.7 L186.6,129.7 C186.6,143.7 198,155.2 212.1,155.2 L267.1,155.2 C267.2,155.9 267.3,156.7 267.3,157.4 L267.3,184.5 z M136.1,128.5 C138.4,128.5 140.5,129.7 141.6,131.7 C142.7,133.6 142.8,136 141.8,138 L126,168.9 C124.8,171.1 122.6,172.4 120.2,172.4 C119.3,172.4 118.2,172.2 117.3,171.7 C114.1,170.1 112.9,166.2 114.5,163 L125.5,141.5 L110.8,141.5 C108.6,141.5 106.5,140.3 105.3,138.4 C104.1,136.5 104,134.1 105,132.1 L120,102.1 C121.6,98.9 125.5,97.6 128.7,99.2 C131.9,100.8 133.2,104.7 131.6,107.9 L121.3,128.5 L136.1,128.5 z" fill="#000000"/>
  </g>
</svg>
