<?xml version="1.0" encoding="UTF-8"?>
<!DOCTYPE svg PUBLIC "-//W3C//DTD SVG 1.1//EN" "http://www.w3.org/Graphics/SVG/1.1/DTD/svg11.dtd">
<svg version="1.1" xmlns="http://www.w3.org/2000/svg" xmlns:xlink="http://www.w3.org/1999/xlink" x="0" y="0" width="283.5" height="283.5" viewBox="0, 0, 283.5, 283.5">
  <g id="Background">
    <rect x="0" y="0" width="283.5" height="283.5" fill="#FFFFFF"/>
  </g>
  <g id="Layer_1">
    <path d="M199.6,119.2 C199.7,119.1 199.7,118.9 199.8,118.8 C199.8,118.7 199.9,118.6 199.9,118.5 C199.9,118.4 200,118.2 200,118.1 C200,118 200.1,117.9 200.1,117.8 C200.1,117.7 200.2,117.6 200.2,117.5 C200.2,117.4 200.2,117.2 200.3,117.1 C200.3,117 200.3,116.9 200.3,116.8 C200.3,116.7 200.3,116.5 200.3,116.4 C200.3,116.3 200.3,116.3 200.3,116.2 C200.3,116.2 200.3,116.1 200.3,116.1 C200.3,116 200.3,115.8 200.3,115.7 C200.3,115.6 200.3,115.5 200.3,115.4 C200.3,115.3 200.3,115.2 200.2,115.1 C200.2,115 200.2,114.9 200.1,114.7 C200.1,114.6 200.1,114.5 200,114.4 C200,114.3 199.9,114.1 199.9,114 C199.9,113.9 199.8,113.9 199.8,113.8 C199.7,113.7 199.7,113.5 199.6,113.4 C199.6,113.3 199.5,113.2 199.5,113.2 C199.4,113.1 199.4,113 199.3,112.8 C199.2,112.7 199.2,112.6 199.1,112.5 C199,112.4 199,112.3 198.9,112.2 C198.8,112.1 198.7,112 198.7,111.9 C198.6,111.8 198.6,111.8 198.5,111.7 C198.4,111.6 198.3,111.5 198.2,111.4 C198.1,111.3 198.1,111.3 198,111.2 C197.9,111.1 197.8,111 197.7,110.9 C197.6,110.8 197.6,110.8 197.5,110.7 C197.4,110.6 197.3,110.6 197.2,110.5 C197.1,110.4 197,110.4 196.9,110.3 C196.8,110.2 196.7,110.2 196.6,110.1 C196.5,110 196.4,110 196.2,109.9 C196.2,109.9 196.1,109.9 196.1,109.9 C196,109.9 196,109.9 195.9,109.8 C195.8,109.7 195.6,109.7 195.5,109.6 C195.4,109.6 195.3,109.5 195.2,109.5 C195.1,109.5 195,109.4 194.8,109.4 C194.6,109.4 194.6,109.3 194.4,109.3 C194.3,109.3 194.2,109.3 194.1,109.2 C194,109.2 193.8,109.2 193.7,109.1 C193.6,109.1 193.5,109.1 193.5,109.1 C193.3,109.1 193.2,109.1 193,109.1 C193,109.1 192.9,109.1 192.9,109.1 L102.9,109.1 L152.4,10.1 C154.1,6.6 152.7,2.4 149.3,0.7 C145.8,-1 141.6,0.4 139.9,3.8 L85.6,113.1 C85.6,113.2 85.6,113.2 85.5,113.3 C85.4,113.4 85.4,113.6 85.3,113.7 C85.3,113.8 85.2,113.9 85.2,114 C85.2,114.1 85.1,114.2 85.1,114.4 C85.1,114.5 85,114.6 85,114.7 C85,114.8 84.9,114.9 84.9,115 C84.9,115.1 84.9,115.3 84.8,115.4 C84.8,115.5 84.8,115.6 84.8,115.7 C84.8,115.8 84.8,116 84.8,116.1 C84.8,116.2 84.8,116.2 84.8,116.3 C84.8,116.3 84.8,116.4 84.8,116.4 C84.8,116.5 84.8,116.7 84.8,116.8 C84.8,116.9 84.8,117 84.8,117.1 C84.8,117.2 84.8,117.3 84.9,117.5 C84.9,117.6 84.9,117.7 85,117.8 C85,117.9 85,118 85.1,118.1 C85.1,118.2 85.2,118.4 85.2,118.5 C85.2,118.6 85.3,118.7 85.3,118.7 C85.3,118.8 85.4,119 85.5,119.1 C85.5,119.2 85.6,119.3 85.6,119.3 C85.7,119.4 85.7,119.5 85.8,119.7 C85.9,119.8 85.9,119.9 86,120 C86.1,120.1 86.1,120.2 86.2,120.3 C86.3,120.4 86.4,120.5 86.5,120.6 C86.6,120.7 86.6,120.7 86.7,120.8 C86.8,120.9 86.9,121 87,121.1 C87.1,121.2 87.1,121.2 87.2,121.3 C87.3,121.4 87.4,121.5 87.5,121.6 C87.6,121.7 87.6,121.7 87.7,121.8 C87.8,121.9 87.9,121.9 88,122 C88.1,122.1 88.2,122.1 88.3,122.2 C88.4,122.3 88.5,122.3 88.6,122.4 C88.7,122.5 88.8,122.5 89,122.6 C89,122.6 89.1,122.6 89.1,122.6 C89.1,122.6 89.2,122.6 89.2,122.7 C89.4,122.8 89.5,122.9 89.7,122.9 C89.8,122.9 89.9,123 89.9,123 C90.1,123.1 90.2,123.1 90.4,123.1 C90.5,123.1 90.6,123.1 90.7,123.2 C90.9,123.2 91,123.3 91.2,123.3 C91.3,123.3 91.4,123.3 91.5,123.3 C91.7,123.3 91.8,123.3 92,123.3 C92.1,123.3 92.2,123.3 92.3,123.3 C92.3,123.3 92.3,123.3 92.3,123.3 L182.3,123.3 L134.7,218.4 L90.2,218.4 C87.4,218.4 84.8,220.1 83.7,222.7 C82.6,225.3 83.2,228.3 85.2,230.4 L136.2,281.4 C137.5,282.7 139.3,283.5 141.2,283.5 C143.1,283.5 144.9,282.8 146.2,281.4 L197.2,230.4 C199.2,228.4 199.8,225.4 198.7,222.7 C197.6,220.1 195,218.4 192.2,218.4 L150,218.4 L199.5,119.4 C199.6,119.3 199.6,119.3 199.6,119.2 z M141.2,266.5 L107.1,232.4 L138.5,232.4 C138.5,232.4 138.5,232.4 138.5,232.4 C138.5,232.4 138.5,232.4 138.5,232.4 L175.1,232.4 L141.2,266.5 z" fill="#010202"/>
  </g>
</svg>
