<?xml version="1.0" encoding="UTF-8"?>
<!DOCTYPE svg PUBLIC "-//W3C//DTD SVG 1.1//EN" "http://www.w3.org/Graphics/SVG/1.1/DTD/svg11.dtd">
<svg version="1.1" xmlns="http://www.w3.org/2000/svg" xmlns:xlink="http://www.w3.org/1999/xlink" x="0" y="0" width="283.5" height="283.5" viewBox="0, 0, 283.5, 283.5">
  <g id="Background">
    <rect x="0" y="0" width="283.5" height="283.5" fill="#FFFFFF"/>
  </g>
  <g id="Layer_1">
    <path d="M141.7,14.9 C152.1,14.9 161.5,21.3 168.2,33 L277.7,222.7 C284.4,234.4 285.3,245.7 280.2,254.7 C275,263.7 264.8,268.6 251.3,268.6 L32.3,268.6 C18.8,268.6 8.6,263.6 3.4,254.7 C-1.8,245.7 -0.9,234.4 5.8,222.7 L115.2,33 C122,21.3 131.4,14.9 141.7,14.9 z M141.7,28.7 C136.6,28.7 131.2,32.8 127.1,39.9 L17.7,229.5 C13.6,236.7 12.7,243.3 15.3,247.8 C17.8,252.2 24,254.8 32.3,254.8 L251.3,254.8 C259.5,254.8 265.7,252.3 268.3,247.8 C270.9,243.3 270,236.7 265.8,229.6 L156.3,39.9 C152.2,32.8 146.9,28.7 141.7,28.7 z M145.043,122.237 C148.161,122.435 146.869,122.091 149,122.9 C152.4,124.6 153.8,128.7 152.1,132.1 L136.5,163.3 L158.5,163.3 C158.7,163.3 159,163.4 159.2,163.4 L159.8,163.5 C160,163.6 160.2,163.6 160.4,163.7 L161.1,164 C161.2,164.1 161.2,164.1 161.3,164.1 C161.4,164.1 161.5,164.2 161.6,164.3 L162.2,164.7 C162.4,164.8 162.5,165 162.7,165.1 C162.9,165.3 163.1,165.4 163.2,165.6 C163.3,165.7 163.5,165.9 163.6,166.1 C163.8,166.2 163.9,166.4 164,166.6 L164.6,167.8 C164.7,168 164.7,168.2 164.8,168.4 L164.9,169 C165,169.2 165,169.5 165,169.7 C165,169.8 165,169.9 164.9,170 L164.9,170.2 C164.9,170.4 164.8,170.7 164.8,170.9 L164.7,171.5 C164.6,171.7 164.6,171.9 164.5,172.1 L164.2,172.8 C164.1,172.9 164.1,172.9 164.1,173 L143.6,214.1 C142.4,216.5 140,217.9 137.5,217.9 C136.4,217.9 135.4,217.7 134.4,217.2 C131,215.5 129.6,211.4 131.3,208 L146.9,176.8 L125,176.8 C124.6,176.7 124.1,176.7 123.7,176.6 L123.3,176.5 C123,176.4 122.6,176.3 122.3,176.1 C122.2,176 122.2,176 122.1,176 C122,176 121.9,175.9 121.8,175.8 L121.2,175.4 C121,175.3 120.9,175.1 120.7,175 L120.2,174.5 C120.1,174.4 119.9,174.2 119.8,174 C119.6,173.9 119.5,173.7 119.4,173.5 L118.8,172.3 C118.7,172.1 118.7,171.9 118.6,171.7 L118.5,171.1 C118.4,170.9 118.4,170.6 118.4,170.4 L118.4,169.8 C118.4,169.6 118.5,169.3 118.5,169.1 L118.6,168.5 C118.7,168.3 118.7,168.1 118.8,167.9 L119.1,167.2 C119.2,167.1 119.2,167.1 119.2,167 L139.8,126 C141.129,123.476 142.525,123.089 145.043,122.237 z" fill="#010202"/>
  </g>
</svg>
