<?xml version="1.0" encoding="UTF-8"?>
<!DOCTYPE svg PUBLIC "-//W3C//DTD SVG 1.1//EN" "http://www.w3.org/Graphics/SVG/1.1/DTD/svg11.dtd">
<svg version="1.1" xmlns="http://www.w3.org/2000/svg" xmlns:xlink="http://www.w3.org/1999/xlink" x="0" y="0" width="283.5" height="283.5" viewBox="0, 0, 283.5, 283.5">
  <g id="Background">
    <rect x="0" y="0" width="283.5" height="283.5" fill="#FFFFFF"/>
  </g>
  <g id="Layer_1">
    <path d="M141.2,117.6 C101.2,117.6 68.7,150.1 68.7,190.1 C68.7,196.9 69.6,203.6 71.5,210.1 C72.3,213 75,215 78,215 L101.8,215 L101.8,252.4 C101.8,256.1 104.8,259.1 108.5,259.1 C112.2,259.1 115.2,256.1 115.2,252.4 L115.2,208.2 C115.2,206.8 114.8,205.5 114.1,204.4 C112.9,202.6 110.8,201.4 108.5,201.4 L83.3,201.4 C82.6,197.6 82.2,193.8 82.2,190 C82.2,157.4 108.7,130.9 141.3,130.9 C173.9,130.9 200.4,157.4 200.4,190 C200.4,193.8 200,197.7 199.3,201.4 L174,201.4 C170.3,201.4 167.3,204.4 167.3,208.1 L167.3,252.3 C167.3,256 170.3,259 174,259 C177.7,259 180.7,256 180.7,252.3 L180.7,214.9 L204.5,214.9 C207.5,214.9 210.1,212.9 211,210 C212.9,203.5 213.8,196.7 213.8,190 C213.8,150.2 181.2,117.6 141.2,117.6 z M209.8,117.6 C249.8,117.6 282.4,150.2 282.3,190.1 C282.3,196.8 281.4,203.6 279.5,210.1 C278.6,213 276,215 273,215 L249.2,215 L249.2,252.4 C249.2,256.1 246.2,259.1 242.5,259.1 C238.8,259.1 235.8,256.1 235.8,252.4 L235.8,208.2 C235.8,204.5 238.8,201.5 242.5,201.5 L267.8,201.5 C268.5,197.8 268.9,193.9 268.9,190.1 C268.9,157.5 242.4,131 209.8,131 C206.1,131 203.1,128 203.1,124.3 C203.1,120.6 206.1,117.6 209.8,117.6 z M72.6,37.6 C57.3,37.6 44.9,50 45,65.2 C45,80.4 57.4,92.8 72.6,92.8 C87.8,92.8 100.2,80.4 100.2,65.2 C100.2,50 87.8,37.6 72.6,37.6 z M141.2,37.6 C126,37.6 113.6,50 113.6,65.3 C113.6,80.5 126,92.9 141.2,92.9 C156,92.9 168,81.3 168.8,66.7 C168.8,66.2 168.8,65.7 168.8,65.2 C168.8,64.7 168.8,64.2 168.8,63.7 C168,49.2 155.9,37.6 141.2,37.6 z M209.8,37.6 C195.1,37.6 183,49.2 182.2,63.7 C182.2,64.2 182.2,64.7 182.2,65.2 C182.2,65.7 182.2,66.2 182.2,66.7 C183,81.2 195.1,92.8 209.8,92.8 C225,92.8 237.4,80.4 237.4,65.2 C237.4,50 225,37.6 209.8,37.6 z M72.6,106.3 C49.9,106.3 31.5,87.9 31.5,65.2 C31.5,42.5 50,24.1 72.6,24.1 C86.9,24.1 99.6,31.5 106.9,42.7 C114.2,31.5 126.8,24.1 141.2,24.1 C155.5,24.1 168.1,31.5 175.5,42.6 C182.8,31.5 195.5,24.1 209.8,24.1 C232.5,24.1 250.9,42.6 250.9,65.2 C250.9,87.9 232.4,106.3 209.8,106.3 C195.5,106.3 182.9,98.9 175.5,87.8 C168.2,98.9 155.5,106.3 141.2,106.3 C126.9,106.3 114.2,98.9 106.9,87.7 C99.6,98.9 86.9,106.3 72.6,106.3 z M39.8,201.6 C43.6,201.6 46.6,204.7 46.5,208.3 L46.5,252.5 C46.5,256.2 43.5,259.2 39.8,259.2 C36.1,259.2 33.1,256.2 33.1,252.5 L33.1,215.1 L9.3,215.1 C6.3,215.1 3.6,213.1 2.8,210.2 C1,203.7 0,197 0,190.2 C0,150.2 32.6,117.7 72.6,117.7 C76.3,117.7 79.3,120.7 79.3,124.4 C79.3,128.1 76.3,131.1 72.6,131.1 C40,131.1 13.5,157.6 13.5,190.2 C13.5,194 13.9,197.8 14.6,201.6 L39.8,201.6 z" fill="#000000"/>
  </g>
</svg>
