<?xml version="1.0" encoding="UTF-8"?>
<!DOCTYPE svg PUBLIC "-//W3C//DTD SVG 1.1//EN" "http://www.w3.org/Graphics/SVG/1.1/DTD/svg11.dtd">
<svg version="1.1" xmlns="http://www.w3.org/2000/svg" xmlns:xlink="http://www.w3.org/1999/xlink" x="0" y="0" width="283.5" height="283.5" viewBox="0, 0, 283.5, 283.5">
  <g id="Background">
    <rect x="0" y="0" width="283.5" height="283.5" fill="#FFFFFF"/>
  </g>
  <g id="Layer_1">
    <path d="M141.7,0 C219.9,0 283.4,63.6 283.4,141.7 C283.5,219.9 219.9,283.5 141.7,283.5 C63.6,283.5 0,219.9 0,141.7 C0,63.6 63.6,0 141.7,0 z M141.7,13.6 C71,13.6 13.6,71.1 13.6,141.7 C13.6,212.4 71.1,269.8 141.7,269.8 C212.4,269.8 269.8,212.3 269.8,141.7 C269.9,71.1 212.4,13.6 141.7,13.6 z M220.08,164.145 C223.161,164.26 221.878,163.952 224,164.7 C227.4,166.3 228.9,170.3 227.3,173.7 C211.9,207 178.3,228.4 141.7,228.4 C105.2,228.4 71.6,206.9 56.1,173.7 C54.5,170.3 56,166.3 59.4,164.7 C62.8,163.1 66.8,164.6 68.4,168 C81.6,196.4 110.4,214.8 141.7,214.8 C173,214.8 201.7,196.4 215,168 C216.249,165.476 217.617,165.054 220.08,164.145 z M92.8,68.7 L95.151,68.819 C107.15,70.564 115.192,79.665 115.8,91.7 C115.8,104.4 105.5,114.7 92.8,114.7 C80.1,114.7 69.8,104.4 69.8,91.7 C69.8,79 80.1,68.7 92.8,68.7 z M92.8,82.3 L92.8,82.3 C87.6,82.3 83.4,86.5 83.4,91.7 C83.4,96.9 87.6,101.1 92.8,101.1 C98,101.1 102.2,96.9 102.2,91.7 C102.2,86.5 98,82.3 92.8,82.3 z M190.7,68.7 C203.4,68.7 213.7,79 213.7,91.7 C213.7,104.4 203.4,114.7 190.7,114.7 C178,114.7 167.7,104.4 167.7,91.7 C167.7,79 178,68.7 190.7,68.7 z M190.7,82.3 C185.5,82.3 181.3,86.5 181.3,91.7 C181.3,96.9 185.5,101.1 190.7,101.1 C195.9,101.1 200.1,96.9 200.1,91.7 C200.1,86.5 195.9,82.3 190.7,82.3 z" fill="#000000"/>
  </g>
</svg>
