<?xml version="1.0" encoding="UTF-8"?>
<!DOCTYPE svg PUBLIC "-//W3C//DTD SVG 1.1//EN" "http://www.w3.org/Graphics/SVG/1.1/DTD/svg11.dtd">
<svg version="1.1" xmlns="http://www.w3.org/2000/svg" xmlns:xlink="http://www.w3.org/1999/xlink" x="0" y="0" width="283.5" height="283.5" viewBox="0, 0, 283.5, 283.5">
  <g id="Background">
    <rect x="0" y="0" width="283.5" height="283.5" fill="#FFFFFF"/>
  </g>
  <g id="Layer_1">
    <path d="M282.9,168.8 L276.8,142 C274.2,130.6 263,121.7 251.4,121.7 L206.5,121.7 L170,85.2 C164.7,79.9 155.1,75.9 147.6,75.9 L34.9,75.9 C26.4,75.9 17.7,81.9 14.6,89.9 L1.4,125.8 C1.4,125.8 1.4,125.8 1.4,125.8 C1.4,125.8 1.4,125.8 1.4,125.8 L1.4,125.8 C1.4,125.8 1.4,125.9 1.4,125.9 C1.4,126 1.3,126.1 1.3,126.2 C0.5,128.6 0,131 0,133.5 L0,169.7 C0,181.9 9.9,191.8 22.1,191.8 L30.5,191.8 C33.3,200.8 41.7,207.4 51.7,207.4 C61.6,207.4 70.1,200.8 72.9,191.8 L205,191.8 C207.8,200.8 216.2,207.4 226.2,207.4 C236.1,207.4 244.6,200.8 247.4,191.8 L264.5,191.8 C270.6,191.8 276.1,189.3 279.6,184.9 C283,180.6 284.3,174.7 282.9,168.8 z M160.8,94.4 L188,121.6 L131.7,121.6 L131.7,88.9 L147.6,88.9 C151.6,88.9 158,91.6 160.8,94.4 z M73.8,121.6 L73.8,88.9 L118.7,88.9 L118.7,121.6 L73.8,121.6 z M26.8,94.5 C27.9,91.6 31.8,88.9 34.9,88.9 L60.8,88.9 L60.8,121.6 L16.8,121.6 L26.8,94.5 z M51.7,194.6 C46.7,194.6 42.6,190.5 42.6,185.5 C42.6,180.5 46.7,176.4 51.7,176.4 C56.7,176.4 60.8,180.5 60.8,185.5 C60.8,190.5 56.7,194.6 51.7,194.6 z M226.2,194.6 C221.2,194.6 217.1,190.5 217.1,185.5 C217.1,180.5 221.2,176.4 226.2,176.4 C231.2,176.4 235.3,180.5 235.3,185.5 C235.3,190.5 231.2,194.6 226.2,194.6 z M269.3,176.9 C268.3,178.2 266.5,178.9 264.4,178.9 L247.3,178.9 C244.5,169.9 236.1,163.3 226.1,163.3 C216.2,163.3 207.7,169.9 204.9,178.9 L72.9,178.9 C70.1,169.9 61.7,163.3 51.7,163.3 C41.8,163.3 33.3,169.9 30.5,178.9 L22.1,178.9 C17.1,178.9 13,174.8 13,169.8 L13,134.6 L251.4,134.6 C257,134.6 262.9,139.4 264.1,144.8 L270.2,171.6 C270.7,173.7 270.4,175.6 269.3,176.9 z" fill="#010202"/>
  </g>
</svg>
