<?xml version="1.0" encoding="UTF-8"?>
<!DOCTYPE svg PUBLIC "-//W3C//DTD SVG 1.1//EN" "http://www.w3.org/Graphics/SVG/1.1/DTD/svg11.dtd">
<svg version="1.1" xmlns="http://www.w3.org/2000/svg" xmlns:xlink="http://www.w3.org/1999/xlink" x="0" y="0" width="283.5" height="283.5" viewBox="0, 0, 283.5, 283.5">
  <g id="Background">
    <rect x="0" y="0" width="283.5" height="283.5" fill="#FFFFFF"/>
  </g>
  <g id="Layer_1">
    <path d="M276.7,270 L175.5,270 L175.5,120 C183.4,122.8 189,130.3 189,139.1 C189,139.6 189,140 189.1,140.4 C189,140.8 189,141.3 189,141.7 L189,222.7 C189,233.9 198.1,242.9 209.2,242.9 C220.4,242.9 229.4,233.8 229.4,222.7 L229.4,77.6 C244.8,74.5 256.4,60.8 256.4,44.5 L256.4,31 C256.4,27.3 253.4,24.3 249.7,24.3 L243,24.3 L243,6.7 C243,3 240,0 236.3,0 C232.6,0 229.6,3 229.6,6.7 L229.6,24.2 L216,24.2 L216,6.7 C216,3 213,0 209.3,0 C205.6,0 202.6,3 202.6,6.7 L202.6,24.2 L195.8,24.2 C192.1,24.2 189.1,27.2 189.1,30.9 L189.1,44.4 C189.1,60.7 200.7,74.3 216.1,77.5 L216.1,222.6 C216.1,226.3 213.1,229.3 209.4,229.3 C205.7,229.3 202.7,226.3 202.7,222.6 L202.7,141.6 C202.7,141.1 202.7,140.7 202.6,140.3 C202.7,139.9 202.7,139.4 202.7,139 C202.7,122.7 191.1,109.1 175.7,105.9 L175.7,6.7 C175.7,3 172.7,0 169,0 L61,0 C57,0 54,3 54,6.7 L54,270 L6.7,270 C3,270 0,273 0,276.7 C0,280.4 3,283.4 6.7,283.4 L60.7,283.4 L168.7,283.4 L276.7,283.4 C280.4,283.4 283.4,280.4 283.4,276.7 C283.5,273 280.4,270 276.7,270 z M202.5,44.5 L202.5,37.8 L243,37.8 L243,44.5 C243,55.7 233.9,64.7 222.8,64.7 C211.6,64.8 202.5,55.7 202.5,44.5 z M67.5,270 L67.5,13.5 L162,13.5 L162,270 L67.5,270 z M133.8,111.6 C133.8,111.8 133.9,111.9 133.8,112.2 C133.8,112.3 133.8,112.3 133.8,112.4 C133.8,112.6 133.7,112.9 133.7,113.1 C133.7,113.3 133.6,113.5 133.6,113.7 C133.5,113.9 133.5,114.1 133.4,114.3 C133.3,114.5 133.2,114.8 133.1,115 C133,115.1 133,115.1 133,115.2 L116.1,148.9 C115,151.2 112.6,152.6 110.1,152.6 C109.1,152.6 108.1,152.4 107.1,151.9 C103.8,150.2 102.4,146.1 104.1,142.8 L116.1,118.8 L100,118.8 C100,118.8 100,118.8 100,118.8 C100,118.8 99.9,118.8 99.9,118.8 C99.5,118.7 99,118.7 98.6,118.6 C98.4,118.6 98.3,118.5 98.2,118.5 C97.9,118.4 97.5,118.3 97.2,118.1 C97.1,118 97.1,118 97,118 C96.9,117.9 96.8,117.9 96.7,117.8 C96.5,117.7 96.3,117.5 96.1,117.4 C95.9,117.3 95.8,117.1 95.6,117 C95.4,116.8 95.2,116.7 95.1,116.5 C95,116.3 94.8,116.2 94.7,116 C94.5,115.9 94.4,115.7 94.3,115.5 C94.2,115.3 94.1,115.1 94,114.9 C93.9,114.7 93.8,114.5 93.7,114.3 C93.6,114.1 93.6,113.9 93.5,113.7 C93.5,113.5 93.4,113.3 93.4,113.1 C93.3,112.9 93.3,112.6 93.3,112.4 C93.3,112.3 93.3,112.1 93.3,112 C93.3,111.9 93.3,111.9 93.3,111.8 C93.3,111.6 93.4,111.3 93.4,111.1 C93.4,110.9 93.5,110.7 93.5,110.5 C93.6,110.3 93.6,110.1 93.7,109.9 C93.8,109.6 93.9,109.4 94,109.2 C94.1,109.1 94.1,109.1 94.1,109 L110.9,75.2 C112.6,71.9 116.7,70.5 120,72.2 C123.3,73.9 124.7,78 123,81.3 L111,105.3 L127.1,105.3 C127.2,105.3 127.2,105.3 127.3,105.3 C127.5,105.3 127.8,105.4 128,105.4 C128.2,105.4 128.4,105.5 128.6,105.5 C128.8,105.6 129,105.6 129.2,105.7 C129.4,105.8 129.7,105.9 129.9,106 C130,106.1 130,106.1 130.1,106.1 C130.2,106.1 130.3,106.2 130.4,106.3 C130.6,106.4 130.8,106.6 131,106.7 C131.2,106.8 131.3,107 131.5,107.1 C131.7,107.2 131.9,107.3 132,107.5 C132.1,107.7 132.3,107.8 132.4,108 C132.6,108.1 132.7,108.3 132.8,108.5 C132.9,108.7 133,108.9 133.1,109.1 C133.2,109.3 133.3,109.5 133.4,109.7 C133.5,109.9 133.5,110.1 133.6,110.3 C133.6,110.5 133.7,110.7 133.7,110.9 C133.8,111.1 133.8,111.4 133.8,111.6 z" fill="#000000"/>
  </g>
</svg>
