<?xml version="1.0" encoding="UTF-8"?>
<!DOCTYPE svg PUBLIC "-//W3C//DTD SVG 1.1//EN" "http://www.w3.org/Graphics/SVG/1.1/DTD/svg11.dtd">
<svg version="1.1" xmlns="http://www.w3.org/2000/svg" xmlns:xlink="http://www.w3.org/1999/xlink" x="0" y="0" width="283.5" height="283.5" viewBox="0, 0, 283.5, 283.5">
  <g id="Background">
    <rect x="0" y="0" width="283.5" height="283.5" fill="#FFFFFF"/>
  </g>
  <g id="Layer_1">
    <path d="M230.8,78.3 C237.7,78.3 244.1,75.6 248.9,70.8 C253.8,65.9 256.4,59.5 256.4,52.6 C256.4,45.7 253.7,39.3 248.9,34.5 C244.1,29.7 237.6,27 230.8,27 C223.9,27 217.5,29.7 212.6,34.5 C202.6,44.5 202.6,60.8 212.6,70.8 C217.5,75.7 223.9,78.3 230.8,78.3 z M222.2,44.1 C224.6,41.7 227.7,40.5 230.8,40.5 C233.9,40.5 237,41.7 239.4,44.1 C244.1,48.8 244.1,56.5 239.4,61.3 C237,63.7 233.9,64.9 230.8,64.9 C227.7,64.9 224.6,63.7 222.2,61.3 C217.4,56.5 217.4,48.8 222.2,44.1 z M134.9,172.8 C138.6,172.8 141.7,175.8 141.3,179.2 C141.3,183 138.2,186 134.5,186 L94,186 C94,186 94,186 94,186 C94,186 94,186 94,186 C93.7,186 93.4,185.9 93.1,185.9 C93.1,185.9 93,185.9 92.9,185.9 C92.6,185.9 92.3,185.8 92,185.7 C92,185.7 91.9,185.7 91.9,185.7 C91.6,185.7 91.4,185.5 91.1,185.4 C91.1,185.3 91,185.3 91,185.3 C90.7,185.2 90.5,185 90.2,184.8 C90.2,184.8 90.1,184.8 90.1,184.8 C90.1,184.8 90,184.7 90,184.7 C89.9,184.7 89.8,184.6 89.7,184.5 C89.7,184.4 89.6,184.4 89.5,184.3 C89.4,184.3 89.4,184.2 89.3,184.1 C89.3,184 89.2,183.9 89.1,183.8 C89,183.7 89,183.7 88.9,183.6 C88.8,183.5 88.8,183.4 88.7,183.3 C88.6,183.3 88.6,183.2 88.5,183.1 C88.4,183 88.4,182.9 88.3,182.8 C88.3,182.7 88.2,182.6 88.2,182.5 C88.2,182.4 88.1,182.3 88.1,182.2 C88.1,182.1 88,182 88,181.9 C88,181.8 87.9,181.7 87.9,181.6 C87.9,181.4 87.8,181.3 87.8,181.2 C87.7,181.1 87.7,181 87.7,180.9 C87.6,180.8 87.6,180.7 87.6,180.6 C87.6,180.5 87.6,180.4 87.6,180.3 C87.6,180.2 87.6,180.1 87.6,180 C87.6,179.8 87.6,179.7 87.6,179.6 C87.6,179.6 87.6,179.5 87.6,179.5 C87.6,179.5 87.6,179.5 87.6,179.4 C87.6,179.3 87.6,179.1 87.6,179 C87.6,178.9 87.6,178.8 87.6,178.7 C87.7,178.5 87.7,178.4 87.7,178.3 C87.8,178.2 87.8,178.1 87.8,178 C87.8,177.9 87.9,177.8 87.9,177.7 C87.9,177.6 88,177.5 88,177.4 C88,177.3 88.1,177.2 88.1,177.1 C88.1,177 88.2,176.9 88.2,176.8 C88.2,176.7 88.3,176.6 88.3,176.5 C88.4,176.4 88.4,176.3 88.5,176.2 C88.6,176.1 88.6,176 88.7,175.9 C88.8,175.8 88.8,175.7 88.9,175.6 C88.9,175.6 89,175.5 89,175.5 L121.4,132.4 L94.4,132.4 C90.6,132.4 87.6,129.3 87.6,125.6 C87.6,121.8 90.7,118.8 94.4,118.8 L135.2,118.8 C135.2,118.8 135.3,118.8 135.3,118.8 C135.4,118.8 135.6,118.8 135.7,118.8 C135.8,118.8 135.9,118.8 136,118.8 C136.2,118.9 136.3,118.9 136.4,118.9 C136.5,119 136.6,119 136.7,119 C136.8,119 136.9,119.1 137,119.1 C137.1,119.1 137.2,119.2 137.3,119.2 C137.4,119.2 137.5,119.3 137.6,119.3 C137.7,119.3 137.8,119.4 137.9,119.4 C138,119.4 138.1,119.5 138.2,119.5 C138.3,119.6 138.4,119.6 138.5,119.7 C138.6,119.8 138.7,119.8 138.8,119.9 C138.9,120 139,120 139.1,120.1 C139.1,120.1 139.2,120.2 139.2,120.2 C139.2,120.2 139.3,120.3 139.3,120.3 C139.4,120.3 139.5,120.4 139.6,120.5 C139.6,120.6 139.7,120.6 139.8,120.7 C139.9,120.7 139.9,120.8 140,120.9 C140,121 140.1,121.1 140.2,121.2 C140.3,121.2 140.3,121.3 140.4,121.4 C140.5,121.5 140.5,121.6 140.6,121.7 C140.7,121.7 140.7,121.8 140.8,121.9 C140.9,122 140.9,122.1 141,122.2 C141,122.3 141.1,122.4 141.1,122.5 C141.1,122.6 141.2,122.7 141.2,122.8 C141.2,122.9 141.3,123 141.3,123.1 C141.3,123.2 141.4,123.3 141.4,123.4 C141.4,123.6 141.5,123.7 141.5,123.8 C141.6,123.9 141.6,124 141.6,124.1 C141.7,124.3 141.7,124.4 141.7,124.5 C141.7,124.6 141.7,124.7 141.7,124.8 C141.7,124.9 141.7,125 141.7,125.1 C141.7,125.3 141.7,125.4 141.7,125.5 C141.7,125.5 141.7,125.6 141.7,125.6 C141.7,125.7 141.7,125.7 141.7,125.8 C141.7,125.9 141.7,126.1 141.7,126.2 C141.7,126.3 141.7,126.4 141.7,126.5 C141.6,126.7 141.6,126.8 141.6,126.9 C141.5,127 141.5,127.1 141.5,127.2 C141.5,127.3 141.4,127.4 141.4,127.5 C141.4,127.6 141.3,127.7 141.3,127.8 C141.3,127.9 141.2,128 141.2,128.1 C141.2,128.2 141.1,128.3 141.1,128.4 C141.1,128.5 141,128.6 141,128.7 C140.9,128.8 140.9,128.9 140.8,129 C140.7,129 140.7,129.1 140.6,129.2 C140.5,129.3 140.5,129.4 140.4,129.5 C140.4,129.5 140.3,129.6 140.3,129.6 L107.9,172.8 L134.9,172.8 z M155.2,98.5 C155.2,94.8 158.2,91.8 161.9,91.7 C165.7,91.7 168.7,94.8 168.7,98.5 L168.7,130.3 L173.6,127.6 C176.9,125.8 181,127 182.8,130.3 C184.6,133.6 183.4,137.7 180.1,139.5 L168.8,145.7 L168.8,179.5 C168.8,183.3 165.7,186.3 162,186.3 C158.2,186.3 155.2,183.2 155.2,179.5 L155.2,153.1 L150.3,155.8 C149.3,156.3 148.2,156.6 147.1,156.6 C144.7,156.6 142.4,155.3 141.2,153.1 C139.4,149.8 140.6,145.7 143.9,143.9 L155.2,137.7 L155.2,98.5 z M270,118.6 L270,13.5 L164.9,13.5 L16.3,162.1 L121.4,267.2 L270,118.6 z M281.5,2 C282.7,3.2 283.5,5 283.5,6.8 L283.5,121.4 C283.5,123.2 282.8,124.9 281.5,126.2 L126.2,281.5 C124.9,282.8 123.2,283.5 121.4,283.5 C119.6,283.5 117.9,282.8 116.6,281.5 L2,166.9 C-0.6,164.2 -0.6,159.9 2,157.3 L157.3,2 C158.6,0.7 160.3,0 162.1,0 L276.7,0 C278.5,0 280.2,0.7 281.5,2 z" fill="#000000"/>
  </g>
</svg>
