<?xml version="1.0" encoding="UTF-8"?>
<!DOCTYPE svg PUBLIC "-//W3C//DTD SVG 1.1//EN" "http://www.w3.org/Graphics/SVG/1.1/DTD/svg11.dtd">
<svg version="1.1" xmlns="http://www.w3.org/2000/svg" xmlns:xlink="http://www.w3.org/1999/xlink" x="0" y="0" width="283.5" height="283.5" viewBox="0, 0, 283.5, 283.5">
  <g id="Background">
    <rect x="0" y="0" width="283.5" height="283.5" fill="#FFFFFF"/>
  </g>
  <g id="Layer_1">
    <path d="M78.1,185.6 C73.2,185.6 67.5,184.7 62.6,183 C61.1,182.4 61,181.6 61.4,180.4 L63.1,175.1 C63.5,173.7 64.4,173.6 65.8,174 C69.6,175.4 73.8,176.4 77.9,176.4 C82.3,176.4 87.2,174.3 87.2,169.2 C87.2,165.5 84.4,163.4 81.3,161.9 L70.8,156.6 C65,153.8 61.2,149 61.2,142.7 C61.2,132.8 70.9,127.4 79.9,127.4 C85.2,127.4 89.7,128.2 94.4,130.2 C95.9,130.8 96.3,131.5 95.8,132.9 L93.9,137.8 C93.4,139.2 92.5,139.3 91.2,138.7 C87.8,137.2 83.7,136.2 80.5,136.2 C76.7,136.2 72.3,137.8 72.3,142.4 C72.3,145.7 75.4,147.7 78.1,149 L87.1,153.4 C93.5,156.5 97.9,160.8 97.9,168.2 C97.8,179.5 88.6,185.6 78.1,185.6 z M136.1,158.2 L136.1,153.5 C136.1,152.3 135.7,151.7 134.2,151.7 L115.4,151.7 L115.4,137 L135.7,137 C137.4,137 138.3,136.8 138.5,135.3 L139.1,130.4 C139.3,129.2 139,128.5 137.4,128.5 L106.8,128.5 C105.5,128.5 104.9,129.2 104.9,130.5 L104.9,182.4 C104.9,184.2 105.5,184.6 107.1,184.6 L137.2,184.6 C138.5,184.6 139.1,184 139.1,182.7 L139.1,178.1 C139.1,176.8 138.5,176.2 137.1,176.2 L115.4,176.2 L115.4,160 L134.2,160 C135.7,160 136.1,159.3 136.1,158.2 z M178.5,184.6 L186.5,184.6 C187.7,184.6 188,183.9 188,183.5 C188,183.1 187.8,182.6 187,181.6 L165.8,155.6 L184,131.1 C184.4,130.6 184.6,130.1 184.6,129.6 C184.6,129.1 184.3,128.5 183.1,128.5 L176.9,128.5 C175.4,128.5 174.7,128.9 173.9,130 L157.2,153.4 L157,153.4 L157,130.5 C157,129.1 156.4,128.6 155.1,128.6 L148.6,128.6 C147.3,128.6 146.6,129.1 146.6,130.5 L146.6,182.6 C146.6,184 147.1,184.6 148.6,184.6 L155.1,184.6 C156.4,184.6 157,184.1 157,182.6 L157,160.1 L157.1,160.1 L174.6,182.6 C175.7,184 176.6,184.6 178.5,184.6 z M230.8,27 L230.8,27 C237.6,27 244.1,29.7 248.8,34.5 C258.8,44.5 258.8,60.8 248.8,70.8 C244,75.6 237.6,78.3 230.7,78.3 C223.9,78.3 217.4,75.6 212.6,70.8 C202.6,60.8 202.6,44.5 212.6,34.5 C217.5,29.7 223.9,27 230.8,27 z M230.8,40.5 C227.7,40.5 224.6,41.7 222.2,44.1 C217.5,48.9 217.5,56.6 222.2,61.3 C224.6,63.7 227.7,64.9 230.8,64.9 C233.9,64.9 237,63.7 239.4,61.3 C244.1,56.5 244.1,48.8 239.4,44.1 C237,41.7 233.9,40.5 230.8,40.5 M16.3,162.1 L164.9,13.5 L270,13.5 L270,118.6 L121.4,267.2 L16.3,162.1 z M121.4,283.5 C123.2,283.5 124.9,282.8 126.1,281.5 L281.5,126.2 C282.8,124.9 283.5,123.2 283.5,121.4 L283.5,6.8 C283.5,5 282.8,3.3 281.5,2 C280.2,0.7 278.5,0 276.7,0 L162.1,0 C160.3,0 158.6,0.7 157.3,2 L2,157.3 C-0.6,160 -0.6,164.3 2,166.9 L116.6,281.5 C117.9,282.8 119.6,283.5 121.4,283.5 z" fill="#000000"/>
  </g>
</svg>
