<?xml version="1.0" encoding="UTF-8"?>
<!DOCTYPE svg PUBLIC "-//W3C//DTD SVG 1.1//EN" "http://www.w3.org/Graphics/SVG/1.1/DTD/svg11.dtd">
<svg version="1.1" xmlns="http://www.w3.org/2000/svg" xmlns:xlink="http://www.w3.org/1999/xlink" x="0" y="0" width="283.5" height="283.5" viewBox="0, 0, 283.5, 283.5">
  <g id="Background">
    <rect x="0" y="0" width="283.5" height="283.5" fill="#FFFFFF"/>
  </g>
  <g id="Layer_1">
    <path d="M120.1,155.9 C124,155.9 127.1,159 127.2,163 L127.2,247.8 C127.2,251.7 124,254.9 120.1,254.9 L7.1,254.9 C3.2,254.9 -0,251.7 -0,247.8 L-0,163 C-0,159.1 3.2,155.9 7.1,155.9 L120.1,155.9 z M113,170 L14.1,170 L14.1,240.6 L113,240.6 L113,170 z M268.4,170 L268.4,240.6 L169.5,240.6 L169.5,170 L268.4,170 z M275.5,155.9 L162.5,155.9 C158.6,155.9 155.4,159.1 155.4,163 L155.4,247.8 C155.4,251.7 158.6,254.9 162.5,254.9 L275.5,254.9 C279.4,254.9 282.6,251.7 282.6,247.8 L282.6,163 C282.5,159 279.4,155.9 275.5,155.9 z M268.4,42.8 L268.4,113.5 L169.5,113.5 L169.5,42.8 L268.4,42.8 z M275.5,28.7 L162.5,28.7 C158.6,28.7 155.4,31.9 155.4,35.8 L155.4,120.6 C155.4,124.5 158.6,127.7 162.5,127.7 L275.5,127.7 C279.4,127.7 282.6,124.5 282.6,120.6 L282.6,35.8 C282.5,31.9 279.4,28.7 275.5,28.7 z M120.1,28.7 L7.1,28.7 C3.2,28.7 -0,31.9 -0,35.8 L-0,120.6 C-0,124.5 3.2,127.7 7.1,127.7 L120.1,127.7 C124,127.7 127.2,124.5 127.2,120.6 L127.2,35.8 C127.1,31.9 124,28.7 120.1,28.7 z" fill="#000000"/>
  </g>
</svg>
