<?xml version="1.0" encoding="UTF-8"?>
<!DOCTYPE svg PUBLIC "-//W3C//DTD SVG 1.1//EN" "http://www.w3.org/Graphics/SVG/1.1/DTD/svg11.dtd">
<svg version="1.1" xmlns="http://www.w3.org/2000/svg" xmlns:xlink="http://www.w3.org/1999/xlink" x="0" y="0" width="283.5" height="283.5" viewBox="0, 0, 283.5, 283.5">
  <g id="Background">
    <rect x="0" y="0" width="283.5" height="283.5" fill="#FFFFFF"/>
  </g>
  <g id="Layer_1">
    <path d="M276.7,-0.5 C278.5,-0.5 280.2,0.2 281.5,1.5 C282.8,2.8 283.5,4.5 283.5,6.3 L283.5,120.9 C283.5,122.7 282.8,124.4 281.5,125.7 L126.1,281 C124.9,282.3 123.2,283 121.4,283 C119.6,283 117.9,282.3 116.6,281 L2,166.4 C-0.6,163.8 -0.6,159.5 2,156.8 L157.3,1.5 C158.6,0.2 160.3,-0.5 162.1,-0.5 L276.7,-0.5 z M270,13 L164.9,13 L16.3,161.6 L121.4,266.7 L270,118.1 L270,13 z M135.5,106.3 C147,106.3 157.8,110.8 165.9,118.9 C168.5,121.5 168.5,125.8 165.9,128.5 C163.3,131.1 159,131.1 156.3,128.5 C150.7,122.9 143.3,119.9 135.5,119.9 C127.7,119.9 120.2,123 114.7,128.5 C110.979,132.355 108.036,137.087 107.007,142.4 L136.9,142.4 C140.6,142.4 143.7,145.4 143.7,149.2 C143.7,153 140.7,156 136.9,156 L106.949,156 C107.812,161.517 111.048,166.158 114.7,170.2 C120.3,175.8 127.7,178.8 135.5,178.8 C143.3,178.8 150.8,175.7 156.3,170.2 C158.9,167.6 163.2,167.6 165.9,170.2 C168.5,172.8 168.5,177.1 165.9,179.8 C157.7,187.8 146.9,192.3 135.5,192.3 C124,192.3 113.2,187.8 105.1,179.7 C98.545,173.252 94.651,164.979 93.133,156 L87.2,156 C83.5,156 80.4,153 80.4,149.2 C80.4,145.5 83.4,142.4 87.2,142.4 L93.167,142.4 C94.365,133.38 98.9,125.422 105.1,118.9 C113.2,110.8 124,106.3 135.5,106.3 z M230.8,26.5 C237.6,26.5 244.1,29.2 248.8,33.9 C253.6,38.8 256.3,45.2 256.3,52.1 C256.3,59 253.7,65.4 248.8,70.3 C244,75.1 237.6,77.8 230.7,77.8 C223.9,77.8 217.5,75.1 212.6,70.3 C202.6,60.3 202.6,44 212.6,34 C217.5,29.2 223.9,26.5 230.8,26.5 z M230.8,40.1 C227.7,40.1 224.6,41.2 222.2,43.7 C217.5,48.5 217.5,56.1 222.2,60.9 C224.6,63.3 227.7,64.5 230.8,64.5 C233.9,64.5 237,63.3 239.4,60.9 C244.1,56.1 244.1,48.4 239.4,43.7 C237,41.3 233.9,40.1 230.8,40.1 z" fill="#010202"/>
  </g>
</svg>
