<?xml version="1.0" encoding="UTF-8"?>
<!DOCTYPE svg PUBLIC "-//W3C//DTD SVG 1.1//EN" "http://www.w3.org/Graphics/SVG/1.1/DTD/svg11.dtd">
<svg version="1.1" xmlns="http://www.w3.org/2000/svg" xmlns:xlink="http://www.w3.org/1999/xlink" x="0" y="0" width="283.5" height="283.5" viewBox="0, 0, 283.5, 283.5">
  <g id="Background">
    <rect x="0" y="0" width="283.5" height="283.5" fill="#FFFFFF"/>
  </g>
  <g id="Layer_1">
    <path d="M276.7,0 C278.5,0 280.2,0.7 281.5,2 C282.8,3.3 283.5,5 283.5,6.8 L283.5,121.4 C283.5,123.2 282.8,124.9 281.5,126.2 L126.2,281.5 C124.9,282.8 123.2,283.5 121.4,283.5 C119.6,283.5 117.9,282.8 116.6,281.5 L2,166.9 C-0.6,164.3 -0.6,160 2,157.3 L157.3,2 C158.6,0.7 160.3,0 162.1,0 L276.7,0 z M270,13.5 L164.9,13.5 L16.3,162.1 L121.4,267.2 L270,118.6 L270,13.5 z M171.7,171.9 C175.4,171.9 179,174.5 179,178.9 C179,183.4 175.2,185.9 171.7,185.9 C168.2,185.9 164.3,183.4 164.3,179 C164.3,174.5 168,171.9 171.7,171.9 z M98.5,121.1 C100.2,121.1 101.2,121.6 101.2,123.5 L101.2,149 L101.5,149 L117.8,123 C118.8,121.4 119.9,121.1 121.7,121.1 L130.4,121.1 C132.1,121.1 132.5,121.8 132.5,122.6 C132.5,123.2 132.1,123.8 131.8,124.3 L113.2,151.9 L136.4,181.6 C136.8,182.1 137.1,182.7 137.1,183.3 C137.1,184.1 136.7,184.9 135,184.9 L123.9,184.9 C121.3,184.9 120,184.1 118.8,182.2 L101.5,158.4 L101.2,158.4 L101.2,182.2 C101.2,184.1 100.4,184.9 98.5,184.9 L89.4,184.9 C87.5,184.9 86.6,184.3 86.6,182.2 L86.6,123.5 C86.6,121.7 87.8,121.1 89.4,121.1 L98.5,121.1 z M166.3,138.7 C169.1,138.7 170.1,139.3 169.8,141.2 L168.4,149.9 C168.2,150.9 167.8,151.4 166.9,151.4 C166,151.4 165.5,151.2 164,151.2 C160.9,151.2 157.8,152.4 155.5,154.7 L155.5,182.2 C155.5,183.9 154.8,184.8 152.9,184.8 L144.3,184.8 C142.6,184.8 141.7,184 141.7,182.2 L141.7,142.7 C141.7,140.5 142.8,140 144.4,140 L151.8,140 C153.5,140 154.4,140.5 154.5,141.8 L154.7,144.6 C158,140.7 161.2,138.7 166.3,138.7 z M230.8,27 C237.6,27 244.1,29.7 248.9,34.5 C258.9,44.5 258.9,60.8 248.9,70.8 C244.1,75.6 237.7,78.3 230.8,78.3 C224,78.3 217.5,75.6 212.7,70.8 C202.7,60.8 202.7,44.5 212.7,34.5 C217.5,29.7 223.9,27 230.8,27 z M230.8,40.5 C227.7,40.5 224.6,41.7 222.2,44.1 C217.5,48.9 217.5,56.6 222.2,61.3 C224.6,63.7 227.7,64.9 230.8,64.9 C233.9,64.9 237,63.7 239.4,61.3 C244.1,56.5 244.1,48.8 239.4,44.1 C237,41.7 233.9,40.5 230.8,40.5 z" fill="#000000"/>
  </g>
</svg>
