<?xml version="1.0" encoding="UTF-8"?>
<!DOCTYPE svg PUBLIC "-//W3C//DTD SVG 1.1//EN" "http://www.w3.org/Graphics/SVG/1.1/DTD/svg11.dtd">
<svg version="1.1" xmlns="http://www.w3.org/2000/svg" xmlns:xlink="http://www.w3.org/1999/xlink" x="0" y="0" width="283.5" height="283.5" viewBox="0, 0, 283.5, 283.5">
  <g id="Background">
    <rect x="0" y="0" width="283.5" height="283.5" fill="#FFFFFF"/>
  </g>
  <g id="Layer_1">
    <path d="M231,78 C237.8,78 244.2,75.3 249.1,70.5 C253.9,65.7 256.6,59.2 256.6,52.4 C256.6,45.6 253.9,39.2 249.1,34.3 C244.3,29.5 237.9,26.8 231,26.8 C224.2,26.8 217.8,29.5 212.9,34.3 C202.9,44.3 202.9,60.5 212.9,70.5 C217.7,75.4 224.1,78 231,78 z M222.4,43.9 C224.8,41.5 227.9,40.4 231,40.4 C234.1,40.4 237.2,41.6 239.6,43.9 C244.3,48.6 244.3,56.3 239.6,61 C237.2,63.4 234.1,64.5 231,64.5 C227.9,64.5 224.8,63.3 222.4,61 C217.7,56.3 217.7,48.6 222.4,43.9 z M270,118.1 L270,13.5 L165.3,13.5 L17.3,161.5 L122,266.1 L270,118.1 z M281.5,2 C282.7,3.2 283.4,4.9 283.5,6.7 L283.5,120.9 C283.5,122.7 282.8,124.4 281.5,125.7 L126.8,280.4 C125.5,281.7 123.8,282.4 122,282.4 C120.2,282.4 118.5,281.7 117.2,280.4 L3,166.2 C0.4,163.6 0.4,159.3 3,156.7 L157.7,2 C159,0.7 160.7,0 162.5,0 L276.7,0 C278.5,0 280.2,0.7 281.5,2 z M143.7,111.7 C136.3,111.7 130.3,117.8 130.3,125.2 L130.3,134.4 L139,134.4 C142.7,134.4 145.7,137.4 145.7,141.1 C145.7,144.8 142.7,147.8 139,147.8 L130.3,147.8 L130.3,170.4 L163.9,170.4 C167.6,170.4 170.6,173.4 170.6,177.1 C170.6,180.8 167.6,183.8 163.9,183.8 L110.1,183.8 C106.4,183.8 103.4,180.8 103.4,177.1 C103.4,173.4 106.4,170.4 110.1,170.4 L116.8,170.4 L116.8,147.8 L110.1,147.8 C106.4,147.8 103.4,144.8 103.4,141.1 C103.4,137.4 106.4,134.4 110.1,134.4 L116.8,134.4 L116.8,125.2 C116.8,110.4 128.9,98.3 143.7,98.3 C158.5,98.3 170.6,110.4 170.6,125.2 C170.6,128.9 167.6,131.9 163.9,131.9 C160.2,131.9 157.2,128.9 157.2,125.2 C157.2,117.7 151.1,111.7 143.7,111.7 z" fill="#000000"/>
  </g>
</svg>
