<?xml version="1.0" encoding="UTF-8"?>
<!DOCTYPE svg PUBLIC "-//W3C//DTD SVG 1.1//EN" "http://www.w3.org/Graphics/SVG/1.1/DTD/svg11.dtd">
<svg version="1.1" xmlns="http://www.w3.org/2000/svg" xmlns:xlink="http://www.w3.org/1999/xlink" x="0" y="0" width="283.5" height="283.5" viewBox="0, 0, 283.5, 283.5">
  <g id="Background">
    <rect x="0" y="0" width="283.5" height="283.5" fill="#FFFFFF"/>
  </g>
  <g id="Layer_1">
    <path d="M141.2,39 C152,39 160.7,47.7 160.7,58.5 L160.7,78 L206.2,78 C216.1,78 226.4,85.3 229.7,94.6 L247,142.9 L247.071,143.19 C265.053,144.158 276.917,158.211 277.8,175.6 L277.8,214.6 C277.8,232.5 263.2,247.1 245.3,247.1 L238.8,247.1 L238.8,277 C238.8,280.6 235.8,283.5 232.3,283.5 C228.7,283.5 225.8,280.6 225.8,277 L225.8,247.1 L56.7,247.1 L56.7,277 C56.7,280.6 53.8,283.5 50.2,283.5 C46.6,283.5 43.7,280.6 43.7,277 L43.7,247.1 L37.3,247.1 C19.4,247.1 4.8,232.5 4.8,214.6 L4.8,175.6 C5.114,158.681 18.246,144.068 35.427,143.195 L35.5,142.9 L52.8,94.6 C56,85.3 66.4,78 76.2,78 L121.7,78 L121.7,58.5 C121.7,47.7 130.4,39 141.2,39 z M245.2,156 L37.2,156 C26.4,156 17.7,164.7 17.7,175.5 L17.7,214.5 C17.7,225.3 26.4,234 37.2,234 L245.2,234 C256,234 264.7,225.3 264.7,214.5 L264.7,175.5 C264.7,164.7 256,156 245.2,156 z M50.2,176.7 C61,176.7 69.7,185.4 69.7,196.2 C69.7,207 61,215.7 50.2,215.7 C39.4,215.7 30.7,207 30.7,196.2 C30.7,185.4 39.4,176.7 50.2,176.7 z M50.2,189.7 C46.6,189.7 43.7,192.6 43.7,196.2 C43.7,199.8 46.6,202.7 50.2,202.7 C53.8,202.7 56.7,199.8 56.7,196.2 C56.7,192.6 53.8,189.7 50.2,189.7 z M232.3,176.7 C243.1,176.7 251.8,185.4 251.8,196.2 C251.8,207 243,215.7 232.3,215.7 C221.5,215.7 212.8,207 212.8,196.2 C212.8,185.4 221.5,176.7 232.3,176.7 z M232.3,189.7 C228.7,189.7 225.8,192.6 225.8,196.2 C225.8,199.8 228.7,202.7 232.3,202.7 C235.9,202.7 238.8,199.8 238.8,196.2 C238.8,192.6 235.8,189.7 232.3,189.7 z M206.3,91.1 L76.3,91.1 C71.9,91.1 66.5,94.9 65,99 L49.204,143.1 L233.296,143.1 L217.5,99 C216,94.8 210.7,91.1 206.3,91.1 z M141.2,52 C137.6,52 134.7,54.9 134.7,58.5 L134.7,78 L147.7,78 L147.7,58.5 C147.614,56.347 146.681,54.34 144.839,53.107 C144.14,52.64 143.288,52.457 142.513,52.132 L141.2,52 z M102.2,52 L89.2,52 C85.6,52 82.7,54.9 82.7,58.5 C82.7,62.1 85.6,65 89.2,65 L102.2,65 C105.8,65 108.7,62.1 108.7,58.5 C108.7,54.9 105.8,52 102.2,52 z M193.2,52 L180.2,52 C176.6,52 173.7,54.9 173.7,58.5 C173.7,62.1 176.6,65 180.2,65 L193.2,65 C196.8,65 199.7,62.1 199.7,58.5 C199.7,54.9 196.8,52 193.2,52 z M104.717,15.338 C102.694,15.402 101.313,15.598 99.8,17.1 C97.3,19.6 97.3,23.8 99.8,26.3 L109,35.5 C110.3,36.8 111.9,37.4 113.6,37.4 C115.3,37.4 117,36.8 118.2,35.5 C120.7,33 120.7,28.8 118.2,26.3 L109,17.1 C107.337,15.75 108.392,16.441 105.65,15.342 L104.717,15.338 z M178.317,15.338 C176.294,15.402 174.913,15.598 173.4,17.1 L164.2,26.3 C161.7,28.8 161.7,33 164.2,35.5 C165.5,36.8 167.1,37.4 168.8,37.4 C170.5,37.4 172.1,36.8 173.4,35.5 L182.6,26.3 C185.1,23.8 185.1,19.6 182.6,17.1 C180.937,15.75 181.992,16.441 179.249,15.342 L178.317,15.338 z M141.2,-0 C137.6,-0 134.7,2.9 134.7,6.5 L134.7,19.5 C134.7,23.1 137.6,26 141.2,26 C144.8,26 147.7,23.1 147.7,19.5 L147.7,6.5 C147.7,2.9 144.8,-0 141.2,-0 z" fill="#010202"/>
  </g>
</svg>
