<?xml version="1.0" encoding="UTF-8"?>
<!DOCTYPE svg PUBLIC "-//W3C//DTD SVG 1.1//EN" "http://www.w3.org/Graphics/SVG/1.1/DTD/svg11.dtd">
<svg version="1.1" xmlns="http://www.w3.org/2000/svg" xmlns:xlink="http://www.w3.org/1999/xlink" x="0" y="0" width="283.5" height="283.5" viewBox="0, 0, 283.5, 283.5">
  <g id="Background">
    <rect x="0" y="0" width="283.5" height="283.5" fill="#FFFFFF"/>
  </g>
  <g id="Layer_1">
    <path d="M227.4,140.4 C235.1,140.4 242.7,145.8 245.3,153 L256.5,184.5 C268.5,185.9 277.9,196.1 277.9,208.4 L277.9,234.8 C277.9,248.1 267.1,258.9 253.8,258.9 L251.5,258.9 L251.5,277 C251.5,280.6 248.6,283.5 245,283.5 C241.4,283.5 238.5,280.6 238.5,277 L238.5,258.9 L128.5,258.9 L128.5,277 C128.5,280.6 125.6,283.5 122,283.5 C118.4,283.5 115.5,280.6 115.5,277 L115.5,258.9 L113.2,258.9 C99.9,258.9 89.1,248.1 89.1,234.8 L89.1,208.4 C89.1,196.1 98.4,185.9 110.4,184.5 L121.6,153 C124.2,145.8 131.9,140.4 139.5,140.4 L227.4,140.4 z M253.8,197.3 L113.2,197.3 C107.1,197.3 102.1,202.3 102.1,208.4 L102.1,234.8 C102.1,240.9 107.1,245.9 113.2,245.9 L253.7,245.9 C259.9,245.9 264.8,240.9 264.8,234.8 L264.9,234.8 L264.9,208.4 C264.9,202.3 259.9,197.3 253.8,197.3 z M124.8,213.6 C129.7,213.6 133.6,217.5 133.6,222.4 C133.6,227.3 129.7,231.2 124.8,231.2 C119.9,231.2 116,227.3 116,222.4 C116,217.5 119.9,213.6 124.8,213.6 z M242.2,213.6 C247,213.6 250.9,217.5 251,222.4 C251,227.3 247,231.2 242.2,231.2 C237.3,231.2 233.4,227.3 233.4,222.4 C233.4,217.5 237.3,213.6 242.2,213.6 z M227.4,153.4 L139.5,153.4 C137.4,153.4 134.6,155.4 133.9,157.4 L124.3,184.4 L242.6,184.4 L233,157.4 C232.3,155.4 229.5,153.4 227.4,153.4 z M41.104,110.919 C38.164,111.313 39.365,110.906 37.4,111.8 C35.5,112.9 18.9,122.5 12.7,128.8 C7.6,133.9 5.2,140.9 5.8,148.6 C6.4,155.9 9.8,162.9 15.3,168.4 C20.8,173.9 27.8,177.3 35.1,177.9 C35.9,178 36.8,178 37.6,178 C44.3,178 50.4,175.6 55,171 C63.3,162.7 77.4,131.9 79,128.4 C80.3,125.2 78.8,121.3 75.6,119.8 C72.3,118.3 68.5,119.8 67,123 C61.4,135.3 50.7,156.8 45.7,161.7 C43.4,164 40,165.1 36.2,164.8 C32,164.4 27.8,162.4 24.5,159.1 C21.2,155.8 19.1,151.6 18.8,147.4 C18.5,143.6 19.6,140.2 21.9,137.9 C26.2,133.7 39.2,125.7 43.9,123 C47,121.2 48.1,117.2 46.3,114.1 C44.971,112.271 43.442,111.15 41.104,110.919 z M65.658,3.071 C58.304,4.143 53.398,4.715 46.6,8.2 C44.8,9.2 43.4,10.9 43.1,13 C42.7,15.1 43.4,17.2 44.9,18.7 L73.4,47.2 C73.6,47.6 74,47.9 74.3,48.3 C75.7,49.8 76.5,51.6 76.5,53.6 C76.5,55.6 75.7,57.5 74.3,58.9 C71.4,61.8 66.7,61.8 63.8,58.9 C63.4,58.5 63.1,58.2 62.7,58 L34.2,29.4 C32.7,28 30.6,27.3 28.5,27.6 C26.4,28 24.6,29.3 23.7,31.2 C14,50.6 17.9,74 33.3,89.5 C44.9,101.1 61.7,106.3 77.8,103.5 L112.7,138.4 C114,139.6 115.6,140.3 117.3,140.3 C119,140.3 120.6,139.6 121.8,138.3 C124.3,135.8 124.3,131.7 121.8,129.1 L84.4,91.7 C82.8,90.1 80.4,89.4 78.2,90 C65.3,93.4 51.9,89.7 42.4,80.2 C33.3,71.1 29.7,58.2 32.2,46 L54.4,68 C54.8,68.4 55.2,68.7 55.7,69 C63.7,75.8 75.8,75.5 83.4,67.9 C91,60.4 91.4,48.3 84.6,40.3 C84.3,39.8 83.9,39.3 83.5,38.9 L61.3,16.7 C73.5,14.1 86.4,17.8 95.5,26.9 C105,36.4 108.7,49.8 105.4,62.8 C104.8,65 105.5,67.4 107.1,69 L160.3,122.2 C162.9,124.8 167,124.8 169.5,122.2 C172,119.7 172,115.5 169.5,113 L118.9,62.3 C121.6,46.2 116.4,29.4 104.8,17.8 C93.375,7.184 81.297,2.524 65.658,3.071 z M172.026,0.041 L171.2,0.4 L152,12.6 C151,13.3 150.1,14.8 150,16 L149.5,24.7 C148.7,25 147.9,25.5 147.2,26.2 L129,44.3 C126.5,46.9 126.4,51 129,53.5 C130.3,54.8 132,55.4 133.6,55.4 C135.3,55.4 136.9,54.8 138.2,53.5 L156.5,35.4 C157.2,34.7 157.7,33.9 158,33.1 L166.7,32.6 C167.9,32.6 169.5,31.6 170.1,30.6 L182.3,11.5 C182.9,10.4 182.7,8.9 181.9,8 L174.6,0.8 C173.334,-0.089 174.141,0.297 172.026,0.041 z" fill="#000000"/>
  </g>
</svg>
