<?xml version="1.0" encoding="UTF-8"?>
<!DOCTYPE svg PUBLIC "-//W3C//DTD SVG 1.1//EN" "http://www.w3.org/Graphics/SVG/1.1/DTD/svg11.dtd">
<svg version="1.1" xmlns="http://www.w3.org/2000/svg" xmlns:xlink="http://www.w3.org/1999/xlink" x="0" y="0" width="283.5" height="283.5" viewBox="0, 0, 283.5, 283.5">
  <g id="Background">
    <rect x="0" y="0" width="283.5" height="283.5" fill="#FFFFFF"/>
  </g>
  <g id="Layer_1">
    <path d="M276.2,164.5 L186.3,164.5 C182.6,164.5 179.5,161.5 179.5,157.7 C179.5,154 182.5,150.9 186.3,150.9 L269.5,150.9 L269.5,15.8 L139.9,15.8 C136.2,15.8 133.1,12.8 133.1,9 C133.1,5.2 136.1,2.2 139.9,2.2 L276.2,2.2 C279.9,2.2 283,5.2 283,9 L283,157.7 C283,161.5 279.9,164.5 276.2,164.5 z M88.1,15.8 C107.6,15.8 123.5,31.6 123.5,51.2 C123.5,70.7 107.6,86.6 88.1,86.6 C68.6,86.6 52.7,70.7 52.7,51.2 C52.7,31.7 68.6,15.8 88.1,15.8 z M88.1,100.1 C115.1,100.1 137,78.1 137,51.2 C137,24.3 115.1,2.3 88.1,2.3 C61.2,2.3 39.2,24.2 39.2,51.2 C39.2,78.1 61.1,100.1 88.1,100.1 z M47.9,281.2 C51.7,281.2 54.7,278.2 54.7,274.4 L54.7,220.2 C54.7,216.4 51.7,213.4 47.9,213.4 C44.1,213.4 41.1,216.5 41.1,220.2 L41.1,274.4 C41.1,278.2 44.2,281.2 47.9,281.2 z M165.7,227 C168.8,227 171.4,225 172.3,222.1 C174.6,214.2 175.7,206 175.7,197.9 C175.7,149.6 136.4,110.3 88.1,110.3 C39.8,110.3 0.5,149.6 0.5,197.9 C0.5,206.1 1.6,214.2 3.9,222.1 C4.7,225 7.4,227 10.4,227 L48,227 C51.8,227 54.8,223.9 54.8,220.2 C54.8,216.4 51.7,213.4 48,213.4 L15.8,213.4 C14.7,208.3 14.1,203.1 14.1,197.9 C14.1,157.1 47.3,123.9 88.1,123.9 C128.9,123.9 162.1,157.1 162.1,197.9 C162.1,203.1 161.5,208.3 160.4,213.4 L128.2,213.4 C124.4,213.4 121.4,216.5 121.4,220.2 C121.4,224 124.5,227 128.2,227 L165.7,227 z M128.2,281.2 C132,281.2 135,278.2 135,274.4 L135,220.2 C135,216.4 132,213.4 128.2,213.4 C124.4,213.4 121.4,216.5 121.4,220.2 L121.4,274.4 C121.4,278.2 124.5,281.2 128.2,281.2 z M155.2,159.9 C156.9,159.9 158.6,159.3 160,157.9 L219.8,98.1 C222.4,95.4 222.4,91.1 219.8,88.5 C217.1,85.9 212.8,85.9 210.2,88.5 L150.4,148.3 C147.8,151 147.8,155.3 150.4,157.9 C151.7,159.2 153.5,159.9 155.2,159.9 z" fill="#000000"/>
  </g>
</svg>
