<?xml version="1.0" encoding="UTF-8"?>
<!DOCTYPE svg PUBLIC "-//W3C//DTD SVG 1.1//EN" "http://www.w3.org/Graphics/SVG/1.1/DTD/svg11.dtd">
<svg version="1.1" xmlns="http://www.w3.org/2000/svg" xmlns:xlink="http://www.w3.org/1999/xlink" x="0" y="0" width="283.5" height="283.5" viewBox="0, 0, 283.5, 283.5">
  <g id="Background">
    <rect x="0" y="0" width="283.5" height="283.5" fill="#FFFFFF"/>
  </g>
  <g id="Layer_1">
    <path d="M275.7,164.5 L185.8,164.5 C182.1,164.5 179,161.5 179,157.7 C179,154 182,150.9 185.8,150.9 L269,150.9 L269,15.8 L139.4,15.8 C135.7,15.8 132.6,12.8 132.6,9 C132.6,5.2 135.6,2.2 139.4,2.2 L275.7,2.2 C279.4,2.2 282.5,5.2 282.5,9 L282.5,157.7 C282.5,161.5 279.4,164.5 275.7,164.5 z M87.6,15.8 C107.1,15.8 123,31.6 123,51.2 C123,70.7 107.1,86.6 87.6,86.6 C68.1,86.6 52.2,70.7 52.2,51.2 C52.2,31.7 68.1,15.8 87.6,15.8 z M87.6,100.1 C114.6,100.1 136.5,78.1 136.5,51.2 C136.5,24.3 114.6,2.3 87.6,2.3 C60.7,2.3 38.7,24.2 38.7,51.2 C38.7,78.1 60.6,100.1 87.6,100.1 z M165.3,227 C168.3,227 170.9,225 171.8,222.1 C174.1,214.2 175.2,206 175.2,197.9 C175.2,149.6 135.9,110.3 87.6,110.3 C39.3,110.3 0,149.6 0,197.9 C0,206.1 1.1,214.2 3.4,222.1 C4.2,225 6.9,227 9.9,227 L47.6,227 C51.4,227 54.4,223.9 54.4,220.2 C54.4,216.4 51.3,213.4 47.6,213.4 L15.4,213.4 C14.3,208.3 13.7,203.1 13.7,197.9 C13.7,157.1 46.9,123.9 87.7,123.9 C128.5,123.9 161.7,157.1 161.7,197.9 C161.7,203.1 161.1,208.3 160,213.4 L127.8,213.4 C124,213.4 121,216.5 121,220.2 C121,224 124.1,227 127.8,227 L165.3,227 z M154.7,159.9 C156.4,159.9 158.1,159.3 159.5,157.9 L219.3,98.1 C221.9,95.4 221.9,91.1 219.3,88.5 C216.6,85.9 212.3,85.9 209.7,88.5 L149.9,148.3 C147.3,151 147.3,155.3 149.9,157.9 C151.2,159.2 153,159.9 154.7,159.9 z M47.4,281.2 C51.2,281.2 54.2,278.2 54.2,274.4 L54.2,220.2 C54.2,216.4 51.2,213.4 47.4,213.4 C43.6,213.4 40.6,216.5 40.6,220.2 L40.6,274.4 C40.6,278.2 43.7,281.2 47.4,281.2 z M127.7,281.2 C131.5,281.2 134.5,278.2 134.5,274.4 L134.5,220.2 C134.5,216.4 131.5,213.4 127.7,213.4 C123.9,213.4 120.9,216.5 120.9,220.2 L120.9,274.4 C120.9,278.2 124,281.2 127.7,281.2 z" fill="#000000"/>
  </g>
</svg>
