<?xml version="1.0" encoding="UTF-8"?>
<!DOCTYPE svg PUBLIC "-//W3C//DTD SVG 1.1//EN" "http://www.w3.org/Graphics/SVG/1.1/DTD/svg11.dtd">
<svg version="1.1" xmlns="http://www.w3.org/2000/svg" xmlns:xlink="http://www.w3.org/1999/xlink" x="0" y="0" width="283.5" height="283.5" viewBox="0, 0, 283.5, 283.5">
  <g id="Background">
    <rect x="0" y="0" width="283.5" height="283.5" fill="#FFFFFF"/>
  </g>
  <g id="Layer_1">
    <path d="M276.5,259.8 L6.9,259.8 C3.2,259.8 0.2,256.8 0.2,253.1 L0.2,32 C0.2,28.3 3.2,25.3 6.9,25.3 L87.8,25.3 C89.6,25.3 91.3,26 92.6,27.3 L109.5,44.2 L276.5,44.2 C280.2,44.2 283.2,47.2 283.2,50.9 L283.2,253 C283.3,256.7 280.2,259.8 276.5,259.8 z M13.7,246.3 L269.8,246.3 L269.8,57.6 L106.7,57.6 C104.9,57.6 103.2,56.9 101.9,55.6 L85,38.7 L13.7,38.7 L13.7,246.3 z M195.3,199.2 C208.2,199.2 218.8,188.7 218.8,175.9 L218.8,150.8 C218.8,137.8 208.3,127.3 195.3,127.3 C191.6,127.3 188.6,130.3 188.6,134 C188.6,137.7 191.6,140.7 195.3,140.7 C200.8,140.7 205.3,145.2 205.3,150.7 L205.3,175.8 C205.3,181.3 200.8,185.8 195.3,185.8 L186.9,185.8 C183.2,185.8 180.2,188.8 180.2,192.5 C180.2,196.2 183.2,199.2 186.9,199.2 L195.3,199.2 z M195.3,140.6 C196.1,140.6 197,140.4 198,140.2 C201.5,138.8 203.1,134.8 201.7,131.4 L187.8,97.5 C185.2,90.5 177.7,85.3 170.3,85.3 L164.9,85.3 C161.2,85.3 158.2,88.3 158.2,92 C158.2,95.7 161.2,98.7 164.9,98.7 L170.3,98.7 C172,98.7 174.5,100.4 175.1,102.1 C175.1,102.2 175.2,102.3 175.2,102.4 L189.1,136.4 C190.1,139 192.6,140.6 195.3,140.6 z M227.4,222.7 C231.1,222.7 234.1,219.7 234.1,216 L234.1,192.5 C234.1,188.8 231.1,185.8 227.4,185.8 C223.7,185.8 220.7,188.8 220.7,192.5 L220.7,216 C220.7,219.7 223.7,222.7 227.4,222.7 z M154.8,140.6 C155.7,140.6 156.5,140.4 157.4,140.1 C160.9,138.7 162.5,134.7 161.1,131.3 L147.2,97.4 C144.6,90.4 137.1,85.2 129.7,85.2 L72.9,85.2 C65.5,85.2 58,90.4 55.4,97.4 L41.5,131.3 C40.1,134.8 41.8,138.7 45.2,140.1 C48.7,141.5 52.6,139.8 54,136.4 L67.9,102.4 C67.9,102.3 68,102.2 68,102.1 C68.5,100.5 71,98.7 72.8,98.7 L129.8,98.7 C131.5,98.7 134,100.4 134.6,102.1 C134.6,102.2 134.7,102.3 134.7,102.4 L148.6,136.4 C149.6,139 152.1,140.6 154.8,140.6 z M186.9,222.7 C190.6,222.7 193.6,219.7 193.6,216 L193.6,192.5 C193.6,188.8 190.6,185.8 186.9,185.8 C183.2,185.8 180.2,188.8 180.2,192.5 L180.2,216 C180.2,219.7 183.2,222.7 186.9,222.7 z M47.7,140.6 L154.8,140.6 C160.3,140.6 164.8,145.1 164.8,150.6 L164.8,175.7 C164.8,181.2 160.3,185.7 154.8,185.7 L47.7,185.7 C42.2,185.7 37.7,181.2 37.7,175.7 L37.7,150.6 C37.7,145.1 42.2,140.6 47.7,140.6 z M154.8,199.2 C167.8,199.2 178.3,188.7 178.3,175.7 L178.3,150.6 C178.3,137.6 167.8,127.1 154.8,127.1 L47.7,127.1 C34.7,127.1 24.2,137.6 24.2,150.6 L24.2,175.7 C24.2,188.7 34.7,199.2 47.7,199.2 L154.8,199.2 z M64.5,163.9 C64.5,159.261 60.739,155.5 56.1,155.5 C51.461,155.5 47.7,159.261 47.7,163.9 C47.7,168.539 51.461,172.3 56.1,172.3 C60.739,172.3 64.5,168.539 64.5,163.9 z M154.8,163.9 C154.8,159.3 151.1,155.5 146.4,155.5 C141.7,155.5 138,159.3 138,163.9 C138,168.5 141.8,172.3 146.4,172.3 C151,172.3 154.8,168.5 154.8,163.9 z M235.8,140.6 C236.6,140.6 237.5,140.4 238.4,140.2 C241.9,138.8 243.5,134.8 242.1,131.4 L228.2,97.5 C225.6,90.5 218.1,85.3 210.7,85.3 L205.3,85.3 C201.6,85.3 198.6,88.3 198.6,92 C198.6,95.7 201.6,98.7 205.3,98.7 L210.7,98.7 C212.5,98.7 215,100.4 215.6,102.1 C215.6,102.2 215.7,102.3 215.7,102.4 L229.6,136.4 C230.6,139 233.1,140.6 235.8,140.6 z M56.1,222.7 C59.8,222.7 62.8,219.7 62.8,216 L62.8,192.5 C62.8,188.8 59.8,185.8 56.1,185.8 C52.4,185.8 49.4,188.8 49.4,192.5 L49.4,216 C49.4,219.7 52.4,222.7 56.1,222.7 z M146.4,222.7 C150.2,222.7 153.2,219.7 153.1,216 L153.1,192.5 C153.1,188.8 150.1,185.8 146.4,185.8 C142.7,185.8 139.7,188.8 139.7,192.5 L139.7,216 C139.7,219.7 142.7,222.7 146.4,222.7 z M235.8,199.2 C248.7,199.2 259.2,188.7 259.3,175.9 L259.3,150.8 C259.3,137.8 248.8,127.3 235.8,127.3 C232.1,127.3 229.1,130.3 229.1,134 C229.1,137.7 232.1,140.7 235.8,140.7 C241.3,140.7 245.8,145.2 245.8,150.7 L245.8,175.8 C245.8,181.3 241.3,185.8 235.8,185.8 L227.4,185.8 C223.7,185.8 220.7,188.8 220.7,192.5 C220.7,196.2 223.7,199.2 227.4,199.2 L235.8,199.2 z" fill="#000000"/>
  </g>
</svg>
