<?xml version="1.0" encoding="UTF-8"?>
<!DOCTYPE svg PUBLIC "-//W3C//DTD SVG 1.1//EN" "http://www.w3.org/Graphics/SVG/1.1/DTD/svg11.dtd">
<svg version="1.1" xmlns="http://www.w3.org/2000/svg" xmlns:xlink="http://www.w3.org/1999/xlink" x="0" y="0" width="283.5" height="283.5" viewBox="0, 0, 283.5, 283.5">
  <g id="Background">
    <rect x="0" y="0" width="283.5" height="283.5" fill="#FFFFFF"/>
  </g>
  <g id="Layer_1">
    <path d="M244.6,176.4 C251,176.4 257.5,181 259.6,187 L267.2,208.2 C276.2,210 283,217.9 283,227.4 L283,246.2 C283,256.3 275.3,264.7 265.4,265.7 L265.4,276.4 C265.4,280.3 262.3,283.4 258.4,283.4 C254.5,283.4 251.4,280.3 251.4,276.4 L251.4,265.8 L197.7,265.8 L197.7,276.4 C197.7,280.3 194.6,283.4 190.7,283.4 C186.8,283.4 183.7,280.3 183.7,276.4 L183.7,265.8 L183.2,265.8 C172.4,265.8 163.6,257 163.6,246.2 L163.6,227.4 C163.6,217.9 170.4,210 179.4,208.2 L187,187 C189.2,180.9 195.6,176.4 202,176.4 L244.6,176.4 z M263.5,222 L183.2,222 C180.2,222 177.7,224.5 177.7,227.5 L177.7,246.3 C177.7,249.4 180.1,251.9 183.2,251.9 L263.5,251.9 C266.5,251.9 269,249.4 269,246.3 L269,227.5 C269,224.5 266.5,222 263.5,222 z M190.7,231.1 C194.2,231.1 197,233.9 197,237.4 C197,240.9 194.2,243.7 190.7,243.7 C187.2,243.7 184.4,240.9 184.4,237.4 C184.4,233.9 187.2,231.1 190.7,231.1 z M258.4,231.1 C261.9,231.1 264.7,233.9 264.7,237.4 C264.7,240.9 261.9,243.7 258.4,243.7 C254.9,243.7 252.1,240.9 252.1,237.4 C252.1,233.9 254.9,231.1 258.4,231.1 z M244.6,190.5 L202,190.5 L200.2,191.8 L194.4,207.9 L252.1,207.9 L246.4,191.8 L244.6,190.5 z M27.662,180.531 L26.3,180.7 C24.5,181.1 22.9,182.2 21.9,183.8 L7.5,206.7 C5.4,210 6.4,214.3 9.6,216.4 C10.8,217.2 12.1,217.5 13.4,217.5 C15.7,217.5 18,216.4 19.3,214.2 L24.5,206.1 C33.6,243.3 67,268.6 104,268.6 C109.9,268.6 115.8,268 121.7,266.7 C125.5,265.9 127.9,262.1 127,258.3 C126.3,254.5 122.5,252.1 118.7,252.9 C82.5,260.9 46.6,238.3 38,202.4 L46.8,208 C50.1,210.1 54.4,209.1 56.5,205.8 C58.6,202.5 57.6,198.2 54.3,196.1 L31.6,181.6 C29.536,180.578 30.808,181.058 27.662,180.531 z M139.2,152.6 C150.6,152.6 160,161.9 160,173.4 L159.9,174.1 L118.4,174.1 L118.4,173.4 C118.4,161.9 127.7,152.6 139.2,152.6 z M139.2,138.6 C120,138.6 104.4,154.2 104.4,173.4 C104.4,176.6 104.8,179.9 105.7,183 C106.6,186 109.3,188.1 112.5,188.1 L165.9,188.1 C169,188.1 171.8,186 172.7,183 C173.6,179.9 174,176.6 174,173.4 C173.9,154.2 158.3,138.6 139.2,138.6 z M139.2,106.8 C143.3,106.8 146.7,110.2 146.7,114.3 C146.7,118.4 143.3,121.8 139.2,121.8 C135.1,121.8 131.7,118.4 131.7,114.3 C131.7,110.2 135,106.8 139.2,106.8 z M139.2,92.8 C127.3,92.8 117.7,102.4 117.7,114.3 C117.6,126.2 127.3,135.8 139.2,135.8 C151.1,135.8 160.7,126.2 160.7,114.3 C160.7,102.4 151,92.8 139.2,92.8 z M81.5,14 L83.3,15.3 L89,31.4 L31.3,31.4 L37.1,15.3 L38.9,14 L81.5,14 z M27.6,54.6 C24.1,54.6 21.3,57.4 21.3,60.9 C21.3,64.4 24.1,67.2 27.6,67.2 C31.1,67.2 33.9,64.4 33.9,60.9 C33.9,57.4 31.1,54.6 27.6,54.6 z M95.3,54.6 C91.8,54.6 89,57.4 89,60.9 C89,64.4 91.8,67.2 95.3,67.2 C98.7,67.2 101.6,64.4 101.6,60.9 C101.6,57.4 98.8,54.6 95.3,54.6 z M100.4,45.5 C103.4,45.5 105.9,48 105.9,51 L105.9,69.9 C105.9,73 103.4,75.5 100.4,75.5 L20,75.5 C16.9,75.4 14.5,72.9 14.5,69.8 L14.5,51 C14.5,47.9 17,45.5 20.1,45.5 L100.4,45.5 z M81.5,0 L38.9,0 C32.5,0 26.1,4.6 23.9,10.6 L16.3,31.8 C7.3,33.5 0.4,41.5 0.4,51 L0.4,69.9 C0.4,80.7 9.2,89.5 20,89.5 L20.5,89.5 L20.5,100 C20.5,103.9 23.6,107 27.5,107 C31.4,107 34.5,103.8 34.5,100 L34.5,89.4 L88.2,89.4 L88.2,100 C88.2,103.9 91.3,107 95.2,107 C99.1,107 102.2,103.8 102.2,100 L102.2,89.3 C112.1,88.3 119.8,79.9 119.8,69.8 L119.8,51 C119.8,41.5 113,33.5 104,31.8 L96.4,10.6 C94.3,4.6 87.9,0 81.5,0 z M182.722,15.269 C180.054,15.329 177.38,15.258 174.718,15.449 C169.067,15.855 167.467,16.268 162.7,17.2 C158.9,18 156.5,21.8 157.4,25.6 C158.4,29.4 162.1,31.8 165.9,30.9 C183.6,27 201.7,30.2 217,39.9 C231.1,48.9 241.2,62.5 245.7,78.5 L236.6,72.7 C233.4,70.6 229,71.6 226.9,74.9 C224.8,78.2 225.8,82.5 229,84.6 L251.7,99.1 C252.8,99.8 254.1,100.2 255.5,100.2 L257,100.1 C258.8,99.7 260.4,98.6 261.4,97 L275.9,74.3 C278,71 277,66.7 273.8,64.6 C270.5,62.5 266.2,63.5 264.1,66.7 L259.1,74.5 C253.6,55.3 241.4,39 224.4,28.1 C211.679,20.416 197.689,15.609 182.722,15.269 z" fill="#000000"/>
  </g>
</svg>
