<?xml version="1.0" encoding="UTF-8"?>
<!DOCTYPE svg PUBLIC "-//W3C//DTD SVG 1.1//EN" "http://www.w3.org/Graphics/SVG/1.1/DTD/svg11.dtd">
<svg version="1.1" xmlns="http://www.w3.org/2000/svg" xmlns:xlink="http://www.w3.org/1999/xlink" x="0" y="0" width="283.5" height="283.5" viewBox="0, 0, 283.5, 283.5">
  <g id="Background">
    <rect x="0" y="0" width="283.5" height="283.5" fill="#FFFFFF"/>
  </g>
  <g id="Layer_1">
    <path d="M146.779,160.856 C149.154,161.134 150.68,162.319 152,164.2 L168.499,193.298 C176.651,206.133 184.565,208.977 199.3,209.2 L224.8,209.2 L224.8,174.1 C224.8,170.9 226.7,168 229.7,166.8 C232.7,165.6 236.1,166.3 238.3,168.5 L279.9,210.1 C281.4,211.6 282.2,213.6 282.2,215.7 C282.2,217.8 281.4,219.8 279.9,221.3 L238.3,262.9 C236.7,264.4 234.7,265.2 232.7,265.2 C231.7,265.2 230.7,265 229.7,264.6 C226.7,263.4 224.8,260.5 224.8,257.3 L224.8,222.3 L199.3,222.3 C179.64,222.321 168.505,216.833 157.511,200.561 C157.506,200.555 157.501,200.55 157.495,200.545 C157.33,200.296 157.165,200.048 157,199.8 L140.5,170.7 C138.7,167.5 139.8,163.5 143,161.7 C145.015,160.816 143.786,161.212 146.779,160.856 z M240.6,193.2 L240.6,238.2 L263.1,215.7 L240.6,193.2 z M240.6,46.9 L263.1,69.4 L240.6,91.9 L240.6,46.9 z M233.159,19.93 C230.443,20.174 231.58,19.904 229.7,20.5 C226.7,21.7 224.8,24.6 224.8,27.8 L224.8,62.8 L199.2,62.8 C178.7,62.8 167.7,68.6 157.1,85 L156.564,86.07 L95.9,193.1 C87.8,205.5 80.9,209.1 65,209.1 L7.9,209.1 C4.3,209.1 1.3,212.1 1.3,215.7 C1.3,219.3 4.3,222.3 7.9,222.3 L65,222.3 C85.5,222.3 96.5,216.5 107.1,200 C107.2,199.9 107.2,199.8 107.3,199.7 L168.5,91.8 L168.563,91.657 C176.814,79.302 184.384,75.925 199.2,76 L224.8,76 L224.8,111 C224.8,114.2 226.7,117.1 229.7,118.3 C230.7,118.7 231.7,118.9 232.7,118.9 C234.7,118.9 236.7,118.1 238.3,116.6 L279.9,75 C283,71.9 283,66.9 279.9,63.8 L238.3,22.2 C236.795,20.907 235.196,20.053 233.159,19.93 z M65,62.8 L7.9,62.8 C4.3,62.8 1.3,65.8 1.3,69.4 C1.3,73 4.3,76 7.9,76 L65,76 C80.9,76 87.8,79.6 95.9,92 L112.4,121 C113.6,123.1 115.8,124.3 118.1,124.3 C119.2,124.3 120.3,124 121.3,123.4 C124.5,121.6 125.6,117.6 123.8,114.4 L107.3,85.3 C107.2,85.2 107.2,85.1 107.1,85 C96.5,68.6 85.5,62.8 65,62.8 z" fill="#000000"/>
  </g>
</svg>
