<?xml version="1.0" encoding="UTF-8"?>
<!DOCTYPE svg PUBLIC "-//W3C//DTD SVG 1.1//EN" "http://www.w3.org/Graphics/SVG/1.1/DTD/svg11.dtd">
<svg version="1.1" xmlns="http://www.w3.org/2000/svg" xmlns:xlink="http://www.w3.org/1999/xlink" x="0" y="0" width="283.5" height="283.5" viewBox="0, 0, 283.5, 283.5">
  <g id="Background">
    <rect x="0" y="0" width="283.5" height="283.5" fill="#FFFFFF"/>
  </g>
  <g id="Layer_1">
    <path d="M244.9,176.9 C251.1,176.9 257.5,181.4 259.6,187.3 L267.3,208.7 C276.3,210.3 283.1,218.2 283,227.7 L283,246.6 C283,256.7 275.3,265 265.4,265.8 L265.4,276.8 C265.4,280.5 262.4,283.5 258.7,283.5 C255,283.5 252,280.5 252,276.8 L252,265.9 L197.5,265.9 L197.5,276.8 C197.5,280.5 194.5,283.5 190.8,283.5 C187.1,283.5 184.1,280.5 184.1,276.8 L184.1,265.9 L183.3,265.9 C172.7,265.9 164,257.3 164,246.6 L164,227.7 C164,218.2 170.8,210.4 179.8,208.7 L187.5,187.3 C189.6,181.4 195.9,176.9 202.2,176.9 L244.9,176.9 z M263.8,221.7 L183.3,221.7 C180,221.7 177.4,224.4 177.4,227.6 L177.4,246.5 C177.4,249.8 180.1,252.4 183.3,252.4 L263.8,252.4 C267,252.4 269.7,249.7 269.7,246.5 L269.7,227.6 C269.7,224.3 267,221.7 263.8,221.7 z M258.8,231.3 C262.3,231.3 265.1,234.2 265.1,237.6 C265.1,241.1 262.3,243.9 258.8,243.9 C255.3,243.9 252.5,241.1 252.5,237.6 C252.5,234.1 255.3,231.3 258.8,231.3 z M190.9,231.3 C194.4,231.3 197.2,234.2 197.2,237.6 C197.2,241.1 194.4,243.9 190.9,243.9 C187.4,243.9 184.6,241.1 184.6,237.6 C184.6,234.1 187.4,231.3 190.9,231.3 z M244.9,190.3 L202.2,190.3 C201.6,190.3 200.3,191.2 200.1,191.8 L194.1,208.4 L252.9,208.4 L247,191.8 C246.8,191.2 245.5,190.3 244.9,190.3 z M27.545,181.031 L26.2,181.2 C24.5,181.6 22.9,182.6 22,184.1 L7.5,207 C5.5,210.1 6.4,214.3 9.6,216.3 C12.8,218.3 16.9,217.4 18.9,214.2 L24.4,205.5 C33.2,243.1 66.8,268.6 104,268.6 C109.8,268.6 115.8,268 121.7,266.6 C125.3,265.8 127.6,262.2 126.8,258.6 C126,255 122.4,252.7 118.8,253.5 C82.1,261.6 45.7,238.5 37.4,201.9 L46.9,208 C50,210 54.2,209.1 56.2,205.9 C58.2,202.8 57.3,198.6 54.1,196.6 L31.3,182.1 C29.351,181.075 30.56,181.557 27.545,181.031 z M141.6,109 C132.2,109 123.3,112.7 116.7,119.3 C111.5,124.5 108.3,130.8 107,137.5 L103.5,137.5 C99.8,137.5 96.8,140.5 96.8,144.2 C96.8,147.9 99.8,150.9 103.5,150.9 L107,150.9 C108.3,157.6 111.5,164 116.7,169.1 C123.4,175.8 132.2,179.4 141.6,179.4 C151,179.4 159.9,175.7 166.5,169.1 C169.1,166.5 169.1,162.2 166.5,159.6 C163.9,157 159.6,157 157,159.6 C152.9,163.7 147.4,166 141.6,166 C135.8,166 130.3,163.7 126.1,159.6 C123.6,157.1 121.8,154.1 120.8,150.9 L142.7,150.9 C146.4,150.9 149.4,147.9 149.4,144.2 C149.4,140.5 146.4,137.5 142.7,137.5 L120.8,137.5 C121.8,134.3 123.6,131.3 126.1,128.8 C130.2,124.7 135.7,122.4 141.6,122.4 C147.5,122.4 152.9,124.7 157,128.8 C159.6,131.4 163.9,131.4 166.5,128.8 C169.1,126.2 169.1,121.9 166.5,119.3 C159.8,112.6 151,109 141.6,109 z M81.4,13.4 C82,13.4 83.3,14.3 83.5,14.9 L89.4,31.5 L30.7,31.5 L36.6,14.9 C36.8,14.3 38.1,13.4 38.7,13.4 L81.4,13.4 z M95.3,54.5 C91.8,54.5 89,57.3 89,60.8 C89,64.2 91.8,67.1 95.3,67.1 C98.8,67.1 101.6,64.3 101.6,60.8 C101.6,57.3 98.8,54.5 95.3,54.5 z M27.4,54.5 C23.9,54.5 21.1,57.3 21.1,60.8 C21.1,64.2 23.9,67.1 27.4,67.1 C30.9,67.1 33.7,64.3 33.7,60.8 C33.7,57.3 30.9,54.5 27.4,54.5 z M100.3,44.9 C103.5,44.9 106.2,47.6 106.2,50.8 L106.2,69.7 C106.2,72.9 103.5,75.6 100.3,75.6 L19.8,75.6 C16.6,75.6 13.9,72.9 13.9,69.7 L13.9,50.8 C13.9,47.6 16.6,44.9 19.8,44.9 L100.3,44.9 z M81.4,0 L38.7,0 C32.4,0 26.1,4.5 24,10.4 L16.4,31.8 C7.4,33.4 0.6,41.3 0.6,50.8 L0.6,69.7 C0.5,80.3 9.2,89 19.8,89 L20.7,89 L20.7,99.9 C20.7,103.6 23.7,106.6 27.4,106.6 C31.1,106.6 34.1,103.6 34.1,99.9 L34.1,89 L88.6,89 L88.6,99.9 C88.6,103.6 91.6,106.6 95.3,106.6 C99,106.6 102,103.6 102,99.9 L102,88.9 C111.9,88 119.6,79.8 119.6,69.7 L119.6,50.8 C119.6,41.4 112.8,33.5 103.8,31.8 L96.2,10.4 C94,4.5 87.7,0 81.4,0 z M183.019,15.289 C180.352,15.345 177.679,15.27 175.018,15.458 C169.359,15.857 167.77,16.269 163,17.2 C159.4,18 157.1,21.6 157.9,25.2 C158.8,28.9 162.3,31.1 166,30.3 C183.8,26.3 202.1,29.6 217.5,39.4 C232,48.6 242.3,62.7 246.7,79.2 L236.8,72.9 C233.7,70.9 229.5,71.8 227.5,75 C225.5,78.1 226.4,82.3 229.6,84.3 L252.4,98.8 C253.5,99.5 254.7,99.8 256,99.8 C256.5,99.8 257,99.7 257.5,99.6 C259.2,99.2 260.7,98.2 261.7,96.7 L276.2,73.9 C278.2,70.8 277.3,66.6 274.1,64.6 C271,62.6 266.8,63.5 264.8,66.7 L259.4,75.1 C254,55.6 241.7,39.1 224.6,28.1 C211.903,20.452 197.945,15.655 183.019,15.289 z" fill="#000000"/>
  </g>
</svg>
