<?xml version="1.0" encoding="UTF-8"?>
<!DOCTYPE svg PUBLIC "-//W3C//DTD SVG 1.1//EN" "http://www.w3.org/Graphics/SVG/1.1/DTD/svg11.dtd">
<svg version="1.1" xmlns="http://www.w3.org/2000/svg" xmlns:xlink="http://www.w3.org/1999/xlink" x="0" y="0" width="283.5" height="283.5" viewBox="0, 0, 283.5, 283.5">
  <g id="Background">
    <rect x="0" y="0" width="283.5" height="283.5" fill="#FFFFFF"/>
  </g>
  <g id="Layer_1">
    <path d="M161.778,0.61 C175.292,0.252 188.116,3.974 199.9,10.4 C234.9,30.5 246.9,75.4 226.7,110.3 L219.9,122.1 L234.8,122.1 C245.8,122.1 254.7,131 254.7,142 L254.7,261.8 C254.7,272.8 245.8,281.7 234.8,281.7 L48.6,281.7 C37.6,281.7 28.7,272.8 28.7,261.8 L28.7,142.1 C28.7,131.1 37.6,122.2 48.6,122.2 L204.6,122.2 L215.2,103.8 C231.7,75.2 221.9,38.5 193.3,22 C164.7,5.5 128,15.3 111.5,43.9 L98.9,65.6 C97.6,67.7 95.4,68.9 93.1,68.9 C92,68.9 90.8,68.6 89.8,68 C86.7,66.1 85.6,62.1 87.4,58.9 L100,37.2 C114.273,13.53 134.623,2.531 161.778,0.61 z M234.8,135.4 L48.6,135.4 C45,135.4 42,138.3 42,142 L42,261.7 C42,265.3 44.9,268.3 48.6,268.3 L234.8,268.3 C238.4,268.3 241.4,265.4 241.4,261.7 L241.4,142 C241.4,138.4 238.5,135.4 234.8,135.4 z M142.775,172.63 C145.607,172.914 147.942,174.201 150,176.1 C154.7,180.7 154.7,188.3 150,193 C149.4,193.5 148.8,194.1 148.1,194.5 L148.1,232.4 C148.1,236 145.1,239 141.5,239 C137.9,239 134.9,236.1 134.9,232.4 L134.9,194.4 C134.3,194 133.7,193.5 133.2,193 C128.5,188.3 128.5,180.8 133.2,176.1 C136.299,173.202 138.667,172.63 142.775,172.63 z" fill="#000000"/>
  </g>
</svg>
