<?xml version="1.0" encoding="UTF-8"?>
<!DOCTYPE svg PUBLIC "-//W3C//DTD SVG 1.1//EN" "http://www.w3.org/Graphics/SVG/1.1/DTD/svg11.dtd">
<svg version="1.1" xmlns="http://www.w3.org/2000/svg" xmlns:xlink="http://www.w3.org/1999/xlink" x="0" y="0" width="283.5" height="283.5" viewBox="0, 0, 283.5, 283.5">
  <g id="Background">
    <rect x="0" y="0" width="283.5" height="283.5" fill="#FFFFFF"/>
  </g>
  <g id="Layer_1">
    <path d="M262.5,97.7 C266.2,97.7 269.3,100.8 269.2,104.5 L269.2,276.7 C269.2,280.4 266.2,283.4 262.5,283.4 L49.4,283.4 C45.7,283.4 42.7,280.4 42.7,276.7 C42.7,273 45.7,270 49.4,270 L255.8,270 L255.8,104.4 C255.8,100.7 258.8,97.7 262.5,97.7 z M169.8,23 L217.8,71 L169.8,71 L169.8,23 z M75.9,58 C72.6,57.9 69.7,60.2 69.1,63.4 L51.1,154 L41,154 C37.3,154 34.3,157 34.3,160.7 C34.3,164.4 37.3,167.4 41,167.4 L56.7,167.4 C59.9,167.4 62.7,165.1 63.3,162 L74.7,104.5 L91.2,218.2 C91.7,221.3 94.2,223.7 97.4,224 L97.9,224 C100.9,224 103.5,222.1 104.4,219.2 L124.5,152.1 L135.3,183.3 C136.2,186 138.7,187.8 141.6,187.8 C144.4,187.8 147,186.1 148,183.5 L171.2,122.8 L187.4,163.1 C188.4,165.7 190.9,167.3 193.7,167.3 L210.7,167.3 C214.4,167.3 217.4,164.3 217.4,160.6 C217.4,156.9 214.4,153.9 210.7,153.9 L198.3,153.9 L177.3,101.8 C176.3,99.2 173.7,97.5 171,97.6 C168.2,97.6 165.7,99.3 164.8,101.9 L142,161.5 L130.4,128.1 C129.4,125.3 126.8,123.5 123.9,123.6 C121,123.7 118.4,125.6 117.6,128.4 L100.3,186.2 L82.4,63.7 C82,60.5 79.2,58 75.9,58 z M156.3,13.5 L156.3,77.8 C156.3,81.5 159.3,84.5 163,84.5 L227.3,84.5 L227.3,241.5 L27.7,241.5 L27.7,13.5 L156.3,13.5 z M163,0 L21,0 C17.3,0 14.3,3 14.3,6.7 L14.3,248.3 C14.3,252 17.3,255 21,255 L234.1,255 C237.8,255 240.8,252 240.8,248.3 L240.8,77.8 C240.8,77.4 240.8,76.9 240.7,76.5 C240.7,76.3 240.6,76.1 240.5,75.9 C240.4,75.7 240.4,75.4 240.3,75.2 L240,74.6 C239.9,74.4 239.8,74.2 239.7,74.1 C239.5,73.7 239.2,73.4 238.9,73.1 L167.8,2 C167.5,1.7 167.1,1.4 166.8,1.2 C166.6,1.1 166.5,1 166.3,0.9 C166.1,0.8 165.9,0.6 165.6,0.6 C165.4,0.5 165.1,0.5 164.9,0.4 C164.7,0.3 164.5,0.3 164.3,0.2 C163.9,0 163.5,0 163,0 z" fill="#000000"/>
  </g>
</svg>
