<?xml version="1.0" encoding="UTF-8"?>
<!DOCTYPE svg PUBLIC "-//W3C//DTD SVG 1.1//EN" "http://www.w3.org/Graphics/SVG/1.1/DTD/svg11.dtd">
<svg version="1.1" xmlns="http://www.w3.org/2000/svg" xmlns:xlink="http://www.w3.org/1999/xlink" x="0" y="0" width="283.5" height="283.5" viewBox="0, 0, 283.5, 283.5">
  <g id="Background">
    <rect x="0" y="0" width="283.5" height="283.5" fill="#FFFFFF"/>
  </g>
  <g id="Layer_1">
    <path d="M141.9,113.6 C151.436,113.764 158.327,121.208 158.8,130.5 L158.8,152.411 C160.941,151.972 159.841,152.115 162.1,152 C167.659,152.084 172.802,154.723 175.926,159.34 C177.887,158.298 180.125,158.111 182.3,158 C189.4,158.089 195.233,162.331 197.962,168.765 C201.341,168.072 199.821,168.236 202.5,168.1 C211.8,168.1 219.4,175.7 219.4,185 L219.4,211.9 L219.271,212.955 C218.672,243.23 194.343,265.847 164.6,266.6 C143.5,266.6 124.3,254.7 115.6,236.3 L115.291,235.423 L92.1,185.7 L91.736,184.668 C88.516,175.88 92.902,167.235 101.1,163.4 C104.158,162.124 105.98,162.205 109.18,162.205 C112.963,162.951 111.376,162.478 114,163.4 C117.74,164.989 120.882,167.797 122.629,171.502 L122.9,171.9 L125,175.818 L125,130.5 L125,130.498 C125.164,120.963 132.609,114.073 141.9,113.6 z M141.9,127.2 C140.1,127.2 138.6,128.7 138.6,130.5 L138.6,130.501 L138.6,203 L138.559,203.409 C138.58,203.644 138.593,203.53 138.524,203.753 C138.424,204.738 138.542,204.166 138.008,205.427 C137.787,206.146 137.952,205.894 137.657,206.257 C137.273,207.164 137.576,206.622 136.482,207.704 C136.074,208.207 136.29,208.022 135.875,208.305 C135.546,208.63 135.731,208.51 135.328,208.677 L135,208.9 C133.975,209.405 134.51,209.212 133.393,209.477 C133.1,209.598 133.258,209.556 132.915,209.59 C132.356,209.723 132.723,209.654 131.8,209.7 L131.8,209.7 C130.848,209.636 131.194,209.719 130.737,209.593 C130.318,209.551 130.536,209.601 130.091,209.415 C128.911,209.091 129.458,209.326 128.443,208.726 C127.944,208.517 128.13,208.657 127.84,208.37 C127.185,208.015 126.668,207.428 126.262,206.806 C126.142,206.688 126.192,206.758 126.12,206.589 L125.8,206.1 L110.9,178.3 L110.634,177.665 L110.6,177.6 C110.1,176.5 109.3,176 108.8,175.8 C108.3,175.6 107.4,175.3 106.2,175.8 C104.701,176.507 103.789,178.15 104.281,179.801 L104.4,180 L128,230.6 L128.322,231.514 C135.145,245.329 149.592,252.486 164.5,253 C187.2,253 205.7,234.5 205.7,211.8 L205.8,210.807 L205.8,185 C205.8,183.2 204.3,181.7 202.5,181.7 C200.585,181.78 199.389,183.172 199.2,184.999 L199.2,191.8 C199.1,195.5 196.1,198.5 192.4,198.5 C188.7,198.5 185.6,195.5 185.6,191.7 L185.6,185.001 L185.6,185 L185.6,184.998 L185.6,175 L185.605,174.95 L185.6,174.9 C185.6,173.1 184.1,171.6 182.3,171.6 C180.386,171.68 179.189,173.072 179,174.899 L179,185 C179,188.8 175.9,191.8 172.2,191.8 C168.5,191.8 165.4,188.8 165.4,185 L165.4,174.901 L165.4,174.9 L165.4,174.898 L165.4,168.901 L165.4,168.9 C165.4,167.1 163.9,165.6 162.1,165.6 C160.186,165.68 158.989,167.072 158.8,168.899 L158.8,180.6 C158.8,184.4 155.7,187.4 152,187.4 C148.3,187.4 145.2,184.4 145.2,180.6 L145.2,168.901 L145.2,168.9 L145.2,168.898 L145.2,130.5 C145.119,128.585 143.727,127.388 141.9,127.2 z M241.8,37.9 L41.6,37.9 C37.8,37.9 34.8,41 34.8,44.7 L34.8,213 C34.8,216.8 37.9,219.8 41.6,219.8 L93.8,219.8 C97.6,219.8 100.6,216.7 100.6,213 C100.6,209.2 97.5,206.2 93.8,206.2 L48.3,206.2 L48.3,51.5 L234.9,51.5 L234.9,206.1 L228.4,206.1 C224.6,206.1 221.6,209.2 221.6,212.9 C221.6,216.7 224.7,219.7 228.4,219.7 L241.7,219.7 C245.5,219.7 248.5,216.7 248.6,213 L248.6,44.7 C248.6,40.9 245.5,37.9 241.8,37.9 z M6.69,49.959 C5.327,50.135 4.02,50.312 2.9,51.2 C1.1,52.4 0,54.5 0,56.7 L0,201 C0,203.2 1.1,205.2 2.9,206.6 C4.1,207.4 5.4,207.8 6.8,207.8 C7.5,207.8 8.3,207.6 9,207.4 L29.4,200.1 C32.9,198.9 34.7,195 33.5,191.5 C32.3,188 28.4,186.2 24.9,187.4 L13.6,191.4 L13.6,66.3 L24.9,70.3 C28.4,71.6 32.3,69.7 33.5,66.2 C34.8,62.7 32.9,58.8 29.4,57.6 L9.1,50.4 C7.787,49.99 8.58,50.184 6.69,49.959 z M276.001,50.061 L274.4,50.4 L254.1,57.6 C250.6,58.8 248.8,62.7 250,66.2 C251.2,69.7 255.1,71.5 258.6,70.3 L269.9,66.3 L269.9,191.5 L258.6,187.5 C255.1,186.2 251.2,188.1 250,191.6 C248.7,195.1 250.6,199 254.1,200.2 L274.4,207.4 C275.2,207.7 275.9,207.8 276.7,207.8 C278.1,207.8 279.4,207.3 280.6,206.5 C282.4,205.3 283.5,203.2 283.5,201 L283.5,56.7 C283.5,54.5 282.4,52.5 280.6,51.2 C279.124,50.337 277.774,49.954 276.001,50.061 z" fill="#000000"/>
  </g>
</svg>
