<?xml version="1.0" encoding="UTF-8"?>
<!DOCTYPE svg PUBLIC "-//W3C//DTD SVG 1.1//EN" "http://www.w3.org/Graphics/SVG/1.1/DTD/svg11.dtd">
<svg version="1.1" xmlns="http://www.w3.org/2000/svg" xmlns:xlink="http://www.w3.org/1999/xlink" x="0" y="0" width="283.5" height="283.5" viewBox="0, 0, 283.5, 283.5">
  <g id="Background">
    <rect x="0" y="0" width="283.5" height="283.5" fill="#FFFFFF"/>
  </g>
  <g id="Layer_1">
    <path d="M6.7,283.5 C3,283.5 0,280.5 0,276.8 C0,273.1 3,270.1 6.7,270.1 L54,270.1 L54,6.7 C54,3 57,0 60.7,0 L195.7,0 C199.4,0 202.4,3 202.4,6.7 L202.4,106.319 C218.838,109.431 228.681,122.996 229.5,139.2 C229.353,140.577 229.537,140.113 229.287,140.682 L229.4,141.8 L229.4,222.8 C229.4,226.5 232.4,229.5 236.1,229.5 C239.8,229.5 242.8,226.5 242.8,222.8 C242.942,221.395 242.761,221.867 243,221.298 L243,43.848 L234.9,47.2 C234,47.5 233.2,47.7 232.3,47.7 C229.7,47.7 227.1,46.1 226.1,43.5 C224.7,40.1 226.3,36.1 229.8,34.7 L237.863,31.363 L218,11.5 C215.4,8.9 215.4,4.6 218,2 C219.561,0.444 220.98,0.236 223.073,0.168 L224.037,0.172 C226.87,1.315 225.779,0.599 227.5,2 L254.5,29 L255.062,29.682 C255.685,30.303 255.294,29.855 256,31.2 C256.399,32.539 256.39,32.046 256.385,32.629 L256.5,33.8 L256.5,222.8 C256.341,224.292 256.536,223.715 256.155,224.593 C255.757,235.426 246.361,242.486 236.2,243 C225,243 216,233.9 216,222.8 L216,141.8 L216.136,140.45 L216,139.1 C215.627,129.614 210.965,123.673 202.4,120.063 L202.4,270.1 L276.7,270.1 C280.4,270.1 283.4,273.1 283.4,276.8 C283.5,280.4 280.4,283.5 276.7,283.5 L6.7,283.5 z M189,13.5 L67.5,13.5 L67.5,270 L189,270 L189,13.5 z M168.7,105.4 C172.4,105.4 175.4,108.4 175.4,112.1 C175.4,115.8 172.5,118.8 168.7,118.8 L87.7,118.8 C84,118.8 81,115.8 81,112.1 C81,108.4 84,105.4 87.7,105.4 L168.7,105.4 z" fill="#010202"/>
  </g>
</svg>
