<?xml version="1.0" encoding="UTF-8"?>
<!DOCTYPE svg PUBLIC "-//W3C//DTD SVG 1.1//EN" "http://www.w3.org/Graphics/SVG/1.1/DTD/svg11.dtd">
<svg version="1.1" xmlns="http://www.w3.org/2000/svg" xmlns:xlink="http://www.w3.org/1999/xlink" x="0" y="0" width="283.5" height="283.5" viewBox="0, 0, 283.5, 283.5">
  <g id="Background">
    <rect x="0" y="0" width="283.5" height="283.5" fill="#FFFFFF"/>
  </g>
  <g id="Layer_1">
    <path d="M141.8,0.7 C177.2,0.7 210.7,13.7 236.7,37.4 L256.2,17.9 C258.1,15.9 261,15.4 263.5,16.4 C266,17.4 267.6,19.9 267.6,22.6 L267.6,71 C267.6,74.7 264.6,77.7 260.9,77.7 L212.5,77.7 C209.8,77.7 207.3,76.1 206.3,73.6 C205.3,71.1 205.9,68.2 207.8,66.3 L227.1,47 C203.6,25.8 173.5,14.2 141.7,14.2 C107.7,14.2 75.6,27.5 51.5,51.6 C1.8,101.3 1.8,182.3 51.5,232 C101.3,281.7 182.2,281.7 232,232 C256.1,207.9 269.4,175.9 269.4,141.8 C269.4,138.1 272.4,135.1 276.1,135.1 C279.8,135.1 282.8,138.1 282.8,141.8 C282.8,179.4 268.1,214.8 241.4,241.5 C213.9,269 177.8,282.7 141.7,282.7 C105.6,282.7 69.5,269 42,241.5 C-13,186.5 -13,97 42,42 C42,41.9 42.1,41.9 42.1,41.9 C68.8,15.3 104.2,0.7 141.8,0.7 z M254.2,38.8 L228.8,64.2 L254.2,64.2 L254.2,38.8 z M170,86.7 C171.8,86.7 174.2,88.4 174.8,90.1 L183.7,115 L99.6,115 L108.5,90.1 C109.1,88.4 111.6,86.7 113.3,86.7 L170,86.7 z M186.7,143.2 C182.1,143.2 178.3,146.9 178.3,151.6 C178.4,156.3 182.1,160 186.7,160 C191.3,160 195,156.3 195,151.6 C195,147 191.3,143.2 186.7,143.2 z M96.7,143.3 C92.1,143.3 88.4,147 88.4,151.7 C88.4,156.3 92.1,160.1 96.7,160.1 C101.3,160 105,156.3 105,151.7 C105,147.1 101.3,143.3 96.7,143.3 z M195,128.4 C200.5,128.4 205,132.9 205,138.4 L205,163.5 C205,169 200.5,173.5 195,173.5 L88.3,173.5 C82.8,173.5 78.3,169 78.3,163.5 L78.3,138.4 C78.3,132.9 82.8,128.4 88.3,128.4 L195,128.4 z M169.9,73.3 L113.3,73.3 C105.8,73.3 98.3,78.6 95.8,85.6 L85.2,115.2 C73.7,116.7 64.8,126.5 64.8,138.4 L64.8,163.5 C64.8,176.4 75.3,186.9 88.2,186.9 L90,186.9 L90,203.6 C90,207.3 93,210.3 96.7,210.3 C100.4,210.3 103.4,207.3 103.4,203.6 L103.4,186.9 L180,186.9 L180,203.6 C180,207.3 183,210.3 186.7,210.3 C190.4,210.3 193.4,207.3 193.4,203.6 L193.4,186.9 L195,186.9 C207.9,186.9 218.4,176.4 218.4,163.5 L218.4,138.4 C218.4,126.5 209.5,116.7 198,115.2 L187.4,85.6 C184.9,78.6 177.4,73.3 169.9,73.3 z" fill="#000000"/>
  </g>
</svg>
