<?xml version="1.0" encoding="UTF-8"?>
<!DOCTYPE svg PUBLIC "-//W3C//DTD SVG 1.1//EN" "http://www.w3.org/Graphics/SVG/1.1/DTD/svg11.dtd">
<svg version="1.1" xmlns="http://www.w3.org/2000/svg" xmlns:xlink="http://www.w3.org/1999/xlink" x="0" y="0" width="283.5" height="283.5" viewBox="0, 0, 283.5, 283.5">
  <g id="Background">
    <rect x="0" y="0" width="283.5" height="283.5" fill="#FFFFFF"/>
  </g>
  <g id="Layer_1">
    <path d="M276.7,22 C280.4,22 283.5,25 283.4,28.8 L283.4,254.8 C283.4,258.5 280.4,261.5 276.7,261.5 C273,261.5 270,258.5 270,254.8 L270,35.5 L13.4,35.5 L13.4,254.7 C13.4,258.4 10.4,261.4 6.7,261.4 C3,261.4 0,258.4 0,254.7 L0,28.7 C0,25 3,22 6.7,22 L276.7,22 z M170.2,137.3 C172,137.3 174.5,139.1 175.1,140.7 L184,165.7 L99.5,165.7 L108.4,140.7 C109,139 111.5,137.3 113.3,137.3 L170.2,137.3 z M98.2,194.2 C93.561,194.2 89.8,197.961 89.8,202.6 C89.8,207.239 93.561,211 98.2,211 C102.839,211 106.6,207.239 106.6,202.6 C106.6,197.961 102.839,194.2 98.2,194.2 z M188.6,194.2 C183.961,194.2 180.2,197.961 180.2,202.6 C180.2,207.239 183.961,211 188.6,211 C193.239,211 197,207.239 197,202.6 C197,197.961 193.239,194.2 188.6,194.2 z M195.4,179.3 C200.9,179.3 205.4,183.8 205.4,189.3 L205.4,214.5 L205.4,214.5 C205.4,220 200.9,224.5 195.4,224.5 L88.1,224.5 C82.6,224.5 78.1,220 78.1,214.5 L78.1,189.3 C78.1,183.8 82.6,179.3 88.1,179.3 L195.4,179.3 z M170.2,123.8 L113.3,123.8 C105.8,123.8 98.3,129.1 95.7,136.2 L85.1,166 C73.6,167.5 64.6,177.4 64.6,189.3 L64.6,214.5 C64.6,227.5 75.2,238 88.1,238 L91.4,238 L91.4,254.7 C91.4,258.4 94.4,261.4 98.1,261.4 C101.8,261.4 104.8,258.4 104.8,254.7 L104.8,238 L181.8,238 L181.8,254.7 C181.8,258.4 184.8,261.4 188.5,261.4 C192.2,261.4 195.2,258.4 195.2,254.7 L195.2,238 C208.2,238 218.7,227.4 218.7,214.5 L218.7,189.3 C218.9,177.4 209.9,167.5 198.4,166 L187.8,136.2 C185.3,129.1 177.7,123.8 170.2,123.8 z M249.7,76 L33.7,76 C30,76 27,79 27,82.7 C27,86.4 30,89.4 33.7,89.4 L249.7,89.4 C253.4,89.4 256.4,86.4 256.4,82.7 C256.4,79 253.4,76 249.7,76 z M249.7,49 L33.7,49 C30,49 27,52 27,55.7 C27,59.4 30,62.4 33.7,62.4 L249.7,62.4 C253.4,62.4 256.4,59.4 256.4,55.7 C256.4,52 253.4,49 249.7,49 z" fill="#010202"/>
  </g>
</svg>
