<?xml version="1.0" encoding="UTF-8"?>
<!DOCTYPE svg PUBLIC "-//W3C//DTD SVG 1.1//EN" "http://www.w3.org/Graphics/SVG/1.1/DTD/svg11.dtd">
<svg version="1.1" xmlns="http://www.w3.org/2000/svg" xmlns:xlink="http://www.w3.org/1999/xlink" x="0" y="0" width="283.5" height="283.5" viewBox="0, 0, 283.5, 283.5">
  <g id="Background">
    <rect x="0" y="0" width="283.5" height="283.5" fill="#FFFFFF"/>
  </g>
  <g id="Layer_1">
    <path d="M116.1,283.5 C91,283.5 67.4,272.1 49.8,251.4 C19.3,215.6 13.8,161 36.5,118.7 C57.1,80 108.4,6 110.6,2.9 C111.9,1.1 114,-0.1 116.2,0 C118.4,0 120.5,1.1 121.8,3 C122.1,3.4 148.1,42 171.1,78.2 C182.5,61.2 191,48.9 191.1,48.8 C192.4,47 194.4,45.9 196.6,45.9 C198.9,45.9 200.9,47 202.1,48.7 C202.3,49 224.2,79.9 246.6,119 C269.8,159.3 264.1,215 233.1,251.4 C215.5,272.1 191.9,283.5 166.8,283.5 L166.8,283.5 C164.1,283.5 161.5,283.4 158.8,283.1 C155.9,282.8 153.4,280.6 152.8,277.8 C152.2,274.9 153.5,272 156.1,270.5 C159.8,268.5 163,265.7 165.8,262.5 C177.9,248.3 180.2,225.8 171.2,210.2 C163.7,197.1 149.3,175.1 141.3,163.2 C133.2,175.1 118.6,197 111.8,209.8 C102.9,226.4 105.1,248.6 117,262.6 C119.8,265.9 123.1,268.6 126.7,270.6 C129.3,272 130.6,275 130,277.9 C129.4,280.8 127,283 124.1,283.3 C121.6,283.3 118.9,283.5 116.1,283.5 z M116.1,18.8 C101.9,39.5 64.7,94.4 48.4,125 C28.7,162 33.6,211.5 60.1,242.6 C72.5,257.2 88.3,266.4 105.3,269.1 C91.2,250.8 89,224.1 100.1,203.3 C110.1,184.5 135,148.7 136,147.2 C137.3,145.4 139.3,144.3 141.6,144.3 C143.8,144.3 145.9,145.4 147.2,147.3 C148.2,148.8 172.3,184.5 183.1,203.4 C194.5,223.3 192.3,250.5 178,269.1 C194.9,266.3 210.5,257.2 222.9,242.7 C249.9,211 255.1,160.8 235,125.8 C219.6,99 204.5,76.1 196.7,64.6 C192,71.5 184.7,82.1 176.6,94.4 C175.3,96.3 173.2,97.4 170.9,97.4 C168.6,97.4 166.5,96.2 165.3,94.2 C147.3,65.8 126,33.6 116.1,18.8 z" fill="#010202"/>
  </g>
</svg>
