<?xml version="1.0" encoding="UTF-8"?>
<!DOCTYPE svg PUBLIC "-//W3C//DTD SVG 1.1//EN" "http://www.w3.org/Graphics/SVG/1.1/DTD/svg11.dtd">
<svg version="1.1" xmlns="http://www.w3.org/2000/svg" xmlns:xlink="http://www.w3.org/1999/xlink" x="0" y="0" width="283.5" height="283.5" viewBox="0, 0, 283.5, 283.5">
  <g id="Background">
    <rect x="0" y="0" width="283.5" height="283.5" fill="#FFFFFF"/>
  </g>
  <g id="Layer_1">
    <path d="M282.8,83.5 C282.1,81.8 280.8,80.5 279.1,79.8 C235.1,61.6 188.8,52.4 141.5,52.4 C94.3,52.4 48.1,61.6 4.1,79.9 C2.4,80.6 1.1,81.9 0.4,83.6 C-0.3,85.3 -0.3,87.1 0.4,88.8 L57.7,227 C58.8,229.6 61.3,231.2 63.9,231.2 C64.8,231.2 65.6,231 66.5,230.7 C90.5,220.8 115.8,215.7 141.5,215.7 C167.4,215.7 192.7,220.7 216.7,230.7 C218.4,231.4 220.2,231.4 221.9,230.7 C223.6,230 224.9,228.7 225.6,227 L282.9,88.8 C283.5,87 283.5,85.2 282.8,83.5 z M215.7,215.6 C191.9,206.6 167,202.1 141.6,202.1 C116.3,202.1 91.5,206.7 67.7,215.6 L15.6,89.8 C33.2,82.9 51.2,77.5 69.4,73.5 L98.2,107 L75.7,139 C75.7,139 75.7,139 75.7,139 C75.6,139.1 75.5,139.3 75.5,139.4 C75.5,139.5 75.4,139.5 75.4,139.6 C75.3,139.7 75.3,139.8 75.2,140 C75.2,140.1 75.1,140.2 75.1,140.3 C75.1,140.4 75,140.5 75,140.6 C75,140.7 74.9,140.8 74.9,140.9 C74.9,141 74.9,141 74.8,141.1 C74.8,141.2 74.7,141.4 74.7,141.5 C74.7,141.6 74.7,141.6 74.7,141.7 C74.7,141.9 74.6,142 74.6,142.2 C74.6,142.3 74.6,142.3 74.6,142.4 C74.6,142.5 74.6,142.7 74.6,142.8 C74.6,142.9 74.6,143 74.6,143.1 C74.6,143.2 74.6,143.3 74.6,143.4 C74.6,143.5 74.6,143.7 74.7,143.8 C74.7,143.9 74.7,143.9 74.7,144 C74.7,144.2 74.8,144.3 74.8,144.5 C74.8,144.6 74.8,144.6 74.8,144.7 C74.8,144.8 74.9,145 74.9,145.1 C74.9,145.2 74.9,145.2 75,145.3 C75,145.4 75.1,145.5 75.1,145.6 C75.1,145.7 75.2,145.8 75.2,145.9 C75.2,146 75.3,146.1 75.3,146.2 C75.4,146.3 75.4,146.4 75.5,146.5 C75.5,146.6 75.6,146.6 75.6,146.7 C75.7,146.8 75.8,146.9 75.9,147.1 C75.9,147.1 75.9,147.1 75.9,147.1 L98.5,175.1 C99.8,176.8 101.8,177.6 103.8,177.6 C105.3,177.6 106.8,177.1 108,176.1 C110.9,173.8 111.4,169.5 109,166.6 L89.6,142.6 L112.2,110.4 C114,107.9 113.8,104.5 111.8,102.1 L84.7,70.6 C103.4,67.5 122.4,65.9 141.5,65.9 C184.8,65.9 227.3,73.9 267.7,89.8 L215.7,215.6 z" fill="#000000"/>
  </g>
</svg>
