<?xml version="1.0" encoding="UTF-8"?>
<!DOCTYPE svg PUBLIC "-//W3C//DTD SVG 1.1//EN" "http://www.w3.org/Graphics/SVG/1.1/DTD/svg11.dtd">
<svg version="1.1" xmlns="http://www.w3.org/2000/svg" xmlns:xlink="http://www.w3.org/1999/xlink" x="0" y="0" width="283.5" height="283.5" viewBox="0, 0, 283.5, 283.5">
  <g id="Background">
    <rect x="0" y="0" width="283.5" height="283.5" fill="#FFFFFF"/>
  </g>
  <g id="Layer_1">
    <path d="M283.3,141.8 C283.3,138.1 280.3,135.1 276.6,135.1 C272.9,135.1 269.9,138.1 269.9,141.8 C269.9,176 256.6,208.2 232.4,232.4 C232.4,232.4 232.4,232.4 232.4,232.4 C182.4,282.3 101.1,282.3 51.1,232.4 C51.1,232.4 51.1,232.4 51.1,232.4 C1.1,182.4 1.1,101.1 51.1,51.1 C51.1,51.1 51.1,51.1 51.1,51.1 C99.4,2.7 177.1,1.2 227.4,46.5 L208,65.9 C206.1,67.8 205.5,70.7 206.5,73.3 C207.5,75.8 210,77.5 212.7,77.5 L261.3,77.5 C265,77.5 268,74.5 268,70.8 L268,22.1 C268,19.4 266.4,16.9 263.8,15.9 C261.3,14.9 258.4,15.4 256.4,17.4 L236.8,37 C181.3,-13.5 95,-12 41.4,41.6 C41.4,41.6 41.3,41.6 41.3,41.7 C-13.9,96.9 -13.9,186.8 41.3,242.1 C41.3,242.1 41.3,242.1 41.3,242.1 C68.9,269.7 105.2,283.5 141.5,283.5 C177.8,283.5 214.1,269.7 241.7,242.1 C241.7,242.1 241.7,242 241.8,242 C268.6,215.1 283.3,179.6 283.3,141.8 z M254.6,63.9 L229,63.9 L254.5,38.4 L254.5,63.9 z M124.6,86.2 C124.6,95.6 132.2,103.3 141.6,103.2 C151,103.2 158.6,95.6 158.6,86.2 C158.6,76.8 151,69.2 141.6,69.2 C132.2,69.2 124.6,76.8 124.6,86.2 z M172.2,86.2 C172.2,103.1 158.5,116.8 141.7,116.7 C124.9,116.7 111.2,103 111.2,86.2 C111.2,69.4 124.9,55.7 141.7,55.7 C158.5,55.7 172.2,69.4 172.2,86.2 z M164.3,189.1 L179.9,189.1 C180.2,187.2 180.3,185.2 180.3,183.3 C180.3,161.9 162.9,144.5 141.5,144.5 C120.1,144.5 102.7,161.9 102.7,183.3 C102.7,185.2 102.8,187.2 103.1,189.1 L118.9,189.1 C122.6,189.1 125.6,192.1 125.6,195.8 L125.6,226.4 C125.6,230.1 122.6,233.1 118.9,233.1 C115.2,233.1 112.2,230.1 112.2,226.4 L112.2,202.6 L97.8,202.6 C94.8,202.6 92.1,200.6 91.3,197.7 C90,193 89.3,188.2 89.3,183.3 C89.3,154.5 112.7,131 141.6,131 C170.4,131 193.9,154.4 193.9,183.3 C193.9,188.1 193.3,193 191.9,197.7 C191.1,200.6 188.4,202.6 185.4,202.6 L171,202.6 L171,226.4 C171,230.1 168,233.1 164.3,233.1 C160.6,233.1 157.6,230.1 157.6,226.4 L157.6,195.8 C157.6,192.1 160.6,189.1 164.3,189.1 z" fill="#000000"/>
  </g>
</svg>
