<?xml version="1.0" encoding="UTF-8"?>
<!DOCTYPE svg PUBLIC "-//W3C//DTD SVG 1.1//EN" "http://www.w3.org/Graphics/SVG/1.1/DTD/svg11.dtd">
<svg version="1.1" xmlns="http://www.w3.org/2000/svg" xmlns:xlink="http://www.w3.org/1999/xlink" x="0" y="0" width="283.5" height="283.5" viewBox="0, 0, 283.5, 283.5">
  <g id="Background">
    <rect x="0" y="0" width="283.5" height="283.5" fill="#FFFFFF"/>
  </g>
  <g id="Layer_1">
    <path d="M141.7,0 C219.9,0 283.4,63.6 283.4,141.7 C283.4,219.8 219.9,283.4 141.7,283.4 C63.6,283.4 0,219.8 0,141.7 C0,63.6 63.6,0 141.7,0 z M141.7,13.5 C71,13.5 13.5,71 13.5,141.7 C13.5,212.4 71,270 141.7,270 C212.4,270 270,212.4 270,141.7 C270,71 212.4,13.5 141.7,13.5 z M141.7,188 C155,188 165.8,198.8 165.8,212.1 C165.8,225.4 155,236.2 141.7,236.2 C128.4,236.2 117.6,225.4 117.6,212.1 C117.6,198.8 128.4,188 141.7,188 z M141.7,201.5 C135.8,201.5 131.1,206.3 131.1,212.1 C131.1,217.9 135.9,222.7 141.7,222.7 C147.6,222.7 152.3,218 152.3,212.1 C152.3,206.3 147.5,201.5 141.7,201.5 z M141.8,47.2 C142.3,47.2 142.8,47.3 143.3,47.4 C154.3,47.8 164.6,52.3 172.5,60 C180.7,68.2 185.2,79.1 185.2,90.7 C185.2,102.4 180.6,113.3 172.4,121.5 C172.2,121.7 172,121.9 171.7,122.1 L158,135.6 C151.7,141.9 148.3,150.3 148.5,159.1 C148.6,162.9 145.6,165.9 141.9,166 L141.8,166 C138.2,166 135.2,163.1 135.1,159.4 C134.8,146.8 139.6,135 148.5,126.1 L162.9,111.9 C163,111.8 163.2,111.7 163.3,111.6 C168.7,106 171.7,98.6 171.7,90.8 C171.7,82.8 168.6,75.3 162.9,69.6 C157.2,63.9 149.7,60.8 141.7,60.8 L141.1,60.7 C133.3,60.9 126.1,63.9 120.6,69.4 C114.9,75.1 111.8,82.6 111.8,90.6 C111.8,94.4 108.8,97.4 105.1,97.4 C101.4,97.4 98.4,94.4 98.4,90.7 C98.4,79 102.9,68.1 111.1,59.9 C119.3,51.7 130.2,47.2 141.8,47.2 z" fill="#010202"/>
  </g>
</svg>
