<?xml version="1.0" encoding="UTF-8"?>
<!DOCTYPE svg PUBLIC "-//W3C//DTD SVG 1.1//EN" "http://www.w3.org/Graphics/SVG/1.1/DTD/svg11.dtd">
<svg version="1.1" xmlns="http://www.w3.org/2000/svg" xmlns:xlink="http://www.w3.org/1999/xlink" x="0" y="0" width="283.5" height="283.5" viewBox="0, 0, 283.5, 283.5">
  <g id="Background">
    <rect x="0" y="0" width="283.5" height="283.5" fill="#FFFFFF"/>
  </g>
  <g id="Layer_1">
    <path d="M142.864,48.612 C145.572,49.67 144.514,49.012 146.2,50.3 L245.1,140.9 C246.5,142.2 247.3,144 247.3,145.9 L247.3,263.2 C247.4,266.9 244.4,269.9 240.6,269.9 L166.3,269.9 C162.6,269.9 159.5,266.9 159.5,263.1 L159.5,201.8 L123.6,201.8 L123.6,263.1 C123.6,266.8 120.6,269.9 116.8,269.9 L45.6,269.9 C45.1,269.9 44.7,269.9 44.2,269.8 C43.8,269.9 43.3,269.9 42.8,269.9 C39.1,269.9 36,266.9 36,263.1 L36,145.9 C36,144 36.8,142.2 38.2,140.9 L137.1,50.3 C139.229,48.469 140.247,48.612 142.864,48.612 z M141.8,64.4 L49.7,148.8 L49.7,256.4 L110.2,256.4 L110.2,195.1 C110.2,191.4 113.2,188.3 117,188.3 L166.4,188.3 C170.1,188.3 173.2,191.3 173.2,195.1 L173.2,256.4 L233.9,256.4 L233.9,148.8 L141.8,64.4 z M140.494,11.518 C137.733,12.567 138.809,11.905 137.1,13.2 L2.1,136.8 C-0.6,139.4 -0.8,143.6 1.7,146.4 C4.3,149.1 8.5,149.3 11.3,146.8 L141.7,27.5 L206.2,89.4 C208.1,91.2 211,91.8 213.5,90.7 C216,89.7 217.6,87.2 217.6,84.5 L217.6,64.1 L233.9,64.1 L233.9,110.7 C233.9,112.6 234.7,114.5 236.2,115.8 L272.3,146.9 C273.6,148 275.1,148.5 276.7,148.5 C278.6,148.5 280.5,147.8 281.8,146.1 C284.2,143.3 283.9,139 281.1,136.6 L247.4,107.6 L247.4,57.3 C247.4,53.5 244.3,50.5 240.6,50.5 L210.8,50.5 C209.1,50.6 207.3,51.2 206,52.5 C204.7,53.8 204,55.5 204,57.3 L204,68.5 L146.3,13.3 C144.372,11.728 143.036,11.277 140.494,11.518 z" fill="#000000"/>
  </g>
</svg>
