<?xml version="1.0" encoding="UTF-8"?>
<!DOCTYPE svg PUBLIC "-//W3C//DTD SVG 1.1//EN" "http://www.w3.org/Graphics/SVG/1.1/DTD/svg11.dtd">
<svg version="1.1" xmlns="http://www.w3.org/2000/svg" xmlns:xlink="http://www.w3.org/1999/xlink" x="0" y="0" width="283.5" height="283.5" viewBox="0, 0, 283.5, 283.5">
  <g id="Background">
    <rect x="0" y="0" width="283.5" height="283.5" fill="#FFFFFF"/>
  </g>
  <g id="Layer_1">
    <path d="M130.5,0 C132.5,0 134.5,1 135.8,2.5 C135.9,2.6 145.9,15.3 159.3,32.6 C161.6,35.6 161.1,39.8 158.1,42.1 C155.1,44.4 150.9,43.9 148.6,40.9 C141.1,31.2 134.6,23 130.4,17.6 C114.8,36.9 69.3,94 49.5,125.3 C26.5,162 32.3,211.1 63.3,242.1 C85.9,264.7 118.1,274.4 149.5,268 C153.2,267.3 156.7,269.6 157.6,273.3 C158.3,277 156,280.6 152.3,281.3 C145,282.8 137.7,283.5 130.4,283.5 C101.9,283.5 74.4,272.3 53.8,251.7 C18.4,216.3 11.8,160.2 38.1,118.2 C62.4,79.5 122.6,5.6 125.2,2.5 C126.5,0.9 128.3,0 130.5,0 z M237.3,230.2 L204.6,262.9 L171.9,230.2 L237.3,230.2 z M208.319,6.332 C205.839,7.158 204.437,7.535 203.1,10 L150.6,115 C150.6,115 150.6,115.1 150.5,115.1 C150.4,115.2 150.4,115.4 150.3,115.5 L150.2,115.8 C150.2,115.9 150.1,116 150.1,116.2 L150,116.5 C150,116.6 150,116.7 149.9,116.8 C149.9,116.9 149.9,117.1 149.8,117.2 L149.8,118.9 C149.8,119 149.8,119.1 149.9,119.2 C149.9,119.3 149.9,119.4 150,119.5 C150,119.6 150,119.7 150.1,119.8 L150.2,120.2 C150.2,120.3 150.3,120.3 150.3,120.4 L150.4,120.8 C150.4,120.9 150.5,121 150.5,121 L151.1,121.9 C151.2,122 151.3,122.1 151.3,122.2 C151.3,122.3 151.4,122.3 151.4,122.4 L152.4,123.4 L153,123.8 C153.1,123.9 153.2,123.9 153.2,123.9 C153.3,124 153.4,124 153.6,124.1 L153.7,124.1 C153.7,124.1 153.8,124.1 153.8,124.2 C154,124.3 154.1,124.3 154.3,124.4 L154.5,124.5 C154.7,124.6 154.8,124.6 155,124.6 C155.1,124.6 155.2,124.6 155.2,124.7 C155.4,124.7 155.5,124.8 155.7,124.8 L243.4,124.8 L198,216.6 L155.6,216.6 C152.9,216.6 150.4,218.2 149.4,220.8 C148.4,223.3 148.9,226.2 150.9,228.2 L200,277.3 C201.3,278.6 203,279.3 204.8,279.3 C206.6,279.3 208.3,278.6 209.6,277.3 L258.7,228.2 C260.6,226.3 261.2,223.4 260.2,220.8 C259.2,218.3 256.7,216.6 254,216.6 L213.4,216.6 L261,121.4 C260.7,121.3 260.7,121.3 260.7,121.2 C260.8,121.1 260.8,120.9 260.9,120.8 L261,120.5 C261,120.4 261.1,120.3 261.1,120.1 L261.2,119.8 C261.2,119.7 261.2,119.6 261.3,119.5 C261.3,119.4 261.3,119.3 261.4,119.1 L261.4,117.4 C261.4,117.3 261.4,117.2 261.3,117.1 C261.3,117 261.3,116.9 261.2,116.8 C261.2,116.7 261.2,116.6 261.1,116.5 C261.1,116.4 261,116.2 261,116.1 L260.9,115.9 C260.9,115.8 260.8,115.6 260.7,115.5 L260.6,115.3 C260.5,115.2 260.5,115.1 260.4,114.9 L260,114.3 C259.9,114.2 259.8,114.1 259.8,114 L258.6,112.8 L258,112.4 C257.9,112.4 257.8,112.3 257.8,112.3 C257.7,112.2 257.6,112.2 257.4,112.1 L257.3,112.1 C257.3,112.1 257.2,112.1 257.2,112 C257.1,111.9 256.9,111.9 256.8,111.8 L256.5,111.7 C256.4,111.7 256.3,111.6 256.1,111.6 L255.8,111.5 C255.7,111.5 255.6,111.5 255.5,111.4 C255.4,111.4 255.2,111.4 255.1,111.3 L167.6,111.3 L215.2,16.1 C216.9,12.8 215.5,8.7 212.2,7 C210.118,6.188 211.384,6.535 208.319,6.332 z" fill="#010202"/>
  </g>
</svg>
