<?xml version="1.0" encoding="UTF-8"?>
<!DOCTYPE svg PUBLIC "-//W3C//DTD SVG 1.1//EN" "http://www.w3.org/Graphics/SVG/1.1/DTD/svg11.dtd">
<svg version="1.1" xmlns="http://www.w3.org/2000/svg" xmlns:xlink="http://www.w3.org/1999/xlink" x="0" y="0" width="283.5" height="283.5" viewBox="0, 0, 283.5, 283.5">
  <g id="Background">
    <rect x="0" y="0" width="283.5" height="283.5" fill="#FFFFFF"/>
  </g>
  <g id="Layer_1">
    <path d="M69.7,147 C99.7,147 126.3,167 134.9,195.3 L254.9,195.3 C256.7,195.3 258.3,196 259.6,197.3 L280,217.7 C282.6,220.3 282.6,224.6 279.8,227.1 L250.7,256.2 C248.2,258.7 243.8,258.7 241.3,256.2 L228.4,243.3 L215.5,256.2 C212.9,258.8 208.7,258.8 206.1,256.2 L193.2,243.3 L180.3,256.2 C177.7,258.8 173.5,258.8 170.9,256.2 L158.9,244.2 L131.4,244.2 C120.2,268.2 96.4,283.4 69.7,283.4 C32.1,283.4 1.5,252.8 1.5,215.2 C1.5,177.6 32.1,147 69.7,147 z M69.8,160.5 C39.6,160.5 15,185.1 15,215.3 C15,245.5 39.6,270.1 69.8,270.1 C92.5,270.1 112.5,256.4 120.8,235.2 C121.8,232.6 124.2,230.9 127,230.9 L161.7,230.9 C163.5,230.9 165.1,231.6 166.4,232.9 L175.7,242.2 L188.6,229.3 C191.1,226.8 195.5,226.8 198,229.3 L210.9,242.2 L223.8,229.3 C226.4,226.7 230.6,226.7 233.2,229.3 L246.1,242.2 L265.9,222.5 L252.2,208.8 L129.8,208.8 C126.7,208.8 124,206.7 123.3,203.6 C117.9,178.6 95.4,160.5 69.8,160.5 z M50.5,192.6 C63,192.6 73.2,202.8 73.2,215.3 C73.2,227.8 63,238 50.5,238 C38,238 27.8,227.8 27.8,215.3 C27.8,202.8 38,192.6 50.5,192.6 z M50.5,206 C45.4,206 41.2,210.1 41.2,215.3 C41.2,220.4 45.3,224.6 50.5,224.6 C55.7,224.6 59.9,220.4 59.8,215.3 C59.8,210.2 55.6,206 50.5,206 z M138.2,104.3 C118.4,104.3 99.4,111.7 84.8,125.1 C82.1,127.6 81.9,131.8 84.4,134.5 C87,137.3 91.2,137.5 94,135 C106.1,123.9 121.9,117.7 138.3,117.7 C172.3,117.7 201,144.2 203.6,178 C203.9,181.5 206.8,184.2 210.2,184.2 L210.7,184.2 C214.4,183.9 217.1,180.7 216.8,177 C213.6,136.3 179.1,104.3 138.2,104.3 z M138.3,13.3 C155.4,13.3 169.3,27.2 169.3,44.3 C169.3,61.4 155.4,75.3 138.3,75.3 C121.2,75.3 107.3,61.4 107.3,44.3 C107.3,27.2 121.2,13.3 138.3,13.3 z M138.3,0 C113.8,0 94,19.9 94,44.3 C94,68.8 113.8,88.6 138.3,88.6 C162.7,88.6 182.6,68.7 182.6,44.3 C182.6,19.9 162.7,0 138.3,0 z" fill="#000000"/>
  </g>
</svg>
