<?xml version="1.0" encoding="UTF-8"?>
<!DOCTYPE svg PUBLIC "-//W3C//DTD SVG 1.1//EN" "http://www.w3.org/Graphics/SVG/1.1/DTD/svg11.dtd">
<svg version="1.1" xmlns="http://www.w3.org/2000/svg" xmlns:xlink="http://www.w3.org/1999/xlink" x="0" y="0" width="283.5" height="283.5" viewBox="0, 0, 283.5, 283.5">
  <g id="Background">
    <rect x="0" y="0" width="283.5" height="283.5" fill="#FFFFFF"/>
  </g>
  <g id="Layer_1">
    <path d="M258.3,97.7 C262,97.7 265,100.8 264.9,104.5 L264.9,276.7 C264.9,280.4 261.9,283.4 258.2,283.4 L45.1,283.4 C41.4,283.4 38.4,280.4 38.4,276.7 C38.4,273 41.4,270 45.1,270 L251.6,270 L251.6,104.4 C251.6,100.7 254.6,97.7 258.3,97.7 z M165.6,23 L213.6,71 L165.6,71 L165.6,23 z M164.4,108.2 C160.5,108.2 157.4,111.4 157.4,115.2 L157.4,188.3 L144.6,188.3 L144.6,138.6 C144.6,134.7 141.5,131.6 137.6,131.6 C133.7,131.6 130.5,134.8 130.5,138.6 L130.5,188.3 L117.8,188.3 L117.8,159.6 C117.8,155.7 114.6,152.6 110.8,152.6 C106.9,152.6 103.8,155.8 103.8,159.6 L103.8,188.3 L91,188.3 L91,173.4 C91,169.5 87.8,166.4 84,166.4 C80.1,166.4 77,169.6 77,173.4 L77,188.3 L59.3,188.3 C55.4,188.3 52.3,191.5 52.3,195.3 C52.3,199.2 55.5,202.3 59.3,202.3 L189,202.3 C192.9,202.3 196,199.2 196,195.3 C196,191.4 192.8,188.3 189,188.3 L171.4,188.3 L171.4,115.2 C171.4,111.3 168.3,108.2 164.4,108.2 z M152.1,13.5 L152.1,77.8 C152.1,81.5 155.1,84.5 158.8,84.5 L223.1,84.5 L223.1,241.5 L23.5,241.5 L23.5,13.5 L152.1,13.5 z M159.9,0.1 L16.7,0.1 C13,0 10,3 10,6.7 L10,248.3 C10,252 13,255 16.7,255 L229.8,255 C233.6,255 236.6,252 236.6,248.3 L236.6,76.8 C236.6,76.7 236.6,76.5 236.5,76.4 C236.5,76.3 236.4,76.2 236.4,76.1 C236.4,76 236.3,75.9 236.3,75.8 L236,74.9 C236,74.8 235.9,74.7 235.8,74.6 C235.8,74.5 235.7,74.4 235.6,74.3 L235.2,73.7 C235.1,73.6 235.1,73.5 235,73.5 L234.6,73 L163.6,2 C163.4,1.8 163.3,1.7 163.1,1.6 C163,1.5 162.9,1.5 162.9,1.4 L162,0.8 C161.9,0.7 161.8,0.7 161.7,0.7 L160.2,0.2 C160.1,0.2 160,0.2 159.9,0.1 z" fill="#000000"/>
  </g>
</svg>
