<?xml version="1.0" encoding="UTF-8"?>
<!DOCTYPE svg PUBLIC "-//W3C//DTD SVG 1.1//EN" "http://www.w3.org/Graphics/SVG/1.1/DTD/svg11.dtd">
<svg version="1.1" xmlns="http://www.w3.org/2000/svg" xmlns:xlink="http://www.w3.org/1999/xlink" x="0" y="0" width="283.5" height="283.5" viewBox="0, 0, 283.5, 283.5">
  <g id="Background">
    <rect x="0" y="0" width="283.5" height="283.5" fill="#FFFFFF"/>
  </g>
  <g id="Layer_1">
    <path d="M13.832,184.154 L15.2,184.2 L60.3,190.2 C64,190.7 66.6,194.1 66.1,197.8 C65.6,201.5 62.2,204.1 58.5,203.6 L29.5,199.7 C50.7,236.3 90.3,259.4 132.9,259.4 C151.5,259.4 169.4,255.2 186,246.9 C189.4,245.3 193.4,246.6 195.1,250 C196.8,253.4 195.4,257.4 192.1,259.1 C173.5,268.3 153.6,273 132.9,273 C86.1,273 42.6,247.9 18.8,208.3 L15,236.9 C14.6,240.3 11.6,242.8 8.3,242.8 L7.4,242.7 C3.7,242.2 1.1,238.8 1.6,235.1 L7.6,190 C7.989,187.793 9.233,185.856 11.301,184.84 C12.085,184.454 12.988,184.383 13.832,184.154 z M156.2,110 C156.3,110 156.6,110.2 156.6,110.2 L160.5,121.2 L102.9,121.2 L106.7,110.4 L107.1,110 L156.2,110 z M97.2,139.3 C93.7,139.3 90.9,142.1 90.9,145.6 C90.9,149.1 93.7,151.9 97.2,151.9 C100.7,151.9 103.5,149.1 103.5,145.6 C103.5,142.1 100.7,139.3 97.2,139.3 z M166.3,139.3 C162.8,139.3 160,142.1 160,145.6 C160,149.1 162.8,151.9 166.3,151.9 C169.8,151.9 172.6,149.1 172.6,145.6 C172.6,142.1 169.7,139.3 166.3,139.3 z M171.2,134.6 C172.9,134.6 174.3,136 174.3,137.7 L174.3,152.5 C174.3,154.2 172.9,155.6 171.2,155.6 L92.3,155.6 C90.6,155.6 89.2,154.2 89.2,152.5 L89.2,137.7 C89.2,136 90.6,134.6 92.3,134.6 L171.2,134.6 z M156.4,96.5 L107.1,96.5 C101.6,96.5 96,100.4 94.1,105.6 L88.4,121.6 C81.1,123.4 75.6,129.9 75.6,137.8 L75.6,152.6 C75.6,161.2 82.1,168.2 90.4,169.1 L90.4,176.2 C90.4,179.9 93.4,183 97.2,183 C101,183 104,180 104,176.2 L104,169.2 L159.5,169.2 L159.5,176.2 C159.5,179.9 162.5,183 166.3,183 C170,183 173.1,180 173.1,176.2 L173.1,169 C181.4,168.1 187.9,161 187.9,152.5 L187.9,137.7 C187.8,129.9 182.4,123.3 175.1,121.6 L169.4,105.6 C167.5,100.4 162,96.5 156.4,96.5 z M133.1,70.4 C171.9,70.4 203.5,102 203.5,140.8 C203.5,179.6 171.9,211.2 133.1,211.2 C94.3,211.2 62.7,179.6 62.7,140.8 C62.7,102 94.3,70.4 133.1,70.4 z M133,56.9 C86.7,56.9 49.1,94.6 49.1,140.9 C49.1,187.2 86.8,224.9 133,224.9 C159.9,224.9 183.9,212.1 199.3,192.4 L263.7,232.1 C264.8,232.8 266,233.1 267.2,233.1 C269.5,233.1 271.7,232 273,229.9 C275.1,226.5 274.1,222.4 270.9,220.4 L206.8,181 C213.3,169.1 217,155.4 217,140.9 C217,94.6 179.3,56.9 133,56.9 z M132.9,7.2 C59.6,7.2 0,66.8 -0,140.1 L-0,140.9 C0,144.6 3,147.7 6.8,147.7 C10.6,147.7 13.6,144.7 13.6,140.9 L13.6,140.1 C13.6,74.3 67.1,20.7 133,20.7 C187,20.7 233.5,56.2 247.9,107.7 L219.8,95.8 C216.4,94.3 212.4,95.9 210.9,99.4 C209.4,102.8 211,106.8 214.5,108.3 L256.4,126.1 C257.3,126.5 258.2,126.6 259,126.6 C261.6,126.6 264.1,125.1 265.2,122.5 L283,80.6 C284.4,77.1 282.8,73.1 279.3,71.7 C275.9,70.2 271.9,71.8 270.4,75.3 L259.7,100.5 C242.6,45 191.8,7.2 132.9,7.2 z" fill="#000000"/>
  </g>
</svg>
