<?xml version="1.0" encoding="UTF-8"?>
<!DOCTYPE svg PUBLIC "-//W3C//DTD SVG 1.1//EN" "http://www.w3.org/Graphics/SVG/1.1/DTD/svg11.dtd">
<svg version="1.1" xmlns="http://www.w3.org/2000/svg" xmlns:xlink="http://www.w3.org/1999/xlink" x="0" y="0" width="283.5" height="283.5" viewBox="0, 0, 283.5, 283.5">
  <g id="Background">
    <rect x="0" y="0" width="283.5" height="283.5" fill="#FFFFFF"/>
  </g>
  <g id="Layer_1">
    <path d="M141.7,1.4 C219.1,1.4 282,64.4 282,141.7 C282,219 219.1,282 141.7,282 C64.4,282 1.4,219.1 1.4,141.7 C1.4,64.3 64.4,1.4 141.7,1.4 z M141.7,14.8 C71.7,14.8 14.7,71.8 14.7,141.8 C14.7,211.8 71.7,268.8 141.7,268.8 C211.7,268.8 268.6,211.8 268.6,141.8 C268.6,71.8 211.7,14.8 141.7,14.8 z M133.701,113.06 C137.225,112.981 140.542,114.114 143.8,115.3 C149.6,118 154.1,122.8 156.3,128.9 C158.5,134.9 158.2,141.5 155.5,147.3 C154.984,148.274 155.246,147.934 154.844,148.407 C154.814,149.358 154.88,148.746 154.4,150.2 L125.341,212.37 L125.1,213.1 C123.9,215.7 123.8,218.5 124.8,221.2 C125.8,223.9 127.7,226 130.3,227.2 C135.6,229.7 141.9,227.4 144.4,222.1 C146,218.7 150,217.3 153.4,218.8 C156.8,220.4 158.2,224.4 156.7,227.8 C152.4,236.4 143.7,241.6 134.6,241.6 C131.2,241.6 127.8,240.9 124.5,239.4 C118.7,236.7 114.2,231.9 112,225.8 C109.75,219.044 110.142,213.928 112.8,207.401 L112.8,207.4 L142.1,144.5 C142.675,143.475 142.367,143.899 142.966,143.188 C142.986,142.542 142.952,143.058 143.4,141.7 C144.6,139.1 144.7,136.3 143.7,133.6 C142.7,130.9 140.8,128.8 138.2,127.6 C132.9,125.1 126.6,127.4 124.1,132.7 C122.5,136.1 118.5,137.5 115.1,136 C111.7,134.4 110.3,130.4 111.8,127 C114.934,120.554 120.587,115.685 127.568,113.857 C129.063,113.466 130.619,113.362 132.144,113.115 L133.701,113.06 z M145.7,47.2 C159,47.2 169.8,58 169.8,71.3 C169.8,84.6 159,95.4 145.7,95.4 C132.4,95.4 121.6,84.6 121.6,71.3 C121.6,58 132.4,47.2 145.7,47.2 z M145.7,60.7 C139.9,60.7 135.1,65.5 135.1,71.3 C135.1,77.1 139.8,81.9 145.7,81.9 C151.5,81.9 156.3,77.1 156.3,71.3 C156.3,65.5 151.6,60.7 145.7,60.7 z" fill="#010202"/>
  </g>
</svg>
