<?xml version="1.0" encoding="UTF-8"?>
<!DOCTYPE svg PUBLIC "-//W3C//DTD SVG 1.1//EN" "http://www.w3.org/Graphics/SVG/1.1/DTD/svg11.dtd">
<svg version="1.1" xmlns="http://www.w3.org/2000/svg" xmlns:xlink="http://www.w3.org/1999/xlink" x="0" y="0" width="283.5" height="283.5" viewBox="0, 0, 283.5, 283.5">
  <g id="Background">
    <rect x="0" y="0" width="283.5" height="283.5" fill="#FFFFFF"/>
  </g>
  <g id="Layer_1">
    <path d="M127.1,51.4 L132,65.2 C132.6,66.7 133.2,67.4 135.2,67.4 L143.7,67.4 C145.1,67.4 145.6,66.3 145.1,65 L122,4.3 C121.6,3.3 120.8,2.6 119.4,2.6 L111.9,2.6 C110.5,2.6 109.8,3.4 109.4,4.5 L86.5,65.1 C86,66.4 86.4,67.4 87.9,67.4 L96,67.4 C97.5,67.4 98.2,66.7 98.5,65.4 L103.4,51.4 L127.1,51.4 z M113.2,22.7 C114,20.2 114.7,18.1 115.2,16.5 L115.4,16.5 C115.9,18 116.4,20 117.3,22.6 L123.9,42.4 L106.6,42.4 L113.2,22.7 z M178.4,68.6 C158.7,68.6 149,54.6 149,35.6 C149,16.4 160.5,1.7 179.3,1.7 C185.8,1.7 191.6,3 196.9,5.6 C198.4,6.3 198.7,6.8 198.1,8.4 L195.9,14.3 C195.6,15.4 194.8,15.8 193.6,15.1 C188.9,12.6 184.7,11.7 180,11.7 C167,11.7 161.9,23.7 161.9,35 C161.9,49.4 168.7,58.6 180.2,58.6 C184.7,58.6 189.3,57.6 193.7,55.6 C194.9,55 195.6,55 196.2,56.4 L198.3,61.9 C198.9,63.3 198.5,64.1 197,64.8 C190.9,67.3 185.2,68.6 178.4,68.6 z M91.3,263.9 C94.6,264.8 97.6,267.8 97.7,271.8 C97.7,278.1 92.2,282 86.1,282 C82.7,282 79.8,281.4 77.5,280.2 C76.8,279.9 76.5,279.3 76.8,278.4 L77.6,276.1 C77.8,275.4 78.4,275.3 79.1,275.6 C81,276.4 83.3,277.1 85.6,277.1 C89.3,277.1 91.6,274.9 91.6,271.7 C91.6,267.5 87.5,266.3 84.1,266.3 L83.3,266.3 C82.4,266.3 82.2,265.7 82.2,265 L82.2,263 C82.2,262.3 82.4,261.8 83.3,261.8 L84.8,261.8 C88.2,261.8 90.4,260.4 90.4,257.2 C90.4,254.7 88.6,253.2 85.7,253.2 C83.8,253.2 81.8,253.8 79.8,254.8 C79.1,255.2 78.6,255.2 78.3,254.4 L77.4,252.2 C77.2,251.7 77.2,251.2 77.8,250.8 C80.3,249.2 83.2,248.5 86.6,248.5 C91.6,248.5 96.3,251.3 96.3,256.8 C96.3,260.2 94.2,263 91.3,263.9 z M105.8,275.8 C107.5,275.8 109.2,276.9 109.1,279 C109.1,280.9 107.4,282.1 105.8,282.1 C104.2,282.1 102.5,281 102.5,279 C102.5,277 104.1,275.8 105.8,275.8 z M127.8,263.9 C131.1,264.8 134.1,267.8 134.2,271.8 C134.2,278.1 128.7,282 122.6,282 C119.2,282 116.3,281.4 114,280.2 C113.3,279.9 113,279.3 113.3,278.4 L114.1,276.1 C114.3,275.4 114.9,275.3 115.6,275.6 C117.5,276.4 119.8,277.1 122.1,277.1 C125.8,277.1 128.1,274.9 128.1,271.7 C128.1,267.5 124,266.3 120.6,266.3 L119.8,266.3 C118.9,266.3 118.7,265.7 118.7,265 L118.7,263 C118.7,262.3 118.9,261.8 119.8,261.8 L121.3,261.8 C124.7,261.8 126.9,260.4 126.9,257.2 C126.9,254.7 125.1,253.2 122.2,253.2 C120.3,253.2 118.3,253.8 116.3,254.8 C115.6,255.2 115.1,255.2 114.8,254.4 L113.9,252.2 C113.7,251.7 113.7,251.2 114.3,250.8 C116.8,249.2 119.7,248.5 123.1,248.5 C128.1,248.5 132.8,251.3 132.8,256.8 C132.8,260.2 130.7,263 127.8,263.9 z M162.3,268.2 L170.1,280.2 C170.6,281 170.4,281.5 169.7,281.5 L165.4,281.5 C164.5,281.5 164,281.2 163.5,280.5 L157.5,270.7 L157,271.2 L157,280.4 C157,281.3 156.6,281.6 155.8,281.6 L152.5,281.6 C151.7,281.6 151.3,281.2 151.3,280.4 L151.3,249.9 C151.3,249.1 151.5,248.7 152.2,248.6 L156,248.1 C156.5,248 156.9,248.2 156.9,248.9 L156.9,267.9 L157,267.9 L163.1,259.5 C163.5,258.9 163.8,258.8 164.4,258.8 L168.5,258.8 C169.2,258.8 169.4,259.3 169,259.8 L162.3,268.2 z M213.1,249.1 C214,249.1 214.3,249.5 214,250.3 L205.3,280 C205.1,281 204.7,281.3 203.7,281.3 L200.8,281.3 C199.9,281.3 199.4,281 199.2,280.1 L193.1,258.7 L193,258.7 L186.9,280 C186.6,281.1 186.2,281.4 185.2,281.4 L182.5,281.4 C181.5,281.4 181.1,281.1 180.8,280 L171.9,250.4 C171.6,249.4 171.9,249 172.9,249 L177.2,249 C178.2,249 178.6,249.4 178.8,250.2 L184.5,271.8 L184.5,271.8 L190.4,250.1 C190.6,249.3 191,249.1 191.8,249.1 L194.8,249.1 C195.7,249.1 196,249.4 196.2,250.1 L202.1,271.9 L202.2,271.9 L207.9,250.2 C208.2,249.3 208.5,249.1 209.4,249.1 L213.1,249.1 z M171.6,162.4 C171.6,162.5 171.6,162.7 171.4,162.8 C171.4,162.9 171.4,162.9 171.4,163 C171.4,163.2 171.3,163.5 171.3,163.7 C171.3,163.9 171.2,164.1 171.2,164.3 C171.1,164.5 171.1,164.7 171,164.9 C171,165.1 170.9,165.3 170.8,165.5 C170.7,165.6 170.7,165.6 170.7,165.7 L143.3,220.6 C142.1,222.9 139.9,224.2 137.5,224.2 C136.5,224.2 135.5,224 134.6,223.5 C131.4,222 130.1,218.1 131.7,214.9 L154.5,169.3 L121,169.3 C121,169.3 121,169.3 121,169.3 C121,169.3 120.9,169.3 120.9,169.3 C120.4,169.3 120,169.3 119.6,169.2 C119.4,169.2 119.3,169.1 119.2,169.1 C118.8,169 118.5,168.8 118.2,168.7 C118.1,168.6 118.1,168.6 118,168.6 C117.9,168.5 117.8,168.5 117.7,168.4 C117.5,168.3 117.3,168.1 117.1,168 C116.9,167.9 116.8,167.7 116.6,167.6 C116.5,167.5 116.3,167.4 116.2,167.2 C116.1,167 115.9,166.9 115.8,166.7 C115.7,166.5 115.6,166.4 115.5,166.2 C115.4,166.1 115.3,165.9 115.2,165.7 C115.1,165.5 115,165.3 114.9,165.1 C114.8,164.9 114.8,164.7 114.7,164.5 C114.7,164.3 114.6,164.1 114.6,163.9 C114.5,163.7 114.5,163.4 114.5,163.2 C114.5,163.1 114.5,162.9 114.5,162.8 C114.5,162.7 114.5,162.7 114.5,162.6 C114.5,162.4 114.6,162.1 114.6,161.9 C114.6,161.7 114.7,161.5 114.7,161.3 C114.8,161.1 114.8,160.9 114.9,160.7 C115,160.4 115.1,160.2 115.2,160 C115.3,159.9 115.3,159.9 115.3,159.8 L142.7,104.9 C144.2,101.7 148.1,100.4 151.3,102 C154.5,103.5 155.8,107.4 154.2,110.6 L131.4,156.2 L164.9,156.2 C165,156.2 165,156.2 165.1,156.2 C165.3,156.2 165.6,156.3 165.8,156.3 C166,156.3 166.2,156.4 166.4,156.4 C166.6,156.5 166.8,156.5 167,156.6 C167.3,156.7 167.5,156.8 167.7,156.9 C167.8,157 167.8,157 167.9,157 C168,157.1 168.1,157.1 168.2,157.2 C168.4,157.3 168.6,157.5 168.8,157.6 C169,157.7 169.1,157.9 169.3,158 C169.5,158.1 169.7,158.2 169.8,158.4 C169.9,158.6 170.1,158.7 170.2,158.9 C170.4,159.1 170.5,159.2 170.6,159.4 C170.7,159.5 170.8,159.7 170.9,159.9 C171,160.1 171.1,160.3 171.2,160.5 C171.3,160.7 171.3,160.9 171.4,161.1 C171.4,161.3 171.5,161.5 171.5,161.7 C171.6,161.9 171.6,162.2 171.6,162.4 z" fill="#000000"/>
  </g>
</svg>
