<?xml version="1.0" encoding="UTF-8"?>
<!DOCTYPE svg PUBLIC "-//W3C//DTD SVG 1.1//EN" "http://www.w3.org/Graphics/SVG/1.1/DTD/svg11.dtd">
<svg version="1.1" xmlns="http://www.w3.org/2000/svg" xmlns:xlink="http://www.w3.org/1999/xlink" x="0" y="0" width="283.5" height="283.5" viewBox="0, 0, 283.5, 283.5">
  <g id="Background">
    <rect x="0" y="0" width="283.5" height="283.5" fill="#FFFFFF"/>
  </g>
  <g id="Layer_1">
    <path d="M101.6,249.4 C102.6,249.4 103,249.8 103,250.7 L103,253.1 C103,254 102.7,254.4 101.7,254.4 L90.9,254.4 L90.9,261.2 L91.7,261.2 C98.5,261.2 104.4,264.2 104.5,271.7 C104.5,278.6 99.1,282.5 92.2,282.5 C89.1,282.5 86.1,281.7 83.5,280.3 C82.8,279.9 82.6,279.4 82.9,278.6 L84,276.1 C84.3,275.4 84.9,275.3 85.6,275.7 C87.9,276.9 90.2,277.4 92.5,277.4 C95.8,277.4 98.4,275.4 98.4,271.9 C98.4,270 97.7,268.5 96.6,267.5 C95.1,266.2 93,265.7 90.4,265.7 L86.5,265.7 C85.3,265.7 84.9,265.1 84.9,263.9 L84.9,251 C84.9,249.8 85.4,249.4 86.4,249.4 L101.6,249.4 z M119.6,254 C123.3,254 124.8,258.4 124.8,265.5 C124.8,272.4 123.5,277.1 119.5,277.1 C115.5,277.1 114.2,272.5 114.2,265.5 C114.2,258.7 115.7,254 119.6,254 z M119.6,248.7 C111.4,248.7 107.9,256.8 107.9,265.7 C107.9,274.6 111.1,282.3 119.5,282.3 C127.9,282.3 131.1,274.3 131.1,265.4 C131.1,256.7 128,248.7 119.6,248.7 z M152.051,248.384 L151.7,248.4 L147.9,248.9 C147.2,249 147,249.4 147,250.2 L147,280.7 C147,281.5 147.4,281.9 148.2,281.9 L151.5,281.9 C152.3,281.9 152.7,281.6 152.7,280.7 L152.7,271.5 L153.2,271 L159.2,280.8 C159.7,281.5 160.2,281.8 161.1,281.8 L165.4,281.8 C166.1,281.8 166.3,281.3 165.8,280.5 L158,268.5 L164.7,260.1 C165.1,259.6 164.9,259.1 164.2,259.1 L160.1,259.1 C159.5,259.1 159.2,259.2 158.8,259.8 L152.7,268.2 L152.6,268.2 L152.6,249.2 C152.497,248.564 152.644,248.857 152.051,248.384 z M172.8,249.3 L168.5,249.3 C167.5,249.3 167.2,249.7 167.5,250.7 L176.4,280.3 C176.7,281.4 177.1,281.7 178.1,281.7 L180.8,281.7 C181.8,281.7 182.2,281.4 182.5,280.3 L188.6,259 L188.7,259 L194.8,280.4 C195,281.3 195.5,281.6 196.4,281.6 L199.3,281.6 C200.3,281.6 200.7,281.3 200.9,280.3 L209.6,250.6 C209.9,249.7 209.6,249.4 208.7,249.4 L205,249.4 C204.1,249.4 203.8,249.6 203.5,250.5 L197.8,272.2 L197.7,272.2 L191.8,250.4 C191.6,249.7 191.3,249.4 190.4,249.4 L187.4,249.4 C186.6,249.4 186.2,249.6 186,250.4 L180.1,272.1 L174.4,250.5 C174.2,249.7 173.8,249.3 172.8,249.3 z M132.868,101.871 C130.503,102.665 129.207,103 128,105.4 L100.6,160.3 C100.6,160.4 100.6,160.4 100.5,160.5 C100.4,160.7 100.3,160.9 100.2,161.2 C100.1,161.4 100.1,161.6 100,161.8 L99.9,162.4 C99.9,162.6 99.8,162.9 99.8,163.1 L99.8,163.7 C99.8,163.9 99.8,164.2 99.9,164.4 L100,165 C100.1,165.2 100.1,165.4 100.2,165.6 L100.5,166.2 C100.6,166.4 100.7,166.6 100.8,166.7 C100.9,166.9 101,167 101.2,167.2 L101.6,167.7 C101.7,167.9 101.9,168 102,168.1 C102.2,168.2 102.3,168.4 102.5,168.5 L103.4,169.1 C103.5,169.1 103.5,169.1 103.6,169.2 C103.9,169.3 104.2,169.5 104.6,169.6 C104.7,169.6 104.8,169.7 105,169.7 C105.3,169.5 105.7,169.5 106.1,169.5 L139.7,169.5 L117,215.1 C115.4,218.3 116.7,222.2 119.9,223.8 C120.8,224.3 121.8,224.5 122.8,224.5 C125.2,224.5 127.4,223.2 128.6,220.9 L156,166 C156,165.9 156.1,165.8 156.1,165.8 C156.2,165.7 156.2,165.5 156.3,165.3 C156.4,165 156.5,164.8 156.5,164.5 C156.5,164.4 156.5,164.3 156.6,164.1 C156.7,163.8 156.7,163.5 156.7,163.2 L156.7,162.9 C156.7,162.6 156.7,162.3 156.6,162 L156.3,160.8 L156.1,160.4 C156,160.2 155.9,159.9 155.7,159.7 C155.6,159.6 155.5,159.5 155.4,159.3 C155.2,159.1 155.1,158.9 154.9,158.7 L154.6,158.4 C154.4,158.2 154.2,158.1 154,157.9 L153.5,157.6 C153.4,157.5 153.3,157.4 153.1,157.4 C153,157.4 153,157.4 152.9,157.3 C152.7,157.2 152.5,157.1 152.3,157.1 C152.1,157 151.9,157 151.7,156.9 L151.1,156.8 C150.9,156.8 150.6,156.7 150.4,156.7 L116.7,156.7 L139.5,111.1 C141.1,107.9 139.8,104 136.6,102.5 C134.591,101.737 135.81,102.062 132.868,101.871 z M164.968,95.771 C162.603,96.565 161.307,96.9 160.1,99.3 L139.5,140.5 C139.5,140.6 139.5,140.6 139.4,140.7 C139.3,140.9 139.2,141.1 139.2,141.3 C139.1,141.5 139.1,141.7 139,141.9 L138.9,142.5 C138.9,142.7 138.8,143 138.8,143.2 L138.8,143.8 C138.8,144 138.8,144.3 138.9,144.5 L139,145.1 C139.1,145.3 139.1,145.5 139.2,145.7 L139.5,146.3 C139.6,146.5 139.7,146.7 139.8,146.8 C139.9,147 140,147.1 140.2,147.3 L140.6,147.8 C140.7,148 140.9,148.1 141,148.2 C141.2,148.3 141.3,148.5 141.5,148.6 L142.4,149.2 C142.5,149.2 142.5,149.2 142.6,149.3 C142.9,149.4 143.2,149.6 143.6,149.7 C143.7,149.7 143.8,149.8 144,149.8 C144.4,149.9 144.8,149.9 145.3,149.9 L167.9,149.9 L152,181.8 C150.4,185 151.7,188.9 154.9,190.4 C155.8,190.9 156.8,191.1 157.8,191.1 C160.2,191.1 162.4,189.8 163.6,187.5 L184.2,146.3 C184.2,146.2 184.2,146.2 184.3,146.1 L184.7,144.9 C184.7,144.7 184.8,144.5 184.8,144.4 C184.8,144.2 184.9,143.9 184.9,143.7 L184.9,143.5 C184.8,143.1 184.7,143 184.7,142.8 C184.7,142.6 184.7,142.3 184.6,142.1 L184.5,141.5 C184.5,141.3 184.4,141.1 184.3,141 C184.2,140.8 184.1,140.6 184,140.3 C183.9,140.1 183.8,140 183.8,139.8 C183.7,139.6 183.5,139.4 183.4,139.2 L183.1,138.8 C182.9,138.6 182.7,138.4 182.5,138.3 L182.2,138 C182,137.8 181.7,137.7 181.4,137.5 L181.2,137.4 C181.2,137.4 181.1,137.4 181.1,137.4 L180.2,137.1 C180.1,137.1 180,137 179.8,137 C179.5,136.9 179.3,136.9 179,136.9 L155.7,136.9 L171.6,105 C173.2,101.8 171.9,97.9 168.7,96.4 C166.691,95.637 167.91,95.962 164.968,95.771 z M178.8,1.9 C160,1.9 148.5,16.6 148.5,35.8 C148.5,54.9 158.1,68.8 177.9,68.8 C184.7,68.8 190.4,67.5 196.5,65 C198,64.3 198.4,63.5 197.8,62.1 L195.7,56.6 C195.1,55.2 194.4,55.2 193.2,55.8 C188.8,57.8 184.2,58.8 179.7,58.8 C168.2,58.8 161.4,49.6 161.4,35.2 C161.4,23.9 166.5,11.9 179.5,11.9 C184.2,11.9 188.4,12.8 193.1,15.3 C194.3,16 195.1,15.6 195.4,14.5 L197.6,8.6 C198.2,7 197.9,6.5 196.4,5.8 C191.1,3.2 185.3,1.9 178.8,1.9 z M105.3,13.1 C111.3,13.1 116.3,14.1 120.1,16.9 C124.9,20.5 127.4,26.9 127.4,35.4 C127.4,43.2 125.2,48.8 121.5,52.5 C117.6,56.4 112.1,57.5 105.7,57.5 L98.5,57.5 L98.5,13.1 L105.3,13.1 z M102.6,2.9 L89.2,2.9 C86.9,2.9 86.3,3.7 86.3,5.7 L86.3,65.1 C86.3,67.3 87.1,67.7 89,67.7 L106.9,67.7 C116.2,67.7 124.3,65.5 130.1,60.7 C136.5,55.3 140.3,46.8 140.3,35.6 C140.3,21.7 135.3,12.6 126.9,7.7 C120.7,4.1 113.4,2.9 102.6,2.9 z" fill="#000000"/>
  </g>
</svg>
