<?xml version="1.0" encoding="UTF-8"?>
<!DOCTYPE svg PUBLIC "-//W3C//DTD SVG 1.1//EN" "http://www.w3.org/Graphics/SVG/1.1/DTD/svg11.dtd">
<svg version="1.1" xmlns="http://www.w3.org/2000/svg" xmlns:xlink="http://www.w3.org/1999/xlink" x="0" y="0" width="283.5" height="283.5" viewBox="0, 0, 283.5, 283.5">
  <g id="Background">
    <rect x="0" y="0" width="283.5" height="283.5" fill="#FFFFFF"/>
  </g>
  <g id="Layer_1">
    <path d="M39.3,1.5 L39.8,1.6 L144.4,24 L249,1.6 C249.2,1.5 249.3,1.5 249.5,1.5 L251.3,1.5 C251.5,1.6 251.7,1.6 251.8,1.6 L252.4,1.8 C252.6,1.8 252.7,1.9 252.8,1.9 L253.1,2 L253.7,2.3 C253.9,2.4 254,2.4 254.1,2.5 C254.1,2.5 254.2,2.6 254.3,2.6 L254.6,2.8 C254.6,2.9 254.7,2.9 254.8,3 C254.9,3 255,3.1 255.1,3.3 C255.2,3.3 255.3,3.4 255.4,3.5 L256.1,4.2 C256.1,4.3 256.2,4.4 256.3,4.5 C256.3,4.5 256.4,4.6 256.4,4.7 L256.8,5.3 C256.8,5.4 256.9,5.5 256.9,5.6 L257.1,6 C257.2,6.1 257.2,6.1 257.2,6.2 L257.3,6.8 C257.3,6.8 257.3,6.9 257.3,6.9 C257.4,7.1 257.4,7.2 257.4,7.4 L257.4,7.9 C257.4,8 257.4,8.2 257.1,8.4 L257.1,184.4 C257.1,247.4 150.6,280.6 146.1,282 C145.5,282.2 144.8,282.3 144.1,282.3 C143.4,282.3 142.8,282.2 142.1,282 C137.6,280.6 31.1,247.4 31.1,184.4 L31.1,7.6 C31.1,7.4 31.2,7.3 31.2,7.1 L31.2,7 C31.3,6.8 31.3,6.6 31.4,6.4 C31.5,6.3 31.5,6.3 31.5,6.2 C31.6,6 31.6,5.8 31.7,5.7 L31.8,5.4 L32.6,4.2 C32.7,4.2 32.7,4.1 32.8,4 C32.8,4 32.9,3.9 33,3.8 C33,3.8 33.1,3.7 33.2,3.6 L33.3,3.5 C33.6,3.2 33.467,3.333 33.7,3.1 C33.8,3.1 33.8,3 33.9,3 C34.1,2.9 34.2,2.8 34.3,2.7 L34.5,2.6 C34.6,2.6 34.8,2.5 34.9,2.4 C35,2.3 35,2.3 35.1,2.3 C35.3,2.2 35.4,2.2 35.6,2.1 C35.7,2 35.7,2 35.8,2 C35.9,1.9 36,1.8 36.2,1.8 C36.3,1.7 36.4,1.7 36.5,1.7 L36.9,1.6 C37,1.5 37.2,1.5 37.3,1.5 L39.3,1.5 z M243.5,17 L145.9,37.9 L145.4,37.9 C145.1,38 144.7,38 144.4,38 C144.1,38 143.7,38 143.4,37.9 L142.9,37.9 L45.2,17 L45.2,184.2 C45.2,211.1 72.2,232.5 94.8,245.6 C116.2,258 137.8,265.6 144.4,267.8 C158.7,263 243.5,232.7 243.5,184.2 L243.5,17 z M70.8,41.2 L71.3,41.3 L145.9,57.3 C149.6,58.1 152,61.7 151.2,65.5 C150.5,68.8 147.6,71 144.4,71 C143.9,71 143.4,70.9 142.9,70.8 L76.9,56.6 L76.9,174 C76.9,203.5 127.1,225.4 146.5,231.3 C150.2,232.5 152.2,236.3 151.1,240 C150.2,243 147.5,244.9 144.5,244.9 C143.9,244.9 143.2,244.8 142.5,244.6 C139.2,243.7 63,219.9 63,174.1 L63,46.9 C63,46.7 63.1,46.6 63.1,46.4 L63.1,46.3 C63.1,46.2 63.1,46 63.2,45.8 L63.5,45.2 C63.5,45.1 63.6,45 63.6,44.9 L64.2,44 C64.2,43.9 64.3,43.8 64.4,43.7 C64.5,43.7 64.5,43.6 64.6,43.5 C64.6,43.4 64.7,43.3 64.8,43.2 C64.9,43.2 64.9,43.1 65,43 C65,43 65.1,42.9 65.5,42.9 C65.6,42.9 65.7,42.8 65.8,42.7 L66,42.5 C66.1,42.5 66.2,42.4 66.3,42.3 L67.7,41.6 C67.8,41.6 68,41.5 68.1,41.5 C68.2,41.4 68.3,41.4 68.4,41.4 L68.7,41.3 C68.8,41.2 69,41.2 69.1,41.2 L70.8,41.2 z" fill="#010202"/>
  </g>
</svg>
