<?xml version="1.0" encoding="UTF-8"?>
<!DOCTYPE svg PUBLIC "-//W3C//DTD SVG 1.1//EN" "http://www.w3.org/Graphics/SVG/1.1/DTD/svg11.dtd">
<svg version="1.1" xmlns="http://www.w3.org/2000/svg" xmlns:xlink="http://www.w3.org/1999/xlink" x="0" y="0" width="283.5" height="283.5" viewBox="0, 0, 283.5, 283.5">
  <g id="Background">
    <rect x="0" y="0" width="283.5" height="283.5" fill="#FFFFFF"/>
  </g>
  <g id="Layer_1">
    <path d="M142.7,0.4 L143.1,0.5 C143.2,0.5 143.2,0.5 143.3,0.5 L143.8,0.6 C143.8,0.6 143.9,0.6 143.9,0.6 L144.3,0.8 C144.3,0.9 144.4,0.9 144.4,0.9 L144.6,1 L247.4,52.6 C247.5,52.6 247.7,52.7 247.8,52.8 C247.8,52.9 247.9,52.9 247.9,52.9 C248.1,53 248.3,53.1 248.5,53.3 L248.6,53.4 C248.8,53.5 249,53.6 249.1,53.8 L249.2,53.9 C249.3,54.1 249.5,54.2 249.6,54.4 L249.7,54.5 C249.8,54.7 250,54.9 250.1,55.1 L250.5,55.9 C250.6,56.1 250.7,56.2 250.7,56.4 C250.8,56.5 250.8,56.5 250.8,56.6 C250.9,57.1 251,57.6 251,58.1 L251,225.2 C251,227.7 249.6,229.9 247.4,231 L144.5,282.4 C144.5,282.4 144.4,282.5 144.3,282.5 C144.2,282.6 144.2,282.6 144.1,282.6 L143.5,282.8 C143.4,282.9 143.4,282.9 143.3,282.9 L142.7,283 C142.6,283 142.6,283 142.5,283 C142.2,283.1 142,283.1 141.7,283.1 L140.9,283 C140.8,283 140.8,283 140.7,283 C140.5,283 140.3,283 140.1,282.9 C140,282.8 140,282.8 139.9,282.8 C139.7,282.8 139.5,282.7 139.3,282.6 C139.2,282.5 139.2,282.5 139.1,282.5 C139.1,282.5 139,282.4 138.9,282.4 L36,231 C33.8,229.9 32.4,227.6 32.4,225.2 L32.4,57.9 C32.4,57.4 32.5,56.9 32.6,56.4 C32.7,56.3 32.7,56.3 32.7,56.2 L32.9,55.7 L33.3,54.9 L33.7,54.3 C33.7,54.3 33.8,54.2 33.8,54.2 C33.9,54 34.1,53.8 34.2,53.7 L34.3,53.6 C34.5,53.5 34.6,53.3 34.8,53.2 L34.9,53.1 C35.1,53 35.3,52.8 35.5,52.7 C35.5,52.6 35.6,52.6 35.6,52.6 L36,52.4 L139,1 C139.1,1 139.1,0.9 139.2,0.9 C139.2,0.8 139.3,0.8 139.3,0.8 C139.4,0.7 139.5,0.7 139.7,0.6 L139.8,0.6 C140,0.6 140.1,0.5 140.3,0.5 L140.5,0.5 C140.6,0.4 140.8,0.4 140.9,0.4 L142.7,0.4 z M45.3,68.6 L45.3,221.4 L83.9,240.7 L83.9,225.4 C83.9,221.9 86.8,219 90.3,219 C93.8,219 96.7,221.8 96.7,225.4 L96.7,247.1 L135.3,266.4 L135.3,113.6 L45.3,68.6 z M63.695,180.371 C66.613,180.562 65.402,180.238 67.4,181 L118.9,206.7 C122.1,208.3 123.4,212.1 121.8,215.3 C120.6,217.6 118.4,218.9 116,218.9 C115,218.9 114,218.7 113.1,218.2 L61.7,192.5 C58.5,190.9 57.2,187 58.8,183.9 C60.041,181.534 61.335,181.17 63.695,180.371 z M63.795,141.771 C66.713,141.963 65.502,141.639 67.5,142.4 L118.9,168.1 C122.1,169.7 123.4,173.5 121.8,176.7 C120.6,179 118.4,180.3 116,180.3 C115,180.3 114,180.1 113.1,179.6 L61.7,153.9 C58.5,152.3 57.2,148.5 58.9,145.3 C60.141,142.934 61.435,142.569 63.795,141.771 z M63.795,103.171 C66.713,103.363 65.502,103.038 67.5,103.8 L118.9,129.5 C122.1,131.1 123.4,134.9 121.8,138.1 C120.6,140.4 118.4,141.7 116,141.7 C115,141.7 114,141.5 113.1,141 L61.7,115.3 C58.5,113.7 57.2,109.9 58.9,106.7 C60.141,104.334 61.435,103.969 63.795,103.171 z M238.2,68.6 L148.2,113.6 L148.2,266.3 L238.2,221.3 L238.2,68.6 z M219.805,180.371 C222.095,180.769 223.511,182.011 224.7,183.9 C226.3,187 225,190.9 221.8,192.5 L170.4,218.2 C169.4,218.7 168.5,218.9 167.5,218.9 C165.1,218.9 162.8,217.6 161.8,215.3 C160.2,212.2 161.5,208.3 164.7,206.7 L216.1,181 C218.098,180.238 216.887,180.562 219.805,180.371 z M219.805,141.771 C222.096,142.169 223.511,143.411 224.7,145.3 C226.3,148.5 225,152.3 221.8,153.9 L170.4,179.6 C169.4,180.1 168.5,180.3 167.5,180.3 C165.1,180.3 162.8,179 161.8,176.7 C160.2,173.6 161.5,169.7 164.7,168.1 L216.1,142.4 C218.098,141.639 216.887,141.963 219.805,141.771 z M219.805,103.171 C222.096,103.569 223.511,104.811 224.7,106.7 C226.3,109.8 225,113.7 221.8,115.3 L170.4,141 C169.4,141.5 168.5,141.7 167.5,141.7 C165.1,141.7 162.8,140.4 161.8,138.1 C160.2,135 161.5,131.1 164.7,129.5 L216.1,103.8 C218.098,103.038 216.887,103.363 219.805,103.171 z M141.7,13.8 L53.2,58.1 L141.7,102.4 L230.2,58.1 L141.7,13.8 z" fill="#010202"/>
  </g>
</svg>
