<?xml version="1.0" encoding="UTF-8"?>
<!DOCTYPE svg PUBLIC "-//W3C//DTD SVG 1.1//EN" "http://www.w3.org/Graphics/SVG/1.1/DTD/svg11.dtd">
<svg version="1.1" xmlns="http://www.w3.org/2000/svg" xmlns:xlink="http://www.w3.org/1999/xlink" x="0" y="0" width="283.5" height="283.5" viewBox="0, 0, 283.5, 283.5">
  <g id="Background">
    <rect x="0" y="0" width="283.5" height="283.5" fill="#FFFFFF"/>
  </g>
  <g id="Layer_1">
    <path d="M141.7,0.7 C64,0.7 0.7,64 0.7,141.7 C0.7,219.4 64,282.7 141.7,282.7 C219.5,282.7 282.7,219.4 282.7,141.7 C282.7,64 219.5,0.7 141.7,0.7 z M246.7,214.1 C246.4,213.9 246.1,213.8 245.7,213.7 C238.1,211 229.6,208.7 220.3,206.7 C226.1,189.1 229.5,169.4 230.2,148.5 L269.1,148.5 C267.9,172.7 259.8,195.3 246.7,214.1 z M36.7,214.1 C23.7,195.2 15.6,172.7 14.3,148.4 L53.2,148.4 C53.8,169.3 57.3,189 63.1,206.6 C53.8,208.6 45.3,210.9 37.7,213.6 C37.4,213.8 37,213.9 36.7,214.1 z M36.7,69.3 C37,69.5 37.3,69.6 37.7,69.7 C45.3,72.4 53.8,74.7 63.1,76.7 C57.3,94.3 53.9,114 53.2,134.9 L14.3,134.9 C15.6,110.7 23.7,88.2 36.7,69.3 z M148.4,84.4 C169.2,84.1 189.3,82.3 207.3,79.3 C212.8,95.9 216.2,114.9 216.8,135 L148.4,135 L148.4,84.4 z M148.4,70.9 L148.4,14.7 C170.5,18 189.9,37.7 202.4,66.5 C185.9,69.1 167.5,70.6 148.4,70.9 z M135,14.7 L135,71 C116,70.7 97.6,69.2 81,66.6 C93.5,37.7 112.9,18 135,14.7 z M135,84.4 L135,135 L66.6,135 C67.2,114.8 70.6,95.9 76.1,79.3 C94.2,82.3 114.2,84.1 135,84.4 z M66.6,148.4 L135,148.4 L135,199 C114.2,199.3 94.1,201.1 76.1,204.1 C70.6,187.5 67.2,168.6 66.6,148.4 z M135,212.5 L135,268.8 C112.9,265.5 93.5,245.8 81,217 C97.6,214.3 116,212.8 135,212.5 z M148.4,268.8 L148.4,212.5 C167.4,212.8 185.8,214.3 202.4,216.9 C190,245.8 170.6,265.5 148.4,268.8 z M148.4,199.1 L148.4,148.5 L216.8,148.5 C216.2,168.7 212.8,187.6 207.3,204.2 C189.3,201.2 169.2,199.4 148.4,199.1 z M230.3,135 C229.7,114.1 226.2,94.4 220.4,76.8 C229.7,74.8 238.2,72.5 245.7,69.8 C246,69.7 246.4,69.5 246.7,69.3 C259.7,88.2 267.8,110.7 269.1,135 L230.3,135 z M238.1,58.2 C231.3,60.4 223.8,62.4 215.7,64.1 C209,48 200.3,34.3 190.2,23.7 C208.8,31.4 225.1,43.3 238.1,58.2 z M93.3,23.7 C83.1,34.3 74.5,48 67.8,64.1 C59.7,62.4 52.1,60.5 45.4,58.2 C58.3,43.3 74.7,31.4 93.3,23.7 z M45.3,225.2 C52.1,223 59.6,221 67.7,219.3 C74.4,235.4 83.1,249.1 93.2,259.7 C74.7,252.1 58.3,240.2 45.3,225.2 z M190.2,259.8 C200.3,249.2 209,235.5 215.7,219.4 C223.8,221.1 231.3,223 238.1,225.3 C225.1,240.2 208.8,252.1 190.2,259.8 z" fill="#010202"/>
  </g>
</svg>
