<?xml version="1.0" encoding="UTF-8"?>
<!DOCTYPE svg PUBLIC "-//W3C//DTD SVG 1.1//EN" "http://www.w3.org/Graphics/SVG/1.1/DTD/svg11.dtd">
<svg version="1.1" xmlns="http://www.w3.org/2000/svg" xmlns:xlink="http://www.w3.org/1999/xlink" x="0" y="0" width="283.5" height="283.5" viewBox="0, 0, 283.5, 283.5">
  <g id="Background">
    <rect x="0" y="0" width="283.5" height="283.5" fill="#FFFFFF"/>
  </g>
  <g id="Layer_1">
    <path d="M172,60.1 C184.1,60.1 193.9,69.9 193.9,82 L193.9,166 C193.9,177.6 184.8,187.1 173.4,187.8 L192.8,214.4 C194.7,217 194.2,220.5 191.6,222.4 C190.5,223.1 189.4,223.5 188.2,223.5 C186.5,223.5 184.7,222.7 183.6,221.2 L159.3,187.9 L125.3,187.9 L101,221.2 C99.9,222.7 98.2,223.5 96.4,223.5 C95.2,223.5 94,223.1 93,222.4 C90.5,220.5 89.9,216.9 91.8,214.4 L111.2,187.8 C99.8,187.1 90.7,177.6 90.7,166 L90.7,82 C90.7,69.9 100.5,60.1 112.6,60.1 L172,60.1 z M182.6,133.5 L102.3,133.5 L102.3,165.9 C102.3,171.6 106.9,176.3 112.7,176.3 L172.1,176.3 C177.8,176.3 182.5,171.7 182.5,165.9 L182.6,165.9 L182.6,133.5 z M122,146.5 C126.4,146.5 130,150.1 130,154.5 C130,158.9 126.4,162.5 122,162.5 C117.6,162.5 114,158.9 114,154.5 C114,150.1 117.6,146.5 122,146.5 z M162.6,146.5 C167,146.5 170.6,150.1 170.6,154.5 C170.6,158.9 167,162.5 162.6,162.5 C158.2,162.5 154.6,158.9 154.6,154.5 C154.6,150.1 158.2,146.5 162.6,146.5 z M172,71.5 L112.6,71.5 C106.9,71.5 102.2,76.1 102.2,81.9 L102.2,122.1 L182.4,122.1 L182.4,81.9 C182.4,76.2 177.8,71.5 172,71.5 z M260.4,156 C267,156.9 272.1,162.6 272.1,169.5 C272,176.9 265.9,183 258.4,183 C250.9,183 244.8,176.9 244.8,169.4 C244.8,165.3 246.6,161.7 249.4,159.2 L253,171 C253.7,173.5 256,175.1 258.5,175.1 C259,175.1 259.6,175 260.2,174.9 C263.2,174 264.9,170.8 264,167.8 L260.4,156 z M237.404,92.875 L236.4,92.9 L221.4,92.9 C218.2,92.9 215.7,95.5 215.7,98.6 C215.7,101.8 218.3,104.3 221.4,104.3 L232.8,104.3 L238.2,122.1 L209.8,122.1 C206.6,122.1 204.1,124.7 204.1,127.8 C204.1,131 206.7,133.5 209.8,133.5 L239.2,133.5 L206.8,152.9 C204.1,154.5 203.2,158 204.8,160.7 C205.9,162.5 207.8,163.5 209.7,163.5 C210.7,163.5 211.7,163.2 212.6,162.7 L244.5,143.6 L245.7,147.7 C238.2,152 233.1,160.1 233.1,169.4 C233.1,183.2 244.3,194.5 258.2,194.5 C272,194.5 283.3,183.3 283.3,169.4 C283.5,155.5 272.2,144.3 258.4,144.3 C257.9,144.3 257.4,144.3 256.8,144.4 L251.6,127 C251.5,126.4 251.3,125.9 251.1,125.3 L242.5,96.9 C241.574,94.568 239.943,93.182 237.404,92.875 z M38.2,158.1 C41.7,158.1 44.6,161 44.6,164.5 C44.6,168 41.7,170.9 38.2,170.9 C34.7,170.9 31.8,168 31.8,164.5 C31.8,161 34.7,158.1 38.2,158.1 z M74.7,92.9 L67.5,92.9 C62.7,92.9 56.9,95.9 53.7,100 C53.5,100.2 53.4,100.4 53.3,100.6 L41,122.1 L22.1,122.1 C13.9,122.1 6.1,128.3 4.3,136.3 L0.4,153.5 C-0.6,157.8 0.3,162 2.9,165.2 C5.4,168.4 9.4,170.2 13.8,170.2 L21.4,170.2 C23.8,177.2 30.4,182.3 38.2,182.3 C46,182.3 52.6,177.2 55,170.2 L74.7,170.2 C77.9,170.2 80.4,167.6 80.4,164.5 C80.4,161.3 77.8,158.8 74.7,158.8 L55,158.8 C52.6,151.8 46,146.7 38.2,146.7 C30.4,146.7 23.8,151.8 21.4,158.8 L13.8,158.8 C12.9,158.8 12.2,158.5 11.8,158.1 C11.4,157.6 11.3,156.9 11.5,156 L15.4,138.8 C16,136 19.2,133.5 22.1,133.5 L74.8,133.5 C78,133.5 80.5,130.9 80.5,127.8 C80.5,124.6 77.9,122.1 74.8,122.1 L54.2,122.1 L63,106.7 C64.2,105.3 66.5,104.3 67.5,104.3 L74.7,104.3 C77.9,104.3 80.4,101.7 80.4,98.6 C80.4,95.4 77.8,92.9 74.7,92.9 z" fill="#010202"/>
  </g>
</svg>
