<?xml version="1.0" encoding="UTF-8"?>
<!DOCTYPE svg PUBLIC "-//W3C//DTD SVG 1.1//EN" "http://www.w3.org/Graphics/SVG/1.1/DTD/svg11.dtd">
<svg version="1.1" xmlns="http://www.w3.org/2000/svg" xmlns:xlink="http://www.w3.org/1999/xlink" x="0" y="0" width="283.5" height="283.5" viewBox="0, 0, 283.5, 283.5">
  <g id="Background">
    <rect x="0" y="0" width="283.5" height="283.5" fill="#FFFFFF"/>
  </g>
  <g id="Layer_1">
    <path d="M141.7,0 C219.9,0 283.5,63.6 283.4,141.8 C283.4,219.9 219.8,283.5 141.7,283.5 C63.6,283.5 0.1,220 0,141.8 L0,141.6 C0.1,63.5 63.6,0 141.7,0 z M148.5,212.8 L148.5,269.4 C170.7,266.1 190.2,246.3 202.8,217.3 C186.1,214.6 167.6,213.1 148.5,212.8 z M135,212.8 C115.8,213.1 97.3,214.7 80.7,217.3 C93.3,246.3 112.8,266 135,269.4 L135,212.8 z M67.4,219.8 C59.3,221.5 51.7,223.5 44.9,225.7 C57.9,240.7 74.4,252.7 93,260.4 C82.9,249.8 74.1,235.9 67.4,219.8 z M216,219.7 C209.3,235.9 200.6,249.7 190.4,260.3 C209.1,252.7 225.6,240.7 238.5,225.6 C231.7,223.4 224.2,221.4 216,219.7 z M52.8,148.5 L13.7,148.5 C15,172.9 23.1,195.6 36.2,214.5 C36.5,214.3 36.8,214.1 37.2,214 C44.8,211.4 53.4,209 62.7,207 C56.9,189.3 53.4,169.5 52.8,148.5 z M269.8,148.6 L230.7,148.6 C230.1,169.6 226.6,189.4 220.8,207.1 C230.1,209.1 238.7,211.4 246.3,214.1 C246.7,214.2 247,214.3 247.3,214.5 C260.4,195.5 268.5,172.9 269.8,148.6 z M207.6,79 C187.6,82.4 165,84.2 141.7,84.2 C118.4,84.2 95.8,82.3 75.8,79 C69.6,97.6 66.1,119 66.1,141.8 C66.1,164.5 69.6,185.9 75.8,204.5 C95.8,201.1 118.4,199.3 141.7,199.3 C165,199.3 187.6,201.1 207.6,204.4 C213.2,187.7 216.6,168.7 217.2,148.4 L197,148.4 C193.3,148.4 190.3,145.4 190.3,141.7 C190.3,138 193.3,135 197,135 L217.2,135 C216.6,114.7 213.2,95.7 207.6,79 z M141.5,98.8 C153,98.8 163.8,103.3 171.9,111.4 C174.5,114 174.5,118.3 171.9,120.9 C169.3,123.5 165,123.5 162.4,120.9 C156.9,115.4 149.5,112.3 141.6,112.3 C133.7,112.3 126.3,115.4 120.7,120.9 C116.8,124.9 114.1,129.7 112.9,135 L143,135 C146.7,135 149.7,138 149.7,141.7 C149.7,145.4 146.7,148.4 143,148.4 L113,148.4 C114.2,153.7 116.9,158.6 120.8,162.5 C126.3,168 133.8,171.1 141.6,171.1 C149.4,171.1 156.8,168.1 162.4,162.5 C165,159.9 169.3,159.9 171.9,162.5 C174.5,165.1 174.5,169.4 171.9,172 C163.7,180.1 153,184.6 141.5,184.6 C130,184.6 119.2,180.1 111.1,172 C104.6,165.5 100.5,157.3 99.1,148.4 L93.3,148.4 C89.6,148.4 86.6,145.4 86.6,141.7 C86.6,138 89.6,135 93.3,135 L99.1,135 C100.5,126.1 104.6,117.9 111.1,111.4 C119.2,103.3 130,98.8 141.5,98.8 z M247.3,69 C247,69.2 246.6,69.4 246.3,69.5 C238.7,72.1 230.1,74.5 220.8,76.5 C226.6,94.2 230.1,114 230.7,135 L269.8,135 C268.5,110.6 260.4,87.9 247.3,69 z M36.2,69 C23.1,87.9 15,110.6 13.7,134.9 L52.8,134.9 C53.4,113.9 56.9,94.1 62.7,76.4 C53.4,74.4 44.8,72.1 37.2,69.4 C36.8,69.3 36.5,69.2 36.2,69 z M135,14 C112.7,17.4 93.2,37.1 80.7,66.1 C97.4,68.8 115.9,70.3 135,70.6 L135,14 z M148.4,14 L148.4,70.6 C167.6,70.3 186.1,68.7 202.7,66.1 C190.2,37.1 170.7,17.4 148.4,14 z M93,23.1 C74.4,30.8 57.9,42.8 44.9,57.8 C51.7,60 59.2,62 67.4,63.7 C74.1,47.6 82.9,33.7 93,23.1 z M190.5,23.1 C200.7,33.7 209.4,47.6 216.1,63.7 C224.2,62 231.8,60 238.6,57.8 C225.6,42.8 209.1,30.8 190.5,23.1 z" fill="#000000"/>
  </g>
</svg>
