<?xml version="1.0" encoding="UTF-8"?>
<!DOCTYPE svg PUBLIC "-//W3C//DTD SVG 1.1//EN" "http://www.w3.org/Graphics/SVG/1.1/DTD/svg11.dtd">
<svg version="1.1" xmlns="http://www.w3.org/2000/svg" xmlns:xlink="http://www.w3.org/1999/xlink" x="0" y="0" width="283.5" height="283.5" viewBox="0, 0, 283.5, 283.5">
  <g id="Background">
    <rect x="0" y="0" width="283.5" height="283.5" fill="#FFFFFF"/>
  </g>
  <g id="Layer_1">
    <path d="M58.7,117.4 C62.5,117.4 65.6,120.5 65.6,124.3 L65.6,152 C65.6,163.5 75,172.8 86.4,172.8 L197,172.8 C208.5,172.8 217.8,163.4 217.8,152 L217.8,124.3 C217.8,120.5 220.9,117.4 224.7,117.4 L252.4,117.4 C256.3,117.4 259.4,120.5 259.3,124.3 C259.3,128.1 256.2,131.2 252.4,131.2 L231.6,131.2 L231.6,152 C231.6,171.1 216.1,186.6 197,186.6 L148.6,186.6 L148.6,242 L197,242 C216.1,242 231.6,257.5 231.6,276.6 C231.6,280.4 228.5,283.5 224.7,283.5 C220.9,283.5 217.8,280.4 217.8,276.6 C217.8,265.1 208.4,255.8 197,255.8 L148.6,255.8 L148.6,276.6 C148.6,280.4 145.5,283.5 141.7,283.5 C137.9,283.5 134.8,280.4 134.8,276.6 L134.8,255.8 L86.4,255.8 C74.9,255.8 65.6,265.2 65.6,276.6 C65.6,280.4 62.5,283.5 58.7,283.5 C54.9,283.5 51.8,280.4 51.8,276.6 C51.8,257.5 67.3,242 86.4,242 L134.8,242 L134.8,186.6 L86.4,186.6 C67.3,186.6 51.8,171.1 51.8,152 L51.8,131.2 L31,131.2 C27.2,131.2 24.1,128.1 24.1,124.3 C24.1,120.5 27.2,117.4 31,117.4 L58.7,117.4 z M167.7,13.9 C172.1,13.9 176.2,14.7 180,16.3 C183.7,17.9 186.9,20.1 189.5,22.9 C192.1,25.6 194,28.8 195.1,32.3 C196.3,35.8 196.7,39.5 196.3,43.3 L187.2,127.4 C186.9,129.8 186.1,132.1 184.7,134.3 C183.3,136.5 181.4,138.5 179,140.2 C176.6,142 173.8,143.4 170.8,144.4 C167.6,145.4 164.3,146 160.9,146 L123.1,146.3 L122.9,146.3 C119.6,146.3 116.3,145.8 113.2,144.9 C110.1,144 107.3,142.6 104.9,140.9 C102.5,139.2 100.6,137.2 99.1,135 C97.7,132.8 96.8,130.5 96.5,128.2 L86.2,44.2 C85.9,40.3 86.2,36.6 87.3,33.1 C88.4,29.6 90.3,26.4 92.8,23.7 C95.4,20.8 98.6,18.6 102.2,17 C106.1,15.3 110.3,14 114.7,13.9 L167.7,13.9 z M167.8,0 L114.7,0 C108.4,0 102.3,1.8 96.7,4.2 C91.3,6.6 86.6,10 82.7,14.3 C78.8,18.5 76,23.4 74.2,28.8 C72.4,34.3 71.9,40 72.6,45.8 L82.9,129.8 C83.5,134.3 85.1,138.6 87.7,142.5 C90.1,146.1 93.2,149.3 97,152 C100.7,154.6 104.8,156.6 109.2,158 C113.6,159.4 118.3,160.1 123,160.1 C123,160.1 123.3,160.1 123.3,160.1 L161.1,159.8 C165.9,159.8 170.7,159 175.2,157.5 C179.6,156.1 183.7,154 187.4,151.4 C191.2,148.7 194.2,145.4 196.6,141.8 C199.2,137.8 200.7,133.5 201.2,129 L210.3,44.9 C210.9,39.1 210.3,33.4 208.5,28 C206.7,22.6 203.8,17.8 199.8,13.6 C195.8,9.4 191.1,6.1 185.6,3.7 C180,1.2 174.1,0 167.8,0 z" fill="#010202"/>
  </g>
</svg>
