<?xml version="1.0" encoding="UTF-8"?>
<!DOCTYPE svg PUBLIC "-//W3C//DTD SVG 1.1//EN" "http://www.w3.org/Graphics/SVG/1.1/DTD/svg11.dtd">
<svg version="1.1" xmlns="http://www.w3.org/2000/svg" xmlns:xlink="http://www.w3.org/1999/xlink" x="0" y="0" width="283.5" height="283.5" viewBox="0, 0, 283.5, 283.5">
  <g id="Background">
    <rect x="0" y="0" width="283.5" height="283.5" fill="#FFFFFF"/>
  </g>
  <g id="Layer_1">
    <path d="M200.4,71.7 C204.1,71.7 207.1,74.7 207.1,78.4 L207.1,164.5 L232.2,208 C233,209.1 233.5,210.5 233.5,212 C233.5,215.7 230.5,218.7 226.8,218.7 L56.7,218.7 C54.3,218.7 52.1,217.4 50.9,215.3 C49.7,213.3 49.7,210.7 50.9,208.6 L76.4,164.5 L76.4,78.4 C76.4,74.7 79.4,71.7 83.1,71.7 L200.4,71.7 z M196.5,173.1 L87,173.1 L68.4,205.3 L215.1,205.3 L196.5,173.1 z M159,187.7 C162.7,187.7 165.8,190.7 165.7,194.4 C165.7,198.1 162.7,201.1 159,201.1 L124.4,201.1 C120.7,201.1 117.7,198.1 117.7,194.4 C117.7,190.7 120.7,187.7 124.4,187.7 L159,187.7 z M193.7,85.1 L89.9,85.1 L89.9,159.5 L193.7,159.5 L193.7,85.1 z M18.219,66.193 C15.714,66.933 14.354,67.236 13,69.7 C4.5,85.3 -0,103 -0,120.9 C-0,138.8 4.5,156.5 12.9,172.1 C14.1,174.4 16.4,175.6 18.8,175.6 C19.9,175.6 21,175.3 22,174.8 C25.3,173 26.5,168.9 24.7,165.7 C17.4,152 13.5,136.5 13.5,120.9 C13.5,105.3 17.4,89.8 24.8,76.1 C26.6,72.8 25.4,68.7 22.1,67 C20.025,66.123 21.288,66.511 18.219,66.193 z M265.311,66.193 C262.289,66.511 263.528,66.12 261.5,67 C258.2,68.8 257,72.9 258.8,76.1 C266.2,89.8 270.1,105.2 270.1,120.9 C270.1,136.6 266.2,152 258.8,165.7 C257,169 258.2,173.1 261.5,174.8 C262.5,175.4 263.6,175.6 264.7,175.6 C267.1,175.6 269.4,174.3 270.6,172.1 C279,156.5 283.5,138.8 283.5,120.9 C283.5,103 279,85.3 270.6,69.7 C269.276,67.761 267.732,66.519 265.311,66.193 z M245.311,83.493 C242.289,83.811 243.528,83.42 241.5,84.3 C238.3,86.1 237,90.2 238.8,93.4 C243.3,101.8 245.7,111.3 245.7,120.9 C245.7,130.5 243.3,140 238.8,148.4 C237,151.7 238.3,155.8 241.5,157.5 C242.5,158 243.6,158.3 244.7,158.3 C247.1,158.3 249.4,157 250.6,154.8 C256.2,144.4 259.1,132.7 259.1,120.9 C259.1,109.1 256.2,97.3 250.6,87 C249.276,85.061 247.732,83.819 245.311,83.493 z M38.119,83.52 C35.645,84.268 34.265,84.582 32.9,87 C27.3,97.4 24.4,109.1 24.4,120.9 C24.4,132.7 27.4,144.5 32.9,154.8 C34.1,157.1 36.4,158.3 38.8,158.3 C39.9,158.3 41,158 42,157.5 C45.3,155.7 46.5,151.6 44.7,148.4 C40.2,140 37.8,130.5 37.8,120.9 C37.8,111.3 40.2,101.8 44.7,93.4 C46.5,90.1 45.2,86 42,84.3 C39.924,83.43 41.188,83.811 38.119,83.519 z M58.819,94.52 C56.345,95.268 54.965,95.582 53.6,98 C49.8,105 47.8,112.9 47.8,120.9 C47.8,128.9 49.8,136.8 53.6,143.8 C54.8,146 57.1,147.3 59.5,147.3 C60.6,147.3 61.7,147 62.7,146.5 C66,144.7 67.2,140.6 65.4,137.4 C62.7,132.4 61.3,126.7 61.3,120.9 C61.3,115.2 62.7,109.5 65.4,104.4 C67.2,101.1 65.9,97 62.7,95.3 C60.624,94.43 61.888,94.811 58.819,94.519 z M224.581,94.493 C221.512,94.811 222.775,94.423 220.7,95.3 C217.4,97.1 216.2,101.2 218,104.4 C220.7,109.4 222.1,115.1 222.1,120.9 C222.1,126.6 220.7,132.3 218,137.4 C216.2,140.7 217.5,144.8 220.7,146.5 C221.7,147 222.8,147.3 223.9,147.3 C226.3,147.3 228.6,146 229.8,143.8 C233.6,136.8 235.6,128.9 235.6,120.9 C235.6,112.9 233.6,105 229.8,98 C228.518,96.039 226.996,94.819 224.581,94.493 z" fill="#000000"/>
  </g>
</svg>
