<?xml version="1.0" encoding="UTF-8"?>
<!DOCTYPE svg PUBLIC "-//W3C//DTD SVG 1.1//EN" "http://www.w3.org/Graphics/SVG/1.1/DTD/svg11.dtd">
<svg version="1.1" xmlns="http://www.w3.org/2000/svg" xmlns:xlink="http://www.w3.org/1999/xlink" x="0" y="0" width="283.5" height="283.5" viewBox="0, 0, 283.5, 283.5">
  <g id="Background">
    <rect x="0" y="0" width="283.5" height="283.5" fill="#FFFFFF"/>
  </g>
  <g id="Layer_1">
    <path d="M258.7,227.8 C272.4,227.8 283.5,238.9 283.4,252.5 C283.4,266.1 272.3,277.2 258.7,277.2 C245.1,277.2 234,266.1 234,252.5 C234,238.9 245.1,227.8 258.7,227.8 z M258.7,240.1 C251.8,240.1 246.3,245.7 246.3,252.5 C246.3,259.4 251.9,264.9 258.7,264.9 C265.6,264.9 271.1,259.4 271.1,252.5 C271.1,245.6 265.5,240.1 258.7,240.1 z M167.6,125.8 C177.1,125.8 186,129.5 192.8,136.2 C199.5,142.9 203.2,151.9 203.2,161.4 C203.2,170.9 199.5,179.8 192.8,186.6 C186.1,193.3 177.1,197 167.6,197 C158.1,197 149.2,193.3 142.4,186.6 C135.7,179.9 132,170.9 132,161.4 C132,151.9 135.7,143 142.4,136.2 C149.1,129.5 158.1,125.8 167.6,125.8 z M167.7,67.15 L166.5,67.3 L166,67.4 C165.8,67.5 165.6,67.5 165.3,67.6 L164.7,67.9 C164.5,68 164.4,68.1 164.2,68.2 L163.3,68.9 C163.3,68.9 163.3,68.9 163.2,68.9 L142.8,89.3 C140.4,91.7 140.4,95.6 142.8,98 C145.2,100.4 149.1,100.4 151.5,98 L161.3,88.2 L161.3,113.8 C150.8,115.1 141.2,119.8 133.6,127.4 C126,135 121.3,144.7 120,155.1 L82,155.1 L91.8,145.3 C94.2,142.9 94.2,139 91.8,136.6 C89.4,134.2 85.5,134.2 83.1,136.6 L62.8,157 L62,157.9 C61.9,158.1 61.8,158.2 61.7,158.4 L61.4,159 C61.3,159.2 61.3,159.4 61.2,159.6 L61,160.1 C60.8,160.9 60.8,161.7 61,162.5 L61.1,163 C61.2,163.2 61.2,163.4 61.3,163.7 C61.4,163.9 61.5,164.1 61.6,164.3 L61.9,164.8 C62.1,165.1 62.3,165.4 62.6,165.7 C62.6,165.7 62.6,165.8 62.7,165.8 L83.1,186.2 C84.3,187.4 85.9,188 87.5,188 C89.1,188 90.7,187.4 91.9,186.2 C94.3,183.8 94.3,179.9 91.9,177.5 L82.1,167.7 L120.1,167.7 C121.4,178.2 126.1,187.8 133.7,195.4 C142.8,204.5 154.8,209.4 167.6,209.4 C178.3,209.4 188.5,205.9 196.8,199.4 L213.8,216.4 L199.9,216.4 C196.5,216.4 193.7,219.2 193.7,222.6 C193.7,226 196.5,228.8 199.9,228.8 L228.7,228.8 C229.1,228.8 229.5,228.8 229.9,228.7 C230.1,228.5 230.3,228.5 230.5,228.4 C230.7,228.3 230.9,228.3 231.1,228.2 L232.1,227.7 C232.8,227.2 233.4,226.7 233.8,226 L234,225.6 C234.1,225.4 234.3,225.2 234.4,224.9 C234.5,224.7 234.5,224.5 234.6,224.4 L234.8,223.8 C234.9,223.5 234.9,223.1 234.9,222.8 L234.9,193.8 C234.9,190.4 232.1,187.6 228.7,187.6 C225.3,187.6 222.5,190.4 222.5,193.8 L222.5,207.7 L205.5,190.7 C211.9,182.4 215.5,172.2 215.5,161.5 C215.5,148.7 210.5,136.7 201.5,127.6 C193.9,120 184.2,115.3 173.8,114 L173.8,88.4 L183.6,98.2 C184.8,99.4 186.4,100 188,100 C189.6,100 191.2,99.4 192.4,98.2 C194.8,95.8 194.8,91.9 192.4,89.5 L172,69 L171.1,68.2 C170.9,68.1 170.7,68 170.6,67.9 C170.4,67.8 170.3,67.7 170.1,67.6 L169.4,67.4 C169.2,67.4 169.1,67.3 168.9,67.3 L167.7,67.15 z M24.8,149.2 C28.1,149.2 31.2,150.5 33.5,152.8 C38.3,157.5 38.3,165.3 33.5,170.2 C31.2,172.5 28.1,173.8 24.8,173.8 C21.5,173.8 18.4,172.5 16.1,170.2 C13.8,167.9 12.5,164.8 12.5,161.5 C12.5,158.2 13.8,155.1 16.1,152.8 C18.4,150.5 21.5,149.2 24.8,149.2 z M24.7,136.7 C18.1,136.7 11.9,139.3 7.2,143.9 C2.6,148.6 0,154.8 0,161.4 C0,168 2.6,174.2 7.2,178.9 C11.9,183.6 18.1,186.1 24.7,186.1 C31.3,186.1 37.5,183.5 42.2,178.9 C51.8,169.3 51.8,153.6 42.2,143.9 C37.5,139.3 31.3,136.7 24.7,136.7 z M167.6,18.6 C170.9,18.6 174,19.9 176.3,22.2 C178.6,24.5 179.9,27.6 179.9,30.9 C179.9,34.2 178.6,37.3 176.3,39.6 C174,41.9 170.9,43.2 167.6,43.2 C164.3,43.2 161.2,41.9 158.9,39.6 C156.6,37.3 155.3,34.2 155.3,30.9 C155.3,27.6 156.5,24.5 158.9,22.2 C161.2,19.9 164.3,18.6 167.6,18.6 z M167.6,6.2 C161,6.2 154.8,8.8 150.1,13.4 C145.4,18.1 142.9,24.3 142.9,30.9 C142.9,37.5 145.5,43.7 150.1,48.4 C154.8,53.1 161,55.6 167.6,55.6 C174.2,55.6 180.4,53 185.1,48.4 C189.8,43.7 192.3,37.5 192.3,30.9 C192.3,24.3 189.7,18.1 185.1,13.4 C180.4,8.7 174.2,6.2 167.6,6.2 z" fill="#010202"/>
  </g>
</svg>
