<?xml version="1.0" encoding="UTF-8"?>
<!DOCTYPE svg PUBLIC "-//W3C//DTD SVG 1.1//EN" "http://www.w3.org/Graphics/SVG/1.1/DTD/svg11.dtd">
<svg version="1.1" xmlns="http://www.w3.org/2000/svg" xmlns:xlink="http://www.w3.org/1999/xlink" x="0" y="0" width="283.5" height="283.5" viewBox="0, 0, 283.5, 283.5">
  <g id="Background">
    <rect x="0" y="0" width="283.5" height="283.5" fill="#FFFFFF"/>
  </g>
  <g id="Layer_1">
    <path d="M64.3,21.5 C67.4,21.5 70.4,22.3 73.1,23.9 L142.5,65 C144.8,54.8 153.8,47.1 164.7,47.1 C177.2,47.1 187.4,57.3 187.4,69.8 L187.4,110 C190.2,108.7 193.4,108 196.7,108 C205.7,108 213.4,113.3 217.1,120.9 C220.5,118.9 224.4,117.7 228.7,117.7 C239.7,117.7 248.9,125.6 251,136 C254,134.5 257.3,133.7 260.8,133.7 C273.3,133.7 283.5,143.8 283.5,156.3 L283.5,255.3 C283.5,259 280.5,262 276.8,262 C273.1,262 270.1,259 270.1,255.3 L270.1,156.3 C270.1,151.2 266,147 260.8,147 C255.7,147 251.5,151.1 251.5,156.3 L251.5,167 C251.5,170.7 248.5,173.7 244.8,173.7 C241.1,173.7 238.1,170.7 238.1,167 L238.1,140.3 C238.1,135.2 234,131 228.8,131 C223.7,131 219.5,135.1 219.5,140.3 L219.5,156.3 C219.5,160 216.5,163 212.8,163 C209.1,163 206.1,160 206.1,156.3 L206.1,130.7 C206.1,125.6 202,121.4 196.8,121.4 C191.7,121.4 187.5,125.5 187.5,130.7 L187.5,149.4 C187.5,153.1 184.5,156.1 180.8,156.1 C177.1,156.1 174.1,153.1 174.1,149.4 L174.1,69.8 C174.1,64.7 170,60.5 164.8,60.5 C159.7,60.5 155.5,64.6 155.5,69.8 L155.5,188.1 C155.5,190.4 154.3,192.6 152.3,193.8 C150.4,195 147.9,195.1 145.8,194 L144,193.1 L93.7,167 C91.3,165.7 88.5,164.9 85.9,165.3 C83.7,165.6 81.6,166.7 80,169.1 C78.5,171.2 78,173.6 78.5,176.1 L78.6,176.6 C79.2,178.9 80.5,180.8 82.4,182.1 L82.8,182.4 L167.7,250.2 C170.5,252.5 171,256.7 168.7,259.6 C167.4,261.2 165.5,262.1 163.5,262.1 C162,262.1 160.5,261.6 159.3,260.6 L74.6,192.9 C66.7,187.4 63.4,177.8 65.6,168.9 L8.7,135.3 C0.4,130.4 -2.4,119.8 2.4,111.5 L49.4,30.1 C52.4,24.8 58.1,21.5 64.3,21.5 z M64.3,34.8 C62.9,34.8 61.6,35.5 60.9,36.7 L13.9,118.1 C12.8,120 13.5,122.6 15.4,123.7 L72.4,157.3 C79.5,150.8 90.1,149.7 99.8,155.1 L141.9,177 L141.9,80.1 L66.3,35.3 C65.7,35 65,34.8 64.3,34.8 z M122.045,91.3 C125.465,91.405 127.664,93.14 128.8,96.3 C131.7,107.4 130,119 124.1,128.9 C118.2,138.8 108.8,145.8 97.7,148.6 C97.2,148.7 96.6,148.8 96.1,148.8 C93.1,148.8 90.4,146.8 89.6,143.8 C88.7,140.2 90.8,136.6 94.4,135.7 C102.1,133.7 108.6,128.9 112.6,122.1 C116.7,115.3 117.8,107.3 115.9,99.6 C115,96 117.1,92.4 120.7,91.5 L122.045,91.3 z M102.245,93.8 C105.665,93.905 107.865,95.64 109,98.8 C112.4,112.4 104.2,126.2 90.7,129.6 C90.2,129.7 89.6,129.8 89.1,129.8 C86.1,129.8 83.4,127.8 82.6,124.8 C81.7,121.2 83.8,117.6 87.4,116.7 C93.8,115.1 97.6,108.6 96.1,102.1 C95.2,98.5 97.3,94.9 100.9,94 L102.245,93.8 z M72.416,61.4 C75.828,61.512 78.056,63.245 79.2,66.4 C80.1,70 78,73.6 74.4,74.5 C58.5,78.6 48.9,94.7 52.9,110.6 C53.8,114.2 51.7,117.8 48.1,118.7 C47.6,118.8 47,118.9 46.5,118.9 C43.5,118.9 40.8,116.9 40,113.9 C34.2,90.9 48.2,67.4 71.1,61.6 L72.416,61.4 z M79.545,80.4 C82.965,80.505 85.164,82.24 86.3,85.4 C87.2,89 85.1,92.6 81.5,93.5 C75.1,95.1 71.2,101.6 72.8,108 C73.7,111.6 71.6,115.2 68,116.1 C67.5,116.2 66.9,116.3 66.4,116.3 C63.4,116.3 60.7,114.3 59.9,111.3 C56.5,97.8 64.7,84 78.2,80.6 L79.545,80.4 z M84.221,99.519 C87.09,99.593 88.917,101.073 89.9,103.7 C90.7,106.7 88.9,109.7 85.9,110.5 C82.9,111.3 79.9,109.5 79.1,106.5 C78.3,103.5 80.1,100.5 83.1,99.7 L84.221,99.519 z" fill="#000000"/>
  </g>
</svg>
