<?xml version="1.0" encoding="UTF-8"?>
<!DOCTYPE svg PUBLIC "-//W3C//DTD SVG 1.1//EN" "http://www.w3.org/Graphics/SVG/1.1/DTD/svg11.dtd">
<svg version="1.1" xmlns="http://www.w3.org/2000/svg" xmlns:xlink="http://www.w3.org/1999/xlink" x="0" y="0" width="283.5" height="283.5" viewBox="0, 0, 283.5, 283.5">
  <g id="Background">
    <rect x="0" y="0" width="283.5" height="283.5" fill="#FFFFFF"/>
  </g>
  <g id="Layer_1">
    <path d="M235.6,29.1 C238.7,29.1 241.2,31.6 241.2,34.7 L241.2,174.1 L282.4,245.4 C283.1,246.3 283.5,247.5 283.5,248.7 C283.5,251.8 281,254.3 277.9,254.3 L5.6,254.3 C3.6,254.3 1.8,253.2 0.8,251.5 C-0.2,249.7 -0.2,247.6 0.8,245.9 L42.2,174 L42.2,34.7 C42.2,31.6 44.7,29.1 47.8,29.1 L235.6,29.1 z M232.4,181.2 L51.1,181.2 L15.2,243.2 L268.2,243.2 L232.4,181.2 z M169.4,215 C172.5,215 175,217.5 175,220.6 C175,223.7 172.5,226.2 169.4,226.2 L114,226.2 C110.9,226.2 108.4,223.7 108.4,220.6 C108.4,217.5 110.9,215 114,215 L169.4,215 z M230,40.3 L53.4,40.3 L53.4,170 L230,170 L230,40.3 z M141.6,63 C144.7,63 147.2,65.5 147.2,68.6 L147.2,133.4 L164.2,133.4 L164.2,96.8 C164.2,93.7 166.7,91.2 169.8,91.2 C172.9,91.2 175.4,93.7 175.4,96.8 L175.4,133.3 L198,133.3 C201.1,133.3 203.6,135.8 203.6,138.9 C203.6,142 201.1,144.5 198,144.5 L85.4,144.5 C82.3,144.5 79.8,142 79.8,138.9 C79.8,135.8 82.3,133.3 85.4,133.3 L107.8,133.3 L107.8,110.8 C107.8,107.7 110.3,105.2 113.4,105.2 C116.5,105.2 119,107.7 119,110.8 L119,133.3 L136,133.3 L136,68.6 C136,65.5 138.5,63 141.6,63 z" fill="#010202"/>
  </g>
</svg>
