<?xml version="1.0" encoding="UTF-8"?>
<!DOCTYPE svg PUBLIC "-//W3C//DTD SVG 1.1//EN" "http://www.w3.org/Graphics/SVG/1.1/DTD/svg11.dtd">
<svg version="1.1" xmlns="http://www.w3.org/2000/svg" xmlns:xlink="http://www.w3.org/1999/xlink" x="0" y="0" width="283.5" height="283.5" viewBox="0, 0, 283.5, 283.5">
  <g id="Background">
    <rect x="0" y="0" width="283.5" height="283.5" fill="#FFFFFF"/>
  </g>
  <g id="Layer_1">
    <path d="M269.7,132.3 L211.7,74.3 C204.2,66.8 190,60.9 179.4,60.9 L23.2,60.9 C10.6,60.9 0.3,71.2 0.3,83.8 L0.3,186.1 C0.3,198.7 10.6,209 23.2,209 L28.4,209 C31.2,216.8 38.6,222.5 47.4,222.5 C56.2,222.5 63.6,216.9 66.4,209 L216.8,209 C219.6,216.8 227,222.5 235.8,222.5 C244.6,222.5 252,216.9 254.8,209 L260,209 C272.6,209 282.9,198.7 282.9,186.1 L282.9,164.6 C283.1,154 277.2,139.8 269.7,132.3 z M202.5,84.1 L260.1,141.7 L211.9,141.7 C206.7,141.7 202.5,137.5 202.5,132.3 L202.5,84.1 z M47.5,209.1 C43.8,209.1 40.8,206.1 40.8,202.4 C40.8,198.7 43.8,195.7 47.5,195.7 C51.2,195.7 54.2,198.7 54.2,202.4 C54.2,206 51.2,209.1 47.5,209.1 z M236,209.1 C232.3,209.1 229.3,206.1 229.3,202.4 C229.3,198.7 232.3,195.7 236,195.7 C239.7,195.7 242.7,198.7 242.7,202.4 C242.7,206 239.7,209.1 236,209.1 z M269.6,186.2 C269.6,191.4 265.4,195.6 260.2,195.6 L255,195.6 C252.2,187.8 244.8,182.1 236,182.1 C227.2,182.1 219.8,187.7 217,195.6 L66.5,195.6 C63.7,187.8 56.3,182.1 47.5,182.1 C38.7,182.1 31.3,187.7 28.5,195.6 L23.3,195.6 C18.1,195.6 13.9,191.4 13.9,186.2 L13.9,83.8 C13.9,78.6 18.1,74.4 23.3,74.4 L179.4,74.4 C182.2,74.4 185.6,75.1 189,76.3 L189,132.3 C189,144.9 199.3,155.2 211.9,155.2 L267.8,155.2 C268.9,158.5 269.6,161.9 269.6,164.7 L269.6,186.2 z" fill="#000000"/>
  </g>
</svg>
