<?xml version="1.0" encoding="UTF-8"?>
<!DOCTYPE svg PUBLIC "-//W3C//DTD SVG 1.1//EN" "http://www.w3.org/Graphics/SVG/1.1/DTD/svg11.dtd">
<svg version="1.1" xmlns="http://www.w3.org/2000/svg" xmlns:xlink="http://www.w3.org/1999/xlink" x="0" y="0" width="283.5" height="283.5" viewBox="0, 0, 283.5, 283.5">
  <g id="Background">
    <rect x="0" y="0" width="283.5" height="283.5" fill="#FFFFFF"/>
  </g>
  <g id="Layer_1">
    <path d="M104,147.7 C104.3,147.7 104.6,147.7 104.9,147.8 C105,147.9 105.2,147.9 105.3,147.9 L105.4,147.9 C143.7,157.2 170.4,191.3 170.5,230.9 C170.5,238.8 169.4,246.7 167.2,254.4 C166.3,257.2 163.7,259.1 160.9,259.1 C160.3,259.1 159.7,259 159.1,258.8 C155.6,257.8 153.6,254.2 154.6,250.7 C156.5,244.2 157.4,237.5 157.4,230.8 C157.4,199.1 137,171.6 107.3,162.1 L92.5,192.4 L111.9,232.1 C112,232.2 112,232.4 112.1,232.5 C112.1,232.7 112.2,233 112.3,233.2 L112.5,234.4 L112.5,235.6 C112.5,235.8 112.4,236 112.4,236.2 L112.2,236.8 C112.2,237 112.1,237.2 112,237.4 L111.7,238 C111.6,238.2 111.5,238.3 111.4,238.5 C111.2,238.7 111.1,238.8 111,239 L110.2,239.8 L89.4,257.4 C88.2,258.4 86.7,258.9 85.2,258.9 C83.7,258.9 82.2,258.4 81,257.4 L60.1,240.1 C60,240 59.9,239.9 59.8,239.8 C59.7,239.6 59.5,239.4 59.3,239.2 L59,238.7 C58.8,238.5 58.7,238.3 58.6,238.1 C58.6,238 58.5,237.8 58.4,237.6 C58.4,237.4 58.3,237.2 58.2,237 L58.1,236.4 C58.1,236.1 58,235.9 58,235.7 L58,234.4 C58,234.2 58.1,234 58.1,233.8 C58.1,233.5 58.1,233.3 58.2,233.1 C58.2,232.9 58.3,232.7 58.4,232.5 C58.5,232.3 58.5,232.1 58.6,232 L77.8,192.3 L63,162 C33.3,171.5 12.9,199 12.9,230.7 C12.9,237.4 13.8,244.1 15.7,250.6 C16.7,254.1 14.7,257.7 11.2,258.7 C10.6,258.9 10,259 9.4,259 C6.5,259 3.9,257.2 3.1,254.3 C0.9,246.7 -0.2,238.8 -0.2,230.8 C-0.2,191.4 26.5,157.3 64.8,148 L65,148 C65.2,147.9 65.3,147.9 65.4,147.9 L66.3,147.8 L67.6,147.8 C67.9,147.9 68.1,147.9 68.4,148 C68.5,148 68.7,148 68.8,148.1 L69.6,148.5 C69.8,148.6 69.9,148.6 70,148.7 C70.3,148.9 70.5,149 70.7,149.2 C70.8,149.2 70.9,149.3 71,149.4 L71.9,150.3 C72.1,150.5 72.2,150.8 72.4,151.1 C72.5,151.2 72.6,151.3 72.6,151.4 L72.6,151.5 L85.3,177.4 L98,151.3 C98.1,151.1 98.2,151 98.3,150.8 C98.4,150.7 98.5,150.5 98.6,150.3 L99.5,149.4 C99.8,149.2 100,149 100.3,148.8 C100.3,148.7 100.4,148.7 100.5,148.6 C100.7,148.4 101,148.3 101.3,148.2 L101.6,148.1 C101.8,148 102.1,148 102.4,147.9 L102.8,147.8 C103,147.7 103.3,147.7 103.6,147.7 L104,147.7 z M85.2,207.1 L72.5,233.1 L85.2,243.8 L97.9,233.1 L85.2,207.1 z M276.9,30 L140.4,30 C136.8,30 133.9,32.9 133.9,36.5 C133.9,40.1 136.8,43 140.4,43 L270.5,43 L270.5,173.3 L177.3,173.3 C173.7,173.3 170.8,176.2 170.8,179.8 C170.8,183.4 173.7,186.3 177.3,186.3 L277,186.3 C280.6,186.3 283.5,183.4 283.5,179.8 L283.5,36.5 C283.5,32.9 280.5,30 276.9,30 z M217.7,89.3 C220.1,89.3 222.2,90.8 223.4,92.1 C224.1,92.8 224.8,93.5 225.5,94.2 L225.5,100.5 C225.5,103.8 228.2,106.5 231.5,106.5 L237.9,106.5 C240.6,109.1 242.8,111.3 243.8,112.3 C245.1,113.6 246.5,116.8 246.7,118.1 L246.7,125.8 L244.2,125.8 C242.1,122.8 238.6,120.8 234.6,120.8 C230.6,120.8 227.1,122.8 225,125.8 L182,125.8 C179.9,122.8 176.4,120.8 172.4,120.8 C168.4,120.8 164.9,122.8 162.8,125.8 L160.2,125.8 L160.2,89.3 L217.7,89.3 z M217.8,76 L159.6,76 C152.6,76 146.9,81.7 146.9,88.7 L146.9,126.6 C146.9,133.6 152.6,139.3 159.6,139.3 L162.9,139.3 C165,142.3 168.5,144.3 172.5,144.3 C176.5,144.3 180,142.3 182.1,139.3 L225.1,139.3 C227.2,142.3 230.7,144.3 234.7,144.3 C238.7,144.3 242.2,142.3 244.3,139.3 L247.6,139.3 C254.6,139.3 260.3,133.6 260.3,126.6 L260.3,117.9 C260.2,113.9 257.4,106.8 253.4,102.8 C252.3,101.7 249.9,99.4 247.1,96.6 C242.6,92.2 237.1,86.7 233,82.7 C228.6,78.3 223.3,76 217.8,76 z M85.2,53.6 C104.2,53.6 119.7,69.1 119.7,88.1 C119.7,107.1 104.2,122.6 85.2,122.6 C66.2,122.6 50.7,107.1 50.7,88.1 C50.7,69.1 66.2,53.6 85.2,53.6 z M85.2,40.5 C58.9,40.5 37.6,61.9 37.6,88.1 C37.6,114.3 59,135.7 85.2,135.7 C111.4,135.7 132.8,114.4 132.8,88.1 C132.8,61.9 111.5,40.5 85.2,40.5 z" fill="#000000"/>
  </g>
</svg>
