<?xml version="1.0" encoding="UTF-8"?>
<!DOCTYPE svg PUBLIC "-//W3C//DTD SVG 1.1//EN" "http://www.w3.org/Graphics/SVG/1.1/DTD/svg11.dtd">
<svg version="1.1" xmlns="http://www.w3.org/2000/svg" xmlns:xlink="http://www.w3.org/1999/xlink" x="0" y="0" width="283.5" height="283.5" viewBox="0, 0, 283.5, 283.5">
  <g id="Background">
    <rect x="0" y="0" width="283.5" height="283.5" fill="#FFFFFF"/>
  </g>
  <g id="Layer_1">
    <path d="M159.5,131.6 C156,128 151.1,126 146.1,126 L21.6,126 C10.8,126 2,134.8 2,145.7 L2,221.9 C2,232.7 10.8,241.5 21.6,241.5 L24.9,241.5 C27.5,248.1 33.9,252.8 41.4,252.8 C48.9,252.8 55.3,248.1 57.9,241.5 L166,241.5 C168.6,248.1 175,252.8 182.5,252.8 C190,252.8 196.4,248.1 199,241.5 L200.1,241.5 C210.9,241.5 219.7,232.7 219.7,221.9 L219.7,200.9 C219.7,195.5 217.6,190.5 213.8,186.6 L159.5,131.6 z M157.2,147.9 L196.5,187.6 L165.4,187.6 C160.9,187.6 157.2,183.9 157.2,179.4 L157.2,147.9 z M41.4,239.8 C38.8,239.8 36.6,237.7 36.6,235 C36.6,232.3 38.7,230.2 41.4,230.2 C44.1,230.2 46.2,232.3 46.2,235 C46.2,237.7 44.1,239.8 41.4,239.8 z M182.5,239.8 C179.9,239.8 177.7,237.7 177.7,235 C177.7,232.3 179.8,230.2 182.5,230.2 C185.1,230.2 187.3,232.3 187.3,235 C187.3,237.7 185.2,239.8 182.5,239.8 z M206.8,221.9 C206.8,225.6 203.8,228.5 200.2,228.5 L199.1,228.5 C196.5,221.9 190.1,217.2 182.6,217.2 C175.1,217.2 168.7,221.9 166.1,228.5 L58,228.5 C55.4,221.9 49,217.2 41.5,217.2 C34,217.2 27.6,221.9 25,228.5 L21.7,228.5 C18,228.5 15.1,225.5 15.1,221.9 L15.1,145.7 C15.1,142 18.1,139.1 21.7,139.1 L144.3,139.1 L144.3,179.5 C144.3,191.2 153.8,200.7 165.5,200.7 L206.8,200.7 C206.8,200.8 206.8,200.9 206.8,201 L206.8,221.9 z M238.9,86.1 C261.7,86.1 280.2,104.6 280.2,127.5 C280.2,131.2 279.7,134.8 278.7,138.4 C277.9,141.2 275.3,143.2 272.4,143.2 L262.7,143.2 L262.7,160.4 C262.7,164 259.8,166.9 256.2,166.9 C252.6,166.9 249.7,164 249.7,160.4 L249.7,136.7 C249.7,133.1 252.6,130.2 256.2,130.2 L267.1,130.2 C267.2,129.3 267.2,128.4 267.2,127.5 C267.2,111.9 254.5,99.2 238.9,99.2 C236.7,99.2 234.6,99.4 232.5,99.9 C239.1,107.2 243.1,116.8 243.1,127.4 C243.1,131.1 242.6,134.7 241.6,138.3 C240.8,141.1 238.2,143.1 235.3,143.1 L225.6,143.1 L225.6,160.3 C225.6,163.9 222.7,166.8 219.1,166.8 C215.5,166.8 212.6,163.9 212.6,160.3 L212.6,136.6 C212.6,133 215.5,130.1 219.1,130.1 L230,130.1 C230.1,129.2 230.1,128.3 230.1,127.4 C230.1,111.8 217.4,99.1 201.8,99.1 C199.8,99.1 197.7,99.4 195.7,99.8 C202.3,107.1 206.3,116.8 206.3,127.4 C206.3,131.1 205.8,134.7 204.8,138.3 C204,141.2 201.4,143.1 198.5,143.1 C197.9,143.1 197.4,143.1 196.8,142.9 C193.3,141.9 191.3,138.4 192.2,134.9 C192.9,132.4 193.2,129.9 193.2,127.4 C193.2,111.8 180.5,99.1 164.9,99.1 C157,99.1 149.4,102.5 144,108.4 C141.6,111 137.5,111.2 134.8,108.8 C132.2,106.4 132,102.3 134.4,99.6 C142.3,91 153.4,86.1 165,86.1 C171.6,86.1 177.9,87.6 183.4,90.4 C189.1,87.6 195.4,86.1 201.8,86.1 C208.4,86.1 214.7,87.7 220.3,90.5 C226.1,87.6 232.4,86.1 238.9,86.1 z M165,44 C158.5,44 153.1,49.3 153.1,55.9 C153.1,62.5 158.4,67.8 165,67.8 C171.6,67.8 176.9,62.5 176.9,55.9 C176.9,49.3 171.6,44 165,44 z M201.8,44 C195.3,44 189.9,49.3 189.9,55.9 C189.9,62.5 195.2,67.8 201.8,67.8 C208.4,67.8 213.7,62.5 213.7,55.9 C213.7,49.3 208.4,44 201.8,44 z M238.9,44 C232.3,44 227,49.3 227,55.9 C227,62.5 232.3,67.8 238.9,67.8 C245.5,67.8 250.8,62.5 250.8,55.9 C250.8,49.3 245.5,44 238.9,44 z M165,80.8 C151.3,80.8 140.2,69.6 140.2,55.9 C140.2,42.2 151.4,31 165.1,31 C172.4,31 178.9,34.1 183.5,39.1 C188.1,34.1 194.6,31 201.9,31 C209.2,31 215.8,34.2 220.4,39.3 C224.9,34.2 231.5,31 238.9,31 C252.6,31 263.7,42.2 263.7,55.9 C263.7,69.6 252.5,80.8 238.8,80.8 C231.5,80.8 224.9,77.6 220.3,72.5 C215.8,77.6 209.2,80.8 201.8,80.8 C194.5,80.8 188,77.7 183.4,72.7 C178.8,77.7 172.3,80.8 165,80.8 z" fill="#000000"/>
  </g>
</svg>
