<?xml version="1.0" encoding="UTF-8"?>
<!DOCTYPE svg PUBLIC "-//W3C//DTD SVG 1.1//EN" "http://www.w3.org/Graphics/SVG/1.1/DTD/svg11.dtd">
<svg version="1.1" xmlns="http://www.w3.org/2000/svg" xmlns:xlink="http://www.w3.org/1999/xlink" x="0" y="0" width="283.5" height="283.5" viewBox="0, 0, 283.5, 283.5">
  <g id="Background">
    <rect x="0" y="0" width="283.5" height="283.5" fill="#FFFFFF"/>
  </g>
  <g id="Layer_1">
    <path d="M167.077,0.561 C168.448,0.6 167.779,0.59 169.083,0.596 C171.438,1.128 172.857,2.479 174,4.5 L181.9,23.2 C192.2,21.2 202.9,26.5 207.2,36.5 L234.5,99.4 C235.5,101.6 236.1,103.9 236.3,106.2 L240.5,121.3 L242.9,120.2 C250.1,117 258.6,120.4 261.7,127.6 L266.9,139.5 C268.4,143 268.5,146.8 267.1,150.4 C265.7,154 263,156.8 259.5,158.3 L251.7,161.7 L263.8,205.5 L263.8,206.2 C264.4,215.4 258.3,225.4 249.9,229.1 L156.5,269.6 L276.5,269.6 C280.2,269.6 283.4,272.5 283.4,276.2 C283.4,279.9 280.4,282.9 276.7,282.9 L7.6,282.9 C3.9,282.9 0.9,279.9 0.9,276.2 C0.9,272.5 3.9,269.5 7.6,269.5 L99.6,269.5 L79,236.7 L70.6,240.4 C68.8,241.2 66.8,241.6 64.9,241.6 C63.1,241.6 61.3,241.3 59.6,240.6 C56,239.2 53.2,236.5 51.7,233 L46.5,221.1 C43.3,213.9 46.7,205.4 53.9,202.3 L56.5,201.2 L47.4,186.7 C47.4,186.6 47.3,186.6 47.3,186.5 C46.3,185 45.3,183.5 44.6,181.8 L17.3,118.9 C14.9,113.3 14.8,107.1 17,101.4 C18.6,97.3 21.3,93.8 24.8,91.3 L16.7,72.7 C15.3,69.3 16.8,65.4 20.2,63.9 C23.6,62.5 27.5,64 29,67.4 L36.8,85.5 L169.5,27.9 L161.7,9.8 C160.3,6.4 161.8,2.5 165.2,1 C165.82,0.784 166.422,0.603 167.077,0.561 z M248.9,201.9 L110.4,262 L113.6,267.1 C116.1,269.4 121.2,270.4 124.3,269 L244.6,216.8 C247.7,215.5 250.4,211.2 250.5,207.8 L248.9,201.9 z M228.1,126.1 C226.5,127.4 224.7,128.5 222.8,129.3 L74.6,193.6 C72.6,194.5 70.6,195 68.6,195.3 L103.3,250.4 L245.4,188.7 L228.1,126.1 z M63.6,212.7 L59.1,214.6 C58.6,214.8 58.4,215.3 58.6,215.8 L63.8,227.7 C63.9,228 64.1,228.1 64.3,228.2 C64.5,228.3 64.7,228.3 65,228.2 L71.6,225.4 L63.6,212.7 z M186.3,36.1 C185.1,36.1 183.8,36.4 182.6,36.9 L36,100.5 L34.4,101.2 C32.1,102.2 30.3,104 29.4,106.4 C28.5,108.7 28.5,111.3 29.5,113.6 L56.8,176.5 C58.8,181.3 64.4,183.5 69.2,181.4 L217.3,117.2 C219.6,116.2 221.4,114.4 222.3,112 C222.8,110.9 223,109.7 223,108.5 L223,108.4 C222.8,107.7 222.8,107 222.8,106.3 C222.7,105.7 222.5,105.2 222.3,104.7 L195,41.8 C193.4,38.2 190,36.1 186.3,36.1 z M67.866,115.401 C72.287,116.196 70.431,115.676 73.5,116.7 C78.4,118.7 82.2,122.4 84.3,127.2 C86.3,132 86.4,137.3 84.5,142.2 C82.5,147.1 78.8,150.9 74,153 C71.5,154.1 68.8,154.7 66.4,154.6 C58.8,154.6 51.5,150.2 48.3,142.8 C44,132.8 48.6,121.2 58.5,116.9 C62.02,115.39 64.166,115.455 67.866,115.401 z M66.3,128.8 C65.5,128.8 64.6,128.9 63.8,129.3 C60.6,130.6 59.1,134.3 60.5,137.5 C61.8,140.7 65.5,142.1 68.8,140.8 C72,139.5 73.5,135.8 72.1,132.6 C71,130.2 68.7,128.8 66.3,128.8 z M187.266,63.701 C191.687,64.496 189.831,63.976 192.9,65 C197.8,67 201.6,70.7 203.7,75.5 C205.7,80.3 205.8,85.6 203.9,90.5 C201.9,95.4 198.2,99.2 193.4,101.3 C190.9,102.4 188.2,102.9 185.6,102.9 C178,102.9 170.8,98.4 167.6,91 C165.6,86.2 165.5,80.9 167.4,76 C169.4,71.1 173.1,67.3 177.9,65.2 C181.42,63.69 183.566,63.755 187.266,63.701 z M184.812,77.049 C184.21,77.039 183.657,77.306 183.1,77.5 C179.9,78.8 178.5,82.5 179.9,85.6 C181.3,88.8 185,90.3 188.2,88.9 C189.7,88.3 190.9,87.1 191.5,85.5 C192.1,83.9 192.1,82.2 191.4,80.7 C190.7,79.2 189.5,78 187.9,77.4 L186.686,77.064 C185.468,77.071 186.093,77.075 184.812,77.049 z M248.67,132.423 L248.3,132.5 L244.1,134.3 L248.1,148.7 L254.2,146.1 C254.5,146 254.6,145.8 254.7,145.6 C254.8,145.4 254.8,145.2 254.7,144.9 L249.5,133 C249.177,132.492 249.414,132.731 248.67,132.423 z" fill="#000000"/>
  </g>
</svg>
