<?xml version="1.0" encoding="UTF-8"?>
<!DOCTYPE svg PUBLIC "-//W3C//DTD SVG 1.1//EN" "http://www.w3.org/Graphics/SVG/1.1/DTD/svg11.dtd">
<svg version="1.1" xmlns="http://www.w3.org/2000/svg" xmlns:xlink="http://www.w3.org/1999/xlink" x="0" y="0" width="283.5" height="283.5" viewBox="0, 0, 283.5, 283.5">
  <g id="Background">
    <rect x="0" y="0" width="283.5" height="283.5" fill="#FFFFFF"/>
  </g>
  <g id="Layer_1">
    <path d="M25.3,101.7 C29,101.7 32,104.7 32,108.4 C32,112.1 29,115.1 25.3,115.1 L23.4,115.1 C18.1,115.1 13.9,119.4 13.9,124.6 L13.9,226.8 C13.9,232.1 18.2,236.3 23.4,236.3 L28.6,236.3 C31.3,228.4 38.8,222.8 47.6,222.8 C56.4,222.8 63.8,228.4 66.6,236.3 L217,236.3 C219.7,228.4 227.2,222.8 236,222.8 C244.8,222.8 252.2,228.4 255,236.3 L260.2,236.3 C265.5,236.3 269.7,232 269.7,226.8 L269.7,203.5 C269.7,202.1 268.9,199.1 267.6,195.7 L211.9,195.7 C199.3,195.7 189,185.4 189,172.8 L189,116.7 C186.1,115.7 183,115.2 180,115.2 L151.2,115.2 C147.5,115.2 144.5,112.2 144.5,108.5 C144.5,104.8 147.5,101.8 151.2,101.8 L180,101.8 C191.9,101.8 203.3,106.9 213,116.6 C224.1,127.7 239.1,142.4 251.1,154.3 C258.9,162 265,168 268,171 C276.4,179.3 283.1,195.6 283.1,203.5 L283.1,226.8 C283.1,239.4 272.8,249.7 260.2,249.7 L255,249.7 C252.3,257.6 244.8,263.2 236,263.2 C227.2,263.2 219.8,257.6 217,249.7 L66.6,249.7 C63.9,257.6 56.4,263.2 47.6,263.2 C38.8,263.2 31.4,257.6 28.6,249.7 L23.4,249.7 C10.8,249.7 0.5,239.4 0.5,226.8 L0.5,124.6 C0.5,112 10.8,101.7 23.4,101.7 L25.3,101.7 z M236,236.1 C232.2,236.1 229.2,239.2 229.2,242.9 C229.2,246.6 232.2,249.7 236,249.7 C239.8,249.7 242.8,246.7 242.8,242.9 C242.8,239.1 239.7,236.1 236,236.1 z M47.5,236.1 C43.7,236.1 40.7,239.2 40.7,242.9 C40.7,246.6 43.7,249.7 47.5,249.7 C51.3,249.7 54.3,246.6 54.3,242.9 C54.3,239.2 51.3,236.1 47.5,236.1 z M202.4,125 L202.4,172.7 C202.4,178 206.7,182.2 211.9,182.2 L260.1,182.2 C259.6,181.6 259.1,181 258.5,180.4 C255.6,177.5 249.5,171.4 241.7,163.8 C229.6,151.9 214.6,137.1 203.5,126 L202.4,125 z M88.2,94.8 C84.5,94.8 81.5,97.8 81.5,101.5 L81.5,119.8 L63.2,119.8 C59.5,119.8 56.5,122.8 56.5,126.5 C56.5,130.2 59.5,133.2 63.2,133.2 L81.5,133.2 L81.5,151.5 C81.5,155.2 84.5,158.2 88.2,158.2 C91.9,158.2 94.9,155.2 94.9,151.5 L94.9,133.2 L113.2,133.2 C116.9,133.2 119.9,130.2 119.9,126.5 C119.9,122.8 116.9,119.8 113.2,119.8 L94.9,119.8 L94.9,101.5 C94.9,97.8 91.9,94.8 88.2,94.8 z M88.2,88.4 C109.2,88.4 126.3,105.5 126.3,126.5 C126.3,147.5 109.2,164.6 88.2,164.6 C67.2,164.6 50.1,147.5 50.1,126.5 C50.1,105.5 67.2,88.4 88.2,88.4 z M88.2,75 C59.8,75 36.7,98.1 36.7,126.5 C36.7,154.9 59.8,178.1 88.2,178.1 C116.6,178.1 139.7,155 139.7,126.6 C139.7,98.2 116.6,75 88.2,75 z" fill="#000000"/>
  </g>
</svg>
