<?xml version="1.0" encoding="UTF-8"?>
<!DOCTYPE svg PUBLIC "-//W3C//DTD SVG 1.1//EN" "http://www.w3.org/Graphics/SVG/1.1/DTD/svg11.dtd">
<svg version="1.1" xmlns="http://www.w3.org/2000/svg" xmlns:xlink="http://www.w3.org/1999/xlink" x="0" y="0" width="283.5" height="283.5" viewBox="0, 0, 283.5, 283.5">
  <g id="Background">
    <rect x="0" y="0" width="283.5" height="283.5" fill="#FFFFFF"/>
  </g>
  <g id="Layer_1">
    <path d="M214.3,42.4 C223.6,42.4 233.3,49.1 236.5,57.7 L236.7,58.3 L236.8,59 L243.6,102 L253.3,102 C261.3,102 267.8,108.4 267.9,116.3 L267.9,129.2 C267.9,137 261.4,143.4 253.4,143.4 L250.2,143.4 L253,161 C253,161.1 253,161.1 253,161.2 C253.5,163 253.7,164.8 253.7,166.6 L253.7,234.6 C253.7,245.5 245.9,254.6 235.4,256.8 L235.4,276.8 C235.4,280.5 232.4,283.5 228.7,283.5 C225,283.5 222,280.5 222,276.8 L222,257.4 L73.6,257.4 L73.6,276.8 C73.6,280.5 70.6,283.5 66.9,283.5 C63.2,283.5 60.2,280.5 60.2,276.8 L60.2,256.8 C49.8,254.6 41.9,245.5 41.9,234.6 L41.9,166.6 C41.9,164.2 42.3,161.8 43,159.6 L45.3,143.3 L42.3,143.3 C34.3,143.3 27.8,136.9 27.8,129.1 L27.8,116.2 C27.8,108.4 34.3,102 42.3,102 L51.3,102 L51.6,99.7 C52.1,96 55.5,93.5 59.2,94 C62.9,94.5 65.4,97.9 64.9,101.6 L58.6,144.7 C60.6,144.1 62.8,143.8 65,143.8 L230.4,143.8 C232.6,143.8 234.8,144.1 236.8,144.7 L226.8,81 L148.9,81 C145.2,81 142.2,78 142.2,74.3 C142.2,70.6 145.2,67.6 148.9,67.6 L224.7,67.6 L223.8,61.8 C222.3,58.7 217.8,55.8 214.3,55.8 L124.7,55.8 C121,55.8 118,52.8 118,49.1 C118,45.4 121,42.4 124.7,42.4 L214.3,42.4 z M230.3,157.3 L65,157.3 C61,157.3 57.5,159.7 56,163 L56,163.1 C55.9,163.8 55.7,164.4 55.4,165 C55.3,165.5 55.2,166 55.2,166.6 L55.2,234.6 C55.2,239.7 59.6,243.9 65,243.9 L230.4,243.9 C235.8,243.9 240.2,239.7 240.2,234.6 L240.1,234.6 L240.1,166.6 C240.1,161.5 235.7,157.3 230.3,157.3 z M91.6,181 C104.3,181 114.6,189.8 114.6,200.5 C114.6,204.2 111.6,207.2 107.9,207.2 C104.2,207.2 101.2,204.2 101.2,200.5 C101.2,197.6 97.3,194.4 91.6,194.4 C85.9,194.4 82,197.6 82,200.5 C82,204.2 79,207.2 75.3,207.2 C71.6,207.2 68.6,204.2 68.6,200.5 C68.6,189.8 78.9,181 91.6,181 z M204.4,181 C217.1,181 227.4,189.8 227.4,200.5 C227.4,204.2 224.4,207.2 220.7,207.2 C217,207.2 214,204.2 214,200.5 C214,197.6 210.1,194.4 204.4,194.4 C198.7,194.4 194.8,197.6 194.8,200.5 C194.8,204.2 191.8,207.2 188.1,207.2 C184.4,207.2 181.4,204.2 181.4,200.5 C181.4,189.8 191.7,181 204.4,181 z M253.3,115.4 L245.7,115.4 L248,130 L253.3,130 C254,130 254.4,129.6 254.4,129.2 L254.4,116.2 C254.4,115.8 253.9,115.4 253.3,115.4 z M49.4,115.5 L42.3,115.5 C41.6,115.5 41.2,115.9 41.2,116.3 L41.2,129.2 C41.2,129.6 41.7,130 42.3,130 L47.3,130 L49.4,115.5 z M116.489,96.875 C114.926,96.875 114.09,96.807 112.9,98 C111.3,99.6 111.3,102.2 112.9,103.7 C114.5,105.3 117.1,105.3 118.6,103.7 C120.2,102.1 120.2,99.6 118.6,98 C117.548,97.141 118.213,97.58 116.489,96.875 z M56.346,13.429 C58.212,13.685 60.117,13.741 61.944,14.196 C66.644,15.365 70.857,17.83 74.3,21.2 C81,27.9 83.6,37.3 81.3,46.5 C80.8,48.8 81.4,51.2 83.1,52.9 L123.2,93 C125.1,95 126.2,97.6 126.2,100.3 C126.2,103.1 125.1,105.7 123.2,107.6 C121.2,109.5 118.7,110.6 115.9,110.6 C113.1,110.6 110.5,109.5 108.6,107.6 L68.5,67.5 C67.3,66.2 65.6,65.5 63.8,65.5 C63.2,65.5 62.7,65.6 62.1,65.8 C52.9,68.1 43.5,65.5 36.8,58.8 C31.2,53.2 28.5,45.6 29.1,38 L43.3,52.1 C50.1,58.8 61,58.8 67.7,52.1 C74.4,45.4 74.4,34.5 67.7,27.8 L53.5,13.5 L56.346,13.429 z M55.088,0.091 L52.836,0.138 C47.228,0.959 42.944,1.507 37.8,4.2 C35.9,5.1 34.6,7 34.2,9.1 C33.9,11.2 34.6,13.4 36.1,14.9 L58.3,37.4 C59.8,38.9 59.8,41.3 58.3,42.8 C56.8,44.3 54.4,44.3 52.9,42.8 L30.5,20.6 C29,19 26.8,18.3 24.7,18.7 C22.6,19 20.8,20.4 19.8,22.3 C12.2,37.7 15.3,56.2 27.4,68.3 C36.3,77.2 49.2,81.4 61.6,79.5 L99.1,117.1 C103.6,121.5 109.6,124 115.9,124 C122.2,124 128.2,121.5 132.6,117.2 C137,112.7 139.5,106.8 139.5,100.4 C139.5,94 137.1,88.1 132.6,83.6 L95,46 C96.9,33.6 92.8,20.8 83.8,11.8 C75.693,4.603 66.1,0.042 55.088,0.091 z" fill="#000000"/>
  </g>
</svg>
