<?xml version="1.0" encoding="UTF-8"?>
<!DOCTYPE svg PUBLIC "-//W3C//DTD SVG 1.1//EN" "http://www.w3.org/Graphics/SVG/1.1/DTD/svg11.dtd">
<svg version="1.1" xmlns="http://www.w3.org/2000/svg" xmlns:xlink="http://www.w3.org/1999/xlink" x="0" y="0" width="283.5" height="283.5" viewBox="0, 0, 283.5, 283.5">
  <g id="Background">
    <rect x="0" y="0" width="283.5" height="283.5" fill="#FFFFFF"/>
  </g>
  <g id="Layer_1">
    <path d="M159.3,121.9 C155.8,118.3 150.9,116.3 145.9,116.3 L21.4,116.3 C10.6,116.3 1.8,125.1 1.8,135.9 L1.8,212.1 C1.8,222.9 10.6,231.7 21.4,231.7 L24.7,231.7 C27.3,238.3 33.7,243 41.2,243 C48.7,243 55.1,238.3 57.7,231.7 L165.8,231.7 C168.4,238.3 174.8,243 182.3,243 C189.8,243 196.2,238.3 198.8,231.7 L199.9,231.7 C210.7,231.7 219.5,222.9 219.5,212.1 L219.5,191.1 C219.5,185.7 217.4,180.7 213.6,176.8 L159.3,121.9 z M157,138.1 L196.3,177.8 L165.2,177.8 C160.7,177.8 157,174.1 157,169.6 L157,138.1 z M41.2,230 C38.6,230 36.4,227.9 36.4,225.2 C36.4,222.6 38.5,220.4 41.2,220.4 C43.9,220.4 46,222.5 46,225.2 C46,227.9 43.9,230 41.2,230 z M182.3,230 C179.7,230 177.5,227.9 177.5,225.2 C177.5,222.6 179.6,220.4 182.3,220.4 C184.9,220.4 187.1,222.5 187.1,225.2 C187.1,227.9 185,230 182.3,230 z M206.6,212.1 C206.6,215.8 203.6,218.7 200,218.7 L198.9,218.7 C196.3,212.1 189.9,207.4 182.4,207.4 C174.9,207.4 168.5,212.1 165.9,218.7 L57.7,218.7 C55.1,212.1 48.7,207.4 41.2,207.4 C33.7,207.4 27.3,212.1 24.7,218.7 L21.4,218.7 C17.7,218.7 14.8,215.7 14.8,212.1 L14.8,135.9 C14.8,132.2 17.8,129.3 21.4,129.3 L144,129.3 L144,169.7 C144,181.4 153.5,190.9 165.2,190.9 L206.5,190.9 C206.5,191 206.5,191.1 206.5,191.2 L206.5,212.1 z M273.8,134.6 C277.6,138.8 279.5,144.2 279.4,149.9 C279.1,155.5 276.6,160.7 272.4,164.5 C268.3,168.1 263.2,169.9 258.2,169.9 C252.5,169.9 246.7,167.5 242.5,162.9 C239.6,159.6 232.4,149.4 226.5,139.4 C224.7,136.3 225.7,132.3 228.8,130.5 C231.9,128.7 235.9,129.7 237.7,132.8 C243.8,143.1 250.3,152.1 252.2,154.2 C255.2,157.5 260.4,157.8 263.7,154.8 C265.3,153.4 266.3,151.4 266.4,149.2 C266.5,147 265.8,144.9 264.3,143.3 C263,141.8 258.8,138 253.3,133.6 C250.5,131.4 250,127.3 252.3,124.5 C254.5,121.7 258.6,121.2 261.4,123.5 C267,128.1 271.8,132.3 273.8,134.6 z M158,62.8 L151.1,52.9 C149.3,50.3 149.6,46.7 151.8,44.5 L155.2,41.1 C157.5,38.8 161,38.6 163.6,40.4 L173.5,47.5 C173.6,47.6 173.6,47.6 173.7,47.7 C173.7,47.8 173.8,47.8 173.9,47.9 C174,48 174.1,48.1 174.2,48.2 C174.3,48.3 174.3,48.3 174.4,48.4 C174.5,48.5 174.6,48.7 174.7,48.8 C174.8,48.9 174.9,48.9 174.9,49 C175,49.2 175.2,49.4 175.3,49.6 C175.3,49.6 175.3,49.7 175.3,49.7 C175.4,49.9 175.5,50.1 175.6,50.3 C175.6,50.4 175.6,50.4 175.6,50.4 L177.6,55.2 C178,56.2 178.1,57.3 178,58.3 L192.7,72.9 C195.2,75.4 195.2,79.6 192.7,82.1 C191.4,83.4 189.8,84 188.1,84 C186.4,84 184.8,83.4 183.5,82.1 L168.7,67.3 C168.5,67.3 168.2,67.3 168,67.3 C167.1,67.3 166.3,67.1 165.5,66.8 L160.7,64.8 C160.7,64.8 160.7,64.8 160.7,64.8 C160.5,64.7 160.3,64.6 160.1,64.5 C160.1,64.5 160.1,64.5 160.1,64.5 C159.9,64.4 159.7,64.2 159.5,64.1 C159.4,64.1 159.4,64 159.3,64 C159.2,63.9 159,63.8 158.9,63.7 C158.8,63.6 158.8,63.6 158.7,63.5 C158.6,63.4 158.5,63.3 158.4,63.2 C158.3,63.2 158.3,63.1 158.2,63 C158.1,62.9 158,62.9 158,62.8 z M172.8,116.6 L199.4,89.9 C196.8,78 200.4,65.7 209.2,56.9 C220.6,45.5 238.3,43 252.3,50.8 C254.1,51.8 255.3,53.6 255.6,55.6 C255.9,57.6 255.2,59.7 253.8,61.1 L236.4,78.5 C235.8,79.1 235.8,80.1 236.4,80.7 C236.8,81.1 237.2,81.2 237.5,81.2 C237.8,81.2 238.2,81.1 238.6,80.7 L256,63.3 C257.5,61.9 259.5,61.2 261.5,61.5 C263.5,61.7 265.3,62.9 266.3,64.7 C274.3,78.8 271.9,96.6 260.4,108.1 C251.7,116.8 239.3,120.4 227.4,117.9 L210.7,134.6 C209.4,135.9 207.8,136.5 206.1,136.5 C204.4,136.5 202.8,135.9 201.5,134.6 C199,132.1 199,127.9 201.5,125.4 L220.8,106.1 C222.6,104.3 225.2,103.7 227.5,104.5 C235.9,107.3 245,105.1 251.2,98.9 C256.3,93.8 258.6,86.8 257.8,79.9 L247.8,89.9 C242.1,95.6 232.9,95.6 227.2,89.9 C221.5,84.2 221.5,75 227.2,69.3 L237,59.5 C230.3,58.9 223.4,61.2 218.4,66.2 C212.1,72.4 210,81.5 212.8,89.9 C213.5,92.3 212.9,94.9 211.2,96.6 L182,125.8 C179.5,128.3 175.3,128.3 172.8,125.8 C170.3,123.3 170.3,119.1 172.8,116.6 z" fill="#000000"/>
  </g>
</svg>
