<?xml version="1.0" encoding="UTF-8"?>
<!DOCTYPE svg PUBLIC "-//W3C//DTD SVG 1.1//EN" "http://www.w3.org/Graphics/SVG/1.1/DTD/svg11.dtd">
<svg version="1.1" xmlns="http://www.w3.org/2000/svg" xmlns:xlink="http://www.w3.org/1999/xlink" x="0" y="0" width="283.5" height="283.5" viewBox="0, 0, 283.5, 283.5">
  <g id="Background">
    <rect x="0" y="0" width="283.5" height="283.5" fill="#FFFFFF"/>
  </g>
  <g id="Layer_1">
    <path d="M181,72.3 C189.4,72.3 197.9,78.3 200.7,86.2 L200.9,86.8 L201,87.4 L206.7,124.7 L213.8,124.7 C221.1,124.7 227,130.6 227.1,137.8 L227.1,149 C227.1,156.3 221.2,162.2 213.9,162.2 L212.6,162.2 L214.6,175.6 C214.6,175.7 214.6,175.8 214.6,175.9 C215,177.4 215.2,179 215.2,180.6 L215.2,239.5 C215.2,249.1 208.6,257.1 199.8,259.4 L199.8,276 C199.8,279.7 196.8,282.7 193.1,282.7 C189.4,282.7 186.4,279.7 186.4,276 L186.4,260 L64,260 L64,276 C64,279.7 61,282.7 57.3,282.7 C53.6,282.7 50.6,279.7 50.6,276 L50.6,259.4 C41.7,257.1 35.2,249 35.2,239.5 L35.2,180.6 C35.2,178.5 35.6,176.4 36.2,174.4 L37.9,162.3 L36.7,162.3 C29.4,162.3 23.5,156.4 23.5,149.1 L23.5,137.9 C23.5,130.6 29.4,124.7 36.7,124.7 L43.2,124.7 L48.5,86.8 L48.7,86.2 C51.5,78.3 60,72.3 68.4,72.3 L181,72.3 z M194.5,173.6 L55.7,173.6 C52.8,173.6 50.3,175.3 49.2,177.8 C49.1,178.4 49,179 48.7,179.6 C48.6,179.9 48.6,180.3 48.6,180.7 L48.6,239.6 C48.6,243.6 51.8,246.8 55.8,246.8 L194.5,246.8 C198.5,246.8 201.7,243.6 201.7,239.6 L201.7,180.8 C201.7,176.8 198.5,173.6 194.5,173.6 z M69.2,192.3 C79.1,192.3 87,200.3 87,210.1 C87,219.9 79,227.9 69.2,227.9 C59.4,227.9 51.4,219.9 51.4,210.1 C51.4,200.3 59.4,192.3 69.2,192.3 z M69.2,205.8 C66.8,205.8 64.8,207.8 64.8,210.2 C64.8,212.6 66.8,214.6 69.2,214.6 C71.7,214.6 73.6,212.6 73.6,210.2 C73.6,207.8 71.6,205.8 69.2,205.8 z M181,192.3 C190.9,192.3 198.8,200.3 198.8,210.1 C198.8,219.9 190.8,227.9 181,227.9 C171.2,227.9 163.2,219.9 163.2,210.1 C163.2,200.3 171.2,192.3 181,192.3 z M181,205.8 C178.6,205.8 176.6,207.8 176.6,210.2 C176.6,212.6 178.6,214.6 181,214.6 C183.5,214.6 185.4,212.6 185.4,210.2 C185.4,207.8 183.4,205.8 181,205.8 z M190.5,107.5 L59.1,107.5 L51.7,160.5 C53,160.2 54.4,160.1 55.8,160.1 L194.5,160.1 C195.9,160.1 197.3,160.2 198.6,160.5 L190.5,107.5 z M213.6,138.1 L208.7,138.1 L210.4,148.9 L213.6,148.9 L213.6,138.1 z M41.3,138.1 L36.9,138.1 L36.9,148.9 L39.8,148.9 L41.3,138.1 z M181,85.7 L68.4,85.7 C65.9,85.7 62.7,87.8 61.6,90.2 L61,94.1 L188.5,94.1 L187.9,90.2 C186.7,87.9 183.5,85.7 181,85.7 z M190.26,44.379 C189.416,44.559 188.523,44.583 187.729,44.92 C185.629,45.812 184.267,47.653 183.7,49.8 C183,53.4 185.4,56.9 189,57.7 C192.5,58.3 195.7,59.5 198.6,61.1 C201.6,62.8 204.2,64.9 206.5,67.4 C207.8,68.8 209.6,69.6 211.4,69.6 C213,69.6 214.6,69 215.9,67.8 C218.6,65.3 218.8,61.1 216.3,58.3 C213,54.7 209.3,51.7 205.1,49.4 C200.9,47 196.4,45.4 191.6,44.5 L190.26,44.379 z M184.2,21.8 L184.1,21.8 C180.4,21.8 177.5,24.7 177.4,28.4 C177.3,32.1 180.3,35.1 184,35.2 C192.8,35.3 201.6,37.7 209.3,42.1 C217,46.4 223.6,52.7 228.3,60.1 C229.6,62.1 231.7,63.2 234,63.2 C235.2,63.2 236.5,62.9 237.6,62.2 C240.7,60.2 241.7,56.1 239.7,53 C233.8,43.6 225.5,35.8 215.9,30.4 C206.2,25 195.3,22 184.2,21.8 z M183.852,0.616 L180.867,0.652 L177.7,0.8 C174,1 171.2,4.2 171.4,7.9 C171.6,11.6 174.8,14.4 178.5,14.2 C192.8,13.3 207,16.6 219.6,23.6 C232.2,30.7 242.4,41.1 249.1,53.8 C250.3,56.1 252.6,57.4 255,57.4 C256.1,57.4 257.1,57.1 258.1,56.6 C261.5,54.8 262.7,50.7 261,47.5 C253.1,32.5 241.1,20.2 226.2,11.9 C212.772,5.165 199.017,0.62 183.852,0.616 z" fill="#000000"/>
  </g>
</svg>
