<?xml version="1.0" encoding="UTF-8"?>
<!DOCTYPE svg PUBLIC "-//W3C//DTD SVG 1.1//EN" "http://www.w3.org/Graphics/SVG/1.1/DTD/svg11.dtd">
<svg version="1.1" xmlns="http://www.w3.org/2000/svg" xmlns:xlink="http://www.w3.org/1999/xlink" x="0" y="0" width="283.5" height="283.5" viewBox="0, 0, 283.5, 283.5">
  <g id="Background">
    <rect x="0" y="0" width="283.5" height="283.5" fill="#FFFFFF"/>
  </g>
  <g id="Layer_1">
    <path d="M220.6,0.9 C231.1,0.9 242.2,8.7 245.8,18.7 L246,19.3 L246.1,19.9 L254.5,75.1 L266.9,75.1 C275.7,75.1 282.8,82.3 282.6,91 L282.6,106.9 C282.6,115.7 275.5,122.8 266.7,122.8 L261.6,122.8 L265,145 C265,145.1 265,145.2 265,145.3 C265.5,147.3 265.8,149.4 265.8,151.6 L265.8,176.8 C265.8,180.5 262.8,183.5 259.1,183.5 C255.4,183.5 252.4,180.5 252.4,176.8 L252.4,151.6 C252.4,144.5 246.6,138.7 239.5,138.7 L43.1,138.7 C37.8,138.7 33.1,142 31.2,146.7 L31.2,147 C31.1,147.8 30.8,148.5 30.5,149.2 C30.4,149.9 30.3,150.8 30.3,151.6 L30.3,226.3 C30.3,228.3 31.4,230 33.2,230.8 C65.5,244.7 105.8,252.1 146.7,251.5 C187.1,250.9 224.6,242.8 256,227.9 L249.7,222.7 C246.8,220.4 246.4,216.1 248.8,213.3 C251.1,210.4 255.4,210 258.2,212.4 L272.2,224.1 L274.7,226.2 L274.7,249.7 C274.7,253.4 271.7,256.4 268,256.4 C264.3,256.4 261.3,253.4 261.3,249.7 L261.3,240.1 C255.3,242.9 249.2,245.5 242.8,247.9 L242.8,275.1 C242.8,278.8 239.8,281.8 236.1,281.8 C232.4,281.8 229.4,278.8 229.4,275.1 L229.4,252.4 C204,260.2 176.1,264.4 146.8,264.8 L142.3,264.8 C111.2,264.8 80.5,260.4 53.2,252.1 L53.2,275 C53.2,278.7 50.2,281.7 46.5,281.7 C42.8,281.7 39.8,278.7 39.8,275 L39.8,247.7 C35.7,246.2 31.8,244.7 27.9,243 C21.2,240.1 16.9,233.5 16.9,226.2 L16.9,151.5 C16.9,148.6 17.4,145.9 18.2,143.3 L21.1,122.7 L16.2,122.7 C7.4,122.7 0.3,115.6 0.3,106.8 L0.3,91 C0.3,82.3 7.5,75.1 16.3,75.1 L27.9,75.1 L35.8,19.3 L36,18.7 C39.5,8.7 50.6,0.9 61.2,0.9 L220.6,0.9 z M236.3,45.2 L45.5,45.2 L34,126.8 C36.9,125.8 40,125.2 43.2,125.2 L239.6,125.2 C242.8,125.2 245.9,125.8 248.8,126.9 L236.3,45.2 z M266.8,88.5 L256.5,88.5 L259.7,109.4 L266.9,109.4 C268.3,109.4 269.4,108.3 269.4,106.9 L269.3,106.9 L269.3,91 C269.3,89.6 268.2,88.5 266.8,88.5 z M26,88.5 L16.3,88.5 C14.9,88.5 13.8,89.6 13.8,91 L13.8,106.9 C13.8,108.3 14.9,109.4 16.3,109.4 L23,109.4 L26,88.5 z M220.5,14.3 L61.2,14.3 C56.4,14.3 50.7,18.2 48.8,22.6 L47.5,31.8 L234.3,31.8 L232.9,22.7 C231,18.2 225.3,14.3 220.5,14.3 z M218.9,184.1 C223.9,184.1 228,188.2 228,193.2 C228,198.2 223.9,202.3 218.9,202.3 C213.9,202.3 209.8,198.2 209.8,193.2 C209.8,188.2 213.9,184.1 218.9,184.1 z M218.9,170.8 C206.5,170.8 196.4,180.9 196.4,193.3 C196.4,205.7 206.5,215.8 218.9,215.8 C231.3,215.8 241.4,205.7 241.4,193.3 C241.4,180.9 231.3,170.8 218.9,170.8 z M63.9,184.1 C69,184.2 73,188.2 73,193.2 C73,198.2 68.9,202.3 63.9,202.3 C58.9,202.3 54.8,198.2 54.8,193.2 C54.8,188.2 58.9,184.1 63.9,184.1 z M64,170.8 C51.6,170.8 41.5,180.8 41.5,193.2 C41.5,205.6 51.6,215.7 64,215.7 C76.4,215.7 86.5,205.6 86.5,193.2 C86.5,180.8 76.3,170.8 64,170.8 z" fill="#000000"/>
  </g>
</svg>
