<?xml version="1.0" encoding="UTF-8"?>
<!DOCTYPE svg PUBLIC "-//W3C//DTD SVG 1.1//EN" "http://www.w3.org/Graphics/SVG/1.1/DTD/svg11.dtd">
<svg version="1.1" xmlns="http://www.w3.org/2000/svg" xmlns:xlink="http://www.w3.org/1999/xlink" x="0" y="0" width="283.5" height="283.5" viewBox="0, 0, 283.5, 283.5">
  <g id="Background">
    <rect x="0" y="0" width="283.5" height="283.5" fill="#FFFFFF"/>
  </g>
  <g id="Layer_1">
    <path d="M228.1,137.1 C225.6,134.6 221.4,134.6 218.9,137.1 C216.4,139.6 216.4,143.8 218.9,146.3 L227.6,155 L189.7,155 C184,155 179.3,150.4 179.3,144.6 L179.3,106.1 L181.5,108.3 C184,110.9 188.1,110.9 190.7,108.3 C193.3,105.8 193.3,101.7 190.7,99.1 L182.1,90.4 C178.2,86.5 172.9,84.3 167.4,84.3 L24.8,84.3 C13,84.5 3.3,94.2 3.3,106 L3.3,193.4 C3.3,205.3 13,215 24.9,215 L29.4,215 C32.1,222.5 39.2,227.9 47.7,227.9 C56.2,227.9 63.3,222.5 66,215 L191.3,215 C194,222.5 201.1,227.9 209.6,227.9 C218.1,227.9 225.2,222.5 227.9,215 L229.8,215 C241.7,215 251.4,205.3 251.4,193.4 L251.4,169.3 C251.4,163.4 249.1,157.8 244.9,153.6 L228.1,137.1 z M47.6,214.9 C44.1,214.9 41.2,212 41.2,208.5 C41.2,205 44.1,202.1 47.6,202.1 C51.1,202.1 54,205 54,208.5 C54,212 51.1,214.9 47.6,214.9 z M209.4,214.9 C205.9,214.9 203,212 203,208.5 C203,205 205.9,202.1 209.4,202.1 C212.9,202.1 215.8,205 215.8,208.5 C215.8,212 213,214.9 209.4,214.9 z M238.2,193.4 C238.2,198.1 234.4,202 229.6,202 L227.7,202 C225,194.5 217.9,189.1 209.4,189.1 C200.9,189.1 193.8,194.5 191.1,202 L65.9,202 C63.2,194.5 56.1,189.1 47.6,189.1 C39.1,189.1 32,194.5 29.3,202 L24.8,202 C20.1,202 16.2,198.2 16.2,193.4 L16.2,106 C16.2,101.3 20,97.4 24.8,97.4 L166.4,97.4 L166.4,144.6 C166.4,157.5 176.9,168 189.8,168 L238.1,168 C238.2,168.4 238.2,168.8 238.2,169.3 L238.2,193.4 z M209.5,118.4 C213,118.4 216.3,116.5 217.8,113.6 C220.4,108.5 229.8,92 233.5,85.7 L234.2,84.5 C237.7,78.5 242.1,71.1 251.7,71.1 L254.3,71.1 L254.3,66.2 C254.3,63.6 255.9,61.2 258.3,60.2 C260.7,59.2 263.5,59.7 265.4,61.6 L276.8,73 C279.3,75.5 279.3,79.7 276.8,82.2 L265.4,93.6 C264.2,94.8 262.5,95.5 260.8,95.5 C259.9,95.5 259.1,95.3 258.3,95 C255.9,94 254.3,91.6 254.3,89 L254.3,84.1 L251.7,84.1 C249.8,84.1 248.8,85.3 245.4,91.1 L244.7,92.4 C241,98.7 231.8,114.8 229.4,119.6 C225.8,126.8 217.9,131.4 209.5,131.4 L195,131.4 C191.4,131.4 188.5,128.5 188.5,124.9 C188.5,121.3 191.4,118.4 195,118.4 L209.5,118.4 z M265.4,107.4 L276.8,118.8 C279.3,121.3 279.3,125.5 276.8,128 L265.4,139.4 C264.2,140.6 262.5,141.3 260.8,141.3 C259.9,141.3 259.1,141.1 258.3,140.8 C255.9,139.8 254.3,137.4 254.3,134.8 L254.3,129.9 L251.7,129.9 C242.6,129.9 239.3,124.3 236.6,119.9 C234.8,116.9 235.7,112.9 238.8,111 C241.8,109.2 245.8,110.1 247.7,113.2 C249.9,116.9 250,116.9 251.7,116.9 L254.3,116.9 L254.3,112 C254.3,109.4 255.9,107 258.3,106 C260.7,105 263.5,105.5 265.4,107.4 z M195,82.7 C191.4,82.7 188.5,79.9 188.5,76.3 C188.5,72.7 191.4,69.8 195,69.8 L209.5,69.8 C218,69.8 225.8,74.4 229.4,81.6 C231,84.8 229.7,88.7 226.5,90.3 C225.6,90.8 224.6,91 223.6,91 C221.2,91 218.9,89.7 217.8,87.4 C216.3,84.5 213.1,82.7 209.5,82.7 L195,82.7 z" fill="#000000"/>
  </g>
</svg>
