<?xml version="1.0" encoding="UTF-8"?>
<!DOCTYPE svg PUBLIC "-//W3C//DTD SVG 1.1//EN" "http://www.w3.org/Graphics/SVG/1.1/DTD/svg11.dtd">
<svg version="1.1" xmlns="http://www.w3.org/2000/svg" xmlns:xlink="http://www.w3.org/1999/xlink" x="0" y="0" width="283.5" height="283.5" viewBox="0, 0, 283.5, 283.5">
  <g id="Background">
    <rect x="0" y="0" width="283.5" height="283.5" fill="#FFFFFF"/>
  </g>
  <g id="Ebene_2">
    <path d="M237.5,146.4 C235,143.8 230.9,143.8 228.3,146.4 C225.9,148.8 225.7,152.6 227.9,155.2 L189.8,155.2 C184.1,155.2 179.4,150.6 179.4,144.8 L179.4,106.3 L181.6,108.5 C184.1,111.1 188.2,111.1 190.8,108.5 C193.4,106 193.4,101.9 190.8,99.3 L182.2,90.6 C178.3,86.7 173,84.5 167.5,84.5 L24.8,84.5 C13,84.5 3.3,94.2 3.3,106 L3.3,193.4 C3.3,205.3 13,215 24.9,215 L29.4,215 C32.1,222.5 39.2,227.9 47.7,227.9 C56.2,227.9 63.3,222.5 66,215 L191.3,215 C194,222.5 201.1,227.9 209.6,227.9 C218.1,227.9 225.2,222.5 227.9,215 L229.8,215 C241.7,215 251.4,205.3 251.4,193.4 L251.4,169.3 C251.4,163.4 249.1,157.8 245,153.6 L237.5,146.4 z M47.6,214.9 C44.1,214.9 41.2,212 41.2,208.5 C41.2,205 44.1,202.1 47.6,202.1 C51.1,202.1 54,205 54,208.5 C54,212 51.1,214.9 47.6,214.9 z M209.4,214.9 C205.9,214.9 203,212 203,208.5 C203,205 205.9,202.1 209.4,202.1 C212.9,202.1 215.8,205 215.8,208.5 C215.8,212 213,214.9 209.4,214.9 z M238.2,193.4 C238.2,198.1 234.4,202 229.6,202 L227.7,202 C225,194.5 217.9,189.1 209.4,189.1 C200.9,189.1 193.8,194.5 191.1,202 L65.9,202 C63.2,194.5 56.1,189.1 47.6,189.1 C39.1,189.1 32,194.5 29.3,202 L24.8,202 C20.1,202 16.2,198.2 16.2,193.4 L16.2,106 C16.2,101.3 20,97.4 24.8,97.4 L166.4,97.4 L166.4,144.6 C166.4,157.5 176.9,168 189.8,168 L238.1,168 C238.2,168.4 238.2,168.8 238.2,169.3 L238.2,193.4 z M238.3,129.2 C254.4,129.2 267.6,116.1 267.6,99.9 C267.6,83.7 254.5,70.6 238.3,70.6 C222.1,70.6 209,83.7 209,99.9 C209,116.1 222.1,129.2 238.3,129.2 z M238.3,57.7 C261.6,57.7 280.6,76.7 280.6,100 C280.6,123.3 261.6,142.3 238.3,142.3 C215,142.3 196,123.3 196,100 C196,76.7 215,57.7 238.3,57.7 z M251.9,92.8 C255.5,92.8 258.4,95.7 258.4,99.3 C258.4,102.9 255.5,105.8 251.9,105.8 L237.8,105.8 C234.2,105.8 231.3,102.9 231.3,99.3 L231.3,83.5 C231.3,79.9 234.2,77 237.8,77 C241.4,77 244.3,79.9 244.3,83.5 L244.3,92.8 L251.9,92.8 z" fill="#000000"/>
  </g>
</svg>
