<?xml version="1.0" encoding="UTF-8"?>
<!DOCTYPE svg PUBLIC "-//W3C//DTD SVG 1.1//EN" "http://www.w3.org/Graphics/SVG/1.1/DTD/svg11.dtd">
<svg version="1.1" xmlns="http://www.w3.org/2000/svg" xmlns:xlink="http://www.w3.org/1999/xlink" x="0" y="0" width="283.5" height="283.5" viewBox="0, 0, 283.5, 283.5">
  <g id="Background">
    <rect x="0" y="0" width="283.5" height="283.5" fill="#FFFFFF"/>
  </g>
  <g id="Layer_1">
    <path d="M276.4,111.4 L250,111.4 C247.6,102.8 244.1,94.5 239.7,86.7 L258.4,68 C259.7,66.7 260.5,64.9 260.5,63 C260.5,61.1 259.8,59.3 258.4,58 L225.6,25.2 C222.8,22.4 218.3,22.4 215.6,25.2 L196.9,43.9 C189.1,39.5 180.8,36 172.2,33.6 L172.2,7.1 C172.2,3.2 169,0 165.1,0 L118.7,0 C114.8,0 111.6,3.2 111.6,7.1 L111.6,33.6 C103,36 94.7,39.5 86.9,43.9 L68,25.1 C66.7,23.8 64.9,23 63,23 C63,23 63,23 63,23 C61.1,23 59.3,23.7 58,25.1 L25.1,57.9 C23.8,59.2 23,61 23,62.9 C23,64.8 23.7,66.6 25.1,67.9 L43.8,86.6 C39.4,94.4 35.9,102.7 33.5,111.3 L7.1,111.3 C3.2,111.3 0,114.5 0,118.4 L0,164.8 C0,168.7 3.2,171.9 7.1,171.9 L33.6,171.9 C36,180.5 39.5,188.8 43.9,196.7 L25.1,215.4 C23.8,216.7 23,218.5 23,220.4 C23,222.3 23.7,224.1 25.1,225.4 L57.9,258.2 C60.7,261 65.2,261 67.9,258.2 L86.6,239.5 C94.4,243.9 102.7,247.4 111.3,249.8 L111.3,276.3 C111.3,280.2 114.5,283.4 118.4,283.4 L165,283.4 C168.9,283.4 172.1,280.2 172.1,276.3 L172.1,249.8 C180.7,247.4 189,243.9 196.8,239.5 L215.5,258.2 C218.3,261 222.8,261 225.5,258.2 L258.3,225.4 C259.6,224.1 260.4,222.3 260.4,220.4 C260.4,218.5 259.7,216.7 258.3,215.4 L239.6,196.7 C244,188.9 247.5,180.6 249.9,171.9 L276.3,171.9 C280.2,171.9 283.4,168.7 283.4,164.8 L283.4,118.4 C283.5,114.6 280.3,111.4 276.4,111.4 z M269.3,157.9 L244.4,157.9 C241.1,157.9 238.2,160.2 237.5,163.4 C235,174.3 230.7,184.6 224.7,194.1 C222.9,196.9 223.3,200.6 225.7,202.9 L243.3,220.5 L220.5,243.3 L202.9,225.7 C200.6,223.4 196.9,223 194.1,224.7 C184.6,230.7 174.3,235 163.4,237.5 C160.2,238.2 157.9,241.1 157.9,244.4 L157.9,269.3 L125.6,269.3 L125.6,244.4 C125.6,241.1 123.3,238.2 120.1,237.5 C109.3,235.1 98.9,230.8 89.4,224.7 C86.6,222.9 82.9,223.3 80.6,225.7 L63,243.3 L40.2,220.5 L57.8,202.9 C60.1,200.6 60.6,196.9 58.8,194.1 C52.8,184.6 48.5,174.3 46,163.4 C45.3,160.2 42.4,157.9 39.1,157.9 L14.2,157.9 L14.2,125.6 L39.1,125.6 C42.4,125.6 45.3,123.3 46,120.1 C48.5,109.2 52.7,98.9 58.7,89.4 C60.5,86.6 60.1,82.9 57.7,80.6 L40.1,62.9 L62.9,40.1 L80.5,57.7 C82.8,60 86.5,60.5 89.3,58.7 C98.8,52.7 109.1,48.4 120,45.9 C123.2,45.2 125.5,42.3 125.5,39 L125.5,14.2 L157.8,14.2 L157.8,39.1 C157.8,42.4 160.1,45.3 163.3,46 C174.2,48.4 184.5,52.7 194,58.8 C196.8,60.6 200.5,60.2 202.8,57.8 L220.4,40.2 L243.2,63 L225.6,80.6 C223.3,82.9 222.9,86.6 224.6,89.4 C230.6,98.9 234.9,109.2 237.4,120.1 C238.1,123.3 241,125.6 244.3,125.6 L269.2,125.6 L269.2,157.9 z M139.6,171.5 C143.5,171.5 146.7,174.7 146.6,178.6 C146.6,182.5 143.4,185.7 139.5,185.7 L97,185.7 C97,185.7 97,185.7 97,185.7 C97,185.7 97,185.7 97,185.7 C96.7,185.7 96.4,185.6 96.1,185.6 C96.1,185.6 96,185.6 95.9,185.6 C95.6,185.6 95.3,185.5 95,185.4 C95,185.4 94.9,185.4 94.9,185.4 C94.6,185.3 94.3,185.1 94,185 C94,184.9 93.9,184.9 93.9,184.9 C93.6,184.8 93.3,184.6 93,184.4 C93,184.3 92.9,184.3 92.9,184.3 C92.9,184.3 92.8,184.2 92.8,184.2 C92.7,184.2 92.6,184.1 92.5,184 C92.4,184 92.3,183.9 92.2,183.8 C92.2,183.8 92.1,183.7 92,183.6 C91.9,183.5 91.8,183.4 91.7,183.3 C91.6,183.3 91.6,183.2 91.5,183.1 C91.5,183 91.4,182.9 91.3,182.8 C91.2,182.7 91.2,182.6 91.1,182.5 C91,182.4 91,182.3 90.9,182.2 C90.8,182.1 90.7,182 90.7,181.9 C90.7,181.8 90.6,181.7 90.6,181.6 C90.6,181.5 90.5,181.4 90.5,181.3 C90.5,181.2 90.4,181.1 90.4,181 C90.4,180.8 90.3,180.7 90.3,180.6 C90.2,180.5 90.2,180.4 90.2,180.3 C90.1,180.1 90.1,180 90.1,179.9 C90,179.8 90,179.7 90,179.6 C90,179.5 90,179.4 90,179.3 C90,179.2 90,179 90,178.9 C90,178.9 90,178.9 90,178.8 C90,178.7 90,178.7 90,178.6 C90,178.5 90,178.3 90,178.2 C90,178.1 90,178 90,177.9 C90.1,177.8 90.1,177.6 90.1,177.5 C90.2,177.4 90.2,177.3 90.2,177.2 C90.2,177 90.3,176.9 90.3,176.8 C90.3,176.7 90.4,176.6 90.4,176.5 C90.4,176.4 90.5,176.3 90.5,176.2 C90.5,176.1 90.6,176 90.6,175.9 C90.6,175.8 90.7,175.7 90.7,175.6 C90.8,175.5 90.8,175.4 90.9,175.3 C91,175.2 91,175.1 91.1,175 C91.1,174.9 91.2,174.8 91.3,174.7 C91.3,174.7 91.4,174.6 91.4,174.6 L125.4,129.2 L97.1,129.2 C93.2,129.2 90,126 90,122.1 C90,118.2 93.2,115 97.1,115 L139.7,115 C139.7,115 139.8,115 139.8,115 C139.9,115 140.1,115 140.2,115 C140.3,115 140.4,115 140.5,115 C140.6,115.1 140.8,115.1 140.9,115.1 C141,115.2 141.1,115.2 141.2,115.2 C141.4,115.2 141.5,115.3 141.6,115.3 C141.7,115.3 141.8,115.4 141.9,115.4 C142,115.4 142.1,115.5 142.2,115.5 C142.3,115.5 142.4,115.6 142.5,115.6 C142.6,115.6 142.7,115.6 142.8,115.7 C142.9,115.8 143,115.8 143.1,115.9 C143.2,116 143.3,116 143.4,116.1 C143.5,116.1 143.6,116.2 143.7,116.3 C143.7,116.3 143.8,116.4 143.8,116.4 C143.8,116.4 143.9,116.5 143.9,116.5 C144,116.5 144.1,116.6 144.2,116.7 C144.3,116.7 144.4,116.8 144.5,116.9 C144.5,116.9 144.6,117 144.7,117.1 C144.8,117.2 144.9,117.3 145,117.4 C145.1,117.4 145.1,117.5 145.2,117.6 C145.2,117.7 145.3,117.8 145.4,117.9 C145.5,118 145.5,118.1 145.6,118.2 C145.7,118.3 145.7,118.4 145.8,118.5 C145.9,118.6 145.9,118.7 146,118.8 C146,118.9 146.1,119 146.1,119.1 C146.1,119.2 146.2,119.3 146.2,119.4 C146.2,119.5 146.3,119.6 146.3,119.7 C146.3,119.9 146.4,120 146.4,120.1 C146.5,120.2 146.5,120.3 146.5,120.4 C146.6,120.6 146.6,120.7 146.6,120.8 C146.7,120.9 146.7,121 146.7,121.1 C146.7,121.2 146.7,121.3 146.7,121.4 C146.7,121.5 146.7,121.7 146.7,121.8 C146.7,121.8 146.7,121.8 146.7,121.9 C146.7,122 146.7,122 146.7,122.1 C146.7,122.2 146.7,122.4 146.7,122.5 C146.7,122.6 146.7,122.7 146.7,122.8 C146.6,122.9 146.6,123.1 146.6,123.2 C146.5,123.3 146.5,123.4 146.5,123.5 C146.5,123.7 146.4,123.8 146.4,123.9 C146.4,124 146.3,124.1 146.3,124.2 C146.3,124.3 146.2,124.4 146.2,124.5 C146.2,124.6 146.1,124.7 146.1,124.8 C146.1,124.9 146,125 146,125.1 C145.9,125.2 145.9,125.3 145.8,125.4 C145.7,125.5 145.7,125.6 145.6,125.7 C145.6,125.8 145.5,125.9 145.4,126 C145.4,126 145.3,126.1 145.3,126.1 L111.3,171.5 L139.6,171.5 z M180.1,124.2 C183.6,122.3 187.9,123.6 189.7,126.8 C191.6,130.2 190.3,134.5 186.9,136.4 L175,142.9 L175,178.4 C175,182.3 171.8,185.5 167.9,185.5 C164,185.5 160.8,182.3 160.8,178.4 L160.8,150.7 L155.7,153.5 C154.6,154.1 153.4,154.4 152.3,154.4 C149.8,154.4 147.4,153.1 146.1,150.7 C144.2,147.3 145.5,143 148.9,141.1 L160.8,134.6 L160.8,93.5 C160.8,89.6 164,86.4 167.9,86.4 C171.8,86.4 175,89.6 175,93.5 L175,127 L180.1,124.2 z" fill="#000000"/>
  </g>
</svg>
