<?xml version="1.0" encoding="UTF-8"?>
<!DOCTYPE svg PUBLIC "-//W3C//DTD SVG 1.1//EN" "http://www.w3.org/Graphics/SVG/1.1/DTD/svg11.dtd">
<svg version="1.1" xmlns="http://www.w3.org/2000/svg" xmlns:xlink="http://www.w3.org/1999/xlink" x="0" y="0" width="283.5" height="283.5" viewBox="0, 0, 283.5, 283.5">
  <g id="Background">
    <rect x="0" y="0" width="283.5" height="283.5" fill="#FFFFFF"/>
  </g>
  <g id="Layer_1">
    <path d="M8.062,253.602 C10.95,254.791 9.834,254.052 11.6,255.5 L27.6,271.5 C30.3,274.1 30.3,278.4 27.6,281.1 C26.3,282.4 24.5,283.1 22.8,283.1 C21.1,283.1 19.3,282.4 18,281.1 L2,265.1 C-0.7,262.5 -0.7,258.2 2,255.5 C4.218,253.409 5.241,253.602 8.062,253.602 z M217.2,14 C232.4,14 245.6,19.1 255.2,28.7 C266.5,40 271.5,56.4 269.4,74.7 C267.2,93.7 257.7,112.5 242.6,127.6 C225.2,145 203,154.9 181.7,154.9 C166.5,154.9 153.3,149.8 143.7,140.2 C132.4,128.9 127.3,112.5 129.5,94.1 C131.7,75.1 141.2,56.3 156.3,41.2 C173.6,23.9 195.8,14 217.2,14 z M128.8,144 C130.4,146 132.1,148 133.9,149.8 C135.7,151.6 137.7,153.3 139.7,154.9 C138.6,155.2 137.3,155.5 136.1,155.8 C132,156.8 128.1,158.1 124.2,159.6 C125.7,155.8 127,151.8 128,147.7 C128.3,146.5 128.6,145.2 128.8,144 z M87.1,196.3 L86.3,203.1 L32.6,256.8 L26.2,250.4 L79.7,196.9 L87.1,196.3 z M217.2,0.4 C192.3,0.4 166.5,11.8 146.7,31.7 C129.4,49 118.5,70.6 116,92.6 C115.1,100.1 115.3,107.4 116.4,114.2 C116.4,114.6 116.4,115.1 116.5,115.5 C118,124.6 117.4,134.6 115,144.4 C112,156.4 106.3,167.4 99,175.3 L92.2,182.1 L76.4,183.4 C74.8,183.5 73.3,184.2 72.1,185.4 L12,245.5 C9.3,248.2 9.3,252.5 12,255.1 L28,271.1 C29.3,272.4 31,273.1 32.8,273.1 C34.6,273.1 36.3,272.4 37.6,271.1 L97.7,211 C98.8,209.9 99.4,208.6 99.6,207.1 L101.6,191.9 L108.6,184.9 C116.5,177.5 127.5,171.9 139.5,168.9 C149.3,166.5 159.3,166 168.4,167.4 C168.9,167.5 169.4,167.5 169.8,167.5 C173.7,168.1 177.7,168.5 181.8,168.5 C206.7,168.5 232.4,157.1 252.3,137.2 C269.6,119.9 280.5,98.3 283,76.3 C285.5,53.7 279.1,33.4 264.8,19.1 C252.8,7.1 235.8,0.4 217.2,0.4 z" fill="#000000"/>
  </g>
</svg>
