<?xml version="1.0" encoding="UTF-8"?>
<!DOCTYPE svg PUBLIC "-//W3C//DTD SVG 1.1//EN" "http://www.w3.org/Graphics/SVG/1.1/DTD/svg11.dtd">
<svg version="1.1" xmlns="http://www.w3.org/2000/svg" xmlns:xlink="http://www.w3.org/1999/xlink" x="0" y="0" width="283.5" height="283.5" viewBox="0, 0, 283.5, 283.5">
  <g id="Background">
    <rect x="0" y="0" width="283.5" height="283.5" fill="#FFFFFF"/>
  </g>
  <g id="Layer_1">
    <path d="M282.9,168.8 L276.8,142 C274.2,130.6 263,121.7 251.4,121.7 L245.3,121.7 L203.6,121.7 L170,85.7 C164.8,80.2 155.3,76 147.7,76 L88.2,76 C80.3,76 71,80.9 66.5,87.5 L43.3,121.7 L34.4,121.7 L22.1,121.7 C9.9,121.6 0,131.5 0,143.8 L0,169.9 C0,182.1 9.9,192 22.1,192 L30.5,192 C33.3,201 41.7,207.6 51.7,207.6 C61.7,207.6 70.1,201 72.9,192 L205,192 C207.8,201 216.2,207.6 226.2,207.6 C236.1,207.6 244.6,201 247.4,192 L264.5,192 C270.6,192 276.1,189.5 279.6,185.1 C283,180.6 284.3,174.7 282.9,168.8 z M160.4,94.5 L185.7,121.6 L133.3,121.6 L133.3,88.9 L147.6,88.9 C151.5,88.9 157.8,91.6 160.4,94.5 z M77.3,94.7 C79.3,91.7 84.6,88.9 88.2,88.9 L120.4,88.9 L120.4,121.6 L59,121.6 L77.3,94.7 z M51.7,194.6 C46.7,194.6 42.6,190.5 42.6,185.5 C42.6,180.5 46.7,176.4 51.7,176.4 C56.7,176.4 60.8,180.5 60.8,185.5 C60.8,185.5 60.8,185.5 60.8,185.5 C60.8,185.5 60.8,185.5 60.8,185.5 C60.8,190.5 56.7,194.6 51.7,194.6 z M226.2,194.6 C221.2,194.6 217.1,190.5 217.1,185.5 C217.1,180.5 221.2,176.4 226.2,176.4 C231.2,176.4 235.3,180.5 235.3,185.5 C235.3,190.5 231.2,194.6 226.2,194.6 z M269.3,176.9 C268.3,178.2 266.5,178.9 264.4,178.9 L247.3,178.9 C244.5,169.9 236.1,163.3 226.1,163.3 C216.2,163.3 207.7,169.9 204.9,178.9 L72.9,178.9 C70.1,169.9 61.7,163.3 51.7,163.3 C41.7,163.3 33.3,169.9 30.5,178.9 L22.1,178.9 C17.1,178.9 13,174.8 13,169.8 L13,143.7 C13,138.7 17.1,134.6 22.1,134.6 L34.3,134.6 L46.6,134.6 C46.6,134.6 46.7,134.6 46.7,134.6 C46.7,134.6 46.8,134.6 46.8,134.6 L245.2,134.6 L251.3,134.6 C256.9,134.6 262.8,139.4 264,144.8 L270.1,171.6 C270.7,173.7 270.4,175.6 269.3,176.9 z" fill="#010202"/>
  </g>
</svg>
