<?xml version="1.0" encoding="UTF-8"?>
<!DOCTYPE svg PUBLIC "-//W3C//DTD SVG 1.1//EN" "http://www.w3.org/Graphics/SVG/1.1/DTD/svg11.dtd">
<svg version="1.1" xmlns="http://www.w3.org/2000/svg" xmlns:xlink="http://www.w3.org/1999/xlink" x="0" y="0" width="283.5" height="283.5" viewBox="0, 0, 283.5, 283.5">
  <g id="Background">
    <rect x="0" y="0" width="283.5" height="283.5" fill="#FFFFFF"/>
  </g>
  <g id="Layer_1">
    <path d="M10.581,216.022 L12.051,216.028 C14.137,216.446 15.681,217.307 17.2,218.7 C19.1,220.6 20.2,223.2 20.2,225.9 C20.2,228.6 19.1,231.2 17.2,233.1 C15.4,235 12.8,236.1 10.1,236.1 C7.4,236.1 4.8,235 2.9,233.1 C1,231.2 -0.1,228.6 -0.1,225.9 C-0.1,223.2 1,220.6 2.9,218.7 C5.394,216.312 7.306,216.119 10.581,216.022 z M276.6,219.1 L55.9,219.1 C52.1,219.1 49,222.2 49,226 C49,229.8 52.1,232.9 55.9,232.9 L276.6,232.9 C280.4,232.9 283.5,229.8 283.5,226 C283.5,222.2 280.4,219.1 276.6,219.1 z M10.581,133.322 C7.306,133.419 5.394,133.612 2.9,136 C1,137.9 -0.1,140.5 -0.1,143.2 C-0.1,145.9 1,148.5 2.9,150.4 C4.8,152.3 7.4,153.4 10.1,153.4 C12.8,153.4 15.4,152.3 17.2,150.4 C19.1,148.5 20.2,145.9 20.2,143.2 C20.2,140.5 19.1,137.9 17.2,136 C15.68,134.607 14.137,133.746 12.051,133.328 L10.581,133.321 z M276.6,136.3 L55.9,136.3 C52.1,136.3 49,139.4 49,143.2 C49,147 52.1,150.1 55.9,150.1 L276.6,150.1 C280.4,150.1 283.5,147 283.5,143.2 C283.5,139.4 280.4,136.3 276.6,136.3 z M10.581,50.522 C7.306,50.619 5.394,50.812 2.9,53.2 C1,55.1 -0.1,57.7 -0.1,60.4 C-0.1,63.1 1,65.7 2.9,67.6 C4.8,69.5 7.4,70.6 10.1,70.6 C12.8,70.6 15.4,69.5 17.2,67.6 C19.1,65.7 20.2,63.1 20.2,60.4 C20.2,57.7 19.1,55.1 17.2,53.2 C15.68,51.807 14.137,50.946 12.051,50.528 L10.581,50.522 z M276.6,53.6 L55.9,53.6 C52.1,53.6 49,56.7 49,60.5 C49,64.3 52.1,67.4 55.9,67.4 L276.6,67.4 C280.4,67.4 283.5,64.3 283.5,60.5 C283.5,56.7 280.4,53.6 276.6,53.6 z" fill="#010202"/>
  </g>
</svg>
