<?xml version="1.0" encoding="UTF-8"?>
<!DOCTYPE svg PUBLIC "-//W3C//DTD SVG 1.1//EN" "http://www.w3.org/Graphics/SVG/1.1/DTD/svg11.dtd">
<svg version="1.1" xmlns="http://www.w3.org/2000/svg" xmlns:xlink="http://www.w3.org/1999/xlink" x="0" y="0" width="283.5" height="283.5" viewBox="0, 0, 283.5, 283.5">
  <g id="Background">
    <rect x="0" y="0" width="283.5" height="283.5" fill="#FFFFFF"/>
  </g>
  <g id="Layer_1">
    <path d="M141.7,283.5 C139.3,283.5 137.1,282.2 135.9,280.1 L106.7,229.5 L33.7,229.5 C30,229.5 27,226.5 27,222.8 L27,6.7 C27,3 30,0 33.7,0 L249.7,0 C253.4,0 256.4,3 256.4,6.7 L256.4,222.7 C256.4,226.4 253.4,229.4 249.7,229.4 L176.8,229.4 L147.6,280 C146.4,282.2 144.1,283.5 141.7,283.5 z M40.5,216 L110.6,216 C113,216 115.2,217.3 116.4,219.4 L141.7,263.3 L167,219.4 C168.2,217.3 170.4,216 172.8,216 L243,216 L243,13.5 L40.5,13.5 L40.5,216 z" fill="#010202"/>
  </g>
</svg>
