<?xml version="1.0" encoding="UTF-8"?>
<!DOCTYPE svg PUBLIC "-//W3C//DTD SVG 1.1//EN" "http://www.w3.org/Graphics/SVG/1.1/DTD/svg11.dtd">
<svg version="1.1" xmlns="http://www.w3.org/2000/svg" xmlns:xlink="http://www.w3.org/1999/xlink" x="0" y="0" width="283.5" height="283.5" viewBox="0, 0, 283.5, 283.5">
  <g id="Background">
    <rect x="0" y="0" width="283.5" height="283.5" fill="#FFFFFF"/>
  </g>
  <g id="Layer_1">
    <path d="M141.7,0 C173,0 202.5,12.2 224.7,34.4 C270.5,80.2 270.5,154.7 224.7,200.5 L141.7,283.5 L58.7,200.5 C12.9,154.7 12.9,80.2 58.7,34.4 C80.9,12.2 110.4,0 141.7,0 z M141.7,13.4 C113.9,13.4 87.8,24.2 68.1,43.9 C27.5,84.5 27.5,150.5 68.1,191.1 L141.7,264.7 L215.3,191.1 C255.9,150.5 255.9,84.5 215.3,43.9 C195.7,24.2 169.5,13.4 141.7,13.4 z M141.7,84 C150.6,84 159,87.5 165.3,93.8 C171.6,100.1 175.1,108.5 175.1,117.4 C175.1,126.3 171.6,134.7 165.3,141 C159.1,147.4 150.7,150.8 141.7,150.8 C132.8,150.8 124.4,147.3 118.1,141 C111.8,134.7 108.3,126.3 108.3,117.4 C108.3,108.5 111.8,100.1 118.1,93.8 C124.4,87.5 132.8,84 141.7,84 z M141.7,97.4 C136.3,97.4 131.3,99.5 127.5,103.3 C123.7,107.1 121.6,112.1 121.6,117.5 C121.6,122.9 123.7,127.9 127.5,131.7 C131.3,135.5 136.3,137.6 141.7,137.6 C147.1,137.6 152.1,135.5 155.9,131.7 C159.7,127.9 161.8,122.9 161.8,117.5 C161.8,112.1 159.7,107.1 155.9,103.3 C152.1,99.4 147.1,97.4 141.7,97.4 z" fill="#010202"/>
  </g>
</svg>
