<?xml version="1.0" encoding="UTF-8"?>
<!DOCTYPE svg PUBLIC "-//W3C//DTD SVG 1.1//EN" "http://www.w3.org/Graphics/SVG/1.1/DTD/svg11.dtd">
<svg version="1.1" xmlns="http://www.w3.org/2000/svg" xmlns:xlink="http://www.w3.org/1999/xlink" x="0" y="0" width="283.5" height="283.5" viewBox="0, 0, 283.5, 283.5">
  <g id="Background">
    <rect x="0" y="0" width="283.5" height="283.5" fill="#FFFFFF"/>
  </g>
  <g id="Layer_1">
    <path d="M141.7,188.3 C195,188.3 243.2,204.3 267.4,230.1 C270,232.8 269.8,237.1 267.1,239.6 C264.4,242.2 260.1,242 257.6,239.3 C236.2,216.5 190.7,201.8 141.7,201.8 C92.3,201.8 46.6,216.7 25.3,239.9 C24,241.2 22.2,242 20.4,242 C18.8,242 17.1,241.4 15.8,240.2 C13.1,237.7 12.9,233.4 15.4,230.7 C39.5,204.5 87.9,188.3 141.7,188.3 z M219.6,98.3 L219.6,98.3 C222.5,98.3 225.1,100 226.2,102.7 C227.6,106.3 225.9,110.5 222.3,111.9 C218.7,113.3 214.5,111.5 213.1,108 C211.7,104.4 213.4,100.3 217,98.8 C217.8,98.5 218.7,98.3 219.6,98.3 z M219.6,84.9 C216.9,84.9 214.4,85.4 211.9,86.4 C201.4,90.6 196.4,102.6 200.6,113.1 C203.7,120.9 211.2,125.9 219.6,125.9 C222.3,125.9 224.8,125.4 227.3,124.5 C237.8,120.3 242.9,108.3 238.7,97.8 C235.5,89.9 228,84.9 219.6,84.9 z M219.6,55 C240.3,55 258.6,67.4 266.3,86.6 C276.7,112.3 264.2,141.7 238.5,152.1 L191.8,170.9 L173,124.2 C167.9,111.8 168,98.1 173.3,85.7 C178.6,73.3 188.3,63.7 200.8,58.7 C206.8,56.2 213.1,55 219.6,55 z M219.7,41.5 C211.5,41.5 203.5,43.1 195.8,46.2 C180,52.5 167.6,64.7 160.9,80.4 C154.3,96.1 154.1,113.5 160.5,129.3 L181.9,182.2 C182.5,183.9 183.9,185.2 185.5,185.9 C186.3,186.2 187.2,186.4 188.1,186.4 C188.9,186.4 189.8,186.2 190.7,185.9 L243.6,164.5 C276.2,151.3 292.1,114 278.9,81.4 C269.1,57.2 245.9,41.5 219.7,41.5 z M63.9,98.3 C64.8,98.3 65.6,98.5 66.5,98.8 C70.1,100.3 71.9,104.4 70.4,108 C69.4,110.7 66.8,112.4 63.9,112.4 C63,112.4 62.1,112.2 61.3,111.9 C57.7,110.4 56,106.3 57.4,102.7 C58.4,100 61,98.3 63.9,98.3 z M63.8,84.8 C55.3,84.8 47.9,89.9 44.7,97.7 C40.5,108.2 45.6,120.2 56.1,124.4 C58.6,125.4 61.2,125.9 63.8,125.9 C72.2,125.9 79.7,120.8 82.9,113 C87.1,102.5 82,90.6 71.5,86.3 C69,85.3 66.4,84.8 63.8,84.8 z M63.9,55 C70.3,55 76.6,56.2 82.7,58.6 C95.2,63.6 104.9,73.2 110.2,85.6 C115.4,98 115.5,111.6 110.5,124.1 L91.7,170.8 L45,152 C19.3,141.6 6.8,112.2 17.2,86.5 C24.9,67.4 43.3,55 63.9,55 z M63.8,41.5 C37.6,41.5 14.4,57.1 4.6,81.4 C-8.5,114.1 7.3,151.4 40,164.5 L92.9,185.9 C93.7,186.2 94.5,186.4 95.4,186.4 C96.3,186.4 97.2,186.2 98,185.9 C99.6,185.2 100.9,183.9 101.6,182.2 L123,129.3 C129.4,113.4 129.3,96.1 122.6,80.4 C115.9,64.7 103.5,52.6 87.7,46.2 C80,43.1 72,41.5 63.8,41.5 z" fill="#000000"/>
  </g>
</svg>
