<?xml version="1.0" encoding="UTF-8"?>
<!DOCTYPE svg PUBLIC "-//W3C//DTD SVG 1.1//EN" "http://www.w3.org/Graphics/SVG/1.1/DTD/svg11.dtd">
<svg version="1.1" xmlns="http://www.w3.org/2000/svg" xmlns:xlink="http://www.w3.org/1999/xlink" x="0" y="0" width="283.5" height="283.5" viewBox="0, 0, 283.5, 283.5">
  <g id="Background">
    <rect x="0" y="0" width="283.5" height="283.5" fill="#FFFFFF"/>
  </g>
  <g id="Layer_1">
    <path d="M239.375,40.053 L190.656,40.053 L190.656,17.9 C190.646,8.35 182.907,0.611 173.357,0.6 L110.143,0.6 C100.593,0.61 92.853,8.35 92.843,17.9 L92.843,40.053 L44.125,40.053 C20.098,40.081 0.627,59.552 0.6,83.579 L0.6,227.045 C0.627,251.072 20.098,270.543 44.125,270.571 L45.657,270.571 L45.657,276.25 C45.72,279.878 48.679,282.786 52.307,282.786 C55.935,282.786 58.894,279.878 58.957,276.25 L58.957,270.571 L226.224,270.571 L226.224,276.25 C226.224,279.923 229.201,282.9 232.874,282.9 C236.547,282.9 239.524,279.923 239.524,276.25 L239.524,270.567 C263.492,270.459 282.873,251.013 282.9,227.045 L282.9,83.579 C282.873,59.552 263.402,40.081 239.375,40.053 z M106.145,17.9 C106.145,15.691 107.936,13.9 110.145,13.9 L173.359,13.9 C175.568,13.9 177.359,15.691 177.359,17.9 L177.359,40.053 L106.149,40.053 z M44.125,257.27 C27.44,257.251 13.919,243.73 13.9,227.045 L13.9,83.579 C13.919,66.894 27.44,53.373 44.125,53.354 L45.657,53.354 L45.657,257.27 z M58.958,257.27 L58.958,53.354 L226.224,53.354 L226.224,257.27 z M269.6,227.045 C269.581,243.671 256.15,257.167 239.524,257.266 L239.524,53.358 C256.15,53.457 269.581,66.953 269.6,83.579 z" fill="#1D1D1B"/>
  </g>
</svg>
