<?xml version="1.0" encoding="UTF-8"?>
<!DOCTYPE svg PUBLIC "-//W3C//DTD SVG 1.1//EN" "http://www.w3.org/Graphics/SVG/1.1/DTD/svg11.dtd">
<svg version="1.1" xmlns="http://www.w3.org/2000/svg" xmlns:xlink="http://www.w3.org/1999/xlink" x="0" y="0" width="283.5" height="283.5" viewBox="0, 0, 283.5, 283.5">
  <g id="Background">
    <rect x="0" y="0" width="283.5" height="283.5" fill="#FFFFFF"/>
  </g>
  <g id="Layer_1">
    <path d="M283.4,50.7 C283.4,50.6 283.4,50.5 283.4,50.4 C283.4,50.3 283.4,50.2 283.3,50 C283.3,49.9 283.2,49.8 283.2,49.7 C283.2,49.6 283.1,49.5 283.1,49.4 C283.1,49.3 283,49.2 283,49.1 C283,49 282.9,48.9 282.9,48.8 C282.9,48.7 282.8,48.6 282.8,48.5 C282.7,48.4 282.7,48.3 282.6,48.2 C282.6,48.1 282.5,48 282.4,47.9 C282.3,47.8 282.3,47.7 282.2,47.6 C282.1,47.5 282.1,47.4 282,47.3 C281.9,47.2 281.9,47.1 281.8,47 C281.7,46.9 281.6,46.7 281.4,46.6 C281.4,46.6 281.3,46.5 281.3,46.5 C281.3,46.5 281.3,46.5 281.3,46.5 C281.2,46.4 281,46.2 280.8,46.1 C280.7,46 280.6,46 280.5,45.9 C280.4,45.8 280.3,45.8 280.2,45.7 C280.1,45.6 280,45.6 279.9,45.5 C279.8,45.4 279.7,45.4 279.6,45.3 C279.5,45.2 279.4,45.2 279.3,45.1 C279.2,45.1 279.1,45 279,45 C278.9,45 278.8,44.9 278.7,44.9 C278.6,44.9 278.5,44.8 278.4,44.8 C278.3,44.8 278.2,44.7 278.1,44.7 C278,44.7 277.9,44.6 277.8,44.6 C277.7,44.6 277.6,44.6 277.4,44.5 C277.3,44.5 277.2,44.5 277.1,44.5 C276.9,44.5 276.7,44.5 276.4,44.5 L6.7,44.5 C6.7,44.5 6.6,44.5 6.6,44.5 C6.4,44.5 6.2,44.5 6,44.5 C5.9,44.5 5.8,44.5 5.6,44.6 C5.5,44.6 5.4,44.6 5.3,44.6 C5.2,44.6 5,44.7 4.9,44.7 C4.8,44.7 4.7,44.7 4.6,44.8 C4.5,44.8 4.4,44.9 4.2,44.9 C4.1,44.9 4,45 3.9,45 C3.8,45 3.7,45.1 3.6,45.1 C3.5,45.1 3.4,45.2 3.3,45.2 C3.2,45.3 3.1,45.3 3,45.4 C2.9,45.5 2.8,45.5 2.7,45.6 C2.6,45.7 2.5,45.8 2.4,45.8 C2.3,45.9 2.3,45.9 2.2,46 C2,46.1 1.9,46.3 1.7,46.4 C1.7,46.4 1.7,46.4 1.7,46.4 C1.7,46.4 1.7,46.4 1.7,46.4 C1.6,46.5 1.4,46.7 1.3,46.9 C1.2,47 1.2,47.1 1.1,47.1 C1,47.2 1,47.3 0.9,47.4 C1.1,47.7 1,47.8 1,47.9 C0.9,48 0.9,48.1 0.8,48.2 C0.7,48.3 0.7,48.4 0.7,48.5 C0.7,48.6 0.6,48.7 0.6,48.8 C0.6,48.9 0.5,49 0.5,49.1 C0.5,49.2 0.4,49.3 0.4,49.4 C0.4,49.5 0.3,49.6 0.3,49.7 C0.3,49.8 0.2,49.9 0.2,50 C0.2,50.1 0.2,50.2 0.1,50.4 C0.1,50.5 0.1,50.6 0.1,50.7 C0.1,50.9 0.1,51.1 0.1,51.4 C0.1,51.4 0.1,51.4 0.1,51.4 L0.1,51.4 C0.1,51.4 0.1,51.4 0.1,51.4 L0.1,231.4 C0.1,235.1 3.1,238.1 6.8,238.1 L276.8,238.1 C280.5,238.1 283.5,235.1 283.5,231.4 L283.5,51.4 C283.5,51.1 283.5,50.9 283.4,50.7 z M260.4,58.1 L156.2,162.2 C152.4,166.1 147.2,168.2 141.7,168.2 C141.7,168.2 141.7,168.2 141.7,168.2 C136.2,168.2 131.1,166.1 127.2,162.2 L23,58.1 L260.4,58.1 z M13.5,224.6 L13.5,67.7 L117.7,171.8 C124.1,178.2 132.6,181.8 141.8,181.8 C141.8,181.8 141.8,181.8 141.8,181.8 C150.9,181.8 159.5,178.3 165.8,171.8 L270,67.7 L270,224.6 L13.5,224.6 z" fill="#010202"/>
  </g>
</svg>
