<?xml version="1.0" encoding="UTF-8"?>
<!DOCTYPE svg PUBLIC "-//W3C//DTD SVG 1.1//EN" "http://www.w3.org/Graphics/SVG/1.1/DTD/svg11.dtd">
<svg version="1.1" xmlns="http://www.w3.org/2000/svg" xmlns:xlink="http://www.w3.org/1999/xlink" x="0" y="0" width="283.5" height="283.5" viewBox="0, 0, 283.5, 283.5">
  <g id="Background">
    <rect x="0" y="0" width="283.5" height="283.5" fill="#FFFFFF"/>
  </g>
  <g id="Layer_1">
    <path d="M52.1,180.7 C54.6,181.7 57.2,182.6 59.8,183.4 C62.5,184.2 65.3,184.9 68.2,185.5 C48.8,199.9 27.4,215.8 23.3,218.9 C20.1,221.3 14.5,227.7 13.8,236.3 C13.1,244 16.6,252 24.2,259.9 C32.3,268.3 40.9,270.1 46.7,270.1 C55.2,270.1 62.1,266.5 65.2,262.9 C73.5,253.3 98.5,218.3 113.1,197.8 L118,202.6 L122.8,207.4 C108,228.3 83.9,261.8 75.5,271.6 C69.2,278.9 58.2,283.5 46.8,283.5 C38.4,283.5 25.9,281 14.6,269.1 C4.3,258.3 -0.5,246.8 0.5,235.1 C1.6,222.6 9.1,212.8 15.3,208.1 C18.9,205.4 35.3,193.2 52.1,180.7 z M235.534,224.852 C232.14,224.965 230.59,225.153 228,227.6 C224.1,231.5 224.1,237.9 228,241.8 C231.9,245.7 238.3,245.7 242.2,241.8 C246.1,237.9 246.1,231.5 242.2,227.6 C240.664,226.213 239.113,225.293 237.021,224.858 L235.534,224.852 z M88.3,13.6 C108.1,13.6 126.7,21.3 140.8,35.3 C159.2,53.7 166.6,80.8 160.3,106.1 C159.7,108.4 160.4,110.8 162.1,112.5 L259.7,210.1 C266.2,216.6 269.8,225.3 269.8,234.6 C269.8,243.9 266.1,252.6 259.6,259.2 C253.1,265.7 244.4,269.3 235.1,269.3 C225.8,269.3 217.1,265.7 210.6,259.2 L113,161.6 C111.7,160.3 110,159.6 108.2,159.6 C107.6,159.6 107.1,159.7 106.5,159.8 C100.5,161.3 94.4,162.1 88.2,162.1 C68.4,162.1 49.7,154.4 35.7,140.4 C15.5,120.1 8.9,90.3 18,63.8 L65.1,110.9 C65.6,111.4 66.2,111.9 66.9,112.2 C72.8,117.4 80.3,120.2 88.2,120.2 C96.8,120.2 105,116.8 111.1,110.7 C123.2,98.6 123.7,79.3 112.6,66.6 C112.3,65.9 111.8,65.3 111.3,64.8 L64.2,17.6 C71.9,15 80.1,13.6 88.3,13.6 z M88.3,0.2 C74.8,0.2 61.4,3.3 49.4,9.3 C47.5,10.3 46.1,12.1 45.7,14.2 C45.3,16.3 46,18.5 47.6,20 L100.4,72.8 C100.7,73.4 101.1,73.9 101.6,74.4 C109,81.8 109,93.7 101.6,101.1 C98,104.7 93.3,106.6 88.2,106.6 C83.2,106.6 78.4,104.6 74.8,101.1 C74.3,100.6 73.8,100.2 73.2,99.9 L20.5,47.2 C19,45.7 16.8,45 14.7,45.3 C12.6,45.7 10.7,47 9.8,49 C-7,82.7 -0.4,123.2 26.3,149.9 C42.9,166.5 64.9,175.6 88.3,175.6 C94.3,175.6 100.3,175 106.2,173.8 L201.2,268.8 C210.3,277.9 222.4,282.9 235.2,282.9 C248,282.9 260.1,277.9 269.2,268.8 C278.3,259.7 283.3,247.6 283.3,234.8 C283.2,221.8 278.2,209.8 269.1,200.7 L174.1,105.7 C180,77 171.1,46.7 150.3,25.9 C133.7,9.3 111.7,0.2 88.3,0.2 z M260,15.5 L267.9,23.4 L251,50 L232.5,51 L233.4,32.4 L260,15.5 z M260.564,0.258 C257.963,0.847 259.02,0.413 257.3,1.3 L223.2,23 C221.4,24.2 220.2,26.2 220.1,28.3 L218.7,55.1 L188,85.9 C188.1,89.1 188,92.4 187.8,95.6 C187.7,97.6 187.4,99.5 187.2,101.5 L189.3,103.6 L228.3,64.6 L255.1,63.2 C257.3,63.1 259.3,61.9 260.4,60.1 L282.1,26 C283.8,23.3 283.4,19.9 281.2,17.6 L265.7,2.2 C264.184,0.928 262.608,0.183 260.564,0.258 z" fill="#010202"/>
  </g>
</svg>
