<?xml version="1.0" encoding="UTF-8"?>
<!DOCTYPE svg PUBLIC "-//W3C//DTD SVG 1.1//EN" "http://www.w3.org/Graphics/SVG/1.1/DTD/svg11.dtd">
<svg version="1.1" xmlns="http://www.w3.org/2000/svg" xmlns:xlink="http://www.w3.org/1999/xlink" x="0" y="0" width="283.5" height="283.5" viewBox="0, 0, 283.5, 283.5">
  <g id="Background">
    <rect x="0" y="0" width="283.5" height="283.5" fill="#FFFFFF"/>
  </g>
  <g id="Layer_1">
    <path d="M6.7,262.4 C3,262.4 -0,259.4 -0,255.7 C-0,252 3,249 6.7,249 L53.9,249 L53.9,148 C53.9,144.3 56.9,141.3 60.6,141.3 L107.8,141.3 L107.8,40.3 C107.8,36.6 110.8,33.6 114.5,33.6 L168.3,33.6 C172,33.6 175,36.6 175,40.3 L175,87.5 L222.1,87.5 C225.8,87.5 228.8,90.5 228.8,94.2 L228.8,249 L276,249 C279.7,249 282.7,252 282.7,255.7 C282.7,259.4 279.7,262.4 276,262.4 L6.7,262.4 z M161.6,47 L121.2,47 L121.2,249 L161.6,249 L161.6,47 z M215.4,100.9 L175,100.9 L175,249 L215.4,249 L215.4,100.9 z M107.7,154.8 L67.3,154.8 L67.3,249 L107.7,249 L107.7,154.8 z" fill="#000000"/>
  </g>
</svg>
