<?xml version="1.0" encoding="UTF-8"?>
<!DOCTYPE svg PUBLIC "-//W3C//DTD SVG 1.1//EN" "http://www.w3.org/Graphics/SVG/1.1/DTD/svg11.dtd">
<svg version="1.1" xmlns="http://www.w3.org/2000/svg" xmlns:xlink="http://www.w3.org/1999/xlink" x="0" y="0" width="283.5" height="283.5" viewBox="0, 0, 283.5, 283.5">
  <g id="Background">
    <rect x="0" y="0" width="283.5" height="283.5" fill="#FFFFFF"/>
  </g>
  <g id="Layer_1">
    <path d="M267.1,0 C263,0 259.6,3.3 259.6,7.5 L259.6,134.3 L191,134.3 L191,7.5 C191,3.4 187.7,0 183.5,0 C179.4,0 176,3.3 176,7.5 L176,134.3 L107.3,134.3 L107.3,7.5 C107.3,3.4 104,0 99.8,0 C95.6,0 92.3,3.3 92.3,7.5 L92.3,134.3 L23.8,134.3 L23.8,7.5 C23.8,3.4 20.5,0 16.3,0 C12.1,0 8.9,3.3 8.9,7.5 L8.9,141.8 C8.9,145.9 12.2,149.3 16.4,149.3 L92.5,149.3 L92.5,276 C92.5,280.1 95.8,283.5 100,283.5 C104.2,283.5 107.5,280.2 107.5,276 L107.5,149.2 L176,149.2 L176,276 C176,280.1 179.3,283.5 183.5,283.5 C187.6,283.5 191,280.2 191,276 L191,149.2 L259.7,149.2 L259.7,276 C259.7,280.1 263,283.5 267.2,283.5 C271.3,283.5 274.7,280.2 274.7,276 L274.7,7.5 C274.6,3.3 271.2,0 267.1,0 z" fill="#010202"/>
  </g>
</svg>
