<?xml version="1.0" encoding="UTF-8"?>
<!DOCTYPE svg PUBLIC "-//W3C//DTD SVG 1.1//EN" "http://www.w3.org/Graphics/SVG/1.1/DTD/svg11.dtd">
<svg version="1.1" xmlns="http://www.w3.org/2000/svg" xmlns:xlink="http://www.w3.org/1999/xlink" x="0" y="0" width="283.5" height="283.5" viewBox="0, 0, 283.5, 283.5">
  <g id="Background">
    <rect x="0" y="0" width="283.5" height="283.5" fill="#FFFFFF"/>
  </g>
  <g id="Layer_1">
    <path d="M204.5,41 C208.3,41 211.4,44 211.3,47.8 L211.3,235.7 C211.3,239.4 208.3,242.5 204.5,242.5 C200.8,242.5 197.7,239.5 197.7,235.7 L197.7,47.8 C197.7,44.1 200.7,41 204.5,41 z M44.5,178.4 L93.2,195.8 L90.2,203.3 C89.8,204.4 88.9,205.3 87.8,205.8 C86.7,206.3 85.5,206.3 84.4,205.9 L44.5,190.5 C42.2,189.6 41.1,187 42,184.7 L44.5,178.4 z M176.8,72.2 L176.8,211.2 L17.5,154.1 C16.2,153.6 14.9,153.6 13.6,153.9 L13.6,129.5 C14.1,129.6 14.6,129.7 15.2,129.7 C16,129.7 16.7,129.6 17.5,129.3 L176.8,72.2 z M183.6,41 C179.8,41 176.8,44.1 176.8,47.8 L176.8,57.9 C176.3,58 175.9,58.1 175.4,58.2 L13.6,116.2 L13.6,116.1 C13.6,112.3 10.5,109.3 6.8,109.3 C3.1,109.3 0,112.3 0,116.1 L0,167.4 C0,171.2 3.1,174.2 6.8,174.2 C10.5,174.2 13.6,171.1 13.6,167.4 L13.6,167.3 L31.6,173.7 L29.3,179.7 C25.7,189 30.4,199.5 39.7,203.1 L79.6,218.5 C81.7,219.3 83.9,219.7 86.1,219.7 C88.6,219.7 91.1,219.2 93.4,218.1 C97.8,216.1 101.2,212.6 103,208.1 L106,200.3 L175.4,225.2 C175.9,225.4 176.3,225.5 176.8,225.5 L176.8,235.6 C176.8,239.4 179.9,242.4 183.6,242.4 C187.4,242.4 190.4,239.3 190.4,235.6 L190.4,47.8 C190.5,44 187.4,41 183.6,41 z M255.456,80.702 C252.609,80.702 251.562,80.526 249.3,82.6 C246.6,85.3 246.6,89.6 249.3,92.3 C262.5,105.5 269.8,123.1 269.8,141.8 C269.8,160.5 262.5,178.1 249.3,191.3 C246.6,194 246.6,198.3 249.3,201 C250.6,202.3 252.4,203 254.1,203 C255.8,203 257.6,202.3 258.9,201 C274.7,185.2 283.4,164.2 283.4,141.9 C283.5,119.4 274.8,98.4 259,82.6 C257.232,81.152 258.35,81.891 255.456,80.702 z M227.288,107.116 L226.338,107.177 C223.454,108.316 224.572,107.601 222.8,109 C220.1,111.7 220.1,116 222.8,118.7 C235.5,131.4 235.5,152.1 222.8,164.8 C220.1,167.5 220.1,171.8 222.8,174.5 C224.1,175.8 225.9,176.5 227.6,176.5 C229.3,176.5 231.1,175.8 232.4,174.5 C250.4,156.5 250.4,127.2 232.4,109.1 C230.867,107.875 229.324,107.008 227.288,107.116 z" fill="#000000"/>
  </g>
</svg>
