<?xml version="1.0" encoding="UTF-8"?>
<!DOCTYPE svg PUBLIC "-//W3C//DTD SVG 1.1//EN" "http://www.w3.org/Graphics/SVG/1.1/DTD/svg11.dtd">
<svg version="1.1" xmlns="http://www.w3.org/2000/svg" xmlns:xlink="http://www.w3.org/1999/xlink" x="0" y="0" width="283.5" height="283.5" viewBox="0, 0, 283.5, 283.5">
  <g id="Background">
    <rect x="0" y="0" width="283.5" height="283.5" fill="#FFFFFF"/>
  </g>
  <g id="Layer_1">
    <path d="M165.7,144.8 C173.5,144.8 181.7,150.1 184.9,157.2 L220.7,236.4 C222.6,240.6 222.4,245 220.2,248.4 C218,251.8 214,253.8 209.4,253.8 L74.3,253.8 C69.6,253.8 65.7,251.8 63.5,248.4 C61.3,245 61.1,240.6 63,236.4 L98.6,157.2 C101.8,150.1 110,144.8 117.8,144.8 L165.7,144.8 z M165.6,156.8 L117.7,156.8 C114.8,156.8 110.8,159.4 109.6,162.1 L74,241.3 C74,241.4 73.9,241.5 73.9,241.6 L209.4,241.6 C209.4,241.5 209.3,241.4 209.3,241.3 L173.7,162.1 C172.5,159.4 168.6,156.8 165.6,156.8 z M277.4,151.8 C274.1,151.8 271.3,154.5 271.3,157.9 C271.3,177.9 255,194.2 235,194.2 L229.5,194.2 C226.2,194.2 223.4,196.9 223.4,200.3 C223.4,203.6 226.1,206.4 229.5,206.4 L235,206.4 C261.7,206.4 283.4,184.7 283.4,158 C283.5,154.5 280.8,151.8 277.4,151.8 z M6.1,151.8 C2.7,151.8 0,154.5 0,157.9 C0,184.6 21.7,206.3 48.4,206.3 L54,206.3 C57.3,206.3 60.1,203.6 60.1,200.2 C60,196.9 57.3,194.2 54,194.2 L48.5,194.2 C28.5,194.2 12.2,177.9 12.2,157.9 C12.2,154.6 9.5,151.8 6.1,151.8 z M30.2,124.2 C26.8,124.2 24.1,126.9 24.1,130.3 L24.1,157.9 C24.1,171.3 35,182.1 48.3,182.1 L64.4,182.1 C67.7,182.1 70.5,179.4 70.5,176 C70.5,172.7 67.8,169.9 64.4,169.9 L48.4,169.9 C41.8,170 36.3,164.5 36.3,157.9 L36.3,130.3 C36.3,127 33.6,124.2 30.2,124.2 z M253.1,124.2 C249.8,124.2 247,126.9 247,130.3 L247,157.9 C247,164.6 241.6,170 234.9,170 L218.8,170 C215.5,170 212.7,172.7 212.7,176.1 C212.8,179.4 215.6,182.1 218.9,182.1 L235,182.1 C248.4,182.1 259.2,171.2 259.2,157.9 L259.2,130.3 C259.2,127 256.5,124.2 253.1,124.2 z M141.7,96.4 C124.8,96.4 109.3,106.3 102.3,121.7 C100.9,124.7 102.3,128.3 105.3,129.7 C108.3,131.1 111.9,129.8 113.3,126.7 C118.4,115.6 129.5,108.5 141.7,108.5 C153.9,108.5 165,115.7 170.1,126.7 C171.1,128.9 173.3,130.2 175.6,130.2 C176.4,130.2 177.3,130 178.1,129.7 C181.1,128.3 182.5,124.7 181.1,121.7 C174.1,106.3 158.6,96.4 141.7,96.4 z M30.3,70.9 C39,70.9 46,77.9 46,86.6 C46,95.3 38.9,102.3 30.3,102.3 C21.7,102.3 14.6,95.2 14.6,86.6 C14.5,77.9 21.6,70.9 30.3,70.9 z M30.3,58.7 C14.9,58.7 2.4,71.3 2.4,86.6 C2.4,102 14.9,114.5 30.3,114.5 C45.7,114.5 58.2,102 58.2,86.6 C58.2,71.2 45.7,58.7 30.3,58.7 z M253.2,70.9 C261.9,70.9 268.9,78 268.9,86.6 C268.9,95.3 261.8,102.3 253.2,102.3 C244.5,102.3 237.5,95.2 237.5,86.6 C237.4,77.9 244.5,70.9 253.2,70.9 z M253.2,58.7 C237.8,58.7 225.3,71.2 225.3,86.6 C225.3,102 237.8,114.5 253.2,114.5 C268.6,114.5 281.1,102 281.1,86.6 C281.1,71.2 268.6,58.7 253.2,58.7 z M141.7,41.8 C150.4,41.8 157.4,48.9 157.4,57.5 C157.4,66.2 150.3,73.2 141.7,73.2 C133,73.2 126,66.1 126,57.5 C126,48.9 133,41.8 141.7,41.8 z M141.7,29.6 C126.3,29.6 113.8,42.1 113.8,57.5 C113.9,72.9 126.4,85.4 141.7,85.4 C157.1,85.4 169.6,72.9 169.6,57.5 C169.6,42.1 157.1,29.6 141.7,29.6 z" fill="#010202"/>
  </g>
</svg>
