<?xml version="1.0" encoding="UTF-8"?>
<!DOCTYPE svg PUBLIC "-//W3C//DTD SVG 1.1//EN" "http://www.w3.org/Graphics/SVG/1.1/DTD/svg11.dtd">
<svg version="1.1" xmlns="http://www.w3.org/2000/svg" xmlns:xlink="http://www.w3.org/1999/xlink" x="0" y="0" width="283.5" height="283.5" viewBox="0, 0, 283.5, 283.5">
  <g id="Background">
    <rect x="0" y="0" width="283.5" height="283.5" fill="#FFFFFF"/>
  </g>
  <g id="Layer_1">
    <path d="M168.8,139 C173.3,139 177.8,142.1 179.4,146.3 L212,232.9 C213,235.6 212.7,238.3 211.2,240.5 C209.7,242.7 207.2,243.9 204.4,243.9 L79,243.9 C76.2,243.9 73.7,242.7 72.2,240.5 C70.7,238.3 70.4,235.6 71.4,232.9 L104.1,146.3 C105.7,142.1 110.2,139 114.7,139 L168.8,139 z M168.8,149.5 L114.7,149.5 C114.5,149.5 114,149.9 113.9,150.1 L82.4,233.4 L201.1,233.4 L169.6,150 C169.5,149.9 169,149.5 168.8,149.5 z M5.3,196.7 C2.4,196.7 0.1,199 0.1,201.9 C0.1,225 18.9,243.9 42.1,243.9 L46.9,243.9 C49.8,243.9 52.1,241.6 52.1,238.7 C52.1,235.8 49.7,233.4 46.8,233.4 L42,233.4 C24.6,233.4 10.5,219.3 10.5,201.9 C10.5,199 8.2,196.7 5.3,196.7 z M278.2,196.7 C275.3,196.7 273,199 273,201.9 C273,219.3 258.9,233.4 241.5,233.4 L236.7,233.4 C233.8,233.4 231.5,235.7 231.5,238.6 C231.5,241.5 233.8,243.8 236.7,243.8 L241.5,243.8 C264.6,243.8 283.5,225 283.5,201.8 C283.5,199 281.1,196.7 278.2,196.7 z M26.3,172.8 C23.4,172.8 21.1,175.1 21.1,178 L21.1,201.9 C21.1,213.5 30.5,222.9 42.1,222.9 L56.1,222.9 C59,222.9 61.3,220.6 61.3,217.7 C61.3,214.8 58.8,212.4 55.9,212.4 L42,212.4 C36.2,212.4 31.5,207.7 31.5,201.9 L31.5,178 C31.5,175.1 29.2,172.8 26.3,172.8 z M257.3,172.8 C254.4,172.8 252.1,175.1 252.1,178 L252.1,201.9 C252.1,207.7 247.4,212.4 241.6,212.4 L227.6,212.4 C224.7,212.4 222.4,214.7 222.4,217.6 C222.4,220.5 224.7,222.8 227.6,222.8 L241.6,222.8 C253.1,222.9 262.5,213.5 262.5,201.9 L262.5,178 C262.5,175.1 260.2,172.8 257.3,172.8 z M257.3,126.6 C264.8,126.6 270.9,132.7 270.9,140.2 C270.9,147.7 264.8,153.8 257.3,153.8 C249.8,153.8 243.7,147.7 243.7,140.2 C243.7,132.7 249.8,126.6 257.3,126.6 z M257.2,116.1 C243.9,116.1 233.1,126.9 233.1,140.2 C233.1,153.5 243.9,164.3 257.2,164.3 C270.5,164.3 281.3,153.5 281.3,140.2 C281.3,126.9 270.5,116.1 257.2,116.1 z M26.2,126.6 C33.7,126.6 39.8,132.7 39.8,140.2 C39.8,147.7 33.7,153.8 26.2,153.8 C18.7,153.8 12.6,147.7 12.6,140.2 C12.6,132.7 18.7,126.6 26.2,126.6 z M26.2,116.1 C12.9,116.1 2.1,126.9 2.1,140.2 C2.1,153.5 12.9,164.3 26.2,164.3 C39.5,164.3 50.3,153.5 50.3,140.2 C50.3,126.9 39.5,116.1 26.2,116.1 z M141.9,97.4 C127.3,97.4 113.9,106 107.8,119.3 C106.4,121.9 107.5,125 110.2,126.2 C112.8,127.4 115.9,126.3 117.2,123.6 C121.6,114 131.3,107.8 141.8,107.8 C152.4,107.8 162,114 166.4,123.6 C167.3,125.5 169.2,126.7 171.2,126.7 C171.9,126.7 172.7,126.5 173.4,126.2 C176,125 177.2,121.9 176,119.3 C169.9,106 156.5,97.4 141.9,97.4 z M46.88,84.636 L44.563,84.73 C37.368,85.54 31.048,89.556 27,95.5 C25.4,97.9 26.1,101.2 28.5,102.8 C30.9,104.4 34.2,103.7 35.8,101.3 C39.9,95 48.4,93.2 54.7,97.3 C61,101.4 62.8,109.9 58.7,116.2 C57.1,118.6 57.8,121.9 60.2,123.5 C61.1,124.1 62.1,124.4 63.1,124.4 C64.8,124.4 66.5,123.6 67.5,122 C74.7,110.8 71.5,95.8 60.4,88.5 C56.922,86.459 53.302,84.915 49.205,84.653 L46.88,84.636 z M236.082,84.637 L234.339,84.653 C229.981,85.436 226.88,85.924 223.1,88.5 C212,95.8 208.8,110.7 216.1,121.9 C217.1,123.4 218.8,124.3 220.5,124.3 C221.5,124.3 222.5,124 223.4,123.4 C225.7,121.9 226.4,118.6 224.8,116.2 C220.7,109.9 222.5,101.4 228.8,97.3 C235.1,93.2 243.6,95 247.7,101.3 C249.3,103.7 252.5,104.4 255,102.8 C257.4,101.2 258.1,98 256.5,95.5 C251.399,88.88 244.607,84.731 236.082,84.637 z M141.7,50.1 C149.2,50.1 155.3,56.2 155.3,63.7 C155.3,71.2 149.2,77.3 141.7,77.3 C134.2,77.3 128.1,71.2 128.1,63.7 C128.1,56.2 134.2,50.1 141.7,50.1 z M141.7,39.6 C128.4,39.6 117.6,50.4 117.6,63.7 C117.6,77 128.4,87.8 141.7,87.8 C155,87.8 165.8,77 165.8,63.7 C165.8,50.4 155,39.6 141.7,39.6 z" fill="#010202"/>
  </g>
</svg>
