<?xml version="1.0" encoding="UTF-8"?>
<!DOCTYPE svg PUBLIC "-//W3C//DTD SVG 1.1//EN" "http://www.w3.org/Graphics/SVG/1.1/DTD/svg11.dtd">
<svg version="1.1" xmlns="http://www.w3.org/2000/svg" xmlns:xlink="http://www.w3.org/1999/xlink" x="0" y="0" width="283.5" height="283.5" viewBox="0, 0, 283.5, 283.5">
  <g id="Background">
    <rect x="0" y="0" width="283.5" height="283.5" fill="#FFFFFF"/>
  </g>
  <g id="Layer_1">
    <path d="M5.3,203 C8.2,203 10.5,205.3 10.5,208.2 C10.5,225.6 24.6,239.7 42,239.7 L46.8,239.7 C49.7,239.7 52,242 52.1,245 C52.1,247.9 49.8,250.2 46.9,250.2 L42.1,250.2 C18.9,250.2 0.1,231.3 0.1,208.2 C0.1,205.3 2.4,203 5.3,203 z M169.2,145.3 L201.3,239.7 L82.1,239.7 L114.2,145.3 L169.2,145.3 z M172.9,134.7 L110.4,134.7 C108.2,134.7 106.2,136.1 105.4,138.3 L69.8,243.2 C69.3,244.8 69.5,246.6 70.5,247.9 C71.5,249.3 73.1,250.1 74.8,250.1 L208.6,250.1 C210.3,250.1 211.9,249.3 212.9,247.9 C213.9,246.5 214.1,244.8 213.6,243.2 L177.9,138.3 C177.2,136.2 175.2,134.7 172.9,134.7 z M278.2,203 C275.3,203 273,205.3 273,208.2 C273,225.6 258.9,239.7 241.5,239.7 L236.7,239.7 C233.8,239.7 231.5,242 231.5,244.9 C231.5,247.8 233.8,250.1 236.7,250.1 L241.5,250.1 C264.6,250.1 283.5,231.3 283.5,208.1 C283.5,205.3 281.1,203 278.2,203 z M26.3,179.1 C23.4,179.1 21.1,181.4 21.1,184.3 L21.1,208.2 C21.1,219.8 30.5,229.2 42.1,229.2 L56.1,229.2 C59,229.2 61.3,226.9 61.3,224 C61.2,221.1 58.8,218.7 55.9,218.7 L42,218.7 C36.2,218.7 31.5,214 31.5,208.2 L31.5,184.3 C31.5,181.4 29.2,179.1 26.3,179.1 z M257.3,179.1 C254.4,179.1 252.1,181.4 252.1,184.3 L252.1,208.2 C252.1,214 247.4,218.7 241.6,218.7 L227.6,218.7 C224.7,218.7 222.4,221 222.4,223.9 C222.4,226.8 224.7,229.1 227.6,229.1 L241.6,229.1 C253.1,229.2 262.5,219.8 262.5,208.2 L262.5,184.3 C262.5,181.4 260.2,179.1 257.3,179.1 z M26.2,132.9 C33.7,132.9 39.8,139 39.8,146.5 C39.8,154 33.7,160.1 26.2,160.1 C18.7,160.1 12.6,154 12.6,146.5 C12.6,139 18.7,132.9 26.2,132.9 z M26.2,122.4 C12.9,122.4 2.1,133.2 2.1,146.5 C2.1,159.8 12.9,170.6 26.2,170.6 C39.5,170.6 50.3,159.8 50.3,146.5 C50.3,133.2 39.5,122.4 26.2,122.4 z M257.3,132.9 C264.8,132.9 270.9,139 270.9,146.5 C270.9,154 264.8,160.1 257.3,160.1 C249.8,160.1 243.7,154 243.7,146.5 C243.7,139 249.8,132.9 257.3,132.9 z M257.2,122.4 C243.9,122.4 233.1,133.2 233.1,146.5 C233.1,159.8 243.9,170.6 257.2,170.6 C270.5,170.6 281.3,159.8 281.3,146.5 C281.3,133.2 270.5,122.4 257.2,122.4 z M45.747,91.077 C44.585,91.121 43.445,91.292 42.3,91.5 C36,92.8 30.6,96.5 27.1,101.9 C25.5,104.3 26.2,107.6 28.6,109.2 C31,110.8 34.3,110.1 35.9,107.7 C37.9,104.7 40.9,102.6 44.5,101.8 C48.1,101.1 51.7,101.7 54.8,103.7 C57.9,105.7 59.9,108.7 60.7,112.3 C61.5,115.9 60.8,119.5 58.8,122.6 C57.2,125 57.9,128.3 60.3,129.9 C61.2,130.5 62.2,130.8 63.2,130.8 C64.9,130.8 66.6,130 67.6,128.4 C70.9,122.8 72.1,116.4 70.8,110.1 C69.5,103.8 65.8,98.4 60.4,94.9 C56.968,92.903 53.401,91.374 49.372,91.082 C48.164,91.091 46.955,91.096 45.747,91.077 z M237.842,90.976 C236.629,90.988 235.415,90.998 234.202,90.982 C229.995,91.768 226.826,92.284 223.2,94.8 C217.8,98.3 214.1,103.7 212.8,110 C211.5,116.3 212.7,122.8 216.2,128.1 C217.2,129.6 218.9,130.5 220.6,130.5 C221.6,130.5 222.6,130.2 223.5,129.6 C225.7,128.2 226.4,124.9 224.8,122.5 C222.8,119.5 222.1,115.8 222.9,112.2 C223.7,108.6 225.7,105.6 228.8,103.6 C231.8,101.6 235.5,100.9 239.1,101.7 C242.7,102.5 245.7,104.5 247.7,107.6 C249.3,110 252.5,110.7 255,109.1 C257.4,107.5 258.1,104.3 256.5,101.8 C253,96.4 247.6,92.7 241.3,91.4 C240.153,91.218 239.008,90.97 237.842,90.976 z M141.7,91 C127.1,91 113.7,99.6 107.6,112.9 C106.4,115.6 107.5,118.7 110.2,119.9 C112.8,121.1 115.9,120 117.2,117.3 C121.6,107.7 131.3,101.5 141.8,101.5 C152.4,101.5 162,107.7 166.4,117.3 C167.3,119.2 169.2,120.4 171.2,120.4 C171.9,120.4 172.7,120.2 173.4,119.9 C176,118.7 177.2,115.6 176,112.9 C169.8,99.6 156.4,91 141.7,91 z M215.306,59.552 L212.989,59.622 C208.998,60.037 205.212,61.46 201.9,63.7 C190.9,71.2 188.1,86.3 195.6,97.2 C196.4,98.7 198,99.5 199.7,99.5 C200.7,99.5 201.7,99.2 202.7,98.6 C205.1,97 205.7,93.7 204.1,91.3 C199.9,85.1 201.5,76.6 207.7,72.3 C213.9,68.1 222.4,69.7 226.7,75.9 C228.3,78.3 231.6,78.9 234,77.3 C236.4,75.7 237,72.4 235.4,70 C230.94,64.125 225.059,60.392 217.63,59.595 L215.306,59.552 z M68.298,59.415 L66.129,59.495 C64.615,59.779 63.067,59.919 61.587,60.347 C56.189,61.908 51.607,65.319 48.4,69.9 C46.6,72.3 47.2,75.6 49.6,77.2 C52,78.8 55.3,78.2 56.9,75.8 C61.1,69.6 69.6,68 75.9,72.2 C82.1,76.4 83.7,84.9 79.5,91.2 C77.9,93.6 78.5,96.9 80.9,98.5 C81.8,99.1 82.8,99.4 83.9,99.4 C85.6,99.4 87.2,98.6 88.2,97.1 C95.7,86.1 92.9,71.1 81.9,63.6 C77.672,61.179 73.261,59.396 68.298,59.415 z M141.7,43.8 C149.2,43.8 155.3,49.9 155.3,57.4 C155.3,64.9 149.2,71 141.7,71 C134.2,71 128.1,64.9 128.1,57.4 C128.1,49.9 134.2,43.8 141.7,43.8 z M141.7,33.3 C128.4,33.3 117.6,44.1 117.6,57.4 C117.6,70.7 128.4,81.5 141.7,81.5 C155,81.5 165.8,70.7 165.8,57.4 C165.8,44.1 155,33.3 141.7,33.3 z" fill="#010202"/>
  </g>
</svg>
