<?xml version="1.0" encoding="UTF-8"?>
<!DOCTYPE svg PUBLIC "-//W3C//DTD SVG 1.1//EN" "http://www.w3.org/Graphics/SVG/1.1/DTD/svg11.dtd">
<svg version="1.1" xmlns="http://www.w3.org/2000/svg" xmlns:xlink="http://www.w3.org/1999/xlink" x="0" y="0" width="283.5" height="283.5" viewBox="0, 0, 283.5, 283.5">
  <g id="Background">
    <rect x="0" y="0" width="283.5" height="283.5" fill="#FFFFFF"/>
  </g>
  <g id="Layer_1">
    <path d="M5.3,205.7 C8.2,205.7 10.5,208 10.5,210.9 C10.5,228.3 24.6,242.4 42,242.4 L46.8,242.4 C49.7,242.4 52,244.9 52,247.8 C52,250.7 49.7,253 46.8,253 L42,253 C18.8,253 0,234.1 0,211 C0,208.1 2.4,205.7 5.3,205.7 z M158.7,106 L201.6,242.4 L82,242.4 L124.9,106 L158.7,106 z M162.6,95.5 L121,95.5 C118.7,95.5 116.7,97 116,99.2 L69.8,246.1 C69.3,247.7 69.6,249.4 70.6,250.8 C71.6,252.1 73.2,252.9 74.8,252.9 L208.7,252.9 C210.4,252.9 211.9,252.1 212.9,250.8 C213.9,249.5 214.2,247.7 213.7,246.1 L167.6,99.2 C166.9,97 164.9,95.5 162.6,95.5 z M278.2,205.7 C275.3,205.7 273,208 273,210.9 C273,228.3 258.9,242.4 241.5,242.4 L236.7,242.4 C233.8,242.4 231.5,244.7 231.5,247.6 C231.5,250.5 233.8,252.8 236.7,252.8 L241.5,252.8 C264.6,252.8 283.5,234 283.5,210.8 C283.5,208.1 281.1,205.7 278.2,205.7 z M26.3,181.8 C23.4,181.8 21,184.1 21,187 L21,211 C21,222.6 30.4,232 42,232 L56,232 C58.9,232 61.2,229.7 61.2,226.8 C61.2,223.8 58.8,221.5 56,221.5 L42,221.5 C36.2,221.5 31.5,216.8 31.5,211 L31.5,187 C31.5,184.1 29.2,181.8 26.3,181.8 z M257.4,181.8 C254.5,181.8 252.2,184.2 252.2,187 L252.2,211 C252.2,216.8 247.5,221.5 241.7,221.5 L227.7,221.5 C224.8,221.5 222.5,223.9 222.5,226.7 C222.5,229.6 224.8,231.9 227.7,231.9 L241.7,231.9 C253.2,231.9 262.6,222.5 262.6,211 L262.6,187 C262.6,184.1 260.2,181.8 257.4,181.8 z M26.2,135.6 C33.7,135.6 39.8,141.7 39.8,149.2 C39.8,156.7 33.7,162.8 26.2,162.8 C18.7,162.8 12.6,156.7 12.6,149.2 C12.6,141.7 18.7,135.6 26.2,135.6 z M26.2,125.2 C12.9,125.2 2.1,135.9 2.1,149.2 C2.1,162.5 12.9,173.4 26.2,173.4 C39.5,173.4 50.3,162.6 50.3,149.3 C50.3,136 39.5,125.2 26.2,125.2 z M257.4,135.6 C264.9,135.6 271,141.7 271,149.2 C271,156.7 264.9,162.8 257.4,162.8 C249.9,162.8 243.8,156.7 243.8,149.2 C243.8,141.7 249.9,135.6 257.4,135.6 z M257.3,125.1 C244.1,125.1 233.2,135.9 233.2,149.2 C233.2,162.5 244,173.3 257.3,173.3 C270.6,173.3 281.4,162.5 281.4,149.2 C281.4,135.9 270.6,125.1 257.3,125.1 z M46.881,93.736 L44.563,93.83 C37.368,94.64 31.048,98.656 27,104.6 C25.4,107 26.1,110.3 28.5,111.9 C30.9,113.5 34.2,112.8 35.8,110.4 C39.9,104.1 48.4,102.3 54.7,106.4 C57.8,108.4 59.8,111.5 60.6,115 C61.4,118.6 60.7,122.2 58.7,125.3 C57.1,127.7 57.8,131 60.2,132.6 C61.1,133.2 62.1,133.5 63.1,133.5 C64.8,133.5 66.5,132.7 67.5,131.1 C71,125.5 72.2,119.1 70.8,112.8 C69.5,106.5 65.8,101.1 60.4,97.6 C56.922,95.559 53.302,94.015 49.205,93.753 L46.881,93.736 z M236.139,93.637 L234.395,93.653 C230.045,94.436 226.966,94.916 223.2,97.5 C212.1,104.8 208.9,119.8 216.2,130.9 C217.2,132.4 218.9,133.3 220.6,133.3 C221.6,133.3 222.6,133 223.5,132.4 C225.8,130.9 226.5,127.6 224.9,125.2 C220.8,118.9 222.6,110.4 228.9,106.3 C235.2,102.2 243.7,104 247.8,110.3 C249.4,112.7 252.6,113.4 255.1,111.8 C257.5,110.2 258.2,107 256.6,104.5 C251.487,97.872 244.673,93.733 236.139,93.637 z M67.088,62.677 C65.912,62.722 64.759,62.893 63.6,63.1 C57.3,64.4 51.9,68.1 48.4,73.5 C46.6,75.8 47.3,79.1 49.8,80.7 C52.2,82.3 55.5,81.6 57.1,79.2 C59.1,76.1 62.1,74.1 65.7,73.3 C69.3,72.5 72.9,73.2 76,75.2 C79.1,77.2 81.1,80.3 81.9,83.8 C82.7,87.4 82,91 80,94.1 C78.4,96.5 79.1,99.8 81.5,101.4 C82.4,102 83.4,102.3 84.4,102.3 C86.1,102.3 87.8,101.5 88.8,99.9 C92.3,94.5 93.5,88.1 92.2,81.7 C90.9,75.4 87.2,70 81.8,66.5 C78.36,64.499 74.786,62.972 70.747,62.682 C69.528,62.691 68.308,62.696 67.088,62.677 z M215.381,62.252 L213.057,62.322 C209.046,62.737 205.238,64.162 201.9,66.4 C190.8,73.8 187.9,88.9 195.5,99.9 C196.5,101.4 198.2,102.2 199.8,102.2 C200.8,102.2 201.9,101.9 202.8,101.3 C205.2,99.7 205.8,96.4 204.2,94 C200,87.8 201.6,79.3 207.8,75 C214,70.8 222.5,72.4 226.8,78.6 C228.4,81 231.7,81.6 234.1,80 C236.5,78.4 237.1,75.1 235.5,72.7 C231.035,66.819 225.148,63.09 217.712,62.295 L215.381,62.252 z M89.59,31.015 L87.42,31.095 C85.903,31.379 84.352,31.519 82.869,31.947 C77.451,33.509 72.845,36.922 69.6,41.5 C67.9,43.9 68.5,47.1 70.9,48.8 C73.3,50.4 76.6,49.8 78.2,47.4 C82.4,41.2 91,39.6 97.2,43.8 C103.4,48 105,56.6 100.8,62.8 C99.2,65.2 99.8,68.5 102.2,70.1 C103.1,70.7 104.1,71 105.2,71 C106.9,71 108.5,70.2 109.5,68.7 C117,57.7 114.2,42.7 103.2,35.2 C98.97,32.778 94.556,30.996 89.59,31.015 z M193.963,30.74 L191.602,30.826 C187.647,31.261 183.898,32.705 180.6,34.9 C175.3,38.5 171.7,44 170.5,50.4 C169.3,56.7 170.7,63.2 174.3,68.5 C175.3,69.8 176.9,70.6 178.6,70.6 C179.6,70.6 180.7,70.3 181.6,69.7 C184,68.1 184.6,64.8 183,62.4 C180.9,59.4 180.2,55.8 180.9,52.2 C181.6,48.6 183.6,45.5 186.6,43.5 C189.6,41.4 193.2,40.7 196.8,41.4 C200.4,42.1 203.5,44.1 205.5,47.1 C207.1,49.5 210.4,50.1 212.8,48.5 C215.2,46.9 215.8,43.6 214.2,41.2 C210.6,35.9 205.1,32.3 198.7,31.1 L196.331,30.771 L193.963,30.74 z" fill="#010202"/>
  </g>
</svg>
