<?xml version="1.0" encoding="UTF-8"?>
<!DOCTYPE svg PUBLIC "-//W3C//DTD SVG 1.1//EN" "http://www.w3.org/Graphics/SVG/1.1/DTD/svg11.dtd">
<svg version="1.1" xmlns="http://www.w3.org/2000/svg" xmlns:xlink="http://www.w3.org/1999/xlink" x="0" y="0" width="283.5" height="283.5" viewBox="0, 0, 283.5, 283.5">
  <g id="Background">
    <rect x="0" y="0" width="283.5" height="283.5" fill="#FFFFFF"/>
  </g>
  <g id="Layer_1">
    <path d="M262.9,54.6 C266.6,54.6 269.6,57.6 269.6,61.3 L269.6,276.7 C269.6,280.4 266.6,283.4 262.9,283.4 L47.5,283.4 C43.8,283.4 40.8,280.4 40.8,276.7 C40.8,273 43.8,270 47.5,270 L256.2,270 L256.2,61.3 C256.2,57.6 259.2,54.6 262.9,54.6 z M74.3,0 C70.6,0 67.6,3 67.6,6.7 L67.6,27.6 L20.6,27.6 C16.9,27.6 13.9,30.6 13.9,34.3 L13.9,249.7 C13.9,253.4 16.9,256.4 20.6,256.4 L236,256.4 C239.7,256.5 242.7,253.5 242.7,249.8 L242.7,34.4 C242.7,30.7 239.7,27.7 236,27.7 L209,27.7 C205.3,27.7 202.3,30.7 202.3,34.4 C202.3,38.1 205.3,41.1 209,41.1 L229.2,41.1 L229.2,243 L27.2,243 L27.2,41.1 L67.6,41.1 L67.6,61.3 C67.6,65 70.6,68 74.3,68 C78,68 81,65 81,61.3 L81,6.7 C81,3 78,0 74.3,0 z M141.8,189.2 L114.9,189.2 C111.2,189.2 108.2,192.2 108.2,195.9 C108.2,199.6 111.2,202.6 114.9,202.6 L141.8,202.6 C145.5,202.6 148.5,199.6 148.5,195.9 C148.5,192.2 145.5,189.2 141.8,189.2 z M87.9,189.2 L61,189.2 C57.3,189.2 54.3,192.2 54.3,195.9 C54.3,199.6 57.3,202.6 61,202.6 L87.9,202.6 C91.6,202.6 94.6,199.6 94.6,195.9 C94.6,192.2 91.6,189.2 87.9,189.2 z M87.8,148.8 L61,148.8 C57.3,148.7 54.2,151.8 54.2,155.5 C54.2,159.2 57.2,162.2 60.9,162.2 L87.8,162.2 C91.5,162.2 94.5,159.2 94.5,155.5 C94.5,151.8 91.5,148.8 87.8,148.8 z M195.7,148.7 L168.8,148.7 C165.1,148.7 162.1,151.7 162.1,155.4 C162.1,159.1 165.1,162.1 168.8,162.1 L195.7,162.1 C199.4,162.1 202.4,159.1 202.4,155.4 C202.4,151.8 199.4,148.7 195.7,148.7 z M141.8,148.7 L114.9,148.7 C111.2,148.7 108.2,151.7 108.2,155.4 C108.2,159.1 111.2,162.1 114.9,162.1 L141.8,162.1 C145.5,162.1 148.5,159.1 148.5,155.4 C148.5,151.8 145.5,148.7 141.8,148.7 z M195.6,108.4 L168.7,108.4 C165,108.3 162,111.3 162,115.1 C162,118.8 165,121.8 168.7,121.8 L195.6,121.8 C199.3,121.8 202.3,118.8 202.3,115.1 C202.3,111.4 199.3,108.4 195.6,108.4 z M141.8,108.3 L114.9,108.3 C111.2,108.3 108.2,111.3 108.2,115 C108.2,118.7 111.2,121.7 114.9,121.7 L141.8,121.7 C145.5,121.7 148.5,118.7 148.5,115 C148.5,111.3 145.5,108.3 141.8,108.3 z M182.1,0 C178.4,0 175.4,3 175.4,6.7 L175.4,27.6 L101.4,27.6 C97.7,27.6 94.7,30.6 94.7,34.3 C94.7,38 97.6,41.1 101.4,41.1 L175.4,41.1 L175.4,61.3 C175.4,65 178.4,68 182.1,68 C185.8,68 188.8,65 188.8,61.3 L188.8,6.7 C188.8,3 185.8,0 182.1,0 z" fill="#010202"/>
  </g>
</svg>
