<?xml version="1.0" encoding="UTF-8"?>
<!DOCTYPE svg PUBLIC "-//W3C//DTD SVG 1.1//EN" "http://www.w3.org/Graphics/SVG/1.1/DTD/svg11.dtd">
<svg version="1.1" xmlns="http://www.w3.org/2000/svg" xmlns:xlink="http://www.w3.org/1999/xlink" x="0" y="0" width="283.5" height="283.5" viewBox="0, 0, 283.5, 283.5">
  <g id="Background">
    <rect x="0" y="0" width="283.5" height="283.5" fill="#FFFFFF"/>
  </g>
  <g id="Layer_1">
    <path d="M23,174.1 C19.3,174.1 16.3,177.1 16.3,180.8 C16.3,184.5 19.3,187.5 23,187.5 L63.5,187.5 C67.2,187.5 70.2,184.5 70.2,180.8 C70.2,177.1 67.2,174.1 63.5,174.1 L50,174.1 L50,99.9 C50,99.9 50,99.9 50,99.9 C50,99.7 50,99.5 50,99.2 C50,99.1 50,99 50,98.9 C50,98.8 50,98.7 49.9,98.5 C49.9,98.4 49.8,98.3 49.8,98.2 C49.8,98.1 49.8,98 49.7,97.9 C49.7,97.8 49.6,97.7 49.6,97.6 C49.6,97.5 49.5,97.4 49.5,97.3 C49.5,97.2 49.4,97.1 49.4,97 C49.4,96.9 49.3,96.8 49.3,96.7 C49.3,96.6 49.2,96.5 49.1,96.4 C49,96.3 49,96.2 48.9,96.1 C48.8,96 48.8,95.9 48.7,95.8 C48.6,95.7 48.6,95.6 48.5,95.6 C48.2,95.3 47.9,94.9 47.6,94.7 C47.5,94.6 47.4,94.6 47.4,94.5 C47.3,94.4 47.2,94.4 47.1,94.3 C47,94.2 46.9,94.2 46.8,94.1 C46.7,94 46.6,94 46.5,93.9 C46.4,93.8 46.3,93.8 46.2,93.8 C46.1,93.8 46,93.7 45.9,93.7 C45.8,93.7 45.7,93.6 45.6,93.6 C45.5,93.6 45.4,93.5 45.3,93.5 C45.2,93.5 45.1,93.4 45,93.4 C44.9,93.4 44.8,93.3 44.7,93.3 C44.6,93.3 44.5,93.3 44.3,93.2 C44.2,93.2 44.1,93.2 44,93.2 C43.6,93.2 43.1,93.2 42.7,93.2 C42.6,93.2 42.5,93.2 42.4,93.2 C42.3,93.2 42.1,93.2 42,93.3 C41.9,93.3 41.8,93.4 41.7,93.4 C41.6,93.4 41.5,93.4 41.4,93.5 C41.3,93.5 41.2,93.6 41.1,93.6 C41,93.6 40.9,93.7 40.8,93.7 C40.7,93.7 40.6,93.8 40.5,93.8 C40.4,93.8 40.3,93.9 40.2,93.9 C40.1,93.9 40,94 39.9,94.1 C39.8,94.2 39.7,94.2 39.6,94.3 C39.5,94.4 39.4,94.4 39.3,94.5 C39.2,94.6 39.1,94.6 39.1,94.7 C38.9,94.8 38.8,95 38.6,95.1 L18,115.7 C15.4,118.3 15.4,122.6 18,125.2 C19.3,126.5 21,127.2 22.8,127.2 C24.5,127.2 26.3,126.5 27.6,125.2 L36.6,116.2 L36.6,174.1 L23,174.1 z M120.2,174 L133.9,174 L133.9,116.1 L124.8,125.2 C123.5,126.5 121.8,127.2 120,127.2 C118.2,127.2 116.5,126.5 115.2,125.2 C112.6,122.6 112.6,118.3 115.2,115.7 L135.8,95.1 C136,95 136.1,94.8 136.3,94.7 C136.3,94.6 136.4,94.6 136.5,94.5 C136.6,94.4 136.7,94.4 136.8,94.3 C136.9,94.2 137,94.2 137.1,94.1 C137.2,94 137.3,94 137.4,93.9 C137.5,93.9 137.6,93.8 137.7,93.8 C137.8,93.8 137.9,93.7 138,93.7 C138.1,93.7 138.2,93.6 138.3,93.6 C138.4,93.6 138.5,93.5 138.6,93.5 C138.7,93.4 138.8,93.4 138.9,93.4 C139,93.4 139.1,93.3 139.2,93.3 C139.4,93.2 139.5,93.2 139.6,93.2 C139.7,93.2 139.8,93.2 139.9,93.2 C140.3,93.2 140.8,93.2 141.2,93.2 C141.3,93.2 141.4,93.2 141.5,93.2 C141.6,93.3 141.8,93.3 141.9,93.3 C142,93.3 142.1,93.4 142.2,93.4 C142.3,93.4 142.4,93.5 142.5,93.5 C142.6,93.5 142.7,93.6 142.8,93.6 C142.9,93.6 143,93.7 143.1,93.7 C143.2,93.7 143.3,93.8 143.4,93.8 C143.5,93.8 143.6,93.8 143.7,93.9 C143.8,94 143.9,94 144,94.1 C144.1,94.2 144.2,94.2 144.3,94.3 C144.4,94.4 144.5,94.4 144.6,94.5 C144.6,94.6 144.7,94.6 144.8,94.7 C145.1,94.9 145.4,95.3 145.7,95.6 C145.8,95.6 145.8,95.7 145.9,95.8 C146,95.9 146,96 146.1,96.1 C146.2,96.2 146.2,96.3 146.3,96.4 C146.4,96.5 146.5,96.6 146.5,96.7 C146.5,96.8 146.6,96.9 146.6,97 C146.6,97.1 146.7,97.2 146.7,97.3 C146.7,97.4 146.8,97.5 146.8,97.6 C146.8,97.7 146.9,97.8 146.9,97.9 C147,98 147,98.1 147,98.2 C147,98.3 147.1,98.4 147.1,98.5 C147.2,98.7 147.2,98.8 147.2,98.9 C147.2,99 147.2,99.1 147.2,99.2 C147.2,99.5 147.2,99.7 147.2,99.9 C147.2,99.9 147.2,99.9 147.2,99.9 L147.2,174.1 L160.7,174.1 C164.4,174.1 167.4,177.1 167.4,180.8 C167.4,184.5 164.4,187.5 160.7,187.5 L120.2,187.5 C116.5,187.5 113.5,184.5 113.5,180.8 C113.5,177.1 116.5,174.1 120.2,174.1 z M276.5,222.7 C280.3,222.7 283.2,225.7 283.2,229.4 C283.2,233.1 280.2,236.1 276.5,236.1 L6.7,236.1 C3,236.1 -0,233.1 -0,229.4 C-0,225.7 3,222.7 6.7,222.7 L216.2,222.7 L250.6,176.8 C252.4,174.4 253.3,171.6 253.3,168.7 C253.3,165.1 251.9,161.7 249.4,159.2 C246.9,156.7 243.5,155.3 239.9,155.3 C232.5,155.3 226.4,161.4 226.4,168.8 C226.4,172.5 223.4,175.5 219.7,175.5 C216,175.5 213,172.5 213,168.8 C213,153.9 225.1,141.8 240,141.8 C247.2,141.8 254,144.6 259.1,149.7 C264.2,154.8 267,161.6 267,168.8 C267,174.6 265.2,180.2 261.7,184.9 C261.7,184.9 261.7,184.9 261.7,184.9 C261.7,184.9 261.7,184.9 261.7,184.9 L233.3,222.7 L260.3,222.7 C260.4,222.7 260.4,222.7 260.5,222.7 L276.5,222.7 z M6.7,60.8 C3,60.8 -0,57.7 -0,54 C-0,50.3 3,47.3 6.7,47.4 L276.5,47.4 C280.2,47.4 283.2,50.4 283.2,54.1 C283.2,57.8 280.2,60.8 276.5,60.8 L246.8,60.8 L246.8,91.8 L260.3,91.8 C264,91.8 267,94.8 267,98.5 C267,102.2 264,105.2 260.3,105.2 L219.8,105.2 C216.1,105.2 213.1,102.2 213.1,98.5 C213.1,94.8 216.1,91.8 219.8,91.8 L233.3,91.8 L233.3,60.8 L6.7,60.8 z" fill="#000000"/>
  </g>
</svg>
