<?xml version="1.0" encoding="UTF-8"?>
<!DOCTYPE svg PUBLIC "-//W3C//DTD SVG 1.1//EN" "http://www.w3.org/Graphics/SVG/1.1/DTD/svg11.dtd">
<svg version="1.1" xmlns="http://www.w3.org/2000/svg" xmlns:xlink="http://www.w3.org/1999/xlink" x="0" y="0" width="283.5" height="283.5" viewBox="0, 0, 283.5, 283.5">
  <g id="Background">
    <rect x="0" y="0" width="283.5" height="283.5" fill="#FFFFFF"/>
  </g>
  <g id="Layer_1">
    <path d="M70.7,206 C73.4,206 75.9,207.7 76.9,210.2 C77.9,212.8 77.3,215.7 75.4,217.6 L56,237 C106.3,282.4 184.1,280.8 232.5,232.4 C235.1,229.8 239.4,229.8 242,232.3 C244.6,234.9 244.6,239.2 242,241.8 C214.3,269.5 178,283.3 141.7,283.3 C107.5,283.3 73.3,271 46.3,246.5 L26.7,266.1 C25.4,267.4 23.7,268.1 21.9,268.1 C21,268.1 20.1,267.9 19.3,267.6 C16.7,266.6 15.1,264.1 15.1,261.4 L15.1,212.8 C15.1,209 18.2,206 21.9,206 L70.7,206 z M54.3,219.7 L28.7,219.7 L28.7,245.3 L54.3,219.7 z M165.3,81.7 L160.8,81.7 C157.3,81.7 154.5,84.5 154.5,88 C154.5,91.5 157.3,94.3 160.8,94.3 L165.3,94.3 C166.5,94.3 168.3,95.6 168.7,96.7 C168.7,96.8 168.8,96.9 168.8,97 L180.4,125.3 C180.5,125.6 180.6,125.8 180.8,126.1 L180.9,126.3 C181,126.5 181.2,126.8 181.4,127 L182.2,127.8 L182.8,128.3 C182.8,128.3 182.9,128.3 182.9,128.4 L183.5,128.8 C183.5,128.8 183.6,128.8 183.6,128.9 C183.9,129 184.1,129.1 184.4,129.2 L184.5,129.2 C184.7,129.3 185,129.3 185.2,129.4 L185.4,129.4 C185.6,129.4 185.9,129.5 186.2,129.5 L186.3,129.5 C190.5,129.5 193.9,132.9 193.9,137.1 L193.9,158 C193.9,162.2 190.5,165.7 186.3,165.7 L179.3,165.7 C175.8,165.7 173,168.5 173,172 L173,191.5 C173,195 175.8,197.8 179.3,197.8 C182.8,197.8 185.6,195 185.6,191.5 L185.6,178.3 L186.3,178.3 C197.4,178.3 206.5,169.2 206.5,158.1 L206.5,137.2 C206.5,127.6 199.7,119.5 190.7,117.5 L180.6,92.8 C178.3,86.2 171.8,81.7 165.3,81.7 z M199,81.8 L194.5,81.8 C191,81.8 188.2,84.6 188.2,88.1 C188.2,91.6 191,94.4 194.5,94.4 L199,94.4 C200.2,94.4 202,95.7 202.4,96.8 C202.4,96.9 202.5,97 202.5,97.1 L214.1,125.4 C214.2,125.7 214.3,125.9 214.5,126.2 L214.6,126.4 C214.7,126.6 214.9,126.9 215.1,127.1 L215.9,127.9 L216.5,128.4 C216.5,128.4 216.6,128.4 216.6,128.5 L217.2,128.9 C217.2,128.9 217.3,128.9 217.3,129 C217.6,129.1 217.8,129.2 218.1,129.3 L218.2,129.3 C218.4,129.4 218.7,129.4 218.9,129.5 L219.1,129.5 C219.3,129.5 219.6,129.6 219.9,129.6 L220,129.6 C224.2,129.6 227.6,133 227.6,137.2 L227.6,158.1 C227.5,161.8 224.1,165.3 219.9,165.3 L212.9,165.3 C209.4,165.3 206.6,168.1 206.6,171.6 L206.6,191.1 C206.6,194.6 209.4,197.4 212.9,197.4 C216.4,197.4 219.2,194.6 219.2,191.1 L219.2,177.9 L219.9,177.9 C231,177.9 240.1,168.8 240.1,157.7 L240.1,136.8 C240.1,127.2 233.3,119.1 224.3,117.1 L214.2,92.4 C212,86.4 205.5,81.8 199,81.8 z M131.7,94.2 C132.9,94.2 134.7,95.5 135.1,96.6 C135.1,96.7 135.2,96.8 135.2,96.9 L143.2,116.5 L72.9,116.5 L80.9,96.9 L81.1,96.6 C81.5,95.5 83.3,94.2 84.5,94.2 L131.7,94.2 z M145.6,140.8 C141.7,140.8 138.6,143.9 138.6,147.8 C138.6,151.7 141.7,154.8 145.6,154.8 C149.4,154.8 152.6,151.7 152.6,147.8 C152.6,143.9 149.5,140.8 145.6,140.8 z M70.5,140.8 C66.7,140.8 63.5,143.9 63.5,147.8 C63.5,151.7 66.6,154.8 70.5,154.8 C74.4,154.8 77.5,151.7 77.5,147.8 C77.5,143.9 74.4,140.8 70.5,140.8 z M152.7,129 C156.9,129 160.3,132.4 160.3,136.6 L160.3,157.6 C160.3,161.8 156.9,165.3 152.7,165.3 L63.7,165.3 C59.5,165.3 56.1,161.9 56.1,157.6 L56.1,136.7 C56.1,132.5 59.5,129 63.7,129 L152.7,129 z M131.7,81.7 L84.5,81.7 C78.1,81.7 71.6,86.2 69.3,92.3 L59.2,117 C50.2,119 43.4,127.1 43.4,136.7 L43.4,157.6 C43.4,168.7 52.5,177.8 63.6,177.8 L64.3,177.8 L64.3,191 C64.3,194.5 67.1,197.3 70.6,197.3 C74.1,197.3 76.9,194.5 76.9,191 L76.9,177.8 L139.4,177.8 L139.4,191 C139.4,194.5 142.2,197.3 145.7,197.3 C149.2,197.3 152,194.5 152,191 L152,177.8 L152.7,177.8 C163.8,177.8 172.9,168.7 172.9,157.6 L172.9,136.7 C172.9,127.1 166.1,119 157.1,117 L147,92.3 C144.6,86.2 138.1,81.7 131.7,81.7 z M254.8,38.2 L254.8,63.8 L229.2,63.8 L254.8,38.2 z M145.16,0.143 C133.449,0.404 130.403,0.065 118.801,1.955 C89.627,6.709 62.362,20.7 41.5,41.6 C38.9,44.2 38.9,48.5 41.5,51.1 C44.1,53.7 48.4,53.7 51,51.1 C99.4,2.6 177.2,1 227.6,46.4 L208.2,65.8 C206.3,67.7 205.7,70.6 206.7,73.2 C207.7,75.7 210.2,77.4 212.9,77.4 L261.5,77.4 C265.2,77.4 268.3,74.4 268.3,70.6 L268.3,21.9 C268.3,19.2 266.6,16.7 264.1,15.7 C261.6,14.7 258.7,15.2 256.7,17.2 L237.1,36.9 C211.599,14.26 179.395,1.107 145.16,0.143 z" fill="#000000"/>
  </g>
</svg>
