<?xml version="1.0" encoding="UTF-8"?>
<!DOCTYPE svg PUBLIC "-//W3C//DTD SVG 1.1//EN" "http://www.w3.org/Graphics/SVG/1.1/DTD/svg11.dtd">
<svg version="1.1" xmlns="http://www.w3.org/2000/svg" xmlns:xlink="http://www.w3.org/1999/xlink" x="0" y="0" width="283.5" height="283.5" viewBox="0, 0, 283.5, 283.5">
  <g id="Background">
    <rect x="0" y="0" width="283.5" height="283.5" fill="#FFFFFF"/>
  </g>
  <g id="Layer_1">
    <path d="M141.7,0 C63.6,0 0,63.6 0,141.7 C0,219.9 63.6,283.4 141.7,283.4 C168.1,283.4 192.8,276 213.9,263.4 C197.3,256.7 184,243.6 176.9,227.2 C166,231.7 154.1,234.2 141.6,234.2 C90.6,234.2 49.1,192.7 49.1,141.7 C49.1,90.7 90.6,49.2 141.6,49.2 C189.3,49.2 228.8,85.6 233.6,132.1 C235.6,131.9 237.6,131.8 239.6,131.8 C256.1,131.8 271.2,137.7 283,147.4 C283.1,145.5 283.3,143.6 283.3,141.7 C283.5,63.6 219.9,0 141.7,0 z M233.3,154.7 C256.6,154.7 275.5,173.6 275.5,196.9 C275.5,220.2 256.6,239.1 233.3,239.1 C210,239.1 191.1,220.2 191.1,196.9 C191.1,173.6 210,154.7 233.3,154.7 z" fill="#000000"/>
  </g>
</svg>
