<?xml version="1.0" encoding="UTF-8"?>
<!DOCTYPE svg PUBLIC "-//W3C//DTD SVG 1.1//EN" "http://www.w3.org/Graphics/SVG/1.1/DTD/svg11.dtd">
<svg version="1.1" xmlns="http://www.w3.org/2000/svg" xmlns:xlink="http://www.w3.org/1999/xlink" x="0" y="0" width="283.5" height="283.5" viewBox="0, 0, 283.5, 283.5">
  <g id="Background">
    <rect x="0" y="0" width="283.5" height="283.5" fill="#FFFFFF"/>
  </g>
  <g id="Layer_1">
    <path d="M94.2,209.8 C135.3,209.8 171.5,234.6 186.2,272.9 C187.5,276.3 185.8,280.2 182.4,281.5 C179,282.8 175.1,281.1 173.8,277.7 C160.9,244.5 129.7,223.1 94.1,223.1 C58.6,223.1 27.3,244.5 14.4,277.7 C13.4,280.4 10.9,282 8.2,282 C7.4,282 6.6,281.8 5.8,281.5 C2.4,280.2 0.7,276.3 2,272.9 C16.9,234.6 53.1,209.8 94.2,209.8 z M255.2,14.7 C259.5,14.7 263.6,16.8 266.1,20.3 C270.3,26.3 269,34.7 263,39 C260.7,40.6 258,41.5 255.2,41.5 C250.9,41.5 246.8,39.4 244.3,35.9 C242.2,33 241.4,29.5 242,25.9 C242.6,22.4 244.5,19.3 247.4,17.2 C249.7,15.6 252.4,14.7 255.2,14.7 z M122.2,14.8 C129.6,14.8 135.6,20.8 135.6,28.2 C135.6,35.6 129.6,41.6 122.2,41.6 C114.8,41.6 108.8,35.6 108.8,28.2 C108.8,20.8 114.8,14.8 122.2,14.8 z M28.4,58.8 C31.2,58.8 33.9,59.7 36.2,61.3 C39.1,63.4 41,66.5 41.6,70 C42.1,73.6 41.3,77.1 39.2,80 C36.7,83.5 32.6,85.6 28.3,85.6 C25.5,85.6 22.8,84.7 20.5,83.1 C17.6,81 15.7,77.9 15.1,74.4 C14.5,70.9 15.4,67.3 17.5,64.4 C20,60.9 24.1,58.8 28.4,58.8 z M134.1,52.1 L173.4,97.4 C170.1,102.2 168.4,108.1 168.7,114.1 L144.8,120.8 C139.1,106.7 127.8,95.6 113.7,90.2 L122.4,54.9 C126.6,54.9 130.5,53.8 134.1,52.1 z M195.4,99.1 C201.2,99.1 206.3,102.8 208.1,108.2 C209.2,111.6 209,115.2 207.4,118.4 C205.8,121.6 203.1,124 199.7,125.1 C198.3,125.6 196.9,125.8 195.4,125.8 C189.6,125.8 184.5,122.1 182.7,116.6 C180.9,111.5 182.6,106 186.5,102.5 L186.6,102.4 C187.9,101.3 189.4,100.4 191.1,99.8 C192.5,99.3 193.9,99.1 195.4,99.1 z M172.7,126.8 C177.5,134.4 186,139.2 195.3,139.2 C196.3,139.2 197.2,139.1 198.1,139 L217,174.4 C215.4,175.9 214,177.5 212.8,179.3 L147.1,154.2 C148.1,150 148.8,145.6 148.8,141.1 C148.8,138.5 148.6,136.1 148.2,133.6 L172.7,126.8 z M94.1,99.7 C116.9,99.7 135.5,118.3 135.5,141.1 C135.4,164 116.9,182.5 94.1,182.5 C71.3,182.5 52.8,163.9 52.8,141.1 C52.8,118.3 71.3,99.7 94.1,99.7 z M236.3,180.8 C236.5,180.8 236.6,180.8 236.8,180.9 C236.7,180.8 236.5,180.8 236.3,180.8 z M238.1,181.1 L238.6,181.2 C238.5,181.2 238.3,181.1 238.1,181.1 z M238.6,181.2 C238.8,181.3 239.1,181.3 239.3,181.4 C239.1,181.3 238.8,181.3 238.6,181.2 z M239.4,181.4 C239.4,181.4 239.5,181.5 239.6,181.5 C239.5,181.4 239.4,181.4 239.4,181.4 z M239.5,181.5 L240.6,181.9 C240.2,181.7 239.9,181.6 239.5,181.5 z M240.6,181.9 C240.6,181.9 240.7,182 240.8,182 C240.8,182 240.7,181.9 240.6,181.9 z M241.7,182.5 L242,182.7 C241.9,182.6 241.8,182.5 241.7,182.5 z M242,182.7 C242.3,182.9 242.6,183 242.8,183.2 C242.6,183 242.3,182.8 242,182.7 z M242.8,183.2 C242.9,183.3 243,183.3 243.1,183.4 C243,183.3 242.9,183.3 242.8,183.2 z M245,185.1 C245.2,185.4 245.5,185.6 245.7,186 C245.5,185.7 245.3,185.4 245,185.1 z M245.7,186 C247.3,188 248.2,190.5 248.4,193.1 C248.2,190.4 247.3,188 245.7,186 z M248.4,194.4 C248.184,196.504 248.362,195.717 248.085,196.798 C247.048,200.206 247.681,198.768 246.4,201.2 C247,200.3 247.5,199.4 247.7,198.3 L248.085,196.798 C248.435,195.649 248.241,196.431 248.4,194.4 z M246.4,201.2 L245.9,202 C246.1,201.8 246.3,201.5 246.4,201.2 z M224.7,202.6 L225,202.9 C224.9,202.7 224.8,202.6 224.7,202.6 z M225.6,203.5 C225.6,203.6 225.7,203.7 225.8,203.7 C225.7,203.6 225.6,203.6 225.6,203.5 z M227.5,205.1 C227.7,205.3 227.8,205.3 228,205.4 L227.5,205.1 z M242.8,205.1 C242.6,205.2 242.4,205.3 242.3,205.5 C242.5,205.3 242.6,205.2 242.8,205.1 z M242.3,205.4 C242.1,205.5 242,205.6 241.9,205.7 C242,205.6 242.2,205.5 242.3,205.4 z M241.8,205.7 C241.4,205.9 241.6,205.8 241.8,205.7 z M228.6,205.8 C228.8,206 229,206.1 229.3,206.2 L228.6,205.8 z M241.3,206 C241.1,206.1 240.9,206.2 240.8,206.3 C241,206.2 241.1,206.1 241.3,206 z M229.3,206.2 C229.5,206.3 229.6,206.3 229.7,206.4 C229.6,206.3 229.4,206.2 229.3,206.2 z M240.2,206.5 C239.6,206.7 239.9,206.6 240.2,206.5 z M240.8,206.3 C240.6,206.3 240.4,206.4 240.2,206.6 C240.4,206.5 240.6,206.4 240.8,206.3 z M229.7,206.4 C230,206.5 230.3,206.7 230.7,206.8 C230.4,206.6 230,206.5 229.7,206.4 z M239.2,206.9 C239.1,206.9 238.9,207 238.7,207 C238.9,207 239,207 239.2,206.9 z M230.8,206.8 C231.1,206.9 231.4,207 231.6,207 L230.8,206.8 z M238.7,207 L238,207.2 C238.3,207.1 238.5,207.1 238.7,207 z M231.7,207.1 L232.1,207.2 C231.9,207.1 231.8,207.1 231.7,207.1 z M238,207.2 C237.8,207.2 237.7,207.3 237.5,207.3 C237.7,207.3 237.9,207.2 238,207.2 z M232.7,207.3 L233.4,207.4 C233.2,207.4 233,207.3 232.7,207.3 z M237.5,207.3 L236.7,207.4 C237,207.4 237.3,207.3 237.5,207.3 z M233.4,207.4 C233.6,207.5 233.7,207.5 233.9,207.5 C233.7,207.4 233.5,207.4 233.4,207.4 z M236.8,207.4 C236.6,207.4 236.5,207.4 236.4,207.5 C236.5,207.4 236.7,207.4 236.8,207.4 z M236.3,207.5 C235.9,207.5 235.5,207.5 235.1,207.6 C235.5,207.6 235.9,207.5 236.3,207.5 z M235.3,180.7 C235.7,180.7 236.1,180.7 236.5,180.8 C236.7,180.8 236.8,180.8 237,180.9 L237.7,181 C237.9,181 238.1,181.1 238.3,181.1 L238.8,181.2 C239,181.3 239.3,181.3 239.5,181.4 L239.6,181.4 C239.7,181.4 239.7,181.4 239.8,181.5 L241.038,181.95 L241.1,182 C241.4,182.2 241.7,182.3 242,182.5 L242.3,182.7 C242.6,182.9 242.9,183 243.1,183.2 L243.4,183.4 C243.7,183.6 243.9,183.8 244.2,184 L244.4,184.2 C244.7,184.4 244.9,184.7 245.1,184.9 L245.2,185 C245.5,185.3 245.7,185.6 245.9,185.9 C247.4,187.9 248.4,190.3 248.6,193 L248.6,194.5 C248.5,197 247.8,199.3 246.6,201.3 C246.4,201.6 246.3,201.8 246.1,202.1 L246,202.3 C245.8,202.5 245.6,202.8 245.5,203 L245.3,203.2 C244.7,203.8 244.1,204.4 243.4,204.9 L243,205.2 C242.8,205.3 242.6,205.4 242.5,205.6 L242.1,205.9 C241.9,206 241.7,206.1 241.6,206.2 C241.4,206.3 241.3,206.4 241.1,206.5 L240.5,206.8 C240.2,206.9 239.9,207 239.5,207.2 C239.3,207.3 239.2,207.3 239,207.3 L238.3,207.5 C238.1,207.5 238,207.6 237.8,207.6 L237,207.7 C236.9,207.7 236.7,207.7 236.6,207.8 L235.4,207.9 C235,207.9 234.6,207.9 234.2,207.8 C234,207.8 233.9,207.8 233.7,207.7 C233.5,207.7 233.3,207.6 233,207.6 C232.8,207.6 232.6,207.5 232.3,207.5 L231.1,207.2 L231,207.2 C230.6,207.1 230.3,206.9 230,206.8 C229.9,206.7 229.8,206.7 229.6,206.6 C229.3,206.5 229.1,206.4 228.9,206.2 C228.7,206.1 228.5,206 228.3,205.8 L227.8,205.5 C227.6,205.3 227.3,205.1 227.1,205 C227,204.9 226.9,204.9 226.8,204.8 L226.1,204.2 C226,204.1 225.9,204.1 225.9,204 C225.7,203.8 225.5,203.6 225.3,203.3 L225,203 C224.8,202.8 224.7,202.6 224.5,202.4 L224.2,201.9 C224.1,201.7 224,201.5 223.9,201.4 L223.896,201.392 C223.71,201.036 223.811,201.198 223.6,200.9 L223.64,200.976 L223.5,200.8 L223.464,200.729 L223.6,200.9 C223.405,200.541 223.508,200.689 223.312,200.441 L223.3,200.3 C223.2,200.1 223.1,199.9 223,199.6 C222.9,199.4 222.8,199.2 222.8,199 L222.6,198.4 C222.5,198.1 222.5,197.8 222.4,197.6 C222.4,197.5 222.3,197.3 222.3,197.2 L222.1,196.1 C222.1,196 222.1,196 222.1,195.9 L222,194.6 C222,194.1 222,193.7 222.1,193.2 C222.1,192.8 222.2,192.4 222.3,192 C222.3,192 222.3,191.9 222.3,191.9 L222.6,190.8 C222.6,190.7 222.6,190.6 222.7,190.6 C222.4,190 222.4,189.9 222.4,189.9 C222.6,189.2 222.9,188.5 223.3,187.9 L223.5,187.6 C223.6,187.4 223.7,187.2 223.9,187 C224,186.8 224.1,186.7 224.2,186.5 L224.3,186.4 C226.3,183.6 229.4,181.6 233,181 C233.2,181 233.3,181 233.5,180.9 C233.7,180.9 233.9,180.8 234.1,180.8 L235.3,180.7 z M255.2,1.4 C249.6,1.4 244.2,3.1 239.6,6.4 C233.8,10.6 230,16.7 228.8,23.8 C227.7,30.8 229.3,37.9 233.5,43.7 C233.9,44.3 234.4,44.9 234.9,45.5 L206.5,88.3 C203.1,86.7 199.3,85.8 195.3,85.8 C192.4,85.8 189.6,86.3 186.8,87.2 C185.6,87.6 184.5,88.1 183.4,88.6 L144.1,43.3 C147.1,39 148.8,33.8 148.8,28.1 C148.8,13.4 136.8,1.4 122.1,1.4 C107.4,1.4 95.4,13.4 95.4,28.1 C95.4,29.8 95.6,31.4 95.9,33 L48.4,54.5 C47.1,53 45.6,51.7 44,50.5 C39.4,47.2 34,45.5 28.4,45.5 C19.8,45.5 11.7,49.7 6.7,56.6 C2.5,62.4 0.9,69.5 2,76.5 C3.1,83.6 7,89.7 12.8,93.9 C17.4,97.2 22.8,98.9 28.4,98.9 C37,98.9 45.1,94.7 50.1,87.8 C54.3,82 55.9,74.9 54.8,67.9 C54.7,67.4 54.6,66.9 54.5,66.4 L101.6,45.1 C103.8,47.8 106.5,50 109.5,51.7 L100.8,86.9 C98.6,86.6 96.4,86.5 94.1,86.5 C63.9,86.5 39.4,111 39.4,141.2 C39.4,171.4 63.9,195.9 94.1,195.9 C115,195.9 133.2,184.1 142.4,166.8 L208.5,192 C208.1,196.8 209,201.6 211.2,206.1 C214.4,212.5 219.9,217.3 226.6,219.5 C229.4,220.4 232.2,220.9 235.1,220.9 C246.6,220.9 256.8,213.6 260.4,202.6 C265.1,188.6 257.5,173.5 243.6,168.8 C240.8,167.9 238,167.4 235.1,167.4 C232.9,167.4 230.8,167.7 228.8,168.2 L210.8,134.4 C214.4,131.9 217.3,128.5 219.3,124.5 C222.5,118.1 223,110.9 220.7,104.1 C219.8,101.4 218.5,99 216.9,96.8 L245.8,53.2 C248.8,54.3 251.9,54.9 255.2,54.9 C260.8,54.9 266.2,53.2 270.8,49.9 C282.7,41.2 285.5,24.5 276.9,12.5 C271.9,5.5 263.8,1.4 255.2,1.4 z" fill="#000000"/>
  </g>
</svg>
