<?xml version="1.0" encoding="UTF-8"?>
<!DOCTYPE svg PUBLIC "-//W3C//DTD SVG 1.1//EN" "http://www.w3.org/Graphics/SVG/1.1/DTD/svg11.dtd">
<svg version="1.1" xmlns="http://www.w3.org/2000/svg" xmlns:xlink="http://www.w3.org/1999/xlink" x="0" y="0" width="283.5" height="283.5" viewBox="0, 0, 283.5, 283.5">
  <g id="Background">
    <rect x="0" y="0" width="283.5" height="283.5" fill="#FFFFFF"/>
  </g>
  <g id="Layer_1">
    <path d="M104.1,147.7 C104.4,147.7 104.7,147.7 105,147.8 C105.1,147.9 105.3,147.9 105.4,147.9 L105.5,147.9 C143.7,157.2 170.4,191.3 170.5,230.9 C170.5,238.8 169.4,246.7 167.2,254.4 C166.3,257.2 163.7,259.1 160.9,259.1 C160.3,259.1 159.7,259 159.1,258.8 C155.6,257.8 153.6,254.2 154.6,250.7 C156.5,244.2 157.4,237.5 157.4,230.8 C157.4,199.1 137,171.6 107.3,162.1 L92.5,192.4 L111.9,232.1 C112,232.2 112,232.4 112.1,232.5 C112.1,232.7 112.2,233 112.3,233.2 L112.5,234.4 L112.5,235.6 C112.5,235.8 112.4,236 112.4,236.2 L112.2,236.8 C112.2,237 112.1,237.2 112,237.4 L111.7,238 C111.6,238.2 111.5,238.3 111.4,238.5 C111.2,238.7 111.1,238.8 111,239 L110.2,239.8 L89.4,257.4 C88.2,258.4 86.7,258.9 85.2,258.9 C83.7,258.9 82.2,258.4 81,257.4 L60.1,240.1 C60,240 59.9,239.9 59.8,239.8 C59.7,239.6 59.5,239.4 59.3,239.2 L59,238.7 C58.8,238.5 58.7,238.3 58.6,238.1 C58.6,238 58.5,237.8 58.4,237.6 C58.4,237.4 58.3,237.2 58.2,237 L58.1,236.4 C58.1,236.1 58,235.9 58,235.7 L58,234.4 C58,234.2 58.1,234 58.1,233.8 C58.1,233.5 58.1,233.3 58.2,233.1 C58.2,232.9 58.3,232.7 58.4,232.5 C58.5,232.3 58.5,232.1 58.6,232 L78,192.3 L63.1,162 C33.4,171.5 13,199 13,230.7 C13,237.4 13.9,244.1 15.8,250.6 C16.8,254.1 14.8,257.7 11.3,258.7 C10.7,258.9 10.1,259 9.5,259 C6.6,259 4,257.2 3.2,254.3 C1,246.7 -0.1,238.8 -0.1,230.8 C-0.1,191.4 26.6,157.3 64.9,148 L65.1,148 C65.3,147.9 65.4,147.9 65.5,147.9 L66.4,147.8 L67.7,147.8 C68,147.9 68.2,147.9 68.5,148 C68.6,148 68.8,148 68.9,148.1 L69.7,148.5 C69.9,148.6 70,148.6 70.1,148.7 C70.4,148.9 70.6,149 70.8,149.2 C70.9,149.2 71,149.3 71.1,149.4 L72,150.3 C72.2,150.5 72.3,150.8 72.5,151.1 C72.6,151.2 72.7,151.3 72.7,151.4 L72.7,151.5 L85.4,177.4 L98.1,151.3 C98.2,151.1 98.3,151 98.4,150.8 C98.5,150.7 98.6,150.5 98.7,150.3 L99.6,149.4 C99.9,149.2 100.1,149 100.4,148.8 C100.4,148.7 100.5,148.7 100.6,148.6 C100.8,148.4 101.1,148.3 101.4,148.2 L101.7,148.1 C101.9,148 102.2,148 102.5,147.9 L102.9,147.8 C103.1,147.7 103.4,147.7 103.7,147.7 L104.1,147.7 z M85.2,207.1 L72.5,233.1 L85.2,243.8 L97.9,233.1 L85.2,207.1 z M276.9,25.1 L140.4,25.1 C136.8,25.1 133.9,28 133.9,31.6 C133.9,35.2 136.8,38.1 140.4,38.1 L270.5,38.1 L270.5,168.4 L177.3,168.4 C173.7,168.4 170.8,171.3 170.8,174.9 C170.8,178.5 173.7,181.4 177.3,181.4 L277,181.4 C280.6,181.4 283.5,178.5 283.5,174.9 L283.5,31.6 C283.5,28 280.5,25.1 276.9,25.1 z M197.2,72.9 C193.6,72.9 190.7,75.8 190.7,79.4 L190.7,119.9 L177.6,119.9 L177.6,105.5 C177.6,101.9 174.7,99 171.1,99 C167.5,99 164.6,101.9 164.6,105.5 L164.6,119.9 L150.2,119.9 C146.6,119.9 143.7,122.8 143.7,126.4 C143.7,130 146.6,132.9 150.2,132.9 L244.2,132.9 C247.8,132.9 250.7,130 250.7,126.4 C250.7,122.8 247.8,119.9 244.2,119.9 L229.8,119.9 L229.8,87.2 C229.8,83.6 226.9,80.7 223.3,80.7 C219.7,80.7 216.8,83.6 216.8,87.2 L216.8,119.8 L203.7,119.8 L203.7,79.4 C203.7,75.8 200.8,72.9 197.2,72.9 z M85.2,37.6 C104.2,37.6 119.7,53.1 119.7,72.1 C119.7,91.1 104.2,106.6 85.2,106.6 C66.2,106.6 50.7,91.1 50.7,72.1 C50.7,53.1 66.2,37.6 85.2,37.6 z M85.2,24.5 C58.9,24.5 37.6,45.9 37.6,72.1 C37.6,98.3 59,119.7 85.2,119.7 C111.4,119.7 132.8,98.4 132.8,72.1 C132.8,45.9 111.5,24.5 85.2,24.5 z" fill="#000000"/>
  </g>
</svg>
