<?xml version="1.0" encoding="UTF-8"?>
<!DOCTYPE svg PUBLIC "-//W3C//DTD SVG 1.1//EN" "http://www.w3.org/Graphics/SVG/1.1/DTD/svg11.dtd">
<svg version="1.1" xmlns="http://www.w3.org/2000/svg" xmlns:xlink="http://www.w3.org/1999/xlink" x="0" y="0" width="283.5" height="283.5" viewBox="0, 0, 283.5, 283.5">
  <g id="Background">
    <rect x="0" y="0" width="283.5" height="283.5" fill="#FFFFFF"/>
  </g>
  <g id="Layer_1">
    <path d="M20.691,89.651 L22.2,89.8 L47,95.6 C50.6,96.4 52.9,100.1 52,103.7 C51.2,107.3 47.5,109.6 43.9,108.7 L27.3,104.8 L27.3,252.5 L94.6,268.2 L94.6,181.1 C94.6,177.4 97.6,174.4 101.3,174.4 C105,174.4 108,177.4 108,181.1 L108,268.2 L175.3,252.5 L175.3,182.1 C175.3,178.4 178.3,175.4 182,175.4 C185.7,175.4 188.7,178.4 188.7,182.1 L188.7,252.5 L256,268.2 L256,120.6 L235.6,115.8 C232,115 229.7,111.3 230.6,107.7 C231.4,104.1 235.1,101.8 238.7,102.7 L264.3,108.7 C267.3,109.4 269.5,112.1 269.5,115.3 L269.5,276.8 C269.5,278.9 268.6,280.8 267,282.1 C265.4,283.4 263.3,283.8 261.3,283.4 L182.1,264.9 L103,283.3 C102.5,283.4 101.9,283.5 101.4,283.5 C100.9,283.5 100.5,283.5 100,283.3 C100,283.3 99.9,283.3 99.9,283.3 L19.2,264.5 C16.2,263.8 14,261.1 14,257.9 L14,96.4 C14,94.3 14.9,92.4 16.5,91.1 C17.745,90.023 19.113,89.909 20.691,89.651 z M141.7,70 C144.7,70 147.6,71.1 149.6,73.2 C151.7,75.4 152.9,78.2 152.9,81.2 C152.9,84.2 151.7,87.1 149.6,89.2 C145.4,93.4 138,93.5 133.7,89.2 C129.3,84.8 129.3,77.7 133.7,73.3 C135.9,71.2 138.7,70 141.7,70 z M141.7,56.6 C135.1,56.6 128.9,59.1 124.2,63.8 C114.6,73.4 114.6,89.1 124.2,98.7 C128.9,103.3 135.1,105.9 141.7,105.9 C148.3,105.9 154.5,103.4 159.2,98.8 C163.8,94.1 166.4,87.9 166.4,81.3 C166.4,74.7 163.9,68.4 159.2,63.8 C154.5,59.2 148.3,56.6 141.7,56.6 z M141.7,13.5 C159.8,13.5 176.8,20.5 189.6,33.3 C202.4,46.1 209.4,63.1 209.4,81.2 C209.4,99.3 202.4,116.3 189.6,129.1 L141.7,177 L93.8,129.1 C67.4,102.7 67.4,59.7 93.8,33.3 C106.6,20.5 123.6,13.5 141.7,13.5 z M141.7,-0 C120,-0 99.6,8.4 84.3,23.8 C52.6,55.5 52.6,107 84.3,138.7 L141.7,196.1 L199.1,138.6 C214.5,123.3 222.9,102.9 222.9,81.2 C222.9,59.5 214.4,39.1 199.1,23.8 C183.8,8.4 163.4,-0 141.7,-0 z" fill="#010202"/>
  </g>
</svg>
