<?xml version="1.0" encoding="UTF-8"?>
<!DOCTYPE svg PUBLIC "-//W3C//DTD SVG 1.1//EN" "http://www.w3.org/Graphics/SVG/1.1/DTD/svg11.dtd">
<svg version="1.1" xmlns="http://www.w3.org/2000/svg" xmlns:xlink="http://www.w3.org/1999/xlink" x="0" y="0" width="283.5" height="283.5" viewBox="0, 0, 283.5, 283.5">
  <g id="Background">
    <rect x="0" y="0" width="283.5" height="283.5" fill="#FFFFFF"/>
  </g>
  <g id="Layer_1">
    <path d="M278.8,2.8 C278.8,2.7 278.8,2.7 278.8,2.8 C278.6,2.6 278.4,2.5 278.2,2.4 C278.2,2.4 278.1,2.4 278.1,2.3 C277.9,2.2 277.8,2.1 277.6,2.1 C277.5,2.1 277.5,2.1 277.4,2 C277.2,1.9 277.1,1.9 276.9,1.8 C276.8,1.8 276.8,1.8 276.7,1.7 C276.5,1.7 276.4,1.6 276.2,1.6 C276.1,1.6 276,1.6 275.9,1.6 C275.8,1.6 275.6,1.6 275.5,1.5 C275.3,1.5 275.1,1.5 274.9,1.5 C274.9,1.5 274.8,1.5 274.8,1.5 L274.8,1.5 C274.8,1.5 274.8,1.5 274.8,1.5 L77.2,1.5 L77.2,1.5 C77,1.5 76.7,1.5 76.5,1.5 C76.4,1.5 76.3,1.5 76.2,1.5 C76,1.5 75.9,1.5 75.7,1.6 C75.6,1.6 75.5,1.6 75.4,1.7 C75.3,1.7 75.1,1.8 75,1.8 C74.9,1.8 74.8,1.9 74.7,1.9 C74.6,1.9 74.4,2 74.3,2 C74.2,2 74.1,2.1 74.1,2.1 C74,2.2 73.8,2.2 73.7,2.3 C73.6,2.3 73.6,2.4 73.5,2.4 C73.4,2.5 73.2,2.6 73.1,2.7 C73,2.7 73,2.8 72.9,2.8 C72.8,2.9 72.6,3 72.5,3.1 C72.5,3.1 72.4,3.2 72.4,3.2 C72.3,3.3 72.1,3.4 72,3.6 L2.2,73.5 C1.9,73.8 1.6,74.2 1.3,74.5 C1.3,74.5 1.3,74.5 1.2,74.6 C1.2,74.8 1.1,75 1,75.1 C1,75.1 0.9,75.2 0.9,75.2 C0.8,75.4 0.7,75.5 0.7,75.7 C0.7,75.8 0.6,75.8 0.6,75.9 C0.5,76 0.5,76.2 0.4,76.3 C0.4,76.4 0.3,76.5 0.3,76.6 C0.3,76.7 0.2,76.9 0.2,77 C0.2,77.1 0.2,77.2 0.1,77.3 C0.1,77.5 -0,77.6 -0,77.8 C-0,77.9 -0,78 -0,78 C-0,78.2 -0,78.5 -0,78.7 C-0,78.7 -0,78.7 -0,78.7 L-0,276.2 C-0,280.3 3.3,283.6 7.4,283.6 L204.9,283.6 C205.1,283.6 205.4,283.6 205.6,283.6 C205.7,283.6 205.8,283.6 205.9,283.6 C206,283.6 206.2,283.6 206.3,283.5 C206.4,283.5 206.6,283.4 206.7,283.4 C206.8,283.4 206.9,283.3 207,283.3 C207.1,283.3 207.2,283.2 207.4,283.2 C207.5,283.2 207.6,283.1 207.7,283.1 C207.8,283.1 207.9,283 208,282.9 C208.1,282.8 208.2,282.8 208.3,282.7 C208.4,282.6 208.5,282.6 208.6,282.5 C208.7,282.4 208.8,282.4 208.9,282.3 C209,282.2 209.1,282.1 209.3,282 C209.4,281.9 209.4,281.9 209.5,281.8 C209.7,281.6 209.9,281.5 210.1,281.3 L279.8,211.6 C281.2,210.3 282,208.4 282,206.3 L282,9 C282.2,6.4 280.8,4.1 278.8,2.8 z M80.3,16.4 L256.8,16.4 L201.8,71.4 L25.3,71.4 L80.3,16.4 z M212.3,81.8 L267.3,26.8 L267.3,203.3 L212.3,258.3 L212.3,81.8 z M14.8,86.2 L197.4,86.2 L197.4,268.8 L14.8,268.8 L14.8,86.2 z" fill="#000000"/>
  </g>
</svg>
