<?xml version="1.0" encoding="UTF-8"?>
<!DOCTYPE svg PUBLIC "-//W3C//DTD SVG 1.1//EN" "http://www.w3.org/Graphics/SVG/1.1/DTD/svg11.dtd">
<svg version="1.1" xmlns="http://www.w3.org/2000/svg" xmlns:xlink="http://www.w3.org/1999/xlink" x="0" y="0" width="283.5" height="283.5" viewBox="0, 0, 283.5, 283.5">
  <g id="Background">
    <rect x="0" y="0" width="283.5" height="283.5" fill="#FFFFFF"/>
  </g>
  <g id="Layer_1">
    <path d="M147.6,102.1 C157.5,102.1 167.1,106.4 175.2,114.5 C184.2,123.4 196.3,135.4 206.1,145 C212.4,151.2 217.4,156.1 219.8,158.5 C226.7,165.5 232.4,179.1 232.3,185.8 L232.3,204.7 C232.3,215.6 223.4,224.5 212.5,224.5 L209.2,224.5 C206.6,230.9 200.2,235.4 192.9,235.4 C185.6,235.4 179.2,230.9 176.6,224.5 L56.4,224.5 C53.8,230.9 47.4,235.4 40.1,235.4 C32.8,235.4 26.4,230.9 23.8,224.5 L20.4,224.5 C9.5,224.5 0.6,215.6 0.6,204.7 L0.6,121.9 C0.6,111 9.5,102.1 20.4,102.1 L147.6,102.1 z M192.9,213.6 C190.6,213.6 188.7,215.5 188.7,217.8 C188.7,220.1 190.6,222 192.9,222 C195.3,222 197.2,220.1 197.1,217.8 C197.1,215.5 195.2,213.6 192.9,213.6 z M40.1,213.6 C37.8,213.6 35.9,215.5 35.9,217.8 C35.9,220.1 37.8,222 40.1,222 C42.5,222 44.3,220.1 44.3,217.8 C44.3,215.5 42.4,213.6 40.1,213.6 z M147.5,115.5 L20.4,115.5 C16.9,115.5 14,118.4 14,121.9 L14,204.7 C14,208.2 16.9,211.1 20.4,211.1 L23.8,211.1 C26.4,204.7 32.8,200.2 40.1,200.2 C47.4,200.2 53.8,204.7 56.4,211.1 L176.7,211.1 C179.3,204.7 185.7,200.2 193,200.2 C200.3,200.2 206.7,204.7 209.3,211.1 L212.6,211.1 C216.1,211.1 219,208.2 219,204.7 L218.9,204.7 L218.9,185.9 C218.9,184.9 218.4,183 217.6,180.8 L173.4,180.8 C162.5,180.8 153.6,171.9 153.6,161 L153.6,116.4 C151.6,115.8 149.5,115.5 147.5,115.5 z M167,125.2 L167,160.9 C167,164.4 169.9,167.3 173.4,167.3 L209.6,167.3 C207,164.7 202.2,159.9 196.7,154.5 C187.3,145.4 175.9,134.1 167,125.2 z M172.9,76.7 L45.8,76.7 C40.5,76.7 35.6,78.8 31.8,82.5 C29.2,85.1 29.2,89.4 31.8,92 C34.4,94.6 38.7,94.6 41.3,92 C42.5,90.8 44.1,90.1 45.8,90.1 L172.9,90.1 C174.9,90.1 177,90.4 179,91 L179,105.1 C179,108.8 182,111.8 185.7,111.8 C189.4,111.8 192.4,108.8 192.4,105.1 L192.4,99.9 C201.2,108.7 212.7,120 222,129.2 C227.5,134.6 232.3,139.4 235,142 L229.4,142 C225.7,142 222.7,145 222.7,148.7 C222.7,152.4 225.7,155.4 229.4,155.4 L243,155.4 C243.8,157.6 244.3,159.5 244.3,160.5 L244.3,179.4 C244.3,181.7 243.1,183.8 241.1,184.9 C237.9,186.8 236.8,190.9 238.7,194.1 C239.9,196.2 242.2,197.4 244.5,197.4 C245.6,197.4 246.8,197.1 247.9,196.5 C254,193 257.8,186.4 257.8,179.4 L257.8,160.5 C257.7,153.8 252.1,140.2 245.1,133.2 C242.7,130.8 237.7,125.9 231.4,119.6 C221.6,110 209.5,98 200.5,89.1 C192.4,81 182.8,76.7 172.9,76.7 z M198,51.6 L70.9,51.6 C65.6,51.6 60.7,53.7 56.9,57.4 C54.3,60 54.3,64.3 56.9,66.9 C59.5,69.5 63.8,69.5 66.4,66.9 C67.6,65.7 69.2,65 70.9,65 L198,65 C200,65 202.1,65.3 204.1,65.9 L204.1,80 C204.1,83.7 207.1,86.7 210.8,86.7 C214.5,86.7 217.5,83.7 217.5,80 L217.5,74.8 C226.3,83.6 237.8,94.9 247.1,104 C252.6,109.5 257.5,114.2 260.1,116.8 L254.5,116.8 C250.8,116.8 247.8,119.8 247.8,123.5 C247.8,127.2 250.8,130.2 254.5,130.2 L268.2,130.2 C269,132.4 269.5,134.3 269.5,135.3 L269.5,154.2 C269.5,156.5 268.3,158.6 266.3,159.7 C263.1,161.6 262,165.7 263.9,168.9 C265.1,171 267.4,172.2 269.7,172.2 C270.8,172.2 272,171.9 273.1,171.3 C279.2,167.8 283,161.2 283,154.2 L283,135.3 C282.8,128.7 277.2,115.1 270.2,108.1 C267.8,105.7 262.8,100.7 256.4,94.5 C246.7,84.9 234.5,73 225.6,64 C217.5,55.9 207.9,51.6 198,51.6 z" fill="#000000"/>
  </g>
</svg>
