<?xml version="1.0" encoding="UTF-8"?>
<!DOCTYPE svg PUBLIC "-//W3C//DTD SVG 1.1//EN" "http://www.w3.org/Graphics/SVG/1.1/DTD/svg11.dtd">
<svg version="1.1" xmlns="http://www.w3.org/2000/svg" xmlns:xlink="http://www.w3.org/1999/xlink" x="0" y="0" width="283.5" height="283.5" viewBox="0, 0, 283.5, 283.5">
  <g id="Background">
    <rect x="0" y="0" width="283.5" height="283.5" fill="#FFFFFF"/>
  </g>
  <g id="Layer_1">
    <path d="M175.4,283.5 C175.4,283.5 175.4,283.5 175.4,283.5 C172.5,283.5 170,281.6 169,279 L126.6,156.9 L4.5,114.4 C1.9,113.5 0,111 0,108.1 C0,105.3 1.7,102.7 4.4,101.7 L274.4,0.4 C276.9,-0.5 279.7,0.1 281.5,1.9 C283.4,3.8 284,6.6 283,9 L181.7,279 C180.8,281.7 178.2,283.5 175.4,283.5 z M26.6,107.8 L134.2,145.1 C136.2,145.8 137.7,147.3 138.4,149.3 L175.7,256.9 L265.2,18.3 L26.6,107.8 z" fill="#010202"/>
  </g>
</svg>
