<?xml version="1.0" encoding="UTF-8"?>
<!DOCTYPE svg PUBLIC "-//W3C//DTD SVG 1.1//EN" "http://www.w3.org/Graphics/SVG/1.1/DTD/svg11.dtd">
<svg version="1.1" xmlns="http://www.w3.org/2000/svg" xmlns:xlink="http://www.w3.org/1999/xlink" x="0" y="0" width="283.5" height="283.5" viewBox="0, 0, 283.5, 283.5">
  <g id="Background">
    <rect x="0" y="0" width="283.5" height="283.5" fill="#FFFFFF"/>
  </g>
  <g id="Layer_1">
    <path d="M143.205,0.605 C181.022,1.367 214.363,15.858 241.558,41.942 C296.592,96.976 296.592,186.524 241.558,241.558 C215.104,268.046 179.186,282.9 141.751,282.834 C77.88,282.828 21.977,239.924 5.452,178.228 C-11.074,116.533 15.9,51.429 71.217,19.499 C89.74,8.866 110.506,2.444 131.825,0.943 C135.611,0.677 139.412,0.717 143.205,0.605 z M141.751,13.9 C80.757,13.898 28.255,56.983 16.355,116.805 C4.454,176.628 36.469,236.525 92.821,259.867 C149.172,283.21 214.164,263.495 248.051,212.78 C281.938,162.065 275.281,94.475 232.151,51.346 C208.228,27.292 175.676,13.809 141.751,13.9 z M196.735,80.614 C198.411,80.741 199.724,81.476 200.96,82.544 C202.805,84.389 203.401,87.142 202.484,89.584 L151.227,226.065 C150.253,228.66 147.772,230.378 145,230.377 L144.92,230.377 C142.121,230.344 139.642,228.561 138.72,225.917 L117.751,165.748 L57.583,144.778 C54.943,143.855 53.162,141.378 53.129,138.581 C53.095,135.784 54.815,133.264 57.433,132.278 L193.921,81.021 C195.454,80.569 194.527,80.77 196.735,80.614 z M184.882,98.622 L79.311,138.264 L125.164,154.245 C127.081,154.912 128.587,156.419 129.255,158.335 L145.235,204.19 L184.882,98.622 z" fill="#1D1D1B"/>
  </g>
</svg>
