<?xml version="1.0" encoding="UTF-8"?>
<!DOCTYPE svg PUBLIC "-//W3C//DTD SVG 1.1//EN" "http://www.w3.org/Graphics/SVG/1.1/DTD/svg11.dtd">
<svg version="1.1" xmlns="http://www.w3.org/2000/svg" xmlns:xlink="http://www.w3.org/1999/xlink" x="0" y="0" width="283.5" height="283.5" viewBox="0, 0, 283.5, 283.5">
  <g id="Background">
    <rect x="0" y="0" width="283.5" height="283.5" fill="#FFFFFF"/>
  </g>
  <g id="Layer_1">
    <path d="M141.7,0 C219.9,0 283.5,63.6 283.4,141.7 C283.4,219.8 219.8,283.4 141.7,283.4 C63.6,283.4 0,219.9 0,141.7 C0,63.6 63.6,0 141.7,0 z M237,56 L163.7,129.3 L109.4,183.6 L56,237 C78.7,257.5 108.8,270 141.7,270 C212.4,270 270,212.4 270,141.7 C270,108.8 257.5,78.7 237,56 z M210.636,87.675 C213.568,87.853 215.42,89.39 216.9,91.8 L227.8,118.3 C237.8,120.5 245.3,129.4 244.9,140 L244.9,163.2 C244.9,175.5 234.9,185.5 222.6,185.5 L221.6,185.5 L221.6,200.5 C221.6,204.2 218.6,207.2 214.9,207.2 C211.2,207.2 208.2,204.2 208.2,200.5 L208.2,178.4 C204.1,182.8 198.3,185.5 191.9,185.5 L190.9,185.5 L190.9,200.5 C190.9,204.2 187.9,207.2 184.2,207.2 C180.5,207.2 177.5,204.2 177.5,200.5 L177.5,178.4 C173.4,182.8 167.6,185.5 161.2,185.5 L160.2,185.5 L160.2,200.5 C160.2,204.2 157.2,207.2 153.5,207.2 C149.8,207.2 146.8,204.2 146.8,200.5 L146.8,185.5 L125.8,185.5 C122.1,185.5 119.1,182.5 119.1,178.8 C119.1,175.1 122.1,172.1 125.8,172.1 L161.3,172.1 C166.2,172.1 170.1,168.1 170.1,163.3 L170.1,140 C170.1,138.1 169.6,136.4 168.5,134.9 C166.4,131.9 167.1,127.7 170.1,125.5 C173.1,123.4 177.3,124.1 179.5,127.1 C182.2,130.9 183.6,135.3 183.6,140 L183.6,163.5 C183.6,166.9 182.8,170 181.5,172.9 C182.3,172.5 183.3,172.3 184.3,172.3 L192.1,172.3 C197,172.3 200.9,168.3 200.9,163.5 L200.9,140.2 C200.9,135.3 197,131.4 192.2,131.4 C191.6,131.4 191.1,131.2 190.5,131.1 L190.1,131 C189.6,130.8 189.1,130.6 188.6,130.3 C188.6,130.2 188.5,130.2 188.5,130.2 C188,129.8 187.6,129.4 187.2,129 L186.9,128.7 C186.6,128.2 186.2,127.7 186,127.1 L182.5,118.5 C181.1,115.1 182.8,111.1 186.2,109.7 C189.6,108.3 193.6,110 195,113.4 L197,118.3 C207,120.4 214.5,129.4 214.5,140 L214.5,163.4 C214.5,166.8 213.7,169.9 212.4,172.8 C213.2,172.4 214.2,172.2 215.2,172.2 L223,172.2 C227.9,172.2 231.8,168.2 231.8,163.4 L231.8,140.1 C231.8,135.2 227.8,131.3 223,131.3 C222.4,131.3 221.9,131.1 221.3,131 L220.9,130.9 C220.4,130.7 219.9,130.5 219.4,130.2 C219.4,130.1 219.3,130.1 219.3,130.1 C218.8,129.7 218.4,129.3 218,128.9 L217.7,128.6 C217.4,128.2 217,127.7 216.8,127.1 L204.4,96.9 C203,93.5 204.7,89.5 208.1,88.1 L209.397,87.718 L210.636,87.675 z M153.8,143.2 C158.4,143.2 162.2,147 162.2,151.6 C162.2,156.2 158.4,160 153.8,160 C149.2,160 145.5,156.3 145.4,151.6 C145.4,147 149.2,143.2 153.8,143.2 z M141.7,13.5 C71,13.5 13.5,71 13.6,141.8 C13.6,174.7 26.1,204.8 46.6,227.5 L67.4,206.7 C65.1,205.6 63.5,203.3 63.5,200.6 L63.5,185.6 L62.5,185.6 C50.2,185.6 40.2,175.6 40.2,163.3 L40.2,140 C40.2,129.4 47.7,120.5 57.7,118.3 L69,90.6 C71.5,84 78.6,79 85.7,79 L138.3,79 C145.4,79 152.5,84 155,90.6 L163.2,110.7 L174.7,99.2 L173.2,95.5 C173.2,95.4 173.1,95.3 173.1,95.2 C172.6,93.9 170.5,92.4 169.1,92.4 L164.1,92.4 C160.4,92.4 157.4,89.4 157.4,85.7 C157.4,82 160.4,79 164.1,79 L169.1,79 C175.6,79 182.1,83.2 185,89 L227.4,46.5 C204.7,26 174.6,13.5 141.7,13.5 z M88.3,185.6 L76.9,185.6 L76.9,197 L88.3,185.6 z M142.6,131.2 L62.4,131.2 C57.5,131.2 53.6,135.2 53.6,140 L53.6,163.2 C53.6,168.1 57.6,172 62.4,172 L101.9,172 L142.6,131.2 z M70.2,143.3 C74.8,143.3 78.6,147 78.6,151.7 C78.6,156.3 74.8,160.1 70.2,160.1 C65.6,160.1 61.8,156.3 61.8,151.7 C61.8,147.1 65.6,143.3 70.2,143.3 z M138.3,92.5 L85.7,92.5 C84.3,92.5 82.2,94 81.7,95.3 C81.7,95.4 81.6,95.5 81.6,95.6 L72.5,117.8 L151.5,117.8 L142.4,95.6 C142.4,95.5 142.3,95.4 142.3,95.3 C141.8,94 139.7,92.5 138.3,92.5 z" fill="#000000"/>
  </g>
</svg>
