<?xml version="1.0" encoding="UTF-8"?>
<!DOCTYPE svg PUBLIC "-//W3C//DTD SVG 1.1//EN" "http://www.w3.org/Graphics/SVG/1.1/DTD/svg11.dtd">
<svg version="1.1" xmlns="http://www.w3.org/2000/svg" xmlns:xlink="http://www.w3.org/1999/xlink" x="0" y="0" width="283.5" height="283.5" viewBox="0, 0, 283.5, 283.5">
  <g id="Background">
    <rect x="0" y="0" width="283.5" height="283.5" fill="#FFFFFF"/>
  </g>
  <g id="Layer_1">
    <path d="M141.7,-0.1 C180.4,-0.1 215.6,15.6 241.2,40.9 C241.5,41.1 241.7,41.3 241.9,41.5 C242.2,41.7 242.3,42 242.5,42.2 C267.8,67.8 283.5,103 283.5,141.8 C283.5,219.9 220,283.5 141.8,283.5 C103.1,283.5 67.9,267.8 42.3,242.5 C42,242.3 41.9,242.1 41.6,241.9 C41.3,241.7 41.2,241.4 41,241.2 C15.7,215.6 0,180.5 0,141.7 C0,63.6 63.6,0 141.7,-0.1 z M237,56 L178.1,114.9 L213,149.8 C218.4,155.2 221.3,162.3 221.3,169.9 C221.3,177.5 218.3,184.7 213,190 L190,213 C184.4,218.5 177.2,221.3 169.9,221.3 C162.6,221.3 155.3,218.5 149.8,213 L114.9,178.1 L56,237 C78.7,257.5 108.8,270 141.7,270 C212.4,270 270,212.4 270,141.7 C270,108.8 257.5,78.7 237,56 z M141.7,13.5 C71,13.5 13.5,71 13.5,141.7 C13.5,174.6 26,204.7 46.5,227.4 L105.8,168.1 C98.2,157.1 99.3,141.8 109.1,132 L115.8,125.3 L64.2,73.7 C61.6,71.1 61.6,66.8 64.2,64.2 C66.8,61.6 71.1,61.6 73.7,64.2 L125.3,115.8 L132,109.1 C141.8,99.3 157,98.2 168.1,105.8 L227.4,46.5 C204.7,26 174.6,13.5 141.7,13.5 z M168.5,124.5 L124.4,168.5 L159.3,203.4 C165.1,209.2 174.6,209.2 180.4,203.4 L203.4,180.4 C206.2,177.6 207.7,173.9 207.7,169.9 C207.7,165.9 206.2,162.2 203.4,159.4 L168.5,124.5 z M179.537,163.372 C182.37,164.515 181.279,163.799 183,165.2 C185.6,167.8 185.6,172.1 183,174.7 L174.8,182.9 C173.5,184.2 171.7,184.9 170,184.9 C168.2,184.9 166.5,184.3 165.3,182.9 C162.7,180.3 162.7,176 165.3,173.4 L173.5,165.2 C175.709,163.187 176.767,163.372 179.537,163.372 z M151.786,114.264 C147.774,114.477 144.495,115.924 141.6,118.6 L118.6,141.6 C114.1,146.1 113.2,152.8 115.7,158.2 L158.3,115.6 C154.799,114.318 156.932,114.922 151.786,114.264 z" fill="#000000"/>
  </g>
</svg>
