<?xml version="1.0" encoding="UTF-8"?>
<!DOCTYPE svg PUBLIC "-//W3C//DTD SVG 1.1//EN" "http://www.w3.org/Graphics/SVG/1.1/DTD/svg11.dtd">
<svg version="1.1" xmlns="http://www.w3.org/2000/svg" xmlns:xlink="http://www.w3.org/1999/xlink" x="0" y="0" width="283.5" height="283.5" viewBox="0, 0, 283.5, 283.5">
  <g id="Background">
    <rect x="0" y="0" width="283.5" height="283.5" fill="#FFFFFF"/>
  </g>
  <g id="Layer_1">
    <path d="M141.7,0 C219.9,0 283.5,63.6 283.4,141.7 C283.4,219.8 219.9,283.4 141.7,283.4 C95,283.4 53.5,260.7 27.7,225.8 C27.3,225.3 26.9,224.8 26.6,224.2 C9.9,200.9 0,172.5 0,141.7 C0,63.6 63.6,0 141.7,0 z M237,56 L83.4,209.6 C87.5,210.4 90.5,213.9 90.5,218.2 C90.5,223.1 86.5,227 81.7,227 C77.4,227 73.9,223.9 73.1,219.9 L56,237 C78.7,257.5 108.8,270 141.7,270 C212.4,270 270,212.4 270,141.7 C270,108.8 257.5,78.7 237,56 z M198.753,98.834 C202.173,98.818 204.509,100.432 205.7,103.6 C211,121.7 208.3,141.2 198.4,157 C184,179.9 148.5,223.5 147,225.3 C145.7,226.9 143.8,227.8 141.8,227.8 L141.7,227.8 C139.9,227.8 138.1,227 136.9,225.8 C136.5,225.4 136.2,225 135.9,224.5 C133.2,221.2 122.5,207.5 111,192.4 C108.8,189.4 109.3,185.2 112.3,182.9 C115.3,180.7 119.5,181.2 121.8,184.2 C129.6,194.5 137.1,204.1 141.9,210.2 C152.5,197 176.3,166.9 187,149.9 C194.9,137.4 197,121.9 192.8,107.5 C191.8,103.9 193.8,100.1 197.4,99.1 L198.753,98.834 z M109.1,209.4 C113.96,209.4 117.9,213.34 117.9,218.2 C117.9,223.06 113.96,227 109.1,227 C104.24,227 100.3,223.06 100.3,218.2 C100.3,213.34 104.24,209.4 109.1,209.4 z M141.7,13.5 C71,13.5 13.5,71 13.4,141.8 C13.4,174.7 25.9,204.8 46.4,227.5 L49.3,224.6 C47.5,223 46.4,220.8 46.4,218.2 C46.4,213.3 50.4,209.4 55.2,209.4 C57.7,209.4 60,210.6 61.6,212.3 L98.4,175.5 C92.9,168.1 88.5,161.9 85.2,157 C68.3,132 72.4,97.6 94.8,75.2 C107.4,62.6 124,55.7 141.8,55.7 C159.6,55.7 176.2,62.6 188.8,75.2 C190.5,76.9 192,78.6 193.5,80.4 L227.4,46.5 C204.7,26 174.6,13.5 141.7,13.5 z M142,69.4 C127.8,69.4 114.5,74.9 104.5,84.9 C86.6,102.8 83.3,130 96.5,149.6 C99.5,154 103.4,159.5 108.2,166 L128.2,146 C125.9,144.8 123.9,143.3 122,141.4 C118.6,138 116.3,133.8 115.1,129.3 L114.3,129.3 C110.6,129.3 107.6,126.3 107.6,122.6 C107.6,118.9 110.6,115.9 114.3,115.9 L115.1,115.9 C116.3,111.3 118.6,107.2 122,103.8 C127,98.8 133.7,96 140.8,96 C147.9,96 154.6,98.8 159.6,103.8 C162.2,106.4 162.2,110.7 159.6,113.3 C157,115.9 152.7,115.9 150.1,113.3 C147.6,110.9 144.3,109.5 140.8,109.5 C137.3,109.5 134,110.8 131.5,113.3 C130.8,114 130.1,114.9 129.6,115.8 L141.6,115.8 C145.3,115.8 148.3,118.8 148.3,122.5 C148.3,126.2 145.3,129.2 141.6,129.2 L129.6,129.2 C130.1,130.1 130.7,130.9 131.5,131.7 C133.4,133.6 135.9,134.9 138.6,135.3 L184.1,90.2 C182.7,88.3 181.2,86.6 179.5,84.9 C169.5,74.9 156.1,69.4 142,69.4 z" fill="#000000"/>
  </g>
</svg>
