<?xml version="1.0" encoding="UTF-8"?>
<!DOCTYPE svg PUBLIC "-//W3C//DTD SVG 1.1//EN" "http://www.w3.org/Graphics/SVG/1.1/DTD/svg11.dtd">
<svg version="1.1" xmlns="http://www.w3.org/2000/svg" xmlns:xlink="http://www.w3.org/1999/xlink" x="0" y="0" width="283.5" height="283.5" viewBox="0, 0, 283.5, 283.5">
  <g id="Background">
    <rect x="0" y="0" width="283.5" height="283.5" fill="#FFFFFF"/>
  </g>
  <g id="Layer_1">
    <path d="M141.7,0 C219.9,0 283.4,63.6 283.4,141.7 C283.4,219.8 219.8,283.4 141.7,283.4 C63.6,283.4 0,219.8 0,141.7 C0,63.6 63.6,0 141.7,0 z M237,56 L56,237 C78.7,257.5 108.8,270 141.7,270 C212.4,270 270,212.4 270,141.7 C270,108.8 257.5,78.7 237,56 z M188.221,113.288 C191.659,113.106 194.024,114.669 195.5,117.7 L198.4,125.9 C209.9,127.4 218.9,137.2 218.8,149 L218.8,174.2 C218.8,187.1 208.3,197.7 195.3,197.7 L193.7,197.7 L193.7,214.4 C193.7,218.1 190.7,221.1 187,221.1 C183.3,221.1 180.3,218.1 180.3,214.4 L180.3,197.7 L113.5,197.7 C109.8,197.7 106.8,194.7 106.8,191 C106.8,187.3 109.8,184.3 113.5,184.3 L195.4,184.3 C200.9,184.3 205.4,179.8 205.4,174.3 L205.4,149.1 C205.4,143.6 200.9,139.1 195.4,139.1 L175.9,139.1 C172.2,139.1 169.2,136.1 169.2,132.4 C169.2,128.7 172.2,125.7 175.9,125.7 L184,125.7 L182.8,122.2 C181.6,118.7 183.4,114.9 186.9,113.6 L188.221,113.288 z M187,153.4 C191.6,153.4 195.4,157.2 195.4,161.8 C195.4,166.4 191.6,170.2 187,170.2 C182.4,170.2 178.6,166.4 178.6,161.8 C178.6,157.2 182.4,153.4 187,153.4 z M141.7,13.5 C71,13.5 13.5,71 13.5,141.7 C13.5,174.6 26,204.7 46.5,227.4 L78.3,195.6 C70.2,191.9 64.6,183.7 64.6,174.3 L64.6,149.1 C64.6,137.2 73.6,127.3 85.1,125.8 L95.7,96 C96.9,92.5 100.8,90.6 104.3,91.9 C107.8,93.1 109.7,97 108.4,100.5 L99.5,125.5 L148.3,125.5 L174.4,99.4 C173.4,98.2 171.6,97.1 170.2,97.1 L155.3,97.1 C151.6,97.1 148.6,94.1 148.6,90.4 C148.6,86.7 151.6,83.7 155.3,83.7 L170.2,83.7 C175.3,83.7 180.4,86.2 183.9,90 L227.4,46.5 C204.7,26 174.6,13.5 141.7,13.5 z M137.3,48.4 C144.3,48.4 149.9,54.1 149.9,61 L149.9,64.4 L179.3,64.4 C181.2,64.4 182.7,65.9 182.7,67.8 C182.7,69.7 181.2,71.2 179.3,71.2 L149.9,71.2 L149.9,74.7 C149.9,81.7 144.2,87.3 137.3,87.3 L112.9,87.3 C106,87.3 100.3,81.6 100.4,74.7 L100.4,61 C100.4,54 106,48.4 112.9,48.4 L137.3,48.4 z M137.2,55.1 L112.8,55.1 C109.7,55.1 107.1,57.7 107.1,60.9 L107.1,60.9 L107.1,74.6 C107.1,77.8 109.6,80.4 112.8,80.4 L137.2,80.4 C140.4,80.4 143,77.8 143,74.6 L143,60.9 C143,57.7 140.4,55.1 137.2,55.1 z M117.3,61.9 C119.2,61.9 120.7,63.4 120.7,65.3 L120.7,70.2 C120.7,72.1 119.2,73.6 117.3,73.6 C115.4,73.6 113.9,72.1 113.9,70.2 L113.9,65.3 C113.9,63.4 115.4,61.9 117.3,61.9 z M134.8,139.2 L88.1,139.2 C82.6,139.2 78.1,143.7 78.1,149.2 L78.1,174.4 C78.1,179.9 82.6,184.4 88.1,184.4 C88.5,184.4 89,184.4 89.4,184.5 L134.8,139.2 z M96.5,153.4 C101.1,153.4 104.9,157.1 104.9,161.8 C104.9,166.4 101.1,170.2 96.5,170.2 C91.9,170.2 88.1,166.4 88.1,161.8 C88.1,157.2 91.9,153.4 96.5,153.4 z" fill="#000000"/>
  </g>
</svg>
