<?xml version="1.0" encoding="UTF-8"?>
<!DOCTYPE svg PUBLIC "-//W3C//DTD SVG 1.1//EN" "http://www.w3.org/Graphics/SVG/1.1/DTD/svg11.dtd">
<svg version="1.1" xmlns="http://www.w3.org/2000/svg" xmlns:xlink="http://www.w3.org/1999/xlink" x="0" y="0" width="283.5" height="283.5" viewBox="0, 0, 283.5, 283.5">
  <g id="Background">
    <rect x="0" y="0" width="283.5" height="283.5" fill="#FFFFFF"/>
  </g>
  <g id="Layer_1">
    <path d="M141.7,0 C219.9,0 283.4,63.6 283.4,141.7 C283.4,219.8 219.8,283.4 141.7,283.4 C63.6,283.4 0,219.8 0,141.7 C0,63.6 63.6,0 141.7,0 z M237,56 L56,237 C78.7,257.5 108.8,270 141.7,270 C212.4,270 270,212.4 270,141.7 C270,108.8 257.5,78.7 237,56 z M96.5,200.7 C100.2,200.7 103.2,203.7 103.2,207.4 L103.2,214.6 C103.2,218.3 100.2,221.3 96.5,221.3 C92.8,221.3 89.8,218.3 89.8,214.6 L89.8,207.4 C89.8,203.7 92.8,200.7 96.5,200.7 z M188.221,113.288 C191.659,113.106 194.024,114.669 195.5,117.7 L198.4,125.9 C209.9,127.4 218.9,137.2 218.8,149 L218.8,174.2 C218.8,187.1 208.3,197.7 195.3,197.7 L193.7,197.7 L193.7,214.4 C193.7,218.1 190.7,221.1 187,221.1 C183.3,221.1 180.3,218.1 180.3,214.4 L180.3,197.7 L113.5,197.7 C109.8,197.7 106.8,194.7 106.8,191 C106.8,187.3 109.8,184.3 113.5,184.3 L195.4,184.3 C200.9,184.3 205.4,179.8 205.4,174.3 L205.4,149.1 C205.4,143.6 200.9,139.1 195.4,139.1 L175.9,139.1 C172.2,139.1 169.2,136.1 169.2,132.4 C169.2,128.7 172.2,125.7 175.9,125.7 L184,125.7 L182.8,122.2 C181.6,118.7 183.4,114.9 186.9,113.6 L188.221,113.288 z M187,154.1 C191.6,154.1 195.4,157.9 195.4,162.5 C195.4,167.1 191.6,170.9 187,170.9 C182.4,170.9 178.6,167.1 178.6,162.5 C178.6,157.9 182.4,154.1 187,154.1 z M141.7,13.5 C71,13.5 13.5,71 13.6,141.7 C13.6,174.6 26.1,204.7 46.6,227.4 L78.4,195.6 C70.3,191.9 64.7,183.7 64.7,174.3 L64.7,149.1 C64.7,137.2 73.7,127.3 85.2,125.8 L95.8,96 C98.4,88.9 105.9,83.6 113.4,83.6 L117.7,83.6 L117.7,71.5 C117.7,67.8 120.7,64.8 124.4,64.8 L162.2,64.8 C165.9,64.8 168.9,67.8 168.9,71.5 L168.9,83.7 L170.2,83.7 C175.3,83.7 180.4,86.2 183.9,90 L227.4,46.5 C204.7,26 174.6,13.5 141.7,13.5 z M134.8,139.2 L88.1,139.2 C82.6,139.2 78.1,143.7 78.1,149.2 L78.1,174.4 C78.1,179.9 82.6,184.4 88.1,184.4 C88.5,184.4 89,184.4 89.4,184.5 L134.8,139.2 z M96.5,154.1 C101.1,154.1 104.9,157.8 104.9,162.5 C104.9,167.1 101.1,170.9 96.5,170.9 C91.9,170.9 88.1,167.1 88.1,162.5 C88.1,157.9 91.9,154.1 96.5,154.1 z M170.2,97.2 L113.3,97.2 C111.5,97.2 109,98.9 108.4,100.6 L99.5,125.6 L148.3,125.6 L174.4,99.5 C173.4,98.3 171.6,97.2 170.2,97.2 z M155.4,78.3 L131.1,78.3 L131.1,83.7 L155.4,83.7 L155.4,78.3 z" fill="#000000"/>
  </g>
</svg>
