<?xml version="1.0" encoding="UTF-8"?>
<!DOCTYPE svg PUBLIC "-//W3C//DTD SVG 1.1//EN" "http://www.w3.org/Graphics/SVG/1.1/DTD/svg11.dtd">
<svg version="1.1" xmlns="http://www.w3.org/2000/svg" xmlns:xlink="http://www.w3.org/1999/xlink" x="0" y="0" width="283.5" height="283.5" viewBox="0, 0, 283.5, 283.5">
  <g id="Background">
    <rect x="0" y="0" width="283.5" height="283.5" fill="#FFFFFF"/>
  </g>
  <g id="Layer_1">
    <path d="M249.3,40 C267.9,40 283,55.1 283,73.7 L283,209.8 C283,228.4 267.9,243.5 249.3,243.5 L33.6,243.5 C15,243.5 -0.1,228.4 -0.1,209.8 L-0.1,73.7 C-0.1,55.1 15.1,40 33.6,40 L249.3,40 z M249.3,53.5 L33.6,53.5 C22.5,53.5 13.4,62.6 13.4,73.7 L13.4,209.8 C13.4,220.9 22.5,230 33.6,230 L87.949,230 L105.292,206.297 C93.188,204.492 85.207,195.073 84.6,183 L84.6,95.9 C84.6,82.9 95.1,72.4 108.1,72.4 L174.8,72.4 C187.8,72.4 198.3,82.9 198.3,95.9 L198.3,183 C198.12,193.222 191.646,202.352 181.796,205.445 C180.465,205.863 179.062,206.001 177.695,206.279 L195.051,230 L249.3,230 C260.4,230 269.5,220.9 269.5,209.8 L269.5,73.7 C269.5,62.6 260.4,53.5 249.3,53.5 z M161.176,206.5 L121.824,206.5 L104.629,230 L178.371,230 L161.176,206.5 z M184.8,150.2 L98.1,150.2 L98.1,183 C98.1,188.5 102.6,193 108.1,193 L174.8,193 C180.3,193 184.8,188.5 184.8,183 L184.8,150.2 z M166.4,162.8 C171,162.8 174.8,166.6 174.8,171.2 C174.8,175.8 171,179.6 166.4,179.6 C161.8,179.6 158,175.8 158,171.2 C158,166.6 161.7,162.8 166.4,162.8 z M116.5,162.8 C121.2,162.8 124.9,166.6 124.9,171.2 C124.9,175.8 121.2,179.6 116.5,179.6 C111.8,179.6 108.1,175.8 108.1,171.2 C108.1,166.6 111.8,162.8 116.5,162.8 z M174.8,85.9 L108.1,85.9 C102.6,85.9 98.1,90.4 98.1,95.9 L98.1,136.8 L184.8,136.8 L184.8,95.9 C184.8,90.4 180.3,85.9 174.8,85.9 z" fill="#000000"/>
  </g>
</svg>
