<?xml version="1.0" encoding="UTF-8"?>
<!DOCTYPE svg PUBLIC "-//W3C//DTD SVG 1.1//EN" "http://www.w3.org/Graphics/SVG/1.1/DTD/svg11.dtd">
<svg version="1.1" xmlns="http://www.w3.org/2000/svg" xmlns:xlink="http://www.w3.org/1999/xlink" x="0" y="0" width="283.5" height="283.5" viewBox="0, 0, 283.5, 283.5">
  <g id="Background">
    <rect x="0" y="0" width="283.5" height="283.5" fill="#FFFFFF"/>
  </g>
  <g id="Layer_1">
    <path d="M170.1,142.1 C177.6,142.1 185.1,147.4 187.7,154.5 L198.281,184.24 C210.276,186.079 218.194,195.547 218.8,207.5 L218.8,232.7 C218.9,245.6 208.3,256.2 195.3,256.2 L193.7,256.2 L193.7,273 C193.7,276.7 190.7,279.7 187,279.7 C183.3,279.7 180.3,276.7 180.3,273 L180.3,256.2 L103.2,256.2 L103.2,273 C103.3,276.7 100.2,279.7 96.5,279.7 C92.8,279.7 89.8,276.7 89.8,273 L89.8,256.2 L88.1,256.2 C75.1,256.2 64.6,245.6 64.6,232.7 L64.6,207.5 C64.784,197.256 71.306,188.181 81.141,185.055 C82.396,184.656 83.721,184.527 85.011,184.264 L95.6,154.5 C98.1,147.4 105.7,142.1 113.2,142.1 L170.1,142.1 z M195.3,197.5 L88.1,197.5 C82.6,197.5 78.1,202 78.1,207.5 L78.1,232.7 C78.1,238.2 82.6,242.7 88.1,242.7 L195.3,242.7 C200.8,242.7 205.3,238.2 205.3,232.7 L205.3,207.5 C205.3,202 200.8,197.5 195.3,197.5 z M96.5,212.4 C101.139,212.4 104.9,216.161 104.9,220.8 C104.9,225.439 101.139,229.2 96.5,229.2 C91.861,229.2 88.1,225.439 88.1,220.8 C88.1,216.161 91.861,212.4 96.5,212.4 z M187,212.4 C191.639,212.4 195.4,216.161 195.4,220.8 C195.4,225.439 191.639,229.2 187,229.2 C182.361,229.2 178.6,225.439 178.6,220.8 C178.6,216.161 182.361,212.4 187,212.4 z M170.1,155.6 L113.2,155.6 C111.4,155.6 108.9,157.4 108.3,159 L99.406,184 L183.923,184 L175,159 C174.4,157.3 171.9,155.6 170.1,155.6 z M141.072,4.485 C140.497,4.511 139.954,4.641 139.4,4.8 L4.4,54.1 C1.565,55.491 -0.723,58.233 0.1,61.647 L0.1,273 C0.1,276.7 3.1,279.7 6.8,279.7 C10.5,279.7 13.5,276.7 13.5,273 L13.5,65.191 L141.7,18.3 L270,65.192 L270,273 C270,276.7 273,279.7 276.7,279.7 C280.4,279.7 283.4,276.7 283.4,273 L283.4,60.5 C283.262,59.129 283.439,59.567 283.239,59.091 C283.135,56.75 280.937,54.968 279,54.1 L144,4.8 L142.859,4.519 C141.697,4.509 142.293,4.52 141.072,4.485 z M249.7,102.4 L33.8,102.4 C30.1,102.4 27.1,105.4 27.1,109.1 C27.1,112.8 30.1,115.8 33.8,115.8 L249.7,115.8 C253.4,115.8 256.4,112.8 256.4,109.1 C256.4,105.4 253.4,102.4 249.7,102.4 z M249.7,75.4 L33.8,75.4 C30.1,75.4 27.1,78.4 27.1,82.1 C27.1,85.8 30.1,88.8 33.8,88.8 L249.7,88.8 C253.4,88.8 256.4,85.8 256.4,82.1 C256.4,78.4 253.4,75.4 249.7,75.4 z" fill="#000000"/>
  </g>
</svg>
