<?xml version="1.0" encoding="UTF-8"?>
<!DOCTYPE svg PUBLIC "-//W3C//DTD SVG 1.1//EN" "http://www.w3.org/Graphics/SVG/1.1/DTD/svg11.dtd">
<svg version="1.1" xmlns="http://www.w3.org/2000/svg" xmlns:xlink="http://www.w3.org/1999/xlink" x="0" y="0" width="283.5" height="283.5" viewBox="0, 0, 283.5, 283.5">
  <g id="Background">
    <rect x="0" y="0" width="283.5" height="283.5" fill="#FFFFFF"/>
  </g>
  <g id="Layer_1">
    <path d="M234.6,29.4 C238.4,29.4 241.6,32.5 241.6,36.4 L241.6,173.932 L282,243.9 C282.9,245.1 283.4,246.5 283.4,248.1 C283.5,252 280.3,255.1 276.5,255.1 L7,255.1 C4.5,255.1 2.2,253.8 1,251.6 C-0.2,249.4 -0.2,246.8 1,244.6 L41.8,173.932 L41.8,36.4 C41.8,32.6 44.9,29.4 48.8,29.4 L234.6,29.4 z M230.558,182.7 L52.742,182.7 L19,241.1 L264.3,241.1 L230.558,182.7 z M169.1,213.2 C172.9,213.2 176.1,216.3 176.1,220.2 C176.1,224.1 173,227.2 169.1,227.2 L114.3,227.2 C110.5,227.2 107.3,224.1 107.3,220.2 C107.3,216.3 110.4,213.2 114.3,213.2 L169.1,213.2 z M227.7,43.3 L55.8,43.3 L55.8,168.7 L227.7,168.7 L227.7,43.3 z" fill="#010202"/>
  </g>
</svg>
