<?xml version="1.0" encoding="UTF-8"?>
<!DOCTYPE svg PUBLIC "-//W3C//DTD SVG 1.1//EN" "http://www.w3.org/Graphics/SVG/1.1/DTD/svg11.dtd">
<svg version="1.1" xmlns="http://www.w3.org/2000/svg" xmlns:xlink="http://www.w3.org/1999/xlink" x="0" y="0" width="283.5" height="283.5" viewBox="0, 0, 283.5, 283.5">
  <g id="Background">
    <rect x="0" y="0" width="283.5" height="283.5" fill="#FFFFFF"/>
  </g>
  <g id="Layer_1">
    <path d="M141.7,0 C182.6,0 216,33.3 216,74.2 L216,121.5 L236.2,121.5 C247.4,121.5 256.4,130.6 256.4,141.7 L256.4,263.2 C256.5,274.4 247.4,283.5 236.2,283.5 L47.2,283.5 C36,283.5 27,274.4 27,263.3 L27,141.7 C27,130.5 36.1,121.5 47.2,121.5 L67.5,121.5 L67.5,74.2 C67.5,33.3 100.8,0 141.7,0 z M236.2,135 L47.2,135 C43.5,135 40.5,138 40.5,141.7 L40.5,263.2 C40.5,266.9 43.5,269.9 47.2,269.9 L236.2,269.9 C239.9,269.9 242.9,266.9 242.9,263.2 L242.9,141.7 C242.9,138 239.9,135 236.2,135 z M186.4,220.9 C190.1,220.9 193.7,223.5 193.7,227.9 C193.8,232.4 189.9,234.9 186.4,234.9 C182.9,234.9 179,232.4 179,228 C179,223.5 182.7,220.9 186.4,220.9 L186.4,220.9 z M113.3,170.1 C115,170.1 116,170.6 116,172.5 L116,198 L116.3,198 L132.6,172 C133.6,170.4 134.7,170.1 136.5,170.1 L145.2,170.1 C146.9,170.1 147.3,170.8 147.3,171.6 C147.3,172.2 146.9,172.8 146.6,173.3 L128,200.9 L151.2,230.5 C151.6,231 151.9,231.6 151.9,232.2 C151.9,233 151.5,233.8 149.8,233.8 L138.7,233.8 C136.1,233.8 134.8,233 133.6,231.1 L116.3,207.3 L116,207.3 L116,231.1 C116,233 115.2,233.8 113.3,233.8 L104.2,233.8 C102.3,233.8 101.4,233.2 101.4,231.1 L101.4,172.5 C101.4,170.7 102.6,170.1 104.2,170.1 L113.3,170.1 z M181.1,187.6 C183.9,187.6 184.9,188.2 184.6,190.1 L183.2,198.8 C183,199.8 182.6,200.3 181.7,200.3 C180.8,200.3 180.3,200.1 178.8,200.1 C175.7,200.2 172.6,201.4 170.3,203.7 L170.3,231.1 C170.3,232.8 169.6,233.7 167.7,233.7 L159.1,233.7 C157.4,233.7 156.5,232.9 156.5,231.1 L156.5,191.6 C156.5,189.4 157.6,188.9 159.2,188.9 L166.6,188.9 C168.3,188.9 169.2,189.4 169.3,190.7 L169.5,193.5 C172.8,189.6 176,187.6 181.1,187.6 L181.1,187.6 z M141.8,13.5 C108.3,13.5 81,40.7 81,74.2 L81,121.5 L202.5,121.5 L202.5,74.2 C202.5,40.7 175.3,13.5 141.8,13.5 z" fill="#000000"/>
  </g>
</svg>
