<?xml version="1.0" encoding="UTF-8"?>
<!DOCTYPE svg PUBLIC "-//W3C//DTD SVG 1.1//EN" "http://www.w3.org/Graphics/SVG/1.1/DTD/svg11.dtd">
<svg version="1.1" xmlns="http://www.w3.org/2000/svg" xmlns:xlink="http://www.w3.org/1999/xlink" x="0" y="0" width="283.5" height="283.5" viewBox="0, 0, 283.5, 283.5">
  <g id="Background">
    <rect x="0" y="0" width="283.5" height="283.5" fill="#FFFFFF"/>
  </g>
  <g id="Layer_1">
    <path d="M236.2,121.5 L216,121.5 L216,74.2 C216,33.3 182.7,0 141.7,0 C100.7,0 67.5,33.3 67.5,74.2 L67.5,121.4 L47.2,121.4 C36,121.4 27,130.5 27,141.6 L27,263.1 C27,274.3 36.1,283.3 47.2,283.3 L236.2,283.3 C247.4,283.3 256.4,274.2 256.4,263.1 L256.4,141.7 C256.5,130.6 247.4,121.5 236.2,121.5 z M81,74.2 C81,40.7 108.2,13.5 141.7,13.5 C175.2,13.5 202.4,40.7 202.4,74.2 L202.4,121.4 L81,121.4 L81,74.2 z M243,263.2 C243,266.9 240,269.9 236.3,269.9 L47.3,269.9 C43.6,269.9 40.6,266.9 40.6,263.2 L40.6,141.7 C40.6,138 43.6,135 47.3,135 L236.3,135 C240,135 243,138 243,141.7 L243,263.2 z M142.4,234.9 C146.1,234.9 149.2,237.9 149,241.4 C149,245.1 146,248.1 142.3,248.1 L101.8,248.1 C101.8,248.1 101.8,248.1 101.8,248.1 C101.8,248.1 101.8,248.1 101.8,248.1 C101.5,248.1 101.2,248 100.9,248 C100.9,248 100.8,248 100.7,248 C100.4,248 100.1,247.9 99.8,247.8 C99.8,247.8 99.7,247.8 99.7,247.8 C99.4,247.8 99.2,247.6 98.9,247.5 C98.9,247.4 98.8,247.4 98.8,247.4 C98.5,247.3 98.3,247.1 98,246.9 C98,246.9 97.9,246.9 97.9,246.9 C97.9,246.9 97.8,246.8 97.8,246.8 C97.7,246.8 97.6,246.7 97.5,246.6 C97.5,246.5 97.4,246.5 97.3,246.4 C97.2,246.4 97.2,246.3 97.1,246.2 C97.1,246.1 97,246 96.9,245.9 C96.8,245.8 96.8,245.8 96.7,245.7 C96.6,245.6 96.6,245.5 96.5,245.4 C96.4,245.4 96.4,245.3 96.3,245.2 C96.2,245.1 96.2,245 96.1,244.9 C96.1,244.8 96,244.7 96,244.6 C96,244.5 95.9,244.4 95.9,244.3 C95.9,244.2 95.8,244.1 95.8,244 C95.8,243.9 95.7,243.8 95.7,243.7 C95.7,243.5 95.6,243.4 95.6,243.3 C95.5,243.2 95.5,243.1 95.5,243 C95.4,242.9 95.4,242.8 95.4,242.7 C95.4,242.6 95.4,242.5 95.4,242.4 C95.4,242.3 95.4,242.2 95.4,242.1 C95.4,241.9 95.4,241.8 95.4,241.7 C95.4,241.7 95.4,241.6 95.4,241.6 C95.4,241.6 95.4,241.5 95.4,241.5 C95.4,241.4 95.4,241.2 95.4,241.1 C95.4,241 95.4,240.9 95.4,240.8 C95.5,240.6 95.5,240.5 95.5,240.4 C95.6,240.3 95.6,240.2 95.6,240.1 C95.6,240 95.7,239.9 95.7,239.8 C95.7,239.7 95.8,239.6 95.8,239.5 C95.8,239.4 95.9,239.3 95.9,239.2 C95.9,239.1 96,239 96,238.9 C96,238.8 96.1,238.7 96.1,238.6 C96.2,238.5 96.2,238.4 96.3,238.3 C96.4,238.2 96.4,238.1 96.5,238 C96.6,237.9 96.6,237.8 96.7,237.7 C96.7,237.7 96.8,237.6 96.8,237.6 L129.2,194.4 L102.2,194.4 C98.5,194.4 95.5,191.4 95.5,187.7 C95.5,184 98.5,181 102.2,181 L142.7,181 C142.7,181 142.8,181 142.8,181 C142.9,181 143.1,181 143.2,181 C143.3,181 143.4,181 143.5,181 C143.7,181.1 143.8,181.1 143.9,181.1 C144,181.2 144.1,181.2 144.2,181.2 C144.3,181.2 144.4,181.3 144.5,181.3 C144.6,181.3 144.7,181.4 144.8,181.4 C144.9,181.4 145,181.5 145.1,181.5 C145.2,181.5 145.3,181.6 145.4,181.6 C145.5,181.6 145.6,181.7 145.7,181.7 C145.8,181.8 145.9,181.8 146,181.9 C146.1,182 146.2,182 146.3,182.1 C146.4,182.2 146.5,182.2 146.6,182.3 C146.6,182.3 146.7,182.4 146.7,182.4 C146.7,182.4 146.8,182.5 146.8,182.5 C146.9,182.5 147,182.6 147.1,182.7 C147.1,182.8 147.2,182.8 147.3,182.9 C147.4,182.9 147.4,183 147.5,183.1 C147.5,183.2 147.6,183.3 147.7,183.4 C147.8,183.5 147.8,183.5 147.9,183.6 C148,183.7 148,183.8 148.1,183.9 C148.2,183.9 148.2,184 148.3,184.1 C148.4,184.2 148.4,184.3 148.5,184.4 C148.5,184.5 148.6,184.6 148.6,184.7 C148.6,184.8 148.7,184.9 148.7,185 C148.7,185.1 148.8,185.2 148.8,185.3 C148.8,185.4 148.9,185.5 148.9,185.6 C148.9,185.8 149,185.9 149,186 C149.1,186.1 149.1,186.2 149.1,186.3 C149.2,186.4 149.2,186.5 149.2,186.6 C149.2,186.7 149.2,186.8 149.2,186.9 C149.2,187 149.2,187.1 149.2,187.2 C149.2,187.4 149.2,187.5 149.2,187.6 C149.2,187.6 149.2,187.7 149.2,187.7 C149.2,187.7 149.2,187.8 149.2,187.8 C149.2,187.9 149.2,188.1 149.2,188.2 C149.2,188.3 149.2,188.4 149.2,188.5 C149.1,188.7 149.1,188.8 149.1,188.9 C149,189 149,189.1 149,189.2 C149,189.3 148.9,189.4 148.9,189.5 C148.9,189.6 148.8,189.7 148.8,189.8 C148.8,189.9 148.7,190 148.7,190.1 C148.7,190.2 148.6,190.3 148.6,190.4 C148.6,190.5 148.5,190.6 148.5,190.7 C148.4,190.8 148.4,190.9 148.3,191 C148.2,191.1 148.2,191.2 148.1,191.3 C148,191.4 148,191.5 147.9,191.6 C147.9,191.6 147.8,191.7 147.8,191.7 L115.4,234.9 L142.4,234.9 z M181,189.8 C184.3,188 188.4,189.2 190.1,192.5 C191.9,195.8 190.7,199.9 187.4,201.7 L176.1,207.9 L176.1,241.7 C176.1,245.4 173.1,248.4 169.4,248.4 C165.7,248.4 162.7,245.4 162.7,241.7 L162.7,215.3 L157.8,218 C156.8,218.5 155.7,218.8 154.6,218.8 C152.2,218.8 149.9,217.5 148.7,215.3 C146.9,212 148.1,207.9 151.4,206.1 L162.7,199.9 L162.7,160.7 C162.7,157 165.7,154 169.4,154 C173.1,154 176.1,157 176.1,160.7 L176.1,192.5 L181,189.8 z" fill="#000000"/>
  </g>
</svg>
