<?xml version="1.0" encoding="UTF-8"?>
<!DOCTYPE svg PUBLIC "-//W3C//DTD SVG 1.1//EN" "http://www.w3.org/Graphics/SVG/1.1/DTD/svg11.dtd">
<svg version="1.1" xmlns="http://www.w3.org/2000/svg" xmlns:xlink="http://www.w3.org/1999/xlink" x="0" y="0" width="283.5" height="283.5" viewBox="0, 0, 283.5, 283.5">
  <g id="Background">
    <rect x="0" y="0" width="283.5" height="283.5" fill="#FFFFFF"/>
  </g>
  <g id="Layer_1">
    <path d="M120.4,155.9 C124.3,155.9 127.5,159.1 127.5,163 L127.5,248 C127.5,251.9 124.3,255.1 120.4,255.1 L7.1,255.1 C3.2,255.1 -0,251.9 -0,248 L-0,163 C-0,159.1 3.2,155.9 7.1,155.9 L120.4,155.9 z M269.1,170.1 L269.1,240.9 L170,240.9 L170,170.1 L269.1,170.1 z M276.2,155.9 L162.9,155.9 C159,155.9 155.8,159.1 155.8,163 L155.8,248 C155.8,251.9 159,255.1 162.9,255.1 L276.2,255.1 C280.1,255.1 283.3,251.9 283.3,248 L283.3,163 C283.3,159.1 280.1,155.9 276.2,155.9 z M269.1,42.6 L269.1,113.4 L170,113.4 L170,42.6 L269.1,42.6 z M276.2,28.4 L162.9,28.4 C159,28.4 155.8,31.6 155.8,35.5 L155.8,120.5 C155.8,124.4 159,127.6 162.9,127.6 L276.2,127.6 C280.1,127.6 283.3,124.4 283.3,120.5 L283.3,35.5 C283.3,31.6 280.1,28.4 276.2,28.4 z M113.3,42.6 L113.3,113.4 L14.2,113.4 L14.2,42.6 L113.3,42.6 z M120.4,28.4 L7.1,28.4 C3.2,28.4 -0,31.6 -0,35.5 L-0,120.5 C-0,124.4 3.2,127.6 7.1,127.6 L120.4,127.6 C124.3,127.6 127.5,124.4 127.5,120.5 L127.5,35.5 C127.5,31.6 124.3,28.4 120.4,28.4 z" fill="#000000"/>
  </g>
</svg>
