<?xml version="1.0" encoding="UTF-8"?>
<!DOCTYPE svg PUBLIC "-//W3C//DTD SVG 1.1//EN" "http://www.w3.org/Graphics/SVG/1.1/DTD/svg11.dtd">
<svg version="1.1" xmlns="http://www.w3.org/2000/svg" xmlns:xlink="http://www.w3.org/1999/xlink" x="0" y="0" width="283.5" height="283.5" viewBox="0, 0, 283.5, 283.5">
  <g id="Background">
    <rect x="0" y="0" width="283.5" height="283.5" fill="#FFFFFF"/>
  </g>
  <g id="Layer_1">
    <path d="M141.7,-0 C182.7,0 216,33.3 216,74.2 L216,121.5 L236.2,121.5 C247.4,121.5 256.5,130.6 256.4,141.7 L256.4,263.1 C256.4,274.2 247.4,283.3 236.2,283.3 L47.2,283.3 C36.1,283.3 27,274.3 27,263.1 L27,141.6 C27,130.5 36,121.4 47.2,121.4 L67.5,121.4 L67.5,74.2 C67.5,33.3 100.7,0 141.7,-0 z M236.3,135 L47.3,135 C43.6,135 40.6,138 40.6,141.7 L40.6,263.2 C40.6,266.9 43.6,269.9 47.3,269.9 L236.3,269.9 C240,269.9 243,266.9 243,263.2 L243,141.7 C243,138 240,135 236.3,135 z M148.37,160.871 C158.459,161.931 167.287,166.251 174.6,173.2 C177.2,175.8 177.2,180.1 174.6,182.7 C172,185.3 167.7,185.3 165.1,182.7 C153.7,171.2 135,171.2 123.5,182.7 C119.5,186.7 116.9,191.6 115.7,196.8 L145.8,196.8 C149.5,196.8 152.5,199.8 152.5,203.5 C152.5,207.2 149.5,210.2 145.8,210.2 L115.7,210.2 C116.9,215.4 119.5,220.3 123.5,224.3 C134.9,235.8 153.6,235.8 165.1,224.3 C167.8,221.7 172,221.7 174.7,224.3 C177.3,226.9 177.3,231.2 174.7,233.8 C166.3,242.2 155.3,246.4 144.3,246.4 C133.3,246.4 122.3,242.2 113.9,233.8 C107.3,227.2 103.3,218.9 101.9,210.2 L96,210.2 C92.3,210.2 89.3,207.2 89.3,203.5 C89.3,199.8 92.3,196.8 96,196.8 L101.9,196.8 C103.2,188.2 107.2,179.9 113.9,173.2 C120.926,166.37 130.239,161.579 140.13,160.871 C142.87,160.675 145.623,160.871 148.37,160.871 z M141.7,13.5 C108.2,13.5 81,40.7 81,74.2 L81,121.4 L202.4,121.4 L202.4,74.2 C202.4,40.7 175.2,13.5 141.7,13.5 z" fill="#010202"/>
  </g>
</svg>
