<?xml version="1.0" encoding="UTF-8"?>
<!DOCTYPE svg PUBLIC "-//W3C//DTD SVG 1.1//EN" "http://www.w3.org/Graphics/SVG/1.1/DTD/svg11.dtd">
<svg version="1.1" xmlns="http://www.w3.org/2000/svg" xmlns:xlink="http://www.w3.org/1999/xlink" x="0" y="0" width="283.5" height="283.5" viewBox="0, 0, 283.5, 283.5">
  <g id="Background">
    <rect x="0" y="0" width="283.5" height="283.5" fill="#FFFFFF"/>
  </g>
  <g id="Layer_1">
    <path d="M269.3,92.1 C269.3,91.9 269.3,91.6 269.3,91.4 C269.3,91.3 269.3,91.2 269.3,91.1 C269.3,91 269.3,90.9 269.2,90.7 C269.2,90.6 269.1,90.5 269.1,90.3 C269.1,90.2 269,90.1 269,90 C269,89.9 268.9,89.8 268.9,89.7 C268.9,89.6 268.8,89.5 268.8,89.4 C268.8,89.3 268.7,89.2 268.7,89.1 C268.6,89 268.6,88.9 268.5,88.8 C268.4,88.7 268.4,88.6 268.3,88.5 C268.2,88.4 268.2,88.3 268.1,88.2 C268,88.1 268,88 267.9,87.9 C267.8,87.8 267.8,87.7 267.7,87.6 C267.6,87.4 267.4,87.3 267.3,87.1 C267.3,87.1 267.3,87.1 267.3,87.1 L182.3,2.1 C182.3,2.1 182.3,2.1 182.3,2.1 C182.1,1.9 182,1.8 181.8,1.7 C181.7,1.6 181.6,1.6 181.5,1.5 C181.4,1.4 181.3,1.4 181.2,1.3 C181.1,1.2 181,1.2 180.9,1.1 C180.8,1 180.7,1 180.6,0.9 C180.5,0.8 180.4,0.8 180.3,0.7 C180.2,0.7 180.1,0.6 180,0.6 C179.9,0.6 179.8,0.5 179.7,0.5 C179.6,0.5 179.5,0.4 179.3,0.4 C179.2,0.4 179.1,0.3 179,0.3 C178.9,0.3 178.8,0.2 178.6,0.2 C178.5,0.2 178.4,0.2 178.3,0.1 C178.2,0.1 178.1,0.1 177.9,0 C177.7,0 177.5,0 177.3,0 C177.3,0 177.2,0 177.2,0 L21.3,0 C17.4,0 14.2,3.2 14.2,7.1 L14.2,276.4 C14.2,280.3 17.4,283.5 21.3,283.5 L262.2,283.5 C266.1,283.5 269.3,280.3 269.3,276.4 L269.3,92.1 C269.3,92.1 269.3,92.1 269.3,92.1 z M184.2,24.2 L245.1,85 L184.3,85 L184.3,24.2 z M255.1,269.3 L28.3,269.3 L28.3,14.2 L170,14.2 L170,92.2 C170,96.1 173.2,99.3 177.1,99.3 L255.1,99.3 L255.1,269.3 z" fill="#000000"/>
  </g>
</svg>
