<?xml version="1.0" encoding="UTF-8"?>
<!DOCTYPE svg PUBLIC "-//W3C//DTD SVG 1.1//EN" "http://www.w3.org/Graphics/SVG/1.1/DTD/svg11.dtd">
<svg version="1.1" xmlns="http://www.w3.org/2000/svg" xmlns:xlink="http://www.w3.org/1999/xlink" x="0" y="0" width="283.5" height="283.5" viewBox="0, 0, 283.5, 283.5">
  <g id="Background">
    <rect x="0" y="0" width="283.5" height="283.5" fill="#FFFFFF"/>
  </g>
  <g id="Layer_1">
    <path d="M32.328,0.131 C35.287,1.359 34.175,0.577 35.9,2.1 L59.6,28.7 C62.1,31.5 61.8,35.7 59.1,38.1 C57.8,39.2 56.3,39.8 54.7,39.8 C52.8,39.8 51,39.1 49.7,37.6 L37.7,24.1 L37.7,246.5 L258.8,246.5 L245.1,234.3 C242.4,231.8 242.2,227.6 244.6,224.9 C247.1,222.2 251.3,222 254,224.4 L280.7,248.1 C282.1,249.4 282.9,251.2 282.8,253.3 C282.8,255.1 282,256.9 280.6,258.2 L253.9,281.9 C252.6,283 251.1,283.6 249.5,283.6 C247.7,283.6 245.9,282.9 244.6,281.4 C242.1,278.6 242.4,274.4 245.1,272 L258.8,259.8 L31.1,259.8 C27.5,259.8 24.5,256.9 24.5,253.2 L24.5,23.9 L12.2,37.7 C9.7,40.4 5.5,40.6 2.8,38.2 C0.1,35.7 -0.1,31.5 2.3,28.8 L26,2.1 C28.179,-0.079 29.488,0.131 32.328,0.131 z M99.3,179.2 C99.5,179.2 99.9,179.5 100,179.7 L102.9,187.8 L62.8,187.8 L65.7,179.7 C65.7,179.6 66.1,179.3 66.3,179.2 L99.3,179.2 z M106,199 C103.4,199 101.4,201.1 101.4,203.6 C101.4,206.2 103.5,208.2 106,208.2 C108.5,208.2 110.6,206.1 110.6,203.6 C110.6,201.1 108.6,199 106,199 z M59.7,199 C57.1,199 55.1,201.1 55.1,203.6 C55.1,206.2 57.2,208.2 59.7,208.2 C62.3,208.2 64.3,206.1 64.3,203.6 C64.4,201.1 62.3,199 59.7,199 z M109.8,195.8 C110.9,195.8 111.9,196.8 111.9,197.9 L111.9,208.9 C111.9,210 110.9,211 109.8,211 L55.8,211 C54.7,211 53.7,210 53.7,208.9 L53.7,197.9 C53.7,196.8 54.7,195.8 55.8,195.8 L109.8,195.8 z M99.3,171.3 L66.3,171.3 C62.8,171.3 59.3,173.8 58.2,177 L54.3,188 C49.5,188.8 45.9,192.9 45.9,197.9 L45.9,208.9 C45.9,214.4 50.3,218.9 55.8,218.9 L55.8,224.2 C55.8,226.4 57.6,228.2 59.8,228.2 C62,228.2 63.8,226.4 63.8,224.2 L63.8,218.9 L102,218.9 L102,224.2 C102,226.4 103.8,228.2 106,228.2 C108.2,228.2 110,226.4 110,224.2 L110,218.9 C115.5,218.8 119.9,214.4 119.9,208.9 L119.9,197.9 C119.9,192.9 116.2,188.8 111.4,188 L107.5,177.1 C106.3,173.8 102.8,171.3 99.3,171.3 z M258.4,132.5 C258.6,132.5 259,132.8 259.1,133 L262,141.1 L221.8,141.1 L224.7,133 C224.8,132.8 225.2,132.5 225.4,132.5 L258.4,132.5 z M265,152.3 C262.4,152.3 260.4,154.4 260.4,156.9 C260.4,159.5 262.5,161.5 265,161.5 C267.5,161.5 269.6,159.4 269.6,156.9 C269.7,154.4 267.6,152.3 265,152.3 z M218.7,152.3 C216.1,152.3 214.1,154.4 214.1,156.9 C214.1,159.5 216.2,161.5 218.7,161.5 C221.3,161.5 223.3,159.4 223.3,156.9 C223.4,154.4 221.3,152.3 218.7,152.3 z M268.9,149 C270,149 271,150 271,151.1 L271,162.1 C271,163.2 270,164.2 268.9,164.2 L214.9,164.2 C213.8,164.2 212.8,163.2 212.8,162.1 L212.8,151.1 C212.8,150 213.8,149 214.9,149 L268.9,149 z M258.4,124.5 L225.3,124.5 C221.8,124.5 218.3,127 217.1,130.3 L213.2,141.2 C208.5,142 204.8,146.2 204.8,151.1 L204.8,162.1 C204.8,167.6 209.2,172.1 214.7,172.1 L214.7,177.4 C214.7,179.6 216.5,181.4 218.7,181.4 C220.9,181.4 222.7,179.6 222.7,177.4 L222.7,172.1 L261,172.1 L261,177.4 C261,179.6 262.8,181.4 265,181.4 C267.2,181.4 269,179.6 269,177.4 L269,172.1 C274.5,172 278.9,167.6 278.9,162.1 L278.9,151.1 C278.9,146.1 275.2,142 270.5,141.2 L266.6,130.3 C265.4,127 261.9,124.5 258.4,124.5 z M142.998,91.611 C140.354,91.707 139.137,91.618 137.1,93.6 L79.5,155.7 C77,158.4 77.2,162.6 79.8,165.1 C81.1,166.3 82.7,166.9 84.3,166.9 C86.1,166.9 87.9,166.2 89.2,164.8 L146.8,102.7 C149.3,100 149.1,95.8 146.5,93.3 C144.737,91.971 145.846,92.641 142.998,91.611 z M160.333,91.636 C157.696,91.89 156.49,91.865 154.6,94 C152.3,96.8 152.7,101 155.5,103.3 L196.3,137.1 C197.5,138.1 199,138.6 200.5,138.6 C202.4,138.6 204.3,137.8 205.6,136.2 C207.9,133.4 207.5,129.2 204.7,126.9 L163.9,93.1 C162.079,91.891 163.216,92.489 160.333,91.636 z M169.3,39.5 C169.5,39.5 169.9,39.8 170,40 L172.9,48.1 L132.7,48.1 L135.6,40 C135.7,39.8 136.1,39.5 136.3,39.5 L169.3,39.5 z M176,59.3 C173.4,59.3 171.4,61.4 171.4,63.9 C171.4,66.5 173.5,68.5 176,68.5 C178.5,68.5 180.6,66.4 180.6,63.9 C180.6,61.3 178.5,59.3 176,59.3 z M129.7,59.3 C127.1,59.3 125.1,61.4 125.1,63.9 C125.1,66.5 127.2,68.5 129.7,68.5 C132.3,68.5 134.3,66.4 134.3,63.9 C134.3,61.3 132.2,59.3 129.7,59.3 z M179.8,56 C180.9,56 181.9,57 181.9,58.1 L181.9,69.1 C181.9,70.2 180.9,71.2 179.8,71.2 L125.8,71.2 C124.7,71.2 123.7,70.2 123.7,69.1 L123.7,58.1 C123.7,57 124.7,56 125.8,56 L179.8,56 z M169.4,31.6 L136.3,31.6 C132.8,31.6 129.3,34.1 128.1,37.4 L124.2,48.3 C119.4,49.1 115.8,53.2 115.8,58.2 L115.8,69.2 C115.8,74.6 120.2,79.1 125.7,79.2 L125.7,84.5 C125.7,86.7 127.5,88.5 129.7,88.5 C131.9,88.5 133.7,86.7 133.7,84.5 L133.7,79.2 L172,79.2 L172,84.5 C172,86.7 173.8,88.5 176,88.5 C178.2,88.5 180,86.7 180,84.5 L180,79.2 C185.5,79.1 189.9,74.7 189.9,69.2 L189.9,58.2 C189.9,53.2 186.2,49.1 181.5,48.3 L177.6,37.4 C176.4,34.1 172.9,31.6 169.4,31.6 z" fill="#000000"/>
  </g>
</svg>
