<?xml version="1.0" encoding="UTF-8"?>
<!DOCTYPE svg PUBLIC "-//W3C//DTD SVG 1.1//EN" "http://www.w3.org/Graphics/SVG/1.1/DTD/svg11.dtd">
<svg version="1.1" xmlns="http://www.w3.org/2000/svg" xmlns:xlink="http://www.w3.org/1999/xlink" x="0" y="0" width="283.5" height="283.5" viewBox="0, 0, 283.5, 283.5">
  <g id="Background">
    <rect x="0" y="0" width="283.5" height="283.5" fill="#FFFFFF"/>
  </g>
  <g id="Layer_1">
    <path d="M90.7,66.9 L98.7,66.9 C100.2,66.9 100.8,66.2 101.2,65 L106,51 L129.5,51 L134.3,64.6 C134.9,66.1 135.5,66.8 137.5,66.8 L145.9,66.8 C147.3,66.8 147.8,65.7 147.3,64.4 L124.5,4.3 C124.1,3.3 123.3,2.6 121.9,2.6 L114.5,2.6 C113.1,2.6 112.5,3.3 112,4.5 L89.3,64.5 C88.9,65.8 89.2,66.9 90.7,66.9 z M115.8,22.5 C116.6,20 117.3,18 117.7,16.4 L117.9,16.4 C118.4,17.9 118.9,19.8 119.8,22.4 L126.4,42 L109.2,42 L115.8,22.5 z M200.2,61.3 C200.7,62.7 200.3,63.5 198.9,64.2 C192.7,66.7 187.2,68 180.4,68 C160.9,68 151.3,54.2 151.3,35.1 C151.3,16.1 162.7,1.5 181.4,1.5 C187.8,1.5 193.5,2.8 198.8,5.4 C200.3,6.2 200.6,6.6 200,8.2 L197.9,14 C197.5,15.1 196.8,15.4 195.6,14.8 C190.9,12.4 186.7,11.5 182.1,11.5 C169.2,11.5 164.2,23.4 164.2,34.6 C164.2,48.9 170.9,58 182.3,58 C186.8,58 191.3,56.9 195.7,55 C196.9,54.4 197.6,54.4 198.2,55.8 L200.2,61.3 z M16.8,264 C20.1,264.9 23,267.9 22.9,271.8 C22.9,278 17.4,281.9 11.4,281.9 C8.1,281.9 5.2,281.3 2.9,280.1 C2.2,279.7 1.9,279.2 2.2,278.3 L3,276 C3.2,275.3 3.8,275.2 4.5,275.5 C6.5,276.3 8.7,277 11,277 C14.7,277 17,274.8 17,271.6 C17,267.5 13,266.3 9.6,266.3 L8.8,266.3 C7.9,266.3 7.7,265.7 7.7,265 L7.7,263.1 C7.7,262.4 7.9,261.9 8.8,261.9 L10.4,261.9 C13.8,261.9 15.9,260.6 15.9,257.4 C15.9,254.8 14,253.4 11.2,253.4 C9.4,253.4 7.3,254 5.4,255 C4.7,255.3 4.2,255.4 3.9,254.6 L3,252.4 C2.8,251.9 2.8,251.4 3.4,251 C5.9,249.4 8.8,248.7 12.1,248.7 C17.1,248.7 21.8,251.5 21.8,256.9 C21.8,260.3 19.6,263.1 16.8,264 z M31.2,275.8 C32.9,275.8 34.5,277 34.5,279 C34.5,280.9 32.8,282.1 31.2,282.1 C29.6,282.1 27.9,280.9 27.9,279 C27.9,277 29.5,275.8 31.2,275.8 z M58.9,249.4 C59.8,249.4 60.2,249.7 60.2,250.6 L60.2,252.9 C60.2,253.7 60.1,254.2 59.7,255 L47.4,280.4 C46.9,281.4 46.4,281.6 45.4,281.6 L41.3,281.6 C40.4,281.6 40.2,280.7 40.6,280 L53.2,254.6 L40,254.6 C39.1,254.6 38.8,254.1 38.8,253.3 L38.8,250.7 C38.8,249.9 39.1,249.4 40,249.4 L58.9,249.4 z M87.2,268.3 L94.6,280.2 C95.1,281 94.9,281.5 94.2,281.5 L90,281.5 C89.1,281.5 88.6,281.2 88.1,280.5 L82.2,270.8 L81.7,271.3 L81.7,280.4 C81.7,281.3 81.3,281.6 80.5,281.6 L77.3,281.6 C76.5,281.6 76.1,281.2 76.1,280.4 L76.1,250.1 C76.1,249.3 76.3,248.9 77,248.8 L80.8,248.3 C81.3,248.2 81.7,248.4 81.7,249.1 L81.7,267.9 L81.8,267.9 L87.9,259.5 C88.3,259 88.6,258.9 89.2,258.9 L93.3,258.9 C94,258.9 94.2,259.4 93.8,259.9 L87.2,268.3 z M137.5,249.4 C138.4,249.4 138.7,249.7 138.4,250.7 L129.8,280.2 C129.5,281.2 129.2,281.5 128.2,281.5 L125.3,281.5 C124.4,281.5 123.9,281.2 123.7,280.3 L117.7,259 L117.6,259 L111.6,280.1 C111.3,281.1 110.9,281.4 109.9,281.4 L107.3,281.4 C106.3,281.4 105.9,281.1 105.6,280 L96.7,250.7 C96.4,249.7 96.7,249.3 97.7,249.3 L101.9,249.3 C102.9,249.3 103.3,249.7 103.5,250.5 L109.2,271.9 L109.2,271.9 L115.1,250.4 C115.3,249.6 115.7,249.4 116.5,249.4 L119.5,249.4 C120.4,249.4 120.7,249.7 120.9,250.4 L126.8,272 L126.9,272 L132.5,250.5 C132.7,249.6 133,249.4 133.9,249.4 L137.5,249.4 z M149.9,266.6 C150.8,266.6 151.1,266.9 151.1,267.7 L151.1,270.6 C151.1,271.5 150.8,271.9 149.9,271.9 L142.1,271.9 C141.2,271.9 141,271.4 141,270.7 L141,267.7 C141,266.9 141.3,266.6 142.1,266.6 L149.9,266.6 z M176.4,257.7 C176.4,263 171.8,267.7 166.9,272.1 C165.3,273.6 163.6,275.1 162.3,276.4 L174.6,276.4 C175.5,276.4 175.9,276.7 175.9,277.6 L175.9,280.1 C175.9,280.9 175.6,281.4 174.6,281.4 L156.4,281.4 C155.3,281.4 155,281.1 155,280 L155,277.8 C155,276.9 155.1,276.5 155.8,275.9 C158.7,273 161.9,270.2 164.5,267.5 C168.1,263.8 170.3,260.8 170.3,258.1 C170.3,255.2 168.2,253.8 165.5,253.8 C163.4,253.8 161.4,254.4 158.8,255.8 C158.2,256.1 157.7,256.1 157.3,255.3 L156.2,253 C155.9,252.3 156,251.8 156.7,251.4 C159.5,249.8 162.8,248.7 166.3,248.7 C172.1,248.7 176.4,251.9 176.4,257.7 z M202.5,257.7 C202.5,263 197.9,267.7 193,272.1 C191.4,273.6 189.7,275.1 188.4,276.4 L200.7,276.4 C201.6,276.4 202,276.7 202,277.6 L202,280.1 C202,280.9 201.7,281.4 200.7,281.4 L182.5,281.4 C181.4,281.4 181.1,281.1 181.1,280 L181.1,277.8 C181.1,276.9 181.2,276.5 181.9,275.9 C184.8,273 188,270.2 190.6,267.5 C194.2,263.8 196.4,260.8 196.4,258.1 C196.4,255.2 194.3,253.8 191.6,253.8 C189.5,253.8 187.5,254.4 184.9,255.8 C184.3,256.1 183.8,256.1 183.4,255.3 L182.3,253 C182,252.3 182.1,251.8 182.8,251.4 C185.6,249.8 188.9,248.7 192.4,248.7 C198.2,248.7 202.5,251.9 202.5,257.7 z M229.9,268.3 L237.4,280.2 C237.9,281 237.7,281.5 237,281.5 L232.8,281.5 C231.9,281.5 231.4,281.2 230.9,280.5 L225,270.8 L224.5,271.3 L224.5,280.4 C224.5,281.3 224.1,281.6 223.3,281.6 L220.1,281.6 C219.3,281.6 218.9,281.2 218.9,280.4 L218.9,250.1 C218.9,249.3 219.1,248.9 219.8,248.8 L223.6,248.3 C224.1,248.2 224.5,248.4 224.5,249.1 L224.5,267.9 L224.6,267.9 L230.7,259.5 C231.1,259 231.4,258.9 232,258.9 L236,258.9 C236.7,258.9 236.9,259.4 236.5,259.9 L229.9,268.3 z M280.2,249.4 C281.1,249.4 281.4,249.7 281.1,250.7 L272.5,280.2 C272.2,281.2 271.9,281.5 270.9,281.5 L268,281.5 C267.1,281.5 266.6,281.2 266.4,280.3 L260.4,259 L260.3,259 L254.3,280.1 C254,281.1 253.6,281.4 252.6,281.4 L250,281.4 C249,281.4 248.6,281.1 248.3,280 L239.4,250.7 C239.1,249.7 239.4,249.3 240.4,249.3 L244.6,249.3 C245.6,249.3 246,249.7 246.2,250.5 L251.9,271.9 L251.9,271.9 L257.8,250.4 C258,249.6 258.4,249.4 259.2,249.4 L262.2,249.4 C263.1,249.4 263.4,249.7 263.6,250.4 L269.5,272 L269.6,272 L275.2,250.5 C275.4,249.6 275.7,249.4 276.6,249.4 L280.2,249.4 z M145.8,218.6 C144.6,220.8 142.4,222.1 140.1,222.3 C139.1,222.3 138.1,222.1 137.2,221.6 C134,220 132.7,216.2 134.3,213 L156.9,167.9 L123.7,167.9 C123.7,167.9 123.7,167.9 123.7,167.9 C123.7,167.9 123.6,167.9 123.6,167.9 C123.2,167.9 122.8,167.9 122.4,167.8 C122.2,167.8 122.1,167.7 122,167.7 C121.6,167.6 121.3,167.4 121,167.3 C120.9,167.2 120.9,167.2 120.8,167.2 C120.7,167.1 120.6,167.1 120.5,167 C120.3,166.9 120.1,166.7 119.9,166.6 C119.7,166.5 119.6,166.3 119.4,166.2 C119.3,166.1 119.1,166 119,165.8 C118.9,165.6 118.7,165.5 118.6,165.3 C118.5,165.1 118.4,165 118.3,164.8 C118.2,164.7 118.1,164.5 118,164.3 C117.9,164.1 117.8,163.9 117.7,163.7 C117.6,163.5 117.6,163.3 117.5,163.1 C117.5,162.9 117.4,162.7 117.4,162.5 C117.3,162.3 117.3,162 117.3,161.8 C117.3,161.6 117.3,161.5 117.3,161.4 C117.3,161.3 117.3,161.3 117.3,161.2 C117.3,161 117.4,160.7 117.4,160.5 C117.4,160.3 117.5,160.1 117.5,159.9 C117.6,159.7 117.6,159.5 117.7,159.3 C117.7,159.1 117.8,158.9 117.9,158.7 C118,158.6 118,158.6 118,158.5 L145.4,104 C147,100.8 150.8,99.5 154,101.1 C157.2,102.7 158.5,106.5 156.9,109.7 L134.3,154.9 L167.5,154.9 C167.5,154.9 167.6,154.9 167.6,154.9 C167.9,154.9 168.2,154.9 168.5,155 C168.7,155.1 168.8,155.1 168.9,155.1 C169.2,155.1 169.4,155.2 169.7,155.3 C169.9,155.4 170.1,155.4 170.2,155.5 C170.2,155.5 170.3,155.6 170.4,155.6 C170.5,155.7 170.7,155.8 170.8,155.9 C170.9,156 171.1,156.1 171.2,156.2 C171.4,156.4 171.6,156.5 171.8,156.7 C171.9,156.8 172,156.9 172.1,157 C172.3,157.2 172.4,157.4 172.6,157.6 C172.7,157.7 172.8,157.9 172.9,158 C173,158.2 173.1,158.4 173.2,158.6 C173.3,158.8 173.3,158.9 173.4,159.1 C173.5,159.4 173.5,159.6 173.6,159.8 C173.6,159.9 173.7,160.1 173.7,160.3 C173.8,160.5 173.8,160.8 173.8,161 C173.8,161.2 173.8,161.3 173.8,161.4 C173.8,161.5 173.8,161.5 173.8,161.6 C173.8,161.9 173.7,162.1 173.7,162.3 C173.7,162.5 173.6,162.7 173.6,162.9 C173.5,163.1 173.5,163.2 173.4,163.4 C173.3,163.6 173.2,163.9 173.1,164.1 C173,164.1 173,164.2 173,164.2 L145.8,218.6 z" fill="#000000"/>
  </g>
</svg>
