<?xml version="1.0" encoding="UTF-8"?>
<!DOCTYPE svg PUBLIC "-//W3C//DTD SVG 1.1//EN" "http://www.w3.org/Graphics/SVG/1.1/DTD/svg11.dtd">
<svg version="1.1" xmlns="http://www.w3.org/2000/svg" xmlns:xlink="http://www.w3.org/1999/xlink" x="0" y="0" width="283.5" height="283.5" viewBox="0, 0, 283.5, 283.5">
  <g id="Background">
    <rect x="0" y="0" width="283.5" height="283.5" fill="#FFFFFF"/>
  </g>
  <g id="Layer_1">
    <path d="M212.3,283.5 C208.6,283.5 205.6,280.5 205.6,276.8 L205.6,252.2 C169.5,248.8 141.2,218.3 141.2,181.4 C141.2,181.4 141.2,181.3 141.2,181.3 C141.2,181.3 141.2,181.2 141.2,181.2 L141.2,131.8 C141.2,128.1 144.2,125.1 147.9,125.1 L173.4,125.1 L173.4,84.4 C173.4,80.7 176.4,77.7 180.1,77.7 C183.8,77.7 186.8,80.7 186.8,84.4 L186.8,124.9 L237.7,124.9 L237.7,84.4 C237.7,80.7 240.7,77.7 244.4,77.7 C248.1,77.7 251.1,80.7 251.1,84.4 L251.1,124.9 L276.6,124.9 C280.3,124.9 283.3,127.9 283.3,131.6 L283.3,181 C283.3,181 283.3,181.1 283.3,181.1 C283.3,181.1 283.3,181.2 283.3,181.2 C283.3,218.2 255,248.6 218.9,252 L218.9,276.6 C219.1,280.4 216,283.5 212.3,283.5 z M154.7,181.1 C154.7,181.1 154.7,181.2 154.7,181.2 C154.7,213 180.6,238.9 212.4,238.9 C244.2,238.9 270,213 270,181.2 C270,181.2 270,181.1 270,181.1 C270,181.1 270,181 270,181 L270,138.4 L154.7,138.4 L154.7,181 C154.7,181 154.7,181.1 154.7,181.1 z M209.5,221.2 C208.5,221.2 207.5,221 206.5,220.5 C203.2,218.8 201.8,214.8 203.5,211.4 L212.9,192.7 L201,192.7 C200.4,192.7 199.9,192.7 199.3,192.5 C198.5,192.3 197.8,192 197.1,191.5 C196.3,191 195.6,190.2 195.1,189.4 C194.6,188.6 194.3,187.7 194.1,186.7 C194,185.9 194,185.1 194.2,184.3 C194.3,183.7 194.5,183.2 194.8,182.7 L209,154.3 C210.7,151 214.7,149.6 218.1,151.3 C221.4,153 222.8,157 221.1,160.4 L211.7,179.1 L223.5,179.1 C224.1,179.1 224.6,179.1 225.2,179.3 C226,179.5 226.7,179.8 227.4,180.2 C228.2,180.8 228.9,181.5 229.4,182.3 C229.9,183.1 230.2,184 230.3,185 C230.4,185.8 230.4,186.6 230.2,187.4 C230.1,188 229.9,188.5 229.6,189 L215.4,217.4 C214.3,219.9 211.9,221.2 209.5,221.2 z M120.9,186.3 L28.4,186.3 C12.7,186.3 0,173.6 0,157.9 L0,28.3 C0,12.7 12.7,0 28.4,0 L158,0 C173.6,0 186.3,12.7 186.3,28.3 C186.3,32 183.3,35 179.6,35 C175.9,35 172.9,32 172.9,28.3 C172.9,20.1 166.2,13.5 158.1,13.5 L28.4,13.5 C20.2,13.5 13.6,20.2 13.6,28.3 L13.6,157.9 C13.6,166.1 20.3,172.7 28.4,172.7 L121,172.7 C124.7,172.7 127.7,175.7 127.7,179.4 C127.7,183.3 124.6,186.3 120.9,186.3 z M69.5,146.9 C65.8,146.9 62.8,143.9 62.8,140.2 L62.8,53.8 C62.8,50.1 65.8,47.1 69.5,47.1 L103.4,47.1 C120.9,47.1 135.1,61.3 135.1,78.8 C135.1,96.3 120.9,110.5 103.4,110.5 L76.2,110.5 L76.2,140.3 C76.2,143.9 73.2,146.9 69.5,146.9 z M76.2,96.9 L103.3,96.9 C113.3,96.9 121.5,88.7 121.5,78.7 C121.5,68.7 113.3,60.5 103.3,60.5 L76.2,60.5 L76.2,96.9 z" fill="#010202"/>
  </g>
</svg>
