<?xml version="1.0" encoding="UTF-8"?>
<!DOCTYPE svg PUBLIC "-//W3C//DTD SVG 1.1//EN" "http://www.w3.org/Graphics/SVG/1.1/DTD/svg11.dtd">
<svg version="1.1" xmlns="http://www.w3.org/2000/svg" xmlns:xlink="http://www.w3.org/1999/xlink" x="0" y="0" width="283.5" height="283.5" viewBox="0, 0, 283.5, 283.5">
  <g id="Background">
    <rect x="0" y="0" width="283.5" height="283.5" fill="#FFFFFF"/>
  </g>
  <g id="Layer_1">
    <path d="M175.8,66.9 C178.9,66.9 181.5,69.5 181.5,72.6 L181.5,186.4 L256.5,152.9 C266.3,148.5 277.7,152.7 281.9,162.1 C283.9,166.8 284,171.9 282,176.6 C280.1,181.3 276.5,185 271.8,187.1 L181.5,227.5 L181.5,272.4 C181.5,275.5 178.9,278.1 175.8,278.1 L18.8,278.1 C15.7,278.1 13.1,275.5 13.1,272.4 L13.1,72.6 C13.1,69.5 15.7,66.9 18.8,66.9 L175.8,66.9 z M170.1,78.3 L24.5,78.3 L24.5,266.7 L170.1,266.7 L170.1,232.6 L133.8,248.8 C131.2,249.9 128.4,250.5 125.7,250.5 C118.4,250.5 111.5,246.5 108.4,239.6 C104.2,230.2 108.7,219 118.5,214.6 L170.1,191.5 L170.1,78.3 z M154,91.2 C157.1,91.2 159.7,93.8 159.7,96.9 L159.7,179.2 C159.7,182.4 157.2,184.9 154,184.9 L40.5,184.9 C37.4,184.9 34.8,182.3 34.8,179.2 L34.8,96.9 C34.8,93.8 37.4,91.2 40.5,91.2 L154,91.2 z M148.3,102.6 L46.2,102.6 L46.2,173.5 L61.9,173.5 C66.8,160.3 79.6,151.3 93.8,151.3 L100.8,151.3 C115,151.3 127.8,160.3 132.7,173.5 L148.3,173.5 L148.3,102.6 z M97.3,107.5 C108.3,107.5 117.3,116.5 117.3,127.5 C117.3,138.5 108.3,147.5 97.3,147.5 C86.2,147.5 77.3,138.5 77.3,127.5 C77.3,116.5 86.3,107.5 97.3,107.5 z M97.3,118.9 C92.5,118.9 88.7,122.7 88.7,127.5 C88.7,132.2 92.6,136.1 97.3,136.1 C102,136.1 105.9,132.2 105.9,127.5 C105.9,122.8 102,118.9 97.3,118.9 z M100.7,162.7 L93.7,162.7 C86.6,162.7 80,166.1 75.8,171.6 L118.6,171.6 C114.4,166.1 107.8,162.7 100.7,162.7 z M146.3,214.7 L123.1,225.1 C119.1,226.9 117.2,231.4 118.8,235.1 C120.4,238.8 125.1,240.3 129.1,238.5 L142.5,232.5 C142.5,232 142.5,231.6 142.6,231.1 L146.3,214.7 z M190.8,194.8 L178.1,200.5 L178,200.5 L159.3,208.9 L155.3,226.8 L173.5,218.7 L173.6,218.6 L186.8,212.7 L190.8,194.8 z M234.3,175.4 L203.6,189.1 C203.6,189.5 203.6,189.9 203.5,190.3 L199.8,206.9 L230.8,193 C230.7,192.4 230.7,191.7 230.8,191.1 L234.3,175.4 z M265.695,162.709 C262.089,162.907 263.595,162.545 261.1,163.4 L247.4,169.5 L243.4,187.4 L267.2,176.8 C269.2,175.9 270.7,174.4 271.5,172.4 C272.2,170.5 272.2,168.5 271.4,166.8 C270.07,163.968 268.527,163.635 265.695,162.709 z M142.4,16.8 L170.5,45.7 L19.2,45.7 L47.3,16.8 L142.4,16.8 z M144.8,5.4 L44.9,5.4 C43.4,5.4 41.9,6 40.8,7.1 L1.6,47.4 C-0,49 -0.5,51.5 0.4,53.6 C1.3,55.7 3.4,57.1 5.7,57.1 L184,57.1 C186.3,57.1 188.3,55.7 189.2,53.6 C190.1,51.5 189.6,49.1 188,47.4 L148.9,7.1 C147.8,6 146.3,5.4 144.8,5.4 z" fill="#010202"/>
  </g>
</svg>
