<?xml version="1.0" encoding="UTF-8"?>
<!DOCTYPE svg PUBLIC "-//W3C//DTD SVG 1.1//EN" "http://www.w3.org/Graphics/SVG/1.1/DTD/svg11.dtd">
<svg version="1.1" xmlns="http://www.w3.org/2000/svg" xmlns:xlink="http://www.w3.org/1999/xlink" x="0" y="0" width="283.5" height="283.5" viewBox="0, 0, 283.5, 283.5">
  <g id="Background">
    <rect x="0" y="0" width="283.5" height="283.5" fill="#FFFFFF"/>
  </g>
  <g id="Layer_1">
    <path d="M246.2,0 C266.7,0 283.5,16.7 283.5,37.3 L283.5,246.2 C283.5,266.8 266.8,283.5 246.2,283.5 L37.3,283.5 C16.7,283.5 0,266.8 0,246.2 L0,37.3 C0,16.7 16.7,0 37.3,0 L246.2,0 z M246.2,14.9 L37.3,14.9 C24.9,14.9 14.9,25 14.9,37.3 L14.9,246.2 C14.9,258.6 25,268.6 37.3,268.6 L246.1,268.6 C258.5,268.6 268.5,258.5 268.5,246.2 L268.6,246.2 L268.6,37.3 C268.6,24.9 258.5,14.9 246.2,14.9 z M157.6,73.1 C183.1,73.1 203.8,93.8 203.9,119.4 C203.9,144.9 183.2,165.6 157.7,165.6 L112.5,165.6 L112.5,214.9 C112.5,219.1 109.2,222.4 105,222.4 C100.8,222.4 97.5,219 97.5,214.9 L97.5,80.6 C97.5,76.4 100.9,73.1 105,73.1 L157.6,73.1 z M157.6,88 L112.4,88 L112.4,150.6 L157.6,150.6 C174.9,150.6 188.9,136.6 188.9,119.3 C188.9,102 174.9,88 157.6,88 z" fill="#010202"/>
  </g>
</svg>
