<?xml version="1.0" encoding="UTF-8"?>
<!DOCTYPE svg PUBLIC "-//W3C//DTD SVG 1.1//EN" "http://www.w3.org/Graphics/SVG/1.1/DTD/svg11.dtd">
<svg version="1.1" xmlns="http://www.w3.org/2000/svg" xmlns:xlink="http://www.w3.org/1999/xlink" x="0" y="0" width="283.5" height="283.5" viewBox="0, 0, 283.5, 283.5">
  <g id="Background">
    <rect x="0" y="0" width="283.5" height="283.5" fill="#FFFFFF"/>
  </g>
  <g id="Layer_1">
    <path d="M143.854,168.797 C146.802,169.279 148.609,171.011 149.5,173.8 C151.8,184.2 158,193.1 167,198.8 C176,204.5 186.7,206.4 197.1,204.1 C200.6,203.3 204,205.5 204.5,208.8 C205.3,212.3 203.1,215.7 199.6,216.5 C195.7,217.4 191.9,217.8 188.1,217.8 C185.3,217.8 182.4,217.6 179.6,217.1 C179.7,217.6 179.8,218.1 179.8,218.7 L179.8,277 C179.8,280.5 177,283.4 173.4,283.4 C169.9,283.4 167,280.6 167,277 L167,218.7 C167,216.9 167.7,215.3 168.9,214.1 C165.8,212.9 162.8,211.3 159.9,209.5 C152.6,204.8 146.7,198.5 142.5,191.2 C136.3,202 126.5,210.2 115,214.5 C116,215.7 116.6,217.1 116.6,218.7 L116.6,277 C116.6,280.5 113.7,283.4 110.2,283.4 C106.7,283.4 103.8,280.6 103.8,277 L103.8,218.9 C103.8,218.4 103.9,218 104,217.5 C101.6,217.8 99.3,218 96.9,218 C93.2,218 89.4,217.6 85.6,216.8 C82.1,216 79.9,212.6 80.7,209.1 C81.5,205.6 84.9,203.4 88.4,204.2 C109.9,208.9 131.2,195.3 135.9,173.8 C136.6,170.6 139.5,168.5 142.7,168.8 L143.854,168.797 z M237,212.3 C233.4,212.3 230.6,215.2 230.6,218.7 L230.6,277 C230.6,280.6 233.5,283.4 237,283.4 C240.6,283.4 243.4,280.5 243.4,277 L243.4,218.7 C243.5,215.2 240.6,212.3 237,212.3 z M46.9,212.3 C43.3,212.3 40.5,215.2 40.5,218.7 L40.5,277 C40.5,280.6 43.4,283.4 46.9,283.4 C50.5,283.4 53.3,280.5 53.3,277 L53.3,218.7 C53.4,215.2 50.5,212.3 46.9,212.3 z M167.4,92.3 C171.1,104.1 178.7,114.2 189.3,121 C192.7,123.2 196.2,124.9 199.9,126.2 C199.8,126.7 199.7,127.3 199.7,127.8 L199.7,145.4 L84.4,145.4 L84.4,127.8 C84.4,127.1 84.3,126.5 84.1,125.9 C99,120.3 111.1,108.2 116.1,92.3 L167.4,92.3 z M173.7,62.9 C170.1,62.9 167.3,65.8 167.3,69.3 L167.3,79.4 L116.8,79.4 L116.8,69.3 C116.8,65.7 113.9,62.9 110.4,62.9 C106.9,62.9 104,65.8 104,69.3 L104,88.6 C97.8,108 77.7,119.8 57.5,115.4 C54,114.6 50.6,116.8 49.8,120.3 C49,123.8 51.2,127.2 54.7,128 C58.5,128.8 62.3,129.2 66,129.2 C67.9,129.2 69.9,129.1 71.8,128.8 L71.8,152.3 C66.2,172.6 45.6,185.2 24.8,180.7 C21.3,179.9 17.9,182.1 17.1,185.6 C16.3,189.1 18.5,192.5 22,193.3 C25.8,194.1 29.6,194.5 33.3,194.5 C55.8,194.5 76.3,180 83.4,158.2 L200.3,158.2 C204.1,169.8 211.6,179.6 222,186.2 C230.6,191.7 240.4,194.5 250.3,194.5 C254.1,194.5 257.9,194.1 261.8,193.2 C265.1,192.6 267.3,189.1 266.6,185.7 C265.8,182.2 262.4,180 258.9,180.8 C248.5,183.1 237.8,181.2 228.8,175.5 C220.9,170.5 215.2,163 212.4,154.2 C212.5,153.9 212.5,153.5 212.5,153.2 L212.5,129 C214.2,129.2 215.9,129.3 217.6,129.3 C221.4,129.3 225.2,128.9 229.1,128 C232.6,127.2 234.8,123.8 234,120.3 C233.2,116.8 229.8,114.6 226.3,115.4 C215.9,117.7 205.2,115.8 196.2,110.1 C188.5,105.2 182.9,97.9 180,89.4 C180,89.2 180.1,88.9 180.1,88.7 L180.1,69.3 C180.1,65.7 177.2,62.9 173.7,62.9 z M142,0.1 L141.4,0.1 C138.5,0.2 136,2.2 135.3,5.1 C133,15.5 126.8,24.4 117.8,30.1 C108.8,35.8 98.2,37.7 87.7,35.4 C84.2,34.6 80.8,36.8 80,40.3 C79.4,43.8 81.6,47.3 85.1,48 C88.9,48.8 92.7,49.3 96.6,49.3 C106.6,49.3 116.3,46.5 124.9,41 C131.9,36.5 137.6,30.5 141.8,23.6 C151.2,39.4 168.5,49.3 187.1,49.3 C190.8,49.3 194.6,48.9 198.4,48.1 C201.9,47.3 204.1,43.9 203.3,40.4 C202.5,36.9 199.1,34.7 195.6,35.5 C174.1,40.2 152.8,26.6 148.1,5.1 C147.5,2.2 144.9,0.2 142,0.1 z" fill="#010202"/>
  </g>
</svg>
