<?xml version="1.0" encoding="UTF-8"?>
<!DOCTYPE svg PUBLIC "-//W3C//DTD SVG 1.1//EN" "http://www.w3.org/Graphics/SVG/1.1/DTD/svg11.dtd">
<svg version="1.1" xmlns="http://www.w3.org/2000/svg" xmlns:xlink="http://www.w3.org/1999/xlink" x="0" y="0" width="283.5" height="283.5" viewBox="0, 0, 283.5, 283.5">
  <g id="Background">
    <rect x="0" y="0" width="283.5" height="283.5" fill="#FFFFFF"/>
  </g>
  <g id="Layer_1">
    <path d="M273.3,283.5 L178.1,283.5 C175.1,283.5 172.4,281.5 171.6,278.6 C170.2,273.5 169.4,268.3 169.4,263.1 C169.4,232.1 194.6,206.8 225.7,206.8 C256.8,206.8 282,232 282,263 C282,268.2 281.3,273.5 279.8,278.5 C278.9,281.5 276.3,283.5 273.3,283.5 z M183.5,270 L267.9,270 C268.3,267.7 268.5,265.4 268.5,263.1 C268.5,239.5 249.3,220.3 225.7,220.3 C202.1,220.3 182.9,239.5 182.9,263.1 C182.9,265.4 183.1,267.7 183.5,270 z M125.1,258.6 L57.5,258.6 C53.8,258.6 50.7,255.6 50.7,251.8 L50.7,200.6 L40.4,211 C37.8,213.6 33.5,213.6 30.8,211 C28.2,208.4 28.2,204.1 30.8,201.4 L52.7,179.5 C53.4,178.8 54.1,178.4 54.9,178 C55.6,177.7 56.4,177.5 57.3,177.5 C57.4,177.5 57.5,177.5 57.6,177.5 C58.5,177.5 59.3,177.7 60,178 C60.8,178.3 61.6,178.8 62.2,179.5 L84.1,201.4 C86.7,204 86.7,208.3 84.1,211 C81.5,213.6 77.2,213.6 74.5,211 L64.1,200.6 L64.1,245.1 L124.9,245.1 C128.6,245.1 131.7,248.1 131.7,251.9 C131.8,255.6 128.8,258.6 125.1,258.6 z M225.7,194.9 C207.7,194.9 193.1,180.3 193.1,162.3 C193.1,144.3 207.7,129.7 225.7,129.7 C243.7,129.7 258.3,144.3 258.3,162.3 C258.3,180.3 243.7,194.9 225.7,194.9 z M225.7,143.2 C215.2,143.2 206.6,151.8 206.6,162.3 C206.6,172.8 215.2,181.4 225.7,181.4 C236.2,181.4 244.8,172.8 244.8,162.3 C244.8,151.8 236.2,143.2 225.7,143.2 z M105.1,153.7 L9.9,153.7 C6.9,153.7 4.2,151.7 3.4,148.8 C1.9,143.7 1.2,138.5 1.2,133.3 C1.2,102.3 26.4,77 57.5,77 C88.6,77 113.8,102.2 113.8,133.3 C113.8,138.5 113.1,143.8 111.6,148.8 C110.8,151.7 108.1,153.7 105.1,153.7 z M15.3,140.2 L99.7,140.2 C100.1,137.9 100.3,135.6 100.3,133.3 C100.3,109.7 81.1,90.5 57.5,90.5 C33.9,90.5 14.7,109.7 14.7,133.3 C14.8,135.6 15,137.9 15.3,140.2 z M224.5,106.7 L224.5,106.7 C224.5,106.7 224.5,106.7 224.5,106.7 C224.5,106.7 224.5,106.7 224.5,106.7 L224.5,106.7 C223.6,106.7 222.8,106.5 222,106.2 C221.2,105.9 220.4,105.4 219.7,104.7 L197.8,82.8 C195.2,80.2 195.2,75.9 197.8,73.3 C200.4,70.7 204.7,70.7 207.3,73.3 L217.7,83.7 L217.7,39.2 L157,39.2 C153.3,39.2 150.2,36.2 150.2,32.4 C150.2,28.7 153.2,25.6 157,25.6 L224.5,25.6 C228.2,25.6 231.3,28.6 231.3,32.4 L231.3,83.6 L241.7,73.2 C244.3,70.6 248.6,70.6 251.3,73.2 C253.9,75.8 253.9,80.1 251.3,82.8 L229.4,104.7 C228.8,105.3 228,105.8 227.3,106.1 C226.4,106.5 225.5,106.7 224.5,106.7 L224.5,106.7 C224.6,106.7 224.6,106.7 224.5,106.7 L224.5,106.7 C224.5,106.7 224.5,106.7 224.5,106.7 L224.5,106.7 z M57.5,65.2 C39.5,65.2 24.9,50.6 24.9,32.6 C25,14.6 39.6,0 57.5,0 C75.4,0 90.1,14.6 90.1,32.6 C90.1,50.6 75.5,65.2 57.5,65.2 z M57.5,13.5 C47,13.5 38.4,22.1 38.4,32.6 C38.4,43.1 47,51.7 57.5,51.7 C68,51.7 76.6,43.1 76.6,32.6 C76.6,22.1 68.1,13.5 57.5,13.5 z" fill="#010202"/>
  </g>
</svg>
