<?xml version="1.0" encoding="UTF-8"?>
<!DOCTYPE svg PUBLIC "-//W3C//DTD SVG 1.1//EN" "http://www.w3.org/Graphics/SVG/1.1/DTD/svg11.dtd">
<svg version="1.1" xmlns="http://www.w3.org/2000/svg" xmlns:xlink="http://www.w3.org/1999/xlink" x="0" y="0" width="283.5" height="283.5" viewBox="0, 0, 283.5, 283.5">
  <g id="Background">
    <rect x="0" y="0" width="283.5" height="283.5" fill="#FFFFFF"/>
  </g>
  <g id="Layer_1">
    <path d="M235,26.2 C238.6,26.2 241.5,29.1 241.5,32.7 L241.5,176.4 L282.2,246.9 C283,248 283.5,249.3 283.5,250.8 C283.5,254.4 280.6,257.3 277,257.3 L6.5,257.3 C4.2,257.3 2.1,256 0.9,254 C-0.3,252 -0.3,249.5 0.9,247.5 L42,176.4 L42,32.7 C42,29.1 44.9,26.2 48.5,26.2 L235,26.2 z M231.2,184.6 L52.3,184.6 L17.8,244.3 L265.7,244.3 L231.2,184.6 z M169.2,216.3 C172.8,216.3 175.7,219.2 175.7,222.8 C175.7,226.4 172.8,229.3 169.2,229.3 L114.2,229.3 C110.6,229.3 107.7,226.4 107.7,222.8 C107.7,219.2 110.6,216.3 114.2,216.3 L169.2,216.3 z M228.4,39.2 L55,39.2 L55,171.6 L228.4,171.6 L228.4,39.2 z M194.6,64.2 C194.7,64.3 194.9,64.3 195,64.3 C195.1,64.4 195.2,64.4 195.3,64.4 L196.5,64.8 C196.6,64.9 196.7,64.9 196.8,65 C196.8,65 196.9,65.1 197,65.1 L197.6,65.5 C197.6,65.6 197.7,65.6 197.8,65.7 L198.9,66.8 L199.3,67.4 C199.4,67.5 199.5,67.6 199.5,67.7 L199.9,68.9 C200,69 200,69.1 200,69.2 L200.1,69.5 C200.2,69.6 200.2,69.7 200.2,69.8 L200.2,139.9 C200.2,143.5 197.3,146.4 193.7,146.4 L89.7,146.4 C86.1,146.4 83.2,143.5 83.2,139.9 L83.2,69.7 C83.3,69.6 83.3,69.5 83.3,69.4 L83.4,69.1 C83.5,69 83.5,68.9 83.5,68.8 L83.9,67.6 L84.3,67 C84.3,66.9 84.4,66.8 84.5,66.7 C84.5,66.6 84.5,66.6 84.6,66.5 L85.5,65.6 C85.5,65.5 85.6,65.5 85.7,65.4 L86.3,65 C86.4,65 86.4,64.9 86.5,64.9 C86.7,64.8 86.8,64.8 86.9,64.7 L87.1,64.6 C87.2,64.6 87.4,64.5 87.5,64.5 L87.7,64.4 C87.8,64.4 88,64.3 88.1,64.3 L88.3,64.3 C88.5,64.2 88.7,64.2 88.9,64.2 L194.6,64.2 z M187.2,86.3 L153.7,119.8 C150.5,123 146.3,124.8 141.7,124.8 C137.2,124.8 132.9,123 129.7,119.8 L96.2,86.4 L96.2,133.5 L187.2,133.5 L187.2,86.3 z M177.9,77.3 L105.4,77.3 L138.9,110.7 C140.4,112.2 143,112.2 144.5,110.7 L177.9,77.3 z" fill="#000000"/>
  </g>
</svg>
