<?xml version="1.0" encoding="UTF-8"?>
<!DOCTYPE svg PUBLIC "-//W3C//DTD SVG 1.1//EN" "http://www.w3.org/Graphics/SVG/1.1/DTD/svg11.dtd">
<svg version="1.1" xmlns="http://www.w3.org/2000/svg" xmlns:xlink="http://www.w3.org/1999/xlink" x="0" y="0" width="283.5" height="283.5" viewBox="0, 0, 283.5, 283.5">
  <g id="Background">
    <rect x="0" y="0" width="283.5" height="283.5" fill="#FFFFFF"/>
  </g>
  <g id="Layer_1">
    <path d="M144.219,141.97 C176.148,142.55 204.932,157.303 225.5,181.5 C248.3,209.5 248.6,253.1 248.6,255 C248.6,258.8 245.4,262 241.6,262 C237.7,262 234.6,258.9 234.6,255 C234.6,254.6 234.3,214.5 214.7,190.4 C185.4,154.4 142.6,156 142.2,156 C142,156 141.7,156 141.5,156 C141.1,156 98.3,154.4 69,190.4 C49.2,214.6 49,254.6 49,255 C49,258.9 45.9,262 42,262 C38.1,262 35,258.9 35,255 C35,253.2 35.3,209.5 58.1,181.5 C90.9,141.3 136.9,141.8 141.8,142 C142.992,141.962 142.185,141.983 144.219,141.97 z M141.8,22.7 C166.4,22.7 186.3,42.7 186.3,67.2 C186.3,91.8 166.3,111.7 141.8,111.7 C117.2,111.7 97.3,91.7 97.3,67.2 C97.2,42.6 117.2,22.7 141.8,22.7 z M141.8,8.8 C109.6,8.8 83.4,35 83.4,67.2 C83.4,99.4 109.6,125.6 141.8,125.6 C174,125.6 200.2,99.4 200.2,67.2 C200.2,35 174,8.8 141.8,8.8 z" fill="#010202"/>
  </g>
</svg>
