<?xml version="1.0" encoding="UTF-8"?>
<!DOCTYPE svg PUBLIC "-//W3C//DTD SVG 1.1//EN" "http://www.w3.org/Graphics/SVG/1.1/DTD/svg11.dtd">
<svg version="1.1" xmlns="http://www.w3.org/2000/svg" xmlns:xlink="http://www.w3.org/1999/xlink" x="0" y="0" width="283.5" height="283.5" viewBox="0, 0, 283.5, 283.5">
  <g id="Background">
    <rect x="0" y="0" width="283.5" height="283.5" fill="#FFFFFF"/>
  </g>
  <g id="Layer_1">
    <path d="M209.3,70.2 C219.6,70.2 230.3,77.7 233.7,87.4 L251.6,137.5 C251.6,137.6 251.6,137.6 251.6,137.7 C269.3,138.8 283.5,153.5 283.5,171.5 L283.5,211.7 C283.5,230.4 268.3,245.6 249.6,245.6 L243.1,245.6 L243.1,276.6 C243.1,280.4 240.1,283.4 236.3,283.4 C232.5,283.4 229.5,280.3 229.5,276.6 L229.5,245.6 L54.1,245.6 L54.1,276.6 C54.1,280.4 51.1,283.4 47.3,283.4 C43.5,283.4 40.5,280.3 40.5,276.6 L40.5,245.6 L33.9,245.6 C15.2,245.6 0,230.4 0,211.7 L0,171.5 C0,153.5 14.1,138.8 32,137.8 L32,137.6 L49.9,87.4 C53.4,77.8 64.1,70.2 74.3,70.2 L209.3,70.2 z M209.2,83.6 L74.2,83.6 C69.7,83.6 64.1,87.5 62.6,91.8 L46.3,137.5 L86.3,137.5 C90.1,137.5 93.1,140.5 93.1,144.3 C93.1,148.1 90,151.1 86.3,151.1 L33.9,151.1 C22.6,151.1 13.5,160.3 13.5,171.5 L13.5,211.7 C13.5,223 22.7,232.1 33.9,232.1 L249.5,232.1 C260.8,232.1 269.9,222.9 269.9,211.7 L269.8,211.7 L269.8,171.5 C269.8,160.2 260.6,151.1 249.4,151.1 L197,151.1 C193.2,151.1 190.2,148.1 190.2,144.3 C190.2,140.5 193.3,137.5 197,137.5 L237.1,137.5 L220.8,91.8 C219.3,87.5 213.8,83.6 209.2,83.6 z M47.3,172.5 C58.4,172.5 67.5,181.6 67.6,192.8 C67.6,204 58.5,213.1 47.3,213.1 C36.1,213.1 27,204 27,192.8 C27,181.6 36.1,172.5 47.3,172.5 z M47.3,186.1 C43.6,186.1 40.6,189.1 40.6,192.8 C40.6,196.5 43.6,199.5 47.3,199.5 C51,199.5 54,196.5 54,192.8 C54,189.1 51,186.1 47.3,186.1 z M236.2,172.5 C247.4,172.5 256.5,181.6 256.5,192.8 C256.5,204 247.4,213.1 236.2,213.1 C225,213.1 215.9,204 215.9,192.8 C215.9,181.6 225,172.5 236.2,172.5 z M236.2,186.1 C232.5,186.1 229.5,189.1 229.5,192.8 C229.5,196.5 232.5,199.5 236.2,199.5 C239.9,199.5 242.9,196.5 242.9,192.8 C242.9,189.1 239.9,186.1 236.2,186.1 z M141.7,96.2 C158,96.2 171.3,109.5 171.3,125.8 L171.3,137.3 L172.5,137.3 C179.4,137.3 185,142.9 185,149.8 L185,188.5 C185,195.4 179.4,201 172.5,201 L111,201 C104.1,201 98.5,195.4 98.5,188.5 L98.5,149.8 C98.5,142.9 104.1,137.3 111,137.3 L112.1,137.3 L112.1,125.8 C112.1,109.5 125.4,96.2 141.7,96.2 z M171.4,150.8 L112,150.8 L112,187.4 L171.4,187.4 L171.4,150.8 z M141.8,109.8 C132.9,109.8 125.7,117 125.7,125.8 L125.7,137.3 L157.8,137.3 L157.8,125.8 C157.8,117 150.6,109.8 141.8,109.8 z" fill="#000000"/>
  </g>
</svg>
