<?xml version="1.0" encoding="UTF-8"?>
<!DOCTYPE svg PUBLIC "-//W3C//DTD SVG 1.1//EN" "http://www.w3.org/Graphics/SVG/1.1/DTD/svg11.dtd">
<svg version="1.1" xmlns="http://www.w3.org/2000/svg" xmlns:xlink="http://www.w3.org/1999/xlink" x="0" y="0" width="283.5" height="283.5" viewBox="0, 0, 283.5, 283.5">
  <g id="Background">
    <rect x="0" y="0" width="283.5" height="283.5" fill="#FFFFFF"/>
  </g>
  <g id="Layer_1">
    <path d="M141.3,283.5 C112.3,283.5 85.1,272.2 64.7,251.8 C29.3,216.4 22.7,160.2 49,118.3 C73.2,79.5 133.5,5.6 136,2.5 C137.3,0.9 139.2,0 141.3,0 C143.3,0 145.3,1 146.5,2.6 C147.1,3.4 207.4,79.5 233.7,118.5 C261.1,159.1 254.4,215.1 217.9,251.7 C197.4,272.2 170.2,283.5 141.3,283.5 z M141.2,17.6 C125.6,36.9 80.1,94 60.4,125.4 C37.4,162.1 43.2,211.2 74.2,242.2 C92.1,260.1 115.9,270 141.3,270 C166.7,270 190.5,260.1 208.4,242.2 C240.4,210.2 246.4,161.4 222.6,126.1 C201.1,94.2 156.4,37 141.2,17.6 z" fill="#010202"/>
  </g>
</svg>
