<?xml version="1.0" encoding="UTF-8"?>
<!DOCTYPE svg PUBLIC "-//W3C//DTD SVG 1.1//EN" "http://www.w3.org/Graphics/SVG/1.1/DTD/svg11.dtd">
<svg version="1.1" xmlns="http://www.w3.org/2000/svg" xmlns:xlink="http://www.w3.org/1999/xlink" x="0" y="0" width="283.5" height="283.5" viewBox="0, 0, 283.5, 283.5">
  <g id="Background">
    <rect x="0" y="0" width="283.5" height="283.5" fill="#FFFFFF"/>
  </g>
  <g id="Layer_1">
    <path d="M236.2,189 C247.4,189 256.4,198.1 256.4,209.2 C256.4,220.3 247.4,229.4 236.2,229.4 C225.1,229.4 216,220.3 216,209.2 C216,198.1 225,189 236.2,189 z M236.2,202.6 C232.5,202.6 229.5,205.6 229.5,209.3 C229.5,213 232.5,216 236.2,216 C239.9,216 242.9,213 242.9,209.3 C242.9,205.6 239.9,202.6 236.2,202.6 z M47.2,202.6 C50.9,202.6 53.9,205.6 53.9,209.3 C53.9,213 51,216 47.2,216 C43.5,216 40.5,213 40.5,209.3 C40.5,205.6 43.5,202.6 47.2,202.6 z M47.2,189 C36,189 27,198.1 27,209.2 C27,220.3 36.1,229.4 47.2,229.4 C58.4,229.4 67.4,220.3 67.4,209.2 C67.4,198.1 58.4,189 47.2,189 z M238.9,67.5 C242.1,67.5 246.3,70.3 247.4,73.3 L266.4,120.7 C266.5,120.9 266.6,121.2 266.7,121.5 L222.7,121.5 C219,121.5 216,124.5 216,128.2 C216,131.9 219,134.9 222.7,134.9 L269.7,134.9 C269.9,136.4 270,137.8 270,138.9 L270,157.8 C270,160 268.1,161.8 266,161.8 L175.6,161.8 L175.6,71.5 L175.5,71.5 C175.5,69.3 177.4,67.5 179.5,67.5 L238.9,67.5 z M162,135 L162,162 L13.5,162 L13.5,135 L162,135 z M238.9,54 L179.5,54 C169.8,54 162,61.9 162,71.5 L162,121.4 L6.7,121.4 C3,121.4 0,124.4 0,128.1 L0,168.6 C0,172.3 3,175.3 6.7,175.3 L266.6,175.3 C276,174.9 283.5,167.2 283.5,157.8 L283.5,139 C283.5,135.6 283,131.2 282.1,127 L282.1,126.8 C281.3,122.7 280.2,118.8 279,115.7 L260,68.3 C256.7,60.2 247.7,54 238.9,54 z" fill="#010202"/>
  </g>
</svg>
