<?xml version="1.0" encoding="UTF-8"?>
<!DOCTYPE svg PUBLIC "-//W3C//DTD SVG 1.1//EN" "http://www.w3.org/Graphics/SVG/1.1/DTD/svg11.dtd">
<svg version="1.1" xmlns="http://www.w3.org/2000/svg" xmlns:xlink="http://www.w3.org/1999/xlink" x="0" y="0" width="283.5" height="283.5" viewBox="0, 0, 283.5, 283.5">
  <g id="Background">
    <rect x="0" y="0" width="283.5" height="283.5" fill="#FFFFFF"/>
  </g>
  <g id="Layer_1">
    <path d="M262.9,54.6 C266.6,54.6 269.6,57.6 269.6,61.3 L269.6,276.7 C269.6,280.4 266.6,283.5 262.9,283.5 L47.5,283.5 C43.8,283.5 40.8,280.5 40.8,276.8 C40.8,273.1 43.8,270.1 47.5,270.1 L256.2,270.1 L256.2,61.3 C256.2,57.6 259.2,54.6 262.9,54.6 z M74.5,-0 C70.8,-0 67.8,3 67.8,6.7 L67.8,27.7 L20.6,27.7 C16.9,27.7 13.9,30.7 13.9,34.4 L13.9,249.8 C13.9,253.5 16.9,256.5 20.6,256.5 L236,256.5 C239.7,256.5 242.7,253.5 242.7,249.8 L242.7,34.4 C242.7,30.7 239.7,27.7 236,27.7 L209,27.7 C205.3,27.7 202.3,30.7 202.3,34.4 C202.3,38.1 205.3,41.1 209,41.1 L229.3,41.1 L229.3,243 L27.3,243 L27.3,41.1 L67.8,41.1 L67.8,61.3 C67.8,65 70.8,68 74.5,68 C78.2,68 81.2,65 81.2,61.3 L81.2,6.7 C81.2,3 78.2,-0 74.5,-0 z M181.037,115.772 C178.267,115.772 177.209,115.587 175,117.6 L119,173.6 L94.9,149.5 C92.3,146.9 88,146.9 85.4,149.5 C82.8,152.1 82.8,156.4 85.4,159 L119,192.6 L184.5,127.1 C187.1,124.5 187.1,120.2 184.5,117.6 C182.779,116.199 183.87,116.915 181.037,115.772 z M182.1,-0 C178.4,-0 175.4,3 175.4,6.7 L175.4,27.7 L101.4,27.7 C97.7,27.7 94.7,30.7 94.7,34.4 C94.7,38.1 97.7,41.1 101.4,41.1 L175.4,41.1 L175.4,61.4 C175.4,65.1 178.4,68.1 182.1,68.1 C185.8,68.1 188.8,65 188.8,61.3 L188.8,6.7 C188.8,3 185.8,-0 182.1,-0 z" fill="#010202"/>
  </g>
</svg>
