<?xml version="1.0" encoding="UTF-8"?>
<!DOCTYPE svg PUBLIC "-//W3C//DTD SVG 1.1//EN" "http://www.w3.org/Graphics/SVG/1.1/DTD/svg11.dtd">
<svg version="1.1" xmlns="http://www.w3.org/2000/svg" xmlns:xlink="http://www.w3.org/1999/xlink" x="0" y="0" width="283.5" height="283.5" viewBox="0, 0, 283.5, 283.5">
  <g id="Background">
    <rect x="0" y="0" width="283.5" height="283.5" fill="#FFFFFF"/>
  </g>
  <g id="Layer_1">
    <path d="M111.1,253.2 C111.8,253.2 112.1,253.5 112.3,254.1 L117.1,268.4 L121.7,254.3 C121.9,253.6 122.3,253.3 123,253.3 L126.5,253.3 C127.2,253.3 127.4,253.7 127.1,254.4 L118.5,276.9 C116.5,282.1 114.1,283.9 108.9,283.9 C108.1,283.9 107.2,283.9 106.6,283.7 C105.9,283.5 105.9,283.2 106,282.6 L106.3,280.3 C106.4,279.7 106.6,279.5 107.1,279.5 C107.5,279.5 108.3,279.6 108.8,279.6 C111.5,279.6 112.6,278.6 113.5,276.6 L114.3,274.6 L106.4,254.2 C106.2,253.6 106.4,253.2 107,253.2 L111.1,253.2 z M140.2,257 C141.7,257 142.9,257.6 143.8,258.8 C144.7,260 145.1,261.8 145.1,263.8 C145,265.9 144.6,267.7 143.5,269.1 C142.8,270 141.5,270.7 140,270.7 C138.3,270.7 136.6,269.7 135.7,268.6 L135.7,259.1 C136.6,258 138.6,257 140.2,257 z M141.5,252.7 C139.2,252.7 136.7,253.8 135.4,255.2 L135.4,254.1 C135.4,253.4 135,253.3 134.2,253.3 L131.6,253.3 C130.9,253.3 130.6,253.6 130.6,254.3 L130.6,282.6 C130.6,283.3 130.9,283.7 131.6,283.7 L134.6,283.7 C135.3,283.7 135.7,283.4 135.7,282.6 L135.7,272.8 C137,274.1 139,274.8 141,274.8 C143.8,274.8 146.1,273.7 147.7,271.8 C149.5,269.7 150.5,266.7 150.5,263.4 C150.5,260.4 149.6,257.3 147.8,255.3 C146.3,253.8 144.3,252.7 141.5,252.7 z M164,256.8 C166.6,256.8 168,258.9 168,261.1 L168,261.6 L159.1,261.6 C159.4,259 161.1,256.8 164,256.8 z M164.2,252.7 C157.7,252.7 153.4,257.2 153.4,263.7 C153.4,270.5 157.4,274.8 164.3,274.8 C166.6,274.8 169.5,274.4 171.6,273.4 C172.3,273.1 172.4,272.7 172.2,272.1 L171.6,269.9 C171.5,269.4 171.2,269.2 170.5,269.5 C168.8,270.2 167,270.5 165.2,270.5 C161.8,270.5 159.3,268.2 159,264.9 L171.7,264.9 C172.8,264.9 173.1,264.7 173.1,263.6 L173.1,262.9 C173.1,259.9 172.5,257.2 170.5,255.1 C169.1,253.7 166.9,252.7 164.2,252.7 z M197.7,243.7 C194.4,243.7 191.3,244.7 188.8,246.3 C188.1,246.7 188.1,247.2 188.3,247.8 L189.3,250 C189.6,250.7 190.2,250.7 190.7,250.4 C193.1,249.1 195,248.5 197,248.5 C199.6,248.5 201.5,249.8 201.5,252.5 C201.5,255 199.4,257.8 196.1,261.3 C193.7,263.8 190.7,266.4 188,269.2 C187.4,269.8 187.2,270.2 187.2,271 L187.2,273.1 C187.2,274.1 187.5,274.4 188.5,274.4 L205.5,274.4 C206.4,274.4 206.8,274 206.8,273.1 L206.8,270.8 C206.8,270 206.4,269.7 205.5,269.7 L194,269.7 C195.3,268.5 196.8,267.1 198.3,265.7 C202.8,261.4 207.1,257.1 207.1,252.1 C207.1,246.7 203.1,243.7 197.7,243.7 z M108.3,244.3 L86.3,244.3 C85.6,244.3 85.3,244.6 85.3,245.2 L85.3,247.8 C85.3,248.5 85.6,248.8 86.3,248.8 L94.4,248.8 L94.4,273.3 C94.4,274.1 94.7,274.4 95.5,274.4 L99,274.4 C99.7,274.4 100,274.1 100,273.3 L100,248.8 L107.9,248.8 C108.8,248.8 109.2,248.6 109.3,247.9 L109.6,245.4 C109.7,244.6 109.4,244.3 108.3,244.3 z M178.2,100.2 C172,100.2 167,105.2 167,111.4 C167,117.6 172,122.6 178.2,122.6 C184.4,122.6 189.4,117.6 189.4,111.4 C189.4,105.2 184.4,100.2 178.2,100.2 z M114.2,100.2 C108,100.2 103,105.2 103,111.4 C103,117.6 108,122.6 114.2,122.6 C120.4,122.6 125.4,117.6 125.4,111.4 C125.4,105.2 120.4,100.2 114.2,100.2 z M146.1,39.7 C185.6,39.7 217.8,71.9 217.8,111.4 C217.8,150.9 185.6,183.1 146.1,183.1 C106.6,183.1 74.4,150.9 74.4,111.4 C74.4,71.9 106.6,39.7 146.1,39.7 z M146.1,27.7 C100,27.7 62.4,65.2 62.4,111.4 C62.4,157.5 99.9,195.1 146.1,195.1 C192.2,195.1 229.8,157.6 229.8,111.4 C229.8,65.2 192.2,27.7 146.1,27.7 z M226.5,12.3 C237.1,12.3 245.8,21 245.8,31.6 L245.8,191.1 C245.8,201.7 237.1,210.4 226.5,210.4 L67,210.4 C56.4,210.4 47.7,201.7 47.7,191.1 L47.7,31.6 C47.7,21 56.4,12.3 67,12.3 L226.5,12.3 z M226.5,0.4 L67,0.4 C49.8,0.4 35.7,14.4 35.7,31.7 L35.7,191.2 C35.7,208.4 49.7,222.5 67,222.5 L226.5,222.5 C243.7,222.5 257.8,208.5 257.8,191.2 L257.8,31.6 C257.8,14.4 243.8,0.4 226.5,0.4 z" fill="#000000"/>
  </g>
</svg>
