<?xml version="1.0" encoding="UTF-8"?>
<!DOCTYPE svg PUBLIC "-//W3C//DTD SVG 1.1//EN" "http://www.w3.org/Graphics/SVG/1.1/DTD/svg11.dtd">
<svg version="1.1" xmlns="http://www.w3.org/2000/svg" xmlns:xlink="http://www.w3.org/1999/xlink" x="0" y="0" width="283.5" height="283.5" viewBox="0, 0, 283.5, 283.5">
  <g id="Background">
    <rect x="0" y="0" width="283.5" height="283.5" fill="#FFFFFF"/>
  </g>
  <g id="Layer_1">
    <path d="M99.3,247.5 C100.2,247.5 100.5,247.9 100.7,248.5 L106.1,264.6 L111.3,248.6 C111.6,247.8 112,247.5 112.8,247.5 L116.8,247.5 C117.6,247.5 117.8,247.9 117.5,248.7 L107.8,274.2 C105.5,280 102.8,282.1 96.9,282.1 C96,282.1 95,282.1 94.3,281.9 C93.5,281.6 93.5,281.2 93.6,280.6 L93.9,278 C94,277.3 94.3,277.1 94.8,277.1 C95.3,277.1 96.2,277.2 96.8,277.2 C99.8,277.2 101.1,276.1 102.1,273.8 L103,271.6 L94.1,248.6 C93.8,248 94,247.5 94.7,247.5 L99.3,247.5 z M132.4,251.6 C134.1,251.6 135.5,252.3 136.4,253.6 C137.4,255 137.8,257 137.8,259.3 C137.8,261.7 137.2,263.8 136,265.3 C135.2,266.3 133.8,267.1 132.1,267.1 C130.2,267.1 128.3,266 127.3,264.7 L127.3,254 C128.3,252.8 130.5,251.6 132.4,251.6 z M133.7,246.9 C131,246.9 128.2,248.1 126.8,249.8 L126.8,248.5 C126.7,247.8 126.3,247.6 125.5,247.6 L122.6,247.6 C121.8,247.6 121.4,247.9 121.4,248.7 L121.4,280.7 C121.4,281.5 121.8,282 122.6,282 L126,282 C126.8,282 127.3,281.7 127.3,280.7 L127.3,269.6 C128.7,271.1 131,271.9 133.2,271.9 C136.4,271.9 138.9,270.6 140.8,268.6 C142.9,266.2 144,262.8 144,259.1 C144,255.7 143,252.2 140.9,249.9 C139.2,248.1 137,246.9 133.7,246.9 z M159.1,251.4 C162.1,251.4 163.6,253.8 163.7,256.3 L163.7,256.9 L153.6,256.9 C154,254 155.9,251.4 159.1,251.4 z M159.5,246.9 C152.2,246.9 147.3,252 147.3,259.4 C147.3,267.1 151.9,272 159.6,272 C162.2,272 165.4,271.5 167.9,270.4 C168.7,270.1 168.8,269.6 168.6,269 L167.9,266.5 C167.8,266 167.5,265.8 166.7,266.1 C164.8,266.8 162.7,267.3 160.7,267.3 C156.8,267.3 154.1,264.7 153.7,260.9 L168,260.9 C169.2,260.9 169.6,260.7 169.6,259.5 L169.6,258.8 C169.6,255.5 169,252.4 166.7,250 C165,248 162.5,246.9 159.5,246.9 z M96.1,237.4 L71.3,237.4 C70.6,237.4 70.2,237.7 70.2,238.4 L70.2,241.3 C70.2,242.1 70.5,242.5 71.3,242.5 L80.5,242.5 L80.5,270.2 C80.5,271.1 80.8,271.4 81.7,271.4 L85.7,271.4 C86.5,271.4 86.9,271.1 86.9,270.2 L86.9,242.5 L95.8,242.5 C96.8,242.4 97.2,242.2 97.3,241.4 L97.6,238.6 C97.7,237.7 97.4,237.4 96.1,237.4 z M201.6,237.3 L199.2,237.3 C198.2,237.3 197.7,237.4 197,237.8 L187.2,243.6 C186.5,244 186.4,244.6 186.7,245.3 L187.9,247.6 C188.3,248.5 189,248.5 189.7,248 L196.5,244.1 L196.5,269.8 C196.5,271 196.8,271.2 198.1,271.2 L201.3,271.2 C202.4,271.2 202.8,270.9 202.8,269.7 L202.8,238.4 C202.8,237.7 202.4,237.3 201.6,237.3 z M199.7,53.2 L199.7,67.7 C199.7,87.4 183.7,103.5 164,103.5 C144.2,103.5 128.2,87.4 128.2,67.7 L128.2,53.2 L199.7,53.2 z M185.2,1.4 C181.5,1.4 178.4,4.4 178.4,8.2 L178.4,39.7 L149.4,39.7 L149.4,8.2 C149.4,4.5 146.4,1.4 142.6,1.4 C138.9,1.4 135.8,4.4 135.8,8.2 L135.8,39.7 L121.3,39.7 C117.6,39.7 114.5,42.7 114.5,46.5 L114.5,67.9 C114.6,92.7 133.1,113.3 157,116.6 L157,168.9 C157,176.9 150.5,183.4 142.5,183.4 C134.5,183.4 128,176.9 128,168.9 L128,168.8 C127.9,141.7 105.9,119.6 78.7,119.6 C75,119.6 71.9,122.6 71.9,126.4 C71.9,130.1 74.9,133.2 78.7,133.2 C98.4,133.2 114.4,149.2 114.4,169 L114.4,169.1 C114.5,184.5 127,197 142.4,197 C157.9,197 170.4,184.4 170.4,169 L170.4,116.7 C194.4,113.4 212.9,92.8 212.9,67.9 L212.9,46.4 C213.3,42.7 210.2,39.7 206.5,39.7 L192,39.7 L192,8.2 C192,4.5 189,1.4 185.2,1.4 z" fill="#000000"/>
  </g>
</svg>
