<?xml version="1.0" encoding="UTF-8"?>
<!DOCTYPE svg PUBLIC "-//W3C//DTD SVG 1.1//EN" "http://www.w3.org/Graphics/SVG/1.1/DTD/svg11.dtd">
<svg version="1.1" xmlns="http://www.w3.org/2000/svg" xmlns:xlink="http://www.w3.org/1999/xlink" x="0" y="0" width="283.5" height="283.5" viewBox="0, 0, 283.5, 283.5">
  <g id="Background">
    <rect x="0" y="0" width="283.5" height="283.5" fill="#FFFFFF"/>
  </g>
  <g id="Layer_1">
    <path d="M97.4,197.7 L97.4,218.2 C97.4,218.9 97.7,219.1 98.3,219.1 L101.3,219.1 C101.9,219.1 102.2,218.8 102.2,218.2 L102.2,197.7 L108.8,197.7 C109.5,197.7 109.9,197.5 109.9,196.9 L110.2,194.8 C110.3,194.1 110,193.9 109.1,193.9 L90.6,193.9 C90.1,193.9 89.8,194.1 89.8,194.7 L89.8,196.8 C89.8,197.4 90,197.7 90.6,197.7 L97.4,197.7 z M117.7,221.2 C116,225.5 114,227 109.4,226.9 C108.7,226.9 108,226.8 107.5,226.7 C106.9,226.6 106.9,226.3 107,225.8 L107.3,223.9 C107.4,223.4 107.6,223.2 108,223.2 C108.4,223.2 109.1,223.3 109.5,223.3 C111.7,223.3 112.7,222.5 113.4,220.8 L114.1,219.2 L107.5,202.1 C107.3,201.7 107.5,201.3 108,201.3 L111.5,201.3 C112.1,201.3 112.4,201.5 112.5,202 L116.5,214 L120.3,202.2 C120.5,201.7 120.8,201.4 121.4,201.4 L124.4,201.4 C124.9,201.4 125.1,201.8 124.9,202.3 L117.7,221.2 z M138.6,214.6 C139.5,213.5 139.9,212 140,210.1 C140,208.4 139.6,206.9 138.9,205.9 C138.2,204.9 137.2,204.4 135.9,204.4 C134.5,204.4 132.8,205.3 132.1,206.2 L132.1,214.1 C132.9,215.1 134.3,215.9 135.7,215.9 C137,215.9 138,215.4 138.6,214.6 z M136.9,200.9 C139.3,200.9 141,201.8 142.2,203.1 C143.8,204.8 144.5,207.3 144.5,209.9 C144.5,212.7 143.6,215.2 142.1,217 C140.8,218.6 138.9,219.5 136.5,219.5 C134.8,219.5 133.2,218.9 132.1,217.8 L132.1,226 C132.1,226.7 131.8,226.9 131.2,226.9 L128.6,226.9 C128,226.9 127.7,226.6 127.7,226 L127.7,202.2 C127.7,201.6 128,201.4 128.6,201.4 L130.8,201.4 C131.4,201.4 131.8,201.6 131.8,202.1 L131.8,203 C132.9,201.8 134.9,200.9 136.9,200.9 z M159.1,208.4 C159.1,208.3 159.1,208 159.1,208 C159,206.1 157.9,204.4 155.7,204.4 C153.3,204.4 151.9,206.3 151.6,208.4 L159.1,208.4 z M163.4,210.2 C163.4,211.1 163.2,211.3 162.3,211.3 L151.6,211.3 C151.9,214.1 153.9,216 156.8,216 C158.3,216 159.9,215.6 161.3,215.1 C161.9,214.9 162.1,215 162.2,215.4 L162.7,217.3 C162.9,217.8 162.8,218.1 162.2,218.4 C160.4,219.2 158,219.6 156.1,219.6 C150.4,219.6 147,216 147,210.3 C147,204.8 150.6,201 156,201 C158.2,201 160,201.9 161.3,203.2 C162.9,204.9 163.4,207.2 163.4,209.7 L163.4,210.2 z M184.6,219.1 C183.6,219.1 183.4,218.9 183.5,217.9 L183.5,198.9 L178.4,201.8 C177.9,202.2 177.4,202.2 177.1,201.5 L176.2,199.8 C176,199.3 176.1,198.9 176.6,198.6 L183.9,194.3 C184.4,194 184.8,193.9 185.5,193.9 L187.2,193.9 C187.8,193.9 188.1,194.1 188.1,194.8 L188.1,218 C188.1,218.8 187.8,219.1 187,219.1 L184.6,219.1 z M18.4,258.5 L19.1,260.7 C19.3,261.2 19.2,261.5 18.6,261.8 C16.1,262.8 14,263.3 11.3,263.3 C3.7,263.3 -0.1,257.9 -0.1,250.4 C-0.1,242.9 4.4,237.2 11.7,237.2 C14.3,237.2 16.5,237.7 18.6,238.7 C19.2,239 19.3,239.2 19.1,239.8 L18.3,242.1 C18.2,242.5 17.9,242.7 17.4,242.4 C15.6,241.5 13.9,241.1 12.1,241.1 C7.1,241.1 5.1,245.8 5.1,250.2 C5.1,255.8 7.7,259.4 12.2,259.4 C13.9,259.4 15.7,259 17.4,258.2 C17.9,258 18.2,258 18.4,258.5 z M41.7,237.6 C42.3,237.6 42.6,237.8 42.5,238.5 L42.5,261.9 C42.5,262.5 42.2,262.8 41.6,262.8 L38.7,262.8 C38.1,262.8 37.8,262.6 37.8,261.9 L37.8,251.7 L27.5,251.7 L27.5,261.9 C27.5,262.5 27.2,262.8 26.6,262.8 L23.8,262.8 C23.1,262.8 22.8,262.6 22.8,261.9 L22.8,238.5 C22.8,237.9 23.2,237.6 23.8,237.6 L26.6,237.6 C27.2,237.6 27.5,237.8 27.5,238.5 L27.5,248 L37.9,248 L37.9,238.5 C37.9,237.9 38.2,237.6 38.8,237.6 L41.7,237.6 z M53.4,253.1 L60.2,253.1 L57.6,245.4 C57.3,244.3 57.1,243.6 56.9,243 L56.8,243 C56.6,243.6 56.3,244.4 56,245.4 L53.4,253.1 z M59.4,238.3 L68.2,261.9 C68.4,262.4 68.2,262.8 67.7,262.8 L64.4,262.8 C63.7,262.8 63.4,262.5 63.2,261.9 L61.3,256.5 L52.1,256.5 L50.2,262 C50,262.5 49.8,262.8 49.2,262.8 L46.1,262.8 C45.6,262.8 45.4,262.4 45.6,261.9 L54.5,238.3 C54.7,237.9 55,237.6 55.5,237.6 L58.4,237.6 C58.9,237.6 59.3,237.9 59.4,238.3 z M82.4,257.9 L82.4,250 C81.7,249 80.3,248.2 78.9,248.2 C75.9,248.2 74.6,250.9 74.6,253.9 C74.6,256.9 75.6,259.7 78.6,259.7 C79.9,259.7 81.6,258.8 82.3,257.9 z M85.9,236.8 C86.3,236.7 86.7,236.8 86.7,237.5 L86.7,262 C86.7,262.6 86.3,262.9 85.9,262.9 L83.5,262.9 C82.9,262.9 82.6,262.6 82.6,262.2 L82.5,261.2 C81.4,262.3 79.4,263.3 77.5,263.3 C72.2,263.3 69.8,259.1 69.8,254.2 C69.8,249.1 72.7,244.7 77.8,244.7 C79.5,244.7 81.2,245.3 82.2,246.4 L82.2,238.2 C82.2,237.6 82.3,237.3 82.9,237.2 L85.9,236.8 z M102.4,252.1 C102.4,252 102.4,251.8 102.4,251.7 C102.3,249.8 101.2,248.1 99,248.1 C96.6,248.1 95.2,250 94.9,252.1 L102.4,252.1 z M99.2,244.7 C101.5,244.7 103.3,245.5 104.6,246.9 C106.2,248.6 106.7,250.9 106.7,253.4 L106.7,253.9 C106.7,254.8 106.4,255 105.5,255 L94.8,255 C95.1,257.8 97.1,259.7 100,259.7 C101.5,259.7 103.1,259.3 104.5,258.8 C105.1,258.6 105.3,258.7 105.4,259.1 L105.9,261 C106.1,261.5 106,261.8 105.4,262.1 C103.6,262.9 101.2,263.3 99.3,263.3 C93.6,263.3 90.2,259.7 90.2,254 C90.2,248.5 93.8,244.7 99.2,244.7 z M135,237.6 C135.6,237.6 135.8,237.8 135.9,238.3 L137,261.7 C137.1,262.3 136.9,262.7 136.2,262.7 L133.2,262.7 C132.5,262.7 132.3,262.4 132.3,261.5 L131.8,246.7 L131.7,246.7 L125.5,262 C125.3,262.6 125,262.7 124.5,262.7 L123.2,262.7 C122.6,262.7 122.4,262.6 122.1,262 L115.2,246.7 L115.1,246.7 L114.8,261.8 C114.8,262.6 114.5,262.7 113.8,262.7 L111.3,262.7 C110.7,262.7 110.4,262.5 110.4,261.8 L111.3,238.4 C111.4,237.8 111.6,237.6 112.2,237.6 L114.3,237.6 C115,237.6 115.2,237.9 115.5,238.4 L123.9,256.4 L124,256.4 L131.7,238.4 C132,237.8 132.2,237.6 132.9,237.6 L135,237.6 z M149.5,259.8 C152.7,259.8 153.8,257 153.8,254 C153.8,251 152.8,248.2 149.6,248.2 C146.4,248.2 145.3,251 145.3,253.9 C145.3,256.8 146.3,259.8 149.5,259.8 z M149.7,244.7 C155.6,244.7 158.3,248.6 158.4,254 C158.4,259.3 155.2,263.3 149.5,263.3 C143.5,263.3 140.8,259.3 140.8,254 C140.8,248.7 144,244.7 149.7,244.7 z M171,237.1 C171.5,237.1 171.7,237.4 171.5,238 L163.8,262.5 C163.6,263.1 163.4,263.2 162.8,263.2 L160.3,263.2 C159.8,263.2 159.6,262.9 159.8,262.3 L167.5,237.8 C167.7,237.2 167.9,237.1 168.5,237.1 L171,237.1 z M191.8,258.5 L192.5,260.7 C192.7,261.2 192.6,261.5 192,261.8 C189.5,262.8 187.4,263.3 184.7,263.3 C177.1,263.3 173.3,257.9 173.3,250.4 C173.3,242.9 177.8,237.2 185.1,237.2 C187.7,237.2 189.9,237.7 192,238.7 C192.6,239 192.7,239.2 192.5,239.8 L191.7,242.1 C191.6,242.5 191.3,242.7 190.8,242.4 C189,241.5 187.3,241.1 185.5,241.1 C180.5,241.1 178.5,245.8 178.5,250.2 C178.5,255.8 181.1,259.4 185.6,259.4 C187.3,259.4 189.1,259 190.8,258.2 C191.3,258 191.6,258 191.8,258.5 z M203.4,259.8 C206.6,259.8 207.7,257 207.7,254 C207.7,251 206.7,248.2 203.5,248.2 C200.3,248.2 199.2,251 199.2,253.9 C199.2,256.8 200.2,259.8 203.4,259.8 z M203.6,244.7 C209.5,244.7 212.3,248.6 212.3,254 C212.3,259.3 209.1,263.3 203.4,263.3 C197.4,263.3 194.7,259.3 194.7,254 C194.7,248.7 197.9,244.7 203.6,244.7 z M236.2,244.7 C238.9,244.7 240.5,246 241.2,247.6 C241.9,249 242.1,250.6 242.1,252.9 L242.1,262.1 C242.1,262.7 241.8,263 241.2,263 L238.6,263 C238,263 237.7,262.8 237.7,262.1 L237.7,252.1 C237.7,250.1 237.2,248.6 235,248.6 C233.6,248.6 232,249.3 230.9,250.2 C230.9,250.5 231,255.4 231,255.9 L231,262 C231,262.6 230.7,262.9 230.1,262.9 L227.7,262.9 C227.1,262.9 226.8,262.7 226.8,262 L226.8,252 C226.8,250 226.4,248.5 224.2,248.5 C222.8,248.5 221.4,249.3 220.2,250.3 L220.2,261.9 C220.2,262.5 219.9,262.8 219.3,262.8 L216.7,262.8 C216.1,262.8 215.8,262.6 215.8,261.9 L215.8,246 C215.8,245.5 216.2,245.2 216.7,245.2 L219.1,245.2 C219.6,245.2 220,245.4 220,245.9 L220,246.8 C221.5,245.5 223.5,244.7 225.4,244.7 C227.6,244.7 229.2,245.7 230,247.1 C231.6,245.5 234,244.7 236.2,244.7 z M254.7,259.6 C257.9,259.6 258.9,256.9 258.8,254 C258.8,251.1 257.9,248.4 254.9,248.4 C253.5,248.4 252.1,249.1 251.1,250 L251.1,257.8 C252.1,258.9 253.4,259.6 254.7,259.6 z M256,244.7 C258,244.7 259.5,245.3 260.7,246.5 C262.7,248.2 263.5,251 263.5,254.1 C263.5,259.2 260.8,263.4 255.8,263.4 C253.8,263.4 252.1,262.7 250.8,261.3 L250.7,262.5 C250.6,262.8 250.4,262.9 249.9,262.9 L247.7,262.9 C247.1,262.9 246.8,262.7 246.8,262 L246.8,238.2 C246.8,237.6 246.9,237.3 247.5,237.2 L250.5,236.8 C250.9,236.8 251.2,236.9 251.2,237.5 L251.2,246.5 C252.4,245.5 254.1,244.7 256,244.7 z M274.6,259.8 C277.8,259.8 278.9,257 278.9,254 C278.9,251 277.9,248.2 274.7,248.2 C271.5,248.2 270.4,251 270.4,253.9 C270.4,256.8 271.4,259.8 274.6,259.8 z M274.8,244.7 C280.7,244.7 283.5,248.6 283.5,254 C283.5,259.3 280.3,263.3 274.6,263.3 C268.6,263.3 265.9,259.3 265.9,254 C265.9,248.7 269.1,244.7 274.8,244.7 z M131.8,66.8 C131.8,81.4 143.7,93.3 158.1,93.3 C158.2,93.3 158.1,93.3 158.2,93.3 C158.3,93.3 158.3,93.3 158.3,93.3 C172.9,93.3 184.8,81.4 184.8,66.8 L184.8,56 L131.8,56 L131.8,66.8 z M95.3,115.3 C92.5,115.3 90.5,113 90.5,110.2 C90.5,107.4 92.7,105.2 95.5,105.2 C115.6,105.2 131.9,121.5 132,141.6 C132,141.7 132,141.7 132,141.8 C132,147.7 136.9,152.5 142.8,152.5 C148.7,152.5 153.5,147.7 153.5,141.8 L153.5,103 C135.8,100.5 122,85.3 122,66.8 L122,51 C122,51 122,51 122,51 C122,51 122,51 122,51 C122,48.2 124.2,46 127,46 L137.7,46 L137.7,22.6 C137.7,19.8 139.9,17.6 142.7,17.6 C145.5,17.6 147.7,19.8 147.7,22.6 L147.7,46 L169.2,46 L169.2,22.6 C169.2,19.8 171.4,17.6 174.2,17.6 C177,17.6 179.2,19.8 179.2,22.6 L179.2,45.9 L189.9,45.9 C192,45.9 193.7,47.2 194.5,49 C194.8,49.6 194.9,50.3 194.9,51 L194.9,66.8 C194.9,85.3 181.2,100.5 163.4,103 L163.4,141.8 C163.4,153.3 154.1,162.6 142.6,162.6 C131.2,162.6 121.9,153.4 121.8,142 C121.8,141.9 121.8,141.9 121.8,141.8 C121.8,127.2 109.9,115.3 95.3,115.3 z" fill="#000000"/>
  </g>
</svg>
