<?xml version="1.0" encoding="UTF-8"?>
<!DOCTYPE svg PUBLIC "-//W3C//DTD SVG 1.1//EN" "http://www.w3.org/Graphics/SVG/1.1/DTD/svg11.dtd">
<svg version="1.1" xmlns="http://www.w3.org/2000/svg" xmlns:xlink="http://www.w3.org/1999/xlink" x="0" y="0" width="283.5" height="283.5" viewBox="0, 0, 283.5, 283.5">
  <g id="Background">
    <rect x="0" y="0" width="283.5" height="283.5" fill="#FFFFFF"/>
  </g>
  <g id="Layer_1">
    <path d="M138.2,38.6 C143.6,38.6 148.9,39.6 153.9,41.7 C156.6,42.8 157.8,45.8 156.7,48.4 C155.6,51 152.6,52.3 150,51.2 C146.3,49.7 142.3,48.9 138.2,48.9 C121.3,48.9 107.5,62.7 107.5,79.6 C107.5,96.5 121.3,110.3 138.2,110.3 C155.1,110.3 168.9,96.5 168.9,79.6 C168.9,76.8 171.2,74.5 174,74.5 C176.8,74.5 179.1,76.8 179.1,79.6 C179.1,89.4 175.6,98.4 169.8,105.5 L217.8,169.8 C223.4,166.8 229.8,165.1 236.5,165.1 C258.5,165.1 276.4,182.9 276.4,204.9 C276.4,226.9 258.5,244.8 236.5,244.8 C218,244.8 202.5,232 198,214.9 L80.2,214.9 C75.4,232.1 59.6,244.8 40.9,244.8 C18.3,244.8 0,226.4 0,203.9 C0,181.4 18.3,163 40.9,163 C47.8,163 54.3,164.8 60,167.8 L106.6,105.4 C100.8,98.3 97.3,89.3 97.3,79.5 C97.3,56.9 115.7,38.6 138.2,38.6 z M236.5,175.4 C220.2,175.4 206.9,188.7 206.9,205 C206.9,221.3 220.2,234.6 236.5,234.6 C252.9,234.6 266.1,221.3 266.1,205 C266.1,188.7 252.8,175.4 236.5,175.4 z M236.5,183.2 C239.3,183.2 241.6,185.5 241.6,188.3 L241.6,202.8 L247.2,208.5 C249.2,210.5 249.2,213.7 247.2,215.7 C246.2,216.7 244.9,217.2 243.6,217.2 C242.3,217.2 241,216.7 240,215.7 L232.9,208.6 C232.7,208.3 232.5,208.1 232.3,207.8 C232.2,207.6 232.2,207.5 232.1,207.4 L231.8,206.9 C231.7,206.7 231.6,206.6 231.6,206.4 C231.6,206.3 231.5,206.2 231.5,206 C231.4,205.7 231.4,205.3 231.4,205 L231.4,188.3 C231.4,185.5 233.7,183.2 236.5,183.2 z M40.9,173.2 C24,173.2 10.2,187 10.2,203.9 C10.2,220.8 24,234.6 40.9,234.6 C57.8,234.6 71.6,220.8 71.6,203.9 C71.6,187 57.8,173.2 40.9,173.2 z M41.6,183.6 C47,183.6 52.2,185.7 56,189.6 C57.8,191.4 57.8,194.3 56,196.1 C54.2,197.9 51.3,197.9 49.5,196.1 C47.4,194 44.6,192.8 41.6,192.8 C38.6,192.8 35.8,193.9 33.7,196.1 C32.8,197.1 32,198.2 31.5,199.4 L41,199.4 C43.5,199.4 45.6,201.5 45.6,204 C45.6,206.5 43.5,208.6 41,208.6 L31.5,208.6 C32,209.8 32.7,210.9 33.7,211.9 C35.8,214 38.6,215.2 41.6,215.2 C44.6,215.2 47.4,214 49.5,211.9 C51.3,210.1 54.2,210.1 56,211.9 C57.8,213.7 57.8,216.6 56,218.4 C52.1,222.3 47,224.4 41.6,224.4 C36.2,224.4 31.1,222.3 27.2,218.4 C24.5,215.7 22.6,212.3 21.8,208.6 L20.6,208.6 C18.1,208.6 16,206.5 16,204 C16,201.5 18.1,199.4 20.6,199.4 L21.8,199.4 C22.6,195.7 24.5,192.3 27.2,189.6 C31,185.7 36.2,183.6 41.6,183.6 z M162.2,112.5 C155.5,117.5 147.1,120.5 138.1,120.5 C129.1,120.5 120.8,117.5 114,112.5 L68.3,173.7 C76.6,181.2 81.8,191.9 81.7,204 L81.7,204.8 L196.5,204.8 C196.6,193.3 201.5,182.9 209.4,175.7 L162.2,112.5 z M176.2,157.9 C178.7,157.9 181,158.3 182.9,159.2 C184.8,160.1 186.4,161.3 187.7,162.9 C189,164.5 190,166.4 190.6,168.5 C191.3,170.6 191.6,172.9 191.6,175.4 C191.6,178.1 191.2,180.6 190.4,182.8 C189.7,185 188.6,186.8 187.2,188.4 C185.8,190 184.1,191.2 182.2,192 C180.3,192.8 178.2,193.2 175.9,193.2 C173.4,193.2 171.2,192.9 169.3,192 C167.4,191.1 165.8,189.9 164.5,188.4 C163.2,186.9 162.2,185 161.5,182.9 C160.8,180.8 160.5,178.3 160.5,175.7 C160.5,173.1 160.9,170.7 161.6,168.5 C162.3,166.4 163.3,164.5 164.7,162.9 C166,161.3 167.7,160.1 169.6,159.2 C171.6,158.3 173.7,157.9 176.2,157.9 z M176,164.4 C173.8,164.4 172.1,165.4 170.8,167.2 C169.5,169 168.9,171.8 168.9,175.5 C168.9,179.4 169.5,182.2 170.8,184 C172,185.7 173.8,186.6 176.2,186.6 C178.4,186.6 180.1,185.7 181.4,183.9 C182.7,182.1 183.3,179.3 183.3,175.5 C183.3,171.6 182.6,168.7 181.4,167 C180.2,165.3 178.4,164.4 176,164.4 z M125.2,158.4 C125.7,158.4 126.1,158.5 126.4,158.7 C126.7,158.9 127,159.2 127.2,159.7 L138,181.9 L138.1,181.9 L147.9,159.7 C148.1,159.3 148.3,158.9 148.6,158.7 C148.9,158.5 149.3,158.4 149.9,158.4 L153.3,158.4 C153.8,158.4 154.1,158.5 154.3,158.7 C154.5,158.9 154.6,159.2 154.6,159.7 L156.2,191 C156.3,192 155.8,192.5 154.9,192.5 L150,192.5 C149.3,192.5 148.9,192.3 148.7,192 C148.5,191.7 148.4,191.2 148.4,190.5 L147.9,173.7 L147.8,173.7 L140.4,191.5 C140.2,192 140,192.3 139.7,192.4 C139.4,192.5 139.1,192.6 138.8,192.6 L137,192.6 C136.6,192.6 136.2,192.5 135.9,192.4 C135.6,192.3 135.4,192 135.1,191.5 L126.6,173.8 L126.5,173.8 L126.2,191.1 C126.2,191.8 126.1,192.2 125.8,192.4 C125.5,192.5 125.1,192.6 124.6,192.6 L120.6,192.6 C119.5,192.6 118.9,192.1 119,191 L120.2,159.9 C120.2,159.3 120.3,158.9 120.6,158.7 C120.9,158.5 121.2,158.4 121.7,158.4 L125.2,158.4 z M100.6,158.5 C103.5,158.5 105.9,158.7 107.9,159.3 C109.8,159.9 111.5,160.8 112.7,162.2 C113.6,163.2 114.3,164.3 114.7,165.6 C115.2,166.9 115.4,168.2 115.4,169.5 C115.4,171.5 115,173.2 114.3,174.7 C113.6,176.2 112.6,177.4 111.4,178.4 C110.2,179.4 108.8,180.1 107.2,180.6 C105.6,181.1 103.8,181.3 102,181.3 L99.3,181.3 L99.3,191.3 C99.3,191.7 99.2,192.1 99,192.3 C98.7,192.5 98.4,192.6 97.8,192.6 L92.9,192.6 C92.4,192.6 92,192.5 91.8,192.4 C91.5,192.2 91.4,191.9 91.4,191.3 L91.4,160 C91.4,159.4 91.5,159 91.7,158.8 C92,158.6 92.3,158.5 92.9,158.5 L100.6,158.5 z M101.6,164.6 L99.2,164.6 L99,175.4 L101.1,175.4 C102,175.4 102.8,175.3 103.6,175.1 C104.4,174.9 105,174.6 105.6,174.2 C106.2,173.8 106.6,173.2 106.9,172.5 C107.2,171.8 107.4,170.9 107.4,169.9 C107.4,168.1 106.9,166.7 105.9,165.9 C104.9,165 103.5,164.6 101.6,164.6 z M175.97,44.594 C173.92,44.594 173.012,44.494 171.4,46 L141,76.4 L131.5,66.9 C129.5,64.9 126.3,64.9 124.3,66.9 C122.3,68.9 122.3,72.1 124.3,74.1 L137.4,87.2 C138.4,88.2 139.7,88.7 141,88.7 C142.3,88.7 143.6,88.2 144.6,87.2 L178.6,53.2 C180.6,51.2 180.6,48 178.6,46 C177.289,44.926 178.118,45.475 175.97,44.594 z" fill="#000000"/>
  </g>
</svg>
