<?xml version="1.0" encoding="UTF-8"?>
<!DOCTYPE svg PUBLIC "-//W3C//DTD SVG 1.1//EN" "http://www.w3.org/Graphics/SVG/1.1/DTD/svg11.dtd">
<svg version="1.1" xmlns="http://www.w3.org/2000/svg" xmlns:xlink="http://www.w3.org/1999/xlink" x="0" y="0" width="283.5" height="283.5" viewBox="0, 0, 283.5, 283.5">
  <g id="Background">
    <rect x="0" y="0" width="283.5" height="283.5" fill="#FFFFFF"/>
  </g>
  <g id="Layer_1">
    <path d="M87.6,26.3 C89.4,26.3 91.1,27 92.4,28.3 L109.3,45.2 L276.3,45.2 C280,45.2 283,48.2 283,51.9 L283,254 C283,257.7 280,260.8 276.3,260.8 L6.7,260.8 C3,260.8 0,257.8 0,254.1 L0,33 C0,29.3 3,26.3 6.7,26.3 L87.6,26.3 z M84.8,39.7 L13.5,39.7 L13.5,247.3 L269.6,247.3 L269.6,58.6 L106.5,58.6 C104.7,58.6 103,57.9 101.7,56.6 L84.8,39.7 z M210.4,86.3 C217.8,86.3 225.3,91.5 227.9,98.5 L240.374,128.923 C251.72,131.107 258.44,140.666 259,151.8 L259,176.9 C259,189.7 248.5,200.2 235.5,200.2 L233.9,200.2 L233.9,217 C233.9,220.7 230.9,223.7 227.2,223.7 C223.5,223.7 220.5,220.7 220.5,217 L220.5,194.492 L220.4,193.5 C220.4,189.8 223.4,186.8 227.1,186.8 L235.5,186.8 C241,186.8 245.5,182.3 245.5,176.8 L245.5,151.7 C245.5,146.2 241,141.7 235.5,141.7 C233.715,141.52 234.567,141.739 232.94,141.055 C232.555,140.938 232.71,141.019 232.459,140.852 C231.527,140.46 231.934,140.736 231.232,140.033 C230.84,139.772 231.05,139.947 230.652,139.453 C229.854,138.655 230.074,139.053 229.796,138.392 C229.528,138.061 229.755,138.352 229.3,137.4 L215.4,103.4 C215.4,103.3 215.3,103.2 215.3,103.1 C214.7,101.4 212.2,99.7 210.4,99.7 L205,99.7 C201.3,99.7 198.3,96.7 198.3,93 C198.3,89.3 201.3,86.3 205,86.3 L210.4,86.3 z M170.1,86.3 C177.5,86.3 185,91.5 187.6,98.5 L200.083,128.945 C211.371,131.139 218.044,140.738 218.6,151.8 L218.6,176.9 C218.6,189.7 208,200.2 195.1,200.2 L193.4,200.2 L193.4,217 C193.4,220.7 190.4,223.7 186.7,223.7 C183,223.7 180,220.7 180,217 L180,193.501 L180,193.5 C180,189.8 183,186.8 186.7,186.8 L195.1,186.8 C200.6,186.8 205.1,182.3 205.1,176.8 L205.1,151.7 C205.1,146.2 200.6,141.7 195.1,141.7 C193.315,141.52 194.167,141.739 192.54,141.055 C192.155,140.938 192.309,141.019 192.059,140.852 C191.127,140.46 191.534,140.736 190.832,140.033 C190.44,139.772 190.65,139.947 190.252,139.453 C189.454,138.655 189.674,139.053 189.396,138.392 C189.128,138.061 189.355,138.352 188.9,137.4 L175,103.4 C175,103.3 174.9,103.2 174.9,103.1 C174.3,101.4 171.8,99.7 170.1,99.7 L164.7,99.7 C161,99.7 158,96.7 158,93 C158,89.3 161,86.3 164.7,86.3 L170.1,86.3 z M129.5,86.2 C136.9,86.2 144.4,91.4 147,98.4 L159.43,128.714 C170.798,130.894 177.539,140.436 178.1,151.6 L178.1,176.7 C178.1,189.7 167.6,200.2 154.6,200.2 L152.9,200.2 L152.9,217 C153,220.7 150,223.7 146.2,223.7 C142.5,223.7 139.5,220.7 139.5,217 L139.5,200.2 L62.6,200.2 L62.6,217 C62.6,220.7 59.6,223.7 55.9,223.7 C52.2,223.7 49.2,220.7 49.2,217 L49.2,200.2 L47.5,200.2 C34.5,200.2 24,189.7 24,176.7 L24,151.6 C24.186,140.447 31.814,130.922 42.779,128.692 L55.2,98.4 C57.8,91.4 65.3,86.2 72.7,86.2 L129.5,86.2 z M154.6,141.6 L47.5,141.6 C42,141.6 37.5,146.1 37.5,151.6 L37.5,176.7 C37.5,182.2 42,186.7 47.5,186.7 L154.6,186.7 C160.1,186.7 164.6,182.2 164.6,176.7 L164.6,151.6 C164.6,146.1 160.1,141.6 154.6,141.6 z M55.9,156.5 L57.593,156.671 C61.724,157.878 63.876,160.698 64.3,164.9 C64.3,169.539 60.539,173.3 55.9,173.3 C51.261,173.3 47.5,169.539 47.5,164.9 C47.5,160.261 51.261,156.5 55.9,156.5 z M146.2,156.5 L147.882,156.672 C151.992,157.892 154.17,160.706 154.6,164.9 C154.6,169.5 150.8,173.3 146.2,173.3 C141.6,173.3 137.8,169.5 137.8,164.9 C138.107,159.819 141.283,156.995 146.2,156.5 z M129.6,99.7 L72.6,99.7 C70.8,99.7 68.3,101.5 67.8,103.1 C67.8,103.2 67.7,103.3 67.7,103.4 L57.602,128.1 L144.598,128.1 L134.5,103.4 C134.5,103.3 134.4,103.2 134.4,103.1 C133.8,101.4 131.3,99.7 129.6,99.7 z" fill="#000000"/>
  </g>
</svg>
