<?xml version="1.0" encoding="UTF-8"?>
<!DOCTYPE svg PUBLIC "-//W3C//DTD SVG 1.1//EN" "http://www.w3.org/Graphics/SVG/1.1/DTD/svg11.dtd">
<svg version="1.1" xmlns="http://www.w3.org/2000/svg" xmlns:xlink="http://www.w3.org/1999/xlink" x="0" y="0" width="283.5" height="283.5" viewBox="0, 0, 283.5, 283.5">
  <g id="Background">
    <rect x="0" y="0" width="283.5" height="283.5" fill="#FFFFFF"/>
  </g>
  <g id="Layer_1">
    <path d="M225.7,61.1 C234,61.1 242.7,67.2 245.6,75 L261,112.6 C273.7,114.8 283.5,125.9 283.4,139.3 L283.4,169.9 C283.4,184.8 271.2,197 256.3,197 L252.8,197 L252.8,219 C252.8,222.7 249.8,225.7 246.1,225.7 C242.4,225.7 239.4,222.7 239.4,219 L239.4,190.4 C239.4,186.7 242.4,183.7 246.1,183.7 L256.3,183.7 C263.9,183.7 270.1,177.6 270.1,170 L270.1,139.4 C270.1,131.8 264,125.6 256.4,125.6 C255.8,125.5 255.2,125.4 254.7,125.3 L254.3,125.2 C253.7,125 253.3,124.8 252.8,124.5 C252.8,124.4 252.7,124.4 252.7,124.4 C252.2,124.1 251.8,123.7 251.4,123.3 L251.1,123 C250.8,122.6 250.4,122.1 250.2,121.5 L233.2,80 C233.2,79.9 233.1,79.8 233.1,79.7 C232.1,77.1 228.5,74.5 225.7,74.5 L219.1,74.5 C215.4,74.5 212.4,71.5 212.4,67.8 C212.4,64.1 215.4,61.1 219.1,61.1 L225.7,61.1 z M127,74.4 C129.8,74.4 133.4,77 134.4,79.6 C134.4,79.7 134.5,79.8 134.5,79.9 L147.7,112.2 L37.1,112.2 L50.3,79.9 L50.4,79.6 C51.3,77 55,74.4 57.8,74.4 L127,74.4 z M147.5,152 C149.4,152 151,153.6 151,155.5 C151,157.4 149.4,159 147.5,159 C145.5,159 143.9,157.4 143.9,155.5 C143.9,153.5 145.5,152 147.5,152 z M147.5,138.6 C138.2,138.6 130.6,146.2 130.6,155.5 C130.6,164.8 138.2,172.4 147.5,172.4 C156.8,172.4 164.4,164.8 164.4,155.5 C164.3,146.2 156.8,138.6 147.5,138.6 z M37.3,152 C39.2,152 40.8,153.6 40.8,155.5 C40.9,157.4 39.3,159 37.3,159 C35.3,159 33.8,157.4 33.8,155.5 C33.8,153.5 35.4,152 37.3,152 z M37.3,138.6 C28,138.6 20.4,146.2 20.4,155.5 C20.4,164.8 28,172.4 37.3,172.4 C46.6,172.4 54.2,164.8 54.2,155.5 C54.2,146.2 46.6,138.6 37.3,138.6 z M157.7,125.5 C165.3,125.5 171.5,131.7 171.5,139.3 L171.5,169.9 L171.4,169.9 C171.4,177.5 165.2,183.6 157.6,183.6 L27.1,183.6 C19.5,183.6 13.3,177.4 13.3,169.9 L13.3,139.3 C13.3,131.7 19.5,125.5 27.1,125.5 L157.7,125.5 z M127,61.1 L57.7,61.1 C49.4,61.1 40.7,67.2 37.8,75 L22.4,112.6 C9.7,114.8 -0,125.9 -0,139.3 L-0,169.9 C-0,184.9 12.2,197 27.1,197 L30.6,197 L30.6,219 C30.6,222.7 33.6,225.7 37.3,225.7 C41,225.7 44,222.7 44,219 L44,197 L140.8,197 L140.8,219 C140.8,222.7 143.8,225.7 147.5,225.7 C151.2,225.7 154.2,222.7 154.2,219 L154.2,197 L157.7,197 C172.6,197 184.8,184.8 184.8,169.9 L184.8,139.3 C184.8,125.9 175.1,114.8 162.3,112.6 L146.9,75 C144,67.2 135.3,61.1 127,61.1 z M176.3,61.1 L169.7,61.1 C166,61.1 163,64.1 163,67.8 C163,71.5 166,74.5 169.7,74.5 L176.3,74.5 C179.1,74.5 182.7,77.1 183.7,79.7 C183.7,79.8 183.8,79.9 183.8,80 L200.8,121.5 C201,122.1 201.4,122.6 201.7,123 L202,123.3 C202.4,123.7 202.8,124.1 203.3,124.4 C203.3,124.4 203.4,124.4 203.4,124.5 C203.8,124.8 204.3,125 204.9,125.2 L205.3,125.3 C205.8,125.4 206.4,125.5 207,125.6 C214.6,125.6 220.7,131.8 220.7,139.4 L220.7,170 C220.7,177.6 214.5,183.7 207,183.7 L196.8,183.7 C193.1,183.7 190.1,186.7 190.1,190.4 L190.1,219 C190.1,222.7 193.1,225.7 196.8,225.7 C200.5,225.7 203.5,222.7 203.5,219 L203.5,197 L207,197 C221.9,197 234.1,184.8 234.1,169.9 L234.1,139.3 C234.1,125.9 224.4,114.8 211.7,112.6 L196.2,75 C193.3,67.2 184.6,61.1 176.3,61.1 z" fill="#000000"/>
  </g>
</svg>
