<?xml version="1.0" encoding="UTF-8"?>
<!DOCTYPE svg PUBLIC "-//W3C//DTD SVG 1.1//EN" "http://www.w3.org/Graphics/SVG/1.1/DTD/svg11.dtd">
<svg version="1.1" xmlns="http://www.w3.org/2000/svg" xmlns:xlink="http://www.w3.org/1999/xlink" x="0" y="0" width="283.5" height="283.5" viewBox="0, 0, 283.5, 283.5">
  <g id="Background">
    <rect x="0" y="0" width="283.5" height="283.5" fill="#FFFFFF"/>
  </g>
  <g id="Layer_1">
    <path d="M266.1,72.7 L177.2,72.7 L199.3,63.6 C207,60.4 213,54.4 216.2,46.7 C222.8,30.8 215.2,12.5 199.3,6 C195.5,4.4 191.5,3.6 187.4,3.6 C174.7,3.6 163.4,11.2 158.6,22.9 L142.5,61.6 L126.4,22.9 C121.6,11.2 110.3,3.6 97.6,3.6 C93.5,3.6 89.5,4.4 85.7,6 C69.8,12.6 62.2,30.8 68.8,46.7 C72,54.4 78,60.4 85.7,63.6 L107.8,72.7 L17.4,72.7 C13.6,72.7 10.5,75.8 10.5,79.6 L10.5,134.9 C10.5,138.7 13.6,141.8 17.4,141.8 L24.3,141.8 L24.3,273 C24.3,276.8 27.4,279.9 31.2,279.9 L252.2,279.9 C256,279.9 259.1,276.8 259.1,273 L259.1,141.8 L266,141.8 C269.8,141.8 272.9,138.7 272.9,134.9 L272.9,79.6 C273,75.8 269.9,72.7 266.1,72.7 z M171.2,28.1 C173.9,21.6 180.2,17.4 187.2,17.4 C189.5,17.4 191.7,17.8 193.8,18.7 C202.6,22.4 206.9,32.5 203.2,41.4 C201.4,45.7 198.1,49 193.8,50.8 L155.1,66.8 L171.2,28.1 z M81.5,41.4 C77.8,32.5 82.1,22.4 90.9,18.7 C93,17.8 95.3,17.4 97.5,17.4 C104.6,17.4 110.9,21.6 113.5,28.1 L129.6,66.8 L90.9,50.8 C86.6,49 83.3,45.7 81.5,41.4 z M24.3,86.5 L135.5,86.5 L135.5,128 L31.2,128 L24.3,128 L24.3,86.5 z M38.1,141.8 L135.5,141.8 L135.5,266.1 L38.1,266.1 L38.1,141.8 z M245.3,266.1 L149.3,266.1 L149.3,141.8 L245.3,141.8 L245.3,266.1 z M259.2,128 L252.3,128 L149.3,128 L149.3,86.5 L259.1,86.5 L259.1,128 z" fill="#010202"/>
  </g>
</svg>
