<?xml version="1.0" encoding="UTF-8"?>
<!DOCTYPE svg PUBLIC "-//W3C//DTD SVG 1.1//EN" "http://www.w3.org/Graphics/SVG/1.1/DTD/svg11.dtd">
<svg version="1.1" xmlns="http://www.w3.org/2000/svg" xmlns:xlink="http://www.w3.org/1999/xlink" x="0" y="0" width="283.5" height="283.5" viewBox="0, 0, 283.5, 283.5">
  <g id="Background">
    <rect x="0" y="0" width="283.5" height="283.5" fill="#FFFFFF"/>
  </g>
  <g id="Layer_1">
    <path d="M111.5,190.3 C181.2,190.3 222.8,214.7 222.8,255.5 C222.8,259.3 219.7,262.4 215.9,262.4 C212.1,262.4 209,259.3 209,255.5 C209,207.9 134.4,204.2 111.5,204.2 C88.6,204.2 14,207.9 14,255.5 C14,259.3 10.9,262.4 7.1,262.4 C3.3,262.4 0.2,259.3 0.2,255.5 C0.2,214.7 41.8,190.3 111.5,190.3 z M233.4,87.1 L208.2,87.1 C204.4,87.1 201.3,90.2 201.3,94 C201.3,97.8 204.4,100.9 208.2,100.9 L233.4,100.9 C235.2,100.9 237.8,102.7 238.4,104.4 L247.714,130.4 L198.9,130.4 C195.1,130.4 192,133.5 192,137.3 C192,141.1 195.1,144.2 198.9,144.2 L259.3,144.2 C265,144.2 269.6,148.8 269.6,154.5 L269.6,180.4 C269.6,186.1 265,190.7 259.3,190.7 L221.2,190.7 C217.4,190.7 214.3,193.8 214.3,197.6 C214.3,201.4 217.4,204.5 221.2,204.5 L245.5,204.5 L245.5,221.8 C245.5,225.6 248.6,228.7 252.4,228.7 C256.2,228.7 259.3,225.6 259.3,221.8 L259.3,204.5 C272.7,204.5 283.5,193.7 283.5,180.5 L283.5,154.6 C282.883,142.398 274.844,132.592 262.565,130.686 L251.5,99.8 C248.9,92.6 241.1,87.1 233.4,87.1 z M144.236,43.386 C147.857,46.105 149.648,47.281 152.753,50.565 C163.39,61.815 168.103,77.357 168.2,92.6 C168.114,96.672 168.017,100.772 167.255,104.786 C149.93,103.909 136.813,88.827 136.5,71.9 L136.489,71.797 C140.871,62.948 143.212,53.164 144.236,43.386 z M111.5,34.3 C118.079,34.455 124.744,34.963 130.994,37.19 C130.278,44.226 130.368,45.987 128.604,52.84 C120.11,85.842 90.801,109.466 57.077,111.994 C55.572,105.646 54.811,99.126 54.8,92.6 C54.8,63.6 72.3,34.3 111.5,34.3 z M125.996,89.048 C132.642,104.751 146.903,116.829 164.268,118.441 C156.709,142.616 139.585,169.598 111.5,170.6 C86.276,169.57 69.383,147.267 61.102,125.44 C86.373,122.304 110.674,109.803 125.996,89.048 z M111.5,20.4 C69.9,20.4 40.9,50.1 40.9,92.6 C40.9,136 71.1,184.5 111.5,184.5 C151.9,184.5 182.1,136 182.1,92.6 C182.1,50.1 153.1,20.4 111.5,20.4 z M252.4,159.5 C247.7,159.5 243.8,163.3 243.8,168.1 C243.8,172.8 247.7,176.7 252.4,176.7 C257.1,176.7 261,172.9 261,168.1 C260.785,163.853 258.223,160.87 254.119,159.673 L252.4,159.5 z" fill="#000000"/>
  </g>
</svg>
