<?xml version="1.0" encoding="UTF-8"?>
<!DOCTYPE svg PUBLIC "-//W3C//DTD SVG 1.1//EN" "http://www.w3.org/Graphics/SVG/1.1/DTD/svg11.dtd">
<svg version="1.1" xmlns="http://www.w3.org/2000/svg" xmlns:xlink="http://www.w3.org/1999/xlink" x="0" y="0" width="283.5" height="283.5" viewBox="0, 0, 283.5, 283.5">
  <g id="Background">
    <rect x="0" y="0" width="283.5" height="283.5" fill="#FFFFFF"/>
  </g>
  <g id="Layer_1">
    <path d="M6.1,135.6 C9.5,135.6 12.2,138.3 12.2,141.7 C12.2,205.8 64.4,258 128.5,258 C174,258 214.8,231.8 233.9,190.9 L211,181.6 C208.7,180.7 207.2,178.5 207.2,176 C207.1,173.5 208.6,171.3 210.9,170.3 L251.5,153.1 C254.6,151.7 258.2,153.2 259.5,156.3 L276.8,196.8 C277.7,199.1 277.2,201.7 275.5,203.5 C274.3,204.7 272.7,205.3 271.1,205.3 C270.3,205.3 269.5,205.2 268.8,204.9 L245.3,195.4 C224.3,241 179,270.2 128.5,270.2 C57.7,270.2 -0,212.6 -0,141.7 C-0,138.3 2.7,135.6 6.1,135.6 z M250.6,166.8 L229.3,175.8 L259.6,188.1 L250.6,166.8 z M128.9,131.7 C130,131.7 131.1,131.9 132.2,132.3 C137.6,134 140.4,139.8 138.6,145.1 C137.2,149.2 133.4,151.9 129,151.9 C127.9,151.9 126.8,151.7 125.7,151.3 C120.4,149.5 117.6,143.7 119.4,138.5 C120.8,134.4 124.6,131.7 128.9,131.7 z M129,121 C120.1,121 112.2,126.6 109.3,135 C105.6,145.8 111.4,157.7 122.2,161.4 C124.4,162.2 126.7,162.5 129,162.5 C137.9,162.5 145.8,156.9 148.7,148.5 C152.4,137.7 146.6,125.9 135.8,122.1 C133.6,121.3 131.3,121 129,121 z M129.1,84.8 C135.4,84.8 141.6,85.8 147.6,87.9 C162,92.8 173.6,103.1 180.3,116.8 C186.9,130.5 187.8,145.9 182.9,160.3 C175,183.3 153.3,198.8 129,198.8 C122.7,198.8 116.5,197.8 110.5,195.7 C80.8,185.5 64.9,153 75.2,123.3 C83.1,100.3 104.8,84.8 129.1,84.8 z M129,64.7 L128.3,74.1 C125.9,74.1 123.6,74.3 121.3,74.6 L119.5,65.3 L109,67.3 L110.8,76.6 C108.5,77.2 106.3,78 104.1,78.8 L99.9,70.3 L90.5,75 L94.7,83.5 C92.7,84.7 90.7,86 88.9,87.4 L82.7,80.2 L74.6,87.2 L80.8,94.4 C79.2,96.1 77.6,97.8 76.2,99.6 L68.3,94.3 L62.3,103.2 L70.2,108.5 C69.1,110.5 68,112.6 67,114.8 L58,111.7 L54.5,121.8 L63.5,124.9 C62.9,127.2 62.4,129.5 62.1,131.8 L52.6,131.1 L51.9,141.8 L61.4,142.5 C61.4,144.8 61.6,147.2 61.8,149.5 L52.5,151.3 L54.5,161.8 L63.8,160 C64.4,162.3 65.2,164.5 66,166.6 L57.4,170.8 L62.1,180.4 L70.7,176.2 C71.9,178.2 73.2,180.2 74.6,182 L67.4,188.2 L74.4,196.3 L81.6,190.1 C83.3,191.7 85,193.3 86.9,194.7 L81.6,202.6 L90.5,208.6 L95.8,200.7 C97.8,201.8 99.9,202.9 102.1,203.8 L99,212.8 L109.1,216.3 L112.2,207.3 C114.5,207.9 116.8,208.3 119.1,208.7 L118.4,218.2 L129.1,218.9 L129.8,209.4 C132.2,209.4 134.5,209.2 136.8,208.9 L138.6,218.2 L149.1,216.2 L147.3,206.9 C149.6,206.3 151.8,205.5 154,204.7 L158.2,213.2 L167.8,208.5 L163.6,200 C165.6,198.8 167.6,197.5 169.4,196.1 L175.6,203.3 L183.7,196.3 L177.5,189.1 C179.1,187.4 180.7,185.7 182.1,183.8 L190,189.1 L196,180.2 L188.1,174.9 C189.2,172.9 190.3,170.8 191.3,168.6 L200.3,171.7 L203.8,161.6 L194.8,158.5 C195.4,156.2 195.9,153.9 196.2,151.6 L205.6,152.3 L206.3,141.6 L196.9,140.9 C196.9,138.6 196.7,136.2 196.5,133.9 L205.8,132.1 L203.8,121.6 L194.5,123.4 C193.9,121.2 193.1,118.9 192.3,116.8 L200.8,112.6 L196.1,103 L187.6,107.2 C186.4,105.2 185.1,103.2 183.7,101.3 L190.8,95.1 L183.5,87.3 L176.4,93.5 C174.7,91.9 173,90.3 171.1,88.8 L176.4,81 L167.5,75 L162.2,82.8 C160.2,81.7 158.1,80.6 155.9,79.7 L159,70.7 L149,67.3 L145.9,76.3 C143.6,75.7 141.3,75.3 139,74.9 L139.7,65.4 L129,64.7 z M241.425,80.264 C240.458,80.328 239.461,80.212 238.523,80.456 C236.065,81.095 234.281,82.882 233.4,85.2 C232.1,89.1 234.1,93.4 238,94.7 C241.9,96 246.2,94 247.5,90.1 C248.9,86.2 246.8,81.9 242.9,80.6 L241.425,80.264 z M240.4,63.5 C243.1,63.5 245.7,63.9 248.3,64.8 C254.4,66.9 259.3,71.3 262.2,77 C265.1,82.7 265.4,89.4 263.3,95.5 C259.9,105.3 250.8,111.8 240.5,111.8 C237.8,111.8 235.2,111.4 232.6,110.5 C220,106.2 213.3,92.4 217.6,79.8 C221,70 230.1,63.5 240.4,63.5 z M237.7,44.6 L227.2,46.6 L228.8,54.8 C226.4,55.7 224.2,56.8 222.1,58.1 L216.6,51.8 L208.5,58.8 L214,65.1 C212.4,67 211,69.1 209.8,71.3 L201.9,68.6 L198.4,78.7 L206.3,81.4 C205.9,83.9 205.7,86.4 205.8,88.9 L197.6,90.5 L199.6,101 L207.8,99.4 C208.7,101.8 209.8,104 211.1,106.1 L204.8,111.6 L211.8,119.7 L218.1,114.2 C220,115.8 222.1,117.2 224.3,118.4 L221.6,126.3 L231.7,129.8 L234.4,122 C236.4,122.4 238.5,122.6 240.5,122.6 C240.9,122.6 241.4,122.6 241.8,122.5 L243.4,130.7 L253.9,128.7 L252.3,120.5 C254.7,119.6 256.9,118.5 259,117.2 L264.5,123.5 L272.6,116.5 L267.1,110.2 C268.7,108.3 270.1,106.2 271.3,104 L279.1,106.7 L282.6,96.6 L274.7,93.9 C275.2,91.3 275.4,88.8 275.3,86.3 L283.5,84.7 L281.5,74.2 L273.4,75.8 C273,74.6 272.5,73.5 271.9,72.3 C271.3,71.2 270.7,70.1 270.1,69 L276.4,63.5 L269.4,55.4 L263,61 C261.1,59.4 259,58 256.8,56.8 L259.5,48.9 L249.4,45.4 L246.7,53.3 C244.7,52.9 242.6,52.7 240.6,52.7 C240.2,52.7 239.7,52.7 239.3,52.8 L237.7,44.6 z M14.6,62.3 L27.7,72.2 L40.7,82.2 L17.7,85.3 L14.6,62.3 z M127.762,13.217 C118.465,13.687 116.12,13.523 106.93,15.116 C77.17,20.275 49.951,35.905 30.4,58.9 L10.4,43.6 C8.4,42.1 5.8,41.9 3.6,43.2 C1.5,44.4 0.3,46.9 0.6,49.3 L6.4,92.9 C6.8,96 9.4,98.2 12.5,98.2 C12.8,98.2 13,98.2 13.3,98.1 L57,92.4 C59.5,92.1 61.5,90.3 62.1,87.9 C62.7,85.5 61.9,83 59.9,81.5 L40.1,66.3 C74.1,26.3 131.6,13.9 179.2,36.9 C182.2,38.4 185.9,37.1 187.4,34.1 C188.9,31.1 187.6,27.4 184.6,25.9 C166.678,17.713 147.57,12.899 127.762,13.217 z" fill="#000000"/>
  </g>
</svg>
