<?xml version="1.0" encoding="UTF-8"?>
<!DOCTYPE svg PUBLIC "-//W3C//DTD SVG 1.1//EN" "http://www.w3.org/Graphics/SVG/1.1/DTD/svg11.dtd">
<svg version="1.1" xmlns="http://www.w3.org/2000/svg" xmlns:xlink="http://www.w3.org/1999/xlink" x="0" y="0" width="283.5" height="283.5" viewBox="0, 0, 283.5, 283.5">
  <g id="Background">
    <rect x="0" y="0" width="283.5" height="283.5" fill="#FFFFFF"/>
  </g>
  <g id="Layer_1">
    <path d="M257.7,60.3 C256.6,58.7 254.7,57.6 252.8,57.5 C250.8,57.3 248.9,58 247.4,59.5 L187.8,119 C186.5,120.3 185.8,122 185.8,123.8 C185.8,125.6 186.5,127.3 187.8,128.6 L194.3,135.1 L148.5,135.1 L148.5,89.2 L155.4,96.1 C158,98.7 162.3,98.7 164.9,96.1 L224.6,36.4 C226,35 226.7,33 226.6,31.1 C226.5,29.2 225.4,27.3 223.8,26.2 C199.6,9 171.3,0 141.7,0 C63.6,0 0,63.6 0,141.7 C0,219.8 63.6,283.4 141.7,283.4 C219.8,283.4 283.4,219.8 283.4,141.7 C283.5,112.4 274.5,84.3 257.7,60.3 z M177.5,148.5 C174.3,165.4 159.5,178.2 141.7,178.2 C121.6,178.2 105.3,161.9 105.3,141.8 C105.3,124 118.1,109.2 135,106 L135,141.8 C135,145.5 138,148.5 141.7,148.5 L177.5,148.5 z M141.7,270 C71,270 13.5,212.4 13.5,141.7 C13.5,71 71,13.5 141.7,13.5 C165.7,13.5 188.9,20.1 209.2,32.7 L160.1,81.8 L146.5,68.2 C144.6,66.3 141.7,65.7 139.1,66.7 C136.6,67.7 134.9,70.2 134.9,72.9 L134.9,92.3 C110.5,95.6 91.7,116.5 91.7,141.7 C91.7,169.2 114.1,191.6 141.6,191.6 C166.8,191.6 187.7,172.8 191,148.4 L210.4,148.4 C213.1,148.4 215.6,146.8 216.6,144.2 C217.6,141.7 217.1,138.8 215.1,136.8 L201.9,123.6 L250.9,74.7 C263.3,94.8 269.8,117.8 269.8,141.6 C270,212.4 212.4,270 141.7,270 z" fill="#000000"/>
  </g>
</svg>
