<?xml version="1.0" encoding="UTF-8"?>
<!DOCTYPE svg PUBLIC "-//W3C//DTD SVG 1.1//EN" "http://www.w3.org/Graphics/SVG/1.1/DTD/svg11.dtd">
<svg version="1.1" xmlns="http://www.w3.org/2000/svg" xmlns:xlink="http://www.w3.org/1999/xlink" x="0" y="0" width="283.5" height="283.5" viewBox="0, 0, 283.5, 283.5">
  <g id="Background">
    <rect x="0" y="0" width="283.5" height="283.5" fill="#FFFFFF"/>
  </g>
  <g id="Layer_1">
    <path d="M233.9,23.8 C237.4,23.8 240.3,26.7 240.3,30.2 L240.3,167.785 L280.9,238.1 C281.7,239.2 282.2,240.5 282.2,241.9 C282.2,245.4 279.3,248.3 275.8,248.3 L6.4,248.3 C4.1,248.3 2,247.1 0.8,245.1 C-0.3,243.1 -0.3,240.7 0.8,238.7 L41.8,167.784 L41.8,30.2 C41.8,26.7 44.7,23.8 48.2,23.8 L233.9,23.8 z M230.2,175.9 L51.9,175.9 L17.5,235.4 L264.6,235.4 L230.2,175.9 z M168.4,207.6 C171.9,207.6 174.8,210.5 174.8,214 C174.9,217.5 172,220.4 168.4,220.4 L113.6,220.4 C110.1,220.4 107.2,217.5 107.2,214 C107.2,210.5 110.1,207.6 113.6,207.6 L168.4,207.6 z M227.5,36.7 L54.6,36.7 L54.6,163.1 L227.5,163.1 L227.5,36.7 z M147.9,57.2 C150.7,57.2 153.2,59.1 154,61.8 L174.089,128.7 L181.5,128.7 C185,128.7 187.9,131.6 187.9,135.1 C187.9,138.7 185,141.5 181.5,141.5 L169.401,141.5 L169.4,141.5 L112.8,141.5 L112.799,141.5 L100.7,141.5 C97.2,141.5 94.3,138.6 94.3,135.1 C94.3,131.6 97.2,128.7 100.7,128.7 L108.049,128.7 L128.1,61.8 C128.9,59.1 131.4,57.2 134.2,57.2 L147.9,57.2 z M154.213,107.1 L127.851,107.1 L121.4,128.7 L160.7,128.7 L154.213,107.1 z M143.1,70.1 L138.9,70.1 L131.673,94.3 L150.368,94.3 L143.1,70.1 z" fill="#000000"/>
  </g>
</svg>
