<?xml version="1.0" encoding="UTF-8"?>
<!DOCTYPE svg PUBLIC "-//W3C//DTD SVG 1.1//EN" "http://www.w3.org/Graphics/SVG/1.1/DTD/svg11.dtd">
<svg version="1.1" xmlns="http://www.w3.org/2000/svg" xmlns:xlink="http://www.w3.org/1999/xlink" x="0" y="0" width="283.5" height="283.5" viewBox="0, 0, 283.5, 283.5">
  <g id="Background">
    <rect x="0" y="0" width="283.5" height="283.5" fill="#FFFFFF"/>
  </g>
  <g id="Layer_1">
    <path d="M222.6,97.3 C211.4,97.3 202.4,106.4 202.4,117.5 C202.4,128.7 211.5,137.7 222.6,137.7 C222.6,137.7 222.6,137.7 222.6,137.7 C233.8,137.7 242.8,128.6 242.8,117.5 C242.9,106.4 233.8,97.3 222.6,97.3 z M222.6,124.3 C218.9,124.3 215.9,121.3 215.9,117.6 C215.9,113.9 218.9,110.9 222.6,110.9 C226.3,110.9 229.3,113.9 229.3,117.6 C229.4,121.3 226.4,124.3 222.6,124.3 z M195.7,270 L249.5,270 L249.5,94.8 L233.5,64.3 C233.5,64.3 233.5,64.3 233.5,64.3 L233.5,64.2 C233.4,64.2 233.4,64.1 233.4,64.1 C233.3,64 233.3,63.9 233.2,63.7 C233.2,63.7 233.1,63.6 233.1,63.5 C233.1,63.4 233,63.2 233,63.1 C233,63 232.9,62.9 232.9,62.8 C232.8,62.7 232.8,62.6 232.8,62.5 C232.7,62.4 232.7,62.2 232.7,62.1 C232.7,62.1 232.7,62 232.7,61.9 C232.7,61.7 232.7,61.6 232.7,61.4 C232.7,61.4 232.7,61.3 232.7,61.3 L232.7,61.2 C232.7,61.2 232.7,61.2 232.7,61.2 L232.7,40.7 L222.6,21.5 L212.5,40.7 L212.5,61.3 C212.5,61.3 212.5,61.3 212.5,61.3 L212.5,61.4 C212.5,61.4 212.5,61.5 212.5,61.5 C212.5,61.7 212.5,61.8 212.5,62 C212.5,62 212.5,62.1 212.5,62.2 C212.4,62.3 212.4,62.5 212.4,62.6 C212.4,62.7 212.3,62.8 212.3,62.9 C212.3,63 212.2,63.1 212.2,63.2 C212.2,63.3 212.1,63.5 212.1,63.6 C212.1,63.6 212,63.7 212,63.8 C211.9,64 211.9,64.2 211.8,64.3 C211.7,64.3 211.7,64.4 211.7,64.4 L211.7,64.5 C211.7,64.5 211.7,64.5 211.7,64.5 L195.7,95 L195.7,270 z M33.8,209.3 L33.8,269.9 L182.1,269.9 L182.1,215.9 L148.4,215.9 C144.7,215.9 141.7,212.9 141.7,209.2 L141.7,189 L114.7,189 L114.7,209.2 C114.7,212.9 111.7,215.9 108,215.9 L67.5,215.9 C63.8,215.9 60.8,212.9 60.8,209.2 L60.8,189 L33.8,189 L33.8,209.3 z M262.4,90.1 C262.9,91.3 263.2,92.5 263.7,93.9 L263.7,276.9 C263.7,280.6 260.7,283.6 257,283.6 L189.6,283.6 L27.7,283.6 C24,283.6 21,280.6 21,276.9 L21,209.5 L21,155.5 C21,151.8 24,148.8 27.7,148.8 C31.4,148.8 34.4,151.8 34.4,155.5 L34.4,175.7 L61.4,175.7 L61.4,155.5 C61.4,151.8 64.4,148.8 68.1,148.8 C71.8,148.8 74.8,151.8 74.8,155.5 L74.8,202.7 L101.8,202.7 L101.8,155.5 C101.8,151.8 104.8,148.8 108.5,148.8 C112.2,148.8 115.2,151.8 115.2,155.5 L115.2,175.7 L142.2,175.7 L142.2,155.5 C142.2,151.8 145.2,148.8 148.9,148.8 C152.6,148.8 155.6,151.8 155.6,155.5 L155.6,202.7 L182.6,202.7 L182.6,93.5 C182.6,93.5 182.6,93.5 182.6,93.5 L182.6,93.4 C182.6,93.4 182.6,93.3 182.6,93.3 C182.6,93.1 182.6,93 182.6,92.8 C182.6,92.8 182.6,92.7 182.6,92.6 C182.7,92.5 182.7,92.3 182.7,92.2 C182.7,92.1 182.8,92 182.8,91.9 C182.8,91.8 182.9,91.7 182.9,91.6 C182.9,91.5 183,91.3 183,91.2 C183,91.2 183.1,91.1 183.1,91 C183.2,90.8 183.2,90.6 183.3,90.5 C183.4,90.5 183.4,90.4 183.4,90.4 L183.4,90.3 C183.4,90.3 183.4,90.3 183.4,90.3 L199.4,59.8 L199.4,39.3 C199.4,39.3 199.4,39.3 199.4,39.3 L199.4,39.2 C199.4,39.2 199.4,39.1 199.4,39.1 C199.4,38.9 199.4,38.8 199.4,38.6 C199.4,38.6 199.4,38.5 199.4,38.4 C199.5,38.3 199.5,38.1 199.5,38 C199.5,37.9 199.6,37.8 199.6,37.7 C199.6,37.6 199.7,37.5 199.7,37.4 C199.7,37.3 199.8,37.1 199.8,37 C199.8,36.9 199.9,36.9 199.9,36.8 C200,36.6 200,36.5 200.1,36.3 C200.2,36.3 200.2,36.2 200.2,36.2 L200.2,36.1 C200.2,36.1 200.2,36.1 200.2,36.1 L217,4.1 C217,4.1 217,4.1 217,4.1 C217.3,3.5 217.7,3 218.2,2.5 C218.3,2.4 218.3,2.4 218.4,2.3 C218.5,2.3 218.6,2.2 218.7,2.1 C218.8,2 219,1.8 219.2,1.7 C219.2,1.6 219.3,1.6 219.3,1.6 C219.5,1.5 219.6,1.4 219.8,1.3 C219.8,1.3 219.8,1.3 219.8,1.3 C219.8,1.3 219.9,1.2 220,1.2 C220.1,1.1 220.2,1 220.3,1 C220.5,1 220.6,0.9 220.7,0.9 C220.7,0.9 220.8,0.8 220.9,0.8 C221,0.8 221.2,0.7 221.3,0.7 C221.4,0.6 221.4,0.6 221.5,0.6 C221.6,0.5 221.8,0.5 221.9,0.5 C221.9,0.5 222,0.5 222.1,0.5 C222.2,0.5 222.4,0.5 222.5,0.5 C222.6,0.5 222.7,0.5 222.8,0.5 C222.9,0.5 223,0.5 223.1,0.5 C223.2,0.5 223.3,0.5 223.4,0.5 C223.5,0.5 223.6,0.5 223.7,0.5 C223.9,0.6 224,0.6 224.1,0.6 C224.2,0.7 224.3,0.7 224.4,0.7 C224.6,0.7 224.7,0.8 224.8,0.8 C224.9,0.8 225,0.9 225.1,0.9 C225.2,0.9 225.3,1 225.4,1 C225.5,1.1 225.7,1.1 225.8,1.2 C225.9,1.2 225.9,1.3 226,1.3 C226,1.3 226,1.3 226,1.3 C226.2,1.4 226.3,1.5 226.5,1.6 C226.6,1.6 226.6,1.6 226.6,1.6 C226.9,1.8 227.3,2.1 227.6,2.4 C227.9,2.7 228.2,3 228.4,3.4 C228.4,3.4 228.4,3.4 228.4,3.4 C228.5,3.5 228.6,3.7 228.7,3.9 C228.7,3.9 228.7,3.9 228.7,3.9 L245.5,35.9 C245.5,35.9 245.5,35.9 245.5,35.9 L245.5,36 C245.6,36 245.6,36.1 245.6,36.1 C245.7,36.3 245.7,36.4 245.8,36.6 C245.8,36.6 245.9,36.7 245.9,36.8 C245.9,36.9 246,37.1 246,37.2 C246,37.3 246.1,37.4 246.1,37.5 C246.2,37.6 246.2,37.7 246.2,37.8 C246.3,37.9 246.3,38.1 246.3,38.2 C246.3,38.2 246.3,38.3 246.3,38.4 C246.3,38.6 246.3,38.7 246.3,38.9 C246.3,38.9 246.3,39 246.3,39 L246.3,39.1 C246.3,39.1 246.3,39.1 246.3,39.1 L246.3,59.5 L262.4,90.1 z" fill="#000000"/>
  </g>
</svg>
