<?xml version="1.0" encoding="UTF-8"?>
<!DOCTYPE svg PUBLIC "-//W3C//DTD SVG 1.1//EN" "http://www.w3.org/Graphics/SVG/1.1/DTD/svg11.dtd">
<svg version="1.1" xmlns="http://www.w3.org/2000/svg" xmlns:xlink="http://www.w3.org/1999/xlink" x="0" y="0" width="283.5" height="283.5" viewBox="0, 0, 283.5, 283.5">
  <g id="Background">
    <rect x="0" y="0" width="283.5" height="283.5" fill="#FFFFFF"/>
  </g>
  <g id="Layer_1">
    <path d="M251.7,17.2 C269.2,17.2 283.5,31.4 283.5,49 L283.5,179.2 C283.5,196.8 269.2,211.1 251.6,211.1 L249.7,211.1 L282.1,255.5 C284.3,258.5 283.6,262.8 280.6,265 C279.4,265.9 278,266.3 276.6,266.3 C274.5,266.3 272.4,265.3 271.1,263.5 L232.9,211.1 L170.7,211.1 L132.5,263.5 C131.2,265.3 129.1,266.3 127,266.3 C125.6,266.3 124.2,265.9 123,265 C120,262.8 119.3,258.5 121.5,255.5 L153.9,211.1 L152,211.1 C134.5,211.1 120.2,196.8 120.2,179.2 L120.2,49 C120.2,31.5 134.4,17.2 152,17.2 L251.7,17.2 z M269.9,127 L133.8,127 L133.8,179.2 C133.8,189.3 141.9,197.5 152,197.5 L251.7,197.5 C261.7,197.5 269.9,189.4 269.9,179.3 L269.9,127 z M164.5,150.2 C170.8,150.2 175.9,155.3 175.8,161.5 C175.8,167.7 170.7,172.8 164.5,172.8 C158.3,172.8 153.2,167.8 153.2,161.5 C153.2,155.3 158.2,150.2 164.5,150.2 z M239.1,150.2 C245.3,150.2 250.4,155.3 250.4,161.5 C250.4,167.7 245.3,172.8 239.1,172.8 C232.9,172.8 227.8,167.8 227.8,161.5 C227.8,155.3 232.8,150.2 239.1,150.2 z M251.6,30.8 L152,30.8 C141.9,30.8 133.8,39 133.8,49 L133.8,113.3 L269.8,113.3 L269.8,49 C269.8,39 261.7,30.8 251.6,30.8 z M106.6,17.2 L23.1,17.2 C10.4,17.2 -0,27.5 -0,40.3 L-0,188 C-0,200.1 9.3,210 21.1,211 L21.1,227.5 C21.1,231.3 24.1,234.3 27.9,234.3 C31.7,234.3 34.7,231.3 34.7,227.5 L34.7,211.1 L106.6,211.1 C110.4,211.1 113.4,208.1 113.4,204.3 C113.4,200.5 110.4,197.5 106.6,197.5 L23.1,197.5 C17.8,197.5 13.6,193.2 13.6,188 L13.6,136.4 L99.6,136.4 C103.4,136.4 106.4,133.4 106.4,129.6 C106.4,125.8 103.4,122.8 99.6,122.8 L13.6,122.8 L13.6,66 L99.6,66 C103.4,66 106.4,63 106.4,59.2 C106.4,55.4 103.4,52.4 99.6,52.4 L13.6,52.4 L13.6,40.3 C13.6,35.1 17.9,30.8 23.1,30.8 L106.6,30.8 C110.4,30.8 113.4,27.8 113.4,24 C113.4,20.2 110.4,17.2 106.6,17.2 z M44.3,159.7 C38.1,159.7 33,164.7 33,171 C33,177.3 38.1,182.3 44.3,182.3 C50.5,182.3 55.6,177.2 55.6,171 C55.6,164.7 50.5,159.7 44.3,159.7 z" fill="#010202"/>
  </g>
</svg>
