<?xml version="1.0" encoding="UTF-8"?>
<!DOCTYPE svg PUBLIC "-//W3C//DTD SVG 1.1//EN" "http://www.w3.org/Graphics/SVG/1.1/DTD/svg11.dtd">
<svg version="1.1" xmlns="http://www.w3.org/2000/svg" xmlns:xlink="http://www.w3.org/1999/xlink" x="0" y="0" width="283.5" height="283.5" viewBox="0, 0, 283.5, 283.5">
  <g id="Background">
    <rect x="0" y="0" width="283.5" height="283.5" fill="#FFFFFF"/>
  </g>
  <g id="Layer_1">
    <path d="M250.5,9.5 C268.7,9.5 283.5,24.3 283.5,42.5 L283.5,181.8 C283.5,200 268.7,214.8 250.5,214.8 L246.3,214.8 L282.2,264 C284.3,266.7 283.7,270.6 280.9,272.6 C279.8,273.4 278.6,273.8 277.3,273.8 C275.4,273.8 273.5,273 272.3,271.3 L231,214.8 L171.4,214.8 L130.1,271.3 C128.9,272.9 127,273.8 125.1,273.8 C123.9,273.8 122.6,273.4 121.5,272.6 C118.8,270.6 118.2,266.8 120.2,264 L156.1,214.8 L151.9,214.8 C133.7,214.8 118.9,200 118.9,181.8 L118.9,42.5 C118.9,24.3 133.7,9.5 151.9,9.5 L250.5,9.5 z M271.1,124.9 L131.3,124.9 L131.3,181.9 C131.3,193.2 140.5,202.5 151.9,202.5 L250.5,202.5 C261.9,202.5 271.1,193.2 271.1,181.9 L271.1,124.9 z M163.6,147.1 C169.8,147.1 174.9,152.2 174.9,158.4 C174.9,164.6 169.9,169.7 163.6,169.7 C157.4,169.7 152.3,164.7 152.3,158.4 C152.3,152.2 157.3,147.1 163.6,147.1 z M240.7,147.1 C246.9,147.1 252,152.2 252,158.4 C252,164.6 247,169.7 240.7,169.7 C234.5,169.7 229.4,164.7 229.4,158.4 C229.4,152.2 234.4,147.1 240.7,147.1 z M250.5,21.9 L151.9,21.9 C140.5,21.9 131.3,31.2 131.3,42.5 L131.3,112.5 L271.1,112.5 L271.1,42.5 C271.1,31.1 261.9,21.9 250.5,21.9 z M96.4,56.9 L61.6,56.9 C53,57 43.9,63.4 41,71.6 L26.4,112.6 C11.7,113.6 0,125.9 0,140.8 L0,174.1 C0,189.7 12.7,202.5 28.4,202.5 L36.7,202.5 L36.7,227.4 C36.7,230.8 39.5,233.6 42.9,233.6 C46.3,233.6 49.1,230.8 49.1,227.4 L49.1,202.5 L96.5,202.5 C99.9,202.5 102.7,199.7 102.7,196.3 C102.7,192.9 99.9,190.1 96.5,190.1 L28.4,190.1 C19.6,190.1 12.4,182.9 12.4,174.1 L12.4,140.8 C12.4,132 19.6,124.8 28.4,124.8 L96.5,124.8 C99.9,124.8 102.7,122 102.7,118.6 C102.7,115.2 99.9,112.4 96.5,112.4 L39.5,112.4 L52.6,75.6 C53.8,72.4 58.2,69.3 61.6,69.3 L96.4,69.3 C99.8,69.3 102.6,66.5 102.6,63.1 C102.6,59.7 99.8,56.9 96.4,56.9 z M42.9,147.1 C36.6,147.1 31.6,152.2 31.6,158.4 C31.6,164.7 36.7,169.7 42.9,169.7 C49.2,169.7 54.2,164.6 54.2,158.4 C54.2,152.2 49.1,147.1 42.9,147.1 z" fill="#010202"/>
  </g>
</svg>
