<?xml version="1.0" encoding="UTF-8"?>
<!DOCTYPE svg PUBLIC "-//W3C//DTD SVG 1.1//EN" "http://www.w3.org/Graphics/SVG/1.1/DTD/svg11.dtd">
<svg version="1.1" xmlns="http://www.w3.org/2000/svg" xmlns:xlink="http://www.w3.org/1999/xlink" x="0" y="0" width="283.5" height="283.5" viewBox="0, 0, 283.5, 283.5">
  <g id="Background">
    <rect x="0" y="0" width="283.5" height="283.5" fill="#FFFFFF"/>
  </g>
  <g id="Layer_1">
    <path d="M198.9,0 C218.4,0 234.3,15.9 234.3,35.4 L234.3,184.7 C234.3,204.3 218.4,220.2 199.1,220.2 L194.9,220.2 L233.2,272.8 C235.4,275.8 234.7,280 231.7,282.2 C230.5,283.1 229.1,283.5 227.7,283.5 C225.6,283.5 223.5,282.5 222.2,280.7 L178,220.2 L105.6,220.2 L61.4,280.7 C60,282.5 58,283.5 55.9,283.5 C54.5,283.5 53.1,283.1 51.9,282.2 C48.9,280 48.2,275.8 50.4,272.8 L88.8,220.2 L84.6,220.2 C65.1,220.2 49.2,204.3 49.2,184.7 L49.2,35.4 C49.2,15.9 65.1,0 84.6,0 L198.9,0 z M220.8,123.7 L62.7,123.7 L62.7,184.7 C62.7,196.8 72.5,206.7 84.6,206.7 L198.9,206.7 C211,206.7 220.8,196.8 220.8,184.7 L220.8,123.7 z M99,151.8 C105.9,151.8 111.6,157.5 111.6,164.4 C111.6,171.3 105.9,177 99,177 C92.1,177 86.4,171.3 86.4,164.4 C86.4,157.5 92.1,151.8 99,151.8 z M184.5,151.8 C191.4,151.8 197.1,157.5 197.1,164.4 C197.1,171.3 191.4,177 184.5,177 C177.6,177 171.9,171.3 171.9,164.4 C171.9,157.5 177.6,151.8 184.5,151.8 z M198.8,13.5 L84.6,13.5 C72.5,13.5 62.7,23.3 62.7,35.4 L62.7,110.3 L220.7,110.3 L220.7,35.5 C220.7,23.3 210.9,13.5 198.8,13.5 z" fill="#010202"/>
  </g>
</svg>
