<?xml version="1.0" encoding="UTF-8"?>
<!DOCTYPE svg PUBLIC "-//W3C//DTD SVG 1.1//EN" "http://www.w3.org/Graphics/SVG/1.1/DTD/svg11.dtd">
<svg version="1.1" xmlns="http://www.w3.org/2000/svg" xmlns:xlink="http://www.w3.org/1999/xlink" x="0" y="0" width="283.5" height="283.5" viewBox="0, 0, 283.5, 283.5">
  <g id="Background">
    <rect x="0" y="0" width="283.5" height="283.5" fill="#FFFFFF"/>
  </g>
  <g id="Layer_1">
    <path d="M114.9,0.6 C178.4,0.6 229.9,52.1 229.9,115.6 C229.9,144.9 219,171.6 201,191.9 L280.8,271.7 C283.5,274.4 283.5,278.7 280.8,281.5 C279.4,282.8 277.7,283.5 275.9,283.5 C274.1,283.5 272.3,282.8 271,281.5 L191.2,201.7 C171,219.7 144.3,230.6 115,230.6 C51.5,230.6 0,179.1 0,115.6 C0,52.1 51.5,0.6 114.9,0.6 z M115,14.4 C59.2,14.4 13.8,59.8 13.8,115.6 C13.8,171.4 59.2,216.8 115,216.8 C142,216.8 167.4,206.2 186.6,187.1 C205.7,168 216.2,142.6 216.2,115.6 C216.2,59.8 170.8,14.4 115,14.4 z M115.1,71.6 C126.8,71.6 137.8,76.2 146.1,84.5 C148.8,87.2 148.8,91.6 146.1,94.3 C143.4,97 139,97 136.3,94.3 C130.6,88.6 123,85.5 115,85.5 C106.9,85.5 99.4,88.6 93.7,94.1 C89.7,98.1 87,103.1 85.7,108.5 L116.5,108.5 C120.3,108.5 123.4,111.6 123.4,115.4 C123.4,119.2 120.3,122.3 116.5,122.3 L85.7,122.3 C86.9,127.7 89.7,132.7 93.7,136.7 C105.5,148.4 124.6,148.4 136.3,136.7 C139,134 143.4,134 146.1,136.7 C148.8,139.4 148.8,143.8 146.1,146.5 C137.8,154.8 126.8,159.4 115.1,159.4 C103.4,159.4 92.4,154.8 84.1,146.5 C77.5,139.9 73.2,131.5 71.8,122.4 L65.8,122.4 C62,122.4 58.9,119.3 58.9,115.5 C58.9,111.7 62,108.6 65.8,108.6 L71.8,108.6 C73.2,99.5 77.5,91.1 84.1,84.5 C92.4,76.2 103.4,71.6 115.1,71.6 z" fill="#000000"/>
  </g>
</svg>
