<?xml version="1.0" encoding="UTF-8"?>
<!DOCTYPE svg PUBLIC "-//W3C//DTD SVG 1.1//EN" "http://www.w3.org/Graphics/SVG/1.1/DTD/svg11.dtd">
<svg version="1.1" xmlns="http://www.w3.org/2000/svg" xmlns:xlink="http://www.w3.org/1999/xlink" x="0" y="0" width="283.5" height="283.5" viewBox="0, 0, 283.5, 283.5">
  <g id="Background">
    <rect x="0" y="0" width="283.5" height="283.5" fill="#FFFFFF"/>
  </g>
  <g id="Layer_1">
    <path d="M225.1,276.5 C223.7,276.5 222.3,276.1 221.1,275.2 L141.7,217.5 L62.3,275.2 C59.9,276.9 56.7,276.9 54.4,275.2 C52,273.5 51,270.4 51.9,267.7 L82.2,174.3 L2.8,116.5 C0.4,114.8 -0.6,111.7 0.3,109 C1.2,106.2 3.8,104.3 6.7,104.3 L105,104.3 L135.4,10.9 C136.3,8.1 138.9,6.2 141.8,6.2 C144.7,6.2 147.3,8.1 148.2,10.9 L178.6,104.3 L276.8,104.3 C279.7,104.3 282.3,106.2 283.2,109 C284.1,111.8 283.1,114.8 280.7,116.5 L201.3,174.2 L231.6,267.6 C232.5,270.4 231.5,273.4 229.1,275.1 C227.9,276.1 226.5,276.5 225.1,276.5 z M141.7,202.4 C143.1,202.4 144.5,202.8 145.7,203.7 L212.3,252.1 L186.9,173.8 C186,171 187,168 189.4,166.3 L256,117.9 L173.7,117.9 C170.8,117.9 168.2,116 167.3,113.2 L141.8,34.9 L116.3,113.2 C115.4,116 112.8,117.9 109.9,117.9 L27.5,117.9 L94.1,166.3 C96.5,168 97.5,171.1 96.6,173.8 L71.2,252.1 L137.8,203.7 C138.9,202.8 140.3,202.4 141.7,202.4 z" fill="#010202"/>
  </g>
</svg>
