<?xml version="1.0" encoding="UTF-8"?>
<!DOCTYPE svg PUBLIC "-//W3C//DTD SVG 1.1//EN" "http://www.w3.org/Graphics/SVG/1.1/DTD/svg11.dtd">
<svg version="1.1" xmlns="http://www.w3.org/2000/svg" xmlns:xlink="http://www.w3.org/1999/xlink" x="0" y="0" width="283.5" height="283.5" viewBox="0, 0, 283.5, 283.5">
  <g id="Background">
    <rect x="0" y="0" width="283.5" height="283.5" fill="#FFFFFF"/>
  </g>
  <g id="Layer_1">
    <path d="M87.212,70.15 L88.7,70.3 C89.3,70.4 89.9,70.6 90.4,70.9 C107.1,79.6 113.7,100.3 105,117.1 C104.9,117.2 104.8,117.4 104.7,117.6 L90.5,145.4 L128.4,145.4 C139.9,145.4 149.3,154.8 149.3,166.3 C149.3,170 148.3,173.4 146.7,176.4 C153.3,179.9 157.8,186.8 158,194.9 C158,202.9 153.4,209.9 146.8,213.4 C148.5,216.4 149.4,219.9 149.4,223.5 C149.4,232.4 143.8,240 135.9,243 C137.2,245.7 137.9,248.8 137.9,252 C137.9,263.5 128.5,272.9 117,272.9 L67,272.9 C66.5,272.9 66.1,272.9 65.7,272.8 C29.1,270.6 0,240.2 0,203.1 C0,187.6 4.8,173.1 13.8,161.2 L81.9,72.8 C82.3,72.3 82.7,71.9 83.2,71.5 C84,70.9 84.9,70.5 85.8,70.3 L87.212,70.15 z M117,244.4 L91.3,244.4 C87,244.4 83.6,247.8 83.6,252 C83.6,256.2 87.1,259.6 91.3,259.6 L117,259.6 C121.2,259.6 124.6,256.2 124.6,252 C124.6,247.8 121.2,244.4 117,244.4 z M88.8,85.7 L24.5,169.3 C17.2,178.8 13.3,190.5 13.3,203.1 C13.3,234.2 38.6,259.6 69.8,259.6 L71.8,259.6 C70.9,257.2 70.4,254.7 70.5,251.9 C70.5,247.8 71.8,243.9 73.9,240.6 C68.4,236.8 64.8,230.5 64.8,223.4 C64.8,219.3 66.1,215.4 68.2,212.1 C62.7,208.4 59.1,202 59.1,194.9 C59.1,186.9 63.6,179.9 70.2,176.4 C68.5,173.4 67.6,169.9 67.6,166.3 C67.6,163 68.3,159.9 69.7,157.1 L69.8,156.9 L93.3,111 C93.4,110.8 93.5,110.7 93.6,110.5 C97.7,101.9 95.6,91.9 88.8,85.7 z M128.4,215.9 L85.6,215.9 C81.3,215.9 77.9,219.3 77.9,223.5 C77.9,227.7 81.4,231.1 85.6,231.1 L128.4,231.1 C132.6,231.1 136,227.6 136,223.6 C136,219.3 132.6,215.9 128.4,215.9 z M136.9,187.2 L79.8,187.2 C75.6,187.2 72.2,190.6 72.2,194.8 C72.2,199.1 75.6,202.5 79.8,202.5 L136.9,202.5 C141.2,202.5 144.6,199.1 144.5,194.9 C144.5,190.6 141.1,187.2 136.9,187.2 z M128.4,158.7 L88.5,158.8 C85.5,158.8 83,160.5 81.7,162.9 L81.6,163 C81.1,164 80.8,165.2 80.8,166.4 C80.8,170.6 84.2,174 88.4,174 L128.4,174 C132.6,174 136,170.6 136,166.4 C136,162.1 132.6,158.7 128.4,158.7 z M235.7,23.8 C237.4,23.8 239.9,25.5 240.5,27.2 L249.3,51.8 L166.3,51.8 L175,27.2 C175.6,25.6 178,23.8 179.8,23.8 L235.7,23.8 z M253.8,77.9 C248.3,77.9 243.8,82.4 243.8,87.9 C243.8,93.4 248.3,97.9 253.8,97.9 C259.3,97.9 263.8,93.4 263.8,87.9 C263.8,82.4 259.3,77.9 253.8,77.9 z M165,77.9 C159.5,77.9 155,82.4 155,87.9 C155,93.4 159.5,97.9 165,97.9 C170.5,97.9 175,93.4 175,87.9 C175,82.4 170.5,77.9 165,77.9 z M260.4,65.1 C265.8,65.1 270.2,69.5 270.2,74.9 L270.2,99.6 C270.2,105 265.8,109.4 260.4,109.4 L155.1,109.4 C149.7,109.4 145.3,105 145.3,99.6 L145.3,74.9 C145.3,69.5 149.7,65.1 155.1,65.1 L260.4,65.1 z M235.7,10.6 L179.8,10.6 C172.4,10.6 165,15.8 162.6,22.8 L152.1,52 C140.8,53.4 132,63.2 132,74.9 L132,99.6 C132,112.3 142.4,122.7 155.1,122.7 L158.4,122.7 L158.4,139.1 C158.4,142.8 161.4,145.7 165,145.7 C168.6,145.7 171.6,142.7 171.6,139.1 L171.6,122.7 L247.2,122.7 L247.2,139.1 C247.2,142.8 250.2,145.7 253.8,145.7 C257.4,145.7 260.4,142.7 260.4,139.1 L260.4,122.7 C273.1,122.7 283.5,112.3 283.5,99.6 L283.5,74.9 C283.5,63.2 274.7,53.4 263.3,52 L252.9,22.8 C250.4,15.9 243,10.6 235.7,10.6 z" fill="#010202"/>
  </g>
</svg>
