<?xml version="1.0" encoding="UTF-8"?>
<!DOCTYPE svg PUBLIC "-//W3C//DTD SVG 1.1//EN" "http://www.w3.org/Graphics/SVG/1.1/DTD/svg11.dtd">
<svg version="1.1" xmlns="http://www.w3.org/2000/svg" xmlns:xlink="http://www.w3.org/1999/xlink" x="0" y="0" width="283.5" height="283.5" viewBox="0, 0, 283.5, 283.5">
  <g id="Background">
    <rect x="0" y="0" width="283.5" height="283.5" fill="#FFFFFF"/>
  </g>
  <g id="Layer_1">
    <path d="M235,29 C238.5,29 241.4,31.8 241.4,35.4 L241.4,173.6 L282.2,244.2 C283,245.2 283.5,246.6 283.5,248 C283.5,251.5 280.7,254.4 277.1,254.4 L6.5,254.4 C4.2,254.4 2.1,253.2 0.9,251.2 C-0.3,249.2 -0.3,246.8 0.9,244.8 L42,173.6 L42,35.4 C42,31.9 44.8,29 48.4,29 L235,29 z M231.3,181.8 L52.2,181.8 L17.6,241.6 L265.9,241.6 L231.3,181.8 z M169.2,213.6 C172.8,213.6 175.7,216.5 175.6,220 C175.6,223.5 172.8,226.4 169.2,226.4 L114.2,226.4 C110.7,226.4 107.8,223.6 107.8,220 C107.8,216.5 110.6,213.6 114.2,213.6 L169.2,213.6 z M228.5,41.9 L54.9,41.9 L54.9,168.9 L228.5,168.9 L228.5,41.9 z M117.895,53.629 C119.561,53.735 120.869,54.442 122.1,55.5 L177.2,110.6 C178.8,112.1 179.4,114.3 179,116.4 C178.5,118.5 177.1,120.3 175.1,121.1 L153.6,130 L161.8,149.9 C163.1,153.2 161.6,156.9 158.3,158.3 C157.5,158.6 156.6,158.8 155.8,158.8 C153.2,158.8 150.8,157.3 149.8,154.8 L141.6,134.9 L120.1,143.8 C119.3,144.1 118.4,144.3 117.6,144.3 C116.3,144.3 115.1,143.9 114,143.2 C112.2,142 111.1,140 111.1,137.8 L111.1,60.1 C111.1,57.4 112.7,55.1 115.1,54.1 C116.613,53.603 115.696,53.828 117.895,53.629 z M124,75.6 L124,128.1 L161.1,112.7 L124,75.6 z" fill="#000000"/>
  </g>
</svg>
