<?xml version="1.0" encoding="UTF-8"?>
<!DOCTYPE svg PUBLIC "-//W3C//DTD SVG 1.1//EN" "http://www.w3.org/Graphics/SVG/1.1/DTD/svg11.dtd">
<svg version="1.1" xmlns="http://www.w3.org/2000/svg" xmlns:xlink="http://www.w3.org/1999/xlink" x="0" y="0" width="283.5" height="283.5" viewBox="0, 0, 283.5, 283.5">
  <g id="Background">
    <rect x="0" y="0" width="283.5" height="283.5" fill="#FFFFFF"/>
  </g>
  <g id="Layer_1">
    <path d="M248.7,3.6 C252.3,3.6 255.2,6.5 255.2,10.1 C255.2,61.8 220.4,105.4 173.1,119.1 C176.1,120.8 178.9,122.7 181.5,124.8 L220,124.8 C223.6,124.8 226.5,127.7 226.5,131.3 C226.5,134.9 223.6,137.8 220,137.8 L193.5,137.8 C200.4,147.9 204.5,160.1 204.5,173.2 C204.5,177 204.2,180.7 203.5,184.4 C203.4,184.4 203.4,184.4 203.4,184.5 L203.4,184.6 L191.1,240.2 C191.1,240.3 191.1,240.3 191.1,240.3 C186.1,263.2 165.3,279.9 141.8,279.9 C118.3,279.9 97.6,263.2 92.5,240.3 L80.2,184.6 C80.2,184.6 80.2,184.5 80.2,184.5 C80.1,184.5 80.1,184.5 80.1,184.4 C79.4,180.7 79.1,176.9 79.1,173.2 C79.1,160.1 83.2,147.9 90.1,137.8 L64.1,137.8 C60.5,137.8 57.6,134.9 57.6,131.3 C57.6,127.7 60.5,124.8 64.1,124.8 L102,124.8 C104.6,122.7 107.5,120.8 110.4,119.1 C63.1,105.4 28.3,61.8 28.3,10.1 C28.3,6.5 31.2,3.6 34.8,3.6 C38.4,3.6 41.3,6.5 41.3,10.1 C41.3,20.6 42.9,30.7 45.9,40.2 C61.2,38.6 73.2,25.8 73.2,10.1 C73.2,6.5 76.1,3.6 79.7,3.6 C83.3,3.6 86.2,6.5 86.2,10.1 C86.2,31.2 71,48.9 50.9,52.7 C55.3,62 61,70.4 67.7,78 L67.8,78 C75.7,79.7 83.9,78.3 90.7,73.9 C97.5,69.5 102.3,62.7 104,54.8 C104.8,51.2 108.3,49 111.8,49.8 C115.4,50.6 117.6,54.1 116.8,57.6 C114.3,69 107.6,78.6 97.8,84.9 C93,88 87.7,90 82.2,91 C98.9,103.3 119.4,110.7 141.7,110.7 C163.9,110.7 184.4,103.3 201.1,91 C184.4,87.9 170.4,75.2 166.5,57.6 C165.8,54 168,50.6 171.5,49.8 C175.1,49.1 178.5,51.3 179.3,54.8 C182.9,71.2 199.2,81.6 215.6,78 L215.7,78 C222.5,70.5 228.2,62 232.6,52.8 C212.5,48.9 197.3,31.3 197.3,10.1 C197.3,6.5 200.2,3.6 203.8,3.6 C207.4,3.6 210.3,6.5 210.3,10.1 C210.3,25.8 222.3,38.6 237.6,40.2 C240.6,30.7 242.2,20.6 242.2,10.1 C242.2,6.5 245.1,3.6 248.7,3.6 z M141.7,123.5 C114.3,123.5 92,145.8 92,173.2 C92,176.1 92.3,179 92.8,181.9 L105.1,237.5 C108.9,254.6 124.2,266.9 141.7,266.9 C159.2,266.9 174.6,254.6 178.3,237.6 L178.3,237.5 L190.6,181.9 C191.1,179.1 191.4,176.1 191.4,173.2 C191.4,145.8 169.1,123.5 141.7,123.5 z M140.3,221.4 C151.4,221.4 160.4,230.4 160.3,241.4 C160.3,252.4 151.3,261.4 140.3,261.4 C129.3,261.4 120.3,252.5 120.3,241.4 C120.3,230.4 129.3,221.4 140.3,221.4 z M140.3,234.5 C136.4,234.5 133.3,237.6 133.3,241.5 C133.3,245.4 136.4,248.5 140.3,248.5 C144.2,248.5 147.3,245.3 147.3,241.5 C147.3,237.6 144.2,234.5 140.3,234.5 z M163.334,163.587 C166.663,164.833 165.381,164.031 167.4,165.6 C168.9,167.1 169.7,169.1 169.7,171.2 C169.7,173.2 168.9,175.2 167.4,176.7 C165.9,178.2 163.9,179 161.8,179 C159.7,179 157.7,178.2 156.3,176.7 C154.8,175.3 154,173.3 154,171.2 C154,169.1 154.8,167.1 156.3,165.6 C158.848,163.376 160.19,163.605 163.334,163.587 z M120.41,163.561 C123.686,164.832 122.432,164.021 124.4,165.6 C125.9,167.1 126.7,169.1 126.7,171.2 C126.7,173.2 125.8,175.2 124.5,176.7 C123,178.2 121,179 119,179 C116.9,179 114.9,178.2 113.4,176.7 C111.9,175.2 111.1,173.2 111.1,171.2 C111.1,169.1 111.9,167.1 113.4,165.6 C115.939,163.319 117.247,163.561 120.41,163.561 z" fill="#010202"/>
  </g>
</svg>
