<?xml version="1.0" encoding="UTF-8"?>
<!DOCTYPE svg PUBLIC "-//W3C//DTD SVG 1.1//EN" "http://www.w3.org/Graphics/SVG/1.1/DTD/svg11.dtd">
<svg version="1.1" xmlns="http://www.w3.org/2000/svg" xmlns:xlink="http://www.w3.org/1999/xlink" x="0" y="0" width="283.5" height="283.5" viewBox="0, 0, 283.5, 283.5">
  <g id="Background">
    <rect x="0" y="0" width="283.5" height="283.5" fill="#FFFFFF"/>
  </g>
  <g id="Layer_1">
    <path d="M141.7,0.3 C219.7,0.3 283.1,63.8 283.1,141.7 C283.1,219.6 219.7,283.2 141.7,283.2 C63.7,283.2 0.3,219.7 0.3,141.8 C0.3,63.9 63.7,0.3 141.7,0.3 z M141.7,13.8 C71.1,13.8 13.7,71.2 13.7,141.8 C13.7,212.4 71.1,269.8 141.7,269.8 C212.3,269.8 269.7,212.4 269.7,141.8 C269.7,71.2 212.3,13.8 141.7,13.8 z M203.4,135.1 C207.1,135.1 210.1,138.1 210.1,141.8 C210,145.5 207,148.5 203.3,148.5 L80.2,148.5 C76.5,148.5 73.5,145.5 73.5,141.8 C73.5,138.1 76.5,135.1 80.2,135.1 L203.4,135.1 z" fill="#010202"/>
  </g>
</svg>
