<?xml version="1.0" encoding="UTF-8"?>
<!DOCTYPE svg PUBLIC "-//W3C//DTD SVG 1.1//EN" "http://www.w3.org/Graphics/SVG/1.1/DTD/svg11.dtd">
<svg version="1.1" xmlns="http://www.w3.org/2000/svg" xmlns:xlink="http://www.w3.org/1999/xlink" x="0" y="0" width="283.5" height="283.5" viewBox="0, 0, 283.5, 283.5">
  <g id="Background">
    <rect x="0" y="0" width="283.5" height="283.5" fill="#FFFFFF"/>
  </g>
  <g id="Layer_1">
    <path d="M145.4,79.9 C149.3,79.9 152.5,76.7 152.5,72.8 C152.5,68.9 149.3,65.7 145.4,65.7 C141.5,65.7 138.3,68.9 138.3,72.8 C138.2,76.7 141.4,79.9 145.4,79.9 z M271.3,33.6 L153.3,33.7 L112.7,74.3 L153.3,114.9 L271.3,114.9 L271.3,33.6 z M281.7,23.2 C282.8,24.4 283.5,25.9 283.4,27.5 L283.4,120.9 C283.4,122.5 282.8,124 281.6,125.2 C280.5,126.4 278.9,127 277.3,127 L150.7,127 C149.1,127 147.6,126.3 146.4,125.2 L99.7,78.5 C98.6,77.4 97.9,75.8 97.9,74.2 C97.9,72.6 98.6,71 99.7,69.9 L146.5,23.2 C147.7,22 149.2,21.4 150.8,21.4 L277.4,21.4 C279,21.4 280.5,22.1 281.7,23.2 z M192.1,81.1 C189.8,81 188,79.2 187.8,77 C187.9,74.7 189.7,72.8 192,72.8 L195.7,72.8 C196.5,67.5 198.9,62.4 203,58.3 C213.3,48 230,48 240.3,58.3 C241.9,60 241.9,62.6 240.3,64.2 C238.6,65.8 236,65.8 234.4,64.2 C227.3,57.1 215.9,57.1 208.8,64.2 C206.4,66.6 204.8,69.6 204.1,72.8 L222.6,72.8 C224.9,72.8 226.7,74.6 226.7,76.9 C226.7,79.3 224.8,81.1 222.5,81.1 L204.1,81.1 C204.9,84.2 206.4,87.2 208.9,89.7 C216,96.8 227.4,96.8 234.5,89.7 C236.1,88.1 238.8,88.1 240.4,89.7 C242,91.4 242,94 240.4,95.6 C235.2,100.7 228.4,103.3 221.7,103.3 C215,103.3 208.3,100.7 203.1,95.6 C199,91.5 196.6,86.4 195.8,81.1 L192.1,81.1 z M237.6,211.6 L237.6,172 C237.6,161.1 228.7,152.2 217.8,152.2 L33,152.2 C22.1,152.2 13.2,161.1 13.2,172 L13.2,211.6 C13.2,222.5 22.1,231.4 33,231.4 L217.8,231.4 C228.7,231.4 237.6,222.5 237.6,211.6 z M217.8,139 C236,139 250.8,153.8 250.8,172 L250.8,211.6 C250.8,229.8 236,244.6 217.8,244.6 L213.8,244.6 L213.8,275 C213.8,278.6 210.8,281.6 207.2,281.6 C203.6,281.6 200.6,278.6 200.6,275 L200.6,244.6 L55.4,244.6 L55.4,275 C55.4,278.6 52.4,281.6 48.8,281.6 C45.2,281.6 42.2,278.6 42.2,275 L42.2,244.6 L33,244.6 C14.8,244.6 -0,229.8 -0,211.6 L-0,172 C-0,154.3 14,139.8 31.6,139.1 L49.6,85 C49.7,84.7 49.9,84.4 50,84.1 C50.3,83.4 58.6,67.4 75,67.4 L80.6,67.4 C84.3,67.4 87.2,70.4 87.2,74 C87.2,77.6 84.3,80.6 80.6,80.6 L75,80.6 C67.7,80.6 62.9,88 61.9,89.7 L45.5,139 L217.8,139 z M48.9,199.5 C52.5,199.5 55.5,196.5 55.5,192.9 C55.5,189.3 52.5,186.3 48.9,186.3 C45.3,186.3 42.3,189.2 42.3,192.9 C42.3,196.6 45.3,199.5 48.9,199.5 z M48.9,173.1 C59.8,173.1 68.6,182 68.7,192.9 C68.7,203.8 59.8,212.7 48.9,212.7 C38,212.7 29.1,203.8 29.1,192.9 C29.1,182 38,173.1 48.9,173.1 z M207.3,199.5 C210.9,199.5 213.9,196.5 213.9,192.9 C213.9,189.3 210.9,186.3 207.3,186.3 C203.7,186.3 200.7,189.2 200.7,192.9 C200.7,196.6 203.7,199.5 207.3,199.5 z M207.3,173.1 C218.2,173.1 227.1,182 227.1,192.9 C227.1,203.8 218.2,212.7 207.3,212.7 C196.4,212.7 187.5,203.8 187.5,192.9 C187.5,182 196.4,173.1 207.3,173.1 z" fill="#000000"/>
  </g>
</svg>
