<?xml version="1.0" encoding="UTF-8"?>
<!DOCTYPE svg PUBLIC "-//W3C//DTD SVG 1.1//EN" "http://www.w3.org/Graphics/SVG/1.1/DTD/svg11.dtd">
<svg version="1.1" xmlns="http://www.w3.org/2000/svg" xmlns:xlink="http://www.w3.org/1999/xlink" x="0" y="0" width="283.5" height="283.5" viewBox="0, 0, 283.5, 283.5">
  <g id="Background">
    <rect x="0" y="0" width="283.5" height="283.5" fill="#FFFFFF"/>
  </g>
  <g id="Layer_1">
    <path d="M216.2,142.8 L45.2,142.8 L60.9,96.2 C60.9,96.1 64.5,84.8 74.5,84.8 L80,84.8 L144.4,84.8 C148,84.8 150.9,81.9 150.9,78.2 C150.9,74.6 148,71.7 144.4,71.7 L79.9,71.7 L74.4,71.7 C54.9,71.7 48.6,91.5 48.3,92.2 L31.3,142.9 C13.9,143.7 0,158 0,175.6 L0,214.9 C0,233 14.7,247.7 32.8,247.7 L42,247.7 L42,277.8 C42,281.4 44.9,284.4 48.6,284.4 C52.3,284.4 55.1,281.4 55.1,277.8 L55.1,247.7 L199.2,247.7 L199.2,277.8 C199.2,281.4 202.1,284.4 205.8,284.4 C209.4,284.4 212.3,281.4 212.3,277.8 L212.3,247.7 L216.2,247.7 C234.3,247.7 249,233 249,214.9 L249,175.6 C248.9,157.5 234.3,142.8 216.2,142.8 z M235.8,214.9 C235.8,225.7 227,234.5 216.1,234.5 L32.8,234.5 C22,234.5 13.1,225.7 13.1,214.9 L13.1,175.6 C13.1,164.8 21.9,156 32.8,156 L216.2,156 C227,156 235.9,164.8 235.9,175.6 L235.9,214.9 z M48.5,202.9 C52.1,202.9 55,200 55,196.4 C55,192.8 52.1,189.8 48.5,189.8 C44.8,189.8 41.9,192.8 41.9,196.4 C41.9,200 44.9,202.9 48.5,202.9 z M48.5,176.7 C59.3,176.7 68.1,185.5 68.2,196.4 C68.2,207.2 59.4,216 48.5,216 C37.6,216 28.8,207.2 28.8,196.4 C28.8,185.5 37.7,176.7 48.5,176.7 z M205.7,202.9 C209.3,202.9 212.3,200 212.2,196.4 C212.2,192.8 209.3,189.8 205.7,189.8 C202,189.8 199.1,192.8 199.1,196.4 C199.1,200 202.1,202.9 205.7,202.9 z M205.7,176.7 C216.5,176.7 225.4,185.5 225.3,196.4 C225.3,207.2 216.5,216 205.7,216 C194.8,216 186,207.2 186,196.4 C186,185.5 194.8,176.7 205.7,176.7 z M254.7,85.5 L254.7,77.3 L247.2,77.3 C247.5,79.2 248.1,81.3 249.6,83 C250.8,84.3 252.6,85.1 254.7,85.5 z M254.8,110.1 L254.8,90.7 C251,90.2 247.8,89 245.6,86.5 C243,83.6 242,80.1 241.7,77.2 L186.3,77.2 C186.1,82.1 184.6,86 181.6,88.7 C177.8,92.1 172.8,92.7 169.8,92.7 C169.7,92.7 169.6,92.7 169.5,92.7 L169.5,109.7 C174.6,109.8 178.6,111.3 181.4,114.4 C184.5,117.9 185.3,122.3 185.4,125.4 L241.2,125.4 C241.4,120.5 242.9,116.6 245.9,113.9 C248.6,111.4 251.9,110.5 254.7,110.1 z M254.6,125.4 L254.6,115.6 C252.9,115.9 250.9,116.5 249.4,117.9 C247.7,119.6 246.9,122.2 246.7,125.4 L254.7,125.4 z M169.5,125.4 L180,125.4 C179.9,123.2 179.4,120.2 177.4,118 C175.7,116.1 173,115.3 169.5,115.2 L169.5,125.4 z M169.5,77.3 L169.5,87.3 C171.6,87.4 175.4,87.1 178,84.7 C179.7,83.1 180.5,80.5 180.7,77.3 L169.5,77.3 z M260.1,74.6 L260.1,128.1 C260.1,129.6 258.9,130.8 257.4,130.8 L166.8,130.8 C165.3,130.8 164.1,129.6 164.1,128.1 L164.1,74.6 C164.1,73.1 165.3,71.9 166.8,71.9 L257.4,71.9 C258.9,71.9 260.1,73.1 260.1,74.6 z M270.5,55.7 C272,55.7 273.2,56.9 273.2,58.4 L273.2,106.2 C273.2,107.7 272,108.9 270.5,108.9 C269,108.9 267.8,107.7 267.8,106.2 L267.8,61.1 L185.2,61.1 C183.7,61.1 182.5,59.9 182.5,58.4 C182.5,56.9 183.7,55.7 185.2,55.7 L270.5,55.7 z M280.8,42.4 C282.3,42.4 283.5,43.6 283.5,45.1 L283.5,92.9 C283.5,94.4 282.3,95.6 280.8,95.6 C279.3,95.6 278.1,94.4 278.1,92.9 L278.1,47.8 L195.5,47.8 C194,47.8 192.8,46.6 192.8,45.1 C192.8,43.6 194,42.4 195.5,42.4 L280.8,42.4 z M220,95.3 C216.5,91.8 210.7,91.8 207.1,95.1 C205.8,96.4 205.2,97.9 204.8,99.5 L214,99.5 C215.2,99.5 216.1,100.4 216.1,101.6 C216.1,102.8 215.2,103.7 214,103.7 L204.8,103.7 C205.2,105.3 205.9,106.9 207.1,108.1 C210.7,111.7 216.4,111.7 220,108.1 C220.9,107.3 222.2,107.3 223,108.1 C223.8,109 223.8,110.3 223,111.1 C220.4,113.7 217,115 213.6,115 C210.2,115 206.8,113.7 204.2,111.1 C202.1,109.1 201.1,106.5 200.7,103.8 L198.6,103.8 C197.4,103.8 196.5,102.9 196.5,101.7 C196.5,100.5 197.4,99.6 198.6,99.6 L200.7,99.6 C201.2,96.9 202.2,94.3 204.2,92.3 C209.4,87.1 217.8,87.1 223,92.3 C223.8,93.2 223.8,94.5 223,95.3 C222.1,96.1 220.8,96.1 220,95.3 z" fill="#000000"/>
  </g>
</svg>
