<?xml version="1.0" encoding="UTF-8"?>
<!DOCTYPE svg PUBLIC "-//W3C//DTD SVG 1.1//EN" "http://www.w3.org/Graphics/SVG/1.1/DTD/svg11.dtd">
<svg version="1.1" xmlns="http://www.w3.org/2000/svg" xmlns:xlink="http://www.w3.org/1999/xlink" x="0" y="0" width="283.5" height="283.5" viewBox="0, 0, 283.5, 283.5">
  <g id="Background">
    <rect x="0" y="0" width="283.5" height="283.5" fill="#FFFFFF"/>
  </g>
  <g id="Layer_1">
    <path d="M143.17,0.191 C144.696,0.541 145.762,1.201 146.8,2.3 L171.3,31.5 L207.1,18.5 C208.9,17.9 210.9,18.1 212.6,19 C214.3,19.9 215.5,21.6 215.8,23.5 L222.4,61 L259.9,67.7 C261.8,68.1 263.4,69.2 264.4,70.9 C265.4,72.6 265.6,74.6 264.9,76.4 L251.9,112.2 L281.1,136.7 C282.6,137.9 283.5,139.7 283.2,141.6 C283.2,143.5 282.4,145.4 280.9,146.6 L251.7,171.1 L264.7,206.9 C265.3,208.7 265.1,210.7 264.2,212.4 C263.3,214.1 261.6,215.3 259.7,215.6 L222.2,222.2 L215.6,259.7 C215.2,261.6 214.1,263.2 212.4,264.2 C210.7,265.2 208.7,265.4 206.9,264.7 L171.1,251.7 L146.6,280.9 C145.4,282.3 143.5,283.2 141.6,283.2 C139.7,283.2 137.8,282.4 136.6,280.9 L112.1,251.7 L76.3,264.7 C74.5,265.3 72.5,265.2 70.8,264.2 C69.1,263.3 67.9,261.6 67.6,259.7 L61,222.2 L23.5,215.6 C21.6,215.2 20,214.1 19,212.4 C18,210.7 17.8,208.7 18.5,206.9 L31.5,171.1 L2.3,146.6 C0.9,145.4 0,143.5 0,141.6 C0,139.7 0.8,137.8 2.3,136.6 L31.5,112.1 L18.5,76.3 C17.9,74.5 18,72.5 19,70.8 C20,69.1 21.6,68 23.6,67.6 L61.1,61 L67.8,23.5 C68.2,21.6 69.3,20 71,19 C72.7,18 74.7,17.8 76.5,18.5 L112.3,31.5 L136.8,2.3 C138.836,-0.007 140.262,0.191 143.17,0.191 z M141.7,16.8 L119.3,43.5 C117.5,45.6 114.6,46.3 112,45.4 L79.2,33.5 L73.1,67.8 C72.6,70.5 70.5,72.6 67.8,73.1 L33.5,79.2 L45.4,112 C46.4,114.6 45.6,117.5 43.5,119.3 L16.8,141.7 L43.5,164.1 C45.6,165.9 46.3,168.8 45.4,171.4 L33.5,204.2 L67.9,210.3 C70.6,210.8 72.7,212.9 73.2,215.6 L79.3,249.9 L112.1,238 C112.8,237.7 113.6,237.6 114.3,237.6 C116.2,237.6 118,238.4 119.3,239.9 L141.7,266.6 L164.1,239.9 C165.9,237.8 168.8,237.1 171.4,238 L204.3,249.9 L210.4,215.6 C210.9,212.9 213,210.8 215.7,210.3 L250,204.2 L238.1,171.4 C237.1,168.8 237.9,165.9 240,164.1 L266.6,141.7 L239.9,119.3 C237.8,117.5 237.1,114.6 238,112 L249.9,79.2 L215.6,73.1 C212.9,72.6 210.8,70.5 210.3,67.8 L204.2,33.5 L171.4,45.4 C168.8,46.4 165.9,45.6 164.1,43.5 L141.7,16.8 z M169.4,74.5 C176.7,74.5 184,79.6 186.5,86.5 L196.8,115.5 C208,116.9 216.7,126.5 216.9,138.1 L216.9,162.6 C216.9,175.2 206.7,185.5 194.1,185.5 L194.1,201.8 C194.1,205.5 191.2,208.4 187.5,208.4 C183.8,208.4 180.9,205.4 180.9,201.8 L180.9,185.5 L106.1,185.5 L106.1,201.8 C106.1,205.5 103.1,208.4 99.5,208.4 C95.8,208.4 92.9,205.4 92.9,201.8 L92.9,185.5 L89.7,185.5 C77.1,185.5 66.8,175.2 66.8,162.6 L66.8,138.1 C66.8,126.5 75.5,116.9 86.7,115.4 L97,86.5 C99.5,79.7 106.8,74.5 114.1,74.5 L169.4,74.5 z M193.9,128.3 L89.6,128.3 C84.2,128.3 79.8,132.7 79.8,138.1 L79.8,162.6 C79.8,168 84.2,172.4 89.6,172.4 L193.8,172.4 C199.2,172.4 203.6,168 203.6,162.6 L203.7,162.6 L203.7,138.1 C203.7,132.7 199.3,128.3 193.9,128.3 z M99.4,142.9 C103.9,142.9 107.5,146.6 107.6,151.1 C107.6,155.6 103.9,159.3 99.4,159.3 C94.9,159.3 91.2,155.6 91.2,151.1 C91.2,146.6 94.9,142.9 99.4,142.9 z M187.3,142.9 C191.8,142.9 195.5,146.6 195.5,151.1 C195.5,155.6 191.8,159.3 187.3,159.3 C182.8,159.3 179.1,155.6 179.1,151.1 C179.1,146.6 182.8,142.9 187.3,142.9 z M169.3,87.6 L114,87.6 C112.3,87.6 109.9,89.3 109.3,90.9 L100.5,115.2 L182.7,115.2 L174,90.9 C173.4,89.3 171,87.6 169.3,87.6 z" fill="#010202"/>
  </g>
</svg>
