<?xml version="1.0" encoding="UTF-8"?>
<!DOCTYPE svg PUBLIC "-//W3C//DTD SVG 1.1//EN" "http://www.w3.org/Graphics/SVG/1.1/DTD/svg11.dtd">
<svg version="1.1" xmlns="http://www.w3.org/2000/svg" xmlns:xlink="http://www.w3.org/1999/xlink" x="0" y="0" width="283.5" height="283.5" viewBox="0, 0, 283.5, 283.5">
  <g id="Background">
    <rect x="0" y="0" width="283.5" height="283.5" fill="#FFFFFF"/>
  </g>
  <g id="Layer_1">
    <path d="M218.6,139.4 L45.6,139.4 L61.5,92.3 C61.5,92.2 65.1,80.8 75.2,80.8 L80.8,80.8 L145.9,80.8 C149.6,80.8 152.5,77.8 152.5,74.2 C152.5,70.6 149.5,67.6 145.9,67.6 L80.8,67.6 L75.2,67.6 C55.4,67.6 49.1,87.7 48.9,88.3 L31.7,139.5 C14.1,140.2 0,154.7 0,172.5 L0,212.2 C0,230.5 14.8,245.3 33.1,245.3 L42.4,245.3 L42.4,275.8 C42.4,279.5 45.4,282.4 49,282.4 C52.7,282.4 55.6,279.4 55.6,275.8 L55.6,245.3 L201.3,245.3 L201.3,275.8 C201.3,279.5 204.3,282.4 207.9,282.4 C211.5,282.4 214.5,279.4 214.5,275.8 L214.5,245.3 L218.5,245.3 C236.8,245.3 251.6,230.4 251.6,212.2 L251.6,172.5 C251.7,154.2 236.9,139.4 218.6,139.4 z M238.5,212.2 C238.5,223.2 229.6,232.1 218.6,232.1 L33.1,232.1 C22.1,232.1 13.2,223.2 13.2,212.2 L13.2,172.5 C13.2,161.5 22.1,152.6 33.1,152.6 L218.6,152.6 C229.6,152.6 238.5,161.5 238.5,172.5 L238.5,212.2 z M49,200.1 C52.7,200.1 55.6,197.2 55.6,193.5 C55.6,189.9 52.7,186.9 49,186.9 C45.4,186.9 42.4,189.9 42.4,193.5 C42.4,197.1 45.4,200.1 49,200.1 z M49,173.6 C60,173.6 68.9,182.5 68.9,193.5 C68.9,204.5 60,213.4 49,213.4 C38,213.4 29.1,204.5 29.1,193.5 C29.1,182.5 38,173.6 49,173.6 z M208,200.1 C211.6,200.1 214.6,197.2 214.6,193.5 C214.6,189.9 211.6,186.9 208,186.9 C204.4,186.9 201.4,189.9 201.4,193.5 C201.4,197.1 204.3,200.1 208,200.1 z M208,173.6 C218.9,173.6 227.9,182.5 227.9,193.5 C227.9,204.5 218.9,213.4 208,213.4 C197,213.4 188.1,204.5 188.1,193.5 C188.1,182.5 197,173.6 208,173.6 z M227.9,84.8 C262.7,84.8 283.5,96.9 283.6,117.3 C283.6,119.2 282,120.8 280.1,120.8 C278.1,120.8 276.6,119.2 276.6,117.3 C276.6,93.6 239.4,91.7 228,91.7 C216.5,91.7 179.3,93.6 179.3,117.3 C179.3,119.2 177.7,120.8 175.8,120.8 C173.9,120.8 172.3,119.2 172.3,117.3 C172.3,97 193.1,84.8 227.9,84.8 z M227.9,6.9 C213.8,6.9 199.5,15.9 199.6,36 C199.6,39.1 200,42.4 200.7,45.6 C220.6,44.4 236.5,28.3 237.6,8.4 C234.4,7.4 231.2,6.9 227.9,6.9 z M256.2,36 C256.2,24.2 251.2,16.2 244.2,11.7 C243.6,16.6 242.3,21.3 240.3,25.6 C240.3,25.6 240.3,25.7 240.3,25.7 C240.3,34.4 247.1,41.5 255.7,42.1 C256,40 256.2,38 256.2,36 z M227.9,75 C240.1,75 250.1,62.7 254.2,48.9 C245.5,47.9 238.2,42.2 235.1,34.3 C227.5,44.3 215.9,51.2 202.7,52.5 C207.4,64.8 216.7,75 227.9,75 z M227.9,81.9 C207.7,81.9 192.6,57.7 192.6,36 C192.6,14.8 207.1,0 227.9,0 C248.6,0 263.1,14.8 263.1,36 C263.1,57.7 248.1,81.9 227.9,81.9 z" fill="#000000"/>
  </g>
</svg>
