<?xml version="1.0" encoding="UTF-8"?>
<!DOCTYPE svg PUBLIC "-//W3C//DTD SVG 1.1//EN" "http://www.w3.org/Graphics/SVG/1.1/DTD/svg11.dtd">
<svg version="1.1" xmlns="http://www.w3.org/2000/svg" xmlns:xlink="http://www.w3.org/1999/xlink" x="0" y="0" width="283.5" height="283.5" viewBox="0, 0, 283.5, 283.5">
  <g id="Background">
    <rect x="0" y="0" width="283.5" height="283.5" fill="#FFFFFF"/>
  </g>
  <g id="Layer_1">
    <path d="M216.5,141 L45.2,141 L60.9,94.4 C60.9,94.3 64.5,83 74.5,83 L80,83 L144.5,83 C148.1,83 151.1,80.1 151.1,76.4 C151.1,72.8 148.2,69.8 144.5,69.8 L80,69.8 L74.5,69.8 C54.9,69.8 48.6,89.7 48.4,90.3 L31.3,141 C13.9,141.9 0,156.2 0,173.8 L0,213.2 C0,231.3 14.7,246 32.8,246 L42,246 L42,276.2 C42,279.8 44.9,282.8 48.6,282.8 C52.3,282.8 55.2,279.8 55.2,276.2 L55.2,246 L199.5,246 L199.5,276.2 C199.5,279.8 202.4,282.8 206.1,282.8 C209.7,282.8 212.7,279.8 212.7,276.2 L212.7,246 L216.6,246 C234.7,246 249.4,231.3 249.4,213.2 L249.4,173.8 C249.3,155.7 234.6,141 216.5,141 z M236.2,213.2 C236.2,224 227.4,232.9 216.5,232.9 L32.8,232.9 C21.9,232.9 13.1,224.1 13.1,213.2 L13.1,173.8 C13.1,163 21.9,154.1 32.8,154.1 L216.5,154.1 C227.3,154.1 236.2,162.9 236.2,173.8 L236.2,213.2 z M48.5,201.2 C52.2,201.2 55.1,198.2 55.1,194.6 C55.1,191 52.1,188 48.5,188 C44.8,188 41.9,191 41.9,194.6 C41.9,198.3 44.9,201.2 48.5,201.2 z M48.5,174.9 C59.4,174.9 68.2,183.8 68.2,194.6 C68.2,205.4 59.4,214.2 48.5,214.2 C37.6,214.2 28.8,205.4 28.8,194.6 C28.8,183.7 37.6,174.9 48.5,174.9 z M206,201.2 C209.6,201.2 212.6,198.2 212.6,194.6 C212.6,191 209.6,188 206,188 C202.3,188 199.4,191 199.4,194.6 C199.4,198.3 202.4,201.2 206,201.2 z M206,174.9 C216.8,174.9 225.7,183.8 225.7,194.6 C225.7,205.4 216.8,214.2 206,214.2 C195.1,214.2 186.3,205.4 186.3,194.6 C186.3,183.7 195.1,174.9 206,174.9 z M194,82.8 L183.1,116.1 L211.5,95.5 C212.3,94.9 213.2,94.6 214.2,94.6 C215.2,94.6 216.1,94.9 216.9,95.5 L245.2,116.1 L234.4,82.8 C233.8,80.9 234.5,78.8 236.1,77.6 L264.4,57 L229.4,57 C227.4,57 225.6,55.7 225,53.8 L214.1,20.5 L203.3,53.8 C202.7,55.7 200.9,57 198.9,57 L163.9,57 L192.3,77.6 C193.9,78.8 194.6,80.9 194,82.8 z M283.2,50.9 C283.9,52.8 283.2,54.9 281.6,56 L244.4,83 L258.6,126.7 C259.2,128.6 258.5,130.7 256.9,131.9 C256.2,132.5 255.2,132.8 254.2,132.8 C253.3,132.8 252.3,132.5 251.5,131.9 L214.3,104.9 L177.1,131.9 C175.5,133.1 173.2,133.1 171.6,131.9 C169.9,130.7 169.3,128.6 169.9,126.7 L184.1,83 L146.9,56 C145.2,54.8 144.6,52.7 145.2,50.8 C145.8,48.9 147.6,47.6 149.6,47.6 L195.6,47.6 L209.8,3.9 C210.4,2 212.2,0.7 214.2,0.7 C216.2,0.7 218,2 218.6,3.9 L232.8,47.7 L278.8,47.7 C280.8,47.7 282.6,49 283.2,50.9 z" fill="#000000"/>
  </g>
</svg>
