<?xml version="1.0" encoding="UTF-8"?>
<!DOCTYPE svg PUBLIC "-//W3C//DTD SVG 1.1//EN" "http://www.w3.org/Graphics/SVG/1.1/DTD/svg11.dtd">
<svg version="1.1" xmlns="http://www.w3.org/2000/svg" xmlns:xlink="http://www.w3.org/1999/xlink" x="0" y="0" width="283.5" height="283.5" viewBox="0, 0, 283.5, 283.5">
  <g id="Background">
    <rect x="0" y="0" width="283.5" height="283.5" fill="#FFFFFF"/>
  </g>
  <g id="Layer_1">
    <path d="M216.2,140.4 L45.2,140.4 L60.9,93.8 C60.9,93.7 64.5,82.4 74.5,82.4 L80,82.4 L144.4,82.4 C148,82.4 150.9,79.5 150.9,75.8 C150.9,72.2 148,69.3 144.4,69.3 L79.9,69.3 L74.4,69.3 C54.9,69.3 48.6,89.1 48.3,89.8 L31.3,140.5 C13.9,141.2 -0,155.6 -0,173.1 L-0,212.4 C-0,230.5 14.7,245.2 32.8,245.2 L42,245.2 L42,275.3 C42,278.9 44.9,281.9 48.6,281.9 C52.3,281.9 55.1,278.9 55.1,275.3 L55.1,245.2 L199.2,245.2 L199.2,275.3 C199.2,278.9 202.1,281.9 205.8,281.9 C209.4,281.9 212.3,278.9 212.3,275.3 L212.3,245.2 L216.2,245.2 C234.3,245.2 249,230.5 249,212.4 L249,173.1 C248.9,155.1 234.3,140.4 216.2,140.4 z M235.8,212.4 C235.8,223.2 227,232 216.1,232 L32.8,232 C22,232 13.1,223.2 13.1,212.4 L13.1,173.1 C13.1,162.3 21.9,153.5 32.8,153.5 L216.2,153.5 C227,153.5 235.9,162.3 235.9,173.1 L235.9,212.4 z M48.5,200.4 C52.1,200.4 55,197.5 55,193.9 C55,190.3 52.1,187.3 48.5,187.3 C44.8,187.3 41.9,190.3 41.9,193.9 C41.9,197.5 44.9,200.4 48.5,200.4 z M48.5,174.2 C59.3,174.2 68.1,183 68.2,193.9 C68.2,204.7 59.3,213.5 48.5,213.5 C37.6,213.5 28.8,204.7 28.8,193.9 C28.8,183 37.7,174.2 48.5,174.2 z M205.7,200.4 C209.3,200.4 212.3,197.5 212.2,193.9 C212.2,190.3 209.3,187.3 205.7,187.3 C202,187.3 199.1,190.3 199.1,193.9 C199.1,197.5 202.1,200.4 205.7,200.4 z M205.7,174.2 C216.5,174.2 225.3,183 225.3,193.9 C225.3,204.7 216.5,213.5 205.7,213.5 C194.8,213.5 186,204.7 186,193.9 C186,183 194.8,174.2 205.7,174.2 z M162.7,48 C161.1,48 159.8,46.7 159.8,45.1 C159.8,43.5 161.1,42.2 162.7,42.2 L187.9,42.2 C196.9,42.2 201.7,44.8 206.4,52 C206.4,52.1 206.5,52.1 206.5,52.2 L213.7,65 C214.5,66.4 214,68.2 212.6,69 C212.2,69.3 211.7,69.4 211.2,69.4 C210.2,69.4 209.2,68.8 208.7,67.9 L201.5,55.1 C197.9,49.6 194.9,48 187.9,48 L162.7,48 z M265.1,119.4 L275,109.5 L265.1,99.6 L265.1,119.4 z M264.1,88.7 L282.5,107 C283.1,107.7 283.5,108.6 283.5,109.5 C283.5,110.5 283.1,111.3 282.5,112 L264.2,130.3 C263.5,130.9 262.6,131.3 261.7,131.3 C261.3,131.3 260.8,131.2 260.4,131 C259.2,130.5 258.3,129.2 258.3,127.8 L258.3,112.4 L247.1,112.4 C238.1,112.4 233.3,109.8 228.6,102.6 C228.5,102.6 228.5,102.5 228.5,102.5 C228.5,102.5 228.5,102.5 228.5,102.5 L221.2,89.7 C220.4,88.3 220.9,86.5 222.3,85.7 C223.6,84.9 225.4,85.4 226.2,86.8 L233.4,99.5 C236.9,105 240,106.6 247,106.6 L258.2,106.6 L258.2,91.2 C258.2,89.8 259,88.5 260.3,88 C261.6,87.4 263.1,87.7 264.1,88.7 z M265.1,35.2 L265.1,55 L275,45.1 L265.1,35.2 z M162.7,112.4 C161.1,112.4 159.8,111.1 159.7,109.5 C159.7,107.9 161,106.6 162.6,106.6 L187.8,106.6 C194.8,106.6 197.8,105 201.4,99.5 L228.3,52 C228.3,52 228.3,52 228.3,52 C228.4,52 228.4,51.9 228.4,51.9 C233,44.7 237.9,42.1 246.9,42.1 L258.1,42.1 L258.1,26.7 C258.1,25.3 258.9,24 260.2,23.5 C261.5,23 263,23.3 264,24.3 L282.3,42.6 C283.7,43.9 283.7,46.2 282.3,47.5 L264,65.8 C263.3,66.5 262.4,66.8 261.5,66.8 C261.1,66.8 260.6,66.7 260.2,66.5 C259,66 258.1,64.7 258.1,63.3 L258.1,47.9 L246.9,47.9 C239.9,47.9 236.8,49.5 233.3,55 L206.5,102.5 C206.5,102.5 206.4,102.6 206.4,102.6 C201.8,109.9 196.9,112.4 187.9,112.4 L162.7,112.4 z" fill="#000000"/>
  </g>
</svg>
