<?xml version="1.0" encoding="UTF-8"?>
<!DOCTYPE svg PUBLIC "-//W3C//DTD SVG 1.1//EN" "http://www.w3.org/Graphics/SVG/1.1/DTD/svg11.dtd">
<svg version="1.1" xmlns="http://www.w3.org/2000/svg" xmlns:xlink="http://www.w3.org/1999/xlink" x="0" y="0" width="283.5" height="283.5" viewBox="0, 0, 283.5, 283.5">
  <g id="Background">
    <rect x="0" y="0" width="283.5" height="283.5" fill="#FFFFFF"/>
  </g>
  <g id="Layer_1">
    <path d="M217.7,139.4 L45.4,139.4 L61.2,92.5 C61.2,92.4 64.8,81 74.9,81 L80.5,81 L145.3,81 C149,81 151.9,78 151.9,74.4 C151.9,70.8 149,67.8 145.3,67.8 L80.5,67.8 L74.9,67.8 C55.2,67.8 48.9,87.8 48.7,88.5 L31.5,139.5 C14,140.2 0,154.7 0,172.4 L0,212 C0,230.2 14.8,245 33,245 L42.2,245 L42.2,275.3 C42.2,279 45.2,281.9 48.8,281.9 C52.5,281.9 55.4,278.9 55.4,275.3 L55.4,245 L200.5,245 L200.5,275.3 C200.5,279 203.4,281.9 207.1,281.9 C210.7,281.9 213.7,278.9 213.7,275.3 L213.7,245 L217.6,245 C235.8,245 250.6,230.2 250.6,212 L250.6,172.4 C250.7,154.2 235.9,139.4 217.7,139.4 z M237.5,211.9 C237.5,222.8 228.6,231.7 217.7,231.7 L33,231.7 C22.1,231.7 13.2,222.8 13.2,211.9 L13.2,172.3 C13.2,161.4 22.1,152.5 33,152.5 L217.7,152.5 C228.6,152.5 237.5,161.4 237.5,172.3 L237.5,211.9 z M48.8,199.9 C52.5,199.9 55.4,196.9 55.4,193.3 C55.4,189.7 52.5,186.7 48.8,186.7 C45.2,186.7 42.2,189.7 42.2,193.3 C42.2,197 45.2,199.9 48.8,199.9 z M48.8,173.5 C59.7,173.5 68.6,182.4 68.6,193.3 C68.6,204.2 59.7,213.1 48.8,213.1 C37.9,213.1 29,204.2 29,193.3 C29,182.4 37.9,173.5 48.8,173.5 z M207.1,199.9 C210.8,199.9 213.7,196.9 213.7,193.3 C213.7,189.7 210.7,186.7 207.1,186.7 C203.4,186.7 200.5,189.7 200.5,193.3 C200.5,197 203.4,199.9 207.1,199.9 z M207.1,173.5 C218,173.5 226.9,182.4 226.9,193.3 C226.9,204.2 218,213.1 207.1,213.1 C196.2,213.1 187.3,204.2 187.3,193.3 C187.3,182.4 196.2,173.5 207.1,173.5 z M274.4,113.9 L274.4,62.9 C274.4,62.3 273.9,61.8 273.3,61.8 L193.8,61.8 C193.2,61.8 192.7,62.3 192.7,62.9 L192.7,113.9 C192.7,114.5 193.2,115 193.8,115 L273.3,115 C273.9,115 274.4,114.5 274.4,113.9 z M209.6,34.5 L209.6,52.7 L257.3,52.7 L257.3,34.5 C257.3,21.4 246.6,10.7 233.5,10.7 C220.4,10.7 209.7,21.4 209.7,34.5 z M273.3,52.6 C278.9,52.6 283.5,57.2 283.6,62.9 L283.6,114 C283.6,119.6 279,124.2 273.4,124.2 L193.9,124.2 C188.3,124.2 183.7,119.6 183.7,114 L183.7,62.9 C183.7,57.3 188.3,52.7 193.9,52.7 L200.7,52.7 L200.7,34.5 C200.7,16.4 215.4,1.6 233.6,1.6 C251.7,1.6 266.5,16.4 266.5,34.5 L266.5,52.6 L273.3,52.6 z" fill="#000000"/>
  </g>
</svg>
