<?xml version="1.0" encoding="UTF-8"?>
<!DOCTYPE svg PUBLIC "-//W3C//DTD SVG 1.1//EN" "http://www.w3.org/Graphics/SVG/1.1/DTD/svg11.dtd">
<svg version="1.1" xmlns="http://www.w3.org/2000/svg" xmlns:xlink="http://www.w3.org/1999/xlink" x="0" y="0" width="283.5" height="283.5" viewBox="0, 0, 283.5, 283.5">
  <g id="Background">
    <rect x="0" y="0" width="283.5" height="283.5" fill="#FFFFFF"/>
  </g>
  <g id="Layer_1">
    <path d="M142,71.2 C145.7,71.2 148.6,74.2 148.6,77.8 C148.6,81.4 145.6,84.4 142,84.4 L73,84.4 C68.5,84.4 63,88.3 61.5,92.5 L45.435,137.5 L219,137.5 C237.3,137.5 252.2,152.4 252.2,170.7 L252.2,210.5 C252.1,228.8 237.2,243.7 218.9,243.7 L214.9,243.7 L214.9,274.3 C214.9,277.9 212,280.9 208.3,280.9 C204.6,280.9 201.7,277.9 201.7,274.3 L201.7,243.7 L55.7,243.7 L55.7,274.3 C55.7,277.9 52.8,280.9 49.1,280.9 C45.4,280.9 42.5,277.9 42.5,274.3 L42.5,243.7 L33.2,243.7 C14.9,243.7 0,228.8 0,210.5 L0,170.7 C0.317,153.356 13.769,138.485 31.354,137.593 L31.4,137.4 L49,88.1 C52.4,78.6 62.9,71.2 73,71.2 L142,71.2 z M219,150.8 L33.2,150.8 C22.2,150.8 13.3,159.7 13.3,170.7 L13.3,210.5 C13.3,221.5 22.2,230.4 33.2,230.4 L219,230.4 C230,230.4 238.9,221.5 238.9,210.5 L238.9,170.7 C238.9,159.7 230,150.8 219,150.8 z M208.3,171.9 C219.3,171.9 228.2,180.8 228.2,191.8 C228.2,202.8 219.3,211.7 208.3,211.7 C197.3,211.7 188.4,202.8 188.4,191.8 C188.4,180.8 197.3,171.9 208.3,171.9 z M208.3,185.1 C204.6,185.1 201.7,188.1 201.7,191.7 C201.7,195.4 204.7,198.3 208.3,198.3 C211.9,198.3 214.9,195.3 214.9,191.7 C214.9,188.1 212,185.1 208.3,185.1 z M49.1,171.9 C60.1,171.9 69,180.8 69,191.8 C69,202.8 60.1,211.7 49.1,211.7 C38.1,211.7 29.2,202.8 29.2,191.8 C29.2,180.8 38.1,171.9 49.1,171.9 z M49.1,185.1 C45.4,185.1 42.5,188.1 42.5,191.7 C42.5,195.4 45.5,198.3 49.1,198.3 C52.7,198.3 55.7,195.3 55.7,191.7 C55.7,188.1 52.7,185.1 49.1,185.1 z M223.1,33.2 C219.5,33.2 216.5,36.1 216.5,39.8 L216.5,63 C216.799,65.984 218.548,69.097 221.89,69.478 L223.1,69.6 L246.2,69.6 C249.9,69.6 252.8,66.6 252.8,63 C252.8,59.4 249.9,56.4 246.2,56.4 L229.7,56.4 L229.7,39.8 C229.7,36.2 226.7,33.2 223.1,33.2 z M223.1,15.9 C249.1,15.9 270.2,37 270.2,63 C270.2,89 249.1,110.1 223.1,110.1 C197.1,110.1 176,89 176,63 C176,37 197.1,15.9 223.1,15.9 z M223.1,2.5 L223.1,2.5 C189.8,2.5 162.7,29.6 162.7,62.9 C162.7,96.2 189.8,123.3 223.1,123.3 C256.4,123.3 283.5,96.2 283.5,62.9 C283.5,29.6 256.4,2.5 223.1,2.5 z" fill="#010202"/>
  </g>
</svg>
