<?xml version="1.0" encoding="UTF-8"?>
<!DOCTYPE svg PUBLIC "-//W3C//DTD SVG 1.1//EN" "http://www.w3.org/Graphics/SVG/1.1/DTD/svg11.dtd">
<svg version="1.1" xmlns="http://www.w3.org/2000/svg" xmlns:xlink="http://www.w3.org/1999/xlink" x="0" y="0" width="283.5" height="283.5" viewBox="0, 0, 283.5, 283.5">
  <g id="Background">
    <rect x="0" y="0" width="283.5" height="283.5" fill="#FFFFFF"/>
  </g>
  <g id="Layer_1">
    <path d="M214.9,142.4 L45,142.4 L60.6,96.1 C60.6,96 64.2,84.8 74.1,84.8 L79.6,84.8 L143.6,84.8 C147.2,84.8 150.1,81.9 150.1,78.3 C150.1,74.7 147.2,71.8 143.6,71.8 L79.6,71.8 L74.1,71.8 C54.7,71.8 48.4,91.5 48.2,92.2 L31.3,142.5 C14,143.3 0.2,157.5 0.2,174.9 L0.2,214 C0.2,231.9 14.8,246.5 32.7,246.5 L41.8,246.5 L41.8,276.4 C41.8,280 44.7,282.9 48.3,282.9 C51.9,282.9 54.8,280 54.8,276.4 L54.8,246.5 L198,246.5 L198,276.4 C198,280 200.9,282.9 204.5,282.9 C208.1,282.9 211,280 211,276.4 L211,246.5 L214.9,246.5 C232.9,246.5 247.4,231.9 247.4,214 L247.4,174.9 C247.5,157 232.9,142.4 214.9,142.4 z M234.5,214 C234.5,224.8 225.7,233.5 215,233.5 L32.7,233.5 C21.9,233.5 13.2,224.7 13.2,214 L13.2,174.9 C13.2,164.2 22,155.4 32.7,155.4 L214.9,155.4 C225.7,155.4 234.4,164.2 234.4,174.9 L234.4,214 z M48.3,202.1 C52,202.1 54.8,199.2 54.8,195.6 C54.8,192 51.9,189.1 48.3,189.1 C44.7,189.1 41.8,192 41.8,195.6 C41.8,199.2 44.7,202.1 48.3,202.1 z M48.3,176.1 C59.1,176.1 67.9,184.8 67.8,195.6 C67.8,206.4 59.1,215.1 48.3,215.1 C37.6,215.1 28.8,206.4 28.8,195.6 C28.8,184.9 37.5,176.1 48.3,176.1 z M204.6,202.1 C208.1,202.1 211.1,199.2 211.1,195.6 C211.1,192 208.2,189.1 204.6,189.1 C201,189.1 198.1,192 198.1,195.6 C198.1,199.2 201,202.1 204.6,202.1 z M204.6,176.1 C215.3,176.1 224.1,184.8 224.1,195.6 C224.1,206.4 215.3,215.1 204.6,215.1 C193.9,215.1 185.1,206.4 185.1,195.6 C185.1,184.9 193.8,176.1 204.6,176.1 z M230.7,118.3 L250.5,118.3 L250.5,45.5 L230.7,45.5 L230.7,118.3 z M204.3,68.7 L204.3,118.4 L224.1,118.4 L224.1,42.3 L224.1,19.1 L204.3,19.1 L204.3,68.7 z M177.8,72 L177.8,118.3 L197.6,118.3 L197.6,72 L177.8,72 z M280.4,118.3 C282.2,118.3 283.8,119.8 283.8,121.6 C283.8,123.4 282.3,124.9 280.5,124.9 L254,124.9 L227.5,124.9 L201,124.9 L174.6,124.9 L148.1,124.9 C146.3,124.9 144.8,123.4 144.8,121.6 C144.8,119.8 146.3,118.3 148.1,118.3 L171.2,118.3 L171.2,68.7 C171.2,66.9 172.7,65.4 174.5,65.4 L197.7,65.4 L197.7,15.8 C197.7,14 199.2,12.5 201,12.5 L227.5,12.5 C229.3,12.5 230.8,14 230.8,15.8 L230.8,38.9 L254,38.9 C255.8,38.9 257.3,40.4 257.3,42.2 L257.3,118.3 L280.4,118.3 z" fill="#000000"/>
  </g>
</svg>
