<?xml version="1.0" encoding="UTF-8"?>
<!DOCTYPE svg PUBLIC "-//W3C//DTD SVG 1.1//EN" "http://www.w3.org/Graphics/SVG/1.1/DTD/svg11.dtd">
<svg version="1.1" xmlns="http://www.w3.org/2000/svg" xmlns:xlink="http://www.w3.org/1999/xlink" x="0" y="0" width="283.5" height="283.5" viewBox="0, 0, 283.5, 283.5">
  <g id="Background">
    <rect x="0" y="0" width="283.5" height="283.5" fill="#FFFFFF"/>
  </g>
  <g id="Layer_1">
    <path d="M9.3,272.7 C5.6,272.7 2.7,269.7 2.7,266.1 C2.7,262.4 5.7,259.5 9.3,259.5 L113.4,259.5 L113.4,233.893 L96.8,224.3 C94.8,223.1 93.5,220.9 93.5,218.6 L93.5,195.6 C93.5,191.9 96.5,189 100.1,189 C103.7,189 106.7,192 106.7,195.6 L106.7,214.7 L120,222.4 L133.3,214.7 L133.3,195.6 C133.3,191.9 136.3,189 139.9,189 C143.6,189 146.5,192 146.5,195.6 L146.5,218.6 C146.5,221 145.2,223.2 143.2,224.3 L126.6,233.893 L126.6,259.5 L178.4,259.5 L178.4,211.914 L165.5,197.6 C164.1,196 163.5,193.8 164,191.7 L170.5,162.5 C171.2,159.5 173.9,157.3 177,157.3 L193.2,157.3 C196.3,157.3 199,159.5 199.7,162.5 L206.2,191.7 C206.7,193.8 206.1,196 204.7,197.6 L191.6,212.135 L191.6,259.5 L275.7,259.5 C279.4,259.5 282.3,262.5 282.3,266.1 C282.3,269.8 279.4,272.7 275.7,272.7 L185.001,272.7 L185,272.7 L184.999,272.7 L9.3,272.7 z M187.8,170.5 L182.2,170.5 L177.6,191.2 L185,199.4 L192.4,191.2 L187.8,170.5 z M99.8,24.6 L171.8,58.4 C173.5,59.2 175.5,59.2 177.2,58.5 L246,29.4 C247.9,28.6 249.8,28.2 251.8,28.2 C257.7,28.2 263.1,31.7 265.4,37.2 C268.5,44.7 265,53.4 257.5,56.6 L73.8,134.4 C70.2,135.9 66.4,136.7 62.5,136.7 C53,136.7 44.1,132 38.7,124.2 L16.8,93.2 L25,89.7 L56.4,106.9 C58.2,107.9 60.3,108 62.2,107.2 L106.2,88.6 C108.1,87.8 109.4,86.2 110,84.3 C110.6,82.4 110.3,80.3 109.1,78.7 L77.7,34 L99.8,24.6 z M100.85,10.887 C99.395,10.919 100.105,10.913 98.722,10.908 L97.4,11.3 L65,25 C63.1,25.8 61.8,27.4 61.2,29.3 C60.6,31.2 60.9,33.3 62.1,34.9 L93.5,79.5 L60,93.7 L28.6,76.5 C26.8,75.5 24.7,75.4 22.8,76.2 L4,84.2 C2.2,85 0.8,86.6 0.2,88.5 C-0.3,90.4 0,92.5 1.2,94.1 L27.8,131.8 C35.7,143.2 48.6,150 62.5,150 C68.1,150 73.7,148.9 78.9,146.7 L262.6,68.9 C276.9,62.8 283.5,46.3 277.5,32.1 C273.1,21.7 263,15 251.7,15 C248,15 244.3,15.7 240.8,17.2 L174.7,45.2 L102.8,11.4 C102.166,11.179 101.536,10.874 100.85,10.887 z" fill="#000000"/>
  </g>
</svg>
