<?xml version="1.0" encoding="UTF-8"?>
<!DOCTYPE svg PUBLIC "-//W3C//DTD SVG 1.1//EN" "http://www.w3.org/Graphics/SVG/1.1/DTD/svg11.dtd">
<svg version="1.1" xmlns="http://www.w3.org/2000/svg" xmlns:xlink="http://www.w3.org/1999/xlink" x="0" y="0" width="283.5" height="283.5" viewBox="0, 0, 283.5, 283.5">
  <g id="Background">
    <rect x="0" y="0" width="283.5" height="283.5" fill="#FFFFFF"/>
  </g>
  <g id="Layer_1">
    <path d="M54,157.7 C54,168.9 63.1,177.9 74.2,177.9 C85.4,177.9 94.4,168.8 94.4,157.7 C94.4,146.5 85.3,137.5 74.2,137.5 C63.1,137.5 54,146.6 54,157.7 z M81,157.7 C81,161.4 78,164.4 74.3,164.4 C70.6,164.4 67.6,161.4 67.6,157.7 C67.6,154 70.6,151 74.3,151 C78,151 81,154 81,157.7 z M216,157.7 C216,154 212.9,151 209.3,151 C205.6,151 202.6,154 202.6,157.7 C202.6,161.4 205.6,164.4 209.3,164.4 C213,164.4 216,161.4 216,157.7 z M189,157.7 C189,146.6 198.1,137.5 209.2,137.5 C220.3,137.5 229.4,146.5 229.4,157.7 C229.4,168.8 220.4,177.9 209.2,177.9 C198.1,177.9 189,168.9 189,157.7 z M62.6,56.8 L46.3,102.6 L237.3,102.6 L221,56.8 C219.4,52.5 213.9,48.6 209.3,48.6 L74.3,48.6 C69.7,48.6 64.1,52.5 62.6,56.8 z M281,176 C282.6,177.2 283.5,179.1 283.3,181.4 L283.3,211.1 C283.3,214.8 280.3,217.8 276.6,217.8 C272.9,217.8 269.9,214.8 269.9,211.1 L269.9,196.9 C261.4,200.5 252.3,203.6 242.9,206.4 L242.9,241.8 C242.9,245.5 239.9,248.5 236.2,248.5 C232.5,248.5 229.5,245.5 229.5,241.8 L229.5,210 C202,216.7 171.9,220 141.8,220 C111.7,220 81.6,216.7 54.1,210 L54.1,241.8 C54.1,245.5 51.1,248.5 47.4,248.5 C43.7,248.5 40.7,245.5 40.7,241.8 L40.7,206.4 C27.6,202.6 15.3,197.9 4,192.5 C4,192.4 3.9,192.4 3.9,192.4 C3.8,192.3 3.7,192.3 3.6,192.2 C3.5,192.1 3.4,192.1 3.3,192 C3.2,191.9 3.1,191.9 3,191.8 C2.9,191.7 2.8,191.7 2.7,191.6 C2.6,191.5 2.6,191.5 2.5,191.4 C2.4,191.3 2.3,191.2 2.2,191.1 C2.1,191 2.1,191 2,190.9 C1.9,190.8 1.8,190.7 1.7,190.6 C1.6,190.5 1.6,190.5 1.5,190.4 C1.4,190.3 1.4,190.2 1.3,190.1 C1.2,190 1.2,189.9 1.1,189.8 C1,189.7 1,189.6 0.9,189.5 C0.8,189.4 0.8,189.3 0.7,189.2 C0.7,189.1 0.6,189 0.6,188.9 C0.6,188.7 0.5,188.6 0.5,188.5 C0.5,188.5 0.4,188.4 0.4,188.3 C0.4,188.1 0.3,188 0.3,187.9 C0.2,187.8 0.2,187.7 0.2,187.6 C0.1,187.5 0.2,187.4 0.1,187.3 C0,187.2 0,187.1 0,187 C0,186.9 0,186.8 0,186.7 C0,186.6 0,186.4 0,186.3 C0,186.3 0,186.2 0,186.2 L0,136.3 C0,118.4 14.1,103.6 31.6,102.7 C31.7,102.6 31.7,102.6 31.7,102.5 L49.6,52.3 C53,42.7 63.8,35.1 74,35.1 L209,35.1 C219.2,35.1 230,42.7 233.4,52.3 L251.3,102.5 C251.4,102.6 251.4,102.6 251.4,102.7 C269.2,103.7 283.3,118.4 283.3,136.4 C283.3,140.1 280.3,143.1 276.6,143.1 C272.9,143.1 269.9,140.1 269.9,136.4 C269.9,125.3 260.9,116.2 249.7,116.2 L33.7,116.2 C22.6,116.2 13.5,125.2 13.5,136.4 L13.5,182 C84.7,214.5 196.2,214.7 268.1,182.8 L256.2,172.9 C253.3,170.5 252.9,166.3 255.3,163.4 C257.7,160.5 261.9,160.1 264.8,162.5 L281,176 z" fill="#000000"/>
  </g>
</svg>
