<?xml version="1.0" encoding="UTF-8"?>
<!DOCTYPE svg PUBLIC "-//W3C//DTD SVG 1.1//EN" "http://www.w3.org/Graphics/SVG/1.1/DTD/svg11.dtd">
<svg version="1.1" xmlns="http://www.w3.org/2000/svg" xmlns:xlink="http://www.w3.org/1999/xlink" x="0" y="0" width="283.5" height="283.5" viewBox="0, 0, 283.5, 283.5">
  <g id="Background">
    <rect x="0" y="0" width="283.5" height="283.5" fill="#FFFFFF"/>
  </g>
  <g id="Layer_1">
    <path d="M276.1,249 L14.8,249 L14.8,25.8 C14.8,21.7 11.5,18.4 7.4,18.4 C3.3,18.4 0,21.7 0,25.8 L0,263.8 L276.1,263.8 C280.2,263.8 283.5,260.5 283.5,256.4 C283.5,252.3 280.2,249 276.1,249 z M45,198.9 C42.1,201.7 37.4,201.5 35,198.9 C32.2,195.9 32.3,191.2 35.3,188.4 L63,162.2 C67.2,158.1 72.7,156.3 78,157.2 C83.2,158.1 87.9,161.5 90.6,166.7 L103,190.2 C103.6,191.3 104.4,192 105.3,192.2 C106.2,192.4 107.2,192 108.2,191.2 L148.2,157.4 C156.4,150.4 169.7,150 178.4,156.3 L198.9,171.2 C200,172 201.1,172.3 202.2,172 C203.2,171.7 204.1,170.9 204.7,169.7 L237.1,104.7 C238.9,101.1 243.3,99.6 247,101.4 C250.6,103.2 252.1,107.6 250.3,111.3 L217.9,176.3 C215.3,181.4 210.9,185 205.6,186.3 C200.3,187.5 194.6,186.4 190,183 L169.5,168.1 C166.3,165.7 160.6,165.9 157.5,168.5 L117.4,202.3 C113.9,205.2 109.7,206.8 105.4,206.8 C104.3,206.8 103.2,206.7 102.1,206.5 C96.8,205.5 92.2,202 89.5,196.9 L77.1,173.4 C76.5,172.4 75.8,171.7 75.1,171.6 C74.4,171.5 73.6,171.9 72.7,172.7 L45,198.9 z" fill="#000000"/>
  </g>
</svg>
