<?xml version="1.0" encoding="UTF-8"?>
<!DOCTYPE svg PUBLIC "-//W3C//DTD SVG 1.1//EN" "http://www.w3.org/Graphics/SVG/1.1/DTD/svg11.dtd">
<svg version="1.1" xmlns="http://www.w3.org/2000/svg" xmlns:xlink="http://www.w3.org/1999/xlink" x="0" y="0" width="283.5" height="283.5" viewBox="0, 0, 283.5, 283.5">
  <g id="Background">
    <rect x="0" y="0" width="283.5" height="283.5" fill="#FFFFFF"/>
  </g>
  <g id="Layer_1">
    <path d="M188.6,227.3 C192.5,227.3 195.6,230.4 195.7,234.4 C195.7,238.3 192.5,241.5 188.6,241.5 L94.9,241.5 C91,241.5 87.8,238.3 87.8,234.4 C87.8,230.5 91,227.3 94.9,227.3 L188.6,227.3 z M155.1,85.8 C151.2,85.8 148,89 148,92.9 L148,166.3 L135.2,166.3 L135.2,137.5 C135.2,133.6 132,130.4 128.1,130.4 C124.2,130.4 121,133.6 121,137.5 L121,166.3 L108.3,166.3 L108.3,122.8 C108.3,118.9 105.1,115.7 101.2,115.7 C97.3,115.7 94.1,118.9 94.1,122.8 L94.1,166.3 L48.1,166.3 C44.2,166.3 41,169.5 41,173.4 C41,177.3 44.2,180.5 48.1,180.5 L235.3,180.5 C239.2,180.5 242.4,177.3 242.4,173.4 C242.4,169.5 239.2,166.3 235.3,166.3 L189.1,166.3 L189.1,116.5 C189.1,112.6 186,109.4 182,109.4 C178.1,109.4 174.9,112.6 174.9,116.5 L174.9,166.3 L162.2,166.3 L162.2,92.9 C162.2,89 159,85.8 155.1,85.8 z M255.2,56.2 C263,56.2 269.3,62.6 269.3,70.4 L269.3,183.5 C269.3,191.3 263,197.6 255.2,197.6 L28.3,197.6 C20.5,197.6 14.1,191.2 14.1,183.5 L14.1,70.4 C14.1,62.6 20.5,56.2 28.3,56.2 L255.2,56.2 z M255.2,42.1 L28.3,42.1 C12.7,42.1 0,54.8 0,70.4 L0,183.5 C0,199.1 12.7,211.8 28.3,211.8 L255.2,211.8 C270.8,211.8 283.5,199.1 283.5,183.5 L283.5,70.4 C283.5,54.8 270.8,42.1 255.2,42.1 z" fill="#000000"/>
  </g>
</svg>
