<?xml version="1.0" encoding="UTF-8"?>
<!DOCTYPE svg PUBLIC "-//W3C//DTD SVG 1.1//EN" "http://www.w3.org/Graphics/SVG/1.1/DTD/svg11.dtd">
<svg version="1.1" xmlns="http://www.w3.org/2000/svg" xmlns:xlink="http://www.w3.org/1999/xlink" x="0" y="0" width="283.5" height="283.5" viewBox="0, 0, 283.5, 283.5">
  <g id="Background">
    <rect x="0" y="0" width="283.5" height="283.5" fill="#FFFFFF"/>
  </g>
  <g id="Layer_1">
    <path d="M170.2,137 C177.7,137 185.3,142.3 187.8,149.4 L198.4,179.2 C209.9,180.7 218.9,190.6 218.6,202.6 L218.6,227.8 C218.6,240.7 208.1,251.3 195.1,251.3 L193.5,251.3 L193.5,268 C193.5,271.7 190.5,274.7 186.8,274.7 C183.1,274.7 180.1,271.7 180.1,268 L180.1,251.3 L103.1,251.3 L103.1,268 C103.1,271.7 100.1,274.7 96.4,274.7 C92.7,274.7 89.7,271.7 89.7,268 L89.7,251.2 L88.1,251.2 C75.2,251.2 64.6,240.7 64.6,227.7 L64.6,202.5 C64.6,190.6 73.5,180.7 85.1,179.2 L95.7,149.4 C98.2,142.3 105.8,137 113.3,137 L170.2,137 z M195.4,192.5 L88.1,192.5 C82.6,192.5 78.1,197 78.1,202.5 L78.1,227.7 C78.1,233.2 82.6,237.7 88.1,237.7 L195.4,237.7 C200.9,237.7 205.4,233.2 205.4,227.7 L205.4,227.7 L205.4,202.5 C205.4,197 200.9,192.5 195.4,192.5 z M97.8,206 C103.3,206 107.7,210.4 107.7,215.9 C107.7,221.4 103.3,225.8 97.8,225.8 C92.3,225.8 87.9,221.4 87.9,215.9 C87.9,210.4 92.3,206 97.8,206 z M185.6,206 C191.1,206 195.5,210.4 195.5,215.9 C195.5,221.4 191.1,225.8 185.6,225.8 C180.1,225.8 175.7,221.4 175.7,215.9 C175.7,210.4 180.1,206 185.6,206 z M170.2,150.6 L113.3,150.6 C111.5,150.6 109,152.3 108.4,154 L99.5,179 L184,179 L175.1,154 C174.5,152.4 172,150.6 170.2,150.6 z M142.691,8.975 C140.675,8.975 139.659,8.901 137.9,10.1 L2.9,102.6 C-0.2,104.7 -1,108.9 1.1,112 C3.2,115.1 7.4,115.9 10.5,113.8 L25.8,103.3 L25.8,215.5 C25.8,219.2 28.8,222.2 32.5,222.2 L44.2,222.2 C47.9,222.2 50.9,219.2 50.9,215.5 C50.9,211.8 47.9,208.8 44.2,208.8 L39.3,208.8 L39.3,94 L141.7,23.8 L244.1,94 L244.1,208.7 L239.2,208.7 C235.5,208.7 232.5,211.7 232.5,215.4 C232.5,219.1 235.5,222.1 239.2,222.1 L250.9,222.1 C254.6,222.1 257.6,219.1 257.6,215.4 L257.6,103.3 L272.9,113.8 C274.1,114.6 275.4,115 276.7,115 C278.9,115 281,114 282.3,112.1 C284.4,108.9 283.6,104.7 280.5,102.6 L145.5,10.1 C144.03,9.236 144.937,9.678 142.691,8.975 z" fill="#010202"/>
  </g>
</svg>
