<?xml version="1.0" encoding="UTF-8"?>
<!DOCTYPE svg PUBLIC "-//W3C//DTD SVG 1.1//EN" "http://www.w3.org/Graphics/SVG/1.1/DTD/svg11.dtd">
<svg version="1.1" xmlns="http://www.w3.org/2000/svg" xmlns:xlink="http://www.w3.org/1999/xlink" x="0" y="0" width="283.5" height="283.5" viewBox="0, 0, 283.5, 283.5">
  <g id="Background">
    <rect x="0" y="0" width="283.5" height="283.5" fill="#FFFFFF"/>
  </g>
  <g id="Layer_1">
    <path d="M227.4,104.4 C231.1,104.4 234.1,107.4 234.1,111.1 L234.1,258.2 L258.9,258.2 C262.6,258.2 265.6,261.2 265.5,264.9 C265.5,268.6 262.5,271.6 258.8,271.6 L6.7,271.6 C3,271.6 -0,268.6 -0,264.9 C-0,261.2 3,258.2 6.7,258.2 L31.6,258.2 L31.6,188.8 C31.6,185.1 34.6,182.1 38.3,182.1 C42,182.1 45,185.1 45,188.8 L45,258.2 L78.9,258.2 L78.9,180 C78.9,176.3 81.9,173.3 85.6,173.3 C89.3,173.3 92.3,176.3 92.3,180 L92.3,258.2 L126.3,258.2 L126.3,163.8 C126.3,160.1 129.3,157.1 133,157.1 C136.7,157.1 139.7,160.1 139.7,163.8 L139.7,258.2 L173.5,258.2 L173.5,141.8 C173.5,138.1 176.5,135.1 180.2,135.1 C183.9,135.1 186.9,138.1 186.9,141.8 L186.9,258.2 L220.7,258.2 L220.7,111.1 C220.7,107.4 223.7,104.4 227.4,104.4 z M276.7,11.8 L225,11.8 C221.3,11.8 218.3,14.8 218.3,18.5 C218.3,22.2 221.3,25.2 225,25.2 L258.6,25.2 C189.9,107.2 101,152.2 6.7,152.2 C3,152.2 -0,155.2 -0,158.9 C-0,162.6 3,165.6 6.7,165.6 C105.5,165.6 198.5,118.5 269.9,32.7 L269.9,70.1 C269.9,73.8 272.9,76.8 276.6,76.8 C280.3,76.8 283.3,73.8 283.3,70.1 L283.3,18.5 C283.5,14.8 280.4,11.8 276.7,11.8 z" fill="#010202"/>
  </g>
</svg>
