<?xml version="1.0" encoding="UTF-8"?>
<!DOCTYPE svg PUBLIC "-//W3C//DTD SVG 1.1//EN" "http://www.w3.org/Graphics/SVG/1.1/DTD/svg11.dtd">
<svg version="1.1" xmlns="http://www.w3.org/2000/svg" xmlns:xlink="http://www.w3.org/1999/xlink" x="0" y="0" width="283.5" height="283.5" viewBox="0, 0, 283.5, 283.5">
  <g id="Background">
    <rect x="0" y="0" width="283.5" height="283.5" fill="#FFFFFF"/>
  </g>
  <g id="Layer_1">
    <path d="M253.6,120.6 L243,90.9 C240.5,83.9 233,78.6 225.5,78.6 L168.9,78.6 C161.4,78.6 153.9,83.9 151.4,90.9 L140.8,120.5 C129.3,122 120.4,131.8 120.4,143.7 L120.4,168.7 C120.4,181.6 130.9,192.1 143.8,192.1 L143.8,208.8 C143.8,212.5 146.8,215.5 150.5,215.5 C154.2,215.5 157.2,212.5 157.2,208.8 L157.2,192.1 L233.8,192.1 L233.8,208.8 C233.8,212.5 236.8,215.5 240.5,215.5 C244.2,215.5 247.2,212.5 247.2,208.8 L247.2,192.1 L250.5,192.1 C263.4,192.1 273.9,181.6 273.9,168.7 L273.9,143.7 C274,131.9 265.1,122 253.6,120.6 z M164,95.4 C164.6,93.7 167.1,92 168.8,92 L225.4,92 C227.2,92 229.6,93.8 230.2,95.4 L239.1,120.3 L155,120.3 L164,95.4 z M260.5,168.8 C260.5,174.3 256,178.8 250.5,178.8 L143.8,178.8 C138.3,178.8 133.8,174.3 133.8,168.8 L133.8,143.8 C133.8,138.3 138.3,133.8 143.8,133.8 L250.5,133.8 C256,133.8 260.5,138.3 260.5,143.8 L260.5,168.8 z M240.5,148.7 C245.1,148.7 248.9,152.4 248.9,157.1 C248.9,161.8 245.1,165.5 240.5,165.5 C235.9,165.5 232.2,161.7 232.2,157.1 C232.2,152.4 235.9,148.7 240.5,148.7 z M150.5,148.7 C155.1,148.7 158.8,152.4 158.9,157.1 C158.9,161.8 155.1,165.5 150.5,165.5 C145.9,165.5 142.2,161.7 142.2,157.1 C142.2,152.4 145.9,148.7 150.5,148.7 z M267.2,229.1 C271,229.1 273.7,232 273.7,235.7 C273.7,239.4 270.7,242.4 267,242.4 L157,242.4 L157,276 C157,276.3 157,276.5 157,276.7 C157,276.8 157,276.9 157,277 C156.9,277.2 156.9,277.3 156.9,277.4 C156.9,277.5 156.8,277.6 156.8,277.7 C156.8,277.8 156.7,277.9 156.7,278 C156.7,278.1 156.6,278.2 156.6,278.3 C156.6,278.4 156.5,278.5 156.5,278.6 C156.5,278.7 156.4,278.8 156.4,278.9 C156.4,279 156.4,279.1 156.3,279.2 C156.2,279.3 156.2,279.4 156.1,279.5 C156,279.6 156,279.7 155.9,279.8 C155.9,279.9 155.8,280 155.7,280.1 C155.7,280.2 155.7,280.2 155.6,280.3 C155.4,280.6 155,280.9 154.7,281.2 C154.6,281.2 154.6,281.3 154.5,281.3 C154.4,281.3 154.3,281.4 154.2,281.5 C154.1,281.6 154,281.6 153.9,281.7 C153.8,281.8 153.7,281.8 153.6,281.9 C153.5,281.9 153.4,282 153.3,282 C153.2,282 153.1,282.1 153,282.1 C152.9,282.1 152.8,282.2 152.7,282.2 C152.6,282.2 152.5,282.3 152.4,282.3 C152.3,282.4 152.2,282.4 152.1,282.4 C152,282.4 151.9,282.5 151.8,282.5 C151.7,282.6 151.6,282.6 151.5,282.6 C151.4,282.6 151.3,282.6 151.2,282.6 C150.9,282.6 150.7,282.6 150.5,282.6 C150.2,282.6 150,282.6 149.8,282.6 C149.7,282.6 149.6,282.6 149.5,282.6 C149.4,282.5 149.3,282.5 149.2,282.5 C149.1,282.5 149,282.4 148.9,282.4 C148.8,282.4 148.7,282.3 148.6,282.3 C148.5,282.3 148.4,282.2 148.3,282.2 C148.2,282.2 148.1,282.1 148,282.1 C147.9,282.1 147.8,282 147.7,282 C147.6,282 147.5,282 147.4,281.9 C147.3,281.8 147.2,281.8 147.1,281.7 C147,281.6 146.9,281.6 146.8,281.5 C146.7,281.5 146.6,281.4 146.5,281.3 C146.4,281.3 146.4,281.3 146.3,281.2 C146.1,281 146,280.9 145.8,280.7 L11.5,146.4 C10.2,145.2 9.5,143.5 9.5,141.7 C9.5,140 10.2,138.3 11.5,137 L146,2.6 C146,2.6 146,2.6 146,2.6 C146.1,2.5 146.2,2.3 146.4,2.2 C146.4,2.1 146.5,2.1 146.6,2 C146.7,1.9 146.8,1.9 146.9,1.8 C147,1.7 147.1,1.7 147.2,1.6 C147.3,1.5 147.4,1.5 147.5,1.4 C147.6,1.4 147.7,1.3 147.8,1.3 C147.9,1.3 148,1.2 148.1,1.2 C148.2,1.2 148.3,1.1 148.4,1.1 C148.5,1.1 148.6,1 148.7,1 C148.8,0.9 148.9,0.9 149,0.9 C149.2,0.9 149.3,0.8 149.4,0.8 C149.5,0.8 149.6,0.8 149.7,0.8 C149.8,0.8 149.9,0.8 150,0.8 C150.1,0.8 150.3,0.8 150.5,0.8 C150.5,0.8 150.6,0.8 150.6,0.8 C150.6,0.8 150.7,0.8 150.7,0.8 C150.8,0.8 151,0.8 151.2,0.8 C151.3,0.8 151.4,0.8 151.5,0.8 C151.6,0.8 151.7,0.8 151.8,0.8 C152,0.8 152.1,0.9 152.2,0.9 C152.3,1 152.4,1 152.5,1 C152.6,1 152.7,1.1 152.8,1.1 C152.9,1.1 153,1.2 153.1,1.2 C153.2,1.2 153.3,1.3 153.4,1.3 C153.5,1.3 153.6,1.3 153.7,1.4 C153.8,1.5 153.9,1.5 154,1.6 C154.1,1.7 154.2,1.7 154.3,1.8 C154.4,1.9 154.5,1.9 154.6,2 C154.6,2.1 154.7,2.1 154.8,2.2 C154.9,2.3 155.1,2.5 155.2,2.6 C155.2,2.6 155.2,2.6 155.2,2.6 C155.2,2.6 155.2,2.6 155.2,2.6 C155.3,2.7 155.5,2.8 155.6,3 C155.7,3.1 155.7,3.2 155.8,3.3 C155.9,3.4 155.9,3.5 156,3.6 C156.1,3.7 156.1,3.8 156.2,3.9 C156.3,4 156.4,4.1 156.4,4.2 C156.5,4.3 156.6,4.4 156.6,4.5 C156.6,4.6 156.7,4.7 156.7,4.8 C156.7,4.9 156.8,5 156.8,5.1 C156.8,5.2 156.9,5.3 156.9,5.4 C157,5.5 157,5.6 157,5.7 C157,5.8 157.1,5.9 157.1,6 C157.2,6.2 157.2,6.3 157.2,6.4 C157.2,6.5 157.2,6.6 157.2,6.7 C157.2,7 157.2,7.2 157.2,7.4 L157.2,7.4 L157.2,41 L267.2,41 C270.9,41 273.9,44 273.9,47.7 C273.9,51.4 270.9,54.4 267.2,54.4 L150.5,54.4 C146.8,54.4 143.8,51.4 143.8,47.7 L143.8,23.6 L25.7,141.7 L143.8,259.9 L143.8,235.8 C143.8,232.1 146.8,229.1 150.5,229.1 L267.2,229.1 z" fill="#000000"/>
  </g>
</svg>
