<?xml version="1.0" encoding="UTF-8"?>
<!DOCTYPE svg PUBLIC "-//W3C//DTD SVG 1.1//EN" "http://www.w3.org/Graphics/SVG/1.1/DTD/svg11.dtd">
<svg version="1.1" xmlns="http://www.w3.org/2000/svg" xmlns:xlink="http://www.w3.org/1999/xlink" x="0" y="0" width="283.5" height="283.5" viewBox="0, 0, 283.5, 283.5">
  <g id="Background">
    <rect x="0" y="0" width="283.5" height="283.5" fill="#FFFFFF"/>
  </g>
  <g id="Ebene_2">
    <path d="M270.2,140.5 L221.1,90.9 C217.8,87.6 213.2,85.7 208.5,85.7 L96.1,85.7 C86,85.7 77.7,94 77.7,104.1 L77.7,172.9 C77.7,183 86,191.3 96.1,191.3 L98.7,191.3 C101.2,197.3 107.2,201.5 114.1,201.5 C121,201.5 126.9,197.3 129.5,191.3 L226.1,191.3 C228.6,197.3 234.6,201.5 241.5,201.5 C248.4,201.5 254.4,197.2 256.9,191.2 L257.3,191.2 C267.4,191.2 275.7,182.9 275.7,172.8 L275.7,153.8 C275.7,148.8 273.7,144 270.2,140.5 z M219.3,107.6 L252.9,141.5 L226.1,141.5 C222.4,141.5 219.3,138.4 219.3,134.7 L219.3,107.6 z M114.1,188.5 C112.1,188.5 110.4,186.8 110.4,184.8 C110.4,182.8 112.1,181.1 114.1,181.1 C116.1,181.1 117.8,182.8 117.8,184.8 C117.8,186.8 116.1,188.5 114.1,188.5 z M241.5,188.5 C239.5,188.5 237.8,186.8 237.8,184.8 C237.8,182.8 239.5,181.1 241.5,181.1 C243.5,181.1 245.2,182.8 245.2,184.8 C245.2,186.8 243.5,188.5 241.5,188.5 z M257.3,178.2 L256.8,178.2 C254.2,172.3 248.3,168.1 241.5,168.1 C234.6,168.1 228.7,172.3 226.1,178.3 L129.5,178.3 C127,172.3 121,168.1 114.1,168.1 C107.2,168.1 101.3,172.3 98.7,178.3 L96.1,178.3 C93.1,178.3 90.7,175.9 90.7,172.9 L90.7,104.1 C90.7,101.1 93.1,98.7 96.1,98.7 L206.3,98.7 L206.3,134.7 C206.3,145.6 215.2,154.5 226.1,154.5 L262.7,154.5 L262.7,172.8 C262.7,175.8 260.3,178.2 257.3,178.2 z M194.3,207.8 C197.9,207.8 200.8,210.7 200.8,214.3 C200.8,217.9 197.9,220.8 194.3,220.8 L111,220.8 L111,236.1 C111,238.7 109.4,241.1 107,242.1 C106.2,242.4 105.3,242.6 104.5,242.6 C102.8,242.6 101.1,241.9 99.9,240.7 L6.3,147 C3.8,144.4 3.8,140.3 6.3,137.8 L99.3,44.7 C101.2,42.9 104,42.3 106.4,43.3 C108.8,44.3 110.4,46.7 110.4,49.3 L110.5,64.6 L194.3,64.6 C197.9,64.6 200.8,67.5 200.8,71.1 C200.8,74.7 197.9,77.6 194.3,77.6 L104,77.6 C100.4,77.6 97.5,74.7 97.5,71.1 L97.5,64.9 L20.1,142.4 L98,220.4 L98,214.3 C98,210.7 100.9,207.8 104.5,207.8 L194.3,207.8 z" fill="#000000"/>
  </g>
</svg>
