<?xml version="1.0" encoding="UTF-8"?>
<!DOCTYPE svg PUBLIC "-//W3C//DTD SVG 1.1//EN" "http://www.w3.org/Graphics/SVG/1.1/DTD/svg11.dtd">
<svg version="1.1" xmlns="http://www.w3.org/2000/svg" xmlns:xlink="http://www.w3.org/1999/xlink" x="0" y="0" width="283.5" height="283.5" viewBox="0, 0, 283.5, 283.5">
  <g id="Background">
    <rect x="0" y="0" width="283.5" height="283.5" fill="#FFFFFF"/>
  </g>
  <g id="Layer_1">
    <path d="M246.8,231.2 C243.3,231.2 240.5,228.4 240.5,224.9 L240.5,199.8 L124,199.8 L124,224.9 C124,228.4 121.2,231.2 117.7,231.2 C114.2,231.2 111.4,228.4 111.4,224.9 L111.4,199.8 L107.6,199.8 C99.5,199.8 92.2,196.2 87.3,190.4 C82.4,196.1 75.2,199.8 67.1,199.8 L6.3,199.8 C2.8,199.8 -0,197 -0,193.5 L-0,58.6 C-0,55.1 2.8,52.3 6.3,52.3 L48.5,52.3 C59,52.3 70.2,59.3 73.8,68.1 L93.1,115.1 C93.1,115.2 93.2,115.3 93.2,115.4 C96.6,113.2 100.5,111.8 104.7,111.4 L120.1,68.4 C123.3,59.4 133.4,52.3 143,52.3 L221.5,52.3 C231.1,52.3 241.1,59.4 244.4,68.4 L259.8,111.4 C273.1,112.8 283.6,124.1 283.6,137.8 L283.6,173.2 C283.6,187.9 271.7,199.8 257,199.8 L253.2,199.8 L253.2,224.9 C253.1,228.4 250.3,231.2 246.8,231.2 z M93.6,173.2 C93.6,180.9 99.8,187.1 107.5,187.1 L256.8,187.1 C264.5,187.1 270.7,180.9 270.7,173.2 L270.7,137.8 C270.7,130.1 264.5,123.9 256.8,123.9 L107.6,123.9 C99.9,123.9 93.7,130.1 93.7,137.8 L93.7,173.2 z M12.7,187.2 L67.1,187.2 C74.8,187.2 81,181 81,173.3 C81,173.2 81,173.2 81,173.1 L81,124 L12.7,124 L12.7,187.2 z M118.3,111.2 L246.2,111.2 L232.4,72.6 C231,68.6 225.7,64.9 221.5,64.9 L143,64.9 C138.7,64.9 133.5,68.6 132,72.6 L118.3,111.2 z M12.7,111.2 L77.9,111.2 L62.1,72.9 C60.6,69.1 54.4,64.9 48.5,64.9 L12.7,64.9 L12.7,111.2 z M239.2,174.3 C228.7,174.3 220.2,165.8 220.2,155.3 C220.2,144.8 228.7,136.3 239.2,136.3 C249.7,136.3 258.2,144.8 258.2,155.3 C258.2,165.8 249.6,174.3 239.2,174.3 z M239.2,149 C235.7,149 232.9,151.8 232.9,155.3 C232.9,158.8 235.7,161.6 239.2,161.6 C242.7,161.6 245.5,158.8 245.5,155.3 C245.5,151.9 242.7,149 239.2,149 z M125.3,174.3 C114.8,174.3 106.3,165.8 106.3,155.3 C106.3,144.8 114.8,136.3 125.3,136.3 C135.8,136.3 144.3,144.8 144.3,155.3 C144.3,165.8 135.7,174.3 125.3,174.3 z M125.3,149 C121.8,149 119,151.8 119,155.3 C119,158.8 121.8,161.6 125.3,161.6 C128.8,161.6 131.6,158.8 131.6,155.3 C131.6,151.9 128.8,149 125.3,149 z" fill="#010202"/>
  </g>
</svg>
