<?xml version="1.0" encoding="UTF-8"?>
<!DOCTYPE svg PUBLIC "-//W3C//DTD SVG 1.1//EN" "http://www.w3.org/Graphics/SVG/1.1/DTD/svg11.dtd">
<svg version="1.1" xmlns="http://www.w3.org/2000/svg" xmlns:xlink="http://www.w3.org/1999/xlink" x="0" y="0" width="283.5" height="283.5" viewBox="0, 0, 283.5, 283.5">
  <g id="Background">
    <rect x="0" y="0" width="283.5" height="283.5" fill="#FFFFFF"/>
  </g>
  <g id="Layer_1">
    <path d="M120.2,155.9 C124.1,155.9 127.3,159 127.3,163 L127.3,247.9 C127.3,251.8 124.1,255 120.2,255 L7,255 C3.1,255 -0.1,251.8 -0.1,247.9 L-0.1,163 C-0.1,159.1 3.1,155.9 7,155.9 L120.2,155.9 z M113.2,170 L14.1,170 L14.1,240.8 L113.2,240.8 L113.2,170 z M268.8,170 L268.8,240.8 L169.7,240.8 L169.7,170 L268.8,170 z M275.9,155.9 L162.7,155.9 C158.8,155.9 155.6,159.1 155.6,163 L155.6,247.9 C155.6,251.8 158.8,255 162.7,255 L275.9,255 C279.8,255 283,251.8 283,247.9 L283,163 C283,159 279.8,155.9 275.9,155.9 z M275.9,28.5 L162.7,28.5 C158.8,28.5 155.6,31.7 155.6,35.6 L155.6,120.5 C155.6,124.4 158.8,127.6 162.7,127.6 L275.9,127.6 C279.8,127.6 283,124.4 283,120.5 L283,35.6 C283,31.7 279.8,28.5 275.9,28.5 z M113.2,42.7 L113.2,113.4 L14.1,113.4 L14.1,42.7 L113.2,42.7 z M120.2,28.5 L7,28.5 C3.1,28.5 -0.1,31.7 -0.1,35.6 L-0.1,120.5 C-0.1,124.4 3.1,127.6 7,127.6 L120.2,127.6 C124.1,127.6 127.3,124.4 127.3,120.5 L127.3,35.6 C127.3,31.7 124.1,28.5 120.2,28.5 z" fill="#000000"/>
  </g>
</svg>
