<?xml version="1.0" encoding="UTF-8"?>
<!DOCTYPE svg PUBLIC "-//W3C//DTD SVG 1.1//EN" "http://www.w3.org/Graphics/SVG/1.1/DTD/svg11.dtd">
<svg version="1.1" xmlns="http://www.w3.org/2000/svg" xmlns:xlink="http://www.w3.org/1999/xlink" x="0" y="0" width="283.5" height="283.5" viewBox="0, 0, 283.5, 283.5">
  <g id="Background">
    <rect x="0" y="0" width="283.5" height="283.5" fill="#FFFFFF"/>
  </g>
  <g id="Layer_1">
    <path d="M280.6,149.1 C272.7,130.2 255.2,118.4 234.9,118.1 C234.6,118.1 234.3,118 234,118 C223.8,118 213.1,119 200.8,120.1 C193.4,120.8 185.5,121.5 176.9,122.1 L138.6,85.4 C136,83 132,83 129.6,85.6 C127.2,88.1 127.2,92.2 129.8,94.6 L159.4,123 C155.8,123.1 152.1,123.2 148.3,123.2 C127.7,123.3 110.5,120.9 95.3,118.7 C88.7,117.8 82.5,116.9 76.7,116.3 L76.7,106.5 C76.7,103 73.8,100.1 70.3,100.1 C66.8,100.1 63.9,103 63.9,106.5 L63.9,115.5 C63.5,115.5 63,115.5 62.6,115.5 C28.1,115.5 -0,143.6 -0,178.2 C-0,181.7 2.9,184.6 6.4,184.6 L34.3,184.6 C37,193.5 45.3,199.9 55.1,199.9 C64.9,199.9 73.1,193.4 75.9,184.6 L205.7,184.6 C208.4,193.5 216.7,199.9 226.5,199.9 C236.3,199.9 244.5,193.4 247.3,184.6 L262.3,184.6 C262.4,184.6 262.4,184.6 262.5,184.6 C269.9,184.5 276.1,181.3 279.9,175.7 C284.4,168.7 284.7,158.8 280.6,149.1 z M55,187.1 C50.1,187.1 46,183.1 46,178.1 C46,173.2 50,169.1 55,169.1 C59.9,169.1 63.9,173.1 64,178 C64,178 64,178 64,178 C64,178 64,178 64,178 C64,183.1 60,187.1 55,187.1 z M226.4,187.1 C221.5,187.1 217.4,183.1 217.4,178.1 C217.4,173.2 221.4,169.1 226.4,169.1 C231.4,169.1 235.4,173.1 235.4,178.1 C235.3,183.1 231.3,187.1 226.4,187.1 z M269.1,168.5 C267.7,170.6 265.3,171.7 262,171.7 L247.2,171.7 C244.5,162.8 236.2,156.4 226.4,156.4 C216.6,156.4 208.4,162.9 205.6,171.7 L75.8,171.7 C73.1,162.8 64.8,156.4 55,156.4 C45.2,156.4 37,162.9 34.2,171.7 L13.2,171.7 C16.4,147.2 37.3,128.2 62.7,128.2 C71.9,128.2 82,129.6 93.6,131.3 C108.9,133.5 126.3,135.9 147.2,135.9 C147.6,135.9 148,135.9 148.4,135.9 C169.4,135.8 186.7,134.2 202,132.8 C213.7,131.7 223.9,130.8 233.3,130.8 C233.5,130.8 233.8,130.8 234,130.8 C249.4,130.8 262.7,139.7 268.7,154 C271.2,159.7 271.3,165.2 269.1,168.5 z" fill="#010202"/>
  </g>
</svg>
