<?xml version="1.0" encoding="UTF-8"?>
<!DOCTYPE svg PUBLIC "-//W3C//DTD SVG 1.1//EN" "http://www.w3.org/Graphics/SVG/1.1/DTD/svg11.dtd">
<svg version="1.1" xmlns="http://www.w3.org/2000/svg" xmlns:xlink="http://www.w3.org/1999/xlink" x="0" y="0" width="283.5" height="283.5" viewBox="0, 0, 283.5, 283.5">
  <g id="Background">
    <rect x="0" y="0" width="283.5" height="283.5" fill="#FFFFFF"/>
  </g>
  <g id="Layer_1">
    <path d="M47.9,228.7 C59,228.7 68.1,237.8 68.1,248.9 C68.1,260.1 59,269.1 47.9,269.1 C36.8,269.1 27.7,260 27.7,248.9 C27.7,237.8 36.8,228.7 47.9,228.7 L47.9,228.7 z M47.9,242.2 C44.2,242.2 41.2,245.2 41.2,248.9 C41.2,252.6 44.2,255.6 47.9,255.6 C51.6,255.6 54.6,252.6 54.6,248.9 C54.6,245.2 51.6,242.2 47.9,242.2 L47.9,242.2 z M236.3,242.2 C240.1,242.2 243,245.2 243,248.9 C243,252.6 240,255.6 236.3,255.6 C232.6,255.6 229.6,252.6 229.6,248.9 C229.6,245.2 232.6,242.2 236.3,242.2 z M236.3,228.7 C225.2,228.7 216.1,237.8 216.1,248.9 C216.1,260 225.2,269.1 236.3,269.1 C247.5,269.1 256.5,260.1 256.5,248.9 C256.5,237.8 247.4,228.7 236.3,228.7 z M210.85,67.336 C211.649,67.672 212.526,67.862 213.246,68.344 C215.143,69.615 216.11,71.68 216.2,73.9 L216.2,73.901 L216.2,94.1 L202.7,94.1 L202.7,74.891 L202.8,73.9 C202.8,70.2 205.8,67.2 209.5,67.2 L210.85,67.336 z M195.009,107.5 L196,107.6 L196.99,107.5 L221.909,107.5 L222.9,107.6 L223.89,107.5 L245.2,107.5 L266.835,161.5 L222.8,161.5 C219.1,161.5 216.1,164.5 216.1,168.2 C216.1,171.9 219.1,174.9 222.8,174.9 L270,174.9 L270,201.8 L175.7,201.8 L175.7,107.5 L195.009,107.5 z M15.8,48.6 C14.288,48.752 14.867,48.561 14.001,48.925 C12.788,49.242 11.875,49.537 11,50.5 C10.06,51.655 9.01,52.988 9.172,54.587 L9.1,55.3 L9.1,124.5 C9.239,125.875 9.061,125.433 9.265,125.919 C9.641,133.508 14.873,140.145 21.7,143.1 L21.956,143.171 C23.446,143.889 24.686,145.035 25.3,146.6 C26.8,150 25.1,154 21.7,155.4 C18.3,156.9 14.3,155.2 12.9,151.8 C11.5,148.4 7.5,146.8 4.1,148.2 C0.7,149.6 -0.9,153.6 0.5,157 C3.7,164.8 11.3,169.5 19.2,169.5 C21.8,169.5 24.4,169 26.8,167.9 C37.1,163.6 42,151.8 37.7,141.5 C35.7,136.6 31.8,132.7 26.8,130.6 L26.559,130.521 C24.254,129.311 22.769,127.129 22.7,124.5 C22.634,124.096 22.567,123.692 22.501,123.288 C22.5,123.287 22.5,123.287 22.5,123.286 L22.5,71.507 L152.807,201.9 L7.5,201.9 C3.8,201.9 0.8,204.9 0.8,208.6 C0.8,212.3 3.8,215.3 7.5,215.3 L168.999,215.3 L169,215.3 L276.7,215.3 L277.151,215.255 C280.735,214.895 283.335,212.214 283.5,208.6 L283.495,208.55 L283.5,208.5 L283.5,168.1 C283.5,167.2 283.3,166.4 283,165.6 L256.1,98.3 C255,95.8 252.6,94.1 249.8,94.1 L229.6,94.1 L229.6,75.235 L229.8,73.9 C229.8,62.8 220.7,53.7 209.6,53.7 C199.162,54.233 190.074,61.538 189.473,72.461 C189.261,72.967 189.439,72.518 189.3,73.9 L189.3,94.1 L169,94.1 C165.3,94.1 162.3,97.1 162.3,100.8 L162.3,192.3 L20.5,50.5 C18.779,49.099 19.87,49.815 17.037,48.672 L16.49,48.669 L15.8,48.6 z M263.3,67.2 L249.8,67.2 C246.1,67.2 243.1,70.2 243.1,73.9 C243.1,77.6 246.1,80.6 249.8,80.6 L263.3,80.6 C267,80.6 270,77.6 270,73.9 C270,70.2 267,67.2 263.3,67.2 z M169,67.2 L155.5,67.2 C151.8,67.2 148.8,70.2 148.8,73.9 C148.8,77.6 151.8,80.6 155.5,80.6 L169,80.6 C172.7,80.6 175.7,77.6 175.7,73.9 C175.7,70.2 172.7,67.2 169,67.2 z M171.673,29.268 C169.58,29.336 168.161,29.544 166.6,31.1 C164,33.7 164,38 166.6,40.6 L176.1,50.1 C177.5,51.4 179.2,52.1 180.9,52.1 C182.6,52.1 184.3,51.4 185.6,50.1 C188.2,47.5 188.2,43.2 185.6,40.6 L176.1,31.1 C174.379,29.699 175.47,30.415 172.637,29.272 L171.673,29.268 z M247.773,29.268 C245.68,29.336 244.261,29.544 242.7,31.1 L233.2,40.6 C230.6,43.2 230.6,47.5 233.2,50.1 C234.6,51.4 236.3,52.1 238,52.1 C239.7,52.1 241.4,51.4 242.7,50.1 L252.2,40.6 C254.8,38 254.8,33.7 252.2,31.1 C250.479,29.699 251.57,30.415 248.737,29.272 L247.773,29.268 z M209.4,13.4 C205.7,13.4 202.7,16.4 202.7,20.1 L202.7,33.6 C202.7,37.3 205.7,40.3 209.4,40.3 C213.1,40.3 216.1,37.2 216.1,33.6 L216.1,20.1 C216.1,16.4 213.1,13.4 209.4,13.4 z" fill="#010202"/>
  </g>
</svg>
