<?xml version="1.0" encoding="UTF-8"?>
<!DOCTYPE svg PUBLIC "-//W3C//DTD SVG 1.1//EN" "http://www.w3.org/Graphics/SVG/1.1/DTD/svg11.dtd">
<svg version="1.1" xmlns="http://www.w3.org/2000/svg" xmlns:xlink="http://www.w3.org/1999/xlink" x="0" y="0" width="283.5" height="283.5" viewBox="0, 0, 283.5, 283.5">
  <g id="Background">
    <rect x="0" y="0" width="283.5" height="283.5" fill="#FFFFFF"/>
  </g>
  <g id="Layer_1">
    <path d="M268.7,197.4 C262.7,203.4 256.3,208.9 249.6,214 L228.8,131.6 L273.3,131.6 C276.9,131.6 279.9,128.7 279.9,125 C279.9,121.4 277,118.4 273.3,118.4 L125.3,118.4 L128.4,99 C128.4,99 128.4,99 128.4,99 C128.4,99 128.4,99 128.4,99 C131.1,81.6 126.8,64.1 116.3,49.9 C105.8,35.7 90.4,26.3 73,23.6 C72.9,23.6 72.9,23.6 72.8,23.6 C72.7,23.6 72.7,23.6 72.6,23.6 L40.6,20.4 C40.5,20.4 40.4,20.4 40.3,20.4 C40.2,20.4 40.1,20.3 40,20.3 C39.7,20.3 39.4,20.4 39.1,20.5 C38.6,20.6 38.2,20.6 37.8,20.8 C37.4,20.9 37.1,21.2 36.7,21.4 C36.3,21.6 36,21.8 35.6,22.1 C35.3,22.4 35.1,22.7 34.8,23 C34.5,23.3 34.3,23.7 34.1,24 C33.9,24.4 33.8,24.8 33.7,25.3 C33.6,25.6 33.4,25.9 33.4,26.2 C33.4,26.3 33.4,26.4 33.4,26.5 C33.4,26.6 33.3,26.7 33.3,26.8 C33.3,47.8 25.1,67.5 10.3,82.3 C10.1,82.5 10,82.8 9.8,83.1 C6.1,87.3 4,92.6 4,98.2 C4,104.1 6.3,109.7 10.5,113.9 C14.7,118.1 20.5,120.4 26.3,120.4 C29.4,120.4 32.5,119.8 35.4,118.4 C35.4,118.4 35.4,118.4 35.4,118.4 C35.4,118.4 35.4,118.4 35.4,118.4 L60.9,106.8 L33.9,214 C27.2,209 20.8,203.4 14.8,197.4 C12.2,194.8 8.1,194.8 5.5,197.4 C2.9,200 2.9,204.1 5.5,206.7 C41.9,243.1 90.3,263.2 141.8,263.2 C193.3,263.2 241.7,243.1 278.1,206.7 C280.7,204.1 280.7,200 278.1,197.4 C275.4,194.8 271.3,194.8 268.7,197.4 z M77,96.7 C77.1,96.4 77,96.1 77,95.8 C77.1,95.4 77.1,94.9 77.1,94.5 C77.1,94 76.9,93.6 76.8,93.2 C76.7,92.9 76.7,92.6 76.6,92.4 C76.5,92.3 76.4,92.2 76.4,92.1 C76.2,91.7 75.9,91.4 75.6,91 C75.3,90.7 75.1,90.4 74.8,90.1 C74.5,89.8 74.1,89.7 73.8,89.5 C73.4,89.3 73,89.1 72.6,88.9 C72.5,88.9 72.4,88.8 72.3,88.7 C72,88.6 71.7,88.7 71.5,88.7 C71,88.6 70.6,88.6 70.1,88.6 C69.7,88.6 69.3,88.8 68.9,88.9 C68.6,89 68.3,89 68,89.1 L30,106.4 C30,106.4 30,106.4 30,106.4 C26.6,107.9 22.5,107.2 19.8,104.5 C16.3,101 16.3,95.2 19.8,91.7 C20,91.5 20,91.3 20.2,91.2 C35.5,75.7 44.6,55.7 46.2,34.1 L71.1,36.6 C85,38.7 97.3,46.2 105.7,57.5 C114.1,68.9 117.5,82.8 115.4,96.8 L111.2,123.6 C110.6,127.2 113.1,130.6 116.7,131.1 C117,131.2 117.4,131.2 117.7,131.2 C117.8,131.2 117.8,131.2 117.9,131.2 C118.3,131.3 118.6,131.4 119,131.4 L215.3,131.4 L238,222 C233.2,225.1 228.3,227.9 223.3,230.4 C219.1,189.1 184.1,156.9 141.7,156.9 C99.3,156.9 64.4,189.2 60.1,230.5 C55.1,227.9 50.2,225.1 45.4,222.1 L77,96.7 z M73,236.4 C74.3,199.6 104.6,170 141.7,170 C178.8,170 209.1,199.6 210.4,236.4 C188.9,245.3 165.6,250 141.7,250 C117.8,250 94.5,245.3 73,236.4 z" fill="#010202"/>
  </g>
</svg>
