<?xml version="1.0" encoding="UTF-8"?>
<!DOCTYPE svg PUBLIC "-//W3C//DTD SVG 1.1//EN" "http://www.w3.org/Graphics/SVG/1.1/DTD/svg11.dtd">
<svg version="1.1" xmlns="http://www.w3.org/2000/svg" xmlns:xlink="http://www.w3.org/1999/xlink" x="0" y="0" width="283.5" height="283.5" viewBox="0, 0, 283.5, 283.5">
  <g id="Background">
    <rect x="0" y="0" width="283.5" height="283.5" fill="#FFFFFF"/>
  </g>
  <g id="Layer_1">
    <path d="M61.2,57.5 C84.1,57.5 102.7,76.1 102.7,99 C102.7,108.9 99.4,118 93.6,125.2 L119.6,125.2 C126.6,112 140.4,102.9 156.4,102.9 C179.3,102.9 197.9,121.5 197.9,144.4 C197.9,150.7 196.6,156.6 194.1,162 L242.2,232.5 C243.3,234.2 243.6,236.3 243.1,238.2 C242.6,240.2 241.2,241.8 239.4,242.6 L191.9,264.5 C191.1,264.9 190.2,265.1 189.3,265.1 L128.2,267.2 L62.6,283.3 C62.1,283.4 61.5,283.5 61,283.5 C58.3,283.5 55.8,281.9 54.7,279.3 L0.5,150.1 C-0.3,148.3 -0.2,146.2 0.7,144.4 C1.6,142.6 3.3,141.3 5.2,140.8 L37.2,132.9 C26.2,125.1 19.7,112.7 19.7,99.1 C19.7,76.2 38.3,57.5 61.2,57.5 z M115.3,138.8 L79.9,138.8 C71.6,156.3 66.9,184.5 66.8,184.8 C66.3,188.1 63.4,190.5 60.1,190.5 L60,190.5 C56.6,190.4 53.8,187.9 53.4,184.5 C53.3,184.2 50.6,162.2 44.7,145 L16.2,152.1 L65,268.8 L125.7,253.9 C126.2,253.8 126.6,253.7 127.1,253.7 L187.5,251.6 L226.3,233.5 L185.6,173.8 C183.1,176.3 180.2,178.5 176.9,180.3 C167.4,197.2 162,229.8 161.9,230.1 C161.4,233.4 158.5,235.8 155.2,235.8 L155.1,235.8 C151.7,235.7 148.9,233.2 148.5,229.8 C148.5,229.5 144.4,196.9 135.6,180.1 C135.3,180 135.1,179.9 135.1,179.9 C134.8,179.8 134.6,179.6 134.4,179.5 C122.2,171.9 114.9,158.7 114.9,144.3 C114.9,142.5 115.1,140.6 115.3,138.8 z M156.4,116.6 C141,116.6 128.5,129.1 128.6,144.4 C128.6,154 133.3,162.7 141.4,167.9 C144.1,169.2 145.5,170.1 146.5,171.8 C150.4,178.7 153.5,187.8 155.9,196.7 C158.6,187.8 162.1,178.6 166.3,171.8 C167.5,170 169.2,169 170.6,168.5 C179.2,163.6 184.3,154.7 184.3,144.5 C184.3,129.1 171.8,116.6 156.4,116.6 z M156.779,134.512 L158.328,134.517 C160.499,134.979 162.106,135.957 163.7,137.4 C164.2,137.9 164.6,138.4 165,139 C167.7,143.1 167.3,148.5 163.7,152.1 C161.1,154.7 157.4,155.6 154,154.8 C152.1,154.4 150.4,153.5 149,152.1 C144.9,148 144.9,141.5 149,137.4 C151.684,134.852 153.249,134.638 156.779,134.512 z M61.2,71.3 C45.9,71.3 33.4,83.8 33.4,99.1 C33.4,108.7 38.2,117.4 46.2,122.6 C48.9,123.9 50.3,124.8 51.3,126.5 C52.4,128.4 53.4,130.6 54.4,132.8 C55,133.6 55.5,134.4 55.7,135.4 C55.8,135.7 55.8,135.9 55.8,136.2 C57.7,141 59.3,146.2 60.7,151.4 C63.4,142.5 66.9,133.3 71.1,126.5 C72.3,124.6 73.9,123.6 75.4,123.1 C84,118.2 89.1,109.3 89.1,99.1 C89.1,83.8 76.6,71.3 61.2,71.3 z M61.671,89.181 L63.202,89.188 C65.369,89.631 66.992,90.581 68.6,92 C69.8,93.2 70.6,94.7 71.1,96.2 C71.4,97.2 71.6,98.2 71.6,99.3 C71.6,101.2 71.1,103 70.1,104.7 C69.7,105.4 69.2,106.1 68.6,106.7 C68.1,107.2 67.6,107.6 67,108 C63,110.7 57.4,110.3 53.9,106.7 C49.9,102.6 49.9,96 53.9,92 C56.57,89.481 58.177,89.294 61.671,89.181 z M212.3,85 C204.2,85 196.3,86.3 188.8,88.9 C185.2,90.1 183.4,94 184.6,97.6 C185.8,101.2 189.7,103 193.3,101.8 C199.4,99.7 205.8,98.6 212.4,98.6 C243.4,98.6 268.6,122.6 268.6,152.2 C268.6,155.5 268.3,158.8 267.6,162.1 L223.9,162.1 C220.1,162.1 217.1,165.1 217.1,168.9 C217.1,172.7 220.1,175.7 223.9,175.7 L273,175.7 C276,175.7 278.7,173.7 279.5,170.8 C281.3,164.7 282.2,158.4 282.2,152.2 C282.1,115.1 250.8,85 212.3,85 z M213,13.6 C226.4,13.6 237.3,24.5 237.3,37.9 C237.3,51.3 226.4,62.3 213,62.3 C199.6,62.3 188.7,51.4 188.7,37.9 C188.6,24.5 199.6,13.6 213,13.6 z M213,-0.1 C192.1,-0.1 175,16.9 175,37.9 C175,58.9 192,75.9 213,75.9 C233.9,75.9 251,58.9 251,37.9 C251,17 234,-0.1 213,-0.1 z" fill="#000000"/>
  </g>
</svg>
