<?xml version="1.0" encoding="UTF-8"?>
<!DOCTYPE svg PUBLIC "-//W3C//DTD SVG 1.1//EN" "http://www.w3.org/Graphics/SVG/1.1/DTD/svg11.dtd">
<svg version="1.1" xmlns="http://www.w3.org/2000/svg" xmlns:xlink="http://www.w3.org/1999/xlink" x="0" y="0" width="283.5" height="283.5" viewBox="0, 0, 283.5, 283.5">
  <g id="Background">
    <rect x="0" y="0" width="283.5" height="283.5" fill="#FFFFFF"/>
  </g>
  <g id="Layer_1">
    <path d="M171.573,0.168 L172.537,0.172 C175.37,1.315 174.279,0.599 176,2 L266.5,92.5 C267.56,93.604 268.328,95.029 268.328,96.588 L268.4,97.3 L268.328,98.22 C268.328,98.564 268.368,98.439 268.297,98.613 C268.297,98.616 268.297,98.619 268.297,98.621 C268.099,99.11 267.901,99.598 267.703,100.086 C267.586,100.375 267.47,100.663 267.353,100.952 C267.352,100.953 267.351,100.955 267.35,100.956 C267.311,101.051 267.343,100.99 267.22,101.115 L266.5,102 L176,192.5 C174.7,193.8 173,194.4 171.3,194.4 C169.6,194.4 167.8,193.7 166.5,192.4 C163.9,189.8 163.9,185.5 166.5,182.9 L245.4,104 L121.4,104 L120.628,103.922 C68.759,104.764 29.797,145.713 28.5,196.9 L28.4,201.9 L28.4,276.7 C28.4,280.4 25.4,283.4 21.7,283.4 C18,283.4 15,280.4 15,276.7 L15,196.9 C15,138.2 62.7,90.5 121.5,90.5 L122.491,90.6 L245.6,90.6 L166.5,11.5 C163.9,8.9 163.9,4.6 166.5,2 C168.061,0.444 169.48,0.236 171.573,0.168 z" fill="#010202"/>
  </g>
</svg>
