<?xml version="1.0" encoding="UTF-8"?>
<!DOCTYPE svg PUBLIC "-//W3C//DTD SVG 1.1//EN" "http://www.w3.org/Graphics/SVG/1.1/DTD/svg11.dtd">
<svg version="1.1" xmlns="http://www.w3.org/2000/svg" xmlns:xlink="http://www.w3.org/1999/xlink" x="0" y="0" width="283.5" height="283.5" viewBox="0, 0, 283.5, 283.5">
  <g id="Background">
    <rect x="0" y="0" width="283.5" height="283.5" fill="#FFFFFF"/>
  </g>
  <g id="Layer_1">
    <path d="M276.7,270 L241.2,270 L161.7,4.8 C160.8,2 158.2,0 155.2,0 L128.2,0 C125.2,0 122.6,2 121.7,4.8 L42.2,270 L6.7,270 C3,270 0,273 0,276.7 C0,280.4 3,283.4 6.7,283.4 L47.2,283.4 L236.2,283.4 L236.3,283.4 L276.7,283.4 C280.4,283.4 283.4,280.4 283.4,276.7 C283.5,273 280.4,270 276.7,270 z M56.3,270 L81.4,186.3 L180,186.3 C183.7,186.3 186.7,183.3 186.7,179.6 C186.7,175.9 183.7,172.9 180,172.9 L85.5,172.9 L101.7,118.9 L159.8,118.9 C163.5,118.9 166.5,115.9 166.5,112.2 C166.5,108.5 163.5,105.5 159.8,105.5 L105.7,105.5 L133.2,13.7 L150.2,13.7 L227.1,270 L56.3,270 z" fill="#010202"/>
  </g>
</svg>
