<?xml version="1.0" encoding="UTF-8"?>
<!DOCTYPE svg PUBLIC "-//W3C//DTD SVG 1.1//EN" "http://www.w3.org/Graphics/SVG/1.1/DTD/svg11.dtd">
<svg version="1.1" xmlns="http://www.w3.org/2000/svg" xmlns:xlink="http://www.w3.org/1999/xlink" x="0" y="0" width="283.5" height="283.5" viewBox="0, 0, 283.5, 283.5">
  <g id="Background">
    <rect x="0" y="0" width="283.5" height="283.5" fill="#FFFFFF"/>
  </g>
  <g id="Layer_1">
    <path d="M70.7,205.8 C73.4,205.8 75.9,207.5 76.9,210 C77.9,212.6 77.3,215.5 75.4,217.4 L56,236.8 C106.3,282.2 184.1,280.6 232.5,232.2 C235.1,229.6 239.4,229.6 242,232.2 C244.6,234.9 244.6,239.2 242.1,241.5 C214.4,269.2 178.1,283 141.8,283 C107.6,283 73.4,270.7 46.4,246.2 L26.7,265.9 C25.4,267.2 23.7,267.9 21.9,267.9 C21,267.9 20.1,267.7 19.3,267.4 C16.7,266.4 15.1,263.9 15.1,261.2 L15.1,212.6 C15.1,208.8 18.2,205.8 21.9,205.8 L70.7,205.8 z M54.3,219.5 L28.7,219.5 L28.7,245 L54.3,219.5 z M170.2,86.2 C172,86.2 174.5,88 175.1,89.6 L184,114.6 L99.5,114.6 L108.4,89.6 C109,87.9 111.5,86.2 113.3,86.2 L170.2,86.2 z M98.2,143.1 C93.561,143.1 89.8,146.861 89.8,151.5 C89.8,156.139 93.561,159.9 98.2,159.9 C102.839,159.9 106.6,156.139 106.6,151.5 C106.6,146.861 102.839,143.1 98.2,143.1 z M188.7,143.1 C184.1,143.1 180.3,146.9 180.3,151.5 C180.3,156.1 184.1,159.9 188.7,159.9 C193.3,159.9 197.1,156.1 197.1,151.5 C197.1,146.8 193.3,143.1 188.7,143.1 z M195.4,128.1 C200.9,128.1 205.4,132.6 205.4,138.1 L205.4,163.3 L205.4,163.3 C205.4,168.8 200.9,173.3 195.4,173.3 L88.1,173.3 C82.6,173.3 78.1,168.8 78.1,163.3 L78.1,138.1 C78.1,132.6 82.6,128.1 88.1,128.1 L195.4,128.1 z M170.2,72.6 L113.3,72.6 C105.8,72.6 98.2,77.9 95.7,85 L85,114.8 C73.4,116.3 64.5,126.2 64.5,138.1 L64.5,163.3 C64.5,176.3 75.1,186.8 88,186.8 L91.3,186.8 L91.3,203.6 C91.3,207.3 94.3,210.4 98.1,210.4 C101.9,210.4 104.9,207.4 104.9,203.6 L104.9,186.8 L181.9,186.8 L181.9,203.6 C181.9,207.3 184.9,210.4 188.7,210.4 C192.5,210.4 195.5,207.4 195.5,203.6 L195.5,186.8 C208.5,186.8 219,176.2 219,163.3 L219,138.1 C218.9,126.2 210,116.3 198.4,114.8 L187.8,85 C185.3,77.9 177.7,72.6 170.2,72.6 z M254.8,38 L254.8,63.6 L229.2,63.6 L254.8,38 z M145.06,-0.057 C133.348,0.204 130.304,-0.135 118.701,1.755 C89.527,6.509 62.262,20.5 41.4,41.4 C38.8,44 38.8,48.3 41.4,50.9 C44,53.5 48.3,53.5 50.9,50.9 C99.3,2.5 177.1,0.9 227.4,46.3 L208,65.7 C206.1,67.6 205.5,70.5 206.5,73.1 C207.5,75.6 210,77.3 212.7,77.3 L261.3,77.3 C265,77.3 268.1,74.3 268.1,70.5 L268.1,21.7 C268.3,19 266.6,16.5 264.1,15.5 C261.6,14.5 258.7,15 256.7,17 L237,36.7 C211.499,14.06 179.295,0.907 145.06,-0.057 z" fill="#010202"/>
  </g>
</svg>
