<?xml version="1.0" encoding="UTF-8"?>
<!DOCTYPE svg PUBLIC "-//W3C//DTD SVG 1.1//EN" "http://www.w3.org/Graphics/SVG/1.1/DTD/svg11.dtd">
<svg version="1.1" xmlns="http://www.w3.org/2000/svg" xmlns:xlink="http://www.w3.org/1999/xlink" x="0" y="0" width="283.5" height="283.5" viewBox="0, 0, 283.5, 283.5">
  <g id="Background">
    <rect x="0" y="0" width="283.5" height="283.5" fill="#FFFFFF"/>
  </g>
  <g id="Layer_1">
    <path d="M280.8,269.1 L201.3,189.6 C218.7,169.5 229.2,143.4 229.2,114.7 C229.2,51.5 178,0.3 114.8,0.3 C51.5,0.3 0.3,51.5 0.3,114.7 C0.3,177.9 51.5,229.1 114.7,229.1 C143.3,229.1 169.5,218.6 189.6,201.2 L269.1,280.7 C270.7,282.3 272.8,283.1 274.9,283.1 C277,283.1 279.1,282.3 280.7,280.7 C284,277.5 284,272.3 280.8,269.1 z M114.7,212.7 C60.7,212.7 16.8,168.8 16.8,114.8 C16.8,60.8 60.7,16.9 114.7,16.9 C168.7,16.9 212.6,60.8 212.6,114.8 C212.6,141 202.4,165.6 183.9,184.1 C165.5,202.5 140.9,212.7 114.7,212.7 C114.7,212.7 114.7,212.7 114.7,212.7 z" fill="#010202"/>
  </g>
</svg>
