<?xml version="1.0" encoding="UTF-8"?>
<!DOCTYPE svg PUBLIC "-//W3C//DTD SVG 1.1//EN" "http://www.w3.org/Graphics/SVG/1.1/DTD/svg11.dtd">
<svg version="1.1" xmlns="http://www.w3.org/2000/svg" xmlns:xlink="http://www.w3.org/1999/xlink" x="0" y="0" width="283.5" height="283.5" viewBox="0, 0, 283.5, 283.5">
  <g id="Background">
    <rect x="0" y="0" width="283.5" height="283.5" fill="#FFFFFF"/>
  </g>
  <g id="Layer_1">
    <path d="M246.4,107.8 C251.5,107.8 256.2,109.8 259.8,113.3 C261,114.5 262.6,115.1 264.3,115.1 C265.9,115.1 267.5,114.5 268.8,113.3 C271.3,110.8 271.3,106.8 268.8,104.4 C262.8,98.4 254.9,95.2 246.5,95.2 C246.5,95.2 246.5,95.2 246.5,95.2 C238.1,95.2 230.2,98.5 224.2,104.4 C224.2,104.4 224.2,104.4 224.2,104.4 L205.7,122.9 C205.3,122.8 204.9,122.8 204.5,122.8 L63.1,122.8 L63.1,103.9 C63.1,86.5 48.9,72.3 31.5,72.3 C14.2,72.3 0,86.5 0,103.9 C0,121.3 14.2,135.5 31.6,135.5 L50.5,135.5 L50.5,204.9 C50.5,208.4 53.3,211.2 56.8,211.2 L132.6,211.2 C134.3,211.2 135.9,210.5 137.1,209.4 L233.1,113.4 C233.1,113.4 233.1,113.4 233.1,113.4 C236.6,109.8 241.3,107.8 246.4,107.8 z M31.6,122.8 C21.2,122.8 12.7,114.3 12.7,103.9 C12.7,93.5 21.2,85 31.6,85 C42,85 50.5,93.5 50.5,103.9 L50.5,122.8 L31.6,122.8 z M130,198.5 L63.1,198.5 L63.1,135.4 L193,135.4 L130,198.5 z M264.2,174.6 C267.7,174.6 270.5,171.7 270.5,168.3 C270.5,166.5 267.8,161.5 264.2,156.2 C260.6,161.5 258,166.5 257.9,168.3 C257.9,171.8 260.7,174.6 264.2,174.6 z M269.2,141.6 C273.4,146.8 283.2,159.9 283.2,168.3 C283.2,178.7 274.7,187.2 264.3,187.2 C253.9,187.2 245.4,178.7 245.4,168.3 C245.4,160 255.2,146.9 259.4,141.6 C260.6,140.1 262.4,139.2 264.3,139.2 C266.2,139.2 268,140.1 269.2,141.6 z" fill="#000000"/>
  </g>
</svg>
