<?xml version="1.0" encoding="UTF-8"?>
<!DOCTYPE svg PUBLIC "-//W3C//DTD SVG 1.1//EN" "http://www.w3.org/Graphics/SVG/1.1/DTD/svg11.dtd">
<svg version="1.1" xmlns="http://www.w3.org/2000/svg" xmlns:xlink="http://www.w3.org/1999/xlink" x="0" y="0" width="283.5" height="283.5" viewBox="0, 0, 283.5, 283.5">
  <g id="Background">
    <rect x="0" y="0" width="283.5" height="283.5" fill="#FFFFFF"/>
  </g>
  <g id="Ebene_4">
    <path d="M206.359,63.205 C208.638,63.952 207.724,63.482 209.2,64.4 L275.2,112.7 C276.8,113.9 277.8,115.9 277.6,118 L277.6,227.8 C277.6,231.4 274.7,234.3 271.1,234.3 C267.5,234.3 264.6,231.4 264.6,227.8 L264.6,124.5 L145.7,124.5 L145.7,227.8 C145.7,231.4 142.8,234.3 139.2,234.3 C135.6,234.3 132.7,231.4 132.7,227.8 L132.7,117.1 C132.7,116.9 132.8,116.8 132.8,116.6 C132.9,116.5 132.9,116.5 132.9,116.4 L133.1,115.9 C133.2,115.8 133.2,115.8 133.2,115.7 L133.4,115.2 C133.4,115.1 133.5,115.1 133.5,115 L133.8,114.5 C133.9,114.5 133.9,114.4 133.9,114.4 C134,114.2 134.1,114 134.3,113.8 L135,113.1 C135.1,113 135.3,112.9 135.4,112.8 L135.5,112.7 L201.5,64.4 C203.289,63.119 204.283,63.205 206.359,63.205 z M205.4,77.7 L159.3,111.4 L251.5,111.4 L205.4,77.7 z M96.2,180.6 C92,180.6 88.5,184.1 88.5,188.3 C88.5,192.5 92,196 96.2,196 C100.4,196 103.9,192.5 103.9,188.3 C103.9,184.1 100.4,180.6 96.2,180.6 z M31.6,180.6 C27.4,180.6 23.9,184.1 23.9,188.3 C23.9,192.5 27.4,196 31.6,196 C35.8,196 39.3,192.5 39.3,188.3 C39.3,184.1 35.8,180.6 31.6,180.6 z M108.4,175.5 C109.4,175.5 110.1,176.3 110.1,177.2 L110.1,198.5 C110.1,199.5 109.3,200.2 108.4,200.2 L19.4,200.2 C18.4,200.2 17.7,199.4 17.7,198.5 L17.7,177.2 C17.7,176.2 18.5,175.5 19.4,175.5 L108.4,175.5 z M89.717,120.938 C87.694,121.002 86.313,121.198 84.8,122.7 C82.3,125.2 82.3,129.4 84.8,131.9 L87.3,134.4 L42.9,134.4 C36.2,134.4 30.2,138.6 28,145 L21.8,162.6 L19.3,162.6 C11.2,162.6 4.6,169.2 4.6,177.3 L4.6,198.6 C4.6,206.7 11.2,213.3 19.3,213.3 L25,213.3 L25,222.3 C25,225.9 27.9,228.8 31.5,228.8 C35.1,228.8 38,225.9 38,222.3 L38,213.3 L89.6,213.3 L89.6,222.3 C89.6,225.9 92.5,228.8 96.1,228.8 C99.7,228.8 102.6,225.9 102.6,222.3 L102.6,213.3 L108.3,213.3 C116.4,213.3 123,206.7 123,198.6 L123,177.3 C123.1,169.1 116.5,162.5 108.4,162.5 L35.6,162.5 L40.3,149.2 C40.7,148.1 41.8,147.3 42.9,147.3 L87.2,147.3 L84.7,149.8 C82.2,152.3 82.2,156.5 84.7,159 C86,160.3 87.6,160.9 89.3,160.9 C91,160.9 92.6,160.3 93.9,159 L107.5,145.4 C110,142.9 110,138.7 107.5,136.2 L94,122.7 C92.337,121.35 93.392,122.041 90.65,120.942 L89.717,120.938 z M240.5,162.6 L168.8,162.6 L168.8,222.2 C168.8,225.8 171.7,228.7 175.3,228.7 C178.9,228.7 181.8,225.8 181.8,222.2 L181.8,175.6 L227.5,175.6 L227.5,222.2 C227.5,225.8 230.4,228.7 234,228.7 C237.6,228.7 240.5,225.8 240.5,222.2 L240.5,162.6 z" fill="#000000"/>
  </g>
</svg>
