<?xml version="1.0" encoding="UTF-8"?>
<!DOCTYPE svg PUBLIC "-//W3C//DTD SVG 1.1//EN" "http://www.w3.org/Graphics/SVG/1.1/DTD/svg11.dtd">
<svg version="1.1" xmlns="http://www.w3.org/2000/svg" xmlns:xlink="http://www.w3.org/1999/xlink" x="0" y="0" width="283.5" height="283.5" viewBox="0, 0, 283.5, 283.5">
  <g id="Background">
    <rect x="0" y="0" width="283.5" height="283.5" fill="#FFFFFF"/>
  </g>
  <g id="Ebene_4">
    <path d="M142.759,9.205 C145.038,9.952 144.124,9.482 145.6,10.4 L253.9,89.7 C255.6,91 256.6,92.9 256.5,95 L256.5,275.4 C256.5,279 253.6,281.9 250,281.9 C246.4,281.9 243.5,279 243.5,275.4 L243.5,101.5 L39.8,101.5 L39.8,275.4 C39.8,279 36.9,281.9 33.3,281.9 C29.7,281.9 26.8,279 26.8,275.4 L26.8,94.1 C26.8,93.9 26.9,93.8 26.9,93.6 C27,93.5 27,93.5 27,93.4 L27.2,92.9 C27.3,92.8 27.3,92.8 27.3,92.7 L27.5,92.2 C27.5,92.1 27.6,92.1 27.6,92 L27.9,91.5 C28,91.5 28,91.4 28,91.4 C28.1,91.2 28.2,91 28.4,90.8 L29.1,90.1 C29.2,90 29.4,89.9 29.5,89.8 L29.6,89.7 L137.9,10.4 C139.689,9.119 140.683,9.205 142.759,9.205 z M141.8,23.7 L53.3,88.5 L230.3,88.5 L141.8,23.7 z M96.3,216.3 C91.8,216.3 88.1,220 88.1,224.5 C88.1,229 91.8,232.7 96.3,232.7 C100.8,232.7 104.5,229 104.5,224.5 C104.5,220 100.8,216.3 96.3,216.3 z M186.2,216.3 C181.7,216.3 178,220 178,224.5 C178,229 181.7,232.7 186.2,232.7 C190.7,232.7 194.4,229 194.4,224.5 C194.4,220 190.7,216.3 186.2,216.3 z M203.2,204 C205.9,204 208.2,206.2 208.2,209 L208.2,238.6 C208.2,241.3 206,243.6 203.2,243.6 L79.3,243.6 C76.6,243.6 74.3,241.4 74.3,238.6 L74.3,209 C74.3,206.3 76.5,204 79.3,204 L203.2,204 z M177.117,133.238 C175.094,133.302 173.713,133.498 172.2,135 C169.7,137.5 169.7,141.7 172.2,144.2 L180,152 L112.2,152 C104,152 96.6,157.2 93.9,165 L84.7,191.2 L79.4,191.2 C69.5,191.2 61.4,199.3 61.4,209.2 L61.4,238.8 C61.4,248.7 69.5,256.8 79.4,256.8 L89.9,256.8 L89.9,271.8 C89.9,275.4 92.8,278.3 96.4,278.3 C100,278.3 102.9,275.4 102.9,271.8 L102.9,256.8 L179.8,256.8 L179.8,271.8 C179.8,275.4 182.7,278.3 186.3,278.3 C189.9,278.3 192.8,275.4 192.8,271.8 L192.8,256.8 L203.3,256.8 C213.2,256.8 221.3,248.7 221.3,238.8 L221.3,209.2 C221.2,199.2 213.1,191.1 203.2,191.1 L98.4,191.1 L106.1,169.2 C107,166.6 109.4,164.9 112.2,164.9 L180,164.9 L172.2,172.7 C169.7,175.2 169.7,179.4 172.2,181.9 C173.5,183.2 175.1,183.8 176.8,183.8 C178.5,183.8 180.1,183.2 181.4,181.9 L200.3,163 C202.8,160.5 202.8,156.3 200.3,153.8 L181.4,135 C179.737,133.65 180.792,134.341 178.05,133.242 L177.117,133.238 z" fill="#000000"/>
  </g>
</svg>
