<?xml version="1.0" encoding="UTF-8"?>
<!DOCTYPE svg PUBLIC "-//W3C//DTD SVG 1.1//EN" "http://www.w3.org/Graphics/SVG/1.1/DTD/svg11.dtd">
<svg version="1.1" xmlns="http://www.w3.org/2000/svg" xmlns:xlink="http://www.w3.org/1999/xlink" x="0" y="0" width="283.5" height="283.5" viewBox="0, 0, 283.5, 283.5">
  <g id="Background">
    <rect x="0" y="0" width="283.5" height="283.5" fill="#FFFFFF"/>
  </g>
  <g id="Layer_1">
    <path d="M279.6,168 C278.9,165.7 276.9,164.1 274.6,163.8 L224.9,156.6 L202.7,111.6 C200.6,107.3 193.6,107.3 191.5,111.6 L179.2,136.5 C147.5,81.2 96.3,38.6 34.8,18.2 C34.7,18.2 34.6,18.2 34.4,18.2 C33,17.3 31.3,17 29.6,17.4 C26.3,18.2 24.2,21.6 25,24.9 L35.5,68.3 L6.2,102.2 C6.1,102.3 6,102.5 5.9,102.7 C4.4,103.9 3.4,105.6 3.5,107.7 C3.6,111.1 6.8,113.9 9.9,113.8 C59.7,112.5 107.9,129.3 145.7,160.1 L119.5,163.9 C117.1,164.2 115.2,165.9 114.5,168.1 C113.8,170.4 114.4,172.8 116.1,174.5 L152.1,209.6 L143.6,259.1 C143.2,261.4 144.2,263.8 146.1,265.2 C148,266.6 150.6,266.8 152.7,265.7 L197.2,242.3 L241.7,265.7 C242.6,266.2 243.6,266.4 244.6,266.4 C245.9,266.4 247.2,266 248.3,265.2 C250.2,263.8 251.2,261.4 250.8,259.1 L242.3,209.6 L278.3,174.5 C279.7,172.8 280.3,170.3 279.6,168 z M231,202.8 C229.5,204.2 228.9,206.3 229.2,208.3 L236.1,248.6 L199.9,229.6 C199,229.1 198,228.9 197,228.9 C196,228.9 195,229.1 194.1,229.6 L157.9,248.6 L164.8,208.3 C165.2,206.3 164.5,204.2 163,202.8 L133.7,174.3 L157.7,170.8 L173.2,168.6 L174.1,168.5 C176.1,168.2 177.9,166.9 178.8,165.1 L179.2,164.2 L186.2,150 L196.9,128.4 L215,165 C215.9,166.8 217.7,168.1 219.7,168.4 L260.1,174.3 L231,202.8 z M23.5,101.3 L47.1,74 C48.4,72.5 48.9,70.4 48.4,68.5 L39.9,33.3 C97.2,54.8 144.3,96.7 172.5,150 L169.3,156.5 L162.1,157.5 C124.2,123.3 75.1,103.2 23.5,101.3 z" fill="#010202"/>
  </g>
</svg>
