<?xml version="1.0" encoding="UTF-8"?>
<!DOCTYPE svg PUBLIC "-//W3C//DTD SVG 1.1//EN" "http://www.w3.org/Graphics/SVG/1.1/DTD/svg11.dtd">
<svg version="1.1" xmlns="http://www.w3.org/2000/svg" xmlns:xlink="http://www.w3.org/1999/xlink" x="0" y="0" width="283.5" height="283.5" viewBox="0, 0, 283.5, 283.5">
  <g id="Background">
    <rect x="0" y="0" width="283.5" height="283.5" fill="#FFFFFF"/>
  </g>
  <g id="Layer_1">
    <path d="M70.7,57.8 C89.6,57.8 107.4,65.2 120.7,78.5 C134,91.8 141.4,109.6 141.4,128.5 C141.4,147.4 134,165.2 120.7,178.5 L75.4,223.8 C74.2,225.1 72.5,225.7 70.8,225.7 C69.1,225.7 67.3,225 66,223.7 L20.7,178.4 C7.4,165.1 0,147.4 0,128.5 C0,109.6 7.4,91.8 20.7,78.5 C34.1,65.1 51.8,57.8 70.7,57.8 z M70.7,71.2 C55.4,71.2 41,77.2 30.2,88 C19.4,98.8 13.4,113.2 13.4,128.5 C13.4,143.8 19.4,158.2 30.2,169 L70.7,209.5 L111.2,169 C122,158.2 128,143.8 128,128.5 C128,113.2 122,98.8 111.2,88 C100.4,77.2 86,71.2 70.7,71.2 z M70.7,106.3 C76.6,106.3 82.2,108.6 86.4,112.8 C95.1,121.5 95.1,135.6 86.4,144.2 C82.3,148.4 76.7,150.7 70.7,150.7 C64.8,150.7 59.2,148.4 55,144.2 C46.4,135.6 46.3,121.5 55,112.8 C59.2,108.6 64.8,106.3 70.7,106.3 z M70.7,119.8 C68.4,119.8 66.2,120.7 64.5,122.3 C61.1,125.7 61.1,131.2 64.5,134.6 C67.8,137.9 73.5,137.9 76.8,134.6 C80.2,131.2 80.2,125.7 76.8,122.3 C75.3,120.7 73.1,119.8 70.7,119.8 z M212.7,119.8 C215,119.8 217.2,120.7 218.8,122.3 C222.2,125.7 222.2,131.2 218.8,134.6 C215.5,137.9 209.8,137.9 206.5,134.6 C203.1,131.2 203.1,125.7 206.5,122.3 C208.2,120.7 210.4,119.8 212.7,119.8 z M212.7,106.3 C206.8,106.3 201.2,108.6 197,112.8 C188.3,121.5 188.4,135.6 197,144.2 C201.2,148.4 206.8,150.7 212.7,150.7 C218.6,150.7 224.2,148.4 228.4,144.2 C237.1,135.6 237.1,121.5 228.4,112.8 C224.2,108.6 218.6,106.3 212.7,106.3 z M212.7,71.2 C228,71.2 242.4,77.2 253.2,88 C264,98.8 270,113.2 270,128.5 C270,143.8 264,158.2 253.2,169 L212.7,209.5 L172.2,169 C161.4,158.2 155.4,143.8 155.4,128.5 C155.4,113.2 161.4,98.8 172.2,88 C183,77.2 197.4,71.2 212.7,71.2 z M212.6,57.7 C193.7,57.7 176,65 162.6,78.4 C149.3,91.7 141.9,109.5 141.9,128.4 C141.9,147.3 149.2,165 162.6,178.4 L207.9,223.7 C209.2,225 211,225.7 212.7,225.7 C214.4,225.7 216.2,225.1 217.3,223.7 L262.6,178.4 C275.9,165.1 283.3,147.3 283.3,128.4 C283.3,109.5 276,91.8 262.6,78.4 C249.3,65.1 231.5,57.7 212.6,57.7 z" fill="#000000"/>
  </g>
</svg>
