<?xml version="1.0" encoding="UTF-8"?>
<!DOCTYPE svg PUBLIC "-//W3C//DTD SVG 1.1//EN" "http://www.w3.org/Graphics/SVG/1.1/DTD/svg11.dtd">
<svg version="1.1" xmlns="http://www.w3.org/2000/svg" xmlns:xlink="http://www.w3.org/1999/xlink" x="0" y="0" width="283.5" height="283.5" viewBox="0, 0, 283.5, 283.5">
  <g id="Background">
    <rect x="0" y="0" width="283.5" height="283.5" fill="#FFFFFF"/>
  </g>
  <g id="Layer_1">
    <path d="M141.7,0 C219.8,0 283.4,63.6 283.4,141.7 C283.5,219.9 219.9,283.5 141.7,283.5 C63.6,283.5 0,219.9 0,141.7 C0,63.6 63.6,0 141.7,0 z M141.7,13.5 C71,13.5 13.5,71 13.5,141.7 C13.5,212.4 71,270 141.7,270 C212.4,270 270,212.4 270,141.7 C270,71 212.4,13.5 141.7,13.5 z M141.7,238.6 C147.9,238.6 152.9,243.6 152.9,249.8 C153,255.9 147.9,261 141.7,261 C135.5,261 130.5,256 130.5,249.8 C130.5,243.6 135.5,238.6 141.7,238.6 z M195.7,224.1 C199.7,224.1 203.5,226.3 205.5,229.7 C208.6,235.1 206.8,242 201.4,245.1 C199.6,246 197.7,246.5 195.7,246.5 C191.7,246.5 188,244.3 186,240.9 C184.5,238.3 184.1,235.3 184.9,232.4 C185.7,229.5 187.5,227.1 190.1,225.6 C191.8,224.6 193.8,224.1 195.7,224.1 z M87.7,224.1 C89.7,224.1 91.6,224.6 93.3,225.6 C95.9,227.1 97.8,229.5 98.5,232.4 C99.3,235.3 98.9,238.3 97.4,240.9 C95.5,244.3 91.7,246.5 87.7,246.5 C85.7,246.5 83.8,246 82.1,245 C79.5,243.5 77.6,241.1 76.9,238.2 C76.1,235.3 76.5,232.3 78,229.7 C80,226.2 83.7,224.1 87.7,224.1 z M48.1,184.5 C52.1,184.5 55.8,186.7 57.8,190.1 C59.3,192.7 59.7,195.7 58.9,198.6 C58.1,201.5 56.3,203.9 53.7,205.4 C52.1,206.5 50.2,207 48.2,207 C44.2,207 40.4,204.8 38.4,201.4 C35.3,196 37.1,189.1 42.5,186 C44.2,185 46.1,184.5 48.1,184.5 z M235.3,184.6 C237.3,184.6 239.2,185.1 240.9,186.1 C243.5,187.6 245.4,190 246.1,192.9 C246.9,195.8 246.5,198.8 245,201.4 C243,204.8 239.3,207 235.2,207 C233.2,207 231.3,206.5 229.6,205.5 C227,204 225.1,201.6 224.4,198.7 C223.6,195.8 224,192.8 225.5,190.2 C227.5,186.7 231.2,184.6 235.3,184.6 z M33.7,130.6 C39.9,130.6 44.9,135.6 44.9,141.8 C44.9,148 39.9,153 33.7,153 C27.5,153 22.5,148 22.5,141.8 C22.5,135.6 27.5,130.6 33.7,130.6 z M249.7,130.6 C255.9,130.6 260.9,135.6 260.9,141.8 C260.9,148 255.9,153 249.7,153 C243.5,153 238.5,148 238.5,141.8 C238.5,135.6 243.5,130.6 249.7,130.6 z M141.7,27 C145.4,27 148.4,30 148.4,33.7 L148.4,130 L231.8,81.9 C235,80 239.2,81.1 241,84.4 C242.9,87.6 241.8,91.8 238.5,93.6 L145.1,147.5 C144.6,147.8 144,148.1 143.3,148.2 C142.9,148.4 142.3,148.5 141.7,148.5 C141.5,148.5 141.2,148.5 141,148.5 C140,148.4 139.1,148.1 138.3,147.6 C137.5,147.1 136.7,146.5 136.2,145.7 C135.7,145 135.4,144.3 135.2,143.5 C135,142.9 135,142.3 135,141.6 L135,33.7 C135,30 138,27 141.7,27 z M48.2,76.5 C50.2,76.5 52.1,77 53.8,78 C56.4,79.5 58.3,81.9 59,84.8 C59.8,87.7 59.4,90.7 57.9,93.3 C55.9,96.8 52.2,99 48.2,99 C46.2,99 44.3,98.5 42.6,97.5 C37.2,94.4 35.4,87.5 38.5,82.1 C40.5,78.6 44.2,76.5 48.2,76.5 z M195.8,37.1 C197.8,37.1 199.7,37.6 201.4,38.6 C206.8,41.7 208.6,48.6 205.5,54 C203.5,57.3 199.7,59.5 195.7,59.5 C193.7,59.5 191.8,59 190.1,58 C187.5,56.5 185.6,54.1 184.9,51.2 C184.1,48.3 184.5,45.3 186,42.7 C188,39.2 191.7,37.1 195.8,37.1 z M87.7,37.1 C91.7,37.1 95.4,39.3 97.4,42.7 C98.9,45.3 99.3,48.3 98.5,51.2 C97.8,54 96,56.5 93.4,58 C91.7,58.9 89.7,59.5 87.7,59.5 C83.7,59.5 80,57.3 78,53.9 C76.5,51.3 76.1,48.3 76.9,45.4 C77.7,42.5 79.5,40.1 82.1,38.6 C83.8,37.6 85.8,37.1 87.7,37.1 z" fill="#010202"/>
  </g>
</svg>
