<?xml version="1.0" encoding="UTF-8"?>
<!DOCTYPE svg PUBLIC "-//W3C//DTD SVG 1.1//EN" "http://www.w3.org/Graphics/SVG/1.1/DTD/svg11.dtd">
<svg version="1.1" xmlns="http://www.w3.org/2000/svg" xmlns:xlink="http://www.w3.org/1999/xlink" x="0" y="0" width="283.5" height="283.5" viewBox="0, 0, 283.5, 283.5">
  <g id="Background">
    <rect x="0" y="0" width="283.5" height="283.5" fill="#FFFFFF"/>
  </g>
  <g id="Layer_1">
    <path d="M61.1,120.8 C65.3,120.8 68.6,124.2 68.6,128.3 L68.6,155.2 C68.6,165.9 77.3,174.6 88,174.6 L195.3,174.6 C206,174.6 214.7,165.9 214.7,155.2 L214.7,128.3 C214.7,124.1 218.1,120.8 222.2,120.8 L249.1,120.8 C253.3,120.8 256.6,124.2 256.8,128.3 C256.8,132.5 253.4,135.8 249.3,135.8 L229.9,135.8 L229.9,155.2 C229.9,174.1 214.5,189.5 195.6,189.5 L149.4,189.5 L149.4,241.7 L195.6,241.7 C214.5,241.7 229.9,257.1 229.9,276 C229.9,280.2 226.5,283.5 222.4,283.5 C218.2,283.5 214.9,280.1 214.9,276 C214.9,265.3 206.2,256.6 195.5,256.6 L149.3,256.6 L149.3,276 C149.3,280.2 145.9,283.5 141.8,283.5 C137.6,283.5 134.3,280.1 134.3,276 L134.3,256.6 L88.1,256.6 C77.4,256.6 68.7,265.3 68.7,276 C68.7,280.2 65.4,283.5 61.2,283.5 C57,283.5 53.7,280.1 53.7,276 C53.7,257.1 69.1,241.7 88,241.7 L134.2,241.7 L134.2,189.5 L88,189.5 C69.1,189.5 53.7,174.1 53.7,155.2 L53.7,135.8 L34.3,135.8 C30.1,135.8 26.8,132.4 26.8,128.3 C26.8,124.1 30.2,120.8 34.3,120.8 L61.1,120.8 z M168.7,-0 L115,-0 C96,-0 80.6,15.4 80.6,34.3 L80.6,128.3 C80.6,132.4 83.9,135.8 88,135.8 C92.1,135.8 95.5,132.5 95.5,128.3 L95.5,34.3 C95.5,23.6 104.2,14.9 114.9,14.9 L168.6,14.9 C179.3,14.9 188,23.6 188,34.3 L188,128.3 C188,132.4 191.3,135.8 195.5,135.8 C199.6,135.8 203,132.5 203,128.3 L203,34.3 C203,15.4 187.6,-0 168.7,-0 z" fill="#010202"/>
  </g>
</svg>
