<?xml version="1.0" encoding="UTF-8"?>
<!DOCTYPE svg PUBLIC "-//W3C//DTD SVG 1.1//EN" "http://www.w3.org/Graphics/SVG/1.1/DTD/svg11.dtd">
<svg version="1.1" xmlns="http://www.w3.org/2000/svg" xmlns:xlink="http://www.w3.org/1999/xlink" x="0" y="0" width="283.5" height="283.5" viewBox="0, 0, 283.5, 283.5">
  <g id="Background">
    <rect x="0" y="0" width="283.5" height="283.5" fill="#FFFFFF"/>
  </g>
  <g id="Layer_1">
    <path d="M268.9,47.9 L14.6,47.9 C6.5,47.9 0,54.4 0,62.4 L0,226.5 C0,234.5 6.5,241.1 14.6,241.1 L268.9,241.1 C276.9,241.1 283.5,234.6 283.5,226.5 L283.5,62.4 C283.5,54.4 276.9,47.9 268.9,47.9 z M14.6,61.3 L268.9,61.3 C269.5,61.3 270,61.8 270,62.4 L270,94.7 L13.5,94.7 L13.5,62.4 C13.5,61.8 14,61.3 14.6,61.3 z M268.9,227.6 L14.6,227.6 C14,227.6 13.5,227.1 13.5,226.5 L13.5,136.6 L270,136.6 L270,226.5 C270,227 269.5,227.6 268.9,227.6 z" fill="#000000"/>
  </g>
</svg>
