<?xml version="1.0" encoding="UTF-8"?>
<!DOCTYPE svg PUBLIC "-//W3C//DTD SVG 1.1//EN" "http://www.w3.org/Graphics/SVG/1.1/DTD/svg11.dtd">
<svg version="1.1" xmlns="http://www.w3.org/2000/svg" xmlns:xlink="http://www.w3.org/1999/xlink" x="0" y="0" width="283.5" height="283.5" viewBox="0, 0, 283.5, 283.5">
  <g id="Background">
    <rect x="0" y="0" width="283.5" height="283.5" fill="#FFFFFF"/>
  </g>
  <g id="Layer_1">
    <path d="M141.8,108.8 C151.1,108.8 158.7,116.4 158.7,125.7 L158.7,147.5 C159.7,147.3 160.9,147.2 162,147.2 C167.8,147.2 172.9,150.1 175.9,154.5 C177.8,153.7 180,153.3 182.2,153.3 C189.3,153.3 195.4,157.7 197.9,164 C199.3,163.6 200.8,163.4 202.4,163.4 C211.7,163.4 219.3,171 219.3,180.1 L219.3,207 C219.3,237.2 194.8,261.7 164.6,261.7 C143.5,261.7 124.2,249.8 115.6,231.4 L92,180.8 C91.9,180.7 91.9,180.7 91.9,180.6 C91.8,180.6 91.8,180.5 91.8,180.5 C88.2,171.9 92.3,162.1 100.9,158.5 C105.1,156.8 109.6,156.8 113.8,158.5 C117.7,160.1 120.7,163.1 122.5,166.8 L122.7,167.1 L124.9,171.2 L124.9,125.7 C124.9,116.4 132.5,108.8 141.8,108.8 z M141.7,122.6 C139.9,122.6 138.4,124.1 138.4,125.9 L138.4,198.6 C138.4,198.8 138.3,199.1 138.3,199.3 C138.3,199.5 138.3,199.7 138.2,199.9 L138,200.5 C138,200.7 137.9,200.9 137.8,201.1 C137.7,201.3 137.6,201.5 137.5,201.7 C137.4,201.8 137.3,202 137.2,202.2 C137.1,202.4 136.9,202.5 136.8,202.7 C136.6,202.9 136.5,203.1 136.3,203.2 C136.1,203.3 136,203.5 135.8,203.6 C135.6,203.7 135.4,203.9 135.2,204 C135.1,204.1 135,204.1 134.9,204.2 C134.9,204.3 134.8,204.3 134.7,204.3 C134.3,204.5 134,204.6 133.6,204.7 C133.5,204.7 133.3,204.8 133.2,204.8 C132.8,204.9 132.3,205 131.8,205 L131.7,205 C131.1,205 130.6,204.9 130.1,204.8 C130,204.8 129.8,204.7 129.7,204.7 C129.3,204.6 129,204.4 128.6,204.2 C128.5,204.1 128.3,204.1 128.2,204 C127.7,203.7 127.3,203.4 126.9,203 L126.887,202.9 C126.12,202.023 126.439,202.463 125.9,201.6 L125.8,201.4 L110.9,173.6 C110.9,173.5 110.9,173.4 110.8,173.3 C110.7,173.2 110.6,173.1 110.6,173 C110.1,171.9 109.3,171.4 108.8,171.2 C108.4,171 107.4,170.7 106.3,171.2 C104.6,171.9 103.8,173.8 104.5,175.5 L127.9,225.8 C134.3,239.5 148.7,248.3 164.6,248.3 C187.3,248.3 205.7,229.9 205.6,207.2 L205.6,180.3 C205.6,178.5 204.1,177 202.3,177 C200.5,177 199,178.5 199,180.3 L199,187 C199,190.8 195.9,193.8 192.2,193.8 C188.4,193.8 185.4,190.7 185.4,187 L185.4,170.3 C185.4,168.5 183.9,167 182.1,167 C180.3,167 178.8,168.5 178.8,170.3 L178.8,180.4 C178.8,184.2 175.7,187.2 172,187.2 C168.2,187.2 165.2,184.1 165.2,180.4 L165.2,164.2 C165.2,162.4 163.7,160.9 161.9,160.9 C160.1,160.9 158.6,162.4 158.6,164.2 L158.6,176 C158.6,179.8 155.5,182.8 151.8,182.8 C148,182.8 145,179.7 145,176 L145,125.9 C145,124.1 143.5,122.6 141.7,122.6 z M241.7,33.2 L41.5,33.2 C37.8,33.2 34.7,36.2 34.7,40 L34.7,208.2 C34.7,211.9 37.7,215 41.5,215 L93.8,215 C97.5,215 100.6,212 100.6,208.2 C100.6,204.4 97.6,201.4 93.8,201.4 L48.2,201.4 L48.2,46.7 L234.9,46.7 L234.9,201.4 L228.4,201.4 C224.7,201.4 221.6,204.4 221.6,208.2 C221.6,212 224.6,215 228.4,215 L241.7,215 C245.4,215 248.5,212 248.5,208.2 L248.5,40 C248.4,36.2 245.4,33.2 241.7,33.2 z M276.71,45.159 C274.82,45.384 275.613,45.19 274.3,45.6 L254,52.8 C250.5,54 248.6,57.9 249.9,61.4 C251.1,64.9 255,66.8 258.5,65.5 L269.8,61.5 L269.8,186.6 L258.5,182.6 C255,181.3 251.1,183.2 249.9,186.7 C248.7,190.2 250.5,194.1 254,195.3 L274.3,202.5 C275,202.8 275.8,202.9 276.6,202.9 C278,202.9 279.3,202.5 280.5,201.7 C282.3,200.4 283.4,198.4 283.4,196.2 L283.4,52 C283.4,49.8 282.3,47.7 280.5,46.4 C279.332,45.662 278.125,45.158 276.71,45.159 z M7.298,45.261 C5.46,45.394 4.235,45.342 2.7,46.4 C0.9,47.7 -0.2,49.7 -0.2,51.9 L-0.2,196.2 C-0.2,198.4 0.9,200.5 2.7,201.7 C3.9,202.5 5.2,202.9 6.6,202.9 C7.4,202.9 8.1,202.8 8.9,202.5 L29.2,195.3 C32.7,194.1 34.6,190.2 33.3,186.7 C32.1,183.2 28.2,181.3 24.7,182.6 L13.4,186.6 L13.4,61.5 L24.8,65.5 C28.3,66.7 32.2,64.9 33.4,61.4 C34.6,57.9 32.8,54 29.3,52.8 L8.9,45.6 L7.298,45.261 z" fill="#000000"/>
  </g>
</svg>
