<?xml version="1.0" encoding="UTF-8"?>
<!DOCTYPE svg PUBLIC "-//W3C//DTD SVG 1.1//EN" "http://www.w3.org/Graphics/SVG/1.1/DTD/svg11.dtd">
<svg version="1.1" xmlns="http://www.w3.org/2000/svg" xmlns:xlink="http://www.w3.org/1999/xlink" x="0" y="0" width="283.5" height="283.5" viewBox="0, 0, 283.5, 283.5">
  <g id="Background">
    <rect x="0" y="0" width="283.5" height="283.5" fill="#FFFFFF"/>
  </g>
  <g id="Layer_1">
    <path d="M259,201.8 L230.1,185.1 L255.6,170.4 C258.7,168.6 259.8,164.6 258,161.4 C256.2,158.3 252.2,157.2 249,159 L217,177.5 L172.6,152 C173.7,148.8 174.4,145.4 174.4,141.8 C174.4,138.2 173.7,134.8 172.6,131.6 L216.9,106.1 L248.9,124.6 C249.9,125.2 251.1,125.5 252.2,125.5 C254.5,125.5 256.7,124.3 257.9,122.2 C259.7,119.1 258.6,115 255.5,113.2 L230,98.5 L259,81.6 C262.1,79.8 263.2,75.8 261.4,72.6 C259.6,69.5 255.6,68.4 252.4,70.2 L223.4,86.9 L223.4,57.5 C223.4,53.9 220.5,50.9 216.8,50.9 C213.2,50.9 210.2,53.8 210.2,57.5 L210.2,94.5 L166,120 C161.4,114.8 155.3,111 148.2,109.6 L148.2,58.7 L180.2,40.2 C183.3,38.4 184.4,34.4 182.6,31.2 C180.8,28.1 176.8,27 173.6,28.8 L148.1,43.5 L148.1,10.1 C148.1,6.5 145.2,3.5 141.5,3.5 C137.9,3.5 134.9,6.4 134.9,10.1 L134.9,43.5 L109.4,28.8 C106.3,27 102.2,28.1 100.4,31.2 C98.6,34.3 99.7,38.4 102.8,40.2 L134.9,58.7 L134.9,109.6 C127.9,111 121.8,114.8 117.2,120 L73.1,94.5 L73.1,57.5 C73.1,53.9 70.2,50.9 66.5,50.9 C62.9,50.9 59.9,53.8 59.9,57.5 L59.9,86.9 L31,70.2 C27.9,68.4 23.8,69.5 22,72.6 C20.2,75.7 21.3,79.8 24.4,81.6 L53.4,98.3 L27.9,113 C24.8,114.8 23.7,118.8 25.5,122 C26.7,124.1 28.9,125.3 31.2,125.3 C32.3,125.3 33.4,125 34.5,124.4 L66.6,105.9 L110.8,131.4 C109.7,134.6 109,138 109,141.6 C109,145.2 109.7,148.6 110.8,151.8 L66.5,177.4 L34.5,158.9 C31.4,157.1 27.3,158.2 25.5,161.3 C23.7,164.4 24.8,168.5 27.9,170.3 L53.4,185 L24.5,201.7 C21.4,203.5 20.3,207.5 22.1,210.7 C23.3,212.8 25.5,214 27.8,214 C28.9,214 30,213.7 31.1,213.1 L60,196.5 L60,225.9 C60,229.5 62.9,232.5 66.6,232.5 C70.2,232.5 73.2,229.6 73.2,225.9 L73.2,188.9 L117.5,163.4 C122.1,168.6 128.2,172.4 135.3,173.8 L135.3,224.7 L103.3,243.2 C100.2,245 99.1,249 100.9,252.2 C102.1,254.3 104.3,255.5 106.6,255.5 C107.7,255.5 108.8,255.2 109.9,254.6 L135.4,239.9 L135.4,273.3 C135.4,276.9 138.3,279.9 142,279.9 C145.6,279.9 148.6,277 148.6,273.3 L148.6,239.9 L174.1,254.6 C175.1,255.2 176.3,255.5 177.4,255.5 C179.7,255.5 181.9,254.3 183.1,252.2 C184.9,249.1 183.8,245 180.7,243.2 L148.7,224.7 L148.7,173.8 C155.7,172.4 161.9,168.6 166.5,163.4 L210.7,188.9 L210.7,225.9 C210.7,229.5 213.6,232.5 217.3,232.5 C221,232.5 223.9,229.6 223.9,225.9 L223.9,196.5 L252.9,213.2 C253.9,213.8 255.1,214.1 256.2,214.1 C258.5,214.1 260.7,212.9 261.9,210.8 C263.2,207.7 262.1,203.6 259,201.8 z M141.7,161.3 C130.9,161.3 122.2,152.5 122.2,141.8 C122.2,131 131,122.3 141.7,122.3 C152.5,122.3 161.2,131.1 161.2,141.8 C161.3,152.5 152.5,161.3 141.7,161.3 z" fill="#010202"/>
  </g>
</svg>
