<?xml version="1.0" encoding="UTF-8"?>
<!DOCTYPE svg PUBLIC "-//W3C//DTD SVG 1.1//EN" "http://www.w3.org/Graphics/SVG/1.1/DTD/svg11.dtd">
<svg version="1.1" xmlns="http://www.w3.org/2000/svg" xmlns:xlink="http://www.w3.org/1999/xlink" x="0" y="0" width="283.5" height="283.5" viewBox="0, 0, 283.5, 283.5">
  <g id="Background">
    <rect x="0" y="0" width="283.5" height="283.5" fill="#FFFFFF"/>
  </g>
  <g id="Layer_1">
    <path d="M170.441,3.609 L171.33,3.612 C174.012,4.665 172.983,3.997 174.6,5.3 L217.7,48.3 C220.2,50.8 220.2,54.8 217.7,57.3 L191.1,83.9 L209.8,102.6 C212.3,105.1 212.3,109.1 209.8,111.6 C208.5,112.9 206.9,113.5 205.3,113.5 C203.7,113.5 202,112.8 200.8,111.6 L185.9,96.7 C182.5,106.2 176.3,114.2 168.2,119.8 C184.7,125.5 198.8,136.1 208.7,150 L237.9,132.3 L243.6,108.9 C244.4,105.6 247.8,103.5 251.2,104.3 C254.5,105.1 256.6,108.5 255.8,111.9 L253.1,123.1 L267.1,114.6 C270.1,112.8 274,113.7 275.8,116.7 C277.6,119.7 276.7,123.6 273.7,125.4 L258.9,134.4 L271.3,137.4 C274.7,138.2 276.8,141.6 276.2,144.9 C275.5,147.8 272.9,149.7 270.1,149.7 C269.6,149.7 269.1,149.6 268.6,149.5 L243.9,143.5 L215.5,160.7 C221.1,171.8 224.3,184.3 224.3,197.5 C224.3,242.9 187.4,279.8 142,279.8 C96.6,279.8 59.7,242.9 59.7,197.5 C59.7,184.3 62.9,171.9 68.5,160.8 L40,143.5 L15.3,149.5 C14.8,149.6 14.3,149.7 13.8,149.7 C11,149.7 8.4,147.8 7.7,144.9 C6.8,141.6 8.9,138.1 12.3,137.3 L24.7,134.3 L9.9,125.3 C6.9,123.5 6,119.6 7.8,116.6 C9.6,113.6 13.5,112.7 16.5,114.5 L30.5,123 L27.8,111.8 C26.9,108.5 29,105 32.4,104.2 C35.7,103.3 39.2,105.4 40,108.8 L45.7,132.2 L74.9,150 C84.8,136.1 98.9,125.4 115.4,119.8 C103.1,111.4 95,97.2 95,81.2 C95,60.9 108.1,43.6 126.2,37.2 L111.3,22.3 C108.8,19.8 108.8,15.8 111.3,13.3 C113.8,10.8 117.8,10.8 120.3,13.3 L139,32 L165.6,5.3 C167.07,3.843 168.482,3.676 170.441,3.609 z M141.8,128.1 C103.4,128.1 72.2,159.3 72.2,197.7 C72.2,236.1 103.4,267.3 141.8,267.3 C180.2,267.3 211.4,236.1 211.4,197.7 C211.4,159.3 180.2,128.1 141.8,128.1 z M143.252,228.058 C146.485,229.259 145.24,228.483 147.2,230 C148.6,231.4 149.4,233.4 149.4,235.4 C149.4,237.3 148.6,239.3 147.2,240.7 C145.8,242.1 143.8,242.9 141.8,242.9 C139.9,242.9 137.9,242.1 136.5,240.7 C135.1,239.4 134.3,237.4 134.3,235.4 C134.3,233.4 135.1,231.4 136.5,230 C138.842,227.873 140.312,228.075 143.252,228.058 z M142.205,190.126 L143.252,190.131 C146.485,191.358 145.24,190.576 147.2,192.1 C148.6,193.5 149.4,195.4 149.4,197.4 C149.4,199.4 148.6,201.4 147.2,202.8 C145.8,204.2 143.8,205 141.8,205 C139.9,205 137.9,204.2 136.5,202.8 C135.1,201.4 134.3,199.4 134.3,197.4 C134.3,195.5 135.1,193.5 136.5,192.1 C138.228,190.367 139.894,190.192 142.205,190.126 z M143.278,152.131 C146.487,153.359 145.25,152.579 147.2,154.1 C148.6,155.5 149.4,157.5 149.4,159.5 C149.4,161.4 148.6,163.4 147.2,164.8 C145.8,166.2 143.8,167 141.8,167 C139.9,167 137.9,166.2 136.5,164.8 C135.1,163.5 134.3,161.5 134.3,159.5 C134.3,157.5 135.1,155.5 136.5,154.1 C138.865,151.936 140.302,152.131 143.278,152.131 z M136.7,47.5 C120.3,50 107.6,64.1 107.6,81.2 C107.6,100.1 123,115.4 141.7,115.4 C158.8,115.4 172.9,102.7 175.4,86.3 L136.7,47.5 z M170.1,18.7 L147.9,41 L182.1,75.2 L204.3,53 L170.1,18.7 z" fill="#010202"/>
  </g>
</svg>
