<?xml version="1.0" encoding="UTF-8"?>
<!DOCTYPE svg PUBLIC "-//W3C//DTD SVG 1.1//EN" "http://www.w3.org/Graphics/SVG/1.1/DTD/svg11.dtd">
<svg version="1.1" xmlns="http://www.w3.org/2000/svg" xmlns:xlink="http://www.w3.org/1999/xlink" x="0" y="0" width="283.5" height="283.5" viewBox="0, 0, 283.5, 283.5">
  <g id="Background">
    <rect x="0" y="0" width="283.5" height="283.5" fill="#FFFFFF"/>
  </g>
  <g id="Layer_1">
    <path d="M252,220.6 C245.9,220.6 240.1,222.3 235.1,225.6 L220,210.5 C236.8,191.5 245.9,167.3 245.9,141.7 C245.9,116.1 236.7,91.9 220,72.9 L235.1,57.8 C240.1,61 245.9,62.8 252,62.8 C260.4,62.8 268.3,59.5 274.2,53.6 C280.1,47.7 283.4,39.8 283.4,31.4 C283.4,23 280.1,15.1 274.2,9.2 C268.3,3.3 260.4,0 252,0 C243.6,0 235.7,3.3 229.8,9.2 C223.9,15.1 220.6,23 220.6,31.4 C220.6,37.5 222.3,43.3 225.6,48.3 L210.5,63.4 C191.5,46.6 167.3,37.5 141.7,37.5 C115.4,37.5 91.3,47.3 73,63.5 L57.9,48.3 C61.1,43.3 62.9,37.5 62.9,31.4 C62.9,23 59.6,15.1 53.7,9.2 C47.8,3.3 39.8,0 31.4,0 C23,0 15.1,3.3 9.2,9.2 C-3,21.4 -3,41.4 9.2,53.6 C15.1,59.5 23,62.8 31.4,62.8 C37.5,62.8 43.3,61.1 48.3,57.8 L63.4,73 C47.3,91.4 37.4,115.4 37.4,141.7 C37.4,167.3 46.6,191.5 63.3,210.5 L48.2,225.6 C43.2,222.4 37.4,220.6 31.3,220.6 C22.9,220.6 15,223.9 9.1,229.8 C-3.1,242.1 -3.1,262 9.1,274.2 C15,280.1 22.9,283.4 31.3,283.4 C39.7,283.4 47.6,280.1 53.5,274.2 C59.4,268.3 62.7,260.4 62.7,252 C62.7,245.9 61,240.1 57.7,235.1 L72.8,220 C91.8,236.8 116,245.9 141.6,245.9 C167.2,245.9 191.4,236.7 210.4,220 L225.5,235.1 C217.7,247.3 219.1,263.6 229.7,274.2 C235.6,280.1 243.5,283.4 251.9,283.4 C260.3,283.4 268.2,280.1 274.1,274.2 C286.3,262 286.3,242 274.1,229.8 C268.3,223.9 260.4,220.6 252,220.6 z M239.4,18.8 C242.8,15.4 247.3,13.6 252.1,13.6 C256.9,13.6 261.4,15.5 264.8,18.8 C268.2,22.2 270,26.7 270,31.5 C270,36.3 268.1,40.8 264.8,44.2 C261.4,47.6 256.9,49.4 252.1,49.4 C247.3,49.4 242.8,47.5 239.4,44.2 C236,40.8 234.2,36.3 234.2,31.5 C234.1,26.6 236,22.1 239.4,18.8 z M18.7,44.1 C11.7,37.1 11.7,25.8 18.7,18.8 C22.1,15.4 26.6,13.6 31.4,13.6 C36.2,13.6 40.7,15.5 44.1,18.8 C47.5,22.1 49.3,26.7 49.3,31.5 C49.3,36.3 47.4,40.8 44.1,44.2 C40.7,47.6 36.2,49.4 31.4,49.4 C26.6,49.3 22.1,47.5 18.7,44.1 z M44.1,264.7 C40.7,268.1 36.2,269.9 31.4,269.9 C26.6,269.9 22.1,268 18.7,264.7 C11.7,257.7 11.7,246.4 18.7,239.4 C22.1,236 26.6,234.2 31.4,234.2 C36.2,234.2 40.7,236.1 44.1,239.4 C47.5,242.8 49.3,247.3 49.3,252.1 C49.3,256.8 47.5,261.3 44.1,264.7 z M77.5,205.9 C60.4,188.8 51,166 51,141.7 C51,116.8 61.1,94.1 77.5,77.7 C77.6,77.6 77.6,77.6 77.7,77.6 C77.8,77.5 77.8,77.5 77.8,77.4 C94.2,61.1 116.8,50.9 141.8,50.9 C166,50.9 188.8,60.3 206,77.5 C206,77.5 206,77.5 206,77.5 C206,77.5 206,77.5 206,77.5 C223.1,94.6 232.6,117.4 232.6,141.7 C232.6,165.9 223.2,188.7 206,205.9 C188.9,223 166.1,232.5 141.8,232.5 C117.5,232.5 94.7,223.1 77.5,205.9 z M264.7,264.7 C261.3,268.1 256.8,269.9 252,269.9 C247.2,269.9 242.7,268 239.3,264.7 C232.3,257.7 232.3,246.4 239.3,239.4 C242.7,236 247.2,234.2 252,234.2 C256.8,234.2 261.3,236.1 264.7,239.4 C271.7,246.4 271.7,257.7 264.7,264.7 z" fill="#000000"/>
  </g>
</svg>
