<?xml version="1.0" encoding="UTF-8"?>
<!DOCTYPE svg PUBLIC "-//W3C//DTD SVG 1.1//EN" "http://www.w3.org/Graphics/SVG/1.1/DTD/svg11.dtd">
<svg version="1.1" xmlns="http://www.w3.org/2000/svg" xmlns:xlink="http://www.w3.org/1999/xlink" x="0" y="0" width="283.5" height="283.5" viewBox="0, 0, 283.5, 283.5">
  <g id="Background">
    <rect x="0" y="0" width="283.5" height="283.5" fill="#FFFFFF"/>
  </g>
  <g id="Layer_1">
    <path d="M141.7,222.2 C145.4,222.2 148.4,225.2 148.4,228.9 L148.4,276.5 C148.5,280.2 145.5,283.2 141.7,283.2 C138,283.2 135,280.2 135,276.5 L135,228.9 C135,225.2 138,222.2 141.7,222.2 z M186.016,210.686 C182.986,211.086 184.223,210.661 182.2,211.6 C178.9,213.5 177.8,217.6 179.7,220.8 L203.3,261.7 C204.5,263.9 206.8,265.1 209.1,265.1 C210.2,265.1 211.4,264.8 212.5,264.2 C215.8,262.3 216.9,258.2 215,255 L191.4,214.1 C190.029,212.181 188.46,210.955 186.016,210.686 z M97.484,210.756 C94.978,211.435 93.568,211.735 92.1,214.1 L68.5,255 C66.7,258.2 67.8,262.3 71,264.2 C72.1,264.8 73.3,265.1 74.4,265.1 C76.7,265.1 79,263.9 80.2,261.7 L103.8,220.8 C105.6,217.6 104.5,213.5 101.3,211.6 C99.27,210.712 100.51,211.112 97.484,210.756 z M65.816,179.086 C62.786,179.486 64.023,179.061 62,180 L21.8,203.2 C18.5,205.1 17.4,209.2 19.3,212.4 C20.5,214.6 22.8,215.8 25.1,215.8 C26.2,215.8 27.4,215.5 28.5,214.9 L68.7,191.7 C72,189.8 73.1,185.7 71.2,182.5 C69.829,180.581 68.26,179.355 65.816,179.086 z M217.684,179.156 C215.178,179.835 213.768,180.135 212.3,182.5 C210.5,185.7 211.6,189.8 214.8,191.7 L255,214.9 C256.1,215.5 257.3,215.8 258.4,215.8 C260.7,215.8 263,214.6 264.2,212.4 C266,209.2 264.9,205.1 261.7,203.2 L221.5,180 C219.47,179.112 220.71,179.512 217.684,179.156 z M52,135.1 L7,135.1 C3.3,135.1 0.3,138.1 0.3,141.8 C0.3,145.5 3.3,148.5 7,148.5 L52.1,148.5 C55.8,148.5 58.8,145.5 58.7,141.8 C58.7,138.1 55.7,135.1 52,135.1 z M276.4,135.1 L231.4,135.1 C227.7,135.1 224.7,138.1 224.7,141.8 C224.7,145.5 227.7,148.5 231.4,148.5 L276.4,148.5 C280.2,148.5 283.2,145.5 283.1,141.8 C283.1,138.1 280.1,135.1 276.4,135.1 z M258.816,67.586 C255.786,67.986 257.023,67.561 255,68.5 L217.4,90.3 C214.1,92.2 213,96.3 214.9,99.5 C216.1,101.7 218.4,102.9 220.7,102.9 C221.8,102.9 223,102.6 224,102 L261.7,80.2 C265,78.3 266.1,74.2 264.2,71 C262.829,69.081 261.26,67.855 258.816,67.586 z M24.584,67.656 C22.078,68.335 20.668,68.635 19.2,71 C17.4,74.2 18.5,78.3 21.7,80.2 L59.4,102 C60.5,102.6 61.7,102.9 62.8,102.9 C65.1,102.9 67.4,101.7 68.6,99.5 C70.4,96.3 69.3,92.2 66.1,90.3 L28.4,68.5 C26.37,67.612 27.61,68.012 24.584,67.656 z M208.484,18.356 C205.977,19.035 204.568,19.335 203.1,21.7 L181.8,58.7 C180,61.9 181.1,66 184.3,67.9 C185.4,68.5 186.6,68.8 187.7,68.8 C190.1,68.8 192.3,67.5 193.5,65.4 L214.8,28.4 C216.6,25.2 215.5,21.1 212.3,19.2 C210.27,18.312 211.51,18.712 208.484,18.356 z M141.7,0.3 C138,0.3 135,3.3 135,7 L135,49.3 C135,53 138,56 141.7,56 C145.5,56 148.5,53 148.4,49.2 L148.4,7 C148.4,3.3 145.4,0.3 141.7,0.3 z" fill="#010202"/>
  </g>
</svg>
