<?xml version="1.0" encoding="UTF-8"?>
<!DOCTYPE svg PUBLIC "-//W3C//DTD SVG 1.1//EN" "http://www.w3.org/Graphics/SVG/1.1/DTD/svg11.dtd">
<svg version="1.1" xmlns="http://www.w3.org/2000/svg" xmlns:xlink="http://www.w3.org/1999/xlink" x="0" y="0" width="283.5" height="283.5" viewBox="0, 0, 283.5, 283.5">
  <g id="Background">
    <rect x="0" y="0" width="283.5" height="283.5" fill="#FFFFFF"/>
  </g>
  <g id="Layer_1">
    <path d="M252.2,93 C252.7,93 253.1,93 253.5,93.1 L254.1,93.3 C254.4,93.4 254.6,93.4 254.8,93.5 C255.1,93.6 255.3,93.7 255.5,93.8 L256,94.1 C256.3,94.3 256.7,94.6 257,94.9 C257.3,95.2 257.6,95.5 257.8,95.9 C257.9,96 258,96.2 258.1,96.4 L258.4,97 C258.5,97.2 258.5,97.5 258.6,97.7 C258.7,97.9 258.8,98.1 258.8,98.3 C258.9,98.7 258.9,99.2 258.9,99.6 L258.9,169.2 L278.4,256 C279.2,259.6 276.9,263.3 273.2,264.1 C272.7,264.2 272.2,264.3 271.7,264.3 C268.6,264.3 265.8,262.2 265.1,259 L251.9,200.1 L238.7,259 C238,262.1 235.2,264.3 232.1,264.3 C231.6,264.3 231.1,264.2 230.6,264.1 C226.9,263.3 224.6,259.7 225.4,256 L245.2,167.4 C245.2,167.2 245.3,167.1 245.3,167 L245.3,116.1 L212.9,148.5 C211.6,149.8 209.8,150.5 208.1,150.5 C206.4,150.5 204.6,149.8 203.3,148.5 C200.6,145.9 200.6,141.6 203.3,138.9 L247.3,94.9 C247.6,94.6 247.9,94.3 248.3,94.1 C248.4,94 248.6,93.9 248.8,93.8 L249.4,93.5 C249.6,93.4 249.9,93.4 250.1,93.3 C250.3,93.2 250.5,93.1 250.7,93.1 C251.2,93 251.6,93 252,93 L252.2,93 z M31.35,92.75 L30,92.9 C29.8,92.9 29.6,93 29.4,93.1 C29.2,93.2 28.9,93.2 28.7,93.3 L28.1,93.6 C27.9,93.7 27.7,93.8 27.6,93.9 C27.2,94.1 26.9,94.4 26.6,94.7 C26.3,95 26,95.4 25.8,95.7 C25.7,95.9 25.6,96.1 25.5,96.2 L25.2,96.8 C25.1,97 25.1,97.3 25,97.5 L24.8,98.1 C24.7,98.5 24.7,99 24.7,99.4 L24.7,167.9 L4.9,255.9 C4.1,259.6 6.4,263.2 10.1,264 C10.6,264.1 11.1,264.2 11.6,264.2 C14.7,264.2 17.5,262 18.2,258.9 L31.3,200 L44.5,258.9 C45.2,262.1 48,264.2 51.1,264.2 C51.6,264.2 52.1,264.1 52.6,264 C56.3,263.2 58.6,259.5 57.8,255.9 L38.1,168.1 L38.1,116.1 L70.5,148.5 C71.8,149.8 73.6,150.5 75.3,150.5 C77,150.5 78.8,149.8 80.1,148.5 C82.8,145.8 82.8,141.5 80.1,138.9 L36.1,94.8 C35.8,94.5 35.4,94.2 35.1,94 C34.9,93.9 34.7,93.8 34.6,93.7 L34,93.4 C33.8,93.3 33.5,93.2 33.3,93.2 C33,93 32.9,93 32.7,92.9 L31.35,92.75 z M186.2,118.7 L97.2,118.7 C93.4,118.7 90.4,121.8 90.4,125.5 C90.4,129.3 93.4,132.3 97.2,132.3 L134.9,132.3 L134.9,257.4 C134.9,261.2 138,264.2 141.7,264.2 C145.5,264.2 148.5,261.2 148.5,257.4 L148.5,132.3 L186.2,132.3 C190,132.3 193,129.2 193,125.5 C193.1,121.7 190,118.7 186.2,118.7 z M252.1,32.8 C261.9,32.8 269.8,40.7 269.8,50.5 C269.8,60.3 261.9,68.2 252.1,68.2 C242.3,68.2 234.4,60.3 234.4,50.5 C234.4,40.8 242.4,32.8 252.1,32.8 z M252.1,19.3 C234.8,19.3 220.8,33.4 220.8,50.6 C220.8,67.8 234.9,81.9 252.1,81.9 C269.4,81.9 283.4,67.8 283.4,50.6 C283.4,33.3 269.3,19.3 252.1,19.3 z M31.3,32.8 C41.1,32.8 49,40.7 49,50.5 C49,60.3 41.1,68.2 31.3,68.2 C21.5,68.2 13.6,60.3 13.6,50.5 C13.6,40.8 21.6,32.8 31.3,32.8 z M31.3,19.3 C14.1,19.2 0,33.3 0,50.6 C0,67.8 14.1,81.9 31.3,81.9 C48.6,81.9 62.6,67.8 62.6,50.6 C62.6,33.3 48.5,19.3 31.3,19.3 z" fill="#010202"/>
  </g>
</svg>
