<?xml version="1.0" encoding="UTF-8"?>
<!DOCTYPE svg PUBLIC "-//W3C//DTD SVG 1.1//EN" "http://www.w3.org/Graphics/SVG/1.1/DTD/svg11.dtd">
<svg version="1.1" xmlns="http://www.w3.org/2000/svg" xmlns:xlink="http://www.w3.org/1999/xlink" x="0" y="0" width="283.5" height="283.5" viewBox="0, 0, 283.5, 283.5">
  <g id="Background">
    <rect x="0" y="0" width="283.5" height="283.5" fill="#FFFFFF"/>
  </g>
  <g id="Layer_1">
    <path d="M132.8,129.8 C145.4,129.8 155.7,140.1 155.7,152.7 L155.7,187.8 C158.6,186.5 161.7,185.8 165.1,185.8 C174.2,185.8 182,191.1 185.7,198.7 C189.1,196.7 193.1,195.5 197.4,195.5 C208.5,195.5 217.7,203.4 219.8,213.9 C222.8,212.5 226.2,211.7 229.7,211.7 C242.3,211.7 252.6,221.9 251.9,234.5 L251.9,276.7 C251.9,280.4 248.9,283.4 245.2,283.4 C241.5,283.4 238.5,280.4 238.5,276.7 L238.5,234.5 C238.5,229.3 234.3,225.1 229.1,225.1 C223.9,225.1 219.7,229.3 219.7,234.5 L219.7,245.3 C219.7,249 216.7,252 213,252 C209.3,252 206.3,249 206.3,245.3 L206.3,218.4 C206.3,213.2 202.1,209 196.9,209 C191.7,209 187.5,213.2 187.5,218.4 L187.5,234.5 C187.5,238.2 184.5,241.2 180.8,241.2 C177.1,241.2 174.1,238.2 174.1,234.5 L174.1,208.7 C174.1,203.5 169.9,199.3 164.7,199.3 C159.5,199.3 155.3,203.5 155.3,208.7 L155.3,227.5 C155.3,231.2 152.3,234.2 148.6,234.2 C144.9,234.2 141.9,231.2 141.9,227.5 L141.9,152.8 C141.9,147.6 137.7,143.4 132.5,143.4 C127.3,143.4 123.1,147.6 123.1,152.8 L123.1,263.9 L122.9,264.9 C122.9,264.9 122.9,265 122.9,265 L122.7,265.5 C122.6,265.5 122.6,265.6 122.6,265.6 L122.3,266.2 L121.9,266.8 C121.8,266.9 121.8,266.9 121.7,267 C121.7,267.1 121.6,267.2 121.5,267.3 L121.4,267.5 L120.7,268.2 C120.6,268.2 120.5,268.3 120.4,268.4 C120.3,268.5 120.3,268.6 120.2,268.6 L119.6,268.9 L118.9,269.2 C118.8,269.3 118.8,269.3 118.7,269.3 C118.6,269.4 118.4,269.5 118.2,269.5 C118.1,269.6 118.1,269.6 118,269.6 C117.9,269.6 117.7,269.7 117.5,269.7 L116.6,269.7 L115.8,269.6 C115.7,269.6 115.7,269.6 115.6,269.6 C115.3,269.6 115.1,269.6 114.9,269.5 L114.7,269.5 L113.95,269.275 L113,268.8 C112.8,268.6 112.7,268.5 112.5,268.4 L112.3,268.3 C112.1,268.2 111.9,268 111.7,267.8 L111.6,267.7 C111.5,267.5 111.3,267.4 111.2,267.2 L111.1,267 C110.9,266.8 110.7,266.6 110.6,266.3 L86.7,221.8 L86.4,221.2 C85.4,218.9 83.6,217.1 81.3,216.1 C79,215.1 76.4,215.1 74.1,216.1 C71.8,217.1 70,218.9 69,221.2 C68.1,223.3 68.1,225.6 68.8,227.8 L90.2,273.7 C91.8,277 90.4,281 87,282.6 C86.1,283 85.2,283.2 84.2,283.2 C81.7,283.2 79.2,281.7 78.1,279.3 L57.2,234.5 C57,234.2 56.8,233.9 56.7,233.5 C54.4,227.8 54.4,221.6 56.7,216 C59.1,210.3 63.5,205.9 69.1,203.6 C74.7,201.3 81,201.3 86.6,203.6 C92,205.9 96.3,210.1 98.7,215.4 L109.9,236.3 L109.9,152.7 C109.9,140.1 120.2,129.8 132.8,129.8 z M133.3,-0 C106,-0 80.3,10.6 60.9,30 C21,69.9 21,134.8 60.9,174.8 C62.1,176 63.9,176.7 65.6,176.7 C67.3,176.7 69,176 70.4,174.7 C73,172.1 73,167.8 70.4,165.2 C35.7,130.5 35.7,74.1 70.4,39.5 C87.2,22.7 109.5,13.5 133.3,13.5 C157,13.5 179.4,22.7 196.2,39.5 C213,56.3 222.2,78.6 222.2,102.4 C222.2,126.2 213,148.5 196.2,165.3 C193.6,167.9 193.6,172.2 196.2,174.8 C198.8,177.4 203.1,177.4 205.7,174.8 C225,155.5 235.7,129.8 235.7,102.4 C235.7,75.1 225.1,49.4 205.7,30 C186.4,10.7 160.7,-0 133.3,-0 z M73.2,81 C67.2,81 60.6,84.7 60.6,91.2 C60.6,95.5 63.1,98.7 66.9,100.4 L73.8,103.6 C75.4,104.3 76.9,105.3 76.9,107.2 C76.9,110 74.2,111 72.1,111 C69.5,111 66.6,110.3 64.1,109.4 C63.7,109.3 63.5,109.2 63.2,109.2 C62.5,109.2 62.3,109.7 62.1,110.2 L60.7,114.3 C60.3,115.4 60.7,115.9 61.6,116.2 C64.9,117.4 69,118 72.3,118 C79.3,118 85.2,113.8 85.2,106.4 C85.2,101.7 82.6,99 78.5,97.1 L72.6,94.4 C71.3,93.8 69.3,92.8 69.3,91.2 C69.3,88.8 71.6,88 73.7,88 C75.8,88 78,88.5 80.7,89.6 C81.7,90 82.3,89.9 82.6,88.9 L84.2,84.9 C84.6,83.9 84.3,83.4 83.3,83 C80.1,81.6 76.9,81 73.2,81 z M158.9,88.1 C162.7,88.1 165.5,89.5 165.5,93.6 C165.5,97.4 163.2,99.4 159.5,99.4 L156.9,99.4 L156.9,88.1 L158.9,88.1 z M158.2,82 L150.4,82 C149,82 148.7,82.4 148.7,83.7 L148.7,116 C148.7,117 149.1,117.5 150.1,117.5 L155.4,117.5 C156.4,117.5 156.8,116.9 156.8,116.1 L156.8,105.5 L160,105.5 L167.1,116.4 C167.7,117.3 168.4,117.5 169.4,117.5 L174.9,117.5 C175.9,117.5 176.1,117.1 176.1,116.7 C176.1,116.3 175.9,116 175.7,115.7 L167.5,104 L167.5,103.9 C171.8,101.8 173.7,98 173.7,93.4 C173.7,90.6 172.8,87.8 170.9,85.8 C167.8,82.3 162.5,82 158.2,82 z M115.4,82 L87.9,82 C87,82 86.5,82.4 86.5,83.3 L86.5,87 C86.5,88 86.9,88.5 87.9,88.5 L97.3,88.5 L97.3,116 C97.3,117 97.8,117.5 98.8,117.5 L104.1,117.5 C105.1,117.5 105.5,116.9 105.5,116.1 L105.5,88.6 L114.5,88.6 C115.6,88.6 116.2,88.3 116.3,87.3 L116.7,83.3 C116.8,82.5 116.4,82 115.4,82 z M128.9,90.9 C129.2,91.8 129.5,92.7 129.8,93.9 L133,104 L124.6,104 L127.9,93.9 C128.3,92.8 128.6,91.8 128.8,90.9 L128.9,90.9 z M131.9,81.9 L126.5,81.9 C125.5,81.9 125.1,82.4 124.8,83.2 L112.8,115.7 C112.3,116.6 112.5,117.5 113.6,117.5 L119.1,117.5 C120,117.5 120.4,116.9 120.6,116.3 L122.6,110.2 L135.3,110.2 L137.4,116.1 C137.7,117 138.2,117.5 139.4,117.5 L145.1,117.5 C146.2,117.5 146.4,116.6 146,115.7 L133.6,83.2 C133.3,82.4 132.8,81.9 131.9,81.9 z M204.4,82 L176.8,82 C175.9,82 175.4,82.4 175.4,83.3 L175.4,87 C175.4,88 175.8,88.5 176.8,88.5 L186.2,88.5 L186.2,116 C186.4,117 186.8,117.5 187.8,117.5 L193.1,117.5 C194.1,117.5 194.5,116.9 194.5,116.1 L194.5,88.6 L203.5,88.6 C204.6,88.6 205.2,88.3 205.3,87.3 L205.7,83.3 C205.8,82.5 205.4,82 204.4,82 z" fill="#000000"/>
  </g>
</svg>
