<?xml version="1.0" encoding="UTF-8"?>
<!DOCTYPE svg PUBLIC "-//W3C//DTD SVG 1.1//EN" "http://www.w3.org/Graphics/SVG/1.1/DTD/svg11.dtd">
<svg version="1.1" xmlns="http://www.w3.org/2000/svg" xmlns:xlink="http://www.w3.org/1999/xlink" x="0" y="0" width="283.5" height="283.5" viewBox="0, 0, 283.5, 283.5">
  <g id="Background">
    <rect x="0" y="0" width="283.5" height="283.5" fill="#FFFFFF"/>
  </g>
  <g id="Layer_1">
    <path d="M273.5,101.9 C277.1,101.9 279.9,104.8 279.9,108.3 L279.9,263 C279.9,266.5 277,269.4 273.5,269.4 L94.9,269.4 C91.4,269.4 88.5,266.5 88.5,263 C88.5,259.5 91.4,256.6 94.9,256.6 L267.1,256.6 L267.1,108.3 C267.1,104.8 270,101.9 273.5,101.9 z M190.6,35.9 L232.6,77.9 L190.6,77.9 L190.6,35.9 z M184.2,14.2 L126.7,14.2 C123.2,14.2 120.3,17.1 120.3,20.6 C120.3,24.1 123.2,27 126.7,27 L177.9,27 L177.9,84.4 C177.9,87.9 180.8,90.8 184.3,90.8 L241.7,90.8 L241.7,231.2 L75.8,231.2 L75.8,163.5 C75.8,160 72.9,157.1 69.4,157.1 C65.9,157.1 63,160 63,163.5 L63,237.6 C63,241.1 65.9,244 69.4,244 L248,244 C251.5,243.8 254.4,241 254.4,237.4 L254.4,84.3 C254.4,83.9 254.4,83.5 254.3,83.1 C254.3,82.9 254.2,82.7 254.1,82.5 C254,82.3 254,82.1 253.9,81.9 L253.6,81.3 C253.5,81.1 253.4,81 253.4,80.8 C253.2,80.4 252.9,80.1 252.6,79.8 L188.7,16 C188.4,15.7 188.1,15.4 187.7,15.2 C187.6,15.1 187.4,15 187.2,15 C187,14.9 186.8,14.8 186.6,14.7 L185.4,14.3 C185,14.2 184.6,14.2 184.2,14.2 z M184.2,116.1 C180.7,116.1 177.8,119 177.8,122.5 L177.8,192.7 L165,192.7 L165,148 C165,144.5 162.1,141.6 158.6,141.6 C155.1,141.6 152.2,144.5 152.2,148 L152.2,192.7 L139.4,192.7 L139.4,173.6 C139.6,170.1 136.7,167.2 133.2,167.2 C129.7,167.2 126.8,170.1 126.8,173.6 L126.8,192.7 L120.4,192.7 C116.9,192.7 114,195.6 114,199.1 C114,202.6 116.9,205.5 120.4,205.5 L197,205.5 C200.5,205.5 203.4,202.6 203.4,199.1 C203.4,195.6 200.5,192.7 197,192.7 L190.6,192.7 L190.6,122.5 C190.6,119 187.7,116.1 184.2,116.1 z M91.1,31.5 C100,35.6 107.5,41.9 113,49.8 C108.5,51.1 103.5,52.1 98.1,52.9 C96.5,45 94.1,37.6 91.1,31.5 z M47.7,31.6 C44.7,37.7 42.3,45.1 40.7,53 C35.3,52.2 30.2,51.1 25.8,49.9 C31.2,41.9 38.8,35.6 47.7,31.6 z M69.4,26.9 C74.7,26.9 81.7,37.1 85.5,54.4 C80.2,54.8 74.9,55 69.4,55 C63.9,55 58.5,54.8 53.4,54.4 C57,37.1 64.1,26.9 69.4,26.9 z M87.4,67.1 C87.8,71.1 88,75.4 88,80 C88,84.6 87.8,88.9 87.4,92.9 C81.6,92.4 75.5,92.1 69.4,92.1 C63.3,92.1 57.2,92.4 51.4,92.9 C51,88.8 50.8,84.5 50.8,80 C50.8,75.4 51,71.1 51.4,67.1 C57.2,67.6 63.2,67.9 69.4,67.9 C75.6,67.9 81.6,67.6 87.4,67.1 z M119,61.3 C121.2,67.1 122.5,73.4 122.5,80 C122.5,86.6 121.2,92.8 119,98.7 C113.4,96.9 107,95.5 100,94.4 C100.5,89.6 100.7,84.8 100.7,80 C100.7,75.2 100.4,70.4 100,65.6 C107,64.5 113.4,63.1 119,61.3 z M19.8,61.3 C25.4,63.1 31.8,64.5 38.8,65.6 C38.3,70.3 38,75.2 38,80 C38,84.8 38.3,89.6 38.7,94.4 C31.7,95.5 25.3,96.9 19.7,98.7 C17.6,92.8 16.3,86.5 16.3,80 C16.3,73.4 17.6,67.2 19.8,61.3 z M98.1,106.9 C103.5,107.7 108.6,108.8 113,110 C107.5,118 100,124.4 91.1,128.3 C94.1,122.2 96.5,114.8 98.1,106.9 z M40.6,107 C42.2,114.9 44.6,122.3 47.6,128.4 C38.8,124.4 31.2,118 25.7,110.1 C30.2,108.8 35.2,107.8 40.6,107 z M69.4,104.9 C74.9,104.9 80.3,105.1 85.5,105.5 C81.8,122.8 74.8,133 69.5,133 C64.2,133 57.2,122.8 53.5,105.5 C58.5,105.1 63.9,104.9 69.4,104.9 z M69.4,14.2 C33.1,14.1 3.5,43.7 3.5,80 C3.5,116.3 33.1,145.8 69.4,145.8 C105.7,145.8 135.2,116.3 135.2,80 C135.2,43.7 105.7,14.2 69.4,14.2 z" fill="#000000"/>
  </g>
</svg>
