<?xml version="1.0" encoding="UTF-8"?>
<!DOCTYPE svg PUBLIC "-//W3C//DTD SVG 1.1//EN" "http://www.w3.org/Graphics/SVG/1.1/DTD/svg11.dtd">
<svg version="1.1" xmlns="http://www.w3.org/2000/svg" xmlns:xlink="http://www.w3.org/1999/xlink" x="0" y="0" width="283.5" height="283.5" viewBox="0, 0, 283.5, 283.5">
  <g id="Background">
    <rect x="0" y="0" width="283.5" height="283.5" fill="#FFFFFF"/>
  </g>
  <g id="Layer_1">
    <path d="M107.8,68.3 C111.6,68.3 114.6,71.4 114.6,75.1 C114.6,78.9 111.5,81.9 107.8,81.9 C56.2,81.9 14.2,123.9 14.2,175.5 C14.2,227.1 56.2,269.1 107.8,269.1 C159.4,269.1 201.4,227.1 201.4,175.5 C201.4,171.7 204.5,168.7 208.2,168.7 C212,168.7 215,171.7 215,175.5 C215,234.6 166.9,282.7 107.8,282.7 C48.7,282.7 0.6,234.6 0.6,175.5 C0.6,116.4 48.7,68.3 107.8,68.3 z M107.8,132 C114.9,132.1 121.6,133.8 127.5,136.8 L115.2,153.7 C112.9,152.9 110.4,152.5 107.8,152.5 C105.2,152.5 102.7,152.9 100.4,153.7 L88.1,136.8 C94,133.8 100.7,132 107.8,132 z M138.5,144.7 C146.4,152.6 151.3,163.4 151.3,175.4 C151.2,177.8 151.1,180.1 150.7,182.3 L130.8,175.8 L130.8,175.4 C130.8,170.2 129.1,165.4 126.2,161.6 L138.5,144.7 z M77.1,144.8 L89.4,161.7 C86.5,165.5 84.8,170.3 84.8,175.5 C84.8,175.6 84.8,175.7 84.8,175.9 L64.9,182.4 C64.5,180.2 64.4,177.9 64.4,175.6 C64.4,163.5 69.3,152.6 77.1,144.8 z M107.8,166 C113,166 117.3,170.3 117.3,175.5 C117.3,180.7 113,185 107.8,185 C102.6,185 98.3,180.7 98.3,175.5 C98.3,170.3 102.5,166 107.8,166 z M126.6,188.7 L146.5,195.2 C140.3,207.3 128.5,216.2 114.6,218.4 L114.6,197.5 C119.5,196 123.7,192.9 126.6,188.7 z M89,188.7 C91.9,192.8 96.1,195.9 101,197.5 L101,218.4 C87.1,216.2 75.3,207.3 69.1,195.2 L89,188.7 z M107.8,118.5 C76.4,118.5 50.8,144.1 50.8,175.5 C50.8,206.9 76.4,232.5 107.8,232.5 C139.2,232.5 164.8,206.9 164.8,175.5 C164.8,144.1 139.2,118.5 107.8,118.5 z M208.2,119.4 C204.4,119.4 201.4,122.4 201.4,126.2 L201.4,142.7 C201.4,146.5 204.5,149.5 208.2,149.5 C211.9,149.5 215,146.5 215,142.7 L215,126.2 C215,122.5 212,119.4 208.2,119.4 z M172.358,104.668 C170.249,104.741 168.791,104.954 167.2,106.5 L155.5,118.2 C152.9,120.8 152.9,125.1 155.5,127.8 C156.8,129.1 158.6,129.8 160.3,129.8 C162,129.8 163.8,129.1 165.1,127.8 L176.8,116.1 C179.4,113.5 179.4,109.2 176.8,106.5 C175.077,105.098 176.17,105.815 173.332,104.672 L172.358,104.668 z M244.758,104.668 C242.649,104.741 241.191,104.954 239.6,106.5 C237,109.1 237,113.4 239.6,116.1 L251.3,127.8 C252.6,129.1 254.4,129.8 256.1,129.8 C257.8,129.8 259.6,129.1 260.9,127.8 C263.5,125.2 263.5,120.9 260.9,118.2 L249.2,106.5 C247.477,105.098 248.57,105.815 245.732,104.672 L244.758,104.668 z M208.2,53.1 C220.3,53.1 230.2,63 230.2,75.1 C230.2,87.2 220.3,97.1 208.2,97.1 C196.1,97.1 186.2,87.2 186.2,75.1 C186.2,63 196.1,53.1 208.2,53.1 z M208.2,39.5 C188.6,39.5 172.6,55.4 172.6,75.1 C172.6,94.7 188.5,110.7 208.2,110.7 C227.8,110.7 243.8,94.7 243.8,75.1 C243.8,55.5 227.8,39.5 208.2,39.5 z M275.9,68.3 L259.4,68.3 C255.7,68.3 252.6,71.3 252.6,75.1 C252.6,78.9 255.6,81.9 259.4,81.9 L275.9,81.9 C279.6,81.9 282.7,78.9 282.7,75.1 C282.7,71.3 279.6,68.3 275.9,68.3 z M157,68.3 L140.5,68.3 C136.8,68.3 133.7,71.3 133.7,75.1 C133.7,78.9 136.8,81.9 140.5,81.9 L157,81.9 C160.7,81.9 163.8,78.9 163.8,75.1 C163.8,71.3 160.8,68.3 157,68.3 z M160.658,20.568 C158.549,20.641 157.091,20.854 155.5,22.4 C152.9,25 152.9,29.3 155.5,32 L167.2,43.7 C168.5,45 170.3,45.7 172,45.7 C173.7,45.7 175.5,45 176.8,43.7 C179.4,41.1 179.4,36.8 176.8,34.1 L165.1,22.4 C163.377,20.998 164.47,21.715 161.632,20.572 L160.658,20.568 z M256.358,20.568 C254.249,20.641 252.791,20.854 251.2,22.4 L239.5,34.1 C236.9,36.7 236.9,41 239.5,43.7 C240.9,45 242.7,45.7 244.4,45.7 C246.1,45.7 247.9,45 249.2,43.7 L260.8,32 C263.4,29.4 263.4,25.1 260.8,22.4 C259.077,20.998 260.17,21.715 257.332,20.572 L256.358,20.568 z M208.2,0.6 C204.4,0.6 201.4,3.6 201.4,7.4 L201.4,23.9 C201.4,27.7 204.5,30.7 208.2,30.7 C211.9,30.7 215,27.7 215,23.9 L215,7.4 C215,3.7 212,0.6 208.2,0.6 z" fill="#000000"/>
  </g>
</svg>
