<?xml version="1.0" encoding="UTF-8"?>
<!DOCTYPE svg PUBLIC "-//W3C//DTD SVG 1.1//EN" "http://www.w3.org/Graphics/SVG/1.1/DTD/svg11.dtd">
<svg version="1.1" xmlns="http://www.w3.org/2000/svg" xmlns:xlink="http://www.w3.org/1999/xlink" x="0" y="0" width="283.5" height="283.5" viewBox="0, 0, 283.5, 283.5">
  <g id="Background">
    <rect x="0" y="0" width="283.5" height="283.5" fill="#FFFFFF"/>
  </g>
  <g id="Layer_1">
    <path d="M283.5,139.9 C283.5,126.9 272.9,116.2 259.8,116.2 L220.4,116.2 L181.6,77.4 C175.9,71.8 165.7,67.5 157.7,67.5 L37.3,67.5 C28.2,67.5 18.9,73.9 15.6,82.4 L1.5,121 C1.5,121.1 1.4,121.2 1.4,121.4 C0.5,123.9 -0,126.6 -0,129.3 L-0,170 C-0,183 10.6,193.7 23.7,193.7 L43.4,193.7 C46.5,206.5 58.1,216 71.8,216 C85.5,216 97,206.5 100.2,193.7 L193.9,193.7 C197,206.5 208.6,216 222.3,216 C236,216 247.5,206.5 250.7,193.7 L260,193.7 C273,193.7 283.7,183.1 283.7,170 L283.5,139.9 z M171.8,87.4 L200.8,116.3 L140.8,116.3 L140.8,81.5 L157.7,81.5 C161.9,81.5 168.8,84.4 171.8,87.4 z M78.9,116.3 L78.9,81.5 L126.9,81.5 L126.9,116.3 L78.9,116.3 z M28.7,87.5 C29.9,84.4 34.1,81.6 37.3,81.6 L65,81.6 L65,116.4 L18.1,116.4 L28.7,87.5 z M71.7,201.9 C63.3,201.9 56.4,195 56.4,186.6 C56.4,178.2 63.3,171.3 71.7,171.3 C80.1,171.3 87,178.2 87,186.6 C87,195 80.1,201.9 71.7,201.9 z M222.1,201.9 C213.7,201.9 206.8,195 206.8,186.6 C206.8,178.2 213.7,171.3 222.1,171.3 C230.5,171.3 237.4,178.2 237.4,186.6 C237.4,195 230.6,201.9 222.1,201.9 z M259.8,179.7 L250.5,179.7 C247.4,166.9 235.8,157.4 222.1,157.4 C208.4,157.4 196.9,166.9 193.7,179.7 L100,179.7 C96.9,166.9 85.3,157.4 71.6,157.4 C57.9,157.4 46.4,166.9 43.2,179.7 L23.7,179.7 C18.3,179.7 14,175.3 14,170 L14,130.3 L259.9,130.3 C265.3,130.3 269.6,134.7 269.6,140 L269.6,170 C269.6,175.3 265.2,179.7 259.8,179.7 z" fill="#010202"/>
  </g>
</svg>
