<?xml version="1.0" encoding="UTF-8"?>
<!DOCTYPE svg PUBLIC "-//W3C//DTD SVG 1.1//EN" "http://www.w3.org/Graphics/SVG/1.1/DTD/svg11.dtd">
<svg version="1.1" xmlns="http://www.w3.org/2000/svg" xmlns:xlink="http://www.w3.org/1999/xlink" x="0" y="0" width="283.5" height="283.5" viewBox="0, 0, 283.5, 283.5">
  <g id="Background">
    <rect x="0" y="0" width="283.5" height="283.5" fill="#FFFFFF"/>
  </g>
  <g id="Layer_1">
    <path d="M276.7,0 C278.5,0 280.2,0.7 281.5,2 C282.8,3.3 283.5,5 283.5,6.8 L283.5,121.4 C283.5,123.2 282.8,124.9 281.5,126.2 L126.2,281.5 C124.9,282.8 123.2,283.5 121.4,283.5 C119.6,283.5 117.9,282.8 116.6,281.5 L2,166.9 C-0.6,164.3 -0.6,160 2,157.3 L157.3,2 C158.6,0.7 160.3,0 162.1,0 L276.7,0 z M270,13.5 L164.9,13.5 L16.3,162.1 L121.4,267.2 L270,118.6 L270,13.5 z M90.1,127 C95.9,127 100.9,128.1 105.6,130.2 C106.8,130.9 107.4,131.7 106.9,133.1 L104.6,139.9 C104.2,141.1 103.5,141.3 102.3,140.8 C98,138.9 94.7,138 90.9,138 C82.5,138 77,144.5 77,156.3 C77,169.1 83.2,174.6 91.1,174.6 C94.9,174.6 98.2,173.8 102,172.3 C103.1,171.9 104.2,171.8 104.7,173.3 L106.7,179.3 C107.1,180.4 107.3,181.6 105.5,182.4 C101.2,184.3 95.4,185.6 89.1,185.6 C71.9,185.6 63.2,174.2 63.2,156.7 C63.2,139.2 73.8,127 90.1,127 z M123.2,128.4 C124.7,128.4 125.5,128.8 125.5,130.5 L125.5,150.9 L146,150.9 L146,130.5 C146,128.9 147.1,128.4 148.5,128.4 L156.5,128.4 C158,128.4 158.8,128.8 158.8,130.5 L158.8,182.3 C158.8,184 158.1,184.7 156.5,184.7 L148.5,184.7 C146.8,184.7 146,184.1 146,182.3 L146,161.4 L125.5,161.4 L125.5,182.3 C125.5,184 124.8,184.7 123.2,184.7 L115.2,184.7 C113.5,184.7 112.7,184.1 112.7,182.3 L112.7,130.5 C112.7,128.9 113.8,128.4 115.2,128.4 L123.2,128.4 z M202,128.4 C203.6,128.4 204.1,129.2 204,130.3 L203.3,136.9 C203.1,138.6 202.1,138.9 200.1,138.9 L180.5,138.9 L180.5,150.9 L199,150.9 C200.8,150.9 201.4,151.8 201.4,153.1 L201.4,159 C201.4,160.6 200.6,161.4 199,161.4 L180.5,161.4 L180.5,182.4 C180.5,183.9 179.8,184.7 178.2,184.7 L170.3,184.7 C168.4,184.7 167.6,184.2 167.6,182.2 L167.6,130.7 C167.6,129.3 168.3,128.4 169.7,128.4 L202,128.4 z M230.8,27 C237.6,27 244.1,29.7 248.8,34.5 C253.6,39.3 256.3,45.7 256.3,52.6 C256.3,59.5 253.7,65.9 248.8,70.8 C244,75.6 237.6,78.3 230.7,78.3 C223.9,78.3 217.4,75.6 212.6,70.8 C202.6,60.8 202.6,44.5 212.6,34.5 C217.5,29.7 223.9,27 230.8,27 z M230.8,40.5 C227.7,40.5 224.6,41.7 222.2,44.1 C217.5,48.9 217.5,56.6 222.2,61.3 C224.6,63.7 227.7,64.9 230.8,64.9 C233.9,64.9 237,63.7 239.4,61.3 C244.1,56.5 244.1,48.8 239.4,44.1 C237,41.7 233.9,40.5 230.8,40.5 z" fill="#000000"/>
  </g>
</svg>
