<?xml version="1.0" encoding="UTF-8"?>
<!DOCTYPE svg PUBLIC "-//W3C//DTD SVG 1.1//EN" "http://www.w3.org/Graphics/SVG/1.1/DTD/svg11.dtd">
<svg version="1.1" xmlns="http://www.w3.org/2000/svg" xmlns:xlink="http://www.w3.org/1999/xlink" x="0" y="0" width="283.5" height="283.5" viewBox="0, 0, 283.5, 283.5">
  <g id="Background">
    <rect x="0" y="0" width="283.5" height="283.5" fill="#FFFFFF"/>
  </g>
  <g id="Layer_1">
    <path d="M141.7,0 C182.6,0 216,33.3 216,74.2 L216,121.5 L236.2,121.5 C247.4,121.5 256.4,130.6 256.4,141.7 L256.4,263.2 C256.5,274.4 247.4,283.5 236.2,283.5 L47.2,283.5 C36,283.5 27,274.4 27,263.3 L27,141.7 C27,130.5 36.1,121.5 47.2,121.5 L67.5,121.5 L67.5,74.2 C67.5,33.3 100.8,0 141.7,0 z M236.2,135 L47.2,135 C43.5,135 40.5,138 40.5,141.7 L40.5,263.2 C40.5,266.9 43.5,269.9 47.2,269.9 L236.2,269.9 C239.9,269.9 242.9,266.9 242.9,263.2 L242.9,141.7 C242.9,138 239.9,135 236.2,135 z M98.3,173.3 C104.1,173.3 109.1,174.4 113.8,176.5 C114.9,177 115.5,177.9 115,179.2 L112.7,186 C112.3,187.2 111.6,187.4 110.4,186.9 C106.1,185 102.8,184.1 99,184.1 C90.6,184.1 85.2,190.6 85.2,202.4 C85.2,215.2 91.4,220.7 99.3,220.7 C103.1,220.7 106.3,219.9 110.2,218.4 C111.3,218 112.4,217.9 112.9,219.4 L114.9,225.4 C115.3,226.5 115.5,227.7 113.7,228.5 C109.4,230.4 103.6,231.7 97.3,231.7 C80.1,231.7 71.4,220.3 71.4,202.9 C71.4,185.4 82,173.3 98.3,173.3 z M131.2,174.5 C132.7,174.5 133.5,174.9 133.5,176.6 L133.5,197 L154,197 L154,176.6 C154,175 155.1,174.5 156.5,174.5 L164.5,174.5 C166,174.5 166.8,174.9 166.8,176.6 L166.8,228.3 C166.8,230 166.1,230.7 164.5,230.7 L156.5,230.7 C154.8,230.7 154,230.1 154,228.3 L154,207.4 L133.5,207.4 L133.5,228.3 C133.5,230 132.8,230.7 131.2,230.7 L123.2,230.7 C121.5,230.7 120.7,230.1 120.7,228.3 L120.7,176.6 C120.7,175 121.8,174.5 123.2,174.5 L131.2,174.5 z M209.9,174.5 C211.5,174.5 212,175.3 211.9,176.4 L211.2,183 C211,184.7 210,185 208,185 L188.4,185 L188.4,197 L207,197 C208.8,197 209.4,197.9 209.4,199.2 L209.4,205.1 C209.4,206.7 208.6,207.4 207,207.4 L188.5,207.4 L188.5,228.4 C188.5,229.9 187.8,230.7 186.2,230.7 L178.3,230.7 C176.4,230.7 175.6,230.2 175.6,228.2 L175.6,176.8 C175.6,175.4 176.3,174.5 177.7,174.5 L209.9,174.5 z M141.8,13.5 C108.3,13.5 81,40.7 81,74.2 L81,121.5 L202.5,121.5 L202.5,74.2 C202.5,40.7 175.3,13.5 141.8,13.5 z" fill="#000000"/>
  </g>
</svg>
