<?xml version="1.0" encoding="UTF-8"?>
<!DOCTYPE svg PUBLIC "-//W3C//DTD SVG 1.1//EN" "http://www.w3.org/Graphics/SVG/1.1/DTD/svg11.dtd">
<svg version="1.1" xmlns="http://www.w3.org/2000/svg" xmlns:xlink="http://www.w3.org/1999/xlink" x="0" y="0" width="283.5" height="283.5" viewBox="0, 0, 283.5, 283.5">
  <g id="Background">
    <rect x="0" y="0" width="283.5" height="283.5" fill="#FFFFFF"/>
  </g>
  <g id="Layer_1">
    <path d="M27.94,172.483 L29.3,172.5 L124.4,184.1 C133.9,185.3 141.9,192.5 144.8,201.4 L224.1,175.8 L224.3,175.8 C231.9,173.6 239.9,174.6 246.8,178.5 C253.7,182.4 258.7,188.8 260.8,196.4 C261.8,200.1 262.1,203.9 261.7,207.7 C261.6,208.3 261.5,208.7 261.3,209.2 C261.2,209.3 261.1,209.5 261.1,209.7 L260.9,210.1 C260.3,211.3 259.3,212.3 258,213 L124.4,279.1 C118.3,282 111.3,283.4 104.2,283.4 C92,283.4 79.5,279.3 70.9,271.7 L24,230 C21.2,227.6 21,223.4 23.4,220.7 C25.8,217.9 30,217.7 32.7,220.1 L79.6,261.8 C89.2,270.3 107,272.8 118.5,267.2 L248.5,202.9 C248.5,201.9 248.3,200.9 248,199.9 C246.8,195.7 244,192.2 240.2,190 C236.4,187.9 232,187.3 227.8,188.5 L145.3,215.1 C143.1,225.3 134.1,232.9 123.3,232.9 L79.1,232.9 C75.5,232.9 72.5,230 72.5,226.3 C72.5,222.7 75.4,219.7 79.1,219.7 L123.4,219.7 C128.5,219.7 132.7,215.5 132.7,210.4 L132.7,208.5 C132.7,203.1 128.2,198 122.8,197.3 L27.7,185.7 C24,185.2 21.5,181.9 21.9,178.3 C22.842,174.193 24.26,173.525 27.94,172.483 z M141.7,13.2 C152.9,13.2 163.3,28.1 168.9,49.3 L114.5,49.3 C120.2,28.1 130.5,13.2 141.7,13.2 z M170.5,19.3 C184.5,25.5 196.2,36.1 203.7,49.3 L182.6,49.3 C179.8,37.6 175.7,27.4 170.5,19.3 z M112.9,19.3 C107.8,27.4 103.6,37.6 100.8,49.3 L79.7,49.3 C87.3,36.1 98.9,25.5 112.9,19.3 z M171.6,62.5 C172.7,69.5 173.3,76.9 173.3,84.5 C173.3,92.1 172.7,99.5 171.6,106.5 L111.8,106.5 C110.7,99.5 110.1,92.1 110.1,84.5 C110.1,76.9 110.7,69.5 111.8,62.5 L171.6,62.5 z M209.6,62.6 C211.8,69.5 213.1,76.9 213.1,84.6 C213.1,92.3 211.9,99.7 209.6,106.6 L185.1,106.6 C186.1,99.6 186.6,92.2 186.6,84.6 C186.6,77 186.1,69.6 185.1,62.6 L209.6,62.6 z M98.4,62.6 C97.4,69.6 96.9,77 96.9,84.6 C96.9,92.2 97.4,99.6 98.4,106.6 L73.9,106.6 C71.6,99.7 70.4,92.3 70.4,84.6 C70.4,76.9 71.6,69.5 73.9,62.6 L98.4,62.6 z M100.8,119.8 C103.6,131.5 107.7,141.7 112.9,149.8 C98.9,143.6 87.3,133 79.7,119.8 L100.8,119.8 z M203.8,119.8 C196.2,133 184.5,143.6 170.6,149.8 C175.7,141.7 179.9,131.5 182.7,119.8 L203.8,119.8 z M168.9,119.8 C163.3,141 153,155.9 141.7,155.9 C130.5,155.9 120.1,141 114.5,119.8 L168.9,119.8 z M141.7,-0.1 C95.1,0 57.2,37.9 57.2,84.6 C57.2,131.2 95.1,169.1 141.7,169.1 C188.3,169.1 226.3,131.2 226.3,84.5 C226.3,37.9 188.4,-0.1 141.7,-0.1 z" fill="#010202"/>
  </g>
</svg>
