<?xml version="1.0" encoding="UTF-8"?>
<!DOCTYPE svg PUBLIC "-//W3C//DTD SVG 1.1//EN" "http://www.w3.org/Graphics/SVG/1.1/DTD/svg11.dtd">
<svg version="1.1" xmlns="http://www.w3.org/2000/svg" xmlns:xlink="http://www.w3.org/1999/xlink" x="0" y="0" width="283.5" height="283.5" viewBox="0, 0, 283.5, 283.5">
  <g id="Background">
    <rect x="0" y="0" width="283.5" height="283.5" fill="#FFFFFF"/>
  </g>
  <g id="Layer_1">
    <path d="M177.9,0.1 C178.1,0.2 178.2,0.2 178.3,0.2 C178.4,0.3 178.5,0.3 178.6,0.3 C178.8,0.3 178.9,0.4 179,0.4 L179.3,0.5 C179.5,0.5 179.6,0.6 179.7,0.6 L180.3,0.8 L181.2,1.4 C181.3,1.4 181.4,1.5 181.5,1.6 L181.8,1.8 C182,1.9 182.1,2 182.3,2.2 L267.3,87.2 L267.7,87.7 L268.7,89.2 L269.1,90.4 C269.1,90.5 269.2,90.6 269.2,90.7 C269.3,90.8 269.3,91 269.3,91.1 L269.3,276.5 C269.3,280.4 266.1,283.6 262.2,283.6 L21.3,283.6 C17.4,283.6 14.2,280.4 14.2,276.5 L14.2,7.2 C14.2,3.3 17.4,0.1 21.3,0.1 L177.9,0.1 z M170,14.2 L28.3,14.2 L28.3,269.3 L255.1,269.3 L255.1,99.3 L177.1,99.3 C173.2,99.3 170,96.1 170,92.2 L170,14.2 z M132.3,106.3 C158.4,106.3 179.5,127.5 179.5,153.6 C179.5,164.1 176.1,173.8 170.3,181.6 L203.4,214.7 C206.2,217.4 206.2,221.9 203.4,224.7 C202,226.1 200.2,226.8 198.4,226.8 C196.6,226.8 194.8,226.1 193.4,224.7 L160.3,191.6 C152.5,197.4 142.8,200.8 132.3,200.8 C106.3,200.8 85.1,179.6 85.1,153.5 C85.1,127.5 106.2,106.3 132.3,106.3 z M132.3,120.4 C114,120.4 99.2,135.3 99.2,153.5 C99.2,171.8 114.1,186.6 132.3,186.6 C150.5,186.6 165.3,171.8 165.4,153.5 C165.4,135.2 150.5,120.4 132.3,120.4 z M184.3,24.3 L184.3,85 L245.1,85 L184.3,24.3 z" fill="#000000"/>
  </g>
</svg>
