<?xml version="1.0" encoding="UTF-8"?>
<!DOCTYPE svg PUBLIC "-//W3C//DTD SVG 1.1//EN" "http://www.w3.org/Graphics/SVG/1.1/DTD/svg11.dtd">
<svg version="1.1" xmlns="http://www.w3.org/2000/svg" xmlns:xlink="http://www.w3.org/1999/xlink" x="0" y="0" width="283.5" height="283.5" viewBox="0, 0, 283.5, 283.5">
  <g id="Background">
    <rect x="0" y="0" width="283.5" height="283.5" fill="#FFFFFF"/>
  </g>
  <g id="Layer_1">
    <path d="M238.6,189.8 L173.4,76.8 L205,22 C205,22 205,21.9 205.1,21.9 C205.2,21.8 205.2,21.7 205.3,21.5 C205.3,21.4 205.4,21.3 205.4,21.3 C205.4,21.2 205.5,21.1 205.5,21 C205.5,20.9 205.6,20.8 205.6,20.7 C205.6,20.6 205.7,20.5 205.7,20.4 C205.7,20.3 205.8,20.2 205.8,20.1 C205.8,20 205.8,19.9 205.8,19.8 C205.8,19.7 205.8,19.5 205.9,19.4 C205.9,19.3 205.9,19.2 205.9,19.1 C205.9,19 205.9,18.8 205.9,18.7 C205.9,18.6 205.9,18.5 205.9,18.4 C205.9,18.3 205.9,18.2 205.9,18 C205.9,17.9 205.9,17.8 205.9,17.7 C205.9,17.6 205.9,17.5 205.9,17.4 C205.9,17.3 205.9,17.2 205.8,17 C205.8,16.9 205.8,16.8 205.7,16.7 C205.7,16.6 205.6,16.5 205.6,16.3 C205.6,16.2 205.5,16.1 205.5,16.1 C205.5,16 205.4,15.9 205.3,15.7 C205.3,15.6 205.2,15.5 205.2,15.5 C205.1,15.4 205.1,15.3 205,15.2 C204.9,15.1 204.9,15 204.8,14.9 C204.7,14.8 204.7,14.7 204.6,14.6 C204.5,14.5 204.5,14.4 204.4,14.3 C204.3,14.2 204.3,14.2 204.2,14.1 C204.1,14 204,13.9 203.9,13.8 C203.9,13.8 203.9,13.7 203.8,13.7 C185.3,-4.8 155.2,-4.8 136.8,13.7 C130.4,20.1 121.9,23.6 112.8,23.6 C103.7,23.6 95.2,20.1 88.8,13.7 C88.8,13.7 88.8,13.7 88.7,13.7 C88.6,13.6 88.4,13.5 88.3,13.4 C88.3,13.4 88.2,13.3 88.2,13.3 C88.1,13.2 87.9,13.1 87.8,13 C88,13 87.9,13 87.9,13 C87.8,12.9 87.7,12.9 87.5,12.8 C87.4,12.8 87.4,12.7 87.3,12.7 C87.2,12.6 87.1,12.6 86.9,12.5 C86.8,12.5 86.7,12.4 86.6,12.4 C86.5,12.4 86.4,12.3 86.2,12.3 C86.1,12.3 86,12.2 85.9,12.2 C85.8,12.2 85.6,12.1 85.5,12.1 C85.4,12.1 85.3,12.1 85.3,12 C85.2,12 85,12 84.9,11.9 C84.8,11.9 84.8,11.9 84.7,11.9 C84.5,11.9 84.4,11.9 84.2,11.9 C84.2,11.9 84.1,11.9 84.1,11.9 C83.9,11.9 83.8,11.9 83.6,11.9 C83.6,11.9 83.5,11.9 83.5,11.9 C83.3,11.9 83.2,11.9 83,12 C83,12 82.9,12 82.9,12 C82.7,12 82.6,12.1 82.4,12.1 C82.3,12.1 82.3,12.1 82.2,12.1 C82.1,12.1 81.9,12.2 81.8,12.2 C81.7,12.2 81.7,12.3 81.6,12.3 C81.5,12.4 81.4,12.4 81.2,12.5 C81.1,12.5 81,12.6 81,12.6 C81,12.6 80.9,12.6 80.9,12.7 C80.8,12.7 80.8,12.8 80.7,12.8 C80.6,12.8 80.6,12.9 80.5,12.9 C80.4,13 80.3,13.1 80.1,13.2 C80,13.2 80,13.3 79.9,13.3 C79.8,13.4 79.6,13.5 79.5,13.6 C79.5,13.6 79.5,13.6 79.4,13.7 C79.4,13.7 79.4,13.7 79.4,13.7 C79.3,13.8 79.2,14 79,14.1 C79,14.1 78.9,14.2 78.9,14.2 C78.8,14.3 78.7,14.5 78.6,14.6 C78.6,14.7 78.5,14.7 78.5,14.8 C78.4,14.9 78.4,15 78.3,15.2 C78.3,15.3 78.2,15.4 78.2,15.4 C78.1,15.5 78.1,15.6 78.1,15.7 C78.1,15.8 78,15.9 78,16 C78,16.1 77.9,16.2 77.9,16.3 C77.9,16.4 77.8,16.5 77.8,16.6 C77.8,16.7 77.7,16.8 77.7,16.9 C77.7,17 77.7,17.1 77.6,17.2 C77.6,17.3 77.6,17.4 77.6,17.5 C77.6,17.6 77.6,17.7 77.6,17.8 C77.6,17.9 77.6,18 77.6,18.2 C77.6,18.3 77.6,18.4 77.6,18.5 C77.6,18.6 77.6,18.8 77.6,18.9 C77.6,19 77.6,19.1 77.6,19.2 C77.6,19.3 77.6,19.4 77.7,19.6 C77.7,19.7 77.7,19.8 77.8,19.9 C77.8,20 77.8,20.1 77.9,20.2 C77.9,20.3 78,20.4 78,20.6 C78,20.7 78.1,20.8 78.1,20.8 C78.2,20.9 78.2,21.1 78.3,21.2 C78.3,21.3 78.4,21.3 78.4,21.4 C78.5,21.6 78.5,21.7 78.6,21.9 C78.6,21.9 78.6,21.9 78.6,22 L110,76.9 L44.8,189.8 C30.7,214.2 28.7,237.6 39.1,255.6 C49.5,273.6 70.7,283.5 98.9,283.5 L184.5,283.5 C212.7,283.5 233.9,273.6 244.3,255.6 C254.7,237.5 252.7,214.2 238.6,189.8 z M232.7,248.8 C224.8,262.5 207.7,270 184.6,270 L98.9,270 C75.7,270 58.6,262.5 50.8,248.8 C42.9,235.1 45,216.6 56.5,196.5 L121.7,83.5 L138.7,83.5 C142.4,83.5 145.4,80.5 145.4,76.8 C145.4,73.1 142.4,70.1 138.7,70.1 L121.7,70.1 L102,36 C105.5,36.8 109.2,37.3 112.9,37.3 C125.6,37.3 137.5,32.4 146.4,23.4 C158.4,11.4 177.2,10.3 190.5,20.1 L159.7,73.4 C158.3,75.9 158.6,78.8 160.2,80.9 L226.8,196.5 C238.5,216.6 240.5,235.1 232.7,248.8 z M148.2,166.9 C140.7,166.9 134.7,173 134.6,180.4 L134.6,189.6 L143.4,189.6 C147.1,189.6 150.1,192.6 150.1,196.3 C150.1,200 147.1,203 143.4,203 L134.6,203 L134.6,225.7 L168.3,225.7 C172,225.7 175,228.7 175,232.4 C175,236.1 172,239.1 168.3,239.1 L114.3,239.1 C110.6,239.1 107.6,236.1 107.6,232.4 C107.6,228.7 110.6,225.7 114.3,225.7 L121.1,225.7 L121.1,203 L114.3,203 C110.6,203 107.6,200 107.6,196.3 C107.6,192.6 110.6,189.6 114.3,189.6 L121.1,189.6 L121.1,180.4 C121.1,165.5 133.2,153.4 148.1,153.4 C163,153.4 175.1,165.5 175.1,180.4 C175.1,184.1 172.1,187.1 168.4,187.1 C164.7,187.1 161.7,184.1 161.7,180.4 C161.7,173 155.6,166.9 148.2,166.9 z" fill="#000000"/>
  </g>
</svg>
