<?xml version="1.0" encoding="UTF-8"?>
<!DOCTYPE svg PUBLIC "-//W3C//DTD SVG 1.1//EN" "http://www.w3.org/Graphics/SVG/1.1/DTD/svg11.dtd">
<svg version="1.1" xmlns="http://www.w3.org/2000/svg" xmlns:xlink="http://www.w3.org/1999/xlink" x="0" y="0" width="283.5" height="283.5" viewBox="0, 0, 283.5, 283.5">
  <g id="Background">
    <rect x="0" y="0" width="283.5" height="283.5" fill="#FFFFFF"/>
  </g>
  <g id="Layer_1">
    <path d="M172.474,0.244 C184.311,0.787 194.982,5.683 203.6,13.7 C203.6,13.7 203.7,13.8 203.7,13.8 C203.8,13.9 203.8,13.9 203.9,14 C204,14.1 204.1,14.2 204.2,14.3 C204.4,14.5 204.6,14.7 204.7,14.9 C204.8,15 204.9,15.2 205,15.4 L205.3,16 C205.4,16.2 205.4,16.4 205.5,16.6 C205.6,16.8 205.7,17 205.7,17.2 C205.7,17.4 205.8,17.6 205.8,17.8 C205.9,18 205.9,18.2 205.9,18.4 L205.9,19 C205.8,19.3 205.8,19.5 205.8,19.7 C205.8,19.9 205.8,20.1 205.7,20.3 L205.5,20.9 C205.4,21.2 205.3,21.4 205.2,21.6 L205,22 L173.4,76.8 L238.6,189.8 C252.7,214.2 254.8,237.5 244.3,255.6 C233.9,273.6 212.7,283.5 184.5,283.5 L98.9,283.5 C70.7,283.5 49.5,273.6 39.1,255.6 C28.7,237.6 30.7,214.2 44.8,189.8 L110,76.9 L78.4,22.2 C78.3,22 78.3,21.9 78.2,21.8 L77.9,21.1 C77.8,20.9 77.8,20.7 77.7,20.5 C77.7,20.2 77.6,20 77.6,19.8 C77.5,19.5 77.5,19.3 77.5,19.1 L77.5,18.5 C77.5,18.2 77.6,18 77.6,17.8 L77.7,17.2 C77.8,17 77.8,16.8 77.9,16.6 C77.9,16.4 78,16.2 78.1,16 L78.4,15.4 C78.5,15.2 78.6,15.1 78.7,14.9 C78.8,14.7 79,14.5 79.2,14.3 L79.4,14 C79.4,14 79.5,13.9 79.5,13.9 L80.1,13.4 C80.3,13.2 80.4,13.1 80.6,13 L81.8,12.4 C82,12.3 82.3,12.3 82.5,12.2 C82.6,12.2 82.8,12.1 83,12.1 C83.3,12 83.5,12 83.8,12 L84.3,12 C84.6,12 84.8,12.1 85.1,12.1 L85.6,12.2 C85.8,12.2 86.1,12.3 86.3,12.4 L86.8,12.6 C87,12.7 87.3,12.9 87.5,13 L87.9,13.3 C88.2,13.4 88.4,13.6 88.6,13.8 L88.9,14 C95.3,20.4 103.8,23.9 112.9,23.9 C122,23.9 130.5,20.4 136.9,14 C147.064,4.066 158.495,0.302 172.474,0.244 z M171.016,13.496 C161.291,13.549 153.619,16.907 146.5,23.4 C137.6,32.4 125.7,37.3 113,37.3 C109.2,37.3 105.6,36.8 102,36 L121.7,70.1 L138.7,70.1 C142.4,70.1 145.4,73.1 145.4,76.8 C145.4,80.5 142.4,83.5 138.7,83.5 L121.7,83.5 L56.5,196.5 C45,216.6 42.9,235.1 50.8,248.8 C58.6,262.5 75.7,270 98.9,270 L184.6,270 C207.7,270 224.8,262.5 232.7,248.8 C240.5,235.1 238.5,216.6 226.9,196.5 L160.3,80.9 C158.7,78.8 158.4,75.8 159.8,73.4 L190.6,20.1 C186.521,17.135 181.859,15.064 176.895,14.106 C174.961,13.732 172.975,13.7 171.016,13.496 z M144.8,153.4 C156.3,153.4 167.1,157.9 175.2,166 C177.8,168.6 177.8,172.9 175.2,175.5 C172.6,178.1 168.3,178.1 165.7,175.5 C160.2,170 152.8,166.9 144.9,166.9 C137.1,166.9 129.7,170 124.1,175.5 C120.2,179.5 117.5,184.3 116.3,189.6 L146.4,189.6 C150.1,189.6 153.1,192.6 153.1,196.3 C153.1,200 150.1,203 146.4,203 L116.3,203 C117.5,208.3 120.2,213.2 124.1,217.1 C129.6,222.6 137,225.7 144.9,225.7 C152.7,225.7 160.1,222.7 165.7,217.1 C168.3,214.5 172.6,214.5 175.2,217.1 C177.8,219.7 177.8,224 175.2,226.6 C167.1,234.7 156.3,239.2 144.8,239.2 C133.3,239.2 122.5,234.7 114.4,226.6 C107.9,220.1 103.8,211.9 102.4,203 L96.5,203 C92.8,203 89.8,200 89.8,196.3 C89.8,192.6 92.8,189.6 96.5,189.6 L102.4,189.6 C103.8,180.7 107.9,172.5 114.4,166 C122.5,157.9 133.3,153.4 144.8,153.4 z" fill="#010202"/>
  </g>
</svg>
