<?xml version="1.0" encoding="UTF-8"?>
<!DOCTYPE svg PUBLIC "-//W3C//DTD SVG 1.1//EN" "http://www.w3.org/Graphics/SVG/1.1/DTD/svg11.dtd">
<svg version="1.1" xmlns="http://www.w3.org/2000/svg" xmlns:xlink="http://www.w3.org/1999/xlink" x="0" y="0" width="283.5" height="283.5" viewBox="0, 0, 283.5, 283.5">
  <g id="Background">
    <rect x="0" y="0" width="283.5" height="283.5" fill="#FFFFFF"/>
  </g>
  <g id="Layer_1">
    <path d="M238.6,189.8 L173.4,76.8 L205,22 C205,22 205,21.9 205.1,21.9 C205.2,21.8 205.2,21.7 205.3,21.5 C205.3,21.4 205.4,21.3 205.4,21.2 C205.4,21.1 205.5,21 205.5,20.9 C205.5,20.8 205.6,20.7 205.6,20.6 C205.6,20.5 205.7,20.4 205.7,20.3 C205.7,20.2 205.8,20.1 205.8,20 C205.8,19.9 205.8,19.8 205.8,19.7 C205.8,19.6 205.8,19.4 205.9,19.3 C205.9,19.2 205.9,19.1 205.9,19 C205.9,18.9 205.9,18.7 205.9,18.6 C205.9,18.5 205.9,18.4 205.9,18.3 C205.9,18.2 205.9,18.1 205.9,18 C205.9,17.9 205.9,17.8 205.9,17.7 C205.9,17.6 205.9,17.5 205.9,17.4 C205.9,17.3 205.8,17.2 205.8,17 C205.8,16.9 205.8,16.8 205.7,16.7 C205.7,16.6 205.6,16.4 205.6,16.3 C205.6,16.2 205.5,16.1 205.5,16.1 C205.5,16 205.4,15.9 205.3,15.7 C205.3,15.6 205.2,15.5 205.2,15.5 C205.1,15.4 205.1,15.3 205,15.2 C204.9,15.1 204.9,15 204.8,14.9 C204.7,14.8 204.7,14.7 204.6,14.6 C204.5,14.5 204.5,14.4 204.4,14.3 C204.3,14.2 204.3,14.2 204.2,14.1 C204.1,14 204,13.9 203.9,13.8 C203.9,13.8 203.9,13.8 203.8,13.7 C203.7,13.6 203.6,13.5 203.5,13.4 C203.5,13.4 203.5,13.4 203.5,13.4 C185,-4.8 155.1,-4.7 136.8,13.7 C130.4,20.1 121.9,23.6 112.8,23.6 C103.7,23.6 95.2,20.1 88.8,13.7 C88.8,13.7 88.8,13.7 88.8,13.7 C88.6,13.6 88.5,13.4 88.3,13.3 C88.3,13.3 88.3,13.3 88.3,13.3 C88.1,13.2 88,13.1 87.8,12.9 C87.8,12.9 87.8,12.9 87.7,12.9 C87.5,12.8 87.4,12.7 87.2,12.6 C87.2,12.6 87.1,12.6 87.1,12.5 C86.9,12.4 86.8,12.3 86.6,12.3 C86.6,12.3 86.5,12.3 86.5,12.3 C86.3,12.2 86.2,12.2 86,12.1 C86,12.1 85.9,12.1 85.9,12.1 C85.7,12 85.5,12 85.3,12 C85.3,12 85.3,12 85.2,12 C85,12 84.8,11.9 84.6,11.9 C84.6,11.9 84.6,11.9 84.6,11.9 C83.8,11.8 82.9,11.9 82.1,12.1 C82.1,12.1 82.1,12.1 82.1,12.1 C81.9,12.2 81.7,12.2 81.6,12.3 C81.6,12.3 81.5,12.3 81.5,12.3 C81.3,12.4 81.2,12.4 81,12.5 C81,12.5 80.9,12.5 80.9,12.6 C80.8,12.6 80.8,12.7 80.7,12.7 C80.6,12.8 80.5,12.8 80.4,12.9 C80.4,12.9 80.3,13 80.3,13 C80.1,13.1 80,13.2 79.8,13.3 C79.8,13.3 79.8,13.3 79.7,13.4 C79.5,13.5 79.4,13.7 79.2,13.8 C79.2,13.8 79.2,13.8 79.2,13.8 C79.2,13.8 79.2,13.8 79.2,13.8 C79,14 78.9,14.1 78.8,14.3 C78.8,14.3 78.8,14.3 78.8,14.3 C78.7,14.5 78.6,14.6 78.4,14.8 C78.4,14.8 78.4,14.9 78.3,14.9 C78.2,15 78.1,15.2 78,15.3 C78,15.3 77.9,15.4 77.9,15.4 C77.8,15.5 77.8,15.7 77.7,15.8 C77.7,15.9 77.6,15.9 77.6,16 C77.6,16.1 77.5,16.3 77.5,16.4 C77.5,16.5 77.4,16.6 77.4,16.6 C77.4,16.7 77.3,16.9 77.3,17 C77.3,17.1 77.3,17.2 77.2,17.3 C77.2,17.4 77.2,17.6 77.1,17.7 C77.1,17.8 77.1,17.9 77.1,18 C77.1,18.1 77.1,18.3 77.1,18.4 C77.1,18.5 77.1,18.6 77.1,18.6 C77.1,18.7 77.1,18.9 77.1,19 C77.1,19.1 77.1,19.2 77.1,19.3 C77.1,19.4 77.1,19.5 77.2,19.7 C77.2,19.8 77.2,19.9 77.3,20 C77.3,20.1 77.3,20.2 77.4,20.3 C77.4,20.4 77.5,20.5 77.5,20.6 C77.5,20.7 77.6,20.8 77.6,20.8 C77.6,20.9 77.7,21.1 77.8,21.2 C77.8,21.3 77.9,21.3 77.9,21.4 C78,21.5 78,21.7 78.1,21.8 C78.1,21.8 78.1,21.8 78.1,21.9 L110,76.9 L44.8,189.8 C30.7,214.2 28.7,237.6 39.1,255.6 C49.5,273.6 70.7,283.5 98.9,283.5 L184.5,283.5 C212.7,283.5 233.9,273.6 244.3,255.6 C254.7,237.5 252.7,214.2 238.6,189.8 z M232.7,248.8 C224.8,262.5 207.7,270 184.6,270 L98.9,270 C75.7,270 58.6,262.5 50.8,248.8 C42.9,235.1 44.9,216.6 56.5,196.5 L121.7,83.5 L138.7,83.5 C142.4,83.5 145.4,80.5 145.4,76.8 C145.4,73.1 142.4,70.1 138.7,70.1 L121.7,70.1 L102,36 C105.5,36.8 109.2,37.3 112.9,37.3 C125.6,37.3 137.5,32.4 146.4,23.4 C158.4,11.4 177.2,10.3 190.5,20.1 L159.7,73.4 C158.3,75.9 158.6,78.8 160.2,80.9 L226.8,196.5 C238.5,216.6 240.5,235.1 232.7,248.8 z M103.3,213.9 C109.7,216.8 113.8,221.2 113.8,228.7 C113.8,240.4 104.5,247.1 93.4,247.1 C88.2,247.1 81.7,246.1 76.5,244.2 C75,243.7 74.5,242.9 75.1,241.1 L77.3,234.5 C77.5,233.7 77.9,233 79,233 C79.4,233 79.8,233.1 80.4,233.3 C84.3,234.7 88.9,235.8 93,235.8 C96.4,235.8 100.7,234.1 100.7,230.1 C100.7,227 98.3,225.4 95.8,224.3 L84.9,219.3 C78.9,216.5 74.9,211.5 74.9,204.7 C74.9,194.3 85.2,188.5 94.7,188.5 C100.6,188.5 105.7,189.5 110.7,191.7 C112.4,192.5 112.8,193.2 112.2,194.8 L109.7,201.1 C109.1,202.6 108.2,202.8 106.6,202.2 C102.3,200.4 98.9,199.6 95.6,199.6 C92.3,199.6 88.7,200.8 88.7,204.6 C88.7,207.2 92,208.8 94,209.7 L103.3,213.9 z M155,189.7 C156.6,189.7 157.1,190.5 157,191.5 L156.3,198.1 C156.1,199.8 155,200.1 153.1,200.1 L133.5,200.1 L133.5,212.2 L151.9,212.2 C153.7,212.2 154.3,213.1 154.3,214.4 L154.3,220.3 C154.3,221.9 153.5,222.6 152,222.6 L133.7,222.6 L133.7,235.4 L154.8,235.4 C156.2,235.4 157.1,236.1 157.1,237.6 L157.1,243.6 C157.1,245.2 156.3,245.9 154.8,245.9 L123.4,245.9 C121.5,245.9 120.7,245.4 120.7,243.4 L120.7,192 C120.7,190.6 121.4,189.7 122.8,189.7 L155,189.7 z M187.5,216.9 L208,243 C208.3,243.4 208.6,244 208.6,244.5 C208.6,245.3 208.2,245.9 206.7,245.9 L196.9,245.9 C194.7,245.9 193.5,245.2 192.4,243.6 L177.2,222.6 L177,222.6 L177,243.6 C177,245.3 176.3,245.9 174.7,245.9 L166.7,245.9 C165,245.9 164.2,245.4 164.2,243.6 L164.2,191.8 C164.2,190.2 165.2,189.7 166.7,189.7 L174.7,189.7 C176.2,189.7 177,190.1 177,191.8 L177,214.3 L177.1,214.3 L191.5,191.4 C192.4,190 193.4,189.7 195,189.7 L202.7,189.7 C204.3,189.7 204.6,190.4 204.6,191 C204.6,191.5 204.3,192 204,192.5 L187.5,216.9 z" fill="#000000"/>
  </g>
</svg>
