<?xml version="1.0" encoding="UTF-8"?>
<!DOCTYPE svg PUBLIC "-//W3C//DTD SVG 1.1//EN" "http://www.w3.org/Graphics/SVG/1.1/DTD/svg11.dtd">
<svg version="1.1" xmlns="http://www.w3.org/2000/svg" xmlns:xlink="http://www.w3.org/1999/xlink" x="0" y="0" width="283.5" height="283.5" viewBox="0, 0, 283.5, 283.5">
  <g id="Background">
    <rect x="0" y="0" width="283.5" height="283.5" fill="#FFFFFF"/>
  </g>
  <g id="Layer_1">
    <path d="M178.5,30.8 C182.2,30.8 185.2,33.8 185.2,37.5 L185.2,70.2 L209.3,70.2 C219.5,70.2 230.2,77.8 233.6,87.4 L251.5,137.6 C251.6,137.6 251.6,137.7 251.6,137.8 C269.3,138.8 283.5,153.6 283.6,171.6 L283.6,211.8 C283.6,230.5 268.4,245.7 249.7,245.7 L243.1,245.7 L243.1,276.8 C243.1,280.5 240.1,283.5 236.4,283.5 C232.7,283.5 229.7,280.5 229.7,276.8 L229.7,245.7 L54,245.7 L54,276.8 C54,280.5 51,283.5 47.3,283.5 C43.6,283.5 40.6,280.5 40.6,276.8 L40.6,245.7 L33.9,245.7 C15.2,245.7 -0,230.5 -0,211.8 L-0,171.6 C-0,153.6 14.1,138.8 31.9,137.9 C32,137.8 32,137.7 32,137.6 L49.9,87.4 C53.3,77.7 64,70.2 74.2,70.2 L95.5,70.2 L95.5,37.5 C95.5,33.8 98.5,30.8 102.2,30.8 L178.5,30.8 z M249.6,151.1 L33.9,151.1 C22.6,151.1 13.4,160.3 13.4,171.6 L13.4,211.8 C13.4,223.1 22.6,232.3 33.9,232.3 L249.6,232.3 C260.9,232.3 270.1,223.1 270.1,211.8 L270.1,171.6 C270.1,160.3 260.9,151.1 249.6,151.1 z M47.2,172.6 C58.4,172.6 67.4,181.7 67.4,192.8 C67.4,203.9 58.3,213 47.2,213 C36.1,213 27,204 27,192.8 C27,181.7 36.1,172.6 47.2,172.6 z M47.2,186 C43.5,186 40.4,189.1 40.4,192.8 C40.4,196.6 43.4,199.6 47.2,199.6 C51,199.6 54,196.6 54,192.8 C54,189 51,186 47.2,186 z M236.3,172.6 C247.4,172.6 256.4,181.7 256.5,192.8 C256.5,203.9 247.4,213 236.3,213 C225.2,213 216.1,203.9 216.1,192.8 C216.1,181.7 225.2,172.6 236.3,172.6 z M236.3,186 C232.6,186 229.5,189.1 229.5,192.8 C229.5,196.6 232.5,199.6 236.3,199.6 C240,199.6 243.1,196.6 243.1,192.8 C243.1,189 240,186 236.3,186 z M209.3,83.6 L74.2,83.6 C69.6,83.6 64.1,87.6 62.5,91.9 L46.1,137.7 L237.4,137.7 L221,91.9 C219.5,87.5 213.9,83.6 209.3,83.6 z M171.8,44.2 L108.9,44.2 L108.9,70.2 L171.8,70.2 L171.8,44.2 z" fill="#000000"/>
  </g>
</svg>
