<?xml version="1.0" encoding="UTF-8"?>
<!DOCTYPE svg PUBLIC "-//W3C//DTD SVG 1.1//EN" "http://www.w3.org/Graphics/SVG/1.1/DTD/svg11.dtd">
<svg version="1.1" xmlns="http://www.w3.org/2000/svg" xmlns:xlink="http://www.w3.org/1999/xlink" x="0" y="0" width="283.5" height="283.5" viewBox="0, 0, 283.5, 283.5">
  <g id="Background">
    <rect x="0" y="0" width="283.5" height="283.5" fill="#FFFFFF"/>
  </g>
  <g id="Layer_1">
    <path d="M257.1,269 C261.1,269 264.3,272.3 264.3,276.2 C264.3,280.2 261.1,283.4 257.1,283.4 L26.4,283.4 C22.4,283.4 19.2,280.2 19.2,276.2 C19.2,272.2 22.4,269 26.4,269 L257.1,269 z M221,124.8 L221,204.1 C221,224 204.9,240.2 185,240.2 L127.3,240.2 C107.4,240.2 91.2,224 91.2,204.1 L91.2,124.8 L221,124.8 z M228.3,110.5 L55.2,110.5 C35.3,110.5 19.1,126.7 19.1,146.6 C19.2,166.3 35.3,182.5 55.2,182.5 C59.2,182.5 62.4,179.3 62.4,175.3 C62.4,171.3 59.2,168.1 55.2,168.1 C43.3,168.1 33.6,158.4 33.6,146.5 C33.6,134.6 43.3,124.9 55.2,124.9 L76.8,124.9 L76.8,204.2 C76.8,232 99.4,254.7 127.3,254.7 L185,254.7 C212.8,254.7 235.5,232.1 235.5,204.2 L235.5,117.7 C235.5,113.7 232.3,110.5 228.3,110.5 z M156.544,0.127 C154.195,0.205 152.877,0.384 151.1,2.1 C148.3,4.9 148.3,9.5 151.1,12.3 C159.5,20.7 159.5,34.5 151.1,42.9 C144.3,49.7 140.5,58.8 140.5,68.4 C140.5,78 144.3,87.1 151.1,93.9 C152.5,95.3 154.4,96 156.2,96 C158,96 159.9,95.3 161.3,93.9 C164.1,91.1 164.1,86.5 161.3,83.7 C157.2,79.6 155,74.2 155,68.4 C155,62.6 157.3,57.2 161.3,53.1 C175.4,39 175.4,16.2 161.3,2.1 C159.45,0.592 160.622,1.363 157.58,0.131 L156.544,0.127 z" fill="#010202"/>
  </g>
</svg>
