<?xml version="1.0" encoding="UTF-8"?>
<!DOCTYPE svg PUBLIC "-//W3C//DTD SVG 1.1//EN" "http://www.w3.org/Graphics/SVG/1.1/DTD/svg11.dtd">
<svg version="1.1" xmlns="http://www.w3.org/2000/svg" xmlns:xlink="http://www.w3.org/1999/xlink" x="0" y="0" width="283.5" height="283.5" viewBox="0, 0, 283.5, 283.5">
  <g id="Background">
    <rect x="0" y="0" width="283.5" height="283.5" fill="#FFFFFF"/>
  </g>
  <g id="Layer_1">
    <path d="M189.4,72.1 C199.5,72.1 210,79.5 213.4,89 L231,138.2 C231,138.3 231,138.3 231,138.4 C248.5,139.4 262.4,153.9 262.4,171.6 L262.4,211.4 C262.3,229.7 247.4,244.6 229.1,244.6 L219.9,244.6 L219.9,275.2 C219.9,278.8 217,281.8 213.3,281.8 C209.6,281.8 206.7,278.8 206.7,275.2 L206.7,244.6 L65.9,244.6 L65.9,275.2 C65.9,278.8 63,281.8 59.3,281.8 C55.6,281.8 52.7,278.8 52.7,275.2 L52.7,244.6 L43.4,244.6 C25.1,244.6 10.2,229.7 10.2,211.4 L10.2,171.6 C10.2,154 24.2,139.5 41.6,138.5 L41.6,138.3 L59.2,89 C62.6,79.5 73.1,72.1 83.2,72.1 L189.4,72.1 z M229.2,151.7 L43.4,151.7 C32.4,151.7 23.5,160.6 23.5,171.6 L23.5,211.4 C23.5,222.4 32.4,231.3 43.4,231.3 L229.2,231.3 C240.2,231.3 249.1,222.4 249.1,211.4 L249.1,171.6 C249.1,160.6 240.2,151.7 229.2,151.7 z M213.3,172.8 C224.3,172.8 233.2,181.7 233.2,192.7 C233.2,203.7 224.3,212.6 213.3,212.6 C202.3,212.6 193.4,203.7 193.4,192.7 C193.4,181.7 202.3,172.8 213.3,172.8 z M213.3,186 C209.7,186 206.7,189 206.7,192.6 C206.7,196.2 209.7,199.2 213.3,199.2 C216.9,199.2 219.9,196.3 219.9,192.6 C219.9,189 217,186 213.3,186 z M59.3,172.8 C70.3,172.8 79.2,181.7 79.2,192.7 C79.2,203.7 70.3,212.6 59.3,212.6 C48.3,212.6 39.4,203.7 39.4,192.7 C39.4,181.7 48.3,172.8 59.3,172.8 z M59.3,186 C55.6,186 52.7,189 52.7,192.6 C52.7,196.3 55.7,199.2 59.3,199.2 C62.9,199.2 65.9,196.2 65.9,192.6 C65.9,189 62.9,186 59.3,186 z M189.4,85.3 L83.2,85.3 C78.7,85.3 73.2,89.2 71.7,93.4 L55.6,138.4 L217,138.4 L200.9,93.4 C199.4,89.2 193.9,85.3 189.4,85.3 z M201.76,45.479 C200.916,45.659 200.023,45.683 199.229,46.02 C197.129,46.912 195.766,48.753 195.2,50.9 C194.5,54.5 196.9,58 200.5,58.8 C204,59.4 207.2,60.6 210.1,62.2 C213.1,63.9 215.7,66 218,68.5 C219.3,69.9 221.1,70.7 222.9,70.7 C224.5,70.7 226.1,70.1 227.4,68.9 C230.1,66.4 230.3,62.2 227.8,59.4 C224.5,55.8 220.8,52.8 216.6,50.5 C212.4,48.1 207.9,46.5 203.1,45.6 L201.76,45.479 z M195.7,22.9 L195.6,22.9 C191.9,22.9 189,25.8 188.9,29.5 C188.8,33.2 191.8,36.2 195.5,36.3 C204.3,36.4 213.1,38.8 220.8,43.2 C228.5,47.5 235.1,53.8 239.8,61.2 C241.1,63.2 243.2,64.3 245.5,64.3 C246.7,64.3 248,64 249.1,63.3 C252.2,61.3 253.2,57.2 251.2,54.1 C245.3,44.7 237,36.9 227.4,31.5 C217.7,26.1 206.8,23.1 195.7,22.9 z M195.352,1.716 L192.367,1.752 L189.2,1.9 C185.5,2.1 182.7,5.3 182.9,9 C183.1,12.7 186.3,15.5 190,15.3 C204.3,14.4 218.5,17.7 231.1,24.7 C243.7,31.8 253.9,42.2 260.6,54.9 C261.8,57.2 264.1,58.5 266.5,58.5 C267.6,58.5 268.6,58.2 269.6,57.7 C273,55.9 274.2,51.8 272.5,48.6 C264.6,33.6 252.6,21.3 237.7,13 C224.272,6.265 210.517,1.72 195.352,1.716 z" fill="#000000"/>
  </g>
</svg>
