<?xml version="1.0" encoding="UTF-8"?>
<!DOCTYPE svg PUBLIC "-//W3C//DTD SVG 1.1//EN" "http://www.w3.org/Graphics/SVG/1.1/DTD/svg11.dtd">
<svg version="1.1" xmlns="http://www.w3.org/2000/svg" xmlns:xlink="http://www.w3.org/1999/xlink" x="0" y="0" width="283.5" height="283.5" viewBox="0, 0, 283.5, 283.5">
  <g id="Background">
    <rect x="0" y="0" width="283.5" height="283.5" fill="#FFFFFF"/>
  </g>
  <g id="Layer_1">
    <path d="M279.9,84.6 C279.8,81.7 278,79.1 275.2,78.1 C274.7,77.9 263.9,74.3 248.2,74.3 C227.4,74.3 207.7,80.7 191,92.9 C156.3,118.2 152.9,155 152.7,166 C147.3,171.9 142.7,179.1 139.1,187.5 C134.8,166.9 127.8,149 117.9,132.8 C120.8,121.2 127.8,81.1 97.6,44.5 C68.1,8.6 27.8,5.8 16.2,5.8 C13.7,5.8 12.4,5.9 12.4,5.9 C9.5,6.1 7,8.2 6.2,11 C5.6,13 -6.9,60 27.9,102.2 C56.9,137.3 94.5,140.9 106.6,141 C120.7,164.5 128,191.1 130.1,226.5 L130.1,263.8 L62.8,263.8 C58.9,263.8 55.8,266.9 55.8,270.8 C55.8,274.7 58.9,277.8 62.8,277.8 L215.6,277.8 C219.5,277.8 222.6,274.7 222.6,270.8 C222.6,266.9 219.5,263.8 215.6,263.8 L144.1,263.8 L144.1,226.7 C146.1,205.4 152.4,187.9 162,176.8 C166.4,177.8 173.8,179.1 183,179.1 C197.3,179.1 218.9,175.8 240.2,160.3 C280.4,130.9 280,86.5 279.9,84.6 z M38.7,93.2 C14.5,63.9 16.7,32 18.7,19.8 C31.1,20.2 63,24.3 87,53.4 C105.5,75.9 107.8,99.9 106.7,115.3 C81.7,78.6 57.7,52.6 56.6,51.4 C54,48.6 49.5,48.4 46.7,51 C43.9,53.6 43.7,58.1 46.3,60.9 C46.6,61.2 71.9,88.8 97.1,126.2 C82.5,124.2 58.4,117.1 38.7,93.2 z M231.9,148.9 C213.6,162.2 195.2,165 183,165 C179.9,165 177.1,164.8 174.6,164.6 C202.1,140 230.5,122.7 230.8,122.5 C234.1,120.5 235.2,116.2 233.2,112.9 C231.2,109.6 226.9,108.5 223.6,110.5 C222.3,111.3 195.9,127.3 168.7,151.1 C171.7,137.5 179.5,118.7 199.4,104.2 C213.9,93.7 230.3,88.3 248.3,88.3 C255.6,88.3 261.7,89.2 265.7,90.1 C264.4,101.5 258.8,129.3 231.9,148.9 z" fill="#000000"/>
  </g>
</svg>
