<?xml version="1.0" encoding="UTF-8"?>
<!DOCTYPE svg PUBLIC "-//W3C//DTD SVG 1.1//EN" "http://www.w3.org/Graphics/SVG/1.1/DTD/svg11.dtd">
<svg version="1.1" xmlns="http://www.w3.org/2000/svg" xmlns:xlink="http://www.w3.org/1999/xlink" x="0" y="0" width="283.5" height="283.5" viewBox="0, 0, 283.5, 283.5">
  <g id="Background">
    <rect x="0" y="0" width="283.5" height="283.5" fill="#FFFFFF"/>
  </g>
  <g id="Layer_1">
    <path d="M262.9,54.3 C266.6,54.3 269.6,57.3 269.6,61.1 L269.6,276.7 C269.6,280.4 266.6,283.4 262.9,283.4 L47.2,283.4 C43.5,283.4 40.5,280.4 40.5,276.7 C40.5,273 43.5,270 47.2,270 L256.2,270 L256.2,61 C256.2,57.3 259.2,54.3 262.9,54.3 z M73.7,0 C70,-0 67,3 67,6.7 L67,27 L20.6,27 C16.9,27 13.9,30 13.9,33.7 L13.9,250 C13.9,253.7 16.9,256.7 20.6,256.7 L234.9,256.7 C238.6,256.7 241.6,253.7 241.6,250 L241.6,33.7 C241.6,30 238.6,27 234.9,27 L206.5,27 C202.8,27 199.8,30 199.8,33.7 C199.8,37.4 202.8,40.4 206.5,40.4 L228.2,40.4 L228.2,243.1 L27.3,243.1 L27.3,40.5 L67,40.5 L67,61.1 C67,64.8 70,67.8 73.7,67.8 C77.4,67.8 80.4,64.8 80.4,61.1 L80.4,6.7 C80.4,3 77.4,-0 73.7,0 z M71.4,205.8 L71.4,219.4 L57.8,219.4 L57.8,205.8 L71.4,205.8 z M78.1,192.3 L51.1,192.3 C47.4,192.3 44.4,195.3 44.4,199 L44.4,226.1 C44.4,229.8 47.4,232.8 51.1,232.8 L78.2,232.8 C81.9,232.8 84.9,229.8 84.9,226.1 L84.9,199 C84.9,195.4 81.9,192.3 78.1,192.3 z M158.2,128.3 C140.5,128.3 126.1,142.7 126.1,160.4 L126.1,173.6 L116,173.6 C112.3,173.6 109.3,176.6 109.3,180.3 C109.3,184 112.3,187 116,187 L126.2,187 L126.2,219 L116,219 C112.3,219 109.3,222 109.3,225.7 C109.3,229.4 112.3,232.4 116,232.4 L183.6,232.4 C187.3,232.4 190.3,229.4 190.3,225.7 C190.3,222 187.3,219 183.6,219 L139.6,219 L139.6,187.2 L152.3,187.2 C156,187.2 159,184.2 159,180.5 C159,176.8 156,173.8 152.3,173.8 L139.6,173.8 L139.6,160.6 C139.7,150.2 148,141.8 158.3,141.8 C168.6,141.8 176.9,150.1 176.9,160.4 C176.9,164.1 179.9,167.1 183.6,167.1 C187.3,167.1 190.3,164.1 190.3,160.4 C190.3,142.7 175.9,128.3 158.2,128.3 z M71.4,148.5 L71.4,162.1 L57.8,162.1 L57.8,148.5 L71.4,148.5 z M78.2,135.1 L51.1,135.1 C47.4,135.1 44.4,138.1 44.4,141.8 L44.4,168.9 C44.4,172.6 47.4,175.6 51.1,175.6 L78.2,175.6 C81.9,175.6 84.9,172.6 84.9,168.9 L84.9,141.8 C84.9,138.1 81.9,135.1 78.2,135.1 z M133.5,91.2 L133.5,104.8 L119.9,104.8 L119.9,91.2 L133.5,91.2 z M140.2,77.7 L113.1,77.7 C109.4,77.7 106.4,80.7 106.4,84.4 L106.4,111.5 C106.4,115.2 109.4,118.2 113.1,118.2 L140.2,118.2 L140.2,118.3 C143.9,118.3 146.9,115.3 146.9,111.6 L146.9,84.4 C146.9,80.7 143.9,77.7 140.2,77.7 z M195.6,91.2 L195.6,104.8 L182,104.8 L182,91.2 L195.6,91.2 z M202.4,77.7 L175.3,77.7 C171.6,77.7 168.6,80.7 168.6,84.4 L168.6,111.5 C168.6,115.2 171.6,118.2 175.3,118.2 L202.4,118.2 C206.1,118.3 209.1,115.2 209.1,111.5 L209.1,84.4 C209.1,80.7 206.1,77.7 202.4,77.7 z M71.4,91.2 L71.4,104.8 L57.8,104.8 L57.8,91.2 L71.4,91.2 z M78.2,77.7 L51.1,77.7 C47.4,77.7 44.4,80.7 44.4,84.4 L44.4,111.5 C44.4,115.2 47.4,118.2 51.1,118.2 L78.2,118.2 C81.9,118.2 84.9,115.2 84.9,111.5 L84.9,84.4 C84.9,80.7 81.9,77.7 78.2,77.7 z M181.7,0 C178,-0 175,3 175,6.7 L175,27 L98.6,27 C94.9,27 91.9,30 91.9,33.7 C91.8,37.5 94.8,40.5 98.6,40.5 L175,40.5 L175,61.1 C175,64.8 178,67.8 181.7,67.8 C185.4,67.8 188.4,64.8 188.4,61.1 L188.4,6.7 C188.4,3 185.4,-0 181.7,0 z" fill="#000000"/>
  </g>
</svg>
