<?xml version="1.0" encoding="UTF-8"?>
<!DOCTYPE svg PUBLIC "-//W3C//DTD SVG 1.1//EN" "http://www.w3.org/Graphics/SVG/1.1/DTD/svg11.dtd">
<svg version="1.1" xmlns="http://www.w3.org/2000/svg" xmlns:xlink="http://www.w3.org/1999/xlink" x="0" y="0" width="283.5" height="283.5" viewBox="0, 0, 283.5, 283.5">
  <g id="Background">
    <rect x="0" y="0" width="283.5" height="283.5" fill="#FFFFFF"/>
  </g>
  <g id="Layer_1">
    <path d="M276.4,49.6 C280.1,49.6 283.1,52.6 283.1,56.3 C283.1,60 280.1,63 276.4,63 L228.7,63 C205.4,63 186.5,82 186.5,105.2 L186.5,196.3 L221.8,196.3 C224.9,182.5 237.2,172.1 252,172.1 C269.1,172.1 283,186 283.1,202.9 C283.1,220 269.2,233.9 252.1,233.9 C237.4,233.9 225,223.6 221.9,209.7 L130.9,209.7 C127.2,209.7 124.2,206.7 124.2,203 C124.2,199.3 127.2,196.3 130.9,196.3 L173.1,196.3 L173.1,105.2 C173.1,74.6 198,49.6 228.7,49.6 L276.4,49.6 z M252,185.6 C242.4,185.6 234.5,193.4 234.5,203.1 C234.5,212.7 242.3,220.6 252,220.6 C261.7,220.6 269.5,212.7 269.5,203.1 C269.5,193.5 261.7,185.6 252,185.6 z M81.1,62.9 C90.8,62.9 98.6,70.8 98.6,80.4 C98.6,90 90.7,97.9 81.1,97.9 C71.4,97.9 63.6,90.1 63.6,80.4 C63.6,70.7 71.5,62.9 81.1,62.9 z M81.1,49.4 C64,49.4 50.1,63.3 50.1,80.4 C50.1,95.2 60.5,107.5 74.3,110.6 L74.3,156.3 C74.3,178.4 56.3,196.4 34.2,196.4 L6.9,196.4 C3.2,196.4 0.2,199.4 0.2,203.1 C0.2,206.8 3.2,209.8 6.9,209.8 L34.2,209.8 C63.7,209.8 87.7,185.8 87.8,156.3 L87.8,110.6 C101.7,107.5 112,95.1 112,80.4 C112.1,63.3 98.2,49.4 81.1,49.4 z M276.3,90.1 L249.4,90.1 C245.7,90.1 242.7,93.1 242.7,96.8 L242.7,137.2 C242.7,140.9 245.7,143.9 249.4,143.9 L276.3,143.9 C280,143.9 283,140.9 283,137.2 C283,133.5 280,130.5 276.3,130.5 L256.1,130.5 L256.1,103.7 L276.3,103.7 L276.3,103.5 C280,103.5 283,100.5 283,96.8 C283,93.1 280,90.1 276.3,90.1 z" fill="#000000"/>
  </g>
</svg>
