<?xml version="1.0" encoding="UTF-8"?>
<!DOCTYPE svg PUBLIC "-//W3C//DTD SVG 1.1//EN" "http://www.w3.org/Graphics/SVG/1.1/DTD/svg11.dtd">
<svg version="1.1" xmlns="http://www.w3.org/2000/svg" xmlns:xlink="http://www.w3.org/1999/xlink" x="0" y="0" width="283.5" height="283.5" viewBox="0, 0, 283.5, 283.5">
  <g id="Background">
    <rect x="0" y="0" width="283.5" height="283.5" fill="#FFFFFF"/>
  </g>
  <g id="Layer_1">
    <path d="M127,0 C197.1,0 254,56.8 253.9,127 C253.9,159.6 241.7,189.3 221.5,211.8 L281.4,271.7 C284.1,274.4 284.1,278.7 281.5,281.5 C280.1,282.8 278.4,283.5 276.6,283.5 C274.8,283.5 273.1,282.9 271.7,281.5 L211.8,221.6 C189.3,241.7 159.6,254 127,254 C56.9,254 -0,197.1 -0,127 C-0,56.8 56.9,0 127,0 z M127,13.8 C64.6,13.8 13.8,64.6 13.9,127 C13.9,189.3 64.6,240.1 127,240.1 C157.2,240.1 185.6,228.3 207,206.9 C228.3,185.5 240.1,157.1 240.1,126.9 C240.1,64.6 189.4,13.8 127,13.8 z M154.3,56.6 C162.4,56.6 170.6,62.4 173.3,70 L185.2,100.7 C198,102.1 207.9,113 207.9,126.1 L207.8,126.1 L207.8,148.6 C207.8,162.7 196.3,174.2 182.2,174.2 L179.8,174.2 L179.8,190.7 C179.8,194.5 176.7,197.6 172.9,197.6 C169.1,197.6 166,194.5 166,190.7 L166,174.2 L87.9,174.2 L87.9,190.7 C87.9,194.5 84.8,197.6 81,197.6 C77.2,197.6 74.1,194.5 74.1,190.7 L74.1,174.2 L71.7,174.2 C57.6,174.2 46.1,162.7 46.1,148.6 L46.1,126.1 C46.1,113 56,102.2 68.8,100.7 L80.8,69.8 C83.4,62.3 91.6,56.6 99.7,56.6 L154.3,56.6 z M182.4,114.3 L71.7,114.3 C65.2,114.3 59.9,119.6 59.9,126.1 L59.9,148.6 C59.9,155.1 65.2,160.4 71.7,160.4 L182.3,160.4 C188.8,160.4 194.1,155.1 194.1,148.6 L194.2,148.6 L194.2,126.1 C194.2,119.6 188.9,114.3 182.4,114.3 z M173,130.2 C176.9,130.2 180.2,133.4 180.2,137.4 C180.2,141.4 177,144.6 173,144.6 C169,144.6 165.8,141.4 165.8,137.4 C165.8,133.4 169,130.2 173,130.2 z M81,130.2 C85,130.2 88.2,133.4 88.2,137.4 C88.2,141.4 85,144.6 81,144.6 C77,144.6 73.8,141.4 73.8,137.4 C73.8,133.4 77,130.2 81,130.2 z M154.3,70.5 L99.7,70.5 C97.5,70.5 94.4,72.6 93.7,74.7 L83.7,100.6 L170.3,100.6 L160.3,74.9 C159.5,72.6 156.5,70.5 154.3,70.5 z" fill="#000000"/>
  </g>
</svg>
