<?xml version="1.0" encoding="UTF-8"?>
<!DOCTYPE svg PUBLIC "-//W3C//DTD SVG 1.1//EN" "http://www.w3.org/Graphics/SVG/1.1/DTD/svg11.dtd">
<svg version="1.1" xmlns="http://www.w3.org/2000/svg" xmlns:xlink="http://www.w3.org/1999/xlink" x="0" y="0" width="283.5" height="283.5" viewBox="0, 0, 283.5, 283.5">
  <g id="Background">
    <rect x="0" y="0" width="283.5" height="283.5" fill="#FFFFFF"/>
  </g>
  <g id="Layer_1">
    <path d="M244.2,167.8 L231.9,139.2 C227.5,128.9 215.3,120.9 204.1,120.9 L182.4,120.9 L141.3,79.7 C138.7,77.1 134.5,77.1 132,79.7 C129.4,82.3 129.4,86.5 132,89 L163.8,120.8 L106.7,120.8 L106.7,111.7 C106.7,108.1 103.7,105.1 100.1,105.1 C96.5,105.1 93.5,108.1 93.5,111.7 L93.5,120.8 L78,120.8 C66.7,120.8 54.6,129 50.4,139.4 L39,167.8 C36.6,173.8 36.9,179.9 40,184.5 C42.9,188.9 48,191.4 54,191.4 L63.2,191.4 C66,200.4 74.5,207 84.4,207 C94.4,207 102.8,200.4 105.6,191.4 L180.8,191.4 C183.6,200.4 192.1,207 202,207 C212,207 220.4,200.4 223.2,191.4 L230.9,191.4 C236.3,191.4 240.9,189.1 243.5,185 C246.7,180.3 246.9,174 244.2,167.8 z M84.4,193.7 C79.4,193.7 75.4,189.7 75.4,184.7 C75.4,179.7 79.4,175.7 84.4,175.7 C89.4,175.7 93.4,179.8 93.4,184.7 C93.4,189.7 89.4,193.7 84.4,193.7 z M202,193.7 C197,193.7 193,189.7 193,184.7 C193,179.7 197,175.7 202,175.7 C207,175.7 211,179.8 211,184.7 C211,189.7 207,193.7 202,193.7 z M232.6,177.7 C232.3,178.1 231.3,178.2 231,178.2 L223.3,178.2 C220.5,169.2 212,162.6 202.1,162.6 C192.1,162.6 183.7,169.2 180.9,178.2 L105.7,178.2 C102.9,169.2 94.4,162.6 84.5,162.6 C74.6,162.6 66.1,169.2 63.3,178.2 L54,178.2 C52.5,178.2 51.4,177.8 51,177.1 C50.5,176.4 50.4,174.9 51.3,172.8 L62.7,144.5 C64.9,139 72.1,134.1 78,134.1 L204,134.1 C209.9,134.1 217.4,139 219.7,144.5 L232,173 C233.2,175.6 232.9,177.2 232.6,177.7 z" fill="#000000"/>
  </g>
</svg>
