<?xml version="1.0" encoding="UTF-8"?>
<!DOCTYPE svg PUBLIC "-//W3C//DTD SVG 1.1//EN" "http://www.w3.org/Graphics/SVG/1.1/DTD/svg11.dtd">
<svg version="1.1" xmlns="http://www.w3.org/2000/svg" xmlns:xlink="http://www.w3.org/1999/xlink" x="0" y="0" width="283.5" height="283.5" viewBox="0, 0, 283.5, 283.5">
  <g id="Background">
    <rect x="0" y="0" width="283.5" height="283.5" fill="#FFFFFF"/>
  </g>
  <g id="Layer_1">
    <path d="M141.7,1.4 C219.1,1.4 282,64.3 282,141.7 C282,219.1 219.1,282 141.7,282 C64.4,282 1.4,219 1.4,141.7 C1.4,64.4 64.4,1.4 141.7,1.4 z M141.7,14.7 C71.7,14.7 14.7,71.7 14.7,141.7 C14.7,211.7 71.7,268.7 141.7,268.7 C211.7,268.7 268.7,211.7 268.7,141.7 C268.7,71.7 211.7,14.7 141.7,14.7 z M141.7,58.9 C187.4,58.9 224.7,96 224.7,141.7 C224.7,187.4 187.5,224.6 141.8,224.6 C96.1,224.6 58.9,187.4 58.9,141.7 C58.9,96 96,58.9 141.7,58.9 z M152.4,167.9 C149.1,169.2 145.5,170 141.7,170 C137.9,170 134.3,169.3 131,167.9 L106.5,201.6 C116.8,207.7 128.9,211.2 141.7,211.2 C154.5,211.2 166.6,207.7 176.9,201.6 L152.4,167.9 z M209.6,126.7 L169.9,139.6 C170,140.3 170,141 170,141.7 C170,148.7 167.5,155.1 163.3,160 L187.8,193.7 C202.1,181 211.2,162.4 211.3,141.7 C211.3,136.6 210.7,131.5 209.6,126.7 z M73.9,126.7 C72.8,131.5 72.2,136.5 72.2,141.7 C72.2,162.4 81.3,181 95.7,193.7 L120.2,160 C116,155 113.5,148.7 113.5,141.7 C113.5,141 113.5,140.3 113.6,139.6 L73.9,126.7 z M141.7,126.8 C133.5,126.8 126.8,133.5 126.8,141.7 C126.8,149.9 133.5,156.6 141.7,156.6 C149.9,156.6 156.6,149.9 156.6,141.7 C156.6,133.5 149.9,126.8 141.7,126.8 z M135,72.6 C109.5,75 87.9,91.4 78,114 L117.6,126.9 C121.5,120.7 127.7,116.1 135,114.3 L135,72.6 z M148.3,72.6 L148.3,114.3 C155.6,116.1 161.8,120.7 165.7,126.9 L205.4,114 C195.6,91.4 174,75 148.3,72.6 z" fill="#010202"/>
  </g>
</svg>
