<?xml version="1.0" encoding="UTF-8"?>
<!DOCTYPE svg PUBLIC "-//W3C//DTD SVG 1.1//EN" "http://www.w3.org/Graphics/SVG/1.1/DTD/svg11.dtd">
<svg version="1.1" xmlns="http://www.w3.org/2000/svg" xmlns:xlink="http://www.w3.org/1999/xlink" x="0" y="0" width="283.5" height="283.5" viewBox="0, 0, 283.5, 283.5">
  <g id="Background">
    <rect x="0" y="0" width="283.5" height="283.5" fill="#FFFFFF"/>
  </g>
  <g id="Ebene_4">
    <path d="M91.3,65.2 C94.9,65.2 97.8,68.1 97.8,71.7 C97.8,75.3 94.9,78.2 91.3,78.2 L84,78.2 C77.3,78.2 71.3,82.4 69.1,88.7 L53.7,132.6 L223.2,132.6 C236.7,132.6 247.7,143.6 247.7,157.1 L247.7,203.4 C247.7,216.8 236.8,227.8 223.3,227.8 L203.2,227.8 L203.2,255 C203.2,258.6 200.3,261.5 196.7,261.5 C193.1,261.5 190.2,258.6 190.2,255 L190.2,227.8 L62.5,227.8 L62.5,255 C62.5,258.6 59.6,261.5 56,261.5 C52.4,261.5 49.5,258.6 49.5,255 L49.5,227.8 L29.4,227.8 C16,227.8 5,216.9 5,203.4 L5,157.1 C5,143.6 16,132.6 29.4,132.6 L40,132.6 L56.9,84.4 C60.9,72.9 71.8,65.2 84,65.2 L91.3,65.2 z M223.2,145.7 L29.4,145.7 C23.1,145.7 18,150.8 18,157.1 L18,203.4 C18,209.7 23.1,214.8 29.4,214.8 L223.3,214.8 C229.6,214.8 234.7,209.7 234.7,203.4 L234.6,203.4 L234.6,157.1 C234.6,150.8 229.5,145.7 223.2,145.7 z M197.8,160.8 C209.1,160.8 218.2,170 218.2,181.2 C218.2,192.4 209,201.6 197.8,201.6 C186.6,201.6 177.4,192.4 177.4,181.2 C177.4,170 186.5,160.8 197.8,160.8 z M197.8,173.9 C193.7,173.9 190.4,177.2 190.4,181.3 C190.4,185.4 193.7,188.7 197.8,188.7 C201.9,188.7 205.2,185.4 205.2,181.3 C205.2,177.2 201.9,173.9 197.8,173.9 z M54.9,160.8 C66.1,160.8 75.3,170 75.3,181.2 C75.3,192.4 66.2,201.6 54.9,201.6 C43.7,201.6 34.5,192.4 34.5,181.2 C34.5,170 43.6,160.8 54.9,160.8 z M54.9,173.9 C50.8,173.9 47.5,177.2 47.5,181.3 C47.5,185.4 50.8,188.7 54.9,188.7 C59,188.7 62.3,185.4 62.3,181.3 C62.3,177.2 59,173.9 54.9,173.9 z M204.4,43.7 C195.6,43.7 187.4,47.7 182,54.6 C179.7,57.3 180.2,61.4 183,63.7 C185.8,65.9 189.9,65.4 192.1,62.6 C195.1,58.8 199.5,56.7 204.3,56.7 C208.8,56.7 212.9,58.6 215.8,61.8 L212.3,61.8 C208.7,61.8 205.8,64.7 205.8,68.3 C205.8,71.9 208.7,74.8 212.3,74.8 L230,74.8 C233.6,74.8 236.5,71.9 236.5,68.3 L236.5,50.6 C236.5,47 233.6,44.1 230,44.1 C226.4,44.1 223.5,47 223.5,50.6 L223.5,51.1 C218.4,46.5 211.6,43.7 204.4,43.7 z M146.5,64.1 C142.1,64.1 138.5,67.7 138.5,72.1 C138.5,76.5 142.1,80.1 146.5,80.1 C150.9,80.1 154.5,76.5 154.5,72.1 C154.5,67.7 151,64.1 146.5,64.1 z M196,68.8 L178.3,68.8 C174.7,68.8 171.8,71.7 171.8,75.3 L171.8,93 C171.8,96.4 174.8,99.4 178.3,99.4 C181.9,99.4 184.7,96.5 184.8,93 C189.9,97.8 196.8,100.8 204.3,100.8 C213.8,100.8 222.6,96.1 228,88.2 C230,85.2 229.2,81.2 226.3,79.2 C223.3,77.2 219.3,78 217.3,80.9 C214.4,85.2 209.6,87.8 204.4,87.8 C199.5,87.8 195,85.5 192.1,81.8 L196,81.8 C199.6,81.8 202.5,78.9 202.5,75.3 C202.5,71.7 199.6,68.8 196,68.8 z M262.4,39.3 L262.4,105.1 L156.3,105.1 L123.4,72.2 L156.3,39.3 L262.4,39.3 z M269,26.3 L153.7,26.3 C152,26.3 150.3,27 149.1,28.2 L109.7,67.6 C107.2,70.1 107.2,74.3 109.7,76.8 L149.1,116.2 C150.3,117.4 152,118.1 153.7,118.1 L269,118.1 C272.6,118.1 275.5,115.2 275.5,111.6 L275.5,32.8 C275.5,29.2 272.6,26.3 269,26.3 z" fill="#000000"/>
  </g>
</svg>
