<?xml version="1.0" encoding="UTF-8"?>
<!DOCTYPE svg PUBLIC "-//W3C//DTD SVG 1.1//EN" "http://www.w3.org/Graphics/SVG/1.1/DTD/svg11.dtd">
<svg version="1.1" xmlns="http://www.w3.org/2000/svg" xmlns:xlink="http://www.w3.org/1999/xlink" x="0" y="0" width="283.5" height="283.5" viewBox="0, 0, 283.5, 283.5">
  <g id="Background">
    <rect x="0" y="0" width="283.5" height="283.5" fill="#FFFFFF"/>
  </g>
  <g id="Layer_1">
    <path d="M225.9,1.4 C229.8,1.4 232.9,4.5 232.9,8.4 L232.9,219 C232.9,222.9 229.8,226 225.9,226 L57.5,226 C45.9,226 36.5,235.4 36.5,247 C36.5,258.6 45.9,268 57.5,268 L247,268 L247,64.5 C247,60.6 250.1,57.5 254,57.5 C257.9,57.5 261,60.7 261,64.6 L261,275.1 C261,279 257.9,282.1 254,282.1 L57.5,282.1 C38.2,282.1 22.4,266.4 22.4,247.1 L22.4,36.4 C22.5,17.1 38.2,1.4 57.5,1.4 L225.9,1.4 z M218.9,15.4 L57.5,15.4 C45.9,15.4 36.5,24.9 36.5,36.5 L36.5,218.9 C42.3,214.5 49.6,211.8 57.5,211.8 L218.9,211.8 L218.9,15.4 z M80.5,119 C82.4,119 83.4,119.7 83.8,120.9 L97.9,159.5 L98.2,159.5 L111.2,121.3 C111.7,119.7 112.5,119.1 114.8,119.1 L122.4,119.1 C123.9,119.1 124.6,120.2 124.1,121.5 L103.9,175.5 C103.5,176.7 102.4,177.5 101,177.5 L94.1,177.5 C92.2,177.5 91.3,176.5 90.7,175.1 L69.4,121.5 C68.9,120.3 69.4,119 71,119 L80.5,119 z M140.5,119 C142.4,119 143.4,119.7 143.7,120.8 L157.8,159.4 L158.1,159.4 L171.1,121.2 C171.6,119.6 172.4,119 174.7,119 L182.3,119 C183.8,119 184.5,120.1 184,121.4 L163.8,175.4 C163.4,176.6 162.3,177.4 160.9,177.4 L154,177.4 C152.1,177.4 151.2,176.4 150.6,175 L129.3,121.5 C128.8,120.3 129.3,119 130.9,119 L140.5,119 z M112.2,51.6 C113.8,51.6 114.6,52 114.6,53.8 L114.6,82.8 C114.6,96.1 119.2,99.8 127,99.8 C134.5,99.8 139,95.9 139,82.9 L139,53.8 C139,52.1 140,51.6 141.5,51.6 L149.8,51.6 C151.4,51.6 152.2,52 152.2,53.8 L152.2,83.8 C152.2,102.8 142.6,111.2 126.4,111.2 C109,111.2 101.2,101.7 101.3,83.9 L101.3,53.8 C101.3,52.1 102.4,51.6 103.9,51.6 L112.2,51.6 z M220.3,239.9 L57.5,239.9 C53.6,239.9 50.5,243 50.5,246.9 C50.5,250.8 53.6,253.9 57.5,253.9 L220.3,253.9 C224.2,253.9 227.3,250.8 227.3,246.9 C227.3,243 224.2,239.9 220.3,239.9 z" fill="#000000"/>
  </g>
</svg>
