<?xml version="1.0" encoding="UTF-8"?>
<!DOCTYPE svg PUBLIC "-//W3C//DTD SVG 1.1//EN" "http://www.w3.org/Graphics/SVG/1.1/DTD/svg11.dtd">
<svg version="1.1" xmlns="http://www.w3.org/2000/svg" xmlns:xlink="http://www.w3.org/1999/xlink" x="0" y="0" width="283.5" height="283.5" viewBox="0, 0, 283.5, 283.5">
  <g id="Background">
    <rect x="0" y="0" width="283.5" height="283.5" fill="#FFFFFF"/>
  </g>
  <g id="Layer_1">
    <path d="M138.5,70.2 C142.3,70.2 145.3,73.3 145.3,77 C145.3,80.8 142.2,83.8 138.5,83.8 L74.3,83.8 C69.7,83.8 64.1,87.7 62.6,92 L46.2,137.8 L217.2,137.8 C235.8,137.8 251,152.9 251.1,171.5 L251.1,212 C251.1,230.6 236,245.7 217.4,245.7 L210.6,245.7 L210.6,276.7 C210.6,280.5 207.5,283.5 203.8,283.5 C200,283.5 197,280.4 197,276.7 L197,245.7 L54,245.7 L54,276.7 C54,280.5 50.9,283.5 47.2,283.5 C43.4,283.5 40.4,280.4 40.4,276.7 L40.4,245.7 L33.7,245.7 C15.1,245.7 -0,230.6 0,212 L0,171.5 C-0,153.5 14.1,138.8 31.9,137.7 L31.9,137.5 L49.8,87.4 C53.2,77.8 64,70.2 74.2,70.2 L138.5,70.2 z M217.2,151.3 L33.7,151.3 C22.6,151.3 13.5,160.3 13.5,171.5 L13.5,212 C13.5,223.1 22.5,232.2 33.7,232.2 L217.3,232.2 C228.4,232.2 237.5,223.2 237.5,212 L237.4,212 L237.4,171.5 C237.4,160.4 228.4,151.3 217.2,151.3 z M203.7,172.7 C214.9,172.7 224,181.8 224,192.9 C224,204 214.9,213.1 203.7,213.1 C192.6,213.1 183.5,204.1 183.5,192.9 C183.5,181.8 192.5,172.7 203.7,172.7 z M203.7,186.2 C200,186.2 197,189.2 197,192.9 C197,196.6 200,199.6 203.7,199.6 C207.5,199.6 210.5,196.6 210.5,192.9 C210.5,189.2 207.4,186.2 203.7,186.2 z M47.2,172.7 C58.4,172.7 67.5,181.8 67.4,192.9 C67.4,204 58.4,213.1 47.2,213.1 C36.1,213.1 27,204.1 27,192.9 C27,181.8 36,172.7 47.2,172.7 z M47.2,186.2 C43.5,186.2 40.5,189.2 40.5,192.9 C40.5,196.6 43.5,199.6 47.2,199.6 C50.9,199.6 54,196.6 53.9,192.9 C53.9,189.2 50.9,186.2 47.2,186.2 z M250.982,32.704 C248.302,33.056 247.075,33.085 245.2,35.3 L213.2,77 L197.8,59.8 C195.3,57 191,56.8 188.3,59.3 C185.5,61.8 185.3,66.1 187.8,68.8 L208.6,92.1 C209.9,93.5 211.7,94.3 213.6,94.3 L213.9,94.3 C215.9,94.2 217.8,93.3 219,91.7 L255.9,43.6 C258.2,40.6 257.6,36.4 254.7,34.1 C252.78,32.911 253.97,33.489 250.982,32.704 z M270,13.4 L270,110 L173.4,110 L173.4,13.4 L270,13.4 z M276.7,-0.1 L166.6,-0.1 C162.9,-0.1 159.8,2.9 159.8,6.7 L159.8,116.8 C159.8,120.5 162.8,123.6 166.6,123.6 L276.7,123.6 C280.4,123.6 283.5,120.6 283.5,116.8 L283.5,6.7 C283.5,3 280.4,-0.1 276.7,-0.1 z" fill="#000000"/>
  </g>
</svg>
