<?xml version="1.0" encoding="UTF-8"?>
<!DOCTYPE svg PUBLIC "-//W3C//DTD SVG 1.1//EN" "http://www.w3.org/Graphics/SVG/1.1/DTD/svg11.dtd">
<svg version="1.1" xmlns="http://www.w3.org/2000/svg" xmlns:xlink="http://www.w3.org/1999/xlink" x="0" y="0" width="283.5" height="283.5" viewBox="0, 0, 283.5, 283.5">
  <g id="Background">
    <rect x="0" y="0" width="283.5" height="283.5" fill="#FFFFFF"/>
  </g>
  <g id="Layer_1">
    <path d="M140.6,80.1 C162.7,80.1 180.7,62.1 180.7,40 C180.7,17.9 162.7,-0.1 140.6,-0.1 C118.5,-0.1 100.5,17.9 100.5,40 C100.5,62.1 118.5,80.1 140.6,80.1 z M140.6,13.5 C155.2,13.5 167.2,25.4 167.2,40.1 C167.2,54.7 155.3,66.7 140.6,66.7 C126,66.7 114,54.8 114,40.1 C114,25.4 125.9,13.5 140.6,13.5 z M185.3,203.3 C186.8,200.8 186.5,197 184.3,192.8 L147.7,119.6 C145.6,115.3 143.2,113.4 141.7,113.4 C140.3,113.4 137.9,115.3 135.7,119.6 L99.1,192.8 C97,197 96.7,200.8 98.2,203.3 C99.7,205.8 103.3,207.2 108,207.2 L175.5,207.2 C180.2,207.2 183.8,205.8 185.3,203.3 z M196.4,186.8 C200.7,195.2 200.8,203.8 196.7,210.4 C192.6,216.9 184.9,220.7 175.4,220.7 L147.2,220.7 L147.2,276.7 C147.2,280.4 144.2,283.4 140.5,283.4 C136.8,283.4 133.8,280.4 133.8,276.7 L133.8,220.7 L108,220.7 C98.5,220.7 90.7,216.9 86.7,210.4 C82.7,203.9 82.8,195.3 87,186.8 L123.6,113.6 C129.5,101.7 137.5,99.9 141.7,99.9 C145.9,99.9 153.8,101.7 159.8,113.6 L196.4,186.8 z" fill="#010202"/>
  </g>
</svg>
