<?xml version="1.0" encoding="UTF-8"?>
<!DOCTYPE svg PUBLIC "-//W3C//DTD SVG 1.1//EN" "http://www.w3.org/Graphics/SVG/1.1/DTD/svg11.dtd">
<svg version="1.1" xmlns="http://www.w3.org/2000/svg" xmlns:xlink="http://www.w3.org/1999/xlink" x="0" y="0" width="283.5" height="283.5" viewBox="0, 0, 283.5, 283.5">
  <g id="Background">
    <rect x="0" y="0" width="283.5" height="283.5" fill="#FFFFFF"/>
  </g>
  <g id="Layer_1">
    <path d="M85.421,119.992 C88.854,119.846 91.196,121.439 92.6,124.5 C93.8,128 91.9,131.8 88.4,133 C59.8,142.7 40.6,169.5 40.6,199.7 C40.6,238.5 72.2,270.1 111,270.1 C149.8,270.1 181.4,238.5 181.4,199.7 C181.4,196 184.4,193 188.1,193 C191.8,193 194.8,196 194.8,199.7 C194.8,245.9 157.2,283.5 111,283.5 C64.8,283.5 27.2,245.9 27.2,199.7 C27.2,163.7 50.1,131.9 84.1,120.3 L85.421,119.992 z M110.8,92.7 C107.1,92.7 104.1,95.7 104.1,99.4 L104.1,174 C104.1,177.7 107.1,180.7 110.8,180.7 L195.4,180.7 L244.8,230.1 C246.1,231.4 247.8,232.1 249.5,232.1 C251.2,232.1 253,231.4 254.2,230.1 C256.8,227.5 256.8,223.2 254.2,220.6 L202.8,169.2 C201.6,167.9 199.9,167.2 198.1,167.2 L117.5,167.2 L117.5,99.4 C117.5,95.7 114.5,92.7 110.8,92.7 z M110.8,13.4 C125.3,13.4 137.2,25.3 137.2,39.8 C137.2,54.4 125.4,66.2 110.8,66.2 C96.2,66.2 84.4,54.4 84.4,39.8 C84.4,25.2 96.2,13.4 110.8,13.4 z M110.8,-0 C88.8,-0 71,17.9 71,39.8 C71,61.7 88.8,79.6 110.8,79.6 C132.7,79.6 150.6,61.8 150.6,39.8 C150.6,17.9 132.8,-0 110.8,-0 z" fill="#010202"/>
  </g>
</svg>
