<?xml version="1.0" encoding="UTF-8"?>
<!DOCTYPE svg PUBLIC "-//W3C//DTD SVG 1.1//EN" "http://www.w3.org/Graphics/SVG/1.1/DTD/svg11.dtd">
<svg version="1.1" xmlns="http://www.w3.org/2000/svg" xmlns:xlink="http://www.w3.org/1999/xlink" x="0" y="0" width="283.5" height="283.5" viewBox="0, 0, 283.5, 283.5">
  <g id="Background">
    <rect x="0" y="0" width="283.5" height="283.5" fill="#FFFFFF"/>
  </g>
  <g id="Layer_1">
    <path d="M141.7,80.1 C163.8,80.1 181.8,62.1 181.8,40 C181.8,17.9 163.8,-0.1 141.7,-0.1 C119.6,-0.1 101.6,17.9 101.6,40 C101.7,62.1 119.6,80.1 141.7,80.1 z M141.7,13.5 C156.3,13.5 168.3,25.4 168.3,40.1 C168.3,54.8 156.4,66.7 141.7,66.7 C127.1,66.7 115.1,54.8 115.1,40.1 C115.1,25.4 127.1,13.5 141.7,13.5 z M186,121.1 C187.7,117.9 188,115 186.8,113.1 C185.7,111.2 183,110.2 179.3,110.2 L104.1,110.2 C100.5,110.2 97.7,111.3 96.6,113.1 C95.5,114.9 95.8,117.8 97.4,121.1 L141.7,209.9 L186,121.1 z M198.3,106.1 C202,111.9 201.9,119.6 197.9,127.2 L148.3,226.7 L148.3,276.8 C148.3,280.5 145.3,283.5 141.6,283.5 C137.9,283.5 134.9,280.5 134.9,276.8 L134.9,226.7 L85.3,127.2 C81.5,119.7 81.5,112 85.1,106.1 C88.7,100.2 95.7,96.8 104.1,96.8 L179.3,96.8 C187.7,96.8 194.7,100.2 198.3,106.1 z" fill="#010202"/>
  </g>
</svg>
