<?xml version="1.0" encoding="UTF-8"?>
<!DOCTYPE svg PUBLIC "-//W3C//DTD SVG 1.1//EN" "http://www.w3.org/Graphics/SVG/1.1/DTD/svg11.dtd">
<svg version="1.1" xmlns="http://www.w3.org/2000/svg" xmlns:xlink="http://www.w3.org/1999/xlink" x="0" y="0" width="283.5" height="283.5" viewBox="0, 0, 283.5, 283.5">
  <g id="Background">
    <rect x="0" y="0" width="283.5" height="283.5" fill="#FFFFFF"/>
  </g>
  <g id="Layer_1">
    <path d="M112.4,66.6 C116.1,66.6 119.1,69.6 119.1,73.3 C119.1,77 116.1,80 112.4,80 C60.1,80 17.6,122.5 17.6,174.8 C17.6,227.1 60.1,269.6 112.4,269.6 C164.7,269.6 207.2,227.1 207.2,174.8 C207.2,171.1 210.2,168.1 213.9,168.1 C217.7,168.1 220.7,171.1 220.6,174.8 C220.6,234.4 172,283 112.4,283 C52.8,283 4.2,234.5 4.2,174.8 C4.2,115.1 52.7,66.6 112.4,66.6 z M112.4,130.8 C119.7,130.8 126.5,132.6 132.5,135.7 L119.8,153.2 C117.5,152.4 115,152 112.4,152 C109.8,152 107.3,152.4 105,153.2 L92.3,135.7 C98.3,132.6 105.2,130.8 112.4,130.8 z M143.4,143.5 C151.5,151.6 156.4,162.6 156.4,174.8 C156.4,177.2 156.2,179.5 155.8,181.8 L135.3,175.1 L135.3,174.7 C135.3,169.5 133.6,164.8 130.7,161 L143.4,143.5 z M81.4,143.6 L94.1,161.1 C91.2,164.9 89.5,169.7 89.5,174.9 C89.5,175 89.5,175.1 89.5,175.3 L69,181.8 C68.6,179.5 68.4,177.2 68.4,174.8 C68.4,162.6 73.4,151.6 81.4,143.6 z M112.4,165.4 C117.6,165.4 121.8,169.6 121.8,174.8 C121.9,180 117.6,184.2 112.4,184.2 C107.2,184.2 103,180 103,174.8 C103,169.6 107.2,165.4 112.4,165.4 z M131.2,188 L151.7,194.7 C145.4,207.1 133.4,216.1 119.2,218.3 L119.2,196.7 C124.1,195.2 128.3,192.1 131.2,188 z M93.7,188 C96.6,192.1 100.8,195.2 105.7,196.7 L105.7,218.3 C91.5,216.1 79.5,207.1 73.2,194.7 L93.7,188 z M112.4,117.3 C80.7,117.3 54.9,143.1 54.9,174.8 C54.9,206.5 80.7,232.3 112.4,232.3 C144.1,232.3 169.9,206.5 169.9,174.8 C169.9,143.1 144.1,117.3 112.4,117.3 z M214.3,0.1 C210.6,0.1 207.6,3.1 207.6,6.8 L207.6,18 L199.6,13.4 C196.4,11.5 192.3,12.6 190.4,15.9 C188.5,19.1 189.6,23.2 192.9,25.1 L207.6,33.6 L207.6,62.5 L182.6,48.1 L182.6,31 C182.6,27.3 179.6,24.3 175.9,24.3 C172.2,24.3 169.2,27.3 169.2,31 L169.2,40.2 L159.4,34.6 C156.2,32.7 152.1,33.8 150.2,37.1 C148.3,40.3 149.4,44.4 152.7,46.3 L162.5,51.9 L154.5,56.5 C151.3,58.4 150.2,62.5 152,65.7 C153.2,67.9 155.5,69.1 157.8,69.1 C158.9,69.1 160.1,68.8 161.2,68.2 L175.9,59.7 L200.9,74.1 L175.9,88.5 L161,80.1 C157.8,78.2 153.7,79.3 151.8,82.6 C149.9,85.8 151,89.9 154.3,91.8 L162.3,96.4 L152.5,102 C149.3,103.9 148.2,108 150,111.2 C151.2,113.4 153.5,114.6 155.8,114.6 C156.9,114.6 158.1,114.3 159.2,113.7 L169,108.1 L169,117.3 C169,121 172,124 175.7,124 C179.4,124 182.4,121 182.4,117.3 L182.4,100.3 L207.4,85.9 L207.4,114.8 L192.7,123.3 C189.5,125.2 188.4,129.3 190.2,132.5 C191.4,134.7 193.7,135.9 196,135.9 C197.1,135.9 198.3,135.6 199.4,135 L207.4,130.4 L207.4,141.7 C207.4,145.4 210.4,148.4 214.1,148.4 C217.8,148.4 220.8,145.4 220.8,141.7 L220.8,130.4 L228.8,135 C229.9,135.6 231,135.9 232.2,135.9 C234.5,135.9 236.8,134.7 238,132.5 C239.9,129.3 238.8,125.2 235.5,123.3 L220.8,114.8 L220.8,85.8 L245.8,100.2 L245.8,117.2 C245.8,120.9 248.8,123.9 252.5,123.9 C256.2,123.9 259.2,120.9 259.2,117.2 L259.2,108 L269,113.6 C270.1,114.2 271.2,114.5 272.4,114.5 C274.7,114.5 277,113.3 278.2,111.1 C280.2,108 279.1,103.9 275.9,102 L266.1,96.4 L274.1,91.8 C277.3,89.9 278.4,85.8 276.6,82.6 C274.7,79.4 270.6,78.3 267.4,80.1 L252.7,88.6 L227.7,74.2 L252.7,59.8 L267.4,68.3 C268.5,68.9 269.6,69.2 270.8,69.2 C273.1,69.2 275.4,68 276.6,65.8 C278.5,62.6 277.4,58.5 274.1,56.6 L266.1,52 L275.9,46.4 C279.1,44.5 280.2,40.4 278.4,37.2 C276.5,34 272.4,32.9 269.2,34.7 L259.4,40.3 L259.4,31.1 C259.4,27.4 256.4,24.4 252.7,24.4 C249,24.4 246,27.4 246,31.1 L246,48.1 L221,62.5 L221,33.6 L235.7,25.1 C238.9,23.2 240,19.1 238.2,15.9 C236.3,12.7 232.2,11.6 229,13.4 L221,18 L221,6.8 C221,3.1 218,0.1 214.3,0.1 z" fill="#000000"/>
  </g>
</svg>
