<?xml version="1.0" encoding="UTF-8"?>
<!DOCTYPE svg PUBLIC "-//W3C//DTD SVG 1.1//EN" "http://www.w3.org/Graphics/SVG/1.1/DTD/svg11.dtd">
<svg version="1.1" xmlns="http://www.w3.org/2000/svg" xmlns:xlink="http://www.w3.org/1999/xlink" x="0" y="0" width="283.5" height="283.5" viewBox="0, 0, 283.5, 283.5">
  <g id="Background">
    <rect x="0" y="0" width="283.5" height="283.5" fill="#FFFFFF"/>
  </g>
  <g id="Layer_1">
    <path d="M141.7,3.5 C164,3.5 183.9,19 198.2,44.2 L199.3,44.2 C228.8,44.2 250.8,54.3 261.4,72.6 C272.5,91.9 269.1,116.8 254.5,141.8 C269.1,166.7 272.5,191.6 261.4,210.9 C250.8,229.2 228.8,239.3 199.3,239.3 L198.2,239.3 C183.9,264.5 164.1,280 141.7,280 C119.3,280 99.4,264.5 85.2,239.2 L84.1,239.2 C54.6,239.2 32.6,229.1 22,210.8 C11.3,192.2 13.8,167.7 29.2,141.7 C13.8,115.7 11.2,91.2 22,72.6 C32.6,54.3 54.6,44.2 84.1,44.2 L85.2,44.2 C99.5,19 119.4,3.5 141.7,3.5 z M141.7,228.5 C127.7,233.5 113.7,236.8 100.4,238.3 C111.8,256 126.2,266.8 141.7,266.8 C157.2,266.8 171.6,256 183,238.3 C169.7,236.8 155.7,233.5 141.7,228.5 z M246.1,154.3 C238.2,164.8 228.4,175.2 216.9,185 C214.2,199.9 210,213.7 204.8,225.8 C226.5,224.8 242.5,217.2 250,204.2 C257.7,190.9 255.6,173.1 246.1,154.3 z M37.4,154 C27.3,173.5 25.8,191.1 33.4,204.2 C40.9,217.2 56.9,224.8 78.7,225.8 C73.4,213.6 69.3,199.9 66.6,184.9 C55.2,175.2 45.4,164.8 37.4,154 z M83.2,197.9 C85.9,208 89.4,217.3 93.4,225.7 C102.7,225 112.4,223.3 122.4,220.6 C115.6,217.4 108.9,214 102.2,210.1 C95.6,206.3 89.3,202.2 83.2,197.9 z M200.2,198 C194.2,202.2 187.9,206.3 181.2,210.1 C174.5,214 167.8,217.5 161,220.6 C170.9,223.3 180.7,225 190,225.7 C194,217.3 197.4,208 200.2,198 z M141.7,69.1 C130.6,73.3 119.5,78.5 108.8,84.7 C98,91 88,97.9 78.9,105.3 C76.9,116.9 75.9,129.1 75.9,141.7 C75.9,154.3 77,166.5 78.9,178.1 C88,185.6 98,192.5 108.8,198.7 C119.5,204.9 130.6,210.1 141.7,214.3 C152.8,210.1 163.9,204.9 174.6,198.7 C185.5,192.4 195.5,185.4 204.5,178 C206.5,166.4 207.5,154.3 207.5,141.7 C207.5,129.1 206.4,116.9 204.5,105.4 C195.5,98 185.5,91 174.6,84.7 C163.9,78.5 152.8,73.3 141.7,69.1 z M141.7,135.6 C162.2,135.6 178.8,152.2 178.7,172.7 C178.7,176.1 178.3,179.6 177.3,182.9 C176.5,185.8 173.9,187.7 171,187.7 L112.3,187.7 C109.4,187.7 106.8,185.7 106,182.9 C105.1,179.6 104.6,176.2 104.6,172.7 C104.6,152.2 121.2,135.6 141.7,135.6 z M141.6,148.7 C128.4,148.7 117.7,159.5 117.7,172.7 C117.7,173.3 117.7,173.9 117.8,174.5 L165.6,174.5 C165.6,173.9 165.6,173.3 165.5,172.7 C165.5,159.4 154.8,148.7 141.6,148.7 z M141.7,85.3 C154.1,85.3 164.2,95.4 164.2,107.8 C164.2,120.2 154.1,130.3 141.7,130.3 C129.3,130.3 119.2,120.2 119.2,107.8 C119.2,95.4 129.3,85.3 141.7,85.3 z M141.7,98.4 C136.6,98.4 132.4,102.6 132.4,107.7 C132.4,112.8 136.5,117 141.7,117 C146.8,117 151,112.8 151,107.7 C151,102.6 146.9,98.4 141.7,98.4 z M63.8,118.9 C56.5,126.2 50.1,133.9 44.8,141.7 C50.1,149.5 56.5,157.2 63.8,164.5 C63.1,157.1 62.7,149.5 62.8,141.7 C62.8,133.9 63.1,126.3 63.8,118.9 z M219.7,119.2 C220.3,126.5 220.7,134 220.7,141.7 C220.7,149.4 220.4,156.9 219.7,164.2 C227,156.9 233.3,149.3 238.5,141.7 C233.3,134.1 227,126.6 219.7,119.2 z M78.6,57.6 C56.9,58.6 40.9,66.2 33.4,79.2 C25.9,92.3 27.3,109.9 37.3,129.4 C45.3,118.6 55.2,108.2 66.5,98.5 C69.2,83.5 73.3,69.7 78.6,57.6 z M204.7,57.6 C210,69.7 214.1,83.5 216.8,98.4 C228.3,108.2 238.1,118.5 246,129.1 C255.6,110.4 257.7,92.6 250,79.2 C242.5,66.2 226.5,58.6 204.7,57.6 z M93.4,57.8 C89.4,66.1 85.9,75.5 83.2,85.6 C89.2,81.3 95.6,77.2 102.2,73.4 C108.9,69.5 115.6,66 122.4,62.9 C112.5,60.2 102.7,58.5 93.4,57.8 z M190,57.8 C180.7,58.5 171,60.2 161,62.9 C167.8,66.1 174.5,69.5 181.2,73.4 C187.9,77.2 194.2,81.3 200.2,85.5 C197.4,75.4 194,66.1 190,57.8 z M141.7,16.7 C126.2,16.7 111.8,27.5 100.4,45.2 C113.8,46.7 127.7,50 141.7,55 C155.7,50 169.7,46.7 183,45.2 C171.6,27.5 157.2,16.7 141.7,16.7 z" fill="#000000"/>
  </g>
</svg>
